<?xml version="1.0" encoding="UTF-8" standalone="no"?>
<svg
   width="1024"
   height="1024"
   version="1.1"
   id="svg20"
   xml:space="preserve"
   xmlns="http://www.w3.org/2000/svg"
   xmlns:svg="http://www.w3.org/2000/svg"><defs
     id="defs20" /><g
     id="layer1"><path
       d="M 512,353.28123 C 400.99906,353.28123 305.03903,417.59703 257.84022,512 305.04224,606.40297 400.99906,670.71877 512,670.71877 623.00094,670.71877 718.96097,606.39762 766.15978,512 718.96151,417.59703 623.00094,353.28123 512,353.28123 Z m 125.52283,84.0279 c 30.08396,19.19094 54.97878,44.60745 74.17185,74.69087 -19.19094,30.0845 -44.09057,55.50314 -74.17185,74.69087 -37.86392,23.85785 -80.91377,36.3074 -125.52283,36.3074 -44.60906,0 -87.66104,-12.44955 -125.52283,-36.82909 -30.08396,-19.19094 -54.97878,-44.60745 -74.17185,-74.69088 19.19094,-30.08395 44.09057,-55.50314 74.17185,-74.69087 2.07319,-1.03841 4.15002,-2.5942 5.70603,-3.63261 -5.1884,13.48492 -7.77891,28.00734 -7.77891,43.5694 0,70.02504 57.06021,127.0799 127.0799,127.0799 70.02503,0 127.0799,-57.06021 127.0799,-127.0799 0,-15.04037 -2.5942,-30.08395 -7.7789,-43.5694 2.59056,1.55942 4.66739,3.11519 6.74032,4.15361 z M 512,461.17072 c 0,26.45241 -21.26756,47.71997 -47.71997,47.71997 -26.45242,0 -47.71998,-21.26756 -47.71998,-47.71997 0,-26.45242 21.26756,-47.71998 47.71998,-47.71998 26.45241,0 47.71997,21.78498 47.71997,47.71998 z"
       fill="#01c181"
       id="path1-0"
       style="stroke-width:5.35074" /><rect
       style="fill:none;fill-opacity:1"
       id="rect21"
       width="1024"
       height="1024"
       x="0"
       y="0" /></g></svg>
