<?xml version="1.0" encoding="UTF-8"?>
<svg version="1.1" viewBox="0 0 95 95" xml:space="preserve" xmlns="http://www.w3.org/2000/svg" style="background-color:#0f1f19"><path d="m47.5 17.837c-20.745 0-38.679 12.02-47.5 29.663 8.8216 17.643 26.755 29.663 47.5 29.663s38.679-12.021 47.5-29.663c-8.8209-17.643-26.755-29.663-47.5-29.663zm23.459 15.704c5.6224 3.5866 10.275 8.3367 13.862 13.959-3.5866 5.6225-8.2401 10.373-13.862 13.959-7.0764 4.4588-15.122 6.7855-23.459 6.7855s-16.383-2.3267-23.459-6.883c-5.6224-3.5866-10.275-8.3367-13.862-13.959 3.5866-5.6224 8.2401-10.373 13.862-13.959 0.38746-0.19407 0.7756-0.48483 1.0664-0.6789-0.96966 2.5202-1.4538 5.2343-1.4538 8.1427 0 13.087 10.664 23.75 23.75 23.75 13.087 0 23.75-10.664 23.75-23.75 0-2.8109-0.48483-5.6224-1.4538-8.1427 0.48415 0.29144 0.87229 0.5822 1.2597 0.77627zm-23.459 4.4595c0 4.9437-3.9747 8.9184-8.9184 8.9184-4.9437 0-8.9184-3.9747-8.9184-8.9184 0-4.9437 3.9747-8.9184 8.9184-8.9184 4.9437 0 8.9184 4.0714 8.9184 8.9184z" fill="#01c181"/></svg>
