<?xml version="1.0" encoding="UTF-8" standalone="no"?>
<svg
   version="1.1"
   id="Layer_1"
   x="0px"
   y="0px"
   viewBox="0 0 373.79998 364.60001"
   xml:space="preserve"
   width="373.79999"
   height="364.60001"
   xmlns="http://www.w3.org/2000/svg"
   xmlns:svg="http://www.w3.org/2000/svg"
   style="background-color:#cc2229"><defs
   id="defs13" />&#10;<style
   type="text/css"
   id="style1">&#10;	.st0{fill:#F9383D;}&#10;	.st1{fill:#FFFFFF;}&#10;	.st2{fill-rule:evenodd;clip-rule:evenodd;fill:#FFFFFF;}&#10;</style>&#10;&#10;&#10;&#10;&#10;&#10;&#10;&#10;&#10;&#10;&#10;&#10;&#10;&#10;<path
   d="m 173.01533,232.27629 c 0.08,-0.94609 0.11186,-0.76531 0.30288,-1.03648 0.55153,-0.48381 0.93528,-0.18853 1.49801,-0.0921 0.20994,0.0405 0.4371,0.062 0.77095,0.69645 0.63585,1.27925 1.67095,4.39386 2.53913,6.68635 1.14781,3.19037 2.22077,6.24989 2.92202,9.30166 0.19196,0.92833 0.3578,1.86188 0.49734,2.79953 0.21768,1.53407 0.23747,2.46897 0.22026,3.66988 -0.0448,2.58678 -0.61623,5.13725 -1.67956,7.49556 -0.54121,1.50307 -1.64945,2.5671 -1.9179,3.76974 -0.0233,0.14203 -0.043,0.66803 0.59542,0.55698 l 6.73374,-1.12601 1.26914,-1.6434 c 0.86042,0.77478 1.8895,0.77737 2.85663,0.22555 -0.15316,-2.80385 1.95747,-5.37439 -0.043,-8.23677 -1.14696,-1.53923 -1.74926,-2.97344 -2.06074,-4.51266 -0.24799,-1.04945 -0.43502,-2.1124 -0.56014,-3.18349 -0.4371,-3.57346 0.0722,-7.12194 0.19101,-10.71864 -0.0172,-0.31508 -0.0517,-0.63015 -0.14713,-1.27409 -0.0964,-0.64479 -0.25555,-1.61842 -0.42075,-2.5912 -0.1652,-0.97278 -0.33643,-1.9447 -0.43538,-2.53268 -0.18499,-1.09415 -0.15402,-1.12687 -0.15488,-1.62789 0.006,-0.20747 0.0233,-0.41494 0.0508,-0.62241 0.80622,-0.36414 1.64342,-0.71366 2.61399,-1.5685 0.38547,-0.4244 0.62295,-0.88927 0.62553,-1.36447 0.008,-0.17648 -0.11272,-0.77392 -0.22629,-1.37996 -0.0722,-0.37793 -0.14799,-0.75499 -0.34159,-1.683 -0.27229,-1.29522 -0.54819,-2.58969 -0.82774,-3.88337 -0.3132,-1.47983 -0.67286,-2.9872 -0.95852,-4.43432 l -0.13595,-0.7524 c -0.13595,-0.75584 -0.40698,-2.27011 -0.61434,-3.79211 -0.17704,-1.32999 -0.32106,-2.66417 -0.43194,-4.00131 -0.08,-0.94868 -0.0955,-1.31454 -0.10326,-1.68041 -0.008,-0.36673 -0.009,-0.7326 -0.0137,-2.28388 -0.005,-1.55128 -0.012,-4.28712 -0.0241,-6.14142 -0.005,-1.26534 -0.024,-2.53061 -0.056,-3.79556 -0.0525,-1.88358 -0.1282,-3.73014 -0.36138,-5.50783 -0.10652,-0.81045 -0.24256,-1.61676 -0.40784,-2.4173 -0.39752,-1.87497 -0.90346,-3.22998 -1.74323,-4.84152 1.15126,0.37018 2.31283,0.64565 3.48475,0.83418 0.68194,2.79124 1.1687,5.62662 1.45671,8.48556 0.14368,1.42904 0.23489,2.86324 0.30201,4.68225 0.12992,3.72325 0.16176,8.51914 0.0938,12.84327 0.7997,0.77569 1.67808,1.46582 2.62088,2.05919 0.39063,2.87099 0.86043,5.33307 1.51779,8.16188 1.00585,4.04434 2.09,8.09817 2.79296,12.13046 0.15145,0.85484 0.2917,1.71312 0.38978,2.40956 0.2263,1.65287 0.21855,2.3011 0.18328,3.54764 -0.0323,0.81169 -0.0787,1.62274 -0.13939,2.4328 -0.0737,0.99987 -0.16524,1.99835 -0.27448,2.99496 -0.13595,1.26806 -0.33299,2.93986 -0.55756,4.60822 -0.22458,1.66835 -0.47754,3.33155 -1.07554,7.15121 -0.598,3.81967 -1.5419,9.79408 -2.08311,13.28403 -0.5412,3.48909 -0.67887,4.49286 -0.79245,5.35803 -0.30546,2.25289 -0.4328,4.04436 -0.58596,6.06308 -0.0955,1.19145 -0.14799,2.17541 -0.41473,3.01131 -0.33986,1.14065 -1.26053,2.93986 -2.90137,4.48168 -0.23834,0.23415 -0.48184,0.464 -1.15556,1.07608 -0.67458,0.61208 -1.77937,1.60895 -2.33607,2.11256 -0.55584,0.50189 -0.56445,0.51308 -0.57133,0.52341 -0.10239,0.3607 0.45259,1.07092 0.90345,1.22759 0.43022,0.18165 1.24075,0.34435 1.98158,0.40548 l 0.33556,0.52254 5.42502,-0.0129 0.16091,-0.56301 c 1.14689,0.43095 2.42047,0.37087 3.52175,-0.16614 1.70881,-0.81438 3.44,-1.6873 5.12903,-2.44314 0.20564,-0.0792 0.41559,-0.14893 0.62811,-0.20833 0.21252,-0.0594 0.57219,0.0577 0.64533,-0.15065 l 2.15107,-6.16553 c 0.46117,-0.18906 0.88419,-0.46033 1.24849,-0.8006 1.65289,-1.54697 1.25107,-3.48909 1.46446,-5.30638 0.15229,-2.56193 0.36654,-4.51524 0.67716,-7.02811 0.20478,-1.66319 0.40698,-3.23944 0.63413,-4.65298 0.0933,-0.59271 0.19738,-1.18365 0.31234,-1.77253 0.19101,-0.959 0.35794,-1.35155 0.63586,-1.99979 0.14025,-0.32111 0.30201,-0.66889 0.44915,-0.70764 0.14712,-0.0388 0.28221,0.2333 0.41042,0.46918 0.1282,0.23588 0.25039,0.43732 0.48098,0.81696 0.23059,0.37964 0.57046,0.93921 0.78558,1.28528 0.37772,0.60518 0.45086,0.66975 0.74685,0.95039 0.84322,0.50189 1.53673,1.42559 1.38788,2.2374 -0.0817,0.52168 -0.24178,0.73431 -0.62812,1.13806 -0.23662,0.24018 -0.59112,0.563 -0.94647,0.88239 -0.35708,0.31938 -0.71415,0.63531 -0.90173,0.80232 -0.075,0.0636 -0.14812,0.1294 -0.21942,0.19714 -0.30631,0.38653 -1.39561,1.59863 -1.03079,2.33984 0.52314,0.56731 1.24762,0.4795 1.74065,0.54837 1.7983,0.10158 3.82461,-0.28151 5.72187,-0.87637 0.96024,-0.30991 1.85595,-0.51049 2.45309,-1.62789 0.54379,-0.93146 0.80106,-2.00582 1.21752,-3.12409 0.15487,-0.35382 0.20478,-0.69127 0.34502,-0.92027 0.0353,-0.0517 0.0783,-0.0973 0.40441,-0.37016 0.3261,-0.2729 0.93529,-0.77134 1.27602,-1.05457 0.64532,-0.53632 0.49904,-0.44592 0.67629,-0.64478 0.97488,-1.35501 1.0265,-2.83742 0.60317,-4.29659 -0.64361,-4.38871 -3.99241,-8.73694 -6.19253,-13.34429 -2.36791,-4.52816 -3.87022,-8.85746 -5.12473,-13.37701 2.25863,-8.51827 3.80139,-17.06925 4.20407,-25.62713 0.8785,-0.47175 1.99276,-1.88788 2.244,-3.0664 0.32869,-1.15959 0.27706,-2.25289 0.17984,-3.2997 -0.0353,-0.41236 -0.0808,-0.92027 -0.11014,-1.42904 -0.0258,-0.4587 -0.0401,-0.91797 -0.0431,-1.37739 0.002,-0.78942 0.0284,-1.20263 0.22715,-1.79491 0.24437,-0.54062 0.24437,-0.48036 0.60402,-0.89443 0.53606,-0.58195 1.46274,-1.52201 2.29477,-2.29766 0.46137,-0.43313 0.92921,-0.85931 1.40337,-1.27838 1.98845,-1.7665 4.38906,-3.61908 6.82666,-6.46769 1.62967,-1.96019 2.68025,-3.8343 2.85406,-5.8229 -3.24899,-9.57886 -7.28529,-19.23089 -10.96706,-28.63844 -0.42506,-0.84279 -0.59714,-1.8259 -2.09172,-2.8796 -0.28103,-0.18249 -0.58253,-0.33129 -0.89829,-0.44335 -1.42486,-0.51221 -2.82823,-0.96073 -4.27376,-1.53579 -0.27277,-0.13728 -0.52764,-0.30757 -0.7589,-0.50704 -2.49181,-0.24794 -4.98448,-2.21673 -7.41778,-3.80761 -0.9327,-1.13291 -0.38461,-2.4242 0.62811,-3.68968 0.12563,-0.15668 0.25469,-0.3168 6.59177,-1.98343 6.33708,-1.6675 18.88218,-4.84238 25.1986,-6.52968 6.31556,-1.68729 6.13574,-2.05833 6.33794,-2.08157 l 1.88606,-0.22297 c -0.0715,-0.94178 0.49906,-1.949 1.48855,-2.87185 0.6806,-0.76272 0.85097,-1.51856 0.66167,-2.33983 -3.82579,-2.6868 -7.68367,-5.32756 -11.57281,-7.9217 L 205.28066,88.430697 c -2.1201,-1.389437 -4.297,-1.928341 -6.48335,-2.629949 -0.53433,-0.248786 -0.9198,-0.374472 -1.52813,-1.082967 -0.34934,-0.469175 -0.42506,-1.011518 -0.43108,-1.538369 -0.005,-0.143765 -0.006,-0.285804 7.7e-4,-0.955561 0.007,-0.669757 0.0223,-1.866357 0.0405,-3.062965 -2.92719,-2.109984 -6.00152,-2.641134 -9.07153,-3.720662 -1.66758,0.278518 -3.3043,0.717884 -4.88725,1.311961 -0.91637,0.352954 -1.29581,0.612073 -1.94286,1.239645 -0.49252,0.508166 -0.92052,1.075167 -1.2743,1.688161 -0.40794,0.0088 -0.81279,-0.0727 -1.18568,-0.23846 0.15058,-0.09039 0.17897,-0.349515 -0.49818,-0.591414 -0.67803,-0.241907 -2.06332,-0.466588 -8.41244,4.535904 -6.34991,5.003351 -17.662,15.233029 -28.2324,25.835459 -2.84566,2.40827 -5.67312,4.83799 -8.48213,7.28895 -2.91773,2.13065 -6.11595,5.17983 -8.39695,8.01811 -0.36483,0.70591 -0.46894,1.42646 -0.14111,2.2064 1.05574,0.40375 2.11321,-0.20919 3.26447,1.45659 0.18499,0.26772 0.33127,0.563 0.38548,0.9194 0.0533,0.35726 0.0147,0.77651 5.47665,1.20866 5.46201,0.43215 16.42477,0.87808 21.90916,1.89046 5.48439,1.01238 5.49041,2.59293 5.58248,3.47704 0.0929,0.88411 0.2719,1.0735 0.50593,1.17508 0.72535,0.75412 1.3199,1.5246 1.65978,2.13323 0.13767,0.23674 0.29771,0.53115 0.44914,0.82988 0.32955,0.67319 0.71244,1.65028 1.12888,2.71086 l 0.61866,1.58916 c 0.28652,0.7326 0.34933,0.8626 0.54207,1.25601 0.16951,0.33918 0.37515,0.69213 0.61607,1.03131 -0.19532,0.94093 -1.60126,1.99721 -2.63034,2.43109 -0.84666,0.44766 -2.23196,0.9504 -3.14402,1.82762 -0.16296,0.15586 -0.31477,0.323 -0.45431,0.50017 -1.085,4.47048 -2.0461,9.00122 -2.45997,11.4125 -0.41301,2.41129 -0.27964,2.70398 -0.18499,3.00012 0.42505,1.77425 0.53174,3.67074 -0.80279,5.40968 -2.81447,3.5528 -3.09927,7.13917 -3.72996,10.82626 -0.18586,1.41268 -0.29513,2.83225 -0.47841,4.23977 -0.35449,2.39406 -0.63585,4.43949 -1.4068,6.6588 -0.49217,1.28441 -1.06521,2.06177 -2.27068,3.26182 -2.13129,2.17713 -4.12921,4.41969 -1.47822,6.73197 0.45172,0.24104 1.08587,0.57506 1.28893,-0.37017 0.0654,-0.0534 0.19359,-0.91423 0.7219,-1.31282 0.4543,-0.3409 0.68834,-0.50705 1.08844,-0.75412 0.24092,-0.14979 0.54638,-0.33487 0.85355,-0.51824 0.95766,-0.57334 2.01685,-1.12429 2.03664,-1.8104 0.3261,-1.10191 0.96541,-2.52665 1.37669,-3.77232 0.86215,-2.42506 2.26294,-4.83204 3.36429,-7.43272 1.49371,-3.09309 2.85921,-5.84097 3.773,-8.85746 0.36051,-0.0344 0.72878,-0.005 1.14781,0.40376 -0.13595,0.70246 -0.26673,1.40579 -0.39322,2.10998 -0.12648,0.70419 -0.24952,1.40924 -0.46377,2.90025 -0.29204,2.01145 -0.53847,4.02927 -0.73911,6.0519 -0.21941,2.28474 -0.35278,4.57809 -0.48012,7.35438 -0.12563,2.77629 -0.24522,6.03467 -0.32266,8.10935 -0.0463,1.28629 -0.0965,2.57243 -0.15058,3.85841 -0.14369,3.74563 -0.45259,8.06029 -1.01359,12.2002 -0.13423,1.02443 -0.27964,2.04886 -0.40354,2.85205 -0.27792,2.15819 -0.71846,3.16368 -0.9938,5.28916 0.0378,0.38739 0.0878,0.81868 0.8002,1.22329 0.0714,0.0439 0.14283,0.0861 0.3915,0.22727 0.24866,0.14032 0.67544,0.37878 0.94733,0.5346 0.66856,0.4046 0.74169,0.38309 1.19514,0.92888 0.0998,0.14289 0.17639,0.30388 0.22544,0.47089 0.0499,0.16787 0.0714,0.34262 0.0636,1.06231 -0.008,0.71882 -0.0473,1.98258 -0.0748,2.87357 -0.0188,0.64321 -0.0417,1.28629 -0.0689,1.9292 -0.0274,0.61541 -0.0633,1.23041 -0.10756,1.84484 -0.0912,1.68127 -0.3459,4.15712 -0.55584,6.28088 -0.13153,1.26042 -0.29018,2.51786 -0.47582,3.77145 -0.17896,1.25428 -0.37859,2.50512 -0.5653,3.58982 -0.16755,0.97562 -0.34912,1.94879 -0.54465,2.9192 -0.21086,1.06899 -0.44986,2.13225 -0.71674,3.18864 -0.34073,1.35759 -0.72191,3.19382 -1.35002,4.95171 -0.91034,2.54902 -1.7484,4.90608 -2.76371,7.63674 -0.48958,1.31971 -1.72602,2.37943 -2.81877,3.77662 -0.38719,0.64651 -0.76062,1.454 -0.61693,2.246 0.0757,0.52083 0.88625,0.83935 1.36379,0.73518 1.61675,-0.3168 3.03044,-0.29786 4.8838,-0.5785 1.44553,-0.19456 2.69144,-1.06059 4.18859,-2.14442 0.44054,-0.17475 0.32868,0.68611 0.74771,0.84279 0.49217,-0.24191 0.80451,-0.92457 1.09361,-1.40752 1.50575,-2.98549 2.36274,-5.76264 0.61779,-8.94268 0.055,-2.00065 0.18757,-4.47306 0.67372,-6.60284 0.27534,-1.24567 0.68318,-2.55849 1.11511,-3.93416 0.22372,-0.7128 0.45088,-1.42559 0.61779,-1.94125 0.16693,-0.51652 0.27534,-0.8359 0.3872,-1.15442 0.11186,-0.31853 0.22802,-0.63532 0.58079,-1.55043 0.35364,-0.91424 0.9439,-2.42592 1.41025,-3.6363 0.46635,-1.21038 0.8088,-2.11859 1.14524,-3.02938 1.3741,-3.6828 2.41522,-6.90243 2.83684,-10.24603 0.12992,-1.01325 0.19789,-2.03768 0.24522,-2.60327 z m 44.68652,-55.07306 c 0.0448,-0.5234 0.15401,-1.32573 0.25641,-1.88185 0.20649,-1.08297 0.40784,-1.50136 0.64962,-2.25547 0.12391,-0.35812 0.25125,-0.71452 0.38547,-1.0692 l 2.29822,0.57162 c 0.0181,1.58571 -0.64618,3.2687 -2.60109,4.93707 -0.30287,0.25482 -0.62209,0.48983 -0.95507,0.70418 -0.0577,-0.2376 -0.0783,-0.48294 -0.0336,-1.00635 z m -22.8393,-28.72968 c 0.0998,-0.55182 0.25211,-1.10536 0.45947,-1.65115 0.36224,1.12515 0.46808,2.20123 0.4242,3.20328 -0.16779,3.01303 -0.69523,6.37042 -2.13216,9.59694 0.41645,-3.71636 0.79591,-7.42239 1.24849,-11.14907 z M 182.04126,147.357 c -0.1335,-0.21962 -0.34694,-0.37886 -0.59542,-0.44421 -0.7176,-0.20403 -1.42745,-0.35123 -2.15194,-0.61207 -0.39063,-0.20661 -0.47237,-0.66631 -0.49818,-1.09417 -0.007,-0.40116 0.11874,-1.10965 0.30975,-1.7553 0.0706,-0.2333 0.15144,-0.46401 0.19704,-0.59228 0.0464,-0.12655 0.056,-0.15238 0.0679,-0.17648 0.0112,-0.0241 0.0233,-0.0482 0.17208,-0.32024 0.148,-0.27204 0.43108,-0.79286 0.71159,-1.31541 0.25167,-0.46767 0.49891,-0.93772 0.74168,-1.41009 0.49131,-0.95901 0.59629,-1.34898 0.76923,-2.02906 0.21363,-0.91765 0.17378,-1.87614 -0.1153,-2.77286 l 2.42383,0.031 -0.14798,12.36204 z m 7.92716,-12.10121 c 0.5653,0.0913 1.33366,0.47692 1.74581,1.09675 0.29513,1.0339 0.62726,2.35877 1.8224,3.40214 1.05661,1.28184 1.43864,2.19263 0.46119,3.49856 -1.53932,1.10192 -3.25845,1.68473 -4.90618,2.13409 l -0.0335,-10.15047 c 0.30201,-0.0422 0.61091,-0.0362 0.91034,0.019 z m 49.35436,-13.74459 c -2.32439,1.02528 -4.78795,1.69979 -7.31023,2.00152 l -0.0431,0.56473 c -7.62632,1.77001 -15.27871,3.42565 -22.95459,4.96633 0.17725,-1.03992 0.22629,-2.10137 0.15402,-3.15593 -0.17725,-2.10912 -0.79591,-4.80708 -3.15779,-7.48093 -0.4827,0.24018 -1.06435,-0.10675 -1.65289,-0.75326 -0.46288,-0.35037 -1.0256,-0.36242 -1.48335,-0.74637 -0.7503,-0.43215 -1.41713,-0.62757 -2.23971,-0.7808 -1.02218,-0.1696 -2.76026,-0.18681 -4.24192,-0.093 -1.64429,0.0439 -2.62518,0.31336 -3.78504,1.59174 -0.19606,0.22549 -0.38628,0.45599 -0.57046,0.69128 -0.69695,0.891 -1.73894,2.35275 -2.86782,3.68795 l 0.33044,-12.80625 z m -58.78211,8.97626 c -0.78816,-0.0654 -1.59352,-0.19628 -2.37049,-1.38169 -0.27189,-0.76704 -0.41214,-1.97483 -1.69505,-2.65319 -1.50059,-0.9263 -2.76026,-1.37997 -4.30302,-2.25547 -1.70452,0.20833 -3.46495,0.44765 -5.17635,0.72915 -0.56187,0.0913 -1.12201,0.18939 -1.48683,0.25826 -0.87678,0.16701 -1.09791,0.28667 -1.64343,0.59658 -1.38099,0.89444 -1.93252,1.90768 -2.27325,2.96569 -8.75125,-0.36902 -17.47713,-1.19716 -26.14163,-2.48102 l 42.20158,-20.01256 3.64307,0.42355 0.17983,0.60346 2.953,0.062 -0.84581,23.26319 z"
   fill="#31a456"
   style="clip-rule:evenodd;stroke-width:0.860866"
   id="path1-6" /></svg>
