<svg xmlns="http://www.w3.org/2000/svg" width="373.8" height="364.6">
  <rect width="373.8" height="364.6" fill="#cc2229" />
  <path d="M173.015 232.276c.08-.946.112-.765.303-1.036.552-.484.935-.189 1.498-.092.21.041.437.062.771.696.636 1.279 1.671 4.394 2.539 6.686l2.922 9.302.497 2.8c.218 1.534.237 2.469.22 3.67a19.04 19.04 0 0 1-1.68 7.496c-.541 1.503-1.649 2.567-1.918 3.77-.023.142-.043.668.595.557l6.734-1.126 1.269-1.643c.86.775 1.889.777 2.857.226-.153-2.804 1.957-5.374-.043-8.237-1.147-1.539-1.749-2.973-2.061-4.513a27.94 27.94 0 0 1-.56-3.183c-.437-3.573.072-7.122.191-10.719-.017-.315-.052-.63-.147-1.274l-.421-2.591-.435-2.533c-.185-1.094-.154-1.127-.155-1.628a6.07 6.07 0 0 1 .051-.622c.806-.364 1.643-.714 2.614-1.569.385-.424.623-.889.626-1.364.008-.176-.113-.774-.226-1.38l-.342-1.683-.828-3.883-.959-4.434-.136-.752c-.136-.756-.407-2.27-.614-3.792-.177-1.33-.321-2.664-.432-4.001-.08-.949-.095-1.315-.103-1.68s-.009-.733-.014-2.284l-.024-6.141-.056-3.796c-.053-1.884-.128-3.73-.361-5.508a33.63 33.63 0 0 0-.408-2.417c-.398-1.875-.903-3.23-1.743-4.842a23.62 23.62 0 0 0 3.485.834c.682 2.791 1.169 5.627 1.457 8.486.144 1.429.235 2.863.302 4.682.13 3.723.162 8.519.094 12.843a16.02 16.02 0 0 0 2.621 2.059c.391 2.871.86 5.333 1.518 8.162 1.006 4.044 2.09 8.098 2.793 12.13l.39 2.41c.226 1.653.219 2.301.183 3.548a69.61 69.61 0 0 1-.139 2.433c-.074 1-.165 1.998-.274 2.995l-.558 4.608-1.076 7.151-2.083 13.284-.792 5.358c-.305 2.253-.433 4.044-.586 6.063-.095 1.191-.148 2.175-.415 3.011-.34 1.141-1.261 2.94-2.901 4.482a38.2 38.2 0 0 1-1.156 1.076l-2.336 2.113-.571.523c-.102.361.453 1.071.903 1.228.43.182 1.241.344 1.982.405l.336.523 5.425-.013.161-.563a4.46 4.46 0 0 0 3.522-.166l5.129-2.443a6.97 6.97 0 0 1 .628-.208c.213-.059.572.058.645-.151l2.151-6.166c.461-.189.884-.46 1.248-.801 1.653-1.547 1.251-3.489 1.464-5.306.152-2.562.367-4.515.677-7.028l.634-4.653c.093-.593.197-1.184.312-1.773.191-.959.358-1.352.636-2 .14-.321.302-.669.449-.708s.282.233.41.469.25.437.481.817l.786 1.285c.378.605.451.67.747.95.843.502 1.537 1.426 1.388 2.237-.082.522-.242.734-.628 1.138-.237.24-.591.563-.946.882l-.902.802c-.075.064-.148.129-.219.197-.306.387-1.396 1.599-1.031 2.34.523.567 1.248.479 1.741.548 1.798.102 3.825-.282 5.722-.876.96-.31 1.856-.51 2.453-1.628.544-.931.801-2.006 1.218-3.124.155-.354.205-.691.345-.92.035-.052.078-.097.404-.37l1.276-1.055c.645-.536.499-.446.676-.645.975-1.355 1.026-2.837.603-4.297-.644-4.389-3.992-8.737-6.193-13.344-2.368-4.528-3.87-8.857-5.125-13.377 2.259-8.518 3.801-17.069 4.204-25.627.879-.472 1.993-1.888 2.244-3.066.329-1.16.277-2.253.18-3.3l-.11-1.429c-.026-.459-.04-.918-.043-1.377.002-.789.028-1.203.227-1.795.244-.541.244-.48.604-.894.536-.582 1.463-1.522 2.295-2.298.461-.433.929-.859 1.403-1.278 1.988-1.767 4.389-3.619 6.827-6.468 1.63-1.96 2.68-3.834 2.854-5.823-3.249-9.579-7.285-19.231-10.967-28.638-.425-.843-.597-1.826-2.092-2.88-.281-.182-.583-.331-.898-.443-1.425-.512-2.828-.961-4.274-1.536a3.73 3.73 0 0 1-.759-.507c-2.492-.248-4.984-2.217-7.418-3.808-.933-1.133-.385-2.424.628-3.69.126-.157.255-.317 6.592-1.983l25.199-6.53c6.316-1.687 6.136-2.058 6.338-2.082l1.886-.223c-.071-.942.499-1.949 1.489-2.872.681-.763.851-1.519.662-2.34l-11.573-7.922-32.717-21.974c-2.12-1.389-4.297-1.928-6.483-2.63-.534-.249-.92-.374-1.528-1.083-.349-.469-.425-1.012-.431-1.538-.005-.144-.006-.286.001-.956l.041-3.063c-2.927-2.11-6.002-2.641-9.072-3.721-1.668.279-3.304.718-4.887 1.312-.916.353-1.296.612-1.943 1.24a8.61 8.61 0 0 0-1.274 1.688 2.77 2.77 0 0 1-1.186-.238c.151-.09.179-.35-.498-.591s-2.063-.467-8.412 4.536-17.662 15.233-28.232 25.835l-8.482 7.289c-2.918 2.131-6.116 5.18-8.397 8.018-.365.706-.469 1.426-.141 2.206 1.056.404 2.113-.209 3.264 1.457.185.268.331.563.385.919s.015.777 5.477 1.209 16.425.878 21.909 1.89 5.49 2.593 5.582 3.477.272 1.073.506 1.175c.725.754 1.32 1.525 1.66 2.133.138.237.298.531.449.83.33.673.712 1.65 1.129 2.711l.619 1.589c.287.733.349.863.542 1.256.17.339.375.692.616 1.031-.195.941-1.601 1.997-2.63 2.431-.847.448-2.232.95-3.144 1.828a4.81 4.81 0 0 0-.454.5c-1.085 4.47-2.046 9.001-2.46 11.412s-.28 2.704-.185 3c.425 1.774.532 3.671-.803 5.41-2.814 3.553-3.099 7.139-3.73 10.826-.186 1.413-.295 2.832-.478 4.24-.354 2.394-.636 4.439-1.407 6.659-.492 1.284-1.065 2.062-2.271 3.262-2.131 2.177-4.129 4.42-1.478 6.732.452.241 1.086.575 1.289-.37.065-.053.194-.914.722-1.313.454-.341.688-.507 1.088-.754l.854-.518c.958-.573 2.017-1.124 2.037-1.81.326-1.102.965-2.527 1.377-3.772.862-2.425 2.263-4.832 3.364-7.433 1.494-3.093 2.859-5.841 3.773-8.857.361-.034.729-.005 1.148.404l-.393 2.11c-.126.704-.25 1.409-.464 2.9a134.58 134.58 0 0 0-.739 6.052c-.219 2.285-.353 4.578-.48 7.354l-.323 8.109-.151 3.858c-.144 3.746-.453 8.06-1.014 12.2l-.404 2.852c-.278 2.158-.718 3.164-.994 5.289.038.387.088.819.8 1.223a12.44 12.44 0 0 0 .392.227l.947.535c.669.405.742.383 1.195.929.1.143.176.304.225.471s.071.343.064 1.062l-.075 2.874-.069 1.929-.108 1.845c-.091 1.681-.346 4.157-.556 6.281-.132 1.26-.29 2.518-.476 3.771l-.565 3.59-.545 2.919c-.211 1.069-.45 2.132-.717 3.189-.341 1.358-.722 3.194-1.35 4.952l-2.764 7.637c-.49 1.32-1.726 2.379-2.819 3.777-.387.647-.761 1.454-.617 2.246.076.521.886.839 1.364.735 1.617-.317 3.03-.298 4.884-.579 1.446-.195 2.691-1.061 4.189-2.144.441-.175.329.686.748.843.492-.242.805-.925 1.094-1.408 1.506-2.985 2.363-5.763.618-8.943.055-2.001.188-4.473.674-6.603.275-1.246.683-2.558 1.115-3.934l.618-1.941.387-1.154c.112-.319.228-.635.581-1.55l1.41-3.636 1.145-3.029c1.374-3.683 2.415-6.902 2.837-10.246.13-1.013.198-2.038.245-2.603zm44.687-55.073a22.84 22.84 0 0 1 .256-1.882c.206-1.083.408-1.501.65-2.255l.385-1.069 2.298.572c.018 1.586-.646 3.269-2.601 4.937-.303.255-.622.49-.955.704-.058-.238-.078-.483-.034-1.006zm-22.839-28.73c.1-.552.252-1.105.459-1.651.362 1.125.468 2.201.424 3.203-.168 3.013-.695 6.37-2.132 9.597l1.248-11.149zm-12.821-1.117a.99.99 0 0 0-.595-.444c-.718-.204-1.427-.351-2.152-.612-.391-.207-.472-.666-.498-1.094-.007-.401.119-1.11.31-1.755a13.54 13.54 0 0 1 .197-.592 2.12 2.12 0 0 1 .068-.176c.011-.024.023-.048.172-.32l.712-1.315.742-1.41c.491-.959.596-1.349.769-2.029.214-.918.174-1.876-.115-2.773l2.424.031-.148 12.362zm7.927-12.101c.565.091 1.334.477 1.746 1.097.295 1.034.627 2.359 1.822 3.402 1.057 1.282 1.439 2.193.461 3.499-1.539 1.102-3.258 1.685-4.906 2.134l-.034-10.15c.302-.042.611-.036.91.019zm49.354-13.745a25.67 25.67 0 0 1-7.31 2.002l-.043.565-22.955 4.966a13.36 13.36 0 0 0 .154-3.156c-.177-2.109-.796-4.807-3.158-7.481-.483.24-1.064-.107-1.653-.753-.463-.35-1.026-.362-1.483-.746-.75-.432-1.417-.628-2.24-.781-1.022-.17-2.76-.187-4.242-.093-1.644.044-2.625.313-3.785 1.592a17.39 17.39 0 0 0-.57.691c-.697.891-1.739 2.353-2.868 3.688l.33-12.806zm-58.782 8.976c-.788-.065-1.594-.196-2.37-1.382-.272-.767-.412-1.975-1.695-2.653-1.501-.926-2.76-1.38-4.303-2.255-1.705.208-3.465.448-5.176.729l-1.487.258a4.11 4.11 0 0 0-1.643.597c-1.381.894-1.933 1.908-2.273 2.966-8.751-.369-17.477-1.197-26.142-2.481l42.202-20.013 3.643.424.18.603 2.953.062-.846 23.263z" fill="#31a456" />
</svg>