<svg xmlns="http://www.w3.org/2000/svg" width="373.8" height="364.6" style="background-color:#d50032"><g fill="#fff"><use href="#B" /><use href="#C" /><use href="#D" /><use href="#E" /><use href="#B" /><use href="#C" /><use href="#D" /><use href="#E" /></g><defs><path id="B" d="M114.704 112.648c-12.099 2.011-22.817 7.318-31.411 14.854 4.119-1.422 8.424-2.544 12.875-3.287 42.848-7.116 83.362 21.848 90.478 64.696l.202 1.462c1.979-8.101 2.391-16.719.937-25.467-5.751-34.618-38.471-58.009-73.08-52.258" /><path id="C" d="M188.656 104.83c-11.34-9.272-24.562-14.708-38.099-16.477a95 95 0 0 1 13.101 8.957c40.167 32.841 46.095 92.045 13.246 132.22-.363.452-.759.88-1.147 1.333 8.828-4.612 16.889-11.025 23.601-19.231 26.533-32.453 21.735-80.261-10.71-106.794" /><path id="D" d="M218.598 75.446a146.28 146.28 0 0 1 11.631 37.744c9.377 56.401-14.773 110.606-57.888 142.308 55.23-9.434 92.505-61.74 83.306-117.076-4.297-25.879-18.012-47.832-37.049-62.984" /><path id="E" d="M281.606 124.441c1.195 72.781-50.99 137.413-124.942 149.706-14.127 2.35-28.108 2.625-41.653 1.082 22.357 11.865 48.648 16.768 75.544 12.301 65.125-10.823 109.128-72.378 98.321-137.502-1.494-8.965-3.974-17.511-7.269-25.588" /></defs></svg>
