<svg xmlns="http://www.w3.org/2000/svg" width="373.8" height="364.6" style="background-color:#bd955a" fill="#fff"><path d="M186.466 197.485c-46.134 0-84.024-34.709-89.231-79.252-.434 3.326-.578 6.942-.578 10.557 0 49.605 40.204 89.809 89.809 89.809s89.809-40.204 89.809-89.809c0-3.616-.289-7.086-.578-10.557-5.206 44.688-43.097 79.252-89.231 79.252m.868-31.093c-32.684 0-60.162-21.982-68.694-52.063.145 37.89 30.804 68.55 68.839 68.55 37.89 0 68.694-30.659 68.839-68.55-8.677 30.081-36.155 52.063-68.984 52.063m1.012-22.561c-20.825 0-39.192-10.846-49.605-27.044 6.219 21.404 26.032 37.167 49.605 37.167 23.428 0 43.241-15.764 49.605-37.167-10.557 16.197-28.779 27.044-49.605 27.044"></path><path d="M186.466 117.655c-13.45 0-25.019-7.809-30.37-19.234.868 16.053 14.173 28.924 30.37 28.924 16.342 0 29.647-12.871 30.37-28.924-5.351 11.425-16.921 19.234-30.37 19.234m108.61 8.099v1.012c0 59.728-48.448 108.176-108.176 108.176-59.728.145-108.176-48.303-108.176-108.031v-1.012a114.75 114.75 0 0 0-3.615 28.49c0 61.753 50.039 111.791 111.791 111.791s111.791-50.039 111.791-111.791c0-9.834-1.302-19.524-3.615-28.635"></path></svg>