<svg xmlns="http://www.w3.org/2000/svg" width="373.8" height="364.6" style="background-color:#7e2f7a"><path d="M232.592 120.807c-.169 4.154 3.039 7.632 7.16 7.835 4.154.169 7.632-3.039 7.835-7.159v-.675c-.169-4.154-3.681-7.328-7.835-7.159a7.49 7.49 0 0 0-7.16 7.159m65.955 109.317c0 32.893-37.858 44.916-68.623 44.916h-86.049c-30.766 0-68.623-12.056-68.623-44.916 0-42.113 42.856-38.769 32.826-66.124 31.61 9.861 5.572 32.859 1.756 45.051-4.458 14.15 6.856 32.758 34.041 32.758h34.616v-24.552h-41.066l12.732-12.563h28.3v-14.454c-39.782-8.173-30.462-52.413-84.901-56.905-17.966-1.486-11.55-36.878-9.794-42.282.473-1.52 1.857-2.094 3.445-.709 67.441 58.086 105.434 40.357 122.725 29.313 8.071-5.167 19.79-17.595 28.402-17.595 7.092 0 13.103 4.154 15.771 6.146l27.355 20.296s-17.865 0-27.861 7.126c-22.12 15.771-26.038 48.09-58.323 54.709v14.387h28.267l12.766 12.563h-41.066v24.552h34.649c27.152 0 38.499-18.608 34.041-32.758-3.816-12.191-29.888-35.223 1.756-45.051-10.03 27.388 32.826 24.011 32.826 66.124" fill="#fff"/></svg>
