<svg xmlns="http://www.w3.org/2000/svg" width="373.8" height="364.6">
  <rect width="373.8" height="364.6" fill="#002d59" />
  <path fill="#fff" d="M230.216 267.36c-1.836-4.335-6.404-16.476-7.011-31.238-.767-18.526 1.857-33.997 2.893-44.905.693-7.304.474-52.232-27.74-64.158l12.387-17.188c2.272 1.117 5.684.265 7.848-2.128 2.588-2.864 2.87-6.845.634-8.874-.839-.754-1.947-1.155-3.195-1.155-.478 0-.965.063-1.448.177a10.6 10.6 0 0 1-1.235 3.654c-1.18 2.097-2.99 3.667-4.99 4.466.063.902.331 1.745.803 2.455l-12.824 17.793c-.512-.177-1.043-.331-1.572-.489l9.308-21.512c.717.221 1.494.249 2.28.11a6.18 6.18 0 0 0 1.094-.305 7.21 7.21 0 0 0 1.254-.607 8.22 8.22 0 0 0 2.809-2.942c.28-.502.487-1.016.66-1.532a8.15 8.15 0 0 0 .335-1.425c.059-.405.088-.803.082-1.195-.026-1.991-.86-3.76-2.432-4.643-.653-.367-1.393-.554-2.183-.554-1.005 0-2.023.316-2.963.86.118 1.195.038 2.455-.295 3.722-.59 2.268-1.895 4.168-3.534 5.439.238.746.617 1.382 1.1 1.909l-9.572 22.124a32.92 32.92 0 0 0-1.397-.295l4.678-24.269c.959.156 1.939-.008 2.849-.459.346-.171.683-.379 1.005-.622.384-.291.735-.639 1.068-1.02a8.27 8.27 0 0 0 1.766-3.34c.126-.48.204-.961.248-1.433.048-.518.034-1.024-.008-1.517-.04-.417-.103-.822-.202-1.21-.508-1.983-1.785-3.538-3.566-4.008a4.34 4.34 0 0 0-1.085-.137c-1.583 0-3.119.856-4.28 2.228.301.988.489 2.042.485 3.155-.004 2.147-.658 4.097-1.705 5.654.059.118.095.251.162.363.352.605.786 1.102 1.277 1.49l-4.771 24.773c-.527-.074-1.062-.135-1.602-.188V99.156c.944-.221 1.798-.761 2.512-1.511.304-.318.577-.67.82-1.062a7.66 7.66 0 0 0 .862-1.979c.204-.729.335-1.503.337-2.32 0-.026-.008-.051-.008-.076-.004-.727-.112-1.416-.278-2.076-.116-.464-.265-.904-.453-1.321-.942-2.103-2.693-3.543-4.721-3.549-1.73 0-3.26 1.054-4.27 2.664.809 1.058 1.452 2.31 1.829 3.72.607 2.276.459 4.613-.4 6.6.514.398 1.077.676 1.661.843v25.162c-.539-.002-1.085-.011-1.612.004l-4.148-24.33a4.88 4.88 0 0 0 1.471-1.313 5.89 5.89 0 0 0 .596-.997c.023-.046.053-.084.074-.133a6.9 6.9 0 0 0 .371-1.098c.339-1.313.333-2.763-.051-4.196-.179-.674-.447-1.3-.763-1.884-.232-.428-.485-.837-.776-1.203-.24-.301-.497-.584-.771-.837-1.066-.988-2.358-1.578-3.675-1.578-.375 0-.748.051-1.108.145-1.745.468-2.99 1.979-3.511 3.909a10.53 10.53 0 0 1 2.811 3.616c.853 1.791 1.159 3.722.953 5.549.748.388 1.545.588 2.337.582l4.074 23.881c-.617.044-1.218.105-1.815.173l-8.299-21.399c.605-.58 1.075-1.328 1.357-2.23.042-.133.101-.251.135-.39.063-.261.084-.535.116-.805a7.4 7.4 0 0 0 .03-1.507c-.085-.988-.337-1.991-.793-2.95a8.71 8.71 0 0 0-1.149-1.804c-.324-.394-.687-.74-1.066-1.054-.318-.268-.651-.506-.997-.708-.904-.527-1.88-.835-2.849-.835a4.41 4.41 0 0 0-1.892.417c-1.642.784-2.596 2.518-2.744 4.531 1.861.858 3.524 2.405 4.615 4.413.689 1.262 1.09 2.615 1.233 3.962.729.158 1.458.171 2.147.008l8.006 20.644-1.684.304-11.588-16.396c.354-.476.634-1.031.82-1.661a6.56 6.56 0 0 0 .232-1.319c.034-.39.011-.79-.023-1.191a7.89 7.89 0 0 0-.255-1.429c-.175-.651-.403-1.296-.74-1.916a8.46 8.46 0 0 0-2.52-2.862 6.89 6.89 0 0 0-1.21-.683 6.07 6.07 0 0 0-1.115-.371c-.394-.088-.788-.152-1.184-.152a4.42 4.42 0 0 0-2.129.527c-2.649 1.448-3.306 5.384-1.463 8.775 1.342 2.466 3.709 4.059 6.027 4.059.687 0 1.326-.164 1.918-.447l11.018 15.586c-19.54 5.226-25.569 23.036-25.569 23.036s-7.743 5.18-11.112 8.889-6.765 8.969-9.262 10.371c-11.854 6.67-7.252 15.534-6.183 15.711s6.052-4.004 6.052-4.004 4.114.845 8.546-1.066c4.43-1.918 23.443-5.45 23.443-5.45s25.188 3.334 26.671 12.223c.809 4.872-13.584 27.396-24.077 51.121-7.146 16.151-10.817 31.605-11.886 36.519-24.227-17.365-40.738-51.509-40.738-90.713 0-56.736 34.576-102.892 77.074-102.892s77.076 46.156 77.076 102.892c0 35.314-13.397 66.522-33.761 85.061m-24.564 3.709c-2.63.527-5.561-3.049-6.556-7.989s.335-9.374 2.959-9.903 5.557 3.054 6.554 7.991-.331 9.372-2.957 9.901m-7.73-48.475c-1.17-.215-1.829-1.924-1.479-3.81s1.578-3.245 2.748-3.028 1.829 1.926 1.479 3.814-1.581 3.239-2.748 3.024m-3.043 29.613c-1.962.088-3.694-2.837-3.861-6.537s1.296-6.769 3.256-6.857c1.97-.091 3.698 2.837 3.865 6.537s-1.29 6.767-3.26 6.858m-3.648 25.668c-2.552 0-4.615-3.888-4.613-8.678s2.074-8.678 4.617-8.678 4.609 3.888 4.609 8.68-2.063 8.676-4.613 8.676m-9.837-26.052c.335-3.817 2.335-6.769 4.463-6.579 2.137.185 3.589 3.433 3.258 7.258-.331 3.814-2.331 6.763-4.463 6.575s-3.587-3.433-3.258-7.254m2.451 22.798c-.19 2.495-1.541 4.426-3.028 4.31-1.486-.11-2.537-2.221-2.35-4.714s1.545-4.426 3.028-4.314 2.537 2.225 2.35 4.718m-6.071-9.665c-.929 4.215-3.5 7.233-5.743 6.733-2.24-.491-3.302-4.31-2.373-8.524s3.503-7.233 5.743-6.737 3.302 4.312 2.373 8.529m-1.153-29.569c-.934 2.952-2.963 4.946-4.535 4.449s-2.086-3.292-1.153-6.246 2.963-4.948 4.529-4.451c1.572.495 2.091 3.292 1.159 6.248m3.503 10.461c-.611 2.213-2.179 3.711-3.496 3.344s-1.888-2.455-1.275-4.67c.615-2.209 2.183-3.707 3.496-3.342 1.321.364 1.892 2.455 1.275 4.668m2.657-24.138c-.847 2.687-2.754 4.485-4.253 4.008s-2.029-3.037-1.18-5.726 2.754-4.487 4.253-4.012 2.029 3.037 1.18 5.73m4.632-12c-.641 2.048-2.16 3.397-3.38 3.014s-1.686-2.36-1.037-4.411 2.162-3.401 3.38-3.011c1.22.381 1.684 2.358 1.037 4.409m9.104-13.234c-1.134-.354-1.581-2.129-1.009-3.962.584-1.831 1.97-3.026 3.102-2.668s1.585 2.131 1.001 3.964c-.573 1.829-1.962 3.026-3.094 2.666m-1.966 15.94c-1.132-.356-1.587-2.133-1.005-3.964s1.962-3.028 3.094-2.67 1.583 2.133 1.009 3.964c-.58 1.831-1.968 3.024-3.098 2.67m-3.597 16.379c.375-2.472 1.878-4.293 3.349-4.069s2.36 2.411 1.979 4.885c-.375 2.47-1.871 4.293-3.349 4.067s-2.36-2.411-1.979-4.883m.038-42.306c.58-1.829 1.962-3.026 3.098-2.668s1.578 2.131 1.007 3.964c-.584 1.831-1.97 3.026-3.104 2.668s-1.583-2.131-1.001-3.964m2.05 10.956c1.134.356 1.583 2.131 1.012 3.964-.584 1.831-1.97 3.024-3.1 2.666s-1.585-2.128-1.007-3.96 1.964-3.028 3.096-2.67m-5.254 37.546c-.674 2.976-2.569 5.083-4.23 4.706s-2.459-3.094-1.783-6.071 2.567-5.087 4.227-4.708 2.459 3.096 1.785 6.074m-.308-17.251c.691-2.187 2.308-3.631 3.614-3.22s1.802 2.523 1.113 4.712-2.312 3.629-3.616 3.218-1.8-2.52-1.111-4.71m15.976-16.878c-.575 1.829-1.96 3.026-3.092 2.666-1.134-.354-1.585-2.131-1.012-3.962.584-1.829 1.973-3.026 3.104-2.668s1.581 2.129.999 3.964m1.878 9.359c-.575 1.831-1.962 3.028-3.096 2.668s-1.581-2.133-1.003-3.962 1.964-3.028 3.1-2.67 1.581 2.133.999 3.964m-1.117-16.183c-1.132-.356-1.585-2.131-1.003-3.962s1.966-3.026 3.096-2.67 1.583 2.133 1.007 3.966c-.586 1.829-1.966 3.026-3.1 2.666m-25.649-32.562c3.926-3.724 8.257-4.198 10.874-8.855s-.436-7.492-.702-9.386c-.264-1.886 2.219-1.085 6.048-4.801s3.776-7.542 6.04-3.924c1.136 1.808-.832 1.886-1.012 4.006s2.864 3.633 1.435 6.28c-1.416 2.647-3.182 2.539-3.182 2.539s1.452 6.725-1.212 9.882c-2.657 3.159-21.759 10.17-21.759 10.17s.51-3.104 3.469-5.911m-25.938-4.445c3.694.388 5.332 1.783 5.332 1.783s-17.538 6.904-18.44 5.77c-.898-1.127 4.244-6.815 4.244-6.815l6.638-3.865s-1.465 2.744 2.225 3.127m8.446-6.156c-1.479 1.159-3.905-1.418-3.905-1.418s5.228-6.175 11.005-10.874 14.115-8.082 16.857-5.536c5.016 4.645.491 10.79-.314 11.801.084.232.185.455.247.698 1.062 4.318-2.417 8.904-7.755 10.223-.624.154-1.256.238-1.886.293l.253.065s-4.653.765-8.082.139c-1.435-.265-3.1-1.094-4.029-3.406-.291-.727-.112-3.062.011-4.301-.879.942-1.707 1.77-2.4 2.316m5.745 105.471c-1.855-.485-2.62-3.703-1.715-7.19s3.148-5.926 5.001-5.446 2.624 3.703 1.715 7.193-3.146 5.924-5.001 5.443m-1.595 10.172c-.908 3.484-3.146 5.918-5.001 5.437s-2.622-3.698-1.715-7.186 3.148-5.928 5.003-5.443 2.622 3.701 1.713 7.193M186.9 75.108c-45.132 0-81.852 48.087-81.852 107.191s36.719 107.193 81.852 107.193 81.852-48.085 81.852-107.193S232.032 75.108 186.9 75.108" />
</svg>