<svg xmlns="http://www.w3.org/2000/svg" width="373.8" height="364.6">
  <rect width="373.8" height="364.6" fill="#3c1053" />
  <g fill-rule="evenodd">
    <path d="M205.646 98.327l.048-1.315c.005-1.619-.181-3.221-.547-4.805l-.292-1.16c-.412-1.394-.818-2.491-1.382-3.626l-1.554-2.645-.297-.407-1.313-1.672-.458-.53-1.535-1.512-.439-.385-1.605-1.252-.427-.296-.502-.297-1.394-.83-1.855-.884-1.72-.645-.577-.188-.436-.106-1.479-.363-.426-.085-1.444-.224-1.163-.117-.944-.059-.769-.02c-1.278-.012-2.432.087-3.664.287l-.321.055a24.24 24.24 0 0 0-5.883 1.844l-.971.47-.321.173-1.362.804c-1.101.717-2.207 1.542-3.311 2.561l-.366.352-.4.386-1.328 1.485c-.148.17-.262.342-.4.515l-1.338 1.934-.502.88-.965 1.888-.568 1.288-3.842 8.767-.304.697-.252.578-1.368 3.125-.772 1.762-.568 1.294-4.32 9.863-4.256 9.722-.767 1.751-1.472 3.36-1.093 2.498-2.396 5.469-1.656 3.787-1.187 2.711-1.227 2.8-4.172 9.526-.306.7-2.452 5.598-4.38 10.002-1.26 2.875-4.172 9.53-.304.692-1.335 3.046-2.972 6.789-6.081 13.888-1.221 3.411c-.328 1.132-.55 2.287-.8 4.126-.11.89-.165 1.802-.147 2.488.013 1.316.085 2.616.268 3.906.045.393.198 1.397.559 2.771l.495 1.671.466 1.296c.485 1.291 1.118 2.476 1.617 3.341l.646 1.087.701 1.021 1.124 1.441.334.409.77.841 1.29 1.289.369.345c1.326 1.187 2.507 2.007 3.249 2.473l2.288 1.305c1.472.736 3.005 1.295 3.02 1.298.18.065.352.092.529.151 3.788 1.285 7.016 1.468 8.939 1.4l.5-.028 1.524-.112a28.14 28.14 0 0 0 1.771-.222l1.166-.199 1.178-.287.809-.208 1.628-.534 1.689-.677.289-.144.601-.293 1.431-.754.421-.236 2.014-1.289c1.668-1.191 2.66-2.133 3.141-2.637l1.912-2.102c.484-.598.938-1.22 1.509-2.076l.427-.645a24.69 24.69 0 0 0 .633-1.081l.235-.448.258-.515 1.02-2.293 14.449-38.378 32.64-86.747.183-.558c.65-1.973.689-2.152.926-3.509a21.64 21.64 0 0 0 .232-1.817l.042-.608" fill="#f8d722" />
    <path d="M267.36 255.805c-.121-1.525-.46-3.543-.794-5.039-.264-1.189-.809-2.726-1.193-3.881l-1.086-2.88-3.657-9.689-1.285-3.408-2.896-7.67-4.119-10.912-1.45-3.848-4.049-10.726-1.242-3.294-1.346-3.563-1.205-3.188-4.911-13.016-4.681-12.405-2.261-5.991-3.225-8.545-1.136-3.022-4.173-11.052-2.019-5.345-.918-2.432-2.066-5.481-.919-2.433.006.02-.009-.02-1.65-3.516-.041-.081-.529-.856-.239-.392-.026-.035-1.101-1.557-.283-.314c-.776-.969-1.555-1.841-2.3-2.541l-.26-.225c-1.059-.966-2.034-1.708-2.721-2.217l-.009-.004-.008-.006c-.721-.531-2.066-1.372-3.969-2.219l-.644-.294-.555-.21-1.818-.643-.378-.134c-1.047-.319-2.07-.526-3.013-.672l-.045-.008-1.219-.158c-1.14-.125-2.095-.155-2.739-.147h-.044c-.298-.004-1.145.004-2.332.117l-.614.062-.266.031-.286.04-.34.049-.909.154-.124.029a19.93 19.93 0 0 0-1.222.273l-.13.029c-.735.151-1.623.457-2.447.775l-.39.133c-.528.186-1.216.503-1.942.868l-1.295.675-.027.018-.788.447-.965.624-.156.112a29.64 29.64 0 0 0-1.243.917l-.147.112-.399.339c-.741.609-1.499 1.281-2.192 2.033l-.732.862-1.228 1.512-1.166 1.715-.198.292c-.077.13-.12.246-.194.376a39.62 39.62 0 0 0-.957 1.795c-.065.13-.13.296-.195.44l-.086.188-.767 1.991-.035.128c-.499 1.523-.747 2.777-.909 3.639l-.024.173a33.57 33.57 0 0 0-.247 2.181c-.077.876-.107 1.693-.059 2.732v.074c.053 1.161.136 1.941.275 2.765l.519 2.506.023.098.01.047 35.449 132.49-.004-.021.004.013v.011c.791 2.879 1.658 4.751 1.907 5.261 1.245 2.549 2.443 4.537 3.554 5.912 1.564 1.929 2.694 3.322 5.052 5.3 2.739 2.289 5.186 3.561 6.106 4.039 5.656 2.939 12.463 4.153 18.679 3.339 1.391-.184 5.08-.667 9.46-2.686 4.191-1.93 6.756-4.197 8.137-5.416 2.843-2.523 4.964-5.722 6.237-7.963 2.036-3.576 2.877-7.16 3.231-8.69.596-2.539.823-5.945.594-8.89" fill="#57467b" />
    <path d="M259.263 175.745l.006-.053.124-2.586-.003-.115-.006-.283-.064-1.91-.054-.749-.11-1.039-.11-.895-.009-.058-.283-1.579c-.312-1.553-.658-2.679-.826-3.176l-.298-.851a28.08 28.08 0 0 0-2.055-4.729l-.429-.762-1.353-2.214c-.006-.015-.789-1.207-2.043-2.712l-.24-.29-.5-.57-.756-.833-.349-.365c-1.306-1.345-2.32-2.17-2.651-2.427l-.021-.018c-.013-.008-.735-.616-1.874-1.431-.835-.626-1.335-.953-2.307-1.54l-.082-.046-.075-.049-1.118-.626c-1.733-.959-3.078-1.532-3.5-1.702h-.004c-1.227-.55-3.468-1.277-5.537-1.795l-.41-.099-2.232-.442-1.733-.223-.783-.084-.548-.061-.597-.029-.671-.052-1.922-.012-.747.007c-1.123.02-2.346.078-3.455.233l-.273.04c-1.132.142-2.312.353-3.545.637l-1.652.403c-2.113.598-2.241.657-5.598 2.066l-.012.006.012-.008-62.234 28.953-.052.029-.178.093-1.424.739-1.035.574-.04.026-1.105.696-.216.143-.86.622-.421.304-.35.299-1.144.937a26.8 26.8 0 0 0-4.394 4.947l-.27.442c-1.596 2.41-2.432 4.459-2.735 5.336l-.145.434-.11.324-.34 1.105-.297 1.09-.121.533c-.431 1.955-.568 3.617-.574 4.768v.008c-.124 4.347.914 7.603 1.12 8.214l.592 1.656.082.247.398.917.24.556.634 1.246.483.861.925 1.469.174.272.118.153c1.133 1.61 2.131 2.682 2.444 3.001l.215.202c1.248 1.3 2.335 2.21 2.888 2.622l.798.584.41.298 1.667 1.087 1.399.764.929.481.155.08 1.922.802.288.126c.722.261 2.225.808 4.411 1.252l.58.098.024.007.944.138 2.972.304h-.003l1.676.012.215-.003c1.361-.018 2.389-.103 3.431-.258a27.12 27.12 0 0 0 2.896-.538l.03-.006 67.161-16.253-.027.01.029-.01.357-.101.075-.023-.435.124 2.684-.755.604-.218 2.426-.928 1.37-.609.267-.134.118-.055.131-.075c3.725-1.896 5.756-3.533 6.639-4.245l.194-.173.094-.07c.158-.129.289-.28.443-.413l2.232-2.083.883-.963 1.506-1.779.847-1.109 1.786-2.71.264-.481c1.436-2.543 2.203-4.641 2.505-5.607l.289-.945.085-.29c.458-1.567.933-3.532 1.151-6.127" fill="#eb2b81" />
  </g>
</svg>