<?xml version="1.0" encoding="UTF-8" standalone="no"?>

<svg
   version="1.1"
   id="Layer_1"
   x="0px"
   y="0px"
   viewBox="0 0 373.79998 364.60001"
   xml:space="preserve"
   width="373.79999"
   height="364.60001"
   xmlns="http://www.w3.org/2000/svg"
   xmlns:svg="http://www.w3.org/2000/svg"
   style="background-color:#3c1053"><defs
   id="defs13" />&#10;<style
   type="text/css"
   id="style1">&#10;	.st0{fill:#F9383D;}&#10;	.st1{fill:#FFFFFF;}&#10;	.st2{fill-rule:evenodd;clip-rule:evenodd;fill:#FFFFFF;}&#10;</style>&#10;&#10;&#10;&#10;&#10;&#10;&#10;&#10;&#10;&#10;&#10;&#10;&#10;&#10;<g
   id="g1"
   transform="matrix(0.88321289,0,0,0.88321289,22.156005,13.71344)"><path
     d="m 207.75338,95.801429 c 0.0369,-0.62 0.0547,-1.14934 0.0547,-1.48934 0.006,-1.83333 -0.20467,-3.64666 -0.61987,-5.44 -0.0916,-0.424 -0.20467,-0.864 -0.33013,-1.31333 -0.46614,-1.57867 -0.9256,-2.82 -1.5652,-4.10533 -0.66347,-1.26134 -1.19787,-2.16667 -1.75987,-2.99467 -0.1124,-0.16267 -0.2244,-0.30533 -0.3364,-0.46133 -0.49067,-0.68267 -0.98387,-1.31467 -1.48707,-1.89334 -0.17026,-0.19866 -0.34106,-0.408 -0.51813,-0.6 -0.59893,-0.64666 -1.1808,-1.212 -1.738,-1.712 -0.16773,-0.15066 -0.3308,-0.292 -0.49747,-0.436 -0.69733,-0.59333 -1.31093,-1.06266 -1.81773,-1.41733 -0.31973,-0.21867 -0.41507,-0.28933 -0.48333,-0.33467 -0.1932,-0.12266 -0.37707,-0.22 -0.56814,-0.336 -0.5412,-0.33866 -1.06826,-0.664 -1.57866,-0.94 -0.80374,-0.42133 -1.4708,-0.73866 -2.1,-1.00133 -0.7792,-0.32533 -1.40214,-0.556 -1.94694,-0.73067 -0.3568,-0.11733 -0.5312,-0.18 -0.65306,-0.21333 -0.1636,-0.0467 -0.32707,-0.076 -0.49374,-0.12 -0.57146,-0.15867 -1.13026,-0.29867 -1.67453,-0.41067 -0.15987,-0.0333 -0.32347,-0.068 -0.4828,-0.096 -0.56507,-0.10666 -1.10987,-0.19066 -1.6344,-0.25333 -0.4416,-0.056 -0.8776,-0.0987 -1.31667,-0.132 -0.364,-0.0267 -0.72813,-0.0533 -1.06866,-0.0667 -0.2896,-0.0107 -0.58187,-0.0227 -0.87094,-0.0227 -1.4468,-0.0133 -2.75306,0.0987 -4.1484,0.32533 l -0.364,0.0627 c -2.1,0.372 -4.39693,1.04266 -6.66106,2.088 -0.38374,0.16933 -0.71094,0.32933 -1.09894,0.532 l -0.36346,0.196 c -0.4464,0.24133 -0.9672,0.544 -1.54174,0.91066 -1.24626,0.812 -2.49893,1.74534 -3.7484,2.9 -0.14586,0.13867 -0.2776,0.26934 -0.41413,0.39867 -0.15,0.14933 -0.30307,0.28267 -0.45307,0.43733 -0.69693,0.76134 -1.1396,1.252 -1.50359,1.68134 -0.1672,0.192 -0.29694,0.38666 -0.4532,0.58266 -0.6672,0.87067 -1.12294,1.53067 -1.51454,2.18934 -0.2552,0.42 -0.41146,0.70666 -0.56826,0.996 -0.4864,0.87733 -0.86827,1.64666 -1.09214,2.13733 -0.21773,0.48933 -0.436,0.98667 -0.6432,1.45867 -1.3824,3.16 -3.0016,6.84933 -4.35,9.92666 -0.112,0.256 -0.2376,0.54534 -0.34386,0.78934 -0.0885,0.20266 -0.19054,0.43866 -0.2848,0.65466 -0.48707,1.112 -1.02867,2.344 -1.54894,3.538671 -0.31,0.7 -0.60946,1.38533 -0.87453,1.99467 -0.20107,0.456 -0.42867,0.97733 -0.6432,1.46533 -1.56253,3.56533 -3.4308,7.83067 -4.8912,11.16666 -1.43227,3.276 -3.25627,7.436 -4.81827,11.008 -0.29373,0.67067 -0.59573,1.364 -0.86866,1.98267 -0.4964,1.13467 -1.08854,2.48267 -1.6672,3.804 -0.43547,0.99333 -0.86414,1.976 -1.238,2.828 -0.81774,1.864 -1.7604,4.02267 -2.71307,6.192 -0.6328,1.448 -1.2656,2.89333 -1.87493,4.288 -0.46987,1.07067 -0.92667,2.11333 -1.34427,3.06933 -0.4324,0.98934 -0.90533,2.06534 -1.38907,3.17067 -1.5688,3.58267 -3.32146,7.58667 -4.724,10.78533 -0.1084,0.24534 -0.2308,0.53067 -0.34693,0.792 -0.8848,2.02267 -1.94627,4.44267 -2.77653,6.33867 -1.47027,3.35867 -3.31507,7.56667 -4.9588,11.32467 -0.49694,1.13226 -0.98027,2.23746 -1.42614,3.25466 -1.402,3.19947 -3.13066,7.1468 -4.72333,10.79 -0.11573,0.262 -0.23187,0.52507 -0.34387,0.78294 -0.52706,1.20413 -1.03796,2.37333 -1.5114,3.44893 -1.00729,2.3072 -2.35833,5.37867 -3.3651,7.68693 -2.06667,4.71454 -4.819795,11.0052 -6.884905,15.724 -0.61614,1.5344 -1.04166,2.64947 -1.38229,3.86147 -0.37083,1.2812 -0.62239,2.58907 -0.90573,4.67187 -0.125,1.00773 -0.18646,2.04013 -0.16666,2.8172 0.0146,1.49053 0.0958,2.96146 0.30312,4.42293 0.051,0.4452 0.22448,1.58227 0.63333,3.13693 0.14948,0.6 0.32344,1.1932 0.56094,1.89214 0.22552,0.64373 0.36147,1.024 0.5276,1.46773 0.54896,1.46146 1.26615,2.8032 1.83125,3.7828 0.38803,0.66666 0.60626,1.024 0.73178,1.2308 0.200525,0.31866 0.503125,0.74426 0.793225,1.15626 0.35314,0.5036 0.78542,1.04267 1.2724,1.63174 0.12656,0.15306 0.25208,0.3172 0.3776,0.46253 0.26928,0.31453 0.56511,0.62387 0.87188,0.952 0.49635,0.52813 0.98334,1.0136 1.46042,1.45893 0.14584,0.13174 0.2651,0.25827 0.4177,0.39054 1.50104,1.34373 2.83855,2.27186 3.67911,2.8 1.05787,0.64373 1.8548,1.10786 2.59013,1.47706 1.6672,0.83334 3.40267,1.46667 3.41987,1.46934 0.20413,0.0735 0.3984,0.10413 0.59893,0.1708 4.28854,1.45466 7.9432,1.66253 10.1208,1.58546 0.21507,-0.004 0.38227,-0.0256 0.56614,-0.0317 0.55466,-0.0272 1.1292,-0.0709 1.72506,-0.1272 0.70054,-0.0667 1.36147,-0.14893 2.00467,-0.25147 0.43547,-0.0699 0.86773,-0.13653 1.32027,-0.2256 0.47653,-0.1 0.89853,-0.212 1.33386,-0.32546 0.30267,-0.076 0.60214,-0.1464 0.91614,-0.236 0.68026,-0.1984 1.28653,-0.3984 1.84373,-0.60414 0.85787,-0.3156 1.45373,-0.55733 1.91253,-0.76666 l 0.32707,-0.16254 c 0.22453,-0.10413 0.4532,-0.21973 0.6808,-0.33173 0.57187,-0.2812 1.10933,-0.56827 1.61973,-0.8536 0.1604,-0.0891 0.31667,-0.17187 0.47654,-0.26667 0.85786,-0.5 1.6104,-0.988 2.28026,-1.45986 1.88854,-1.348 3.01147,-2.41467 3.5568,-2.98547 1.20147,-1.21453 1.9224,-2.06773 2.16454,-2.37973 0.54746,-0.6776 1.062,-1.3812 1.7084,-2.35107 0.1624,-0.24627 0.31293,-0.47187 0.48373,-0.73067 0.31933,-0.5224 0.5272,-0.87546 0.7172,-1.224 0.0917,-0.17026 0.1772,-0.33586 0.26573,-0.50773 0.0984,-0.19333 0.2004,-0.38907 0.29214,-0.5828 0.48386,-0.98653 0.88226,-1.912 1.15466,-2.59586 l 16.35933,-43.45267 c 12.53027,-33.30733 25.99747,-69.094 36.95574,-98.218 l 0.20733,-0.632 c 0.73547,-2.23333 0.77973,-2.436 1.0484,-3.973331 0.1292,-0.74933 0.20787,-1.43067 0.26253,-2.05733 0.0199,-0.22934 0.0303,-0.46 0.0475,-0.688"
     style="fill:#f8d722;fill-opacity:1;fill-rule:evenodd;stroke:none;stroke-width:0.133333"
     id="path20" /><path
     d="m 277.62751,274.10289 c -0.13733,-1.72707 -0.52133,-4.01187 -0.89866,-5.70574 -0.29867,-1.34626 -0.916,-3.0864 -1.35067,-4.39426 -0.384,-1.0176 -0.808,-2.1416 -1.22933,-3.2604 -1.33334,-3.53334 -2.79067,-7.39054 -4.14,-10.97027 -0.50534,-1.34173 -1.004,-2.65627 -1.45467,-3.8588 -0.98267,-2.60266 -2.296,-6.08133 -3.27867,-8.68386 -1.38266,-3.66414 -3.1,-8.212 -4.664,-12.3548 -0.57466,-1.52907 -1.13333,-3.00934 -1.64133,-4.3572 -1.36,-3.59747 -3.05733,-8.1 -4.584,-12.14427 -0.49467,-1.30373 -0.96933,-2.56667 -1.40667,-3.7292 -0.45466,-1.20787 -0.99333,-2.624 -1.524,-4.0344 -0.47866,-1.2656 -0.952,-2.5244 -1.364,-3.60933 -1.668,-4.42294 -3.89333,-10.31667 -5.56,-14.73747 -1.59066,-4.21347 -3.70933,-9.82947 -5.3,-14.04547 -0.768,-2.03333 -1.792,-4.74533 -2.56,-6.78266 -1.08266,-2.86667 -2.42533,-6.42934 -3.652,-9.67467 -0.45066,-1.2 -0.88933,-2.35867 -1.28666,-3.42133 -1.42,-3.75334 -3.30814,-8.756 -4.7248,-12.51334 -0.68547,-1.81466 -1.60107,-4.23733 -2.286,-6.052 -0.3244,-0.85733 -0.67494,-1.788 -1.03907,-2.75333 -0.75933,-2.016 -1.5776,-4.18533 -2.33907,-6.20533 -0.364,-0.96534 -0.7156,-1.89334 -1.04,-2.75467 l 0.007,0.0227 -0.0104,-0.0227 c -0.60106,-1.456 -1.04946,-2.548 -1.86773,-3.98133 l -0.0463,-0.092 c -0.16773,-0.3 -0.3912,-0.64 -0.59853,-0.96934 -0.0968,-0.15333 -0.1672,-0.28 -0.2708,-0.444 l -0.0297,-0.04 c -0.41507,-0.62933 -0.84574,-1.25199 -1.2468,-1.76266 l -0.32027,-0.356 c -0.87867,-1.09733 -1.76107,-2.084 -2.60373,-2.87733 l -0.29427,-0.25467 c -1.19893,-1.09333 -2.30253,-1.93333 -3.0812,-2.51067 l -0.01,-0.005 -0.009,-0.007 c -0.81614,-0.60133 -2.3396,-1.55333 -4.49427,-2.512 -0.24427,-0.112 -0.48853,-0.23466 -0.7292,-0.33333 -0.1932,-0.0813 -0.4244,-0.15733 -0.628,-0.23733 -0.7016,-0.27334 -1.3896,-0.524 -2.0584,-0.728 -0.1536,-0.0493 -0.2708,-0.10267 -0.4276,-0.152 -1.186,-0.36134 -2.3432,-0.596 -3.41147,-0.76134 l -0.0505,-0.009 c -0.4812,-0.072 -0.94533,-0.132001 -1.38013,-0.178671 -1.29067,-0.14133 -2.3724,-0.176 -3.10107,-0.16666 h -0.05 c -0.33747,-0.004 -1.29693,0.005 -2.64013,0.132 -0.23694,0.0227 -0.47134,0.044 -0.69534,0.0707 l -0.30106,0.0347 -0.32334,0.0453 -0.38493,0.056 c -0.3568,0.0573 -0.71773,0.11867 -1.02867,0.17467 l -0.14066,0.0333 c -0.49787,0.096 -0.95574,0.19867 -1.38334,0.30934 l -0.1468,0.0333 c -0.83226,0.17067 -1.838,0.51733 -2.7704,0.87733 -0.15053,0.0507 -0.28066,0.0987 -0.4416,0.15067 -0.59746,0.21067 -1.37653,0.56933 -2.1984,0.98267 -0.51413,0.25333 -0.98906,0.49333 -1.46666,0.764 l -0.0303,0.02 c -0.314,0.17866 -0.6552,0.36933 -0.89213,0.50666 -0.27707,0.16534 -0.6552,0.40667 -1.0928,0.70667 l -0.17707,0.12667 c -0.43067,0.3 -0.89893,0.644 -1.4068,1.03866 l -0.16667,0.12667 c -0.1244,0.0973 -0.30773,0.26667 -0.452,0.384 -0.83853,0.68933 -1.69693,1.45067 -2.48226,2.30133 -0.32094,0.34534 -0.548,0.64667 -0.82867,0.976 -0.4652,0.52534 -0.9224,1.08 -1.39067,1.712 -0.51453,0.692 -0.95253,1.33867 -1.31973,1.94133 l -0.224,0.33067 c -0.0869,0.14667 -0.1364,0.27867 -0.21973,0.42533 -0.41147,0.728 -0.77614,1.416 -1.08334,2.032 -0.074,0.14667 -0.14746,0.33467 -0.2204,0.49867 l -0.0973,0.21333 c -0.32707,0.74534 -0.65467,1.56267 -0.86827,2.25467 l -0.0401,0.14533 c -0.56507,1.724 -0.84587,3.144 -1.0292,4.12 l -0.0271,0.196 c -0.09,0.62267 -0.20053,1.464 -0.28013,2.46934 -0.0875,0.992 -0.12133,1.91733 -0.0672,3.09333 v 0.084 c 0.0599,1.31467 0.1536,2.19733 0.31093,3.13067 0.1536,0.948 0.35054,1.82266 0.58747,2.83733 l 0.0265,0.11067 0.0109,0.0533 40.13653,150.00933 -0.004,-0.024 0.004,0.0147 v 0.0119 c 0.89587,3.26 1.8776,5.37867 2.1588,5.95627 1.40947,2.88653 2.76613,5.13707 4.02347,6.6932 1.7708,2.18392 3.05053,3.76152 5.72026,6.00111 3.10107,2.59218 5.87147,4.03229 6.9136,4.57344 6.40347,3.32812 14.11147,4.7026 21.1488,3.7802 1.57467,-0.20833 5.752,-0.75469 10.71067,-3.04167 4.74533,-2.18489 7.64933,-4.75156 9.21333,-6.13177 3.21867,-2.85624 5.62,-6.47864 7.06134,-9.01611 2.30533,-4.04893 3.25733,-8.1068 3.65866,-9.83853 0.67467,-2.87454 0.932,-6.7308 0.672,-10.0652"
     style="fill:#57467b;fill-opacity:1;fill-rule:evenodd;stroke:none;stroke-width:0.133333"
     id="path22" /><path
     d="m 268.45951,183.45662 0.007,-0.0604 c 0.076,-0.91 0.13067,-1.86986 0.14,-2.9276 l -0.003,-0.13026 -0.007,-0.3208 c 0,-0.74854 -0.028,-1.46814 -0.072,-2.1628 -0.0173,-0.29467 -0.0373,-0.57067 -0.0613,-0.848 -0.036,-0.40667 -0.076,-0.79334 -0.124,-1.176 -0.0413,-0.35067 -0.08,-0.69467 -0.124,-1.01334 l -0.0107,-0.0653 c -0.10667,-0.69467 -0.21334,-1.28667 -0.32,-1.788 -0.35334,-1.75867 -0.74534,-3.03333 -0.93467,-3.596 -0.0933,-0.276 -0.22267,-0.63867 -0.33733,-0.964 -0.728,-2.168 -1.49467,-3.84133 -2.32667,-5.35467 -0.152,-0.28133 -0.316,-0.56933 -0.48533,-0.86266 -0.484,-0.83467 -0.992,-1.65067 -1.532,-2.50667 -0.007,-0.0173 -0.89334,-1.36667 -2.31334,-3.07067 l -0.272,-0.328 c -0.17866,-0.20933 -0.37066,-0.42533 -0.56666,-0.64533 -0.296,-0.33333 -0.58134,-0.648 -0.856,-0.94267 -0.13734,-0.144 -0.268,-0.284 -0.39467,-0.41333 -1.47867,-1.52267 -2.62667,-2.45733 -3.00133,-2.748 l -0.024,-0.02 c -0.0147,-0.009 -0.832,-0.69733 -2.12134,-1.62 -0.94533,-0.70933 -1.512,-1.07867 -2.612,-1.744 l -0.0933,-0.052 -0.0853,-0.056 c -0.38934,-0.23333 -0.816,-0.472 -1.26534,-0.70933 -1.96266,-1.08534 -3.48533,-1.73467 -3.96266,-1.92667 h -0.004 c -1.38934,-0.62267 -3.92667,-1.44533 -6.26934,-2.032 -0.156,-0.0387 -0.30933,-0.0747 -0.464,-0.112 -0.91866,-0.21867 -1.78133,-0.39467 -2.52666,-0.5 -0.664,-0.11067 -1.31334,-0.18 -1.96267,-0.252 -0.30933,-0.036 -0.57733,-0.0627 -0.88667,-0.0947 -0.20666,-0.02 -0.41733,-0.056 -0.62,-0.0693 -0.216,-0.0133 -0.45333,-0.0187 -0.676,-0.0333 -0.248,-0.0147 -0.53333,-0.0507 -0.76,-0.0587 -0.57066,-0.005 -1.344,-0.0147 -2.17613,-0.0133 -0.28173,0.004 -0.55307,0 -0.84587,0.008 -1.27133,0.0227 -2.65666,0.088 -3.91186,0.264 l -0.30947,0.0453 c -1.28173,0.16133 -2.61813,0.4 -4.014,0.72133 -0.6604,0.14534 -1.3,0.29467 -1.87027,0.456 -2.39226,0.67734 -2.53706,0.744 -6.33866,2.33867 l -0.014,0.007 0.014,-0.009 -70.46293,32.78134 -0.0589,0.0333 -0.202,0.10533 c -0.57453,0.28694 -1.1068,0.56614 -1.612,0.83694 -0.4088,0.2156 -0.80106,0.43333 -1.17186,0.64946 l -0.0453,0.0297 c -0.41973,0.24533 -0.83173,0.50306 -1.25106,0.788 l -0.24427,0.16146 c -0.30933,0.21614 -0.6296,0.44427 -0.97347,0.70414 -0.1604,0.1204 -0.3088,0.21613 -0.47706,0.34373 -0.14107,0.11093 -0.25827,0.22867 -0.39574,0.33813 -0.39853,0.31707 -0.82093,0.66454 -1.29533,1.0604 -0.0308,0.0229 -2.7776,2.34574 -4.97453,5.60147 -0.11307,0.16987 -0.19587,0.33387 -0.30574,0.50053 -1.80733,2.72867 -2.75306,5.04894 -3.0968,6.0412 -0.0516,0.1448 -0.1136,0.33747 -0.16466,0.49107 l -0.124,0.3672 c -0.13067,0.3828 -0.25094,0.79533 -0.38534,1.25107 -0.12293,0.42186 -0.23693,0.83226 -0.33653,1.2344 -0.0484,0.20053 -0.0927,0.3932 -0.13747,0.60306 -0.48853,2.2136 -0.6432,4.09534 -0.64946,5.398 v 0.009 c -0.14067,4.92133 1.0344,8.60786 1.26826,9.3 0.20627,0.5984 0.42294,1.2224 0.67027,1.87453 l 0.0927,0.28013 c 0.13706,0.36 0.29853,0.69334 0.45053,1.03854 0.0891,0.20946 0.17187,0.4136 0.27147,0.6292 0.23013,0.4912 0.47133,0.95786 0.71813,1.41093 0.16933,0.3188 0.35053,0.64013 0.54693,0.97453 0.35054,0.5948 0.70107,1.14787 1.04787,1.66294 l 0.19693,0.30786 0.13334,0.17347 c 1.28226,1.8224 2.4124,3.03693 2.76773,3.39733 l 0.2432,0.2292 c 1.41293,1.47187 2.64373,2.50267 3.26973,2.96827 0.2464,0.1864 0.58747,0.42907 0.90374,0.66093 0.15466,0.112 0.3088,0.22547 0.464,0.33747 0.54266,0.38027 1.17186,0.7948 1.88746,1.23067 0.52187,0.31626 1.05467,0.59066 1.5844,0.8652 0.34694,0.1844 0.67347,0.3604 1.0516,0.54426 l 0.17494,0.0905 c 0.49173,0.22146 1.23853,0.548 2.17613,0.90786 l 0.32653,0.14267 c 0.81774,0.29587 2.51974,0.91467 4.9948,1.4172 0.20254,0.0417 0.4364,0.0751 0.65627,0.11093 l 0.0276,0.008 c 0.34733,0.0547 0.69733,0.10827 1.06867,0.15627 1.05946,0.1572 2.16613,0.288 3.3652,0.34373 h -0.003 c 0.7084,0.0177 1.31986,0.0203 1.89746,0.0135 l 0.24374,-0.003 c 1.54053,-0.0203 2.7052,-0.11613 3.8844,-0.29213 0.93853,-0.12147 1.94266,-0.29227 3.27906,-0.60947 l 0.0344,-0.007 76.04187,-18.40253 -0.0307,0.0109 0.0333,-0.0109 c 0.136,-0.0317 0.26667,-0.0797 0.404,-0.11453 l 0.0853,-0.0256 c -0.16534,0.0427 -0.32267,0.1016 -0.492,0.14013 0.91066,-0.25467 2.148,-0.54013 3.03866,-0.85467 0.21334,-0.0745 0.45467,-0.16253 0.684,-0.2464 0.86667,-0.29066 1.784,-0.64426 2.74667,-1.05106 0.55067,-0.22907 1.08533,-0.45827 1.55067,-0.68907 l 0.30266,-0.152 0.13334,-0.0625 0.148,-0.0844 c 4.21733,-2.1464 6.51733,-4 7.51733,-4.80627 l 0.22,-0.19627 0.10667,-0.0787 c 0.17866,-0.1464 0.32666,-0.3172 0.50133,-0.46774 0.90533,-0.78026 1.75333,-1.56306 2.52667,-2.3588 0.348,-0.35733 0.67066,-0.72666 1,-1.09066 0.60933,-0.67867 1.184,-1.34694 1.70533,-2.01467 0.32667,-0.4124 0.65333,-0.828 0.95867,-1.2552 0.768,-1.0572 1.448,-2.08947 2.02266,-3.06867 0.10667,-0.17973 0.19867,-0.3636 0.29867,-0.54426 1.62533,-2.8792 2.49467,-5.25427 2.836,-6.348 0.10267,-0.3364 0.216,-0.69374 0.32667,-1.07027 l 0.096,-0.32813 c 0.51866,-1.77454 1.056,-3.99894 1.30266,-6.93694"
     style="fill:#eb2b81;fill-opacity:1;fill-rule:evenodd;stroke:none;stroke-width:0.133333"
     id="path24" /></g></svg>
