<svg xmlns="http://www.w3.org/2000/svg" width="373.8" height="364.6" style="background-color:#00008f"><path fill="#ff1721" d="M298.644 81.317h-12.416l-85.257 110.502h12.83z"/><path d="M246.083 241.069c3.725 10.761 12.002 39.317 15.313 41.387h-21.107c0-2.483-.414-4.966-.828-7.45-.828-3.311-8.691-27.729-8.691-27.729h-33.523l-5.38 7.45 6.622 20.693c.828 1.655 3.725 7.036 3.725 7.036h-20.279s-.414-2.897-.828-4.139c0-.828-2.069-6.622-2.069-6.622s-4.553 4.966-5.794 7.45-1.655 3.725-1.655 3.725H155.86s-.414-2.897-.828-4.139c0-.828-2.069-7.036-2.069-7.036s-4.553 5.38-5.794 7.863-1.655 3.725-1.655 3.725h-15.727s4.553-4.139 5.794-6.208c2.483-2.897 12.416-15.727 12.416-15.727l-3.725-13.658h-33.109l-19.866 25.66c-.828.828-6.208 8.691-6.208 9.519h-9.933v-6.208l.414-.414c.414-.414 14.485-17.796 27.315-34.765l23.59-31.04c2.483-3.311 5.794-10.761 5.794-10.761h16.969s.414 6.622.828 8.277c.414 1.242 10.761 35.593 11.174 36.006l5.794-7.45-9.933-30.626-2.897-6.622h19.866c0 1.655 0 3.725.828 5.38.828 2.483 4.966 18.21 4.966 18.21l14.485-18.21c.828-1.655 1.655-3.311 1.655-4.966h16.555s-2.897 2.069-8.277 9.105c-1.655 2.483-19.452 24.832-19.452 24.832l2.483 7.863c0 .828.414 1.242.414 1.242l1.242-1.242c4.553-5.794 25.246-33.109 26.487-35.179.828-2.069 2.483-4.139 3.311-6.208h16.141s.414 4.966.828 6.208zm-24.832-25.66c-2.483 4.966-16.555 22.349-16.555 22.349h22.349l-4.966-16.141c-.414-2.483-.828-4.139-.828-6.208 0-.414 0-.828 0 0zm-86.084 0c-2.483 4.966-16.555 22.349-16.555 22.349h22.763l-4.966-16.141c-.828-2.483-.828-4.139-1.242-6.208.414-.414.414-.828 0 0zm33.937 51.733l6.208-8.277c-.414-.414-4.139-11.174-4.139-11.174l-5.794 7.863z" fill="#fff"></path></svg>