<svg xmlns="http://www.w3.org/2000/svg" width="373.8" height="364.6">
  <rect width="373.8" height="364.6" fill="#05286a" />
  <path d="M274.062 112.068L186.9 164.7l-87.162-52.632v35.871l57.326 34.53-57.326 34.53v35.87l87.162-52.632 87.162 52.632v-35.87l-57.326-34.53 57.326-34.53zM186.9 220.685c-10.728 0-19.444 8.716-19.444 19.109 0 10.728 8.716 19.444 19.109 19.444s19.444-8.716 19.444-19.109c0-10.728-8.381-19.444-19.109-19.444 0-.335 0-.335 0 0zm111.97-38.217c0 10.728-8.716 19.109-19.444 19.109s-19.109-8.716-19.109-19.444 8.716-19.109 19.109-19.109c11.063 0 19.444 8.716 19.444 19.444zM186.9 105.363c-10.728 0-19.444 8.716-19.444 19.109 0 10.728 8.716 19.444 19.109 19.444s19.444-8.716 19.444-19.109c0-10.728-8.381-19.444-19.109-19.444zm-73.417 77.105c0 10.728-8.716 19.109-19.444 19.109-10.728-.335-19.109-9.051-19.109-19.444 0-10.728 8.716-19.109 19.109-19.109 10.728 0 19.444 8.716 19.444 19.444z" fill="#fff" />
</svg>