<?xml version="1.0" encoding="UTF-8" standalone="no"?>

<svg
   version="1.1"
   id="Layer_1"
   x="0px"
   y="0px"
   viewBox="0 0 373.79998 364.60001"
   xml:space="preserve"
   width="373.79999"
   height="364.60001"
   xmlns="http://www.w3.org/2000/svg"
   xmlns:svg="http://www.w3.org/2000/svg"
   style="background-color:#05286a"><defs
   id="defs13" />&#10;<style
   type="text/css"
   id="style1">&#10;	.st0{fill:#F9383D;}&#10;	.st1{fill:#FFFFFF;}&#10;	.st2{fill-rule:evenodd;clip-rule:evenodd;fill:#FFFFFF;}&#10;</style>&#10;&#10;&#10;&#10;&#10;&#10;&#10;&#10;&#10;&#10;&#10;&#10;&#10;&#10;<path
   d="M 274.06196,112.06757 186.9,164.69999 99.738026,112.06757 v 35.8705 l 57.325754,34.52955 -57.325754,34.52955 v 35.8705 L 186.9,200.23525 l 87.16196,52.63242 v -35.8705 l -57.32575,-34.52955 57.32575,-34.52955 z M 186.9,220.68479 c -10.72763,0 -19.44383,8.7162 -19.44383,19.10859 0,10.72762 8.7162,19.44382 19.10859,19.44382 10.39239,0 19.44382,-8.7162 19.44382,-19.10859 0,-10.72762 -8.38096,-19.44382 -19.10858,-19.44382 0,-0.33524 0,-0.33524 0,0 z m 111.9696,-38.21717 c 0,10.72763 -8.7162,19.10859 -19.44382,19.10859 -10.72763,0 -19.10859,-8.7162 -19.10859,-19.44383 0,-10.72762 8.7162,-19.10858 19.10859,-19.10858 11.06286,0 19.44382,8.71619 19.44382,19.44382 z M 186.9,105.3628 c -10.72763,0 -19.44383,8.7162 -19.44383,19.10859 0,10.72763 8.7162,19.44382 19.10859,19.44382 10.39239,0 19.44382,-8.71619 19.44382,-19.10858 0,-10.72763 -8.38096,-19.44383 -19.10858,-19.44383 z m -73.4172,77.10482 c 0,10.72763 -8.7162,19.10859 -19.443826,19.10859 -10.727626,-0.33524 -19.108585,-9.05144 -19.108585,-19.44383 0,-10.72762 8.716197,-19.10858 19.108585,-19.10858 10.727626,0 19.443826,8.71619 19.443826,19.44382 z"
   id="path1-7"
   style="fill:#ffffff;fill-opacity:1;stroke-width:3.35238" /></svg>
