<svg xmlns="http://www.w3.org/2000/svg" width="373.8" height="364.6" style="background-color:#0000ff"><path d="M304.048 74.955c0 26.476-115.869 29.359-115.869 57.851h-2.562c0-28.492-115.869-31.372-115.869-57.851h-2.585v27.633c0 33.002 116.083 29.911 118.454 61.64h2.562c2.371-31.729 118.457-28.637 118.457-61.64V74.955zm0 62.706c0 26.476-115.869 29.36-115.869 57.851h-2.562c0-28.491-115.869-31.372-115.869-57.851h-2.585v27.633c0 33.003 116.083 29.911 118.454 61.64h2.562c2.371-31.729 118.457-28.637 118.457-61.64v-27.633zm0 62.708c0 26.476-115.869 29.359-115.869 57.851h-2.562c0-28.492-115.869-31.372-115.869-57.851h-2.585v27.636c0 33.002 116.083 29.911 118.454 61.639h2.562c2.371-31.732 118.457-28.64 118.457-61.639v-27.636z" fill="#fff"/></svg>
