<svg xmlns="http://www.w3.org/2000/svg" width="373.8" height="364.6">
  <rect width="373.8" height="364.6" fill="#ffc805" />
  <style><![CDATA[.D{fill:#241f21}.E{fill:#ffc805}.F{fill:#0f1721}]]></style>
  <path d="M247.103 182.292c0 32.983-26.971 59.705-60.203 59.705s-60.203-26.722-60.203-59.705 26.971-59.785 60.203-59.785 60.203 26.802 60.203 59.785" class="F" />
  <g class="D">
    <path d="M247.103 182.292h-.217c0 16.431-6.719 31.305-17.571 42.062-10.861 10.764-25.855 17.419-42.415 17.419a60.06 60.06 0 0 1-42.415-17.419c-10.861-10.765-17.579-25.63-17.579-42.062s6.719-31.322 17.579-42.102c10.861-10.788 25.855-17.459 42.415-17.459a60.03 60.03 0 0 1 42.415 17.459c10.861 10.788 17.571 25.679 17.571 42.102h.433c0-33.104-27.067-60.002-60.42-60.002s-60.42 26.899-60.428 60.002c0 16.552 6.767 31.538 17.708 42.375a60.47 60.47 0 0 0 42.72 17.547c16.68 0 31.787-6.703 42.72-17.547 10.941-10.837 17.7-25.823 17.7-42.375zm-121.385-56.125l1.357 1.124-.811 1.003c-.586.506-.722.963-1.228 1.686-.939 1.357 1.421 2.52 3.235-.153 2.015-2.954-.955-4.969-2.087-4.969-1.79-.048-3.516.915-4.792 2.424-2.384 2.866-1.501 6.903.771 9.247 2.785 2.922 7.674 3.708 10.178.546 4.688-5.747 1.437-7.826.361-8.356l1.421-1.662c1.549 1.678 5.418 4.816.144 11.366-3.508 4.391-9.279 4.76-13.253 1.22-4.022-3.548-4.696-9.368-1.019-13.79 2.914-3.468 6.911-4.126 10.146-1.629 2.103 1.654 2.954 4.672.642 7.907-3.147 4.399-7.698 1.389-7.634-.08l-.859.931-1.292-1.124 4.72-5.699zm6.791-6.478c-.313 2.817 1.694 5.354 4.511 5.603 2.745.313 5.193-1.718 5.547-4.479a5.08 5.08 0 0 0-4.495-5.651c-2.785-.265-5.258 1.734-5.571 4.527m1.662.104c0-1.71 1.324-3.058 2.938-3.082 1.686-.016 3.09 1.324 3.09 2.978s-1.3 3.05-2.938 3.106a3.11 3.11 0 0 1-3.09-3.002m15.05-12.57c1.702-1.357 4.399-2.472 6.598-1.79 2.151.658 3.564 2.504 4.198 4.535.626 1.774-.321 3.949-1.726 4.64l-.747.144c.417-1.341.056-3.315-.907-4.784-.811-1.308-1.734-2.095-3.203-2.745-1.357-.602-2.874-.554-4.214 0m-3.644 8.613c.361-1.332.811-3.492 1.349-4.64.538-1.156 1.918-2.047 3.235-2.472 1.549-.53 3.428.57 4.246 2.24.642 1.397.506 3.042-.658 3.668-1.445.771-1.886 0-2.874-2.199l-1.501.698c.955 2.007 1.461 3.018-.08 3.757-.939.417-2.834-.032-2.697-1.549l-1.011.498zm-.763-3.403l-.618 1.878-.401 2.119.939 1.035 1.052-.53c-.169.923 1.011 4.367 4.23 3.123 1.686-.706 2.649-2.336 1.878-2.962.971.763 2.384 1.068 3.468.482 1.638-.859 1.943-1.83 2.248-2.97l.61-.08.241 1.308c.714-.096 2.047-.843 2.721-1.862 1.766-2.641 1.26-4.88-.177-7.858-1.79-3.54-5.595-4.816-9.263-3.363-2.44 1.011-3.628 2.32-4.439 3.837-1.204-.763-2.601-.594-3.973.257-1.573.907-2.071 2.577-1.83 4.054.321 1.533 1.999 2.512 3.307 1.533m.377-1.654c0-.409-.361-.771-.771-1.035l-1.381.072c-.128-.939.971-1.878 1.324-1.983.441-.201 1.365-.161 1.734.225l-.45 1.445c-.177.361-.273.843-.458 1.276m16.787-8.245c-.706-1.838.217-4.214 2.954-4.455 3.123-.289 5.338 3.219 6.157 6.422.843 3.259.273 7.698-2.737 8.461-.674.169-4.222.377-4.64-3.147l1.702-.217c.385.995 1.397 1.79 1.75 1.71 1.164-.337 1.421-3.315.73-5.94-.642-2.609-2.352-5.378-3.54-5.129-.45.08-.971.458-.971 2.023l-1.413.281zm23.824 3.588c.329-.474 1.076-.514 1.565-.12.498.401.546 1.124.136 1.573-.393.562-1.132.618-1.638.177-.466-.401-.53-1.14-.064-1.638m3.973 2.601c1.027 1.678 2.4 2.127 4.343 2.207 1.838.032 3.556-.899 4.656-2.207 1.437-1.862 2.175-3.973 2.232-6.654.08-2.496-1.092-5.82-2.649-7.473-1.918-2.071-4.046-2.761-6.984-2.93-3.379-.161-6.687 1.308-7.987 4.471l1.959.12c1.204-1.943 3.628-2.89 5.996-2.729 2.151.056 4.214.763 5.571 2.617 1.027 1.445 1.734 3.379 1.621 5.627-.12 3.235-1.726 6.117-4.238 6.028-1.437-.056-2.753-1.18-2.681-2.352.096-.787.441-1.445.883-1.838 1.044-.787 1.621-.722 1.662-2.119.024-2.328-1.726-4.439-5.001-4.439-3.813 0-5.868 2.24-6.462 6.044-.61 3.644.514 7.329 3.829 7.513 1.686.088 2.874-.771 3.251-1.87m-5.089-3.147c-.377-1.3-.281-2.906.425-4.206.763-1.437 2.135-2.167 4.158-2.095 1.324.064 2.432 1.019 2.432 2.272.016.883-.963.714-1.694 1.268-.57.433-.385 1.726-.506 2.272-.674-.546-1.324-.867-2.328-.827-1.132.016-2.015.498-2.48 1.316m26.571-5.955l-.289 1.429a23.14 23.14 0 0 0-3.7 2.537c-1.252 1.076-2.272 2.906-2.384 4.278-.329 3.869 2.183 3.363 2.52 2.721.249-.482.249-.851.498-1.501l1.613.233c.161.971-.506 5.33-4.864 4.511-2.167-.417-3.468-2.697-2.906-5.771.474-2.488 1.429-3.508 2.617-4.543 1.084-.955 2.834-1.999 4.254-2.826l-4.206-1.027.329-1.798 6.51 1.758zm3.989 4.92c-2.617 1.156-3.821 4.222-2.681 6.879 1.1 2.641 4.142 3.837 6.791 2.689 2.609-1.14 3.781-4.174 2.649-6.799-1.1-2.649-4.174-3.885-6.751-2.769m.747 1.573c1.477-.859 3.363-.337 4.198 1.1.835 1.501.353 3.363-1.1 4.206-1.413.915-3.355.393-4.19-1.084-.843-1.469-.361-3.355 1.1-4.23m16.488 17.845l-.144.048.425.49.056-.088z" />
    <path d="M233.906 119.328c-.875 1.252-2.328 1.975-3.452 1.308-1.365-.907-.947-1.613.393-3.636l-1.341-.939c-1.244 1.79-1.822 2.793-3.235 1.79-.915-.546-1.493-2.44-.096-3.066l-.987-.602c1.349-.393 3.411-1.116 4.712-1.252 1.196-.112 2.681.626 3.717 1.541 1.252 1.092 1.276 3.283.297 4.856m-2.52-10.331c.441.305.899 1.116.73 1.621-.498.056-1.027.313-1.477.345-.409.088-.859.233-1.308.273.353-.185.45-.674.514-1.236l-.763-1.156c.65-.618 2.023-.112 2.296.136m8.131 3.805c-2.087-1.573-3.837-1.959-5.523-1.926 0-1.381-.875-2.496-2.28-3.291-1.573-.867-3.251-.458-4.375.562-1.1 1.011-1.068 2.986.409 3.604-.522.088-1.469.498-2.135.69-.562.169-1.276.265-1.838.498l-.337 1.3.979.714c-.939.297-3.195 3.066-.433 5.234 1.373 1.116 3.259 1.084 3.42.128-.201 1.244.337 2.553 1.389 3.243 1.493.947 2.448.714 3.54.458l-.048-.048c1.357-.329 2.801-1.662 3.612-3.243.714-1.373.771-2.288.602-3.869-.201-1.517-1.413-2.617-2.529-3.516 1.991.787 4.704 2.328 5.21 4.519.546 2.248-.169 4.23-1.565 5.86-1.22 1.413-3.524 1.646-4.808.803l-.016-.016-.217.136c-1.469.104-2.729 1.164-3.155 2.015-1.052 1.83-.658 3.877.811 5.298 2.151 2.015 5.202 1.541 6.871-.947l-1.268-1.236c-.955 1.236-2.761 1.525-3.765.57-1.068-1.011-1.068-2.769-.153-3.773l2.304.088.642.08c3.082.193 4.784-1.453 6.526-4.19 2.119-3.355 1.244-7.289-1.87-9.737m10.74 9.393c2.448-.153 4.383.819 6.004 2.858 1.284 1.686 1.967 3.692 1.581 5.635-.289 1.702-1.437 3.436-2.882 4.599-2.826 2.32-6.614 2.352-9.239-.859-1.011-1.124-1.87-2.392-2.143-3.741-.249-1.252-.153-2.488.899-3.444 1.164-1.132 2.183-.546 3.155.634l3.347 4.134c2.159-1.758 2.28-4.359.666-6.614-1.204-1.613-3.267-3.508-4.84-2.432-.658.506-.618 1.132-.144 2.167-1.477-.714-2.537-.61-4.054.546-3.644 2.785-2.93 7.272.305 11.182 3.468 4.27 9.111 3.789 13.044.538 1.991-1.678 3.379-4.046 3.684-6.51.337-2.424-.361-4.832-2.055-6.919-2.248-2.705-5.458-4.07-8.493-3.251zm.498 7.465l-2.456-3.187.979-.698.048-1.027c.835.546 1.991 2.432 1.959 3.548-.024.65-.104.827-.53 1.365m-143.628 40.88c-.056.57-.169 1.019-.45 1.18-.233.177-.562.249-1.011.217-.433 0-.787-.169-.971-.353-.265-.265-.361-.658-.289-1.268l.088-1.244 2.729.161-.088 1.3zm-6.141-.257c-.008.674-.008 1.164.064 1.469l.425.843.674.755c.337.233.698.441 1.228.61.466.104 1.052.233 1.67.249.859.072 1.581-.024 2.223-.249.57-.233.987-.578 1.236-1.003.73.811 1.75 1.244 2.994 1.324 1.284.088 2.344-.217 3.026-.835.546-.49.883-1.268.947-2.36l.353-4.415-14.497-.843-.353 4.447zm11.334.321c-.024.409-.096.722-.193.867l-.458.417-.755.12-.899-.345c-.209-.209-.297-.57-.281-1.052l.08-1.164 2.545.153-.048 1.011zm-12.2 8.252l1.894.377v3.106l-1.894.345v3.098l14.505-3.315v-3.219l-14.497-3.476-.016 3.09zm4.88 2.906v-1.959l5.29.995zm9.93 4.969l.273 2.922-7.441 3.997 7.714-.771.313 3.034-14.497 1.349-.241-2.986 7.256-3.893-7.537.698-.265-2.994zm-11.824 16.672l-.722-2.946 14.079-3.46.738 2.906-4.624 1.156 5.298 1.597.875 3.588-6.141-2.079-7.891 5.916-.883-3.628 5.065-3.628-1.397-.538zm9.761 20.293c1.011.369 2.063.433 3.283.233a13.95 13.95 0 0 0 3.733-1.284c1.341-.706 2.424-1.461 3.267-2.36.875-.883 1.381-1.83 1.533-2.793.177-.995.048-1.91-.345-2.729-.201-.45-.514-.827-.859-1.164-.353-.321-.811-.57-1.228-.795-.506-.177-1.019-.329-1.726-.329-.722-.088-1.501 0-2.392.209a13.48 13.48 0 0 0-2.809 1.084c-2.047 1.052-3.54 2.312-4.367 3.725-.835 1.453-.923 2.834-.273 4.246.506.955 1.244 1.605 2.175 1.959m1.22-5.202c.506-.698 1.389-1.349 2.601-1.959.771-.401 1.565-.666 2.167-.779.642-.136 1.14-.136 1.533.016.425.12.658.353.835.65l.048.859-.401.899a9.56 9.56 0 0 1-.995.899c-.385.297-.891.602-1.493.875-.811.377-1.541.658-2.191.819-.642.112-1.148.112-1.493-.048l-.827-.682c-.241-.45-.136-.971.209-1.549m12.842 2.069l3.981 6.197-3.018 1.943-2.344-3.604-1.943 1.284 1.862 2.89-2.914 1.951-1.862-2.962-4.294 2.874-1.678-2.609zm9.881 20.292l-2.119-1.983c.458-.578.722-1.132.787-1.597.064-.514-.048-.923-.361-1.204-.425-.393-.979-.433-1.646-.225-.755.241-1.549.915-2.593 2.007a7.89 7.89 0 0 0-1.389 1.83c-.265.482-.377.923-.377 1.284l.482.947c.313.377.763.49 1.212.377.506-.112 1.044-.458 1.597-.979l2.191 2.031c-.674.618-1.244 1.092-1.846 1.397-.49.385-1.116.586-1.862.795-.722.169-1.341.249-2.047.064-.602-.128-1.132-.417-1.686-.899a4.99 4.99 0 0 1-1.116-1.782 4.2 4.2 0 0 1-.169-2.087c.144-.73.337-1.429.747-2.199a11.96 11.96 0 0 1 2.087-2.97c.795-.835 1.605-1.541 2.424-2.087.859-.578 1.605-.939 2.384-1.14.755-.193 1.429-.249 2.047-.153.763.153 1.437.45 2.007.987.458.498.811 1.068 1.076 1.702.201.65.241 1.332.136 2.047a7.12 7.12 0 0 1-.803 2.127c-.265.514-.65 1.068-1.156 1.678m1.896 13.028l-6.149-4.913 9.006-11.503 6.052 4.816-2.183 2.713-3.628-2.946-1.284 1.597 3.131 2.512-2.087 2.641-3.074-2.545-1.421 1.83 3.845 3.066zm10.997-4.543l3.925-3.452 2.946 1.822-7.738 6.093-2.777 4.64-2.617-1.629 2.705-4.599 1.774-9.745 2.962 1.79zm8.982 14.633l-6.839-2.721 5.193-13.662 2.914 1.116-3.893 10.114 3.957 1.533zm9.889 1.935c.931-.546 1.686-1.349 2.312-2.352a12.29 12.29 0 0 0 1.421-3.757c.409-1.413.506-2.753.361-4.03-.128-1.172-.498-2.215-1.108-2.954-.642-.771-1.389-1.284-2.288-1.525-.474-.088-.931-.128-1.437-.072-.466.072-.931.201-1.389.45-.466.193-.907.546-1.413 1.108-.466.498-.915 1.164-1.324 1.983-.417.787-.755 1.718-1.011 2.842-.586 2.24-.586 4.19-.024 5.796.53 1.581 1.565 2.545 3.01 2.874a3.89 3.89 0 0 0 2.898-.361m-3.098-4.278c-.193-.867-.136-1.951.177-3.283.233-.891.45-1.646.803-2.159.313-.586.626-.995 1.019-1.212l1.052-.185.682.538.377.931a4.44 4.44 0 0 1 .032 1.252c-.032.554-.12 1.1-.281 1.758-.225.883-.498 1.621-.811 2.175-.313.618-.642.971-1.003 1.18l-1.035.169c-.514-.128-.835-.53-1.011-1.156m9.519-8.616l2.866.265 2.488 8.123.763-7.826 2.954.297-1.429 14.617-2.946-.313-2.44-7.931-.722 7.65-2.986-.281zm28.079 5.258h-.088c0 .867-.554 1.533-1.212 1.533s-1.204-.674-1.204-1.533c0-.907.57-1.605 1.204-1.605.658 0 1.212.698 1.212 1.605h.177c0-.971-.602-1.774-1.389-1.782-.771 0-1.381.811-1.381 1.782 0 .931.61 1.702 1.381 1.71.787 0 1.389-.771 1.389-1.71z" />
    <path d="M199.896 269.233a18.11 18.11 0 0 0 2.545 2.063c-2.135 1.236-4.134.546-2.545-2.063m6.02-2.713c-.377 1.429-1.011 2.577-1.758 3.411-.899-.49-1.951-1.236-2.938-2.264 1.421-1.252 3.179-1.485 4.696-1.148m2.232 1.084c.682.578.955 1.341.618 1.959-.401.698-1.212 1.1-2.24 1.027a10.65 10.65 0 0 0 1.621-2.994m-6.06-7.762c-.722.128-1.421-.466-1.605-1.349-.169-.923.281-1.742.955-1.886.73-.136 1.469.498 1.597 1.373.225.875-.209 1.718-.947 1.862m.313-8.212c3.564.273 6.606-.987 8.758 14.786l2.288-.193s-.771-18.791-11.623-17.041c-10.845 1.726-7.345 13.574-5.033 16.632a27.33 27.33 0 0 0 1.557 1.862c-2.922 5.474 1.902 8.091 4.776 6.117a14.96 14.96 0 0 0 1.621-1.268c2.047.803 4.03.698 5.683-1.172 1.421-1.694.73-4.254-1.646-6.117.144-.971 0-2.095-.08-3.275-.353-5.667-4.431-8.565-7.385-7.899l-.313.048c-1.838.377-2.946 2.504-2.48 4.776.417 2.272 2.272 3.829 4.062 3.468 1.517-.305 2.512-2.087 2.529-3.909.674.722 1.894 2.504 1.589 5.651-2.167-.401-5.322.329-7.048 1.902a23.78 23.78 0 0 1-1.613-2.304c-4.559-7.064.851-12.305 4.367-12.049m14.665 6.865c.321-.201.955.153 1.365.859.401.642.506 1.405.144 1.597-.345.201-.931-.12-1.373-.811-.425-.69-.506-1.429-.144-1.638m10.475-1.525c-.474-6.646-5.868-7.634-5.868-7.634l-.064 2.561c1.196 0 2.135.923 3.163 3.227 1.068 2.288-.249 6.381-2.24.907-2.023-5.579-7.626-4.937-8.509-1.662-.698 2.593.273 4.616 1.1 5.771l.458.971c1.172 1.862 3.114 2.761 4.399 2.007 1.236-.771 1.268-2.978.153-4.808-1.076-1.75-2.842-2.641-4.054-2.159-.506-1.822 2.384-2.946 3.708-.859.907 1.525 1.967 5.691 4.728 5.868 3.227.209 3.01-4.174 3.01-4.174m20.67-21.279c.249-.281 1.108.016 1.918.827.747.698 1.18 1.509.907 1.862-.289.281-1.148-.064-1.91-.795-.795-.706-1.204-1.605-.907-1.894m-3.981 5.394c.562-.57 1.549-.506 2.304.201.747.682.915 1.734.433 2.264-.57.586-1.613.482-2.32-.153-.747-.722-.939-1.75-.425-2.312m10.259-9.352c-2.826-2.617-6.55-3.203-8.324-1.244-.674.722-.955 1.694-.907 2.753h-.08c-1.357.209-2.585.722-3.54 1.766-2.256 2.496-1.782 6.606 1.068 9.255.554.506 1.164.923 1.806 1.252l.08.064c1.485.795 3.179.69 4.11-.393 1.22-1.3.803-3.644-.883-5.266-1.613-1.453-3.676-1.758-4.969-.787h-.112c.016-.875.345-1.67.931-2.28.482-.578 1.164-.947 1.918-1.06.289 1.06 1.027 2.232 2.191 3.275 2.015 1.975 4.559 2.585 5.603 1.453 1.011-1.124.161-3.596-1.886-5.539-1.244-1.116-2.585-1.822-3.717-1.926l.048-.096.313-.658c.883-.995 3.299-.273 5.314 1.67 1.308 1.164 2.127 2.545 2.368 3.612l1.365-1.469c-.401-1.509-1.276-3.058-2.681-4.383" />
    <path d="M230.824 242.005c.674-.522.69-1.67.032-2.585-.658-.923-1.75-1.236-2.48-.73-.658.514-.674 1.686-.032 2.633.65.875 1.782 1.18 2.48.682m4.158 10.532l-1.413 1.365 1.549 2.023 8.276-5.796-6.943-10.018-1.718 1.316 5.458 7.65-2.384 1.726-.144.177c.136-.899-.153-2.175-.803-3.058-1.076-1.509-2.938-2.079-4.054-1.22l-.466.506-.859-.265 1.06-.963-1.453-2.063-5.499 4.005 6.879 9.833 1.726-1.236-5.226-7.634.53-.506 3.42 4.896 1.26-1.003.546-.498c-1.686-1.991-1.076-3.492.128-2.601 1.22.867.45 3.058.45 3.058l-.329.305zm24.948-25.277c-1.196 1.726-2.007 1.1-2.537.498l1.878-2.882s1.838.666.658 2.384m-3.652-2.721l-2.015-1.357.634-.931 2.015 1.341-.634.955zm6.687-5.057c-3.476-1.991-4.88 2.175-4.88 2.175l-2.159-1.196 1.172-1.991-2.191-1.236-3.917 6.678 4.102 2.464c-1.662 3.283 4.038 6.052 6.727 2.48 3.042-4.078-1.469-5.94-1.469-5.94.153-.233.771-2.151 1.943-1.493 1.156.618-.233 1.469-.233 1.469l1.718 1.75c1.629-.811 2.641-3.179-.803-5.161m2.824-12.434c.04-.393.738-.618 1.509-.538.763.088 1.381.482 1.365.867-.072.409-.763.706-1.509.586-.803-.048-1.421-.482-1.357-.915m3.829-1.814l2.328.514 2.103-7.858-11.719-2.946-.578 2.207 9.119 2.336-.819 2.553c-.747-.498-2.721-1.18-2.721-1.18-5.683-1.838-8.332 2.529-6.911 5.972.658 1.597 3.139 2.994 6.47 3.339 2.256.209 3.917-.771 4.142-2.312.161-1.581-1.22-3.098-3.5-3.307-2.071-.193-3.291.955-3.733 2.352-1.782-.747-1.83-4.022 1.132-4.174 3.612-.136 4.696 2.504 4.696 2.504m-10.155-20.894c-1.164-.032-2.087.642-2.087 1.541-.048.835.835 1.581 1.975 1.581 1.132.08 2.055-.618 2.079-1.469.024-.899-.859-1.629-1.967-1.654m10.065 2.835c1.429-.409 2.633 1.565 2.633 1.565l.08.49.153 1.894h2.553l.594-10.09-12.097-.706-.032 2.199 9.327.353-.104 3.002v.209c-.53-.65-1.726-1.204-2.842-1.276-1.878-.056-3.42 1.076-3.476 2.496l.096.682-.722.49-.08-1.381-2.569-.169-.241 6.839 11.904.642.12-2.127-9.159-.602-.128-.747 5.98.289-.032-1.573-.08-.722c-2.537.048-3.347-1.332-1.894-1.782m1.493-10.362l.016-3.444s1.951-.425 1.846 1.629c-.128 2.055-1.156 1.991-1.862 1.814m-5.129-2.207l.04-1.14 2.384.032.048 1.212-2.472-.096zm5.033-3.476c-.024-.265-.506-2.24.803-2.32 1.308-.064.578 1.365.578 1.365l2.424.578c.915-1.565.546-4.158-3.476-3.941-3.973.161-2.874 4.431-2.874 4.431l-2.52.193-.04-2.32-2.464.136.056 1.943c-1.806.056-3.387-.161-3.564-1.236-.193-1.228 1.116-1.918 2.978-2.472 1.862-.538 11.96-2.344 11.96-2.344l-.289-2.055c-13.919 2.135-17.491 3.147-17.435 7.24.016 3.508 5.025 3.163 6.454 3.066l.024 3.548 4.768-.064c.353 3.684 6.566 2.938 6.975-1.541.433-5.121-4.359-4.206-4.359-4.206m-68.325 21.913s.554.305 1.252.313c.658.008 1.493-.321 1.991-1.389l-.217-.104-.209.128s.747 1.204 2.272 1.212c.369 0 .787-.08 1.236-.249l-.177-.458-1.06.217a2.2 2.2 0 0 1-1.397-.498l-.466-.49-.425.024c-.45.915-1.027 1.1-1.557 1.116-.554 0-1.011-.257-1.019-.249l-.233.425zM171.97 161.51l.466.514.45 1.011-.45.65.12.209-.112-.217-.193.048-.546-.506c-.169-.337-.273-.803-.273-1.236l.193-.867.538-.313.698.209c1.228.634 1.71 1.268 2.304 1.798.586.546 1.3.931 2.753.931l.65-.024.177-.393s-.843-1.068-1.461-2.32l-.217.104-.153.193s1.87 1.485 5.121 1.485l.947-.04.04-.474-.161-.064c-.345-.161-1.156-.642-1.943-1.967l-.209.12-.032.241s1.381.217 2.874.217c1.276-.008 2.633-.136 3.355-.827l-.345-.345c-.482.498-1.782.69-3.018.682-1.445 0-2.801-.209-2.801-.209l-.249.361c1.116 1.894 2.352 2.248 2.4 2.256l.064-.233-.024-.241-.907.032c-1.549 0-2.761-.345-3.58-.69-.819-.353-1.236-.69-1.236-.682l-.369.297c.65 1.308 1.509 2.4 1.517 2.408l.193-.153-.016-.241-.618.016c-1.381-.008-1.878-.313-2.424-.803s-1.108-1.204-2.4-1.87l-.931-.265c-.433 0-.771.233-.955.554-.193.321-.265.714-.265 1.116.024.987.385 2.159 1.308 2.232l.409-.104h.008c.474-.273.698-.682.69-1.084-.024-.995-1.076-1.87-1.084-1.894l-.321.361zm10.595 3.058l.674.345c.377.249.827.658 1.116 1.252l.45-.04s.289-1.011.289-2.135c0-.843-.161-1.774-.787-2.4l-.361.321s2.248 2.93 4.214 3.411l.112-.474c-.819-.177-1.83-.987-2.609-1.758-.787-.771-1.341-1.477-1.341-1.477l-.193.153-.169.169c.482.474.642 1.276.642 2.063 0 1.044-.281 1.999-.273 1.999l.233.064.217-.104c-.69-1.389-2.047-1.83-2.071-1.838l-.153.458zm-7.673 10.411h.49v2.36h-.49z" />
    <path d="M174.9 175.036s.61 2.737 2.392 3.492l.088-.225-.096.217.474.136.265-.104.088-.249c-.016-.337-.257-.714-.474-1.276-.225-.546-.45-1.196-.441-1.838l.297-1.18-.417-.241c-.273.466-.369.947-.369 1.421 0 .747.241 1.453.474 2.023l.45 1.092h.12l-.088-.08-.032.08h.12l-.088-.08.096.088v-.136l-.096.048.096.088v-.136l-.273-.096h-.008c-.714-.281-1.252-1.06-1.605-1.79s-.506-1.373-.506-1.373l-.474.112zm1.107-4.423l.987 1.341c.506.714 1.052 1.565 1.132 1.902l.458.024s.506-1.276.506-2.785c0-.466-.048-.963-.185-1.453l-.233.064-.177.161s1.1 1.244 2.625 1.365h.016l.53.048.032.016.032-.056-.048.032.016.024.032-.056-.048.032.12-.088h-.153l.032.088.12-.088h-.064l-.08-.056-.016.056h.088l-.08-.056-.104.088.12.209h.241s.016-2.721-1.003-4.527l-.209.12-.193.153 3.323 4.479.433-.04s.45-1.132.45-2.464c0-.658-.112-1.381-.458-2.039l-.425.225c.297.562.401 1.204.401 1.814 0 1.22-.417 2.28-.417 2.288l.233.088.201-.128c-.987-1.517-3.347-4.511-3.347-4.519l-.401.273c.458.803.698 1.886.819 2.753.12.875.12 1.525.12 1.533l.361.209.144-.104.193-.345-.321-.361-.674-.072v.241l.016-.241c-.634-.048-1.212-.345-1.638-.642-.417-.289-.658-.57-.666-.57l-.417.225a4.97 4.97 0 0 1 .169 1.324c0 1.397-.474 2.601-.474 2.601l.225.088.233-.064c-.281-.971-2.199-3.387-2.207-3.411l-.385.297zm24.876 23.326c0 .048.441 1.332 2.304 1.324l.875-.08h.024l.024-.016s1.084-.433 1.854-.867l-.12-.209-.233.064s.313 1.084 1.509 1.092c.329 0 .722-.088 1.18-.289h.008s.875-.45 2.079-1.324l-.289-.393c-1.164.859-2.007 1.276-2.007 1.276l.104.217-.096-.217c-.409.185-.73.249-.987.249-.433 0-.674-.177-.843-.369l-.161-.257-.048-.104-.088-.297-.265.153c-.722.409-1.798.835-1.798.835l.088.225-.04-.241-.795.072c-.819 0-1.26-.265-1.525-.506l-.265-.337-.056-.128-.466.136z" />
  </g>
  <path d="M201.87 192.374s1.943 1.068 2.906-.971c0 0 1.076 1.726 3.219.763" class="E" />
  <path d="M201.758 192.583a2.93 2.93 0 0 0 1.244.313c.666.008 1.493-.321 1.991-1.389l-.217-.104-.209.128s.722 1.156 2.175 1.164c.401 0 .859-.096 1.349-.313l-.193-.441c-.45.201-.827.273-1.156.273-.586 0-1.027-.233-1.324-.474l-.441-.466-.425.024c-.45.915-1.027 1.1-1.549 1.116-.546 0-1.011-.257-1.011-.249l-.233.425z" class="D" />
  <path d="M195.208 194.622s0 4.399 6.02 9.03c0 0 1.076 7.947-1.71 6.542-2.793-1.389-5.82-.634-6.767 4.953 0 0 8.163-.971 10.202-.233 0 0 .313-1.389 3.227.233 3.114 1.605 6.117-2.793 2.801-4.198 0 0-.875-5.258 1.373-6.325 0 0 1.838.634 2.705-3.235 0 0 .209.425-2.376.104 0 0-1.702-.104-2.256.971 0 0 1.405-6.012 3.765-7.842 2.256-1.814 4.84-8.059 4.937-10.411l-21.914 10.411z" class="E" />
  <path d="M195.208 194.622h-.241c0 .056.032 4.543 6.117 9.223l.153-.193-.241.032s.201 1.501.201 3.066c0 .867-.064 1.758-.249 2.4-.193.658-.466.979-.819.971l-.498-.136c-.803-.393-1.621-.634-2.424-.634-2.135 0-4.005 1.662-4.688 5.755l.273.281s4.27-.506 7.377-.506c1.18 0 2.215.08 2.713.265l.321-.169.016-.032c.056-.096.169-.321.698-.329.425 0 1.1.169 2.159.755.514.265 1.019.377 1.493.377 1.726-.016 3.098-1.445 3.114-2.898 0-.835-.506-1.662-1.597-2.119l-.096.225.241-.04s-.161-.987-.161-2.191c-.016-1.549.313-3.395 1.397-3.877l-.104-.217-.08.233.377.048c.674.016 1.999-.498 2.641-3.46l-.233-.056-.233.088.169-.064h-.185l.016.064.169-.064h-.024l-.12-.104-.04.104h.161l-.12-.104.056.048-.048-.064v.016l.048.048-.048-.064s-.161.08-.634.072c-.337 0-.827-.024-1.517-.112h-.161c-.425 0-1.782.04-2.352 1.1l.217.104.241.056s.345-1.485.987-3.203c.634-1.718 1.589-3.652 2.689-4.503 2.36-1.935 4.905-8.123 5.025-10.596l-.345-.233-21.914 10.411-.136.217h.241l.104.217 21.906-10.419-.104-.217-.241-.016c-.064 2.24-2.681 8.533-4.832 10.234-2.488 1.959-3.837 7.963-3.853 7.979l.45.169c.353-.747 1.533-.859 1.91-.843h.112l.016-.241-.032.241c.706.088 1.212.12 1.581.12l.787-.096.281-.345-.024-.112-.466.032c-.658 2.858-1.734 3.066-2.167 3.082l-.217-.024h-.185c-1.437.722-1.67 2.745-1.686 4.327 0 1.244.169 2.264.169 2.272l.153.185c.947.409 1.284 1.027 1.284 1.67 0 1.14-1.172 2.4-2.625 2.408-.393 0-.827-.096-1.268-.321-1.084-.602-1.838-.811-2.384-.811-.947-.008-1.188.698-1.188.747l.241.056.088-.233c-.634-.225-1.67-.289-2.882-.289-3.163 0-7.425.506-7.433.506l.032.241.233.04c.698-3.997 2.376-5.346 4.214-5.354.714 0 1.461.209 2.215.578l.706.193c.698-.008 1.092-.618 1.284-1.324.209-.722.273-1.646.273-2.537 0-1.605-.209-3.123-.209-3.131l-.088-.161c-2.978-2.296-4.455-4.511-5.193-6.157-.361-.819-.546-1.501-.634-1.967-.096-.466-.096-.714-.096-.714h-.241l.104.217-.104-.217z" class="D" />
  <path d="M195.208 194.622s0 4.399 6.02 9.03c0 0 1.076 7.947-1.71 6.542-2.793-1.389-5.82-.634-6.767 4.953 0 0 8.163-.971 10.202-.233 0 0 .313-1.389 3.227.233 3.114 1.605 6.117-2.793 2.801-4.198 0 0-.875-5.258 1.373-6.325 0 0 1.838.634 2.705-3.235 0 0 .209.425-2.376.104 0 0-1.702-.104-2.256.971 0 0 1.405-6.012 3.765-7.842 2.256-1.814 4.84-8.059 4.937-10.411" class="E" />
  <path d="M207.562 215.741a3.17 3.17 0 0 1-1.493-.377c-1.573-.875-2.288-.811-2.577-.682l-.305.289-.313.169c-1.951-.714-10.01.241-10.09.249l-.273-.281c.474-2.793 1.477-4.591 2.994-5.362 1.18-.602 2.601-.53 4.118.233l.835.032c1.019-.73.755-4.656.546-6.237-5.964-4.632-6.028-8.966-6.028-9.151h.482s.088 4.335 5.924 8.83l.088.161c.08.586.73 5.747-.73 6.791-.353.265-.803.273-1.324 0-.947-.466-2.36-.899-3.684-.233-1.284.658-2.207 2.28-2.681 4.696 1.501-.169 7.674-.811 9.769-.249l.458-.377c.65-.297 1.678-.064 3.026.69.899.466 1.91.409 2.737-.153.755-.514 1.212-1.357 1.14-2.111-.064-.65-.514-1.172-1.292-1.509l-.144-.185c-.032-.217-.875-5.45 1.509-6.582h.185s.377.104.827-.161c.433-.249 1.011-.867 1.437-2.408-.377.048-.987.032-2.047-.096-.008.016-1.541-.072-2.015.835l-.45-.169c.056-.249 1.461-6.109 3.853-7.971 2.215-1.79 4.744-7.947 4.84-10.234l.49.016c-.096 2.432-2.673 8.701-5.025 10.596-1.734 1.349-2.97 5.113-3.452 6.831.771-.458 1.75-.417 1.798-.393 1.83.217 2.135.056 2.167.04l-.032.04.441-.056v.281c-.385 1.621-.987 2.665-1.798 3.114-.474.265-.899.233-1.092.201-1.79.971-1.292 5.121-1.188 5.9.867.401 1.389 1.06 1.461 1.854.096.939-.433 1.943-1.349 2.561-.538.369-1.14.546-1.75.546" class="D" />
  <path d="M198.997 214.497s.313-2.143 2.36-2.793" class="E" />
  <path d="M199.238 214.537l-.474-.08c.008-.088.361-2.304 2.529-2.994l.144.466c-1.87.602-2.183 2.529-2.199 2.609" class="D" />
  <path d="M195.609 214.922s.522-2.569 2.464-3.219" class="E" />
  <path d="M195.85 214.97l-.466-.096c.016-.104.57-2.713 2.617-3.395l.153.458c-1.782.602-2.304 3.018-2.304 3.042" class="D" />
  <path d="M152.681 185.182c5.049-2.585 9.135 4.616 9.135 4.616l5.675 8.268s-.955 11.061-9.231-.417c0 0-.859 3.853-4.929-.329l-.65-12.129z" class="E" />
  <path d="M158.46 197.495c2.689 3.725 4.913 5.466 6.454 5.057 1.814-.498 2.272-3.853 2.328-4.423l-5.619-8.204c-.056-.088-3.933-6.839-8.685-4.608l.634 11.88c1.172 1.196 2.191 1.814 2.97 1.814l.361-.048c.859-.249 1.132-1.381 1.132-1.389l.433-.088zm5.988 5.603c-1.621 0-3.676-1.654-6.101-4.945-.193.45-.586 1.076-1.308 1.284-1.052.265-2.328-.361-3.885-1.959l-.056-.153-.65-12.137.136-.225c5.177-2.657 9.408 4.624 9.456 4.712l5.659 8.252.032.161c-.008.177-.393 4.302-2.689 4.937l-.594.08z" class="D" />
  <path d="M146.877 191.732s-2.472.859.313 1.943c2.159.843 9.022-1.084 6.454-3.123z" class="E" />
  <path d="M146.877 191.732l-.08-.233-.546.265c-.273.169-.61.417-.626.843.024.498.466.875 1.485 1.284.401.161.907.217 1.485.217 1.172 0 2.593-.273 3.749-.722 1.14-.458 2.087-1.044 2.119-1.918 0-.401-.233-.779-.658-1.116l-.193-.048-6.767 1.18h-.04l.08.241.04.241 6.767-1.18-.04-.241-.153.193.474.738c.032.433-.698 1.052-1.806 1.469a10.64 10.64 0 0 1-3.572.69c-.53 0-.995-.064-1.308-.193-.995-.377-1.196-.722-1.172-.827l.393-.433.458-.217-.08-.233.04.241-.04-.241z" class="D" />
  <path d="M146.773 189.573s-2.264 1.18.538 2.36c2.472.867 8.91-1.605 6.125-3.339l-6.654.971z" class="E" />
  <path d="M146.773 189.573l-.112-.217s-.947.433-.995 1.292c.008.546.458 1.052 1.549 1.509h.016c.385.136.843.201 1.341.201 1.18 0 2.593-.329 3.725-.827 1.124-.506 2.031-1.132 2.063-1.991 0-.433-.281-.827-.795-1.14l-.161-.032-6.662.971-.08.024.112.217.032.241 6.654-.971-.032-.241-.128.209c.441.281.57.53.57.73.032.425-.69 1.084-1.774 1.541-1.068.474-2.44.787-3.532.787-.458 0-.859-.056-1.172-.169l-.08.233.096-.217c-1.052-.45-1.26-.843-1.252-1.068l.353-.586.385-.273-.112-.217.032.241-.032-.241z" class="D" />
  <path d="M146.564 187.325s-2.472.859.217 2.248c2.256 1.18 9.239-.642 6.55-2.569l-6.767.313z" class="E" />
  <path d="M146.564 187.325l-.08-.233s-1.132.313-1.204 1.22c.016.506.417.971 1.389 1.477.554.289 1.308.401 2.135.401 1.164 0 2.464-.233 3.5-.618 1.019-.393 1.838-.883 1.878-1.678 0-.393-.257-.763-.706-1.084l-.153-.048-6.767.313-.064.016.08.233v.241l6.783-.313v-.241l-.153.193.506.69c.032.345-.578.875-1.557 1.228a10.16 10.16 0 0 1-3.331.586c-.787 0-1.477-.112-1.91-.345-.931-.474-1.14-.867-1.124-1.044l.409-.53.466-.233-.08-.233v.241-.241z" class="D" />
  <path d="M146.564 187.325s-2.472.859.217 2.248c2.256 1.18 9.239-.642 6.55-2.569l.104 1.597c2.785 1.734-3.652 4.206-6.125 3.339-2.793-1.18-.538-2.36-.538-2.36l-.217-2.248z" class="E" />
  <path d="M153.612 187.63l.032.474zm-6.831 2.215l-.634.819c.016.345.458.714 1.244 1.044 1.726.618 5.796-.61 6.414-1.902.056-.12.217-.458-.305-.859-1.485 1.068-5.081 1.638-6.727.899m1.758 2.504c-.49 0-.939-.056-1.308-.193-1.035-.433-1.541-.915-1.565-1.477-.016-.49.345-.875.642-1.1-.722-.433-1.06-.875-1.027-1.332.056-.747 1.084-1.124 1.196-1.164l.161.458-.875.738c-.016.177.12.554 1.116 1.068 1.485.787 4.993.153 6.309-.771l-.104-1.565.385-.209c.931.674.738 1.308.538 1.629l-.136.185c.634.538.514 1.092.377 1.397-.586 1.228-3.564 2.328-5.715 2.328" class="D" />
  <path d="M146.564 184.748s-2.681 1.18 0 2.577c2.577 1.509 9.568-.104 6.55-2.264z" class="E" />
  <path d="M146.564 184.748l-.096-.217s-1.276.49-1.341 1.509c0 .53.401 1.027 1.324 1.501l.112-.217-.12.209c.763.441 1.822.618 2.914.618s2.256-.193 3.147-.522c.875-.329 1.565-.795 1.597-1.517 0-.45-.297-.859-.843-1.252l-.128-.048-6.558-.313-.104.024.096.217-.016.241 6.55.313.016-.241-.136.201c.49.353.642.65.634.859.024.321-.441.763-1.276 1.06-.819.305-1.918.49-2.978.49-1.035 0-2.031-.177-2.673-.554h-.008c-.875-.458-1.068-.843-1.06-1.084l.498-.738.546-.329-.096-.217-.016.241.016-.241z" class="D" />
  <path d="M146.564 184.588s-2.689 1.349 0 2.737c2.577 1.509 9.568-.104 6.55-2.264l-6.542-.474z" class="E" />
  <path d="M149.374 188.144c-1.132 0-2.215-.193-2.93-.61-.875-.45-1.316-.971-1.316-1.541.008-.947 1.268-1.597 1.324-1.621l.217.433c-.289.153-1.06.65-1.06 1.196 0 .466.578.867 1.06 1.116 1.822 1.068 6.093.45 6.839-.69.08-.128.345-.53-.538-1.164l.281-.385c1.092.779.891 1.469.666 1.814-.594.915-2.633 1.461-4.543 1.461" class="D" />
  <path d="M154.92 180.871c-.835-.329-1.341.425-1.589 1.172v.249c0 .249 0 .506.417.506l-.417.169-.249.08c-.417.169-.755.249-1.084.249-.506.088-1.092.169-1.589.169-.755 0-1.421-.08-1.918-.249-.755-.169-1.164-.417-1.164-.417h-.249v-.088c-.835-.329-1.252-.755-1.252-.755l.755.249.417-.249v-1.413l-.249-.417c-1.003-1.252-2.93-.329-3.347.915-.249.915.249 1.918.923 2.504.578.417 1.164.755 1.838.995l.249.088h.169l.755.249c1.838.498 3.925.755 5.763.169h.08l.169-.088h.088l.337-.08c.835-.249 1.589-.755 2.087-1.421.674-.915.169-2.248-.915-2.585" class="E" />
  <path d="M146.484 184.379l.088.169.666.088-.755-.249zm8.525-3.757l-1.003.088c-.329.08-.586.417-.666.827l-.249.506v.169l.169.586h-.169l-.249.08c-2.344.666-4.174.249-4.929-.08l-.586-.169-.249-.169-.249-.08.169-.169v-.498l-.417.249h-.417l-.169-.161-.169.161-.169.169.249.249c.249.169.666.417 1.252.666.08 0 .586.329 1.581.498.506.088 1.003.169 1.589.169.835 0 1.758-.169 2.842-.417l.915-.249-.169-.498h-.329v-.417c.08-.498.417-.835.666-.995h.586c.498.088.835.498 1.003.915.08.498 0 .915-.249 1.252-.417.586-1.003.995-1.918 1.341-.417.169-.835.329-1.252.329h-.169c-1.758.417-3.508.08-4.84-.329h-.169l-.755-.249c-.755-.249-1.421-.586-2.007-1.084-.586-.417-1.084-1.341-.835-2.167.169-.666.835-1.164 1.501-1.332h.337c.329 0 .755.08 1.084.498.249.249.417.755.417 1.164v-1.421l-.088-.08c-.417-.506-1.084-.755-1.838-.674-.835.249-1.67.915-1.918 1.662-.329 1.092.337 2.175 1.003 2.761.586.417 1.252.755 1.838.915l.249.08.329.169.666.169c1.003.337 2.256.586 3.676.586a10.04 10.04 0 0 0 2.167-.249h.169l.088-.088.329-.088.249-.08.169-.088c.835-.329 1.421-.835 1.918-1.421.329-.498.417-1.084.249-1.67-.169-.666-.666-1.084-1.252-1.332" class="D" />
  <path d="M153.644 185.391s.763 0 1.284-.321c.433-.433-.53 1.605-1.18 1.501-.747-.096-.313-1.172-.104-1.172" class="E" />
  <path d="M153.708 185.631l-.12.546.201.144.201-.08.61-.763zm.096 1.18h-.096c-.401-.056-.65-.369-.618-.811l.562-.843s.69-.008 1.164-.289l.353-.056.056.498c-.096.257-.73 1.509-1.421 1.509" class="D" />
  <path d="M153.644 187.221s.65 0 1.196-.433c.417-.321-.546 1.718-1.196 1.605-.642-.12-.209-1.172 0-1.172" class="E" />
  <path d="M153.708 187.461l-.144.578.128.12.201-.096.61-.795zm0 1.18h-.096c-.377-.08-.578-.377-.538-.803l.578-.859s.57-.016 1.044-.385l.385-.032-.016.674s-.634 1.405-1.357 1.405" class="D" />
  <path d="M153.644 188.834s.65.104 1.196-.321c.417-.329-.546 1.71-1.196 1.605-.642-.096-.209-1.172 0-1.276" class="E" />
  <path d="M153.732 189.083l-.169.69.12.096h.016l.193-.096.618-.819zm-.032 1.276h-.096l-.53-.546c-.064-.409.185-1.06.458-1.196l.153-.024h0s.554.08.995-.273l.385-.032-.016.65c-.177.409-.755 1.421-1.365 1.421" class="D" />
  <path d="M153.644 190.761s.65 0 1.196-.313c.417-.425-.546 1.718-1.196 1.501-.642 0-.209-1.18 0-1.18" class="E" />
  <path d="M153.716 191.001l-.144.658.088.048.072.016.144-.056.642-.811-.795.153zm.032 1.204l-.136-.016-.425-.217-.12-.425.586-1.019s.562-.008 1.044-.281l.377-.048c.169.12.144.345-.096.819-.144.305-.658 1.188-1.228 1.188" class="D" />
  <path d="M151.501 193.345c-.209 1.172.538 2.031.538 2.031s2.801-4.937 3.339.321c0 0-1.613 2.577-4.391 1.292 0 0 2.352.104.843 3.652 0 0-.096 2.577 1.509 1.397 0 0-1.292.217-1.076-1.084 0 0 1.397-4.832 3.548-.53 1.284 2.793-3.018 3.973-4.728 3.123 0 0 .65 1.918 1.718 1.918 0 0-.53.763-1.605.441 0 0 0 1.397-.963 1.814-.859-.417-.859-1.718-.859-1.718-1.068.233-1.718-.417-1.718-.417 1.068 0 1.718-2.039 1.718-2.039-1.718.955-6.012-.104-4.72-2.906 1.926-4.399 3.54.433 3.54.433.209 1.18-1.18 1.068-1.18 1.068 1.71 1.076 1.501-1.389 1.501-1.389-1.613-3.54.859-3.765.859-3.765-2.793 1.397-4.511-1.196-4.511-1.196.433-5.25 3.339-.305 3.339-.305s.859 0 .859-1.613c0 0 1.83-.209 2.464-.53" class="E" />
  <path d="M149.309 205.779l.289.233s.008 1.044.618 1.445c.698-.409.722-1.533.722-1.541l.305-.233c.474.144.819.056 1.035-.08-.907-.433-1.413-1.894-1.437-1.975l.337-.289c.995.498 3.058.257 4.086-.73.586-.57.69-1.268.321-2.063-.538-1.084-1.068-1.646-1.541-1.646h-.048c-.747.072-1.349 1.605-1.509 2.135l.12.618.682.153.185.441c-.482.345-.907.425-1.244.265-.69-.369-.658-1.718-.65-1.87l.016-.088c.53-1.252.634-2.215.281-2.777l-.281-.297-.722-.265.112-.458.811.273c1.935.49 3.082-1.027 3.323-1.381-.185-1.726-.594-2.071-.827-2.119h-.088c-.602-.008-1.509 1.18-1.951 1.967l-.393.04s-.65-.763-.634-1.822c-.626.193-1.541.321-1.951.377-.08 1.621-1.052 1.646-1.092 1.646l-.209-.12c-.506-.859-1.429-1.991-2.015-1.991h-.088c-.225.064-.634.401-.779 2.103.249.345 1.461 1.83 3.42 1.341l.827-.313.136.458-.755.305-.337.369c-.345.594-.225 1.549.337 2.777l.016.08c.016.144.104 1.397-.562 1.806-.337.209-.771.144-1.316-.193l.153-.45.819-.241.104-.546c-.185-.546-.851-2.047-1.605-2.079h-.024c-.466 0-.971.586-1.461 1.71-.369.811-.265 1.493.321 2.039 1.044.955 3.098 1.092 4.07.546l.353.281c-.064.193-.53 1.581-1.381 2.055.265.112.626.201 1.1.104m1.003 2.167h-.209c-.722-.361-.915-1.212-.971-1.662-1.027.104-1.638-.498-1.67-.53l.169-.417c.546 0 1.019-.763 1.284-1.365-1.276.369-3.131.032-4.078-.843-.738-.682-.891-1.605-.433-2.593.586-1.349 1.212-1.999 1.902-1.999h.048c.658.032 1.18.674 1.533 1.292-.265-.915-.241-1.654.08-2.199h-.225c-1.935.008-3.09-1.686-3.098-1.71l-.04-.161c.136-1.605.514-2.464 1.164-2.617l.185-.024c.963 0 2.015 1.549 2.344 2.079.177-.08.498-.361.498-1.341l.209-.241c.498-.056 1.894-.249 2.384-.498l.353.265c-.12.658.104 1.212.281 1.533.401-.634 1.316-1.894 2.191-1.894l.177.024c.666.136 1.068.995 1.228 2.625l-.04.153s-1.132 1.758-3.082 1.758h-.161c.393.706.313 1.75-.265 3.106v.064c.177-.57.811-2.264 1.886-2.352h.096c.674 0 1.324.618 1.967 1.91.458.987.305 1.918-.417 2.625-1.027.979-2.898 1.284-4.094.995.265.562.738 1.276 1.276 1.276l.201.385c-.193.281-.763.73-1.581.594-.056.474-.281 1.389-1.084 1.742" class="D" />
  <path d="M157.176 148.306c-10.194 2.842-9.937 26.891-9.689 33.063.08.586.08 1.084.08 1.252l.329.169-.578-.169v.169s.417.249 1.164.417c.506.169 1.172.249 1.918.249.498 0 1.084-.088 1.589-.169.329 0 .666-.08 1.084-.249v-.249l-.249.088c-1.172-22.123 3.171-32.317 4.343-34.572" class="E" />
  <path d="M153.082 182.043v.755l-.249.08c-2.336.674-4.174.249-4.929-.08l-.586-.169-.249-.169v.329l.088.249c.08 0 .586.329 1.581.498.498.08 1.003.169 1.589.169.835 0 1.75-.169 2.842-.417l.169-.249v-1.501l-.249.498z" class="D" />
  <path d="M153.339 181.538l-.249.498v.755l-.249.088c-1.172-22.123 3.171-32.317 4.343-34.572-10.194 2.842-9.937 26.891-9.689 33.063a8.39 8.39 0 0 1 .088 1.252l.329.169-.586-.169-.249-.169-.08-.249v-2.167c-.249-8.019.08-30.23 10.604-32.397l.249.417c-.088.08-5.595 9.352-4.511 33.481" class="F" />
  <path d="M170.091 177.877s-21.593 9.343 1.822 24.161c0 0 8.38 3.01 19.112-2.906 0 0 7.834-4.399 10.419-6.438 2.577-2.151 6.341-2.36 9.135 2.039 2.681 4.399 5.041 4.399 5.041 4.399s.979.763.747 3.123c0 0-.53.963.233 7.305 0 0-1.621 2.135-2.793-.546-1.18-2.569-7.754 1.413-6.566 6.133 0 0 5.386-.971 10.315.217 0 0 .65 0 .859-1.83 0 0 0 1.068 3.66.963 0 0 3.757.104 1.292-4.511 0 0-.112-2.159.522-2.577.755-.538-.843-1.943-1.18-2.055-.201-.104 5.057.554 5.057-3.548-1.18.329-2.801.45-3.973-.201-2.264-1.18-1.838-4.728-.963-6.662.425-1.18.859-2.36 1.389-3.436.747-1.493 3.002-8.268 2.793-10.307-.104-1.943-.859-3.861-2.248-5.266-.538-.755-.538-.634-.12-1.501.233-.417.321-.955.546-1.493.538-2.272.321-4.945-1.06-6.879-1.734-2.36-5.065-3.339-7.858-3.66-3.002-.425-6.012-.096-8.918 1.084-2.248.963-6.55-.763-6.325-2.681 0 0-1.838-.971-2.272 2.577 0 0-2.143-3.765.425-4.832 0 0-3.636-2.689-5.041 1.822 0 0 .755-8.172 5.482-2.89 0 0 .843.955.217 1.493-.658.642 2.994.217 1.605-4.182 0 0 2.36 2.994 1.084 4.182 0 0 3.323-.642 2.248-3.973 0 0 1.838 2.785-1.188 4.086 0 0 4.407 2.577 4.407-2.689 0 0 .859 4.519 7.521 4.519 0 0-1.284-.971-1.943-2.801 0 0 7.955 7.305 10.748 1.405 0 0 .979-4.19-3.436-2.697 0 0-1.935.867-.971 2.914 0 0-12.996-8.597-18.791-7.746-2.793-.096-5.916.538-8.051 2.36-1.18.859-2.047 2.047-2.48 3.331-.321.755-.433 1.509-.538 2.264l.104 2.039s-3.749 3.106.321 6.125c0 0 1.83-4.399 3.323-3.323 0 0 8.493 6.125 18.904 1.822 1.83-.747 4.519-.971 6.237.104 1.397.971 2.143 3.219 1.935 4.945-.425 2.248-3.532.12-4.624-.209-1.822-.538-3.428-.538-5.258-.433-3.123.201-6.125 1.18-9.135 1.943-1.172.321-13.863 3.428-20.397.851l-11.382 4.086z" class="E" />
  <path d="M205.017 157.344l-.161.313c-.289.49-.714.835-1.108 1.076.658-.337 1.084-.787 1.252-1.341zm7.064 57.193c1.686 0 3.612.128 5.474.578.153-.056.482-.425.618-1.613l.482.032s.209.73 2.938.73h.466c.144 0 1.22-.024 1.678-.771.433-.69.225-1.862-.586-3.387l-.032-.096c-.016-.385-.08-2.32.634-2.793l.088-.233c-.08-.53-1.019-1.324-1.204-1.389l-.169-.289.433-.193c2.914 0 4.463-1.011 4.608-2.978-.819.185-2.496.433-3.837-.305-2.344-1.22-2.047-4.816-1.076-6.975l1.397-3.452c.706-1.413 2.978-8.18 2.769-10.178-.112-1.999-.891-3.813-2.191-5.121l-.136-.177c-.45-.634-.458-.722-.088-1.461l.064-.136.305-.787.241-.69c.578-2.432.193-4.929-1.044-6.646-1.846-2.529-5.611-3.323-7.682-3.572-3.042-.433-5.996-.064-8.798 1.076-1.678.714-4.19.048-5.555-.971-.722-.538-1.108-1.164-1.116-1.782l-.73.072c-.369.201-.843.771-1.044 2.376l-.458.088c-.048-.088-1.276-2.272-.73-3.877.161-.466.458-.835.883-1.1-.514-.289-1.533-.738-2.488-.425-.827.265-1.437 1.052-1.83 2.344l-.474-.096c.016-.169.401-4.15 2.36-4.8.987-.345 2.191.265 3.54 1.766.056.064.546.634.514 1.212l-.12.385.674-.433c.425-.433 1.027-1.469.345-3.62l.425-.225c.088.112 1.894 2.424 1.437 3.893.441-.185 1.027-.53 1.365-1.124.369-.618.401-1.413.096-2.336l.433-.209c.032.056.875 1.365.49 2.673-.193.634-.634 1.148-1.324 1.541.602.265 1.734.634 2.561.161.698-.401 1.06-1.365 1.06-2.85l.474-.048c.032.169.859 4.038 6.638 4.311-.45-.474-1.116-1.292-1.533-2.464l.393-.265c.048.048 4.648 4.198 7.923 3.58 1.06-.209 1.878-.915 2.44-2.095 0 0 .345-1.605-.45-2.32-.514-.466-1.421-.482-2.681-.048 0 0-.714.337-.979 1.052-.169.45-.112.955.153 1.525l-.353.313c-.12-.088-11.808-7.762-17.788-7.762l-.835.056h-.546c-2.986-.008-5.635.827-7.377 2.312-1.14.827-1.991 1.967-2.408 3.219-.305.714-.417 1.389-.53 2.215l.056.586c.12 1.236.12 1.453-.024 1.589-.024.024-1.549 1.308-1.493 2.946.024.931.546 1.806 1.557 2.609.377-.811 1.437-2.97 2.609-3.307l.955.169c.08.064 8.501 5.996 18.663 1.79 1.83-.747 4.632-1.019 6.462.128 1.549 1.076 2.248 3.468 2.047 5.169-.104.53-.337.891-.706 1.084-.907.45-2.24-.193-3.323-.698l-.899-.385c-1.702-.498-3.235-.53-5.177-.417-2.4.161-4.784.795-7.08 1.405l-2.015.53c-.12.032-13.542 3.524-20.461.875l-11.286 4.046c-.281.12-8.428 3.797-8.91 9.937-.345 4.423 3.283 9.063 10.772 13.798.032.008 8.364 2.874 18.864-2.914.08-.048 7.85-4.407 10.387-6.414 1.445-1.204 3.155-1.718 4.736-1.469 1.798.281 3.444 1.517 4.752 3.572 2.561 4.198 4.808 4.278 4.832 4.286l.153.048c.04.032 1.084.867.843 3.339l-.024.096s-.466 1.124.257 7.16l-.048.177s-.69.907-1.549.907h-.153c-.602-.088-1.116-.578-1.509-1.501-.441-.971-1.694-.642-2.207-.466-2.023.714-4.527 3.315-3.949 6.229.618-.096 2.416-.329 4.656-.329m5.466 1.06c-4.888-1.164-10.226-.233-10.267-.209l-.281-.185c-.827-3.315 1.91-6.205 4.214-7.016 1.332-.474 2.384-.201 2.809.722.329.755.714 1.156 1.132 1.204h.088c.49 0 .947-.45 1.1-.626-.658-5.587-.321-7.008-.209-7.297.169-1.846-.441-2.641-.618-2.826-.498-.056-2.705-.506-5.153-4.503-1.228-1.943-2.753-3.098-4.407-3.363-1.461-.217-3.026.265-4.359 1.381-2.577 2.031-10.138 6.277-10.459 6.462-10.7 5.9-19.233 2.954-19.313 2.922-7.698-4.864-11.398-9.657-11.037-14.272.506-6.51 8.838-10.194 9.199-10.347h.016l11.382-4.086h.169c6.727 2.625 20.124-.827 20.244-.859l2.007-.53c2.328-.618 4.728-1.26 7.176-1.421 1.983-.12 3.58-.08 5.346.433l.971.417c.939.441 2.215 1.052 2.898.706l.45-.722c.185-1.509-.458-3.741-1.83-4.696-1.686-1.06-4.294-.787-6.012-.088-10.411 4.302-19.048-1.79-19.136-1.846l-.538-.096c-.971.281-2.079 2.488-2.424 3.323l-.369.096c-1.292-.955-1.967-2.023-1.991-3.179-.056-1.702 1.3-3.01 1.597-3.275l-.08-1.228-.056-.674c.088-.706.209-1.549.554-2.352.45-1.332 1.357-2.561 2.561-3.428 1.822-1.549 4.575-2.424 7.642-2.424h.562l.899-.056c5.386 0 14.946 5.876 17.435 7.465-.096-.433-.072-.843.064-1.228.345-.907 1.228-1.308 1.26-1.324 1.469-.506 2.537-.441 3.187.136 1.011.915.602 2.753.578 2.834-.65 1.381-1.589 2.175-2.809 2.416-2.681.538-5.988-1.782-7.505-2.994.626 1.124 1.405 1.726 1.421 1.734l-.144.425c-4.728 0-6.63-2.272-7.353-3.652-.161 1.06-.57 1.79-1.228 2.167-1.429.811-3.387-.321-3.468-.377l.024-.417c-.482.249-.891.329-.923.329l-.209-.417c.634-.586.161-1.822-.393-2.793.217 1.782-.506 2.842-1.365 3.275l-1.019.016.096-.49.161-.297-.385-.859c-1.212-1.357-2.248-1.918-3.026-1.629-.859.281-1.405 1.509-1.71 2.641.377-.498.827-.835 1.357-1.011 1.573-.538 3.195.658 3.259.714l-.056.417c-.506.209-.835.546-.995 1.019-.313.899.056 2.063.369 2.793.225-1.019.618-1.686 1.172-1.983.658-.345 1.284-.024 1.316-.016l.128.249c-.056.498.265 1.035.907 1.517 1.268.955 3.62 1.541 5.089.915 2.874-1.172 5.924-1.533 9.038-1.1 2.625.305 6.149 1.212 8.011 3.765 1.316 1.83 1.734 4.471 1.116 7.08l-.241.69-.329.867-.064.128q-.257.53.056.955l.112.153c1.357 1.357 2.191 3.291 2.304 5.394.217 2.095-2.079 8.942-2.826 10.427-.514 1.06-.955 2.264-1.381 3.42-.899 2.007-1.22 5.29.851 6.365 1.413.763 3.259.329 3.797.185l.305.233c0 1.654-.803 3.596-4.575 3.765.393.361.819.875.891 1.324l-.289.706c-.353.241-.45 1.477-.417 2.312.883 1.686 1.068 2.97.538 3.829-.634 1.027-2.015 1.011-2.087.995h-.482c-1.469.008-2.472-.193-3.01-.594-.289 1.381-.883 1.461-1.019 1.461" class="F" />
  <path d="M209.914 214.818s.313-2.264 2.256-2.898" class="E" />
  <path d="M210.154 214.85l-.474-.064c.008-.096.361-2.416 2.424-3.09l.153.458c-1.782.578-2.095 2.681-2.095 2.697" class="D" />
  <path d="M213.084 214.818s.321-2.264 2.352-2.898" class="E" />
  <path d="M213.325 214.85l-.482-.064c.016-.096.361-2.416 2.52-3.09l.153.466c-1.862.578-2.183 2.681-2.191 2.697" class="D" />
  <path d="M171.047 177.652s1.718-.963 1.822-2.143c.112-.955-.65-3.123-2.36-.955-.955 1.18-.642 1.605-.642 1.605s-2.376.209-1.18-3.323c0 0-1.613 1.605.112 3.757 0 0-2.906.321-2.793-3.548 0 0 .209 2.689-2.36 3.114 0 0 .747-1.838.104-3.323 0 0-1.613 3.323-4.206 2.143 0 0 2.167-.658 1.629-2.36 0 0-2.697-4.945.642-3.757 0 0 3.749 1.605 6.004-.546 0 0 .321 1.284.233 2.151 0 0 4.078-2.047 5.474.971 0 0 .538-4.078-3.652-4.728 0 0-.201-1.718-.747-2.264 0 0 .642 1.838.209 2.36-.538.65-4.19-1.605-5.153-3.315 0 0 .843 2.248.209 2.793 0 0-.112-1.613-2.793-3.227-2.577-1.501-2.906-5.274.755-4.945 2.793.217.747 2.264.747 2.264s4.519-2.047 6.879-1.613c2.36.425.538-2.898-1.605-1.943 0 0 4.616-3.861 5.153.755 0 0 3.861.209 2.151-3.436 0 0 2.36-.971 4.182 2.36 0 0 1.935.104 1.18-3.227 0 0 2.681.112 3.339 3.323 0 0 3.315.546 5.041-1.501 0 0 2.689 3.01-2.248 5.049 0 0 2.248 2.248 1.18 4.624 0 0-.658.313-.971-.104 0 0-.642 3.548.538 4.503 0 0-1.076.433-1.501-.201 0 0 1.276 1.068 1.814 4.72 0 0 .321 1.18 1.621.955 0 0-1.621.329-2.368.225 0 0 2.906-.225 4.182.642l1.413 1.084c.425.209-1.838.209-2.256 0 0 0 1.276.104 3.211 1.935 1.838 1.718-.385 1.533.144 1.533 0 0-3.355-.153-5.723-1.758l.939.658c.811.755 1.493 2.328 2.769 2.328l-.45.12-1.196.201c-1.164.128-2.376.064-3.476-.337-.554-.201-1.019-.514-1.493-.843l-.313 1.413c-.169.433-1.268 3.05-1.918 1.951 0 0-.971-.971-1.726-3.444 0 0-.104 1.838-1.284 3.018 0 0-.971.417-.971-3.452 0 0-2.681 3.339-2.135 4.519 0 0-1.726-2.248-.65-5.169 0 0-1.943 1.509-2.898 3.981 0 0-1.18-1.726.955-3.869 0 0-2.36.642-2.994 2.264-.546 1.501-.755-3.757 1.389-4.19l-1.935.209z" class="E" />
  <path d="M181.578 180.093l.233.169c.722 2.384 1.654 3.347 1.662 3.355l.209.193h0c.337-.024.947-1.092 1.316-2.063l.064-.153c.313-.73.329-.947.305-1.003l-.048-.321.353-.04h0c.482.329.915.618 1.437.811.955.353 2.087.45 3.371.329l.722-.104c-.522-.305-.939-.835-1.316-1.324l-.674-.795-.634-.458-.281-.185-.064-.337.337-.064h0l.024.016c2.28 1.533 5.539 1.694 5.571 1.694h0l.337-.153s.08-.273-.658-.971c-1.349-1.268-2.368-1.686-2.826-1.814l-.345-.08-.12-.281.233-.177h.016l.458.104 1.26.056-.136-.104-.899-.698c-.714-.482-2.007-.594-2.93-.61-.417.048-.835.072-1.14.024l-.209-.249.217-.233c.048 0 .474-.04 1.116-.024h0l-.578-.859c-.401-2.753-1.244-4.005-1.581-4.423l-.201-.225.032-.313h.313l.177.169.722.072c-.859-1.26-.393-4.062-.329-4.407l.185-.193.257.088.586.064c.899-2.159-1.148-4.246-1.164-4.262l-.064-.217.136-.177c1.621-.674 2.561-1.509 2.777-2.472.201-.843-.201-1.613-.45-1.967-1.83 1.862-4.921 1.381-5.065 1.357l-.193-.193c-.49-2.376-2.103-2.954-2.793-3.09.225 1.212.104 2.103-.353 2.657-.474.562-1.116.546-1.14.522l-.201-.12c-1.365-2.496-3.018-2.464-3.636-2.32.45 1.06.466 1.91.048 2.529-.722 1.084-2.472 1.011-2.545.987l-.225-.209c-.128-1.068-.49-1.718-1.068-1.951-.875-.353-2.079.249-2.866.763.618.056 1.156.393 1.493.755.45.49.61 1.068.393 1.453-.153.249-.49.522-1.308.377-2.272-.45-6.687 1.573-6.727 1.589l-.305-.08.032-.313c.209-.209.787-.915.618-1.341-.104-.273-.53-.45-1.22-.506-1.292-.104-2.119.289-2.376 1.1-.345 1.1.45 2.617 1.766 3.387 1.638.979 2.352 1.975 2.673 2.633-.016-.562-.217-1.349-.433-1.902l.128-.305.313.104c.811 1.437 3.564 3.211 4.559 3.307l.201-.024c.233-.281-.016-1.429-.257-2.127l.104-.281.289.032c.49.498.722 1.734.787 2.223 4.19.763 3.684 4.921 3.676 4.969l-.201.209-.257-.136c-.313-.666-.787-1.124-1.429-1.341-1.573-.546-3.692.482-3.717.49l-.249-.016-.096-.233c.064-.53-.056-1.244-.136-1.678-2.344 1.822-5.796.385-5.948.321-.417-.144-.971-.273-1.196-.016-.45.53.289 2.384.859 3.436.177.538.136 1.011-.08 1.437-.257.482-.706.803-1.084 1.011 1.983.401 3.251-2.111 3.307-2.232l.217-.136h0l.217.144c.49 1.14.233 2.44.032 3.09 1.445-.441 1.71-1.758 1.75-2.4v-.385l.241-.233h0l.241.217v.345c.016 1.092.305 1.91.851 2.416l1.22.554c-1.349-2.095.185-3.652.201-3.676l.305-.032.096.289c-.409 1.212-.425 2.119-.048 2.601l.706.393c.016-.313.169-.787.755-1.509.682-.867 1.316-1.172 1.87-.947.706.289.987 1.421.915 2.087-.064.722-.642 1.349-1.156 1.774l.995-.104h.024l.241.209-.193.273c-.458.096-.827.466-1.116 1.1-.377.859-.466 1.935-.433 2.529.787-1.533 2.954-2.143 3.042-2.167l.281.112-.04.289c-1.332 1.341-1.3 2.472-1.132 3.082 1.011-2.191 2.681-3.5 2.745-3.564h.297l.088.273c-.658 1.79-.217 3.315.185 4.174.361-1.461 1.959-3.484 2.191-3.765l.265-.08.161.225c0 2.448.393 3.042.562 3.179l.064.032c1.044-1.1 1.156-2.777 1.156-2.793l.217-.233h.024zm-4.399 4.575l-.193-.096c-.072-.088-1.485-1.967-.939-4.551-.642.642-1.605 1.79-2.199 3.307l-.193.153-.233-.096s-1.011-1.517.353-3.444c-.698.329-1.629.907-1.975 1.79l-.401.417h-.056c-.177-.032-.361-.177-.377-1.011-.016-1.044.249-2.512.971-3.331l-.883.088h-.024l-.233-.169.112-.281s1.613-.915 1.71-1.951c.056-.514-.177-1.413-.618-1.597-.321-.12-.795.161-1.308.803-.787.971-.626 1.324-.626 1.324l.016.241-.209.128s-.682.056-1.196-.377l.289.409.032.249-.193.144c-.056 0-1.18.12-2.063-.69-.385-.361-.666-.843-.835-1.429-.313.73-.963 1.477-2.248 1.686l-.233-.088-.032-.241s.546-1.389.265-2.649c-.602.915-2.111 2.721-4.238 1.782l-.136-.241.169-.217s1.019-.321 1.397-1.044l.064-1.019c-.153-.265-1.597-2.994-.787-3.941.321-.377.907-.425 1.742-.12.048.016 3.636 1.525 5.755-.498l.233-.056.169.177a8.43 8.43 0 0 1 .249 1.83c.714-.289 2.36-.843 3.725-.345.506.177.923.466 1.252.867-.08-1.164-.634-3.227-3.46-3.66l-.201-.177-.104.193-.618.201c-.955-.08-2.914-1.284-4.134-2.529.136.698.193 1.493-.217 1.838l-.249.048-.144-.209s-.161-1.517-2.681-3.042c-1.525-.883-2.392-2.625-1.975-3.949.337-1.052 1.373-1.605 2.874-1.437.907.072 1.461.345 1.638.819l-.177 1.116c1.437-.57 4.383-1.581 6.189-1.284l.787-.128-.329-.891c-.425-.466-1.172-.811-2.015-.458l-.297-.088.048-.321c.096-.088 2.529-2.087 4.19-1.429.714.281 1.164 1.003 1.324 2.135.441-.016 1.469-.12 1.918-.779.345-.514.281-1.3-.193-2.32v-.193l.128-.128c.024-.016 2.504-.995 4.415 2.328l.634-.353c.385-.466.45-1.357.177-2.569l.048-.209.201-.088s2.785.153 3.532 3.355c.674.056 3.251.233 4.648-1.437l.185-.08h0l.177.08c.048.048 1.052 1.196.73 2.617-.249 1.068-1.172 1.975-2.753 2.681.57.682 1.91 2.585.987 4.64l-.112.12-.899.096c-.153 1.132-.265 3.267.506 3.893l.088.217-.153.185s-.409.169-.835.169c.425.706.987 1.975 1.3 4.094.024.064.313.971 1.341.755l.273.201v.12c.634.096 1.26.281 1.718.586l.899.698.522.385.088.08.032.289c-.088.161-.466.217-.907.225.498.297 1.092.73 1.766 1.365.273.249 1.084 1.011.722 1.589l-.915.353c-.506-.032-2.191-.201-3.893-.859l.161.201c.538.69 1.092 1.413 1.878 1.413l.241.241-.241.249-.225.048-.169.056c-.385.088-.795.153-1.22.201-1.365.144-2.561.024-3.588-.353-.417-.153-.771-.353-1.124-.578l-.313.875-.056.128c-.144.377-.915 2.296-1.734 2.368l-.634-.385s-.747-.755-1.437-2.601c-.169.658-.514 1.533-1.196 2.215l-.08.056-.506-.08c-.466-.305-.73-1.276-.795-2.898-.939 1.268-1.991 3.05-1.686 3.717l-.096.305-.128.04z" class="D" />
  <path d="M160.419 168.855s.763-1.501-.867-2.36c-1.613-.755 5.474 1.501 10.315.209 0 0 3.227.425 3.436 3.01l.209 1.493s-1.501-2.352-5.378-.859l-.321-2.039s-.634 1.397-2.882 1.18c-2.264-.209-3.452-1.18-4.519-.642" class="E" />
  <path d="M160.419 168.855l.217.104s.201-.393.201-.915c.008-.562-.265-1.292-1.172-1.766h-.016l-.153-.088h-.008l-.144.161h.209l-.064-.161-.144.161h-.016l.064.217.161-.217h-.233l.064.217-.024-.096v.096h.024l-.024-.096v.096c.377-.008 3.628.779 6.919.779 1.236 0 2.488-.104 3.636-.417l-.056-.233-.032.241s.771.096 1.565.506c.795.417 1.573 1.092 1.67 2.28v.016l.209 1.493.241-.032.201-.128s-.947-1.461-3.179-1.461c-.698 0-1.533.144-2.488.514l.088.225.241-.032-.321-2.047-.466-.056-.088.153c-.217.289-.787.907-2.103.915l-.441-.024c-1.734-.161-2.809-.787-3.829-.803l-.827.193.112.217.217.104-.217-.104.112.217.602-.136c.803-.016 1.967.626 3.789.803l.49.024c1.991 0 2.625-1.308 2.641-1.349l-.217-.096-.241.032.329 2.039.321.193c.907-.353 1.678-.482 2.312-.482 1.003 0 1.694.321 2.135.634l.49.425.144.177.441-.161-.209-1.493-.241.032.241-.016c-.273-2.826-3.652-3.219-3.652-3.227h-.088c-1.092.297-2.312.401-3.516.401-3.267 0-6.357-.771-6.919-.779l-.112.016-.193.249.177.265.201.096.104-.217-.12.209c.763.417.907.915.915 1.341l-.153.698.329.321-.112-.217z" class="D" />
  <path d="M171.271 160.908c.506.466 1.124 1.204.907 1.951l-.65.65-.931-.441c-.53-.931-.722-2.914.787-2.994.795-.04 1.581.69 2.127 1.196 1.003.939 1.862 1.766 3.307 1.806h.795s-.859-1.092-1.397-2.488c0 0 2.159 1.822 5.804 1.509 0 0-1.084-.441-2.159-2.159 0 0 4.616.642 5.908-.65" class="E" />
  <path d="M171.312 163.774l-.931-.594c-.409-.722-.586-1.91-.193-2.649.241-.425.642-.674 1.18-.698h.08c.875 0 1.678.755 2.223 1.252l.056.056c.947.883 1.758 1.646 3.09 1.686h.321a10.79 10.79 0 0 1-1.164-2.159l.088-.281h.297s1.822 1.501 4.84 1.501h.032c-.425-.329-1.011-.899-1.573-1.814v-.265l.233-.104c1.252.177 4.712.401 5.699-.586h.345v.345c-1.1 1.108-4.302.915-5.579.787.907 1.268 1.75 1.621 1.75 1.621l.144.265-.217.201c-2.529.185-4.335-.562-5.266-1.092.474.955 1.019 1.646 1.019 1.654l.032.241-.209.153-.819.016c-1.509-.048-2.424-.907-3.403-1.822l-.056-.056c-.482-.45-1.204-1.124-1.894-1.124h-.056l-.771.458c-.313.57-.153 1.581.193 2.175l.65.329.482-.482c.177-.602-.353-1.26-.835-1.702l-.016-.345.345-.016c.843.771 1.18 1.533.979 2.199-.128.401-.433.722-.827.811l-.273.032z" class="D" />
  <path d="M173.631 165.299s2.898 2.585 3.644 2.585c.859 0-.963-3.548-.963-3.548s1.284 2.039 2.673 2.151c0 0 .329-.971 0-2.585 0 0 2.488 1.18 3.018 1.83 0 0 .209-1.493-.321-2.159" class="E" />
  <path d="M177.276 168.124c-.803 0-3.307-2.199-3.805-2.641l-.016-.345.345-.016c1.389 1.236 3.066 2.512 3.476 2.512.104-.217-.425-1.726-1.18-3.195l.104-.321.321.088s1.108 1.742 2.288 2.007c.072-.353.169-1.148-.056-2.264l.088-.241.249-.024c.217.104 1.854.899 2.713 1.533.016-.49-.032-1.148-.313-1.493l.032-.345.345.032c.594.738.385 2.28.377 2.344l-.177.193-.249-.072c-.345-.409-1.686-1.132-2.512-1.549.193 1.373-.072 2.191-.088 2.232l-.249.161c-.618-.048-1.204-.425-1.678-.867.337.835.586 1.702.377 2.055l-.385.209z" class="D" />
  <path d="M181.723 163.573s1.276.329 2.039 1.613c0 0 .755-3.01-.425-4.302 0 0 2.288 3.291 4.102 3.829" class="E" />
  <path d="M183.761 165.427l-.209-.12c-.698-1.164-1.878-1.493-1.894-1.493l-.169-.305.289-.177c.048.016 1.06.289 1.846 1.244.128-.803.273-2.288-.257-3.219l-.241-.329.048-.329.329.024.265.353c.626.835 2.344 2.986 3.733 3.403l.161.305-.305.161c-1.092-.329-2.336-1.565-3.179-2.569a8.61 8.61 0 0 1-.201 2.866l-.201.185h-.04z" class="D" />
  <path d="M174.282 174.434s.634 2.801 2.248 3.444c1.605.755-1.397-2.264-.209-4.511" class="E" />
  <path d="M174.041 174.49s.602 2.858 2.392 3.612l.088-.225-.104.217.466.136.273-.112.088-.249c-.016-.353-.273-.763-.506-1.357-.241-.578-.474-1.276-.466-1.943l.257-1.092-.425-.225c-.233.425-.321.875-.321 1.316 0 .779.265 1.525.506 2.127l.474 1.172h.112l-.08-.072-.032.072h.112l-.08-.072.088.08v-.128l-.088.048.088.08v-.128l-.265-.096h-.008c-.706-.281-1.252-1.084-1.597-1.846-.353-.755-.498-1.429-.506-1.429l-.474.104z" class="D" />
  <path d="M176.176 173.446s-.249 3.869 4.905 4.736c0 0-1.766-2.031-.795-4.174 0 0 1.068 4.616 4.182 4.824 0 0-.53-3.861-1.397-4.937 0 0 1.613 3.757 4.302 4.086 0 0 .538-2.248-.433-3.757 0 0 .217 1.605 3.877 2.36" class="E" />
  <g class="D">
    <path d="M184.476 179.073h-.016c-2.472-.161-3.7-2.858-4.174-4.23-.281 1.702.971 3.171.987 3.187l.024.273-.249.12c-5.306-.891-5.113-4.953-5.113-4.993l.241-.225h.016l.225.257c-.008.136-.136 3.371 4.118 4.359-.49-.771-1.196-2.304-.458-3.917l.249-.144.209.185c.008.048.987 4.134 3.66 4.608-.12-.706-.417-2.464-.859-3.636-.297-.506-.458-.883-.482-.931l.096-.305.313.056.482.923c.618 1.044 1.814 2.713 3.436 3.042.08-.498.225-1.718-.169-2.777l-.313-.674.153-.265.289.096.305.586c.385.498 1.284 1.228 3.42 1.67l.193.281-.289.185c-1.517-.313-2.472-.787-3.074-1.228.201 1.228-.064 2.376-.08 2.448l-.265.177c-1.308-.161-2.368-1.068-3.131-2.007a27.1 27.1 0 0 1 .498 2.585l-.064.201-.177.072zm-7.088-5.571h-.048l-.201-.217c-.08-.65-1.461-2.464-1.983-3.098l.032-.345.345.032c.161.201 1.349 1.654 1.854 2.689.241-.73.53-2.047.193-3.339l.088-.265.273-.016 2.288 1.357.714.409c-.209-.907-.698-2.834-1.389-4.005l.064-.321.321.048c.104.112 2.079 2.529 3.082 4.014.241-.747.586-2.312-.144-3.636l.088-.329.345.096c1.108 2.023.048 4.423 0 4.527l-.201.136h-.016l-.209-.112c-.458-.747-1.381-1.967-2.143-2.922.498 1.413.771 2.85.795 2.938l-.088.233-.265.024-1.196-.666-1.822-1.068c.289 1.894-.514 3.62-.554 3.708l-.217.136z" />
    <path d="M186.507 173.502l-.104-.016c-2.994-1.453-3.131-5.218-3.139-5.378l.233-.249h.008l.241.233c0 .04.136 3.428 2.641 4.832.281-.722.755-2.119.61-2.689l.177-.289.297.177c.225.915-.642 2.994-.747 3.235l-.136.128-.088.016z" />
  </g>
  <path d="M169.666 190.761s-.867 7.305 2.135 13.863c0 0 .65 7.401-2.135 6.012-2.801-1.397-5.82-.65-6.767 4.945 0 0 8.155-.859 10.307-.209 0 0 .313-1.3 3.227.209 2.986 1.613 6.004-2.689 2.785-4.19 0 0-1.605-1.726.642-2.793 0 0 3.106-.209 4.19-3.548 0 0-1.718-.425-3.757.425 0 0-1.726-.104-2.376.979 0 0 1.405-6.02 3.66-7.85 2.368-1.806 4.937-8.051 5.049-10.411" class="E" />
  <path d="M177.789 216.174a3.09 3.09 0 0 1-1.469-.385c-1.597-.827-2.312-.747-2.601-.626l-.289.265-.305.169c-2.095-.642-10.138.209-10.21.217l-.265-.281c.474-2.793 1.493-4.599 3.002-5.362 1.18-.594 2.601-.506 4.118.249l.915.032c1.06-.722.995-4.367.875-5.771-2.978-6.526-2.143-13.871-2.135-13.943l.482.056c-.008.08-.827 7.321 2.119 13.726l.024.08c.048.53.409 5.234-1.084 6.245-.393.281-.867.281-1.405 0-.947-.466-2.36-.907-3.676-.241-1.3.65-2.215 2.272-2.681 4.696 1.501-.153 7.714-.722 9.881-.225l.425-.353c.634-.305 1.662-.088 3.042.634a2.46 2.46 0 0 0 2.617-.088c.763-.49 1.236-1.332 1.18-2.103-.04-.658-.474-1.204-1.236-1.557l-.08-.056s-.763-.843-.586-1.766c.104-.578.546-1.06 1.308-1.421l.088-.016c.12-.008 2.793-.241 3.885-3.123-.546-.072-1.854-.161-3.347.466l-.104.016s-1.589-.088-2.151.859l-.441-.177c.056-.249 1.453-6.125 3.749-7.979 2.256-1.734 4.84-7.899 4.953-10.243l.482.024c-.12 2.48-2.761 8.766-5.145 10.596-1.662 1.357-2.874 5.169-3.347 6.879.714-.45 1.662-.458 1.87-.45 2.087-.843 3.789-.425 3.861-.409l.177.305c-1.044 3.219-3.941 3.66-4.359 3.708-.586.289-.923.65-1.003 1.06-.112.586.329 1.164.45 1.308.891.425 1.413 1.116 1.469 1.943.064.947-.49 1.951-1.413 2.545a2.99 2.99 0 0 1-1.638.498" class="D" />
  <path d="M165.757 215.171s.313-2.159 2.248-2.801" class="E" />
  <path d="M165.99 215.211l-.474-.08c.008-.088.361-2.304 2.408-2.986l.153.458c-1.766.594-2.079 2.585-2.087 2.609" class="D" />
  <path d="M168.358 215.243s.321-2.151 2.248-2.793" class="E" />
  <path d="M168.59 215.275l-.482-.08c.016-.088.377-2.304 2.416-2.986l.161.458c-1.758.586-2.087 2.585-2.087 2.609" class="D" />
</svg>