<?xml version="1.0" encoding="UTF-8" standalone="no"?>

<svg
   version="1.1"
   id="Layer_1"
   x="0px"
   y="0px"
   viewBox="0 0 373.79998 364.60001"
   xml:space="preserve"
   width="373.79999"
   height="364.60001"
   xmlns="http://www.w3.org/2000/svg"
   xmlns:svg="http://www.w3.org/2000/svg"
   style="background-color:#0000ff"><defs
   id="defs13" />&#10;<style
   type="text/css"
   id="style1">&#10;	.st0{fill:#F9383D;}&#10;	.st1{fill:#FFFFFF;}&#10;	.st2{fill-rule:evenodd;clip-rule:evenodd;fill:#FFFFFF;}&#10;</style>&#10;&#10;&#10;&#10;&#10;&#10;&#10;&#10;&#10;&#10;&#10;&#10;&#10;&#10;<g
   id="g1"
   transform="translate(-58.436651,5.3694371)"><path
     d="m 362.48483,69.585532 c 0,26.47605 -115.86906,29.35906 -115.86906,57.851168 h -2.56157 c 0,-28.492108 -115.86908,-31.372448 -115.86908,-57.851168 h -2.58491 v 27.63313 c 0,33.002348 116.08315,29.910588 118.45399,61.639838 h 2.56157 c 2.37084,-31.72925 118.45731,-28.63749 118.45731,-61.639838 v -27.63313 z"
     fill="#ffffff"
     id="path11"
     style="stroke-width:6.66902" /><path
     d="m 362.48483,132.29242 c 0,26.47604 -115.86906,29.35974 -115.86906,57.85116 h -2.56157 c 0,-28.49142 -115.86908,-31.37245 -115.86908,-57.85116 h -2.58491 v 27.63312 c 0,33.00303 116.08315,29.9106 118.45399,61.63984 h 2.56157 c 2.37084,-31.72924 118.45731,-28.63681 118.45731,-61.63984 v -27.63312 z"
     fill="#ffffff"
     id="path12"
     style="stroke-width:6.66902" /><path
     d="m 362.48483,194.99997 c 0,26.47605 -115.86906,29.35907 -115.86906,57.85116 h -2.56157 c 0,-28.49209 -115.86908,-31.37245 -115.86908,-57.85116 h -2.58491 v 27.63646 c 0,33.00236 116.08315,29.9106 118.45399,61.63917 h 2.56157 c 2.37084,-31.73191 118.45731,-28.64014 118.45731,-61.63917 v -27.63646 z"
     fill="#ffffff"
     id="path13"
     style="stroke-width:6.66902" /></g></svg>
