<?xml version="1.0" encoding="UTF-8" standalone="no"?>

<svg
   version="1.1"
   id="Layer_1"
   x="0px"
   y="0px"
   viewBox="0 0 373.79998 364.60001"
   xml:space="preserve"
   width="373.79999"
   height="364.60001"
   xmlns="http://www.w3.org/2000/svg"
   xmlns:svg="http://www.w3.org/2000/svg"
   style="background-color:#00aeef"><defs
   id="defs13" />&#10;<style
   type="text/css"
   id="style1">&#10;	.st0{fill:#F9383D;}&#10;	.st1{fill:#FFFFFF;}&#10;	.st2{fill-rule:evenodd;clip-rule:evenodd;fill:#FFFFFF;}&#10;</style>&#10;&#10;&#10;&#10;&#10;&#10;&#10;&#10;&#10;&#10;&#10;&#10;&#10;&#10;<g
   transform="matrix(0.71493333,0,0,0.71493333,87.374674,75.041649)"
   style="fill:#ffffff;fill-opacity:1">&#10;	<path
   class="st0"
   d="m 277.64,103.3 c 1.36,14.21 0.69,26.1 -0.24,36.83 -1.56,17.98 -4.56,28.74 -8.89,40.26 -4.47,11.93 -9.94,23.31 -15.81,32.92 l -0.35,0.58 c -1.88,3.07 -3.26,5.32 -4.04,6.37 -0.13,-0.15 -0.28,-0.31 -0.45,-0.49 -0.71,-0.74 -1.77,-1.85 -3.41,-3.48 -2.4,-2.4 -9.12,-11.18 -11.01,-13.88 -1.67,-2.36 -5.34,-7.94 -7.33,-12.17 l -1.02,-2.17 -1.88,1.48 c -2,1.59 -3.17,4.35 -3.12,7.41 0.04,2.69 0.66,5.81 2.29,11.51 1.79,6.22 4.92,13.65 8.56,20.38 0.44,0.83 0.89,1.64 1.31,2.39 2.51,4.5 3.48,6.57 2.29,7.43 -0.19,0.14 -0.42,0.16 -0.55,0.16 -1.49,0 -4.23,-1.42 -7.35,-3.8 -2.77,-2.11 -10.19,-8.39 -19.18,-20.94 -6.78,-9.5 -12.16,-18.71 -17.45,-29.87 l -0.78,-1.64 c 0,0 -1.14,0.4 -2.19,1.05 -0.74,0.45 -1.36,0.98 -1.79,1.77 -1.03,1.85 -1.36,4.29 -1.01,7.07 0.82,6.68 4.74,16.88 7.9,24.24 5.34,12.43 15.16,26.41 22.46,35.95 0.28,0.37 0.62,0.76 0.96,1.16 0.38,0.46 1.03,1.21 1.35,1.71 -0.64,0.65 -2.13,1.86 -3.93,3.35 l -2.69,2.19 c -9.83,8.1 -19.43,14.62 -31.1,21.14 -9.12,5.1 -27.68,14.52 -39.98,17.81 C 126.9,296.73 108.35,287.31 99.23,282.21 87.42,275.62 78.12,269.29 68.12,261.07 l -2.76,-2.25 c -1.8,-1.47 -3.28,-2.69 -3.89,-3.32 0.29,-0.36 2.05,-2.47 2.34,-2.83 7.29,-9.52 17.11,-23.49 22.46,-35.95 3.15,-7.35 7.09,-17.52 7.92,-24.25 0.35,-2.78 0,-5.21 -1.02,-7.05 -0.52,-0.94 -1.39,-1.72 -2.31,-2.12 l -1.67,-0.7 -0.78,1.64 c -5.29,11.15 -10.68,20.37 -17.45,29.87 -8.96,12.54 -16.39,18.82 -19.17,20.94 -3.07,2.35 -5.88,3.8 -7.35,3.8 -0.13,0 -0.36,-0.01 -0.47,-0.1 l -0.27,-0.22 c -0.9,-0.95 0.12,-3.03 2.5,-7.3 0.42,-0.76 0.85,-1.54 1.3,-2.36 3.64,-6.74 6.75,-14.17 8.54,-20.37 1.64,-5.72 2.26,-8.84 2.3,-11.52 0.05,-3.05 -1.12,-5.82 -3.13,-7.41 l -1.88,-1.48 -1.01,2.17 c -1.85,3.95 -5.4,9.44 -7.33,12.17 -1.91,2.71 -8.64,11.51 -11.01,13.88 -1.64,1.64 -2.7,2.75 -3.41,3.5 -0.17,0.18 -0.32,0.33 -0.45,0.47 -0.8,-1.08 -2.25,-3.44 -4.23,-6.67 C 19.85,203.73 14.38,192.35 9.92,180.42 5.59,168.89 2.59,158.13 1.03,140.16 0.09,129.37 -0.59,117.43 0.79,103.3 c 1.39,-14.42 5,-28.03 10.17,-38.33 7.3,-14.57 16.4,-23.2 27.8,-26.4 2.86,-0.8 7.31,-1.75 12.34,-1.75 9.06,0 16.29,2.98 21.5,8.86 2.89,3.24 4.02,8.18 2.9,12.58 -1.01,3.95 -3.78,6.52 -7.47,8.25 -0.95,0.45 -2.04,0.72 -2.04,0.72 0,0 0.12,0.51 1.09,2.09 3.64,5.87 10.73,8.95 20.47,8.95 2.27,0 4.64,-0.17 7.04,-0.5 13.86,-1.93 20.1,-10.68 22.38,-27.53 0.89,-6.58 1.74,-12.11 -2.5,-18.95 C 111.5,26.49 103.02,23.66 96.82,23.68 91.27,23.71 88.34,25.15 86.57,27 86.49,26.73 86.1,26.27 86,26.02 c -0.63,-1.5 -1.19,-3.2 -0.64,-6.24 0.65,-3.6 3.51,-6.97 5.02,-8.16 3.23,-2.59 6.88,-5.05 12.79,-6.29 2.8,-0.59 5.75,-1.12 9.06,-1.12 0.7,0 3.05,-0.01 4.1,0.07 0.46,0.03 0.53,-0.17 0.86,-0.58 2.03,-2.45 5.22,-3.79 11.03,-3.66 4.47,0.1 10.43,0.33 15.12,1.83 4.17,1.34 6.28,2.62 8.71,4.2 2.82,1.82 5.75,5.64 7,9.28 1.86,5.43 2.93,12.19 3.21,20 0.32,15.56 2.53,25.01 6.89,30.64 7.03,9.08 13.04,10.98 20.3,11.44 l 0.79,0.01 c 13.71,0 18.71,-4.34 20.94,-7.65 0,0 1.21,-1.7 1.71,-2.67 -1.74,-0.32 -2.85,-0.73 -2.85,-0.73 -3.49,-1.31 -5.96,-4.1 -6.97,-7.86 -1.21,-4.48 -0.12,-9.39 2.82,-12.81 6.5,-7.55 16.18,-8.78 21.36,-8.85 h 0.59 c 4.06,0 8.02,0.6 11.77,1.79 5.11,1.61 9.53,3.88 13.15,6.75 7.11,5.69 11.6,13.46 14.71,19.58 5.1,10 8.91,24.34 10.17,38.31 z"
   id="path1-1"
   style="fill:#ffffff;fill-opacity:1" />&#10;</g></svg>
