<svg xmlns="http://www.w3.org/2000/svg" width="373.8" height="364.6">
  <rect width="373.8" height="364.6" fill="#00aeef" />
  <path d="M285.869 148.894c.972 10.159.493 18.66-.172 26.331-1.115 12.854-3.26 20.547-6.356 28.783-3.196 8.529-7.106 16.665-11.303 23.536l-.25.415c-1.344 2.195-2.331 3.803-2.888 4.554a11.47 11.47 0 0 0-.322-.35l-2.438-2.488c-1.716-1.716-6.52-7.993-7.871-9.923-1.194-1.687-3.818-5.677-5.24-8.701l-.729-1.551-1.344 1.058c-1.43 1.137-2.266 3.11-2.231 5.298.029 1.923.472 4.154 1.637 8.229 1.28 4.447 3.517 9.759 6.12 14.57l.937 1.709c1.794 3.217 2.488 4.697 1.637 5.312a.67.67 0 0 1-.393.114c-1.065 0-3.024-1.015-5.255-2.717-1.98-1.509-7.285-5.998-13.712-14.971-4.847-6.792-8.694-13.376-12.476-21.355l-.558-1.172s-.815.286-1.566.751c-.529.322-.972.701-1.28 1.265-.736 1.323-.972 3.067-.722 5.055.586 4.776 3.389 12.068 5.648 17.33 3.818 8.887 10.838 18.881 16.057 25.702.2.265.443.543.686.829.272.329.736.865.965 1.223-.458.465-1.523 1.33-2.81 2.395l-1.923 1.566c-7.028 5.791-13.891 10.452-22.234 15.114-6.52 3.646-19.789 10.381-28.583 12.733-8.801-2.352-22.063-9.087-28.583-12.733-8.443-4.711-15.092-9.237-22.242-15.114l-1.973-1.609c-1.287-1.051-2.345-1.923-2.781-2.374l1.673-2.023c5.212-6.806 12.233-16.794 16.057-25.702 2.252-5.255 5.069-12.526 5.662-17.337.25-1.988 0-3.725-.729-5.04-.372-.672-.994-1.23-1.651-1.516l-1.194-.5-.558 1.172c-3.782 7.972-7.635 14.563-12.476 21.355-6.406 8.965-11.718 13.455-13.705 14.971-2.195 1.68-4.204 2.717-5.255 2.717-.093 0-.257-.007-.336-.071l-.193-.157c-.643-.679.086-2.166 1.787-5.219l.929-1.687c2.602-4.819 4.826-10.131 6.106-14.563 1.172-4.089 1.616-6.32 1.644-8.236.036-2.181-.801-4.161-2.238-5.298l-1.344-1.058-.722 1.551c-1.323 2.824-3.861 6.749-5.24 8.701-1.366 1.937-6.177 8.229-7.871 9.923l-2.438 2.502-.322.336c-.572-.772-1.609-2.459-3.024-4.769-4.318-7.064-8.229-15.199-11.417-23.729-3.096-8.243-5.24-15.936-6.356-28.783-.672-7.714-1.158-16.25-.172-26.352.994-10.309 3.575-20.04 7.271-27.403 5.219-10.417 11.725-16.586 19.875-18.874 2.045-.572 5.226-1.251 8.822-1.251 6.477 0 11.646 2.131 15.371 6.334 2.066 2.316 2.874 5.848 2.073 8.994-.722 2.824-2.702 4.661-5.341 5.898-.679.322-1.458.515-1.458.515s.086.365.779 1.494c2.602 4.197 7.671 6.399 14.635 6.399 1.623 0 3.317-.122 5.033-.357 9.909-1.38 14.37-7.635 16-19.682.636-4.704 1.244-8.658-1.787-13.548-2.123-3.432-8.186-5.455-12.619-5.441-3.968.021-6.063 1.051-7.328 2.374-.057-.193-.336-.522-.408-.701-.45-1.072-.851-2.288-.458-4.461.465-2.574 2.509-4.983 3.589-5.834 2.309-1.852 4.919-3.61 9.144-4.497 2.002-.422 4.111-.801 6.477-.801.5 0 2.181-.007 2.931.05.329.021.379-.122.615-.415 1.451-1.752 3.732-2.71 7.886-2.617 3.196.071 7.457.236 10.81 1.308 2.981.958 4.49 1.873 6.227 3.003 2.016 1.301 4.111 4.032 5.005 6.635 1.33 3.882 2.095 8.715 2.295 14.299.229 11.124 1.809 17.88 4.926 21.906 5.026 6.492 9.323 7.85 14.513 8.179l.565.007c9.802 0 13.376-3.103 14.971-5.469 0 0 .865-1.215 1.223-1.909-1.244-.229-2.038-.522-2.038-.522-2.495-.937-4.261-2.931-4.983-5.619-.865-3.203-.086-6.713 2.016-9.158 4.647-5.398 11.568-6.277 15.271-6.327h.422c2.903 0 5.734.429 8.415 1.28 3.653 1.151 6.813 2.774 9.401 4.826 5.083 4.068 8.293 9.623 10.517 13.998 3.646 7.149 6.37 17.401 7.271 27.389z" fill="#fff" />
</svg>