<?xml version="1.0" encoding="UTF-8" standalone="no"?>

<svg
   version="1.1"
   id="Layer_1"
   x="0px"
   y="0px"
   viewBox="0 0 373.79998 364.60001"
   xml:space="preserve"
   width="373.79999"
   height="364.60001"
   xmlns="http://www.w3.org/2000/svg"
   xmlns:svg="http://www.w3.org/2000/svg"
   style="background-color:#ee213b"><defs
   id="defs13" />&#10;<style
   type="text/css"
   id="style1">&#10;	.st0{fill:#F9383D;}&#10;	.st1{fill:#FFFFFF;}&#10;	.st2{fill-rule:evenodd;clip-rule:evenodd;fill:#FFFFFF;}&#10;</style>&#10;&#10;&#10;&#10;&#10;&#10;&#10;&#10;&#10;&#10;&#10;&#10;&#10;&#10;<path
   d="m 267.766,113.44176 -35.11786,56.60546 -35.12815,-56.60546 h -31.33627 v 17.69041 C 158.34705,119.24565 145.21206,113.44176 126.2473,113.44176 H 74.702904 v 137.71649 h 52.060286 c 16.92177,0 30.07228,-4.80317 39.42053,-14.66205 v 14.66205 h 32.59507 v -88.19454 l 30.56755,52.30274 h 6.58298 l 30.56755,-52.30274 v 88.19454 h 32.60021 V 113.44176 Z m -101.58228,51.04387 v 21.47207 c -4.30267,-3.78662 -9.34825,-7.06272 -15.42047,-9.60103 6.82027,-3.02313 11.87104,-7.07298 15.42047,-11.87104 m -56.86856,27.01815 h 13.41362 c 6.29923,0 11.35515,1.79014 14.63632,5.56144 2.79105,3.29673 4.29753,7.85741 4.29753,13.15573 0,12.37146 -7.06795,18.44372 -21.2193,18.44372 h -11.12817 z m 7.33106,-22.47295 h -7.33106 v -33.3535 h 7.33106 c 13.40329,0 19.96564,5.55119 19.96564,16.67422 0,11.11258 -6.56235,16.67928 -19.96564,16.67928"
   style="fill:#ffffff;fill-opacity:1;fill-rule:nonzero;stroke:none;stroke-width:5.15907"
   id="path76" /></svg>
