<svg xmlns="http://www.w3.org/2000/svg" width="373.8" height="364.6">
  <rect width="373.8" height="364.6" fill="#ffffff" />
  <path d="M157.404 172.332h0l20.401 9.911 25.398-12.368c.837-.42 1.649-.89 2.429-1.408l-48.201-23.438v27.303zm-24.542 98.996a18.22 18.22 0 0 0 6.018 13.803c3.148 2.77 7.181 4.327 11.374 4.389 2.762.015 5.487-.628 7.951-1.877l56.648-29.152a47.9 47.9 0 0 0 25.812-48.145 46.02 46.02 0 0 0-6.211-18.386 60.94 60.94 0 0 1-15.101 10.546l-5.521 2.761a23.99 23.99 0 0 1 2.457 11.76c-.607 8.616-5.749 16.259-13.499 20.07l-44.17 22.665a.88.88 0 0 1-.866-.021c-.265-.158-.429-.443-.431-.752v-39.201l-24.294 12.064z" fill="#2c4ef7" />
  <path d="M214.853 105.994L158.95 77.284c-5.07-2.743-11.136-2.937-16.371-.525-5.964 2.918-9.737 8.986-9.717 15.625v46.351.386 14.576c.014 4.364 2.555 8.325 6.515 10.159l17.999 8.475v-66.89a.8.8 0 0 1 1.159-.69l44.17 22.72a24.35 24.35 0 0 1 13.499 20.07 23.19 23.19 0 0 1-13.196 22.361l-26.944 13.113-35.529 16.564a13.36 13.36 0 0 0-6.073 5.825c-.497.811-.886 1.684-1.159 2.595v.221a12.12 12.12 0 0 0-.442 4.389v19.324l47.676-23.603h0l31.83-15.598a49.69 49.69 0 0 0 28.296-38.649c2.281-19.847-8.011-39.022-25.812-48.09z" fill="#f45e1d" />
</svg>