<svg xmlns="http://www.w3.org/2000/svg" width="373.8" height="364.6">
  <rect width="373.8" height="364.6" fill="#ee213b" />
  <path d="M267.766 113.442l-35.118 56.605-35.128-56.605h-31.336v17.69c-7.837-11.887-20.972-17.69-39.936-17.69H74.703v137.716h52.06c16.922 0 30.072-4.803 39.421-14.662v14.662h32.595v-88.195l30.568 52.303h6.583l30.568-52.303v88.195h32.6V113.442zm-101.582 51.044v21.472c-4.303-3.787-9.348-7.063-15.42-9.601 6.82-3.023 11.871-7.073 15.42-11.871m-56.869 27.018h13.414c6.299 0 11.355 1.79 14.636 5.561 2.791 3.297 4.298 7.857 4.298 13.156 0 12.371-7.068 18.444-21.219 18.444h-11.128zm7.331-22.473h-7.331v-33.353h7.331c13.403 0 19.966 5.551 19.966 16.674 0 11.113-6.562 16.679-19.966 16.679" fill="#fff" />
</svg>