<svg xmlns="http://www.w3.org/2000/svg" width="373.8" height="364.6" style="background-color:#003f5f" fill="#fff"><path d="M106.837 174.931c-7.078 0-11.324 2.248-15.988 6.079v-44.632l-14.572 2.665c2.082.666 4.33.999 4.33 4.496v34.057h0v42.3c0 5.079-2.332 7.494-4.163 8.244 0 0 7.411.749 11.574-3.081 3.747 1.665 8.493 3.081 13.073 3.081 18.652 0 27.978-14.988 27.978-27.978 0-11.158-7.661-25.23-22.233-25.23zm-4.08 49.045c-8.826 0-11.907-4.996-11.907-4.996v-33.973c3.164-3.497 7.827-4.33 11.574-4.33 6.661 0 15.738 4.663 15.738 19.901-.083 17.57-9.742 23.398-15.405 23.398zm175.696-2.249c-12.324 0-18.569-9.742-18.569-20.9v-3.081h37.637c0-16.404-11.991-22.899-21.816-22.899-17.819 0-26.729 14.822-26.729 26.896 0 13.156 9.992 26.479 26.396 26.479 12.407 0 21.4-8.826 21.733-17.903-2.248 5.079-10.492 11.408-18.652 11.408zm-4.163-42.966c6.412 0 12.574 4.08 12.574 14.822h-26.479c.916-7.577 5.412-14.822 13.906-14.822zm-34.473 11.408v33.474c0 2.498 1.166 3.247 3.081 4.247 0 0-13.073 2.332-13.073-7.161v-27.145c0-6.661-3.331-12.324-12.407-12.324-4.746 0-9.826 3.164-12.74 7.078.167.5.25 1.082.25 1.665v33.724c0 2.498 1.166 3.247 3.081 4.247 0 0-13.323 1.249-13.323-6.995v-27.895c0-6.412-2.831-11.907-12.24-11.907-5.412 0-9.659 3.164-11.907 5.746v36.721c0 2.498 1.416 3.247 3.331 4.247H157.3c1.915-.999 3.081-1.832 3.081-4.247V182.01c0-3.497-2.248-3.914-4.247-4.496l14.405-2.665v7.744c2.831-2.165 9.16-7.744 17.237-7.744 6.578 0 13.656 3.497 16.071 9.909 3.664-4.58 11.075-9.909 18.652-9.909 7.911 0 17.403 4.83 17.32 15.321m-91.431-53.793v87.515c0 2.498 1.166 3.247 3.081 4.247 0 0-13.323.25-13.323-7.577v-77.023c0-3.497-2.248-3.83-4.33-4.496z" /></svg>
