<svg xmlns="http://www.w3.org/2000/svg" width="373.8" height="364.6">
  <rect width="373.8" height="364.6" fill="#b11116" />
  <defs>
    <clipPath id="A">
      <path fill="#fff" transform="translate(0 .364)" d="M0 0h119.978v31.289H0z" />
    </clipPath>
  </defs>
  <g clip-path="url(#A)" transform="matrix(6.810859 0 0 6.810859 116.018295 73.27027)">
    <path fill-rule="evenodd" d="M.186 24.005c.18.471.538.912 1.094 1.351.818.644 6.951 4.786 8.812 6.022l.41.275.337-.229 8.695-6.068c.558-.441.915-.882 1.094-1.352.288-.751.177-1.341.095-1.769l-.004-.02c-.04-.209-1.254-7.655-1.91-11.192a51.79 51.79 0 0 0-8.212-.653c-.062 0-.122.005-.184.005v19.293l-7.988-5.369c-.363-.286-.591-.55-.682-.786-.149-.387-.093-.718-.027-1.055.044-.231 1.361-8.208 1.994-11.61-.576.078-1.015.153-1.586.249L.091 22.218c-.08.443-.193 1.031.095 1.788zm4.875-10.158h.665v.579h.576v-.616h.698v.616h.55v-.579h.665v1.5H5.061zm.519 1.76h2.116l.731 5.937H4.854zm-1.128 6.219h4.374v1.498H7.651v-.387H5.628v.387H4.453zm1.693-2.978h1.001v-.371H6.146zm.991-1.541H6.137v.371h1.001zm-1.001 2.714h1.001v-.371H6.137zM5.493 7.996c-.414.052-.7.09-1.072.21l-.288 1.505c2.083-.297 4.206-.465 6.368-.465a44.98 44.98 0 0 1 5.994.415c-.104-.502-.211-1.127-.275-1.458-.259-.103-.6-.173-1.037-.208 1.385-.33 2.222-1.31 2.222-2.258 0-1.249-.973-2.24-3.363-2.483-.851-.673-2.027-.961-3.049-1.046.253-.181.421-.487.421-.836 0-.557-.554-1.009-1.083-1.009S9.25.816 9.25 1.373c0 .347.166.653.419.836-1.022.085-2.198.371-3.049 1.046-2.389.242-3.363 1.234-3.363 2.483 0 .952.846 1.932 2.236 2.258zm9.051-3.965s1.815.168 1.797 1.764c-.013 1.269-1.376 1.958-3.095 1.74 2.373-.974 1.864-2.825 1.298-3.504zm-3.656-.945c1.524.14 2.708 1.101 2.708 2.28s-1.221 2.17-2.778 2.284c.315-.428.534-1.308.534-2.334 0-.948-.188-1.771-.465-2.231zm-1.11 0c-.277.459-.463 1.282-.463 2.231 0 1.028.219 1.906.534 2.334-1.556-.114-2.778-1.089-2.778-2.284 0-1.181 1.185-2.14 2.706-2.28zm-3.656.945c-.565.679-1.073 2.529 1.298 3.504-1.72.218-3.082-.47-3.095-1.74-.018-1.598 1.797-1.764 1.797-1.764zm8.989 20.559l.055-.212.352-.055c.222-.144.2-.611.419-.744.102-.063.155.026.204.087.069-.151.049-.387.122-.566.184-.454.59-.709.434-1.487-.009-.011-.018-.024-.027-.035-.069.101-.089.183-.177.266-.58-.035-.366-1.345.027-1.465.279.782 1.5 1.009 1.573-.029.015-.207-.157-.485-.359-.812.084-.323.215-.588.334-.758.071-.1-.326.079-.518.448.082-.345.222-.629.348-.806.066-.094-.284.059-.485.387.082-.343.221-.622.345-.799.075-.105-.372.098-.549.507a1.86 1.86 0 0 1-.1-.616c.013-.487.148-1.461.346-2.245.049-.223.166-.646.483-.821-.252-.065-.678.162-.662.651-.071-.718-.601-.961-.871-1.004.871.782.151 2.561.16 3.4.009 1.055 1.256 2.153 1.066 2.526-.281.553-.813-.498-.973-.836s-.735-.858-1.141-1.268c.242-.181.523-.618.528-1.098l.122.14h.053c-.056-.441.115-.9-.027-1.306h.204c-.06-1.943-1.449-1.539-2.129-1.38-.015.035-.027.072-.04.105l.272.017v.017l-.217.072a.73.73 0 0 0 .162.6c.066-.144.076-.199.204-.266.168.085.266.371.164.635-.124.048-.239.026-.284-.12h-.014c-.075.282-.044.583.162.775.011-.242.091-.349.299-.338-.06.589-.45.452-.84.607-.724.288-.919 1.382-1.571 1.565.056.26.312.483.501.579-.098.177-.492.745-.678.764-.069-.09-.131-.197-.244-.229l-.339.09-.055.124.149.035c-.005.07-.009.14-.013.21.097.018.222.026.312.068.005.018.009.035.015.053-.106-.02-.217-.074-.326-.033-.067.052-.228.332-.19.459v.035l.095-.088c.071.02.066.037.082.122.022.013.046.024.067.035l.257-.249h.015c.009.017.018.035.027.053l-.231.249c-.013.14-.033.301-.013.494l.162-.161c.213.209.339-.064.461-.269.075.068.148.078.244.087a5.2 5.2 0 0 0 .015.159h.013c.341-.338-.095-.627.312-1.026.186.118.33.087.516-.004.031-.048.064-.094.095-.142-.106-.035-.166-.089-.217-.194.004-.076.004-.085.027-.124.082-.184.372-.16.541-.092.436.177.696.574 1.017.893-.027.404-.076.928.013 1.306s.35.533.257 1.004c.16-.011.253-.09.312-.231l.19.015c-.166.316-.466.904-.786.994-.297.083-.417-.284-.693-.19l-.122.125c-.131.066-.166-.026-.244.142v.053l.149.017c.015.064.027.129.04.194l.231-.267c.004.013.009.024.013.035-.113.111-.2.281-.284.426-.016.111 0 .196.015.301.009.006.018.013.027.017l.082-.142h.055l.067.105h.055l.082-.441c.013-.013.027-.024.04-.037.004.006.009.011.013.017-.078.236-.12.487-.053.758a.72.72 0 0 1 .053.053c.014-.041.027-.083.04-.125.06-.055.098-.077.217-.072.015-.192-.049-.363.08-.476-.087.186-.066.478-.013.707.031.029.062.053.093.078m-.222-9.621v-.24c.168-.005.381-.022.488.05l-.488.19zm.319 7.201v-.017c-.168-.135-.738-.83-.556-1.249.075-.223.284-.168.406-.055l.027-.371c-.111-.174-.379-.245-.27-.546-.724-.588-.671.406-1.289.399.026.223.133.397.326.404 0 .463.175.788.379.985.005.017.009.035.014.053-.273.033-.62.079-.815-.083-.241-.199-.293-.504-.705-.472v.018a3.44 3.44 0 0 1 .068.105c.009.063-.018.087-.04.16v.018l.231.068h.027v.07c-.226-.042-.457-.041-.543.216v.018h.137a.53.53 0 0 1 .08.245l.244-.284h.014c-.044.262-.264.34-.284.655v.018c.049 0 .104-.05.162-.088l.135.14c.055-.065.088-.214.107-.319h.055c-.038.192-.139.426-.067.618.022.029.046.059.067.087l.055-.175c.084-.061.137.057.284 0 .168-.068.166-.295.406-.303.06.072.093.109.095.264.155-.044.204-.205.339-.249.467-.162.578.066.908-.33zm-1.196-6.214c.306-.031.412-.378.738-.395v-.024c-.08-.011-.146-.035-.233-.011-.151.041-.857.435-.58-.179-.226.092-.317.651.075.609zm-2.167 1.561v.018c.077.096.25.07.379.068l.149-.231h.027l.474.614h.027c.151-.148.257-.349.381-.531-.053-.299-.388-.435-.474-.72-.1-.328.211-.775-.19-1.004-.005.164-.067.207-.082.301l.027.282v.035h-.014c-.06-.076-.047-.183-.095-.282-.051-.109-.29-.244-.406-.262v.018c.04.116.011.214.027.317l.177.299v.07h-.04l-.19-.227c-.1-.05-.283 0-.381.037.04.048.082.094.122.14.089.159.538.683.08 1.055zm2.748-4.004a.9.9 0 0 1 .477-.162.16.16 0 0 1-.066-.131c0-.087.086-.157.169-.157s.169.07.169.157a.16.16 0 0 1-.066.131c.16.013.343.057.477.162.374.039.525.194.525.389 0 .162-.157.336-.415.367-.009.055-.016.135-.024.164-.157-.042-.441-.072-.669-.072s-.545.037-.669.072c-.005-.03-.013-.109-.024-.164-.259-.031-.414-.205-.414-.367.002-.196.153-.351.527-.389zm1.52.395c0-.22-.262-.242-.262-.242.082.094.157.347-.19.482.252.03.45-.065.452-.24zm-.428-.065c0-.164-.186-.297-.423-.317.044.065.073.179.073.31 0 .142-.035.266-.084.325.242-.015.434-.151.434-.317zm-.587.317c-.049-.059-.084-.183-.084-.325 0-.133.029-.247.073-.31-.239.02-.423.153-.423.317s.191.303.434.317zm-.408-.007c-.35-.135-.275-.393-.191-.487 0 0-.268.022-.264.243 0 .177.202.273.456.244z" fill="#d5b527" />
  </g>
</svg>