<svg xmlns="http://www.w3.org/2000/svg" width="373.8" height="364.6" style="background-color:#ffffff"><path d="M117.108 272.597c-16.095 0-29.154-13.002-29.154-29.039V104.088c0-16.038 13.059-29.039 29.154-29.039h139.641c16.095 0 29.097 13.002 29.097 29.039V243.5c0 16.038-13.059 29.039-29.154 29.039h-28.008c-9.279.401-36.944 3.036-41.583 17.011-4.639-13.976-32.304-16.668-41.583-17.011h-28.409zM270.266 100.48c-.057-.344-.515-1.375-1.489-1.489-.63-.172-2.234-.172-3.895-.115-.745 0-1.26.115-4.124.286l-2.234.172-2.177.172h-.458l-1.718.115-2.692.172c-2.062.172-2.463.344-4.983-.63-2.005-.802-4.353-1.26-6.988-1.718-2.406-.401-4.754-.515-7.102-.687h-3.952c-4.983 0-10.253.458-15.694 1.317-5.957.974-10.94 2.348-15.808 3.838l-2.978.916c-3.895 1.26-7.961 2.577-12.372 2.234-3.494-.286-6.472-2.234-9.451-4.296l-.974-.745c-7.675-5.67-12.2-7.847-13.575-6.415l-.057.115c-.401.458-.573.916-.515 1.489 0 .286.115.515.172.802l.057.115.859 1.432.401.687c2.864 4.296 3.838 8.133 4.181 10.654.115 1.031.115 1.89.115 2.463-.172 2.635-.974 6.472-2.921 9.508l-1.432 2.234c-21.765 32.82-31.96 64.666-30.414 94.679v.229c.115 1.203.687 7.217-3.15 8.649l-1.776.573c-4.869 1.661-15.007 5.098-23.197 12.601-1.317 1.146-2.234 2.348-2.692 3.494-.115.344-.172.63-.115.802v.115h0c.401.115 1.203 0 2.348-.344 4.067-1.489 8.763-1.947 13.231-2.291 4.869-.401 10.195-1.718 13.174-3.551l.344-.115s.974.916 1.375 1.203c.344.172.916.573 1.432.745.516.229 3.265 1.031 3.78 1.203.573.115 2.291.63 2.291.63l.974.286 1.088.401c.687.286 1.146.515 2.119 1.088.859.458 3.265 2.119 4.639 3.15l2.807 2.291 1.317 1.203s.859.745.859.802c.172.115.458.515.63.458.172 0 .286-.802.286-1.203v-.687c0-.974 0-1.947-.172-2.921-.172-1.317-.401-2.577-.802-3.838-.745-2.406-1.718-4.582-2.864-6.415a25.22 25.22 0 0 0-2.234-2.978l-2.921-2.749-2.291-2.062c-1.375-1.432-2.234-3.036-2.463-4.582v-1.26c1.088-12.658 3.379-29.956 23.884-57.449 23.942-32.132 46.051-41.182 51.263-42.958 3.608-1.26 4.009-1.146 4.238-.63 0 .057 0 .115.057.172.057.573-1.26.859-8.763 4.926-5.67 3.036-18.787 10.883-31.159 24.858-16.897 18.787-26.175 34.824-32.648 54.356 6.071-11.513 16.324-26.462 32.877-38.433 25.03-18.214 40.552-26.004 46.051-28.524l.687-.344v.802c0 .344.057.745.115 1.088.515 4.181 3.208 7.503 4.811 9.508l.63.745c1.89 2.406 3.036 5.327 3.437 8.649.115 1.031.172 1.546.172 2.177v2.234c0 1.203.172 1.546.573 1.604.458.057 1.088-.229 1.718-.687.687-.515 1.088-.916 1.947-2.062 1.26-2.005 2.348-4.009 2.864-6.3s.63-4.983.229-8.076c-.172-1.432-.458-2.978-.859-4.639-.802-3.322-1.89-6.644-3.494-10.31l-.229-.515s-.172-.458-.229-.802c-.115-.687 0-1.604.802-2.291 5.9-4.525 10.711-12.2 13.288-16.324l1.546-2.348c1.718-2.348 2.348-2.978 13.918-6.93l2.807-.974c2.52-.859 3.494-1.661 3.551-2.864v-.229" fill="#d3d3d3"/></svg>
