<?xml version="1.0" encoding="UTF-8" standalone="no"?>
<svg
   version="1.1"
   id="Layer_1"
   x="0px"
   y="0px"
   viewBox="0 0 373.79998 364.60001"
   xml:space="preserve"
   width="373.79999"
   height="364.60001"
   xmlns="http://www.w3.org/2000/svg"
   xmlns:svg="http://www.w3.org/2000/svg"
   style="background-color:#ffffff"><defs
   id="defs13" />&#10;<style
   type="text/css"
   id="style1">&#10;	.st0{fill:#F9383D;}&#10;	.st1{fill:#FFFFFF;}&#10;	.st2{fill-rule:evenodd;clip-rule:evenodd;fill:#FFFFFF;}&#10;</style>&#10;&#10;&#10;&#10;&#10;&#10;&#10;&#10;&#10;&#10;&#10;&#10;&#10;&#10;<path
   class="cls-1"
   d="m 117.10819,272.59693 c -16.0948,0 -29.153931,-13.00184 -29.153931,-29.03936 V 104.08848 c 0,-16.037505 13.059131,-29.039344 29.153931,-29.039344 H 256.7491 c 16.09479,0 29.09663,13.001839 29.09663,29.039344 V 243.5003 c 0,16.03752 -13.05911,29.03935 -29.15391,29.03935 h -28.00837 c -9.27885,0.40093 -36.94357,3.03567 -41.58298,17.01122 -4.63943,-13.97555 -32.30413,-16.66756 -41.58298,-17.01122 h -28.4093 z M 270.26643,100.48005 c -0.0572,-0.34368 -0.51549,-1.374642 -1.48919,-1.489206 -0.63005,-0.171836 -2.2338,-0.171836 -3.89483,-0.114579 -0.7446,0 -1.26009,0.114579 -4.12394,0.286383 0,0 -1.54647,0.114579 -2.23379,0.171819 l -2.17651,0.171837 h -0.45822 c 0,0 -1.71831,0.114579 -1.71831,0.114579 l -2.69201,0.171837 c -2.06197,0.171831 -2.4629,0.34365 -4.98309,-0.630039 -2.00468,-0.801875 -4.35303,-1.260095 -6.98777,-1.718314 -2.40562,-0.400929 -4.75398,-0.515492 -7.10233,-0.687312 h -3.9521 c -4.98309,0 -10.25256,0.458203 -15.69385,1.317368 -5.9568,0.973695 -10.93987,2.348347 -15.80841,3.837537 l -2.97839,0.91644 c -3.89483,1.26008 -7.96148,2.57744 -12.3718,2.23379 -3.49388,-0.28638 -6.47227,-2.23379 -9.45068,-4.29576 l -0.9737,-0.7446 c -7.67509,-5.6704 -12.19996,-7.846933 -13.5746,-6.415002 0,0 0,0 -0.0572,0.11458 -0.40093,0.458219 -0.57276,0.916438 -0.51549,1.489203 0,0.286383 0.11458,0.515493 0.17184,0.801876 0,0 0.0572,0.114579 0.0572,0.114579 l 0.85915,1.431931 0.40095,0.687312 c 2.86384,4.295771 3.83754,8.133311 4.18121,10.653501 0.11458,1.03097 0.11458,1.89013 0.11458,2.4629 -0.17182,2.63474 -0.9737,6.47228 -2.92112,9.50796 l -1.43191,2.23379 c -21.7652,32.81962 -31.96048,64.66554 -30.414,94.67861 0,0 0,0.11458 0,0.22911 0.11458,1.2028 0.68731,7.21687 -3.15023,8.64879 l -1.77559,0.57278 c -4.86852,1.66102 -15.00652,5.09763 -23.197111,12.60089 -1.31736,1.14555 -2.2338,2.34835 -2.69202,3.49389 -0.11458,0.34367 -0.17182,0.63005 -0.11458,0.80187 0,0 0,0.11458 0,0.11458 v 0 c 0.40095,0.11458 1.20282,0 2.34835,-0.34366 4.066651,-1.4892 8.763361,-1.94742 13.230951,-2.29107 4.86853,-0.40095 10.19527,-1.71832 13.17368,-3.55118 l 0.34365,-0.11458 c 0,0 0.97371,0.91644 1.37464,1.20282 0.34366,0.17182 0.91644,0.57277 1.43193,0.74459 0.5155,0.22911 3.26478,1.03098 3.78027,1.20282 0.57277,0.11458 2.29106,0.63004 2.29106,0.63004 l 0.97371,0.28638 c 0,0 0.80188,0.28638 1.08826,0.40095 0.68733,0.28638 1.14555,0.51549 2.11925,1.08826 0.85916,0.45821 3.26479,2.11924 4.63943,3.15022 0.97369,0.80188 2.80655,2.29108 2.80655,2.29108 l 1.31737,1.20281 c 0,0 0.85916,0.7446 0.85916,0.80187 0.17182,0.11458 0.45821,0.51549 0.63004,0.45822 0.17184,0 0.28639,-0.80187 0.28639,-1.20282 v -0.68731 c 0,-0.97371 0,-1.94743 -0.17184,-2.92112 -0.17182,-1.31737 -0.40093,-2.57746 -0.80188,-3.83756 -0.74458,-2.40562 -1.71829,-4.58214 -2.86382,-6.415 -0.68733,-1.08826 -1.48921,-2.11924 -2.23381,-2.97839 l -2.92112,-2.7493 -2.29108,-2.06195 c -1.37464,-1.43193 -2.23379,-3.03568 -2.4629,-4.58216 0,-0.22911 0,-0.7446 0,-1.26009 1.08826,-12.65817 3.37934,-29.95578 23.88444,-57.44867 23.94173,-32.13229 46.05057,-41.18203 51.26277,-42.95762 3.60845,-1.26009 4.00938,-1.14553 4.23849,-0.63004 0,0.0572 0,0.11458 0.0572,0.17182 0.0572,0.57279 -1.26007,0.85917 -8.76335,4.92582 -5.6704,3.03568 -18.7868,10.88259 -31.1586,24.85815 -16.89665,18.7868 -26.1755,34.82432 -32.64779,54.3557 6.07134,-11.51263 16.3239,-26.46189 32.8769,-38.43275 25.02998,-18.21403 40.55201,-26.00368 46.05057,-28.52386 l 0.68733,-0.34366 v 0.80187 c 0,0.34366 0.0572,0.74461 0.11458,1.08826 0.51549,4.18122 3.2075,7.50328 4.81127,9.50796 l 0.63004,0.7446 c 1.89013,2.40563 3.03566,5.32674 3.43661,8.64881 0.11458,1.03098 0.17183,1.54646 0.17183,2.17651 0,0.80188 0,1.60375 0,2.23379 0,1.20282 0.17182,1.54648 0.57277,1.60375 0.4582,0.0572 1.08826,-0.22911 1.7183,-0.68731 0.68732,-0.51549 1.08825,-0.91644 1.94742,-2.06197 1.26008,-2.00469 2.34833,-4.00937 2.86383,-6.30045 0.51549,-2.29108 0.63005,-4.98309 0.22911,-8.07603 -0.17182,-1.43193 -0.45822,-2.97841 -0.85915,-4.63943 -0.80188,-3.32205 -1.89013,-6.64411 -3.49389,-10.30983 l -0.2291,-0.51549 c 0,0 -0.17184,-0.45822 -0.22911,-0.80188 -0.11458,-0.68731 0,-1.60375 0.80187,-2.29106 5.89951,-4.52489 10.71078,-12.19998 13.28822,-16.3239 l 1.54648,-2.34836 c 1.71831,-2.34835 2.34835,-2.97839 13.91828,-6.93049 l 2.80655,-0.97371 c 2.52019,-0.85915 3.49389,-1.66102 3.55118,-2.86385 0,-0.0572 0,-0.11458 0,-0.22911"
   id="path1-7"
   fill="#d3d3d3"
   style="stroke-width:5.72769" /></svg>
