<svg xmlns="http://www.w3.org/2000/svg" width="373.8" height="364.6">
  <rect width="373.8" height="364.6" fill="#ffffff" />
  <path d="M-343.629 230.423c.213 0 .413-.058.621-.063h-1.242c.208.004.408.063.621.063m914.375 0c.213 0 .408-.058.617-.063h-1.238c.208.004.408.063.621.063" fill="#4c4c4e" fill-rule="nonzero" />
  <path d="M375.15 287.306l1.729-1.129-1.729 1.129" fill="#082240" fill-rule="nonzero" />
  <path d="M186.684 213.011c-12.049 0-21.805 9.75-21.805 21.799 0 12.058 9.755 21.808 21.805 21.808a21.79 21.79 0 1 0 0-43.607" fill="#00a7cf" fill-rule="nonzero" />
  <path d="M186.9 90.864c10.705 0 19.891 6.488 23.858 15.739l75.025 167.133h-36.029L186.9 126.734l-62.853 147.001H88.017l75.028-167.133c3.964-9.25 13.15-15.739 23.855-15.739" fill="#082240" fill-rule="nonzero" />
</svg>