<svg xmlns="http://www.w3.org/2000/svg" width="373.8" height="364.6">
  <rect width="373.8" height="364.6" fill="#ffffff" />
  <style><![CDATA[.B{clip-rule:nonzero}.C{fill:#ffdc23}.D{fill:#008e96}]]></style>
  <defs>
    <clipPath id="A">
      <path d="M7.168 2.043h22v16.441h-22zm0 0" class="B" />
    </clipPath>
    <clipPath id="B">
      <path d="M7.219 9.059c1.738-4.078 5.777-6.93 10.484-6.93v.324-.324c4.703 0 8.742 2.852 10.477 6.926l-.301.125.301-.125a11.35 11.35 0 0 1 .91 4.469h-.328.328a11.32 11.32 0 0 1-1.105 4.902l-.594-.285c.668-1.402 1.035-2.965 1.035-4.617 0-1.496-.305-2.918-.859-4.211-1.629-3.836-5.437-6.527-9.863-6.527S9.465 5.477 7.828 9.313zm0 0" class="B" />
    </clipPath>
    <clipPath id="C">
      <path d="M27.129 17.691h.793v.906h-.793zm0 0" class="B" />
    </clipPath>
    <clipPath id="D">
      <path d="M27.473 18.535l-.293-.227.371-.543a4.1 4.1 0 0 1 .348.27zm0 0" class="B" />
    </clipPath>
    <clipPath id="E">
      <path d="M24.18 18.031h5.328v7.598H24.18zm0 0" class="B" />
    </clipPath>
    <clipPath id="F">
      <path d="M27.902 18.035c.398.336.73.738.984 1.199l-.289.156.289-.16c.129.227.23.465.309.715.141.418.219.871.219 1.344h-.328.328a4.27 4.27 0 0 1-4.266 4.27v-.328.328a4.49 4.49 0 0 1-.957-.109l.148-.645a3.47 3.47 0 0 0 .809.094 3.61 3.61 0 0 0 3.605-3.609 3.63 3.63 0 0 0-.184-1.137l.316-.102-.316.102a3.37 3.37 0 0 0-.262-.605c-.215-.387-.5-.73-.832-1.016zm0 0" class="B" />
    </clipPath>
    <clipPath id="G">
      <path d="M21.91 23.477h.906v.906h-.906zm0 0" class="B" />
    </clipPath>
    <clipPath id="H">
      <path d="M22.207 24.359a4.42 4.42 0 0 1-.277-.625l.621-.223c.07.188.145.367.234.531zm0 0" class="B" />
    </clipPath>
    <clipPath id="I">
      <path d="M21.57 18h7.258v5.816H21.57zm0 0" class="B" />
    </clipPath>
    <clipPath id="J">
      <path d="M21.926 23.73c-.156-.449-.25-.93-.25-1.43h.328-.328c0-2.355 1.91-4.273 4.266-4.273v.328-.328c.488 0 .957.086 1.391.234l-.105.313.105-.312.285.109-.125.301.125-.301c.449.191.848.453 1.199.777l-.445.484a3.55 3.55 0 0 0-1.012-.656l-.242-.09a3.66 3.66 0 0 0-1.176-.199c-1.988 0-3.605 1.617-3.605 3.613a3.53 3.53 0 0 0 .211 1.207zm0 0" class="B" />
    </clipPath>
    <clipPath id="K">
      <path d="M7.395 4.082H23.84v22.91H7.395zm0 0" class="B" />
    </clipPath>
    <clipPath id="L">
      <path d="M23.762 25.77a11.35 11.35 0 0 1-4.961 1.133v-.328.328a12.02 12.02 0 0 1-1.133-.055l.035-.328-.035.328c-4.215-.418-7.75-3.129-9.348-6.871l.305-.125-.305.125a11.35 11.35 0 0 1-.91-4.469h.328-.328A11.4 11.4 0 0 1 17.672 4.164l.063.656a10.74 10.74 0 0 0-9.668 10.688c0 1.496.305 2.918.859 4.211 1.508 3.527 4.836 6.082 8.805 6.473.355.035.707.059 1.07.059a10.69 10.69 0 0 0 4.672-1.074zm0 0" class="B" />
    </clipPath>
    <clipPath id="M">
      <path d="M22.477 24.383h1.363v1.359h-1.363zm0 0" class="B" />
    </clipPath>
    <clipPath id="N">
      <path d="M23.418 25.738a4.28 4.28 0 0 1-.875-.867l.527-.398c.215.281.465.527.746.738zm0 0" class="B" />
    </clipPath>
    <clipPath id="O">
      <path d="M6.262 9H22.25v15.949H6.262zm0 0" class="B" />
    </clipPath>
    <clipPath id="P">
      <path d="M22.172 24.012a11.35 11.35 0 0 1-4.469.914v-.328.328c-3.871 0-7.293-1.937-9.348-4.887l.273-.187-.273.188c-1.285-1.848-2.043-4.09-2.043-6.512h.328-.328a11.35 11.35 0 0 1 .91-4.469l.609.258a10.73 10.73 0 0 0-.859 4.211 10.71 10.71 0 0 0 1.922 6.137c1.941 2.785 5.16 4.605 8.809 4.605 1.496 0 2.918-.305 4.211-.859zm0 0" class="B" />
    </clipPath>
    <clipPath id="Q">
      <path d="M22.137 24h1.02v.949h-1.02zm0 0" class="B" />
    </clipPath>
    <clipPath id="R">
      <path d="M22.543 24.871l-.336-.512.578-.32a3.72 3.72 0 0 0 .285.43zm0 0" class="B" />
    </clipPath>
    <clipPath id="S">
      <path d="M17.602 4.082h12.586v15.879H17.602zm0 0" class="B" />
    </clipPath>
    <clipPath id="T">
      <path d="M28.691 19.68c.539-1.281.84-2.691.84-4.172h.328-.328c0-2.281-.707-4.395-1.922-6.137-1.945-2.781-5.164-4.605-8.809-4.605v-.328.328l-1.07.051-.062-.656a10.84 10.84 0 0 1 1.133-.055c3.871 0 7.289 1.934 9.344 4.887l-.27.188.27-.187c1.285 1.848 2.043 4.09 2.043 6.512 0 1.566-.32 3.066-.895 4.426zm0 0" class="B" />
    </clipPath>
    <clipPath id="U">
      <path d="M23.383 19.508h6.918v7.145h-6.918zm0 0" class="B" />
    </clipPath>
    <clipPath id="V">
      <path d="M23.813 25.207c.598.441 1.336.699 2.133.699v.328-.328a3.61 3.61 0 0 0 3.609-3.609h.328-.328c0-.867-.309-1.664-.816-2.285l.508-.418c.602.738.969 1.676.969 2.703a4.27 4.27 0 0 1-4.27 4.27c-.949 0-1.816-.309-2.52-.832zm0 0" class="B" />
    </clipPath>
    <clipPath id="W">
      <path d="M20.777 17.012h6.805v8.504h-6.805zm0 0" class="B" />
    </clipPath>
    <clipPath id="X">
      <path d="M24.191 25.449c-.516-.121-.992-.328-1.418-.613-.18-.125-.344-.254-.5-.395l.223-.242-.223.242a4.53 4.53 0 0 1-.492-.531l.262-.207-.262.207c-.562-.727-.902-1.633-.902-2.621h.328-.328c0-2.359 1.91-4.273 4.27-4.273v.328-.328a4.25 4.25 0 0 1 2.406.746l-.375.543c-.578-.395-1.281-.629-2.031-.629-1.992 0-3.609 1.617-3.609 3.613a3.6 3.6 0 0 0 .762 2.215c.125.164.266.313.418.445.137.125.27.238.422.34l-.184.27.184-.27c.355.234.762.414 1.199.512zm0 0" class="B" />
    </clipPath>
    <clipPath id="Y">
      <path d="M28.262 19.051h1.02v1.023h-1.02zm0 0" class="B" />
    </clipPath>
    <clipPath id="Z">
      <path d="M28.738 20.016l-.133-.168c.004 0-.004-.012-.039-.039a5.74 5.74 0 0 0-.195-.176l.441-.488.188.168.074.07.039.043c.008.008.012.016.016.023s.008.016.012.02c.008.012.031.047.102.129zm0 0" class="B" />
    </clipPath>
    <clipPath id="a">
      <path d="M5.125 4.082H28v22.91H5.125zm0 0" class="B" />
    </clipPath>
    <clipPath id="b">
      <path d="M27.047 17.965c.184-.789.285-1.613.285-2.457h.328-.328c0-5.574-4.234-10.152-9.664-10.687-.348-.035-.707-.051-1.066-.051v-.328.328c-3.648 0-6.867 1.82-8.809 4.605a10.7 10.7 0 0 0-1.922 6.133h-.332.328a10.74 10.74 0 0 0 10.73 10.742v.324-.324c.355 0 .715-.02 1.066-.059 1.824-.176 3.512-.816 4.953-1.793l.367.543c-1.527 1.039-3.32 1.715-5.258 1.906l-.031-.328.031.328c-.367.039-.746.055-1.129.055-6.285 0-11.387-5.102-11.387-11.395 0-2.422.758-4.664 2.043-6.512l.273.187-.273-.187c2.059-2.957 5.477-4.891 9.348-4.891a11.94 11.94 0 0 1 1.129.055l-.031.328.031-.328a11.4 11.4 0 0 1 10.258 11.344 11.46 11.46 0 0 1-.301 2.605zm0 0" class="B" />
    </clipPath>
    <clipPath id="c">
      <path d="M25.879 18h2.949v1.734h-2.949zm0 0" class="B" />
    </clipPath>
    <clipPath id="d">
      <path d="M25.945 18.027c.492 0 .957.086 1.391.234l-.105.313.105-.312.285.109-.125.301.125-.301a4.24 4.24 0 0 1 1.203.777l-.449.484a3.55 3.55 0 0 0-1.012-.656l-.242-.09c-.371-.125-.766-.199-1.176-.199zm0 0" class="B" />
    </clipPath>
    <path id="e" d="M3.086 0h29.258v29.031H3.086zm0 0" />
  </defs>
  <g transform="matrix(8.662326 0 0 8.662326 33.465152 56.560897)">
    <g clip-path="url(#A)">
      <g clip-path="url(#B)">
        <use href="#e" fill="#00686b" />
      </g>
    </g>
    <g clip-path="url(#C)" class="D">
      <g clip-path="url(#D)">
        <use href="#e" />
      </g>
    </g>
    <g clip-path="url(#E)" class="D">
      <g clip-path="url(#F)">
        <use href="#e" />
      </g>
    </g>
    <g clip-path="url(#G)" class="C">
      <g clip-path="url(#H)">
        <use href="#e" />
      </g>
    </g>
    <g clip-path="url(#I)" class="C">
      <g clip-path="url(#J)">
        <use href="#e" />
      </g>
    </g>
    <g clip-path="url(#K)">
      <g clip-path="url(#L)">
        <use href="#e" fill="#72bbd7" />
      </g>
    </g>
    <g clip-path="url(#M)" class="C">
      <g clip-path="url(#N)">
        <use href="#e" />
      </g>
    </g>
    <g clip-path="url(#O)">
      <g clip-path="url(#P)">
        <use href="#e" fill="#00686b" />
      </g>
    </g>
    <g clip-path="url(#Q)" class="C">
      <g clip-path="url(#R)">
        <use href="#e" />
      </g>
    </g>
    <g clip-path="url(#S)">
      <g clip-path="url(#T)">
        <use href="#e" fill="#72bbd7" />
      </g>
    </g>
    <g clip-path="url(#U)" class="C">
      <g clip-path="url(#V)">
        <use href="#e" />
      </g>
    </g>
    <g clip-path="url(#W)" class="D">
      <g clip-path="url(#X)">
        <use href="#e" />
      </g>
    </g>
    <g clip-path="url(#Y)" class="C">
      <g clip-path="url(#Z)">
        <use href="#e" />
      </g>
    </g>
    <g clip-path="url(#a)" class="D">
      <g clip-path="url(#b)">
        <use href="#e" />
      </g>
    </g>
    <g clip-path="url(#c)" class="C">
      <g clip-path="url(#d)">
        <use href="#e" />
      </g>
    </g>
  </g>
</svg>