<svg xmlns="http://www.w3.org/2000/svg" width="373.8" height="364.6" fill="#fff">
  <rect width="373.8" height="364.6" fill="#6c207e" />
  <path d="M159.625 93.24c4.338 32.088-6.534 48.985-34.248 49.103v27.759c14.937.935 31.326 7.341 34.248 21.344 4.156 19.919-2.069 40.909 0 57.642 3.947 31.843 28.522 44.048 68.505 39.502v-25.627c-2.686-.209-5.69-.1-8.694.018-5.154.191-10.309.381-13.784-1.089-14.964-22.396 4.673-70.456-11.77-91.79-5.817-7.541-12.469-8.866-22.487-13.884 29.828-5.481 30.981-45.246 26.752-81.128-12.46 6.425-25.3 12.478-38.522 18.149m64.732 41.627c-15.472 3.267-19.42 18.984-11.77 29.901 8.086 11.516 26.97 7.45 32.106 0 9.674-14.075-.844-30.373-15.863-30.373-1.452 0-2.949.154-4.474.472" />
</svg>