<svg xmlns="http://www.w3.org/2000/svg" width="373.8" height="364.6" style="background-color:#152c49" fill="#fff"><path d="M219.101 92.411c15.504 0 30.098 3.924 42.832 10.824V83.96c-13.119-5.719-27.597-8.9-42.832-8.9-59.247 0-107.233 48.012-107.233 107.233 0 59.233 47.987 107.246 107.233 107.246 15.235 0 29.713-3.18 42.832-8.9V176.575a3.82 3.82 0 0 0-3.808-3.808h-63.35a3.82 3.82 0 0 0-3.808 3.808v91.126c-35.868-11.811-61.76-45.576-61.76-85.407-.001-49.642 40.254-89.883 89.894-89.883zm1.129 103.937c0-2.103 1.692-3.808 3.796-3.808h4.848a3.8 3.8 0 0 1 3.796 3.808v20.262c0 2.103-1.692 3.808-3.796 3.808h-4.848a3.8 3.8 0 0 1-3.796-3.808zm41.697-59.329v28.698c0 2.099-1.702 3.814-3.801 3.814h-63.358c-2.099 0-3.801-1.714-3.801-3.814v-28.698h15.802v12.274a2.36 2.36 0 0 0 2.36 2.36h7.056a2.35 2.35 0 0 0 2.348-2.36v-12.274h15.814v12.274a2.36 2.36 0 0 0 2.36 2.36h7.056c1.292 0 2.348-1.056 2.348-2.36v-12.274z"/></svg>