<svg xmlns="http://www.w3.org/2000/svg" width="373.8" height="364.6">
  <rect width="373.8" height="364.6" fill="#ef1c2f" />
  <path d="M168.109 70.503c-73.503 15.383-104.801 102.77-57.817 161.435 12.074 15.076 33.129 28.968 50.342 33.216l6.981 1.723 9.469 14.74c5.208 8.107 9.915 14.596 10.461 14.42s4.786-6.645 9.424-14.375l8.432-14.055 6.527-1.637c34.277-8.596 62.54-36.015 71.886-69.739l1.936-7.255c0-.148-7.739-.254-17.197-.236l-17.197.033-4.343 9.117c-29.663 62.27-124.192 40.104-124.192-29.122 0-69.106 94.229-91.26 124.104-29.178l4.43 9.205 17.197.016c9.459.01 17.197-.104 17.197-.252s-.908-3.547-2.018-7.553c-13.514-48.765-66.144-80.857-115.622-70.503" fill="#fff" fill-rule="evenodd" />
</svg>