<svg xmlns="http://www.w3.org/2000/svg" width="373.8" height="364.6" style="background-color:#022151"><path d="M235.86 173.283c-.331-7.746-2.497-15.433-6.513-22.367l-35.363-61.264c-2.692-4.678-4.558-9.672-5.595-14.816l-1.474 2.557c-8.754 15.162-8.754 33.843 0 49.005l28.293 49.005c8.754 15.162 8.754 33.843 0 49.005l-1.474 2.557a49.29 49.29 0 0 0-5.595-14.816l-25.902-44.869-16.546-28.654c-2.692-4.678-4.558-9.672-5.595-14.816l-1.474 2.557c-8.724 15.117-8.754 33.723-.09 48.855l28.383 49.156c8.754 15.162 8.754 33.843 0 49.005l-1.474 2.557a49.29 49.29 0 0 0-5.595-14.816l-35.363-61.264a49.06 49.06 0 0 1-6.513-26.624c-37.89 9.942-64.017 30.94-64.017 55.263 0 33.828 50.57 61.264 112.947 61.264s112.947-27.421 112.947-61.264c0-24.322-26.127-45.335-64.002-55.218z" fill="#fff"/></svg>