<svg xmlns="http://www.w3.org/2000/svg" width="373.8" height="364.6">
  <rect width="373.8" height="364.6" fill="#000000" />
  <path d="M164.289 173.84c.923 0 1.89.879 2.944 1.362-2.109 3.647-6.46 10.283-8.218 9.185-1.362-.835 2.285-10.547 5.273-10.547m-70.005 19.863c11.777 0 21.269-9.668 26.587-18.149-.264.923-.483 1.802-.747 2.549-1.934 6.328-2.065 13.799 2.988 14.15.352.044.571-.22.747-.659h0c.044-.176.132-.396.176-.615 2.285-7.778 9.712-15.82 10.679-15.732s.527.835.923 4.482 1.758 10.195 8.042 10.195c3.032 0 6.68-2.549 9.888-5.801.483 3.252 2.373 5.273 4.131 5.669 4.79 1.143 9.492-4.395 12.744-9.492 1.23 3.603 3.56 7.031 7.251 7.998 4.351 1.099 11.514-3.691 16.172-8.745-.22 3.647-.088 7.163.791 8.657.747 1.274 1.934 2.505 3.735 2.021.747-.22 1.143-2.417 1.362-5.273h0c.352-7.822 5.757-15.644 10.635-15.644.923 0 1.67.396 2.197.439.747 0 1.538.088 1.802-1.187.439-2.153-1.582-5.229-6.02-4.131-3.032.747-6.24 4.263-8.35 9.976V173.4c.088-2.9-1.406-4.922-3.164-5.273s-1.582.439-1.89 2.021v.044c-1.978 5.449-11.47 14.326-15.952 13.579-3.12-.483-3.252-8.525-3.076-10.767s-2.505-2.681-3.691-2.505c-.527.088-1.143.176-1.802.527-1.89-1.67-4.702-2.637-6.196-2.637-3.516 0-7.339 3.735-9.316 7.91-3.164 4.395-8.394 10.019-11.074 8.877-2.637-1.143-2.417-9.712-2.461-12.436s-1.143-4.834-3.384-4.834c-3.647 0-8.745 5.186-12.568 12.876l6.328-29.575c.967-5.537-1.406-7.559-3.296-7.69s-1.714.835-1.978 3.603c-.483 4.658-1.45 10.371-2.593 15.732-9.053 19.907-20.391 26.059-28.96 26.059-7.603 0-11.645-6.636-11.865-15.513-.396-15.469 8.437-29.619 19.995-29.619 6.68 0 6.108 4.219 8.613 4.219 1.143 0 2.593-.835 2.725-2.549.308-3.647-4.702-6.855-13.008-5.757-13.535 1.846-27.993 18.457-26.279 35.727 1.362 14.062 10.942 18.281 19.16 18.281m128.804-32.121c2.153 0 3.779-1.67 4.131-4.175s-.703-4.395-2.856-4.395c-2.197 0-4.219 1.494-4.57 3.999s1.143 4.57 3.296 4.57m42.933 59.81c-7.778 0-16.567-5.801-16.567-11.118 0-9.141 18.501-11.514 29.971-11.997-1.23 14.238-3.955 23.115-13.403 23.115m18.765-23.159c6.855.044 9.404.264 11.514.615 3.603.527 2.637-3.647 1.362-4.219s-6.46-.615-12.612-.483l1.626-25.708c.22-5.889-1.934-6.855-3.428-6.768s-2.417 1.406-2.856 3.076c-2.988 11.909-10.283 21.445-12.788 20.478-1.406-.527 1.802-10.063 2.637-14.634.835-4.614-3.12-4.658-4.526-4.351-1.187.264-1.011 3.076-1.758 5.801-2.417 8.481-8.745 14.941-14.106 14.941-4.395 0-1.406-19.116.483-27.554 6.24-.352 11.777-.527 14.018-.308 3.647.396 3.823-2.812 3.252-4.526-.308-.879-1.274-.571-2.021-.483-3.296.396-8.657.747-14.15 1.055 1.626-5.537 3.472-11.118-.791-11.118-2.021 0-3.076.615-3.56 2.329-.879 3.076-1.67 5.845-2.373 9.141-5.01.308-9.404.615-11.47.967-1.67.264-2.197 1.362-2.505 2.241-.396 1.187.527 1.802 2.109 1.67l10.942-.703c-5.229 11.074-16.392 24.829-21.533 24.829-2.109 0 1.055-10.898 1.099-13.623.044-2.769-.923-5.098-3.647-5.098-1.494 0-2.549 2.681-2.769 5.493s-4.351 18.413 5.142 18.413c5.098 0 14.37-9.272 19.907-18.852-1.274 8.965-1.802 20.61 7.734 20.61 4.131 0 8.833-3.208 12.173-7.515 0 6.372 2.9 7.119 4.658 7.119 6.855 0 11.382-8.306 13.975-15.557l-.923 18.633c-10.503.352-36.343 2.065-36.343 16.04 0 8.13 10.679 14.941 22.104 14.941 16.26.132 18.545-14.37 19.424-26.894" fill="#fff" />
</svg>