<?xml version="1.0" encoding="UTF-8" standalone="no"?>
<svg
   version="1.1"
   id="Layer_1"
   x="0px"
   y="0px"
   viewBox="0 0 373.79998 364.60001"
   xml:space="preserve"
   width="373.79999"
   height="364.60001"
   xmlns="http://www.w3.org/2000/svg"
   xmlns:svg="http://www.w3.org/2000/svg"
   style="background-color:#000000"><defs
   id="defs13" />&#10;<style
   type="text/css"
   id="style1">&#10;	.st0{fill:#ffffff;}&#10;	.st1{fill:#FFFFFF;}&#10;	.st2{fill-rule:evenodd;clip-rule:evenodd;fill:#FFFFFF;}&#10;</style>&#10;&#10;&#10;&#10;&#10;&#10;&#10;&#10;&#10;&#10;&#10;&#10;&#10;&#10;<g
   id="g4"
   transform="matrix(0.4394513,0,0,0.4394513,74.158017,138.46393)"><path
     class="st0"
     d="m 205.1,80.5 c 2.1,0 4.3,2 6.7,3.1 -4.8,8.3 -14.7,23.4 -18.7,20.9 -3.1,-1.9 5.2,-24 12,-24 M 45.8,125.7 c 26.8,0 48.4,-22 60.5,-41.3 -0.6,2.1 -1.1,4.1 -1.7,5.8 -4.4,14.4 -4.7,31.4 6.8,32.2 0.8,0.1 1.3,-0.5 1.7,-1.5 v 0 c 0,0 0,0 0,0 0.1,-0.4 0.3,-0.9 0.4,-1.4 5.2,-17.7 22.1,-36 24.3,-35.8 2.2,0.2 1.2,1.9 2.1,10.2 0.9,8.3 4,23.2 18.3,23.2 6.9,0 15.2,-5.8 22.5,-13.2 1.1,7.4 5.4,12 9.4,12.9 10.9,2.6 21.6,-10 29,-21.6 2.8,8.2 8.1,16 16.5,18.2 9.9,2.5 26.2,-8.4 36.8,-19.9 -0.5,8.3 -0.2,16.3 1.8,19.7 1.7,2.9 4.4,5.7 8.5,4.6 1.7,-0.5 2.6,-5.5 3.1,-12 v 0 C 286.6,88 298.9,70.2 310,70.2 c 2.1,0 3.8,0.9 5,1 1.7,0 3.5,0.2 4.1,-2.7 1,-4.9 -3.6,-11.9 -13.7,-9.4 -6.9,1.7 -14.2,9.7 -19,22.7 0,-0.9 0,-1.6 0,-2.3 0.2,-6.6 -3.2,-11.2 -7.2,-12 -4,-0.8 -3.6,1 -4.3,4.6 0,0 0,0.1 0,0.1 -4.5,12.4 -26.1,32.6 -36.3,30.9 -7.1,-1.1 -7.4,-19.4 -7,-24.5 0.4,-5.1 -5.7,-6.1 -8.4,-5.7 -1.2,0.2 -2.6,0.4 -4.1,1.2 -4.3,-3.8 -10.7,-6 -14.1,-6 -8,0 -16.7,8.5 -21.2,18 -7.2,10 -19.1,22.8 -25.2,20.2 -6,-2.6 -5.5,-22.1 -5.6,-28.3 -0.1,-6.2 -2.6,-11 -7.7,-11 -8.3,0 -19.9,11.8 -28.6,29.3 3.7,-18.5 12.4,-56.1 14.4,-67.3 2.2,-12.6 -3.2,-17.2 -7.5,-17.5 -4.3,-0.3 -3.9,1.9 -4.5,8.2 -1.1,10.6 -3.3,23.6 -5.9,35.8 -20.6,45.3 -46.4,59.3 -65.9,59.3 -17.3,0 -26.5,-15.1 -27,-35.3 -0.9,-35.2 19.2,-67.4 45.5,-67.4 15.2,0 13.9,9.6 19.6,9.6 2.6,0 5.9,-1.9 6.2,-5.8 C 92.3,7.6 80.9,0.3 62,2.8 31.2,7 -1.7,44.8 2.2,84.1 c 3.1,32 24.9,41.6 43.6,41.6"
     id="path1-5"
     fill="#ffffff" /><path
     class="st0"
     d="m 338.9,52.6 c 4.9,0 8.6,-3.8 9.4,-9.5 0.8,-5.7 -1.6,-10 -6.5,-10 -5,0 -9.6,3.4 -10.4,9.1 -0.8,5.7 2.6,10.4 7.5,10.4"
     id="path2"
     fill="#ffffff" /><path
     class="st0"
     d="m 436.6,188.7 c -17.7,0 -37.7,-13.2 -37.7,-25.3 0,-20.8 42.1,-26.2 68.2,-27.3 -2.8,32.4 -9,52.6 -30.5,52.6 M 479.3,136 c 15.6,0.1 21.4,0.6 26.2,1.4 8.2,1.2 6,-8.3 3.1,-9.6 -2.9,-1.3 -14.7,-1.4 -28.7,-1.1 1.7,-27.3 3.3,-47.6 3.7,-58.5 0.5,-13.4 -4.4,-15.6 -7.8,-15.4 -3.4,0.2 -5.5,3.2 -6.5,7 -6.8,27.1 -23.4,48.8 -29.1,46.6 -3.2,-1.2 4.1,-22.9 6,-33.3 1.9,-10.5 -7.1,-10.6 -10.3,-9.9 -2.7,0.6 -2.3,7 -4,13.2 -5.5,19.3 -19.9,34 -32.1,34 -10,0 -3.2,-43.5 1.1,-62.7 14.2,-0.8 26.8,-1.2 31.9,-0.7 8.3,0.9 8.7,-6.4 7.4,-10.3 -0.7,-2 -2.9,-1.3 -4.6,-1.1 -7.5,0.9 -19.7,1.7 -32.2,2.4 3.7,-12.6 7.9,-25.3 -1.8,-25.3 -4.6,0 -7,1.4 -8.1,5.3 -2,7 -3.8,13.3 -5.4,20.8 -11.4,0.7 -21.4,1.4 -26.1,2.2 -3.8,0.6 -5,3.1 -5.7,5.1 -0.9,2.7 1.2,4.1 4.8,3.8 7.1,-0.4 15.9,-1 24.9,-1.6 -11.9,25.2 -37.3,56.5 -49,56.5 -4.8,0 2.4,-24.8 2.5,-31 0.1,-6.3 -2.1,-11.6 -8.3,-11.6 -3.4,0 -5.8,6.1 -6.3,12.5 -0.5,6.4 -9.9,41.9 11.7,41.9 11.6,0 32.7,-21.1 45.3,-42.9 -2.9,20.4 -4.1,46.9 17.6,46.9 9.4,0 20.1,-7.3 27.7,-17.1 0,14.5 6.6,16.2 10.6,16.2 15.6,0 25.9,-18.9 31.8,-35.4 -0.8,15.4 -1.3,29.7 -2.1,42.4 -23.9,0.8 -82.7,4.7 -82.7,36.5 0,18.5 24.3,34 50.3,34 37,0.3 42.2,-32.7 44.2,-61.2"
     id="path3"
     fill="#ffffff" /></g></svg>
