<svg xmlns="http://www.w3.org/2000/svg" width="373.8" height="364.6">
  <rect width="373.8" height="364.6" fill="#ffffff" />
  <g fill="#0093d6">
    <path d="M155.099 99.46h.665a1.89 1.89 0 0 0 .806-.108c.257-.094.491-.243.685-.436s.343-.427.438-.684.131-.531.108-.804V77.369a1.88 1.88 0 0 0-.11-.803 1.9 1.9 0 0 0-.438-.683 1.89 1.89 0 0 0-.684-.437c-.257-.094-.531-.132-.804-.11h-.665a1.9 1.9 0 0 0-.805.11 1.89 1.89 0 0 0-1.122 1.119c-.095.256-.132.53-.11.803v20.058a1.88 1.88 0 0 0 1.231 1.924 1.89 1.89 0 0 0 .806.108zm8.957.734l.652.115c.265.068.541.079.811.03a1.9 1.9 0 0 0 .748-.311c.224-.156.411-.36.549-.595s.223-.498.249-.77l3.493-19.751c.07-.264.081-.54.032-.809a1.89 1.89 0 0 0-.311-.748 1.88 1.88 0 0 0-.598-.548 1.89 1.89 0 0 0-.773-.247l-.683-.121a1.9 1.9 0 0 0-.812-.03c-.27.049-.525.156-.749.313a1.89 1.89 0 0 0-.549.597 1.87 1.87 0 0 0-.247.772l-3.493 19.751a1.88 1.88 0 0 0 .877 2.105 1.89 1.89 0 0 0 .773.247m8.75 2.275l.605.229c.248.114.519.173.792.172s.543-.06.792-.175a1.89 1.89 0 0 0 1.027-1.203l6.872-18.852a1.88 1.88 0 0 0 .175-.791c0-.273-.059-.543-.175-.791a1.88 1.88 0 0 0-.491-.645 1.89 1.89 0 0 0-.718-.379l-.605-.229c-.248-.114-.519-.173-.792-.172s-.543.06-.792.175a1.89 1.89 0 0 0-1.027 1.203l-6.884 18.828a1.88 1.88 0 0 0-.175.791c0 .273.059.543.175.791a1.88 1.88 0 0 0 .491.645 1.89 1.89 0 0 0 .718.379m8.16 3.737l.604.332c.225.156.481.261.751.308a1.89 1.89 0 0 0 1.532-.409 1.88 1.88 0 0 0 .497-.641l10.051-17.375c.156-.225.262-.48.308-.75a1.89 1.89 0 0 0-.036-.809 1.88 1.88 0 0 0-.374-.719c-.175-.21-.395-.379-.642-.496l-.605-.332c-.225-.156-.481-.261-.751-.308a1.89 1.89 0 0 0-1.532.409c-.21.175-.38.394-.497.641l-10.056 17.357c-.156.225-.262.48-.308.75a1.89 1.89 0 0 0 .036.809 1.88 1.88 0 0 0 .374.719c.175.21.395.379.642.496m7.428 5.122l.508.428a1.89 1.89 0 0 0 1.495.539 1.88 1.88 0 0 0 1.376-.792l12.921-15.36a1.89 1.89 0 0 0 .434-.686c.093-.257.129-.531.106-.804a1.87 1.87 0 0 0-.242-.774 1.89 1.89 0 0 0-.545-.601l-.508-.428a1.89 1.89 0 0 0-.688-.432c-.258-.092-.533-.128-.806-.104a1.89 1.89 0 0 0-1.376.788l-12.927 15.36a1.87 1.87 0 0 0-.432.685 1.88 1.88 0 0 0-.104.803c.024.272.107.536.244.772a1.88 1.88 0 0 0 .546.599m6.387 6.326l.429.507c.158.223.363.409.6.545s.501.219.774.243.547-.011.805-.104a1.89 1.89 0 0 0 .687-.432l15.399-12.894c.224-.158.41-.362.547-.598a1.88 1.88 0 0 0 .244-.772c.024-.272-.011-.546-.104-.803a1.88 1.88 0 0 0-.432-.685l-.429-.507a1.89 1.89 0 0 0-2.182-.685 1.89 1.89 0 0 0-.688.432l-15.399 12.894a1.88 1.88 0 0 0-.794 1.374c-.024.273.011.548.105.805a1.88 1.88 0 0 0 .435.686m5.201 7.289l.332.603a1.89 1.89 0 0 0 1.218 1.011 1.9 1.9 0 0 0 1.561-.269l17.406-10.029c.247-.118.465-.287.64-.497a1.89 1.89 0 0 0 .373-.719 1.88 1.88 0 0 0 .037-.808c-.046-.269-.151-.525-.306-.749l-.332-.573a1.88 1.88 0 0 0-.497-.641 1.89 1.89 0 0 0-2.283-.101l-17.406 9.999c-.247.118-.465.287-.64.497a1.89 1.89 0 0 0-.41 1.528 1.88 1.88 0 0 0 .306.749zm.335 51.433l-.333.603a1.88 1.88 0 0 0-.272 1.558 1.87 1.87 0 0 0 .374.719 1.88 1.88 0 0 0 .642.496l17.411 10.029c.225.156.481.261.751.308a1.88 1.88 0 0 0 .811-.036c.264-.071.511-.198.721-.373s.38-.394.497-.641l.332-.573a1.88 1.88 0 0 0 .271-1.563 1.89 1.89 0 0 0-1.02-1.217l-17.406-10.029a1.89 1.89 0 0 0-2.283.101 1.88 1.88 0 0 0-.497.641m-5.109 7.379l-.429.507a1.88 1.88 0 0 0-.435.686 1.87 1.87 0 0 0-.105.805 1.88 1.88 0 0 0 .794 1.374L210.381 200c.195.192.429.34.687.433s.532.129.805.105a1.89 1.89 0 0 0 .776-.242 1.88 1.88 0 0 0 .602-.544l.429-.507a1.89 1.89 0 0 0 .433-.686c.092-.257.128-.532.104-.804a1.88 1.88 0 0 0-.244-.774 1.89 1.89 0 0 0-.547-.6l-15.399-12.894c-.195-.192-.429-.339-.687-.431a1.89 1.89 0 0 0-.805-.104c-.273.024-.537.107-.774.243s-.442.322-.6.545m-6.308 6.374l-.508.428a1.88 1.88 0 0 0-.546.598 1.87 1.87 0 0 0-.244.772 1.88 1.88 0 0 0 .536 1.488l12.921 15.367a1.88 1.88 0 0 0 .6.548c.238.137.503.22.776.244a1.89 1.89 0 0 0 1.494-.539l.508-.428c.225-.158.412-.362.549-.599a1.88 1.88 0 0 0 .245-.774c.024-.273-.011-.548-.105-.805a1.88 1.88 0 0 0-.435-.686l-12.921-15.367a1.89 1.89 0 0 0-2.183-.684c-.258.093-.493.24-.688.432m-7.331 5.192l-.605.332c-.247.117-.467.286-.642.496a1.88 1.88 0 0 0-.374.719c-.071.264-.083.54-.036.809a1.87 1.87 0 0 0 .308.749l10.051 17.375a1.88 1.88 0 0 0 .497.641 1.89 1.89 0 0 0 2.283.101l.604-.332a1.88 1.88 0 0 0 1.052-2.024 1.9 1.9 0 0 0-.308-.75L184.3 196.049c-.117-.247-.287-.466-.497-.641a1.89 1.89 0 0 0-.721-.373 1.88 1.88 0 0 0-.811-.036 1.89 1.89 0 0 0-.751.308m-8.125 3.814l-.605.223a1.88 1.88 0 0 0-.717.379c-.208.177-.377.396-.492.645a1.88 1.88 0 0 0-.175.791 1.89 1.89 0 0 0 .175.791l6.878 18.852a1.88 1.88 0 0 0 1.025 1.207 1.89 1.89 0 0 0 1.585 0l.605-.229a1.88 1.88 0 0 0 .717-.379c.209-.177.377-.396.492-.645s.175-.518.175-.791a1.88 1.88 0 0 0-.175-.791l-6.872-18.852a1.89 1.89 0 0 0-1.027-1.204c-.248-.115-.518-.174-.792-.175a1.9 1.9 0 0 0-.793.172m-8.693 2.398l-.653.115a1.89 1.89 0 0 0-.773.246 1.88 1.88 0 0 0-.598.548c-.157.224-.263.479-.311.748a1.89 1.89 0 0 0 .032.809l3.493 19.757c.025.272.109.535.247.772a1.88 1.88 0 0 0 1.299.907 1.89 1.89 0 0 0 .811-.032l.652-.115a1.9 1.9 0 0 0 .772-.248c.236-.138.44-.324.597-.548s.263-.479.312-.747a1.89 1.89 0 0 0-.03-.809l-3.493-19.757c-.025-.272-.109-.535-.247-.772a1.88 1.88 0 0 0-1.298-.908 1.9 1.9 0 0 0-.811.032zm-8.943.856h-.665a1.89 1.89 0 0 0-.806.108c-.258.094-.491.243-.685.436a1.88 1.88 0 0 0-.546 1.488v20.058a1.89 1.89 0 0 0 .11.803 1.88 1.88 0 0 0 .438.683 1.89 1.89 0 0 0 .684.436 1.9 1.9 0 0 0 .805.11h.665c.273.022.547-.016.804-.11a1.89 1.89 0 0 0 .684-.436c.194-.193.343-.426.438-.683a1.88 1.88 0 0 0 .11-.803v-20.058a1.88 1.88 0 0 0-.11-.803c-.095-.257-.244-.49-.438-.683a1.89 1.89 0 0 0-.684-.436 1.88 1.88 0 0 0-.804-.11zm-8.939-.741l-.653-.115a1.88 1.88 0 0 0-1.561.279c-.224.157-.412.36-.549.597a1.89 1.89 0 0 0-.247.772l-3.493 19.757a1.88 1.88 0 0 0 .877 2.106 1.89 1.89 0 0 0 .773.246l.653.115c.265.068.541.079.81.03s.524-.155.749-.311a1.89 1.89 0 0 0 .549-.596 1.88 1.88 0 0 0 .249-.77l3.487-19.757c.07-.264.081-.54.032-.809a1.89 1.89 0 0 0-.311-.748 1.88 1.88 0 0 0-.598-.548 1.89 1.89 0 0 0-.773-.246m-8.707-2.262l-.605-.223a1.89 1.89 0 0 0-1.585 0 1.88 1.88 0 0 0-1.025 1.207l-6.872 18.852a1.88 1.88 0 0 0-.001 1.582 1.89 1.89 0 0 0 1.209 1.023l.604.229a1.9 1.9 0 0 0 .793.172 1.89 1.89 0 0 0 1.819-1.379l6.877-18.852a1.88 1.88 0 0 0 .173-.791c0-.273-.06-.542-.175-.79a1.89 1.89 0 0 0-.49-.645 1.9 1.9 0 0 0-.716-.38m-8.152-3.734l-.604-.332c-.225-.156-.481-.261-.751-.308a1.88 1.88 0 0 0-.811.036 1.89 1.89 0 0 0-.721.373 1.88 1.88 0 0 0-.497.641l-10.002 17.375c-.156.225-.262.48-.308.749a1.89 1.89 0 0 0 .036.809 1.88 1.88 0 0 0 .374.719 1.89 1.89 0 0 0 .642.496l.605.332c.225.156.481.261.751.308a1.88 1.88 0 0 0 .811-.036 1.89 1.89 0 0 0 .721-.373c.21-.175.38-.394.497-.641l10.05-17.375a1.88 1.88 0 0 0-.743-2.774m-7.464-5.105l-.508-.428a1.89 1.89 0 0 0-.687-.429c-.257-.092-.532-.127-.804-.103a1.89 1.89 0 0 0-1.374.785l-12.921 15.367c-.193.194-.341.428-.434.685s-.129.532-.106.804.106.537.242.774a1.89 1.89 0 0 0 .545.601l.508.428a1.89 1.89 0 0 0 2.27.295 1.89 1.89 0 0 0 .601-.548l12.921-15.367a1.88 1.88 0 0 0-.254-2.859m-6.386-6.29l-.429-.507a1.89 1.89 0 0 0-.601-.546c-.238-.136-.502-.219-.775-.243a1.89 1.89 0 0 0-.806.104c-.258.093-.493.24-.688.432l-15.393 12.9a1.89 1.89 0 0 0-.791 1.374c-.024.273.011.547.104.804a1.89 1.89 0 0 0 .433.687l.429.507c.158.223.363.409.6.545a1.89 1.89 0 0 0 1.578.139c.257-.092.492-.239.686-.431l15.399-12.9a1.88 1.88 0 0 0 .546-.598 1.87 1.87 0 0 0 .244-.772 1.88 1.88 0 0 0-.537-1.488m-5.216-7.353l-.332-.603a1.89 1.89 0 0 0-.498-.639 1.9 1.9 0 0 0-.72-.372c-.264-.07-.541-.083-.81-.036a1.89 1.89 0 0 0-.751.305L90.43 185.586a1.88 1.88 0 0 0-1.052 2.025 1.88 1.88 0 0 0 .309.749l.332.573a1.88 1.88 0 0 0 1.218 1.014 1.89 1.89 0 0 0 .811.036c.27-.047.526-.152.751-.308l17.405-10.029a1.89 1.89 0 0 0 .642-.496 1.88 1.88 0 0 0 .101-2.278m-3.851-8.048l-.224-.603a1.88 1.88 0 0 0-1.025-1.207 1.89 1.89 0 0 0-1.585 0l-18.892 6.833a1.89 1.89 0 0 0-.716.38c-.208.177-.376.396-.49.644a1.89 1.89 0 0 0-.175.79 1.88 1.88 0 0 0 .173.791l.23.603c.074.263.204.507.381.714a1.89 1.89 0 0 0 .646.489c.248.115.518.174.792.175a1.88 1.88 0 0 0 .792-.172l18.892-6.863a1.89 1.89 0 0 0 .718-.379 1.88 1.88 0 0 0 .491-2.227m-2.38-8.639l-.115-.651a1.88 1.88 0 0 0-.796-1.368 1.89 1.89 0 0 0-.75-.311c-.27-.048-.546-.037-.811.032l-19.787 3.486a1.89 1.89 0 0 0-.773.246 1.88 1.88 0 0 0-.598.548c-.157.224-.263.479-.311.748a1.87 1.87 0 0 0 .033.809l.115.651a1.88 1.88 0 0 0 .798 1.365 1.89 1.89 0 0 0 .749.311c.27.048.546.038.81-.03l19.799-3.486a1.89 1.89 0 0 0 .773-.246 1.88 1.88 0 0 0 .598-.548c.157-.224.263-.479.311-.748a1.87 1.87 0 0 0-.033-.809m-.852-8.923v-.664a1.88 1.88 0 0 0-1.231-1.924 1.89 1.89 0 0 0-.806-.108H81.746a1.88 1.88 0 0 0-.804.108 1.89 1.89 0 0 0-.684.435 1.88 1.88 0 0 0-.548 1.484v.663a1.89 1.89 0 0 0 .11.803c.094.256.244.489.438.683s.427.342.684.437a1.89 1.89 0 0 0 .805.11h20.101c.272.022.546-.016.803-.11a1.89 1.89 0 0 0 .683-.435c.193-.192.343-.425.438-.68a1.88 1.88 0 0 0 .112-.801z" />
    <path d="M104.61 142.28l.115-.651a1.88 1.88 0 0 0-.877-2.105 1.89 1.89 0 0 0-.773-.246l-19.793-3.486c-.265-.068-.541-.079-.81-.03s-.524.155-.749.311a1.88 1.88 0 0 0-.798 1.365l-.115.651c-.067.264-.075.539-.025.806a1.89 1.89 0 0 0 .911 1.287 1.91 1.91 0 0 0 .77.246l19.799 3.48a1.9 1.9 0 0 0 .811.032 1.89 1.89 0 0 0 .75-.311c.225-.157.412-.36.549-.596a1.88 1.88 0 0 0 .247-.772m2.271-8.623l.224-.603a1.88 1.88 0 0 0 .001-1.582c-.115-.248-.283-.468-.492-.645a1.89 1.89 0 0 0-.718-.379l-18.91-6.881a1.9 1.9 0 0 0-.793-.175 1.89 1.89 0 0 0-.793.174c-.248.115-.469.282-.646.491a1.88 1.88 0 0 0-.379.716l-.224.603a1.88 1.88 0 0 0-.001 1.582c.115.248.283.468.492.645a1.89 1.89 0 0 0 .718.379l18.892 6.863a1.89 1.89 0 0 0 1.585.001c.248-.115.469-.282.646-.491a1.88 1.88 0 0 0 .379-.716m3.746-8.135l.332-.603a1.88 1.88 0 0 0-.743-2.774l-17.412-9.981a1.89 1.89 0 0 0-2.283.101 1.88 1.88 0 0 0-.497.641l-.332.573a1.89 1.89 0 0 0-.308.752 1.88 1.88 0 0 0 .037.811 1.87 1.87 0 0 0 .376.72c.177.21.396.38.644.497l17.381 10.005c.225.156.481.261.751.308a1.89 1.89 0 0 0 1.532-.409 1.88 1.88 0 0 0 .497-.641m5.134-7.395l.429-.507a1.89 1.89 0 0 0 .433-.687c.092-.257.128-.532.104-.804a1.89 1.89 0 0 0-.79-1.374l-15.393-12.894a1.9 1.9 0 0 0-2.267-.294c-.238.135-.444.32-.603.542l-.423.513a1.88 1.88 0 0 0-.292 2.26 1.87 1.87 0 0 0 .546.598l15.399 12.894a1.88 1.88 0 0 0 .686.431 1.89 1.89 0 0 0 1.578-.139c.237-.136.442-.322.6-.545m6.317-6.37l.508-.428a1.88 1.88 0 0 0 .546-.598 1.87 1.87 0 0 0 .244-.772 1.88 1.88 0 0 0-.104-.803c-.093-.257-.24-.491-.432-.685l-12.927-15.366a1.89 1.89 0 0 0-.601-.545c-.238-.136-.502-.219-.775-.243a1.89 1.89 0 0 0-1.494.536l-.508.428a1.89 1.89 0 0 0-.791 1.374c-.024.273.011.547.104.804a1.89 1.89 0 0 0 .433.687l12.927 15.366a1.9 1.9 0 0 0 .6.546 1.87 1.87 0 0 0 .774.243c.273.024.547-.011.805-.104a1.89 1.89 0 0 0 .686-.431m7.338-5.212l.605-.332c.247-.117.467-.286.642-.496a1.89 1.89 0 0 0 .374-.719c.071-.264.083-.54.036-.809s-.152-.525-.308-.75L120.654 86.03a1.89 1.89 0 0 0-.498-.639c-.21-.174-.456-.301-.72-.372s-.541-.083-.81-.037a1.9 1.9 0 0 0-.751.305l-.605.332a1.9 1.9 0 0 0-.645.496 1.88 1.88 0 0 0-.099 2.284l10.051 17.369a1.88 1.88 0 0 0 .497.641 1.89 1.89 0 0 0 2.283.101m8.129-3.817l.604-.229a1.89 1.89 0 0 0 .718-.379c.209-.177.376-.397.492-.645a1.88 1.88 0 0 0-.001-1.582l-6.853-18.846a1.89 1.89 0 0 0-.381-.714 1.88 1.88 0 0 0-.646-.489c-.248-.114-.518-.174-.792-.175s-.544.058-.793.172l-.604.229c-.263.074-.508.203-.716.38a1.89 1.89 0 0 0-.49.644c-.115.248-.175.517-.175.79a1.88 1.88 0 0 0 .173.791l6.872 18.852a1.88 1.88 0 0 0 .381.714 1.89 1.89 0 0 0 .646.489c.248.115.518.174.792.175a1.88 1.88 0 0 0 .792-.172m8.655-2.394l.653-.115a1.89 1.89 0 0 0 .773-.247 1.88 1.88 0 0 0 .877-2.105l-3.511-19.745a1.88 1.88 0 0 0-1.544-1.684 1.89 1.89 0 0 0-.813.032l-.653.115a1.89 1.89 0 0 0-.772.248c-.236.137-.44.324-.597.548a1.89 1.89 0 0 0-.312.747 1.88 1.88 0 0 0 .03.809l3.493 19.757c.026.272.11.535.247.772s.325.44.549.596a1.89 1.89 0 0 0 1.561.278" />
  </g>
  <g fill="#212b55">
    <path d="M218.03 162.242h.665a1.89 1.89 0 0 0 1.489-.543 1.88 1.88 0 0 0 .438-.681 1.87 1.87 0 0 0 .11-.802V140.14a1.89 1.89 0 0 0-.11-.803 1.88 1.88 0 0 0-.438-.683 1.89 1.89 0 0 0-.684-.436 1.9 1.9 0 0 0-.805-.11h-.665a1.9 1.9 0 0 0-.805.11 1.89 1.89 0 0 0-.684.436c-.194.193-.343.426-.438.683s-.132.53-.11.803v20.058c-.022.272.016.546.11.802s.244.489.438.682a1.89 1.89 0 0 0 .685.435c.257.094.531.13.804.108m8.946.735l.653.115c.265.068.541.079.81.03a1.89 1.89 0 0 0 .748-.311c.224-.157.412-.36.549-.596s.223-.498.249-.77l3.487-19.751c.07-.264.081-.54.032-.809a1.88 1.88 0 0 0-.909-1.296c-.237-.137-.501-.222-.773-.247l-.652-.115a1.9 1.9 0 0 0-.811-.032 1.89 1.89 0 0 0-.75.311 1.88 1.88 0 0 0-.549.596 1.87 1.87 0 0 0-.247.772l-3.505 19.751a1.88 1.88 0 0 0 .877 2.105 1.89 1.89 0 0 0 .773.246m8.741 2.281l.605.223c.248.114.519.173.792.172s.543-.06.792-.175.469-.282.646-.49a1.89 1.89 0 0 0 .381-.714l6.872-18.852c.114-.248.173-.518.173-.791s-.06-.542-.175-.79a1.89 1.89 0 0 0-.491-.645 1.9 1.9 0 0 0-.716-.38l-.605-.223a1.89 1.89 0 0 0-1.584.003 1.89 1.89 0 0 0-1.027 1.204l-6.877 18.852c-.114.248-.173.518-.173.791a1.89 1.89 0 0 0 .175.79 1.88 1.88 0 0 0 .49.644 1.89 1.89 0 0 0 .716.38m8.156 3.735l.604.332a1.89 1.89 0 0 0 .751.308 1.88 1.88 0 0 0 .811-.036 1.89 1.89 0 0 0 .721-.373 1.88 1.88 0 0 0 .497-.641l10.051-17.369c.156-.225.262-.48.308-.749a1.89 1.89 0 0 0-.036-.809 1.88 1.88 0 0 0-.374-.719 1.89 1.89 0 0 0-.642-.496l-.605-.332a1.89 1.89 0 0 0-1.564-.27 1.87 1.87 0 0 0-.72.375 1.88 1.88 0 0 0-.496.642l-10.051 17.375a1.88 1.88 0 0 0 .102 2.278c.176.21.395.379.642.496m7.404 5.081l.508.428c.195.192.43.339.688.432a1.9 1.9 0 0 0 .806.104 1.88 1.88 0 0 0 .775-.244 1.89 1.89 0 0 0 .601-.545l12.921-15.366a1.89 1.89 0 0 0 .54-1.49c-.024-.273-.106-.537-.242-.774a1.89 1.89 0 0 0-.545-.601l-.508-.428a1.89 1.89 0 0 0-2.87.253l-12.927 15.36c-.192.195-.34.429-.433.687a1.88 1.88 0 0 0 .14 1.578 1.88 1.88 0 0 0 .547.6m6.398 6.323l.429.507c.158.223.362.409.6.545a1.88 1.88 0 0 0 .774.243c.273.024.547-.011.805-.104s.492-.24.687-.432l15.399-12.9c.223-.158.41-.362.546-.599s.22-.5.244-.772-.011-.546-.104-.803a1.88 1.88 0 0 0-.432-.685l-.429-.507c-.159-.223-.364-.409-.601-.546s-.502-.219-.775-.243a1.89 1.89 0 0 0-.806.104c-.258.093-.493.24-.688.432l-15.387 12.894a1.89 1.89 0 0 0-.791 1.374c-.024.273.011.547.104.804a1.89 1.89 0 0 0 .433.687m5.198 7.288l.332.603a1.89 1.89 0 0 0 1.218 1.011 1.9 1.9 0 0 0 1.561-.269l17.412-10.029a1.89 1.89 0 0 0 .642-.496 1.88 1.88 0 0 0 .374-.719c.071-.264.083-.54.036-.809a1.87 1.87 0 0 0-.308-.749l-.332-.573a1.88 1.88 0 0 0-.497-.641 1.89 1.89 0 0 0-2.283-.101l-17.43 9.999a1.88 1.88 0 0 0-1.016 1.215c-.071.264-.083.54-.036.809a1.88 1.88 0 0 0 .309.749m3.852 8.115l.224.603a1.88 1.88 0 0 0 .379.716 1.89 1.89 0 0 0 2.231.49l18.892-6.863a1.89 1.89 0 0 0 1.207-1.024c.115-.248.175-.517.175-.79a1.88 1.88 0 0 0-.173-.791l-.23-.603c-.074-.263-.204-.507-.381-.714a1.9 1.9 0 0 0-.646-.49c-.249-.115-.519-.174-.792-.175s-.544.058-.792.172l-18.892 6.863a1.89 1.89 0 0 0-.718.379 1.88 1.88 0 0 0-.666 1.436 1.88 1.88 0 0 0 .175.791m2.403 8.669l.115.651a1.88 1.88 0 0 0 .247.772 1.9 1.9 0 0 0 .549.597 1.89 1.89 0 0 0 1.561.278l19.799-3.486a1.89 1.89 0 0 0 .773-.246 1.88 1.88 0 0 0 .91-1.296 1.89 1.89 0 0 0-.032-.809l-.115-.651a1.88 1.88 0 0 0-.798-1.365c-.224-.156-.48-.263-.749-.311a1.91 1.91 0 0 0-.81.03l-19.799 3.486a1.89 1.89 0 0 0-.773.246 1.88 1.88 0 0 0-.91 1.296 1.89 1.89 0 0 0 .032.809zm.829 8.909v.664c-.022.272.016.546.11.802a1.88 1.88 0 0 0 1.926 1.224h20.101a1.89 1.89 0 0 0 1.488-.543 1.88 1.88 0 0 0 .548-1.484v-.664c.022-.272-.016-.546-.11-.803a1.87 1.87 0 0 0-.438-.683 1.89 1.89 0 0 0-.684-.436c-.257-.095-.532-.132-.805-.11h-20.101a1.9 1.9 0 0 0-.805.11 1.89 1.89 0 0 0-.684.436c-.194.193-.343.426-.438.683s-.132.53-.11.803zm-.714 8.928l-.115.651a1.89 1.89 0 0 0-.032.809 1.88 1.88 0 0 0 .312.748 1.89 1.89 0 0 0 1.371.794l19.799 3.486c.265.068.541.079.81.03s.524-.155.749-.311a1.88 1.88 0 0 0 .798-1.365l.115-.651a1.89 1.89 0 0 0 .032-.81 1.88 1.88 0 0 0-.311-.749c-.157-.224-.361-.412-.598-.55a1.88 1.88 0 0 0-.774-.248l-19.799-3.498c-.265-.069-.541-.08-.811-.032s-.525.154-.749.311-.412.36-.549.597a1.88 1.88 0 0 0-.247.772m-2.267 8.716l-.223.603a1.88 1.88 0 0 0 0 1.582c.115.248.283.468.492.645a1.89 1.89 0 0 0 .718.379l18.892 6.863c.248.114.519.173.792.172a1.9 1.9 0 0 0 .792-.175c.248-.115.468-.282.646-.49a1.88 1.88 0 0 0 .381-.714l.224-.603a1.88 1.88 0 0 0-.491-2.227c-.209-.177-.453-.306-.717-.379l-18.892-6.863a1.89 1.89 0 0 0-1.586-.001c-.249.115-.469.282-.646.491s-.306.453-.38.716zm-3.764 8.139l-.332.603a1.88 1.88 0 0 0-.309.749 1.87 1.87 0 0 0 .036.809c.071.263.198.51.374.719a1.88 1.88 0 0 0 .642.496l17.411 10.029a1.89 1.89 0 0 0 1.562.269c.264-.07.51-.197.72-.372a1.89 1.89 0 0 0 .498-.639l.333-.573c.156-.225.261-.482.307-.752a1.88 1.88 0 0 0-.037-.812 1.89 1.89 0 0 0-1.02-1.217l-17.406-10.029c-.225-.156-.481-.261-.751-.308a1.89 1.89 0 0 0-1.532.409 1.88 1.88 0 0 0-.497.641m-5.085 7.361l-.429.507a1.88 1.88 0 0 0-.432.685c-.093.257-.128.531-.104.803a1.88 1.88 0 0 0 .791 1.371l15.399 12.894a1.9 1.9 0 0 0 1.492.535 1.89 1.89 0 0 0 .775-.24c.238-.135.444-.32.603-.542l.423-.512a1.88 1.88 0 0 0 .292-2.26 1.89 1.89 0 0 0-.547-.599l-15.411-12.894a1.89 1.89 0 0 0-.687-.432c-.257-.092-.532-.128-.805-.104s-.537.107-.774.243-.442.322-.6.545m-6.314 6.381l-.508.428a1.88 1.88 0 0 0-.546.598 1.87 1.87 0 0 0-.244.772 1.88 1.88 0 0 0 .104.803c.093.257.24.491.433.685l12.921 15.366c.159.223.364.409.601.546s.502.219.775.243a1.89 1.89 0 0 0 .806-.104c.258-.093.493-.239.688-.432l.508-.428a1.89 1.89 0 0 0 .547-.6 1.88 1.88 0 0 0 .14-1.578 1.89 1.89 0 0 0-.432-.687l-12.921-15.348c-.158-.223-.362-.409-.6-.545a1.88 1.88 0 0 0-.774-.243c-.273-.024-.547.011-.805.104s-.492.24-.687.432m-7.339 5.183l-.605.332c-.247.117-.467.286-.642.496a1.89 1.89 0 0 0-.374.719c-.071.264-.083.54-.036.809s.152.525.308.749l10.051 17.375c.118.246.288.464.498.639a1.89 1.89 0 0 0 2.282.104l.604-.332a1.89 1.89 0 0 0 .642-.498 1.88 1.88 0 0 0 .41-1.532c-.047-.269-.153-.526-.308-.751l-10.021-17.381a1.88 1.88 0 0 0-.497-.641 1.89 1.89 0 0 0-.721-.373 1.9 1.9 0 0 0-.811-.036 1.89 1.89 0 0 0-.751.308m-8.154 3.858l-.604.229a1.89 1.89 0 0 0-.718.379c-.209.177-.377.397-.492.645a1.88 1.88 0 0 0 .001 1.582l6.877 18.852a1.88 1.88 0 0 0 .379.716 1.89 1.89 0 0 0 2.231.491l.605-.223a1.89 1.89 0 0 0 .718-.379 1.88 1.88 0 0 0 .666-1.436 1.88 1.88 0 0 0-.175-.791l-6.884-18.852c-.074-.263-.204-.507-.381-.714a1.9 1.9 0 0 0-1.438-.665 1.88 1.88 0 0 0-.792.172m-8.654 2.382l-.653.115a1.87 1.87 0 0 0-.773.247 1.88 1.88 0 0 0-.877 2.105l3.493 19.757a1.88 1.88 0 0 0 .247.772 1.9 1.9 0 0 0 .549.597 1.88 1.88 0 0 0 1.56.279l.653-.115a1.89 1.89 0 0 0 .773-.246 1.88 1.88 0 0 0 .877-2.105l-3.487-19.769a1.88 1.88 0 0 0-.249-.77c-.138-.236-.325-.439-.549-.596a1.89 1.89 0 0 0-.748-.311c-.269-.049-.546-.038-.811.03m-8.948.827h-.665a1.89 1.89 0 0 0-.806.108 1.88 1.88 0 0 0-1.231 1.924v20.058a1.89 1.89 0 0 0 .11.803 1.88 1.88 0 0 0 .438.683 1.89 1.89 0 0 0 .684.436c.257.095.531.132.805.11h.665a1.9 1.9 0 0 0 .805-.11 1.89 1.89 0 0 0 .684-.436c.194-.193.343-.426.438-.683s.132-.53.11-.803v-20.058a1.88 1.88 0 0 0-.108-.804c-.094-.257-.244-.49-.437-.684s-.428-.342-.685-.436a1.89 1.89 0 0 0-.806-.108zm-8.946-.714l-.652-.115c-.265-.068-.541-.079-.811-.03a1.89 1.89 0 0 0-1.298.906 1.88 1.88 0 0 0-.249.77l-3.487 19.757a1.88 1.88 0 0 0 .877 2.105 1.89 1.89 0 0 0 .773.246l.653.115a1.88 1.88 0 0 0 1.561-.278c.224-.157.412-.36.549-.597a1.89 1.89 0 0 0 .247-.772l3.493-19.751a1.88 1.88 0 0 0-.279-1.557 1.89 1.89 0 0 0-1.371-.794m-8.713-2.261l-.604-.229a1.9 1.9 0 0 0-.793-.172 1.89 1.89 0 0 0-.792.175 1.9 1.9 0 0 0-.646.49 1.89 1.89 0 0 0-.381.714L190.955 282a1.88 1.88 0 0 0-.175.791c0 .273.059.543.175.791a1.88 1.88 0 0 0 .492.645c.209.177.453.306.717.379l.605.223a1.9 1.9 0 0 0 .793.175 1.89 1.89 0 0 0 .793-.174c.248-.115.469-.282.646-.491a1.88 1.88 0 0 0 .379-.716l6.878-18.852a1.88 1.88 0 0 0-.491-2.227 1.89 1.89 0 0 0-.717-.379m-8.188-3.755l-.604-.332a1.89 1.89 0 0 0-.751-.308 1.88 1.88 0 0 0-.811.036 1.89 1.89 0 0 0-.721.373 1.88 1.88 0 0 0-.497.641l-10.051 17.375c-.156.225-.262.48-.308.749a1.89 1.89 0 0 0 .036.809 1.88 1.88 0 0 0 .374.719 1.89 1.89 0 0 0 .642.496l.605.332a1.89 1.89 0 0 0 1.561.269c.264-.07.51-.197.72-.372a1.89 1.89 0 0 0 .498-.639l10.026-17.375a1.88 1.88 0 0 0-.743-2.774m-7.355-5.102l-.508-.428a1.89 1.89 0 0 0-.687-.432c-.257-.092-.532-.128-.805-.104s-.537.107-.774.243a1.88 1.88 0 0 0-.6.545l-12.921 15.366a1.87 1.87 0 0 0-.434.686 1.88 1.88 0 0 0 .681 2.179l.508.428c.195.192.43.339.688.432a1.89 1.89 0 0 0 .806.104 1.9 1.9 0 0 0 .775-.243 1.88 1.88 0 0 0 .601-.546l12.921-15.378a1.88 1.88 0 0 0 .293-2.265 1.89 1.89 0 0 0-.547-.6m-6.412-6.274l-.429-.507a1.88 1.88 0 0 0-.6-.545c-.237-.136-.501-.219-.774-.243s-.547.011-.805.104-.492.24-.687.432l-15.399 12.894c-.223.158-.41.362-.546.599s-.22.5-.244.772.011.546.104.803a1.88 1.88 0 0 0 .432.685l.429.507c.159.223.364.409.601.546a1.9 1.9 0 0 0 .775.243 1.89 1.89 0 0 0 .806-.104c.258-.093.493-.24.688-.432l15.399-12.894c.223-.158.41-.362.546-.599s.22-.5.244-.772a1.88 1.88 0 0 0-.104-.803c-.093-.257-.24-.491-.433-.685m-5.192-7.32l-.333-.603a1.89 1.89 0 0 0-.498-.639 1.9 1.9 0 0 0-2.282-.103l-17.405 10.029a1.88 1.88 0 0 0-1.052 2.025 1.89 1.89 0 0 0 .308.749l.333.573a1.88 1.88 0 0 0 1.218 1.014 1.89 1.89 0 0 0 .811.036c.27-.047.526-.152.751-.308l17.405-10.029a1.89 1.89 0 0 0 1.016-1.215 1.88 1.88 0 0 0-.273-1.559m-.331-51.422l.332-.603c.156-.225.262-.48.308-.749a1.89 1.89 0 0 0-.036-.809 1.88 1.88 0 0 0-1.016-1.215l-17.406-10.029a1.89 1.89 0 0 0-2.283.101 1.88 1.88 0 0 0-.497.641l-.332.573a1.89 1.89 0 0 0-.309.751c-.047.269-.035.546.036.811a1.89 1.89 0 0 0 .374.721c.176.21.395.38.642.498l17.406 10.029c.225.156.481.261.751.308a1.89 1.89 0 0 0 1.532-.409 1.88 1.88 0 0 0 .497-.641" />
    <path d="M178.648 180.893l.423-.507a1.89 1.89 0 0 0 .433-.686c.092-.257.128-.532.104-.804a1.88 1.88 0 0 0-.244-.774 1.89 1.89 0 0 0-.547-.6l-15.399-12.894a1.9 1.9 0 0 0-1.493-.538c-.273.023-.538.106-.776.242a1.89 1.89 0 0 0-.602.544l-.429.507a1.89 1.89 0 0 0-.43.686c-.092.257-.127.53-.103.802a1.88 1.88 0 0 0 .243.772 1.89 1.89 0 0 0 .544.599l15.393 12.906c.195.192.43.339.688.432a1.89 1.89 0 0 0 2.183-.685m6.34-6.407l.508-.428a1.88 1.88 0 0 0 .546-.599 1.87 1.87 0 0 0 .244-.772 1.88 1.88 0 0 0-.104-.803c-.093-.257-.24-.491-.432-.685l-12.921-15.366c-.158-.224-.363-.411-.6-.548a1.89 1.89 0 0 0-.776-.244c-.273-.024-.549.012-.807.105a1.89 1.89 0 0 0-.688.434l-.508.428a1.89 1.89 0 0 0-.545.601 1.88 1.88 0 0 0-.136 1.578 1.89 1.89 0 0 0 .434.686l12.921 15.366c.158.223.363.409.6.545s.501.219.774.243a1.89 1.89 0 0 0 .805-.104c.257-.092.492-.239.687-.431m7.307-5.179l.574-.332a1.89 1.89 0 0 0 1.016-1.215c.071-.264.083-.54.036-.809s-.152-.525-.308-.749l-10.051-17.375a1.89 1.89 0 0 0-.497-.64c-.21-.175-.456-.303-.72-.374a1.89 1.89 0 0 0-.811-.038c-.27.046-.527.15-.752.304l-.604.332c-.247.118-.465.287-.64.497a1.89 1.89 0 0 0-.373.719 1.9 1.9 0 0 0-.037.808 1.89 1.89 0 0 0 .306.749l10.051 17.369a1.89 1.89 0 0 0 .499.641c.211.175.458.302.723.373a1.9 1.9 0 0 0 1.565-.272m8.153-3.837l.604-.223a1.89 1.89 0 0 0 .716-.38c.208-.177.375-.396.49-.644s.175-.517.175-.79a1.88 1.88 0 0 0-.173-.791l-6.877-18.852a1.87 1.87 0 0 0-.38-.716c-.178-.208-.397-.376-.646-.491a1.89 1.89 0 0 0-1.585.001l-.604.223a1.9 1.9 0 0 0-.716.38 1.89 1.89 0 0 0-.491.645c-.115.248-.175.517-.175.79a1.88 1.88 0 0 0 .173.791l6.884 18.852a1.88 1.88 0 0 0 .379.716c.177.208.397.376.646.49a1.89 1.89 0 0 0 1.586-.001m8.653-2.385l.652-.115a1.88 1.88 0 0 0 .773-.246 1.89 1.89 0 0 0 .598-.548 1.88 1.88 0 0 0 .311-.748 1.89 1.89 0 0 0-.032-.809l-3.493-19.757a1.87 1.87 0 0 0-.247-.772 1.88 1.88 0 0 0-.549-.597 1.89 1.89 0 0 0-.75-.311 1.9 1.9 0 0 0-.811.032l-.652.115a1.9 1.9 0 0 0-.772.248 1.91 1.91 0 0 0-.597.548 1.89 1.89 0 0 0-.312.747c-.048.269-.038.544.03.809l3.493 19.751c.025.272.109.535.247.772a1.88 1.88 0 0 0 1.299.907 1.89 1.89 0 0 0 .811-.032" />
  </g>
</svg>