<?xml version="1.0" encoding="UTF-8" standalone="no"?>
<svg
   version="1.1"
   id="Layer_1"
   x="0px"
   y="0px"
   viewBox="0 0 373.79998 364.60001"
   xml:space="preserve"
   width="373.79999"
   height="364.60001"
   xmlns="http://www.w3.org/2000/svg"
   xmlns:svg="http://www.w3.org/2000/svg"
   style="background-color:#ffffff"><defs
   id="defs13" />&#10;<style
   type="text/css"
   id="style1">&#10;	.st0{fill:#F9383D;}&#10;	.st1{fill:#FFFFFF;}&#10;	.st2{fill-rule:evenodd;clip-rule:evenodd;fill:#FFFFFF;}&#10;</style>&#10;&#10;&#10;&#10;&#10;&#10;&#10;&#10;&#10;&#10;&#10;&#10;&#10;&#10;<g
   id="g2"
   transform="matrix(3.4504744,0,0,3.4504744,79.703637,75.330578)"><path
     id="Path 404"
     d="m 21.8506,6.99298 h 0.1927 C 22.1225,6.99961 22.2022,6.98893 22.2768,6.96167 22.3514,6.93442 22.4192,6.89125 22.4754,6.83517 22.5316,6.7791 22.5748,6.71146 22.6022,6.63699 22.6295,6.56252 22.6402,6.483 22.6335,6.40397 V 0.590759 C 22.6399,0.511802 22.6289,0.432413 22.6015,0.35808 22.5741,0.283746 22.5308,0.216241 22.4747,0.160231 22.4186,0.104221 22.3509,0.0610425 22.2764,0.0336793 22.2019,0.00631603 22.1224,-0.00457881 22.0433,0.00174787 H 21.8506 C 21.7715,-0.00457881 21.6919,0.00631603 21.6174,0.0336793 21.5429,0.0610425 21.4753,0.104221 21.4192,0.160231 21.363,0.216241 21.3198,0.283746 21.2923,0.35808 21.2649,0.432413 21.254,0.511802 21.2603,0.590759 V 6.40397 c -0.0066,0.07903 0.0041,0.15855 0.0314,0.23302 0.0273,0.07447 0.0706,0.14211 0.1268,0.19818 0.0562,0.05608 0.124,0.09925 0.1986,0.1265 0.0746,0.02726 0.1543,0.03794 0.2335,0.03131 z"
     fill="#0093d6" /><path
     id="Path 405"
     d="m 24.4467,7.20574 0.1891,0.03321 c 0.0767,0.01982 0.1569,0.02281 0.2349,0.00875 0.078,-0.01406 0.152,-0.04483 0.2169,-0.09018 C 25.1525,7.11216 25.2068,7.0533 25.2468,6.98498 25.2867,6.91667 25.3113,6.84053 25.3189,6.7618 L 26.3313,1.03773 C 26.3515,0.961149 26.3547,0.881104 26.3407,0.803156 26.3268,0.725209 26.296,0.65123 26.2505,0.586362 26.205,0.521494 26.1458,0.467292 26.0772,0.427525 26.0086,0.387758 25.9321,0.363379 25.8531,0.356084 L 25.6552,0.321128 C 25.5783,0.301298 25.4981,0.298361 25.42,0.312522 c -0.0781,0.01416 -0.1522,0.04508 -0.2172,0.090621 -0.0649,0.04554 -0.1192,0.104615 -0.159,0.173141 -0.0399,0.068525 -0.0643,0.144865 -0.0717,0.223743 L 23.9597,6.5241 c -0.0201,0.07658 -0.0234,0.15662 -0.0094,0.23457 0.014,0.07795 0.0448,0.15193 0.0903,0.2168 0.0455,0.06486 0.1046,0.11907 0.1732,0.15883 0.0686,0.03977 0.1451,0.06415 0.2241,0.07144"
     fill="#0093d6" /><path
     id="Path 406"
     d="m 26.9736,7.86524 0.1752,0.06641 c 0.072,0.03301 0.1503,0.05003 0.2296,0.04991 0.0792,-1.3e-4 0.1575,-0.0174 0.2294,-0.05062 0.072,-0.03323 0.1358,-0.08162 0.1872,-0.14185 0.0514,-0.06022 0.089,-0.13084 0.1104,-0.207 L 29.8969,2.11844 C 29.9303,2.04661 29.9476,1.96838 29.9476,1.8892 29.9476,1.81002 29.9304,1.73179 29.897,1.65993 29.8637,1.58808 29.8151,1.52433 29.7546,1.47312 29.694,1.42191 29.6231,1.38447 29.5466,1.36339 L 29.3714,1.29697 c -0.072,-0.033 -0.1503,-0.05002 -0.2296,-0.0499 -0.0792,1.2e-4 -0.1575,0.0174 -0.2294,0.05062 -0.072,0.03323 -0.1358,0.08162 -0.1872,0.14184 -0.0514,0.06023 -0.089,0.13085 -0.1104,0.20701 l -1.995,5.45665 c -0.0334,0.07184 -0.0507,0.15006 -0.0507,0.22924 0,0.07918 0.0172,0.15742 0.0506,0.22927 0.0333,0.07186 0.0819,0.1356 0.1424,0.18682 0.0606,0.05121 0.1315,0.08865 0.208,0.10973"
     fill="#0093d6" /><path
     id="Path 407"
     d="M 29.3349,8.9413 29.51,9.03743 c 0.0652,0.04517 0.1395,0.07562 0.2177,0.08923 0.0782,0.01362 0.1584,0.01007 0.2351,-0.01039 0.0767,-0.02046 0.148,-0.05734 0.2089,-0.10808 0.061,-0.05074 0.1101,-0.11412 0.144,-0.18574 L 33.2285,3.78702 C 33.2738,3.72195 33.3043,3.64783 33.3179,3.5698 33.3316,3.49177 33.328,3.41172 33.3075,3.3352 33.287,3.25868 33.25,3.18754 33.1992,3.12672 33.1484,3.0659 33.0848,3.01687 33.0131,2.98303 L 32.8379,2.8869 C 32.7727,2.84173 32.6984,2.81128 32.6202,2.79767 32.542,2.78405 32.4618,2.7876 32.3851,2.80806 32.3085,2.82852 32.2372,2.8654 32.1762,2.91614 32.1153,2.96688 32.0661,3.03026 32.0322,3.10188 l -2.9145,5.03019 c -0.0453,0.06507 -0.0758,0.13919 -0.0894,0.21722 -0.0137,0.07802 -0.0101,0.15808 0.0104,0.2346 0.0205,0.07652 0.0575,0.14766 0.1083,0.20848 0.0508,0.06082 0.1144,0.10985 0.1861,0.14369"
     fill="#0093d6" /><path
     id="Path 408"
     d="m 31.486,10.4203 0.1471,0.1241 c 0.0565,0.0559 0.1245,0.0988 0.1993,0.1258 0.0748,0.027 0.1546,0.0373 0.2338,0.0303 0.0792,-0.007 0.156,-0.0311 0.2249,-0.0708 0.0689,-0.0396 0.1283,-0.0938 0.174,-0.1587 L 36.2099,6.01933 C 36.2657,5.96297 36.3086,5.89518 36.3356,5.82065 36.3626,5.74611 36.373,5.66662 36.3662,5.58766 36.3594,5.50871 36.3354,5.43217 36.296,5.36336 36.2566,5.29455 36.2027,5.23509 36.138,5.18912 L 35.9909,5.06502 C 35.9343,5.0094 35.8663,4.96671 35.7915,4.93992 35.7168,4.91312 35.6371,4.90286 35.5579,4.90984 35.4788,4.91682 35.4021,4.94088 35.3332,4.98035 35.2644,5.01982 35.2049,5.07376 35.1589,5.13843 L 31.4124,9.5901 C 31.3567,9.64642 31.314,9.71416 31.2871,9.78863 31.2603,9.86309 31.25,9.9425 31.257,10.0213 c 0.007,0.0789 0.0311,0.1552 0.0707,0.2238 0.0395,0.0686 0.0935,0.1278 0.1583,0.1735"
     fill="#0093d6" /><path
     id="Path 409"
     d="m 33.3376,12.2519 0.1243,0.1468 c 0.0458,0.0646 0.1051,0.1185 0.1739,0.158 0.0687,0.0395 0.1452,0.0635 0.2242,0.0705 0.079,0.007 0.1586,-0.0033 0.2332,-0.03 0.0746,-0.0268 0.1425,-0.0695 0.199,-0.1251 L 38.755,8.73529 C 38.8198,8.68962 38.8738,8.63044 38.9134,8.56184 38.9529,8.49325 38.977,8.41688 38.984,8.33806 38.991,8.25923 38.9808,8.17982 38.9539,8.10536 38.9271,8.03089 38.8843,7.96315 38.8286,7.90683 L 38.7042,7.76001 C 38.6583,7.69534 38.5988,7.6414 38.5299,7.60193 38.4611,7.56246 38.3844,7.5384 38.3053,7.53142 38.2261,7.52444 38.1464,7.5347 38.0717,7.5615 37.9969,7.58829 37.9289,7.63098 37.8723,7.68661 l -4.4629,3.73679 c -0.0651,0.0457 -0.1194,0.1049 -0.1591,0.1737 -0.0397,0.0687 -0.0639,0.1453 -0.0709,0.2244 -0.007,0.079 0.0033,0.1587 0.0304,0.2333 0.027,0.0746 0.07,0.1425 0.126,0.1988"
     fill="#0093d6" /><path
     id="Path 410"
     d="m 34.8439,14.3661 0.0963,0.1748 c 0.0342,0.0714 0.0834,0.1345 0.1444,0.1851 0.061,0.0506 0.1322,0.0873 0.2088,0.1078 0.0766,0.0204 0.1567,0.024 0.2348,0.0106 0.0781,-0.0135 0.1524,-0.0437 0.2177,-0.0885 l 5.0444,-2.9066 c 0.0715,-0.0341 0.1348,-0.0833 0.1855,-0.1441 0.0507,-0.0609 0.0875,-0.1319 0.108,-0.2084 0.0205,-0.0764 0.0241,-0.1563 0.0106,-0.2343 -0.0134,-0.078 -0.0437,-0.1521 -0.0887,-0.2172 l -0.0963,-0.1661 c -0.0339,-0.0716 -0.0831,-0.135 -0.144,-0.1857 -0.0609,-0.0508 -0.1322,-0.0876 -0.2089,-0.1081 -0.0767,-0.0205 -0.1569,-0.024 -0.2351,-0.0104 -0.0782,0.0136 -0.1525,0.0441 -0.2177,0.0892 l -5.0444,2.8979 c -0.0715,0.0341 -0.1348,0.0832 -0.1855,0.1441 -0.0507,0.0608 -0.0875,0.1319 -0.108,0.2083 -0.0205,0.0765 -0.0241,0.1564 -0.0106,0.2344 0.0135,0.0779 0.0437,0.152 0.0887,0.2172 z"
     fill="#0093d6" /><path
     id="Path 411"
     d="m 34.9411,29.2721 -0.0964,0.1748 c -0.0452,0.0651 -0.0757,0.1392 -0.0894,0.2172 -0.0136,0.0781 -0.0101,0.1581 0.0104,0.2346 0.0205,0.0766 0.0575,0.1477 0.1084,0.2085 0.0508,0.0608 0.1143,0.1099 0.1861,0.1437 l 5.0461,2.9066 c 0.0652,0.0452 0.1395,0.0756 0.2177,0.0892 0.0782,0.0137 0.1584,0.0101 0.2351,-0.0104 0.0767,-0.0204 0.148,-0.0573 0.2089,-0.108 0.061,-0.0508 0.1101,-0.1142 0.144,-0.1858 l 0.0963,-0.166 c 0.0453,-0.0653 0.0757,-0.1397 0.0892,-0.2179 0.0136,-0.0783 0.0099,-0.1585 -0.0108,-0.2352 -0.0207,-0.0766 -0.0578,-0.1479 -0.1088,-0.2088 -0.0511,-0.0609 -0.1148,-0.11 -0.1867,-0.1438 l -5.0444,-2.9067 c -0.0652,-0.0451 -0.1395,-0.0756 -0.2177,-0.0892 -0.0782,-0.0136 -0.1584,-0.0101 -0.2351,0.0104 -0.0767,0.0205 -0.148,0.0574 -0.2089,0.1081 -0.061,0.0507 -0.1101,0.1141 -0.144,0.1857"
     fill="#0093d6" /><path
     id="Path 412"
     d="m 33.4602,31.4174 -0.1244,0.1468 c -0.056,0.0563 -0.099,0.1242 -0.126,0.1988 -0.0271,0.0747 -0.0374,0.1543 -0.0304,0.2333 0.007,0.0791 0.0312,0.1557 0.0709,0.2244 0.0397,0.0688 0.094,0.128 0.1591,0.1737 l 4.4629,3.7368 c 0.0564,0.0557 0.1244,0.0985 0.1991,0.1255 0.0747,0.0269 0.1543,0.0373 0.2334,0.0305 0.0792,-0.0068 0.1559,-0.0307 0.2248,-0.07 0.069,-0.0393 0.1286,-0.0931 0.1746,-0.1576 l 0.1244,-0.1469 c 0.0557,-0.0564 0.0985,-0.1243 0.1254,-0.1989 0.0268,-0.0746 0.0371,-0.1542 0.0301,-0.2331 -0.007,-0.079 -0.0311,-0.1555 -0.0706,-0.2242 -0.0396,-0.0688 -0.0937,-0.1281 -0.1585,-0.174 l -4.4628,-3.7368 c -0.0565,-0.0556 -0.1244,-0.0983 -0.199,-0.125 -0.0746,-0.0268 -0.1542,-0.0371 -0.2332,-0.0301 -0.079,0.007 -0.1555,0.031 -0.2242,0.0705 -0.0688,0.0395 -0.1281,0.0934 -0.1739,0.158"
     fill="#0093d6" /><path
     id="Path 413"
     d="m 31.6331,33.266 -0.1471,0.1241 c -0.0648,0.0457 -0.1188,0.1048 -0.1583,0.1734 -0.0396,0.0686 -0.0637,0.145 -0.0707,0.2238 -0.007,0.0789 0.0033,0.1583 0.0301,0.2327 0.0269,0.0745 0.0696,0.1422 0.1253,0.1985 l 3.7448,4.4535 c 0.0457,0.0649 0.1051,0.1191 0.174,0.1587 0.0689,0.0397 0.1457,0.0638 0.2249,0.0708 0.0792,0.007 0.159,-0.0034 0.2338,-0.0303 0.0748,-0.027 0.1428,-0.0699 0.1993,-0.1258 l 0.1471,-0.1241 c 0.0651,-0.0457 0.1193,-0.1049 0.1591,-0.1737 0.0397,-0.0687 0.0639,-0.1453 0.0709,-0.2244 0.007,-0.079 -0.0033,-0.1587 -0.0304,-0.2333 -0.027,-0.0746 -0.07,-0.1425 -0.126,-0.1988 l -3.7448,-4.4535 c -0.0459,-0.0646 -0.1054,-0.1186 -0.1743,-0.158 -0.0689,-0.0395 -0.1455,-0.0636 -0.2247,-0.0705 -0.0791,-0.007 -0.1588,0.0032 -0.2336,0.03 -0.0747,0.0268 -0.1428,0.0695 -0.1994,0.1251"
     fill="#0093d6" /><path
     id="Path 414"
     d="m 29.5083,34.7694 -0.1752,0.0962 c -0.0717,0.0338 -0.1352,0.0828 -0.1861,0.1437 -0.0508,0.0608 -0.0878,0.1319 -0.1083,0.2084 -0.0205,0.0765 -0.0241,0.1566 -0.0104,0.2346 0.0136,0.0781 0.0441,0.1522 0.0894,0.2172 l 2.9128,5.0355 c 0.0339,0.0716 0.083,0.135 0.144,0.1857 0.0609,0.0508 0.1322,0.0876 0.2089,0.1081 0.0767,0.0205 0.1569,0.024 0.2351,0.0104 0.0782,-0.0136 0.1525,-0.0441 0.2177,-0.0892 l 0.1751,-0.0962 c 0.0718,-0.0338 0.1353,-0.0828 0.1862,-0.1437 0.0508,-0.0608 0.0878,-0.1319 0.1083,-0.2084 0.0205,-0.0766 0.024,-0.1566 0.0104,-0.2346 C 33.3025,40.159 33.272,40.0849 33.2268,40.0198 L 30.314,34.9862 c -0.0339,-0.0717 -0.0831,-0.135 -0.144,-0.1858 -0.061,-0.0507 -0.1323,-0.0876 -0.2089,-0.1081 -0.0767,-0.0204 -0.1569,-0.024 -0.2351,-0.0104 -0.0782,0.0137 -0.1525,0.0441 -0.2177,0.0893"
     fill="#0093d6" /><path
     id="Path 415"
     d="M 27.1532,35.8764 26.978,35.941 c -0.0764,0.0211 -0.1474,0.0585 -0.2079,0.1098 -0.0606,0.0512 -0.1092,0.1149 -0.1425,0.1868 -0.0333,0.0718 -0.0506,0.1501 -0.0506,0.2292 10e-5,0.0792 0.0174,0.1574 0.0507,0.2293 l 1.9933,5.4636 c 0.0211,0.0764 0.0586,0.1472 0.1099,0.2076 0.0513,0.0604 0.1152,0.1089 0.1872,0.1421 0.072,0.0333 0.1504,0.0505 0.2298,0.0505 0.0793,0 0.1577,-0.0173 0.2297,-0.0506 l 0.1752,-0.0664 c 0.0765,-0.0211 0.1474,-0.0585 0.2079,-0.1098 0.0606,-0.0512 0.1092,-0.1149 0.1425,-0.1868 0.0334,-0.0718 0.0506,-0.1501 0.0506,-0.2292 0,-0.0792 -0.0173,-0.1574 -0.0507,-0.2293 l -1.9915,-5.4636 c -0.0214,-0.0762 -0.0591,-0.1468 -0.1104,-0.207 -0.0514,-0.0603 -0.1152,-0.1086 -0.1872,-0.1419 -0.0719,-0.0332 -0.1502,-0.0505 -0.2294,-0.0506 -0.0793,-1e-4 -0.1576,0.0169 -0.2297,0.0499"
     fill="#0093d6" /><path
     id="Path 416"
     d="m 24.6351,36.5697 -0.1892,0.0332 c -0.079,0.0073 -0.1554,0.0317 -0.224,0.0714 -0.0687,0.0398 -0.1278,0.094 -0.1733,0.1589 -0.0455,0.0648 -0.0763,0.1388 -0.0902,0.2168 -0.014,0.0779 -0.0108,0.158 0.0094,0.2345 l 1.0124,5.7259 c 0.0073,0.0788 0.0317,0.1551 0.0716,0.2236 0.0398,0.0684 0.0941,0.1274 0.1591,0.1728 0.065,0.0455 0.1392,0.0762 0.2173,0.0901 0.0781,0.014 0.1583,0.0107 0.2351,-0.0094 l 0.1891,-0.0332 c 0.0789,-0.0076 0.1552,-0.0322 0.2237,-0.072 0.0684,-0.0399 0.1274,-0.094 0.1729,-0.1588 0.0454,-0.0648 0.0763,-0.1387 0.0903,-0.2165 0.0141,-0.0778 0.0111,-0.1578 -0.0087,-0.2344 l -1.0124,-5.7258 c -0.0073,-0.0788 -0.0317,-0.1551 -0.0716,-0.2236 -0.0398,-0.0685 -0.0942,-0.1275 -0.1592,-0.1729 -0.065,-0.0454 -0.1391,-0.0761 -0.2172,-0.09 -0.0781,-0.014 -0.1583,-0.0108 -0.2351,0.0094 z"
     fill="#0093d6" /><path
     id="Path 417"
     d="m 22.0433,36.8178 h -0.1927 c -0.0792,-0.0066 -0.1589,0.0041 -0.2335,0.0313 -0.0746,0.0273 -0.1424,0.0705 -0.1986,0.1265 -0.0562,0.0561 -0.0995,0.1237 -0.1268,0.1982 -0.0273,0.0745 -0.038,0.154 -0.0314,0.233 V 43.22 c -0.0063,0.079 0.0046,0.1584 0.032,0.2327 0.0275,0.0744 0.0707,0.1419 0.1269,0.1979 0.0561,0.056 0.1237,0.0992 0.1982,0.1265 0.0745,0.0274 0.1541,0.0383 0.2332,0.032 h 0.1927 c 0.0791,0.0063 0.1586,-0.0046 0.2331,-0.032 0.0745,-0.0273 0.1422,-0.0705 0.1983,-0.1265 0.0561,-0.056 0.0994,-0.1235 0.1268,-0.1979 0.0274,-0.0743 0.0384,-0.1537 0.032,-0.2327 v -5.8132 c 0.0064,-0.0789 -0.0046,-0.1583 -0.032,-0.2326 -0.0274,-0.0744 -0.0707,-0.1419 -0.1268,-0.1979 -0.0561,-0.056 -0.1238,-0.0992 -0.1983,-0.1265 -0.0745,-0.0274 -0.154,-0.0383 -0.2331,-0.032 z"
     fill="#0093d6" /><path
     id="Path 418"
     d="m 19.4524,36.6029 -0.1892,-0.0332 c -0.0767,-0.0202 -0.1569,-0.0234 -0.235,-0.0094 -0.0782,0.0139 -0.1523,0.0446 -0.2173,0.09 -0.065,0.0454 -0.1193,0.1044 -0.1592,0.1729 -0.0398,0.0685 -0.0642,0.1448 -0.0716,0.2236 l -1.0123,5.7258 c -0.0202,0.0766 -0.0234,0.1567 -0.0095,0.2346 0.014,0.078 0.0448,0.1519 0.0903,0.2168 0.0455,0.0649 0.1046,0.1191 0.1732,0.1589 0.0686,0.0397 0.1451,0.0641 0.2241,0.0714 l 0.1892,0.0332 c 0.0767,0.0198 0.1568,0.0228 0.2348,0.0087 0.078,-0.014 0.152,-0.0448 0.217,-0.0901 0.0649,-0.0454 0.1192,-0.1042 0.1591,-0.1726 0.04,-0.0683 0.0646,-0.1444 0.0722,-0.2231 l 1.0106,-5.7259 C 19.949,37.208 19.9522,37.1279 19.9382,37.05 19.9243,36.972 19.8935,36.898 19.848,36.8332 19.8025,36.7683 19.7434,36.7141 19.6747,36.6743 19.6061,36.6346 19.5297,36.6102 19.4506,36.6029"
     fill="#0093d6" /><path
     id="Path 419"
     d="m 16.9274,35.9478 -0.1752,-0.0647 c -0.072,-0.0333 -0.1504,-0.0506 -0.2297,-0.0506 -0.0794,0 -0.1578,0.0172 -0.2298,0.0505 -0.072,0.0332 -0.1359,0.0818 -0.1872,0.1422 -0.0513,0.0603 -0.0888,0.1312 -0.1099,0.2075 l -1.9915,5.4636 c -0.0334,0.0719 -0.0507,0.1501 -0.0507,0.2293 -10e-5,0.0792 0.0172,0.1574 0.0505,0.2292 0.0334,0.0719 0.082,0.1356 0.1425,0.1869 0.0605,0.0512 0.1315,0.0886 0.208,0.1097 l 0.1751,0.0664 c 0.0721,0.033 0.1504,0.05 0.2297,0.0499 0.0792,-1e-4 0.1575,-0.0174 0.2294,-0.0506 0.0719,-0.0332 0.1358,-0.0816 0.1872,-0.1419 0.0513,-0.0602 0.089,-0.1308 0.1104,-0.207 l 1.9932,-5.4636 c 0.0331,-0.0719 0.0502,-0.1501 0.05,-0.2291 -10e-5,-0.0791 -0.0174,-0.1572 -0.0507,-0.229 -0.0333,-0.0718 -0.0818,-0.1355 -0.1421,-0.1868 -0.0604,-0.0512 -0.1312,-0.0888 -0.2075,-0.1102"
     fill="#0093d6" /><path
     id="Path 420"
     d="m 14.5664,34.8673 -0.1751,-0.0961 c -0.0653,-0.0452 -0.1395,-0.0756 -0.2177,-0.0893 -0.0782,-0.0136 -0.1584,-0.01 -0.2351,0.0104 -0.0767,0.0205 -0.148,0.0574 -0.2089,0.1081 -0.061,0.0508 -0.1101,0.1141 -0.144,0.1858 l -2.8988,5.0354 c -0.0453,0.0651 -0.0758,0.1392 -0.0894,0.2172 -0.0137,0.078 -0.0101,0.1581 0.0104,0.2346 0.0205,0.0765 0.0574,0.1477 0.1083,0.2085 0.0508,0.0608 0.1144,0.1098 0.1861,0.1437 l 0.1752,0.0961 c 0.0652,0.0452 0.1395,0.0756 0.2177,0.0892 0.0781,0.0137 0.1584,0.0101 0.2351,-0.0104 0.0766,-0.0204 0.1479,-0.0573 0.2089,-0.108 0.0609,-0.0508 0.1101,-0.1142 0.144,-0.1858 l 2.9127,-5.0354 c 0.0453,-0.0651 0.0758,-0.1392 0.0895,-0.2172 0.0136,-0.078 0.0101,-0.1581 -0.0104,-0.2346 -0.0205,-0.0765 -0.0575,-0.1477 -0.1084,-0.2085 -0.0508,-0.0608 -0.1143,-0.1099 -0.1861,-0.1437"
     fill="#0093d6" /><path
     id="Path 421"
     d="m 12.4178,33.3873 -0.1471,-0.1241 c -0.0566,-0.0553 -0.1245,-0.0977 -0.1991,-0.1243 -0.0746,-0.0266 -0.1541,-0.0368 -0.233,-0.0298 -0.0789,0.0069 -0.1553,0.0309 -0.2241,0.0702 -0.0687,0.0393 -0.1281,0.093 -0.174,0.1573 l -3.74478,4.4535 c -0.05584,0.0563 -0.09874,0.1241 -0.12573,0.1986 -0.02699,0.0746 -0.03744,0.1541 -0.03061,0.233 0.00683,0.079 0.03077,0.1555 0.07017,0.2243 0.03939,0.0688 0.09329,0.1283 0.15798,0.1743 l 0.14713,0.1241 c 0.05645,0.0559 0.12445,0.0988 0.19925,0.1258 0.0748,0.0269 0.1546,0.0373 0.23382,0.0303 0.07922,-0.007 0.15596,-0.0312 0.22486,-0.0708 0.0689,-0.0397 0.12829,-0.0938 0.17404,-0.1587 l 3.74477,-4.4535 c 0.0557,-0.0563 0.0985,-0.124 0.1253,-0.1985 0.0268,-0.0745 0.0371,-0.1539 0.0301,-0.2327 -0.007,-0.0788 -0.0311,-0.1552 -0.0706,-0.2238 -0.0396,-0.0686 -0.0936,-0.1278 -0.1584,-0.1734"
     fill="#0093d6" /><path
     id="Path 422"
     d="M 10.5667,31.566 10.4424,31.4192 C 10.3965,31.3545 10.337,31.3006 10.2681,31.2611 10.1992,31.2216 10.1225,31.1976 10.0434,31.1906 9.96427,31.1836 9.88457,31.1939 9.80981,31.2207 9.73504,31.2475 9.66701,31.2902 9.61042,31.3458 L 5.1493,35.0843 c -0.06481,0.0459 -0.11887,0.1052 -0.15842,0.174 -0.03955,0.0687 -0.06366,0.1452 -0.07066,0.2242 -0.007,0.079 0.00329,0.1585 0.03014,0.2331 0.02685,0.0746 0.06963,0.1425 0.12537,0.199 l 0.12436,0.1468 c 0.04576,0.0646 0.10507,0.1185 0.17382,0.158 0.06874,0.0394 0.14526,0.0635 0.22426,0.0705 0.07899,0.007 0.15857,-0.0033 0.23319,-0.0301 0.07462,-0.0268 0.14251,-0.0694 0.19895,-0.125 l 4.46289,-3.7386 c 0.0647,-0.0456 0.1188,-0.1048 0.1583,-0.1734 0.0396,-0.0686 0.0637,-0.145 0.0707,-0.2238 0.007,-0.0788 -0.0033,-0.1582 -0.0301,-0.2327 -0.0269,-0.0745 -0.0696,-0.1422 -0.1254,-0.1985"
     fill="#0093d6" /><path
     id="Path 423"
     d="M 9.05493,29.4369 8.9586,29.2622 C 8.92445,29.1908 8.8752,29.1276 8.81423,29.077 8.75325,29.0265 8.68202,28.9897 8.60543,28.9692 8.52884,28.9488 8.44872,28.9452 8.37059,28.9587 8.29247,28.9721 8.21819,29.0023 8.1529,29.0472 l -5.04438,2.9066 c -0.07176,0.0338 -0.13528,0.0829 -0.18613,0.1437 -0.05085,0.0608 -0.08781,0.1319 -0.10831,0.2084 -0.0205,0.0766 -0.02406,0.1566 -0.01041,0.2347 0.01364,0.078 0.04415,0.1521 0.08942,0.2172 l 0.09633,0.166 c 0.03391,0.0716 0.08305,0.135 0.144,0.1857 0.06095,0.0508 0.13224,0.0877 0.20892,0.1081 0.07668,0.0205 0.15691,0.024 0.2351,0.0104 0.07819,-0.0136 0.15247,-0.044 0.21768,-0.0892 L 8.83949,30.2322 C 8.91126,30.1983 8.97477,30.1493 9.02562,30.0885 9.07647,30.0277 9.11343,29.9565 9.13393,29.88 9.15444,29.8035 9.15799,29.7234 9.14435,29.6454 9.1307,29.5674 9.10019,29.4933 9.05493,29.4282"
     fill="#0093d6" /><path
     id="Path 424"
     d="M 7.9386,27.0959 7.8738,26.9212 C 7.85267,26.8448 7.81515,26.774 7.76383,26.7136 7.71251,26.6532 7.64863,26.6047 7.57662,26.5715 7.50462,26.5382 7.42621,26.521 7.34686,26.521 c -0.07934,0 -0.15774,0.0173 -0.22972,0.0506 L 1.64189,28.5519 C 1.56557,28.5732 1.4948,28.6108 1.43445,28.6621 1.3741,28.7133 1.3256,28.777 1.29231,28.8488 c -0.0333,0.0718 -0.05061,0.1499 -0.05073,0.229 -1.3e-4,0.0791 0.01693,0.1572 0.05001,0.2291 l 0.06655,0.1748 c 0.02139,0.0762 0.05906,0.1468 0.11044,0.207 0.05137,0.0602 0.11521,0.1086 0.18714,0.1418 0.07192,0.0333 0.1502,0.0505 0.22946,0.0507 0.07925,10e-5 0.15759,-0.0169 0.22962,-0.0499 l 5.47525,-1.989 C 7.66653,27.8212 7.7375,27.7837 7.79802,27.7325 7.85854,27.6813 7.90716,27.6176 7.9405,27.5457 7.97383,27.4739 7.99109,27.3956 7.99106,27.3164 7.99104,27.2373 7.97373,27.159 7.94035,27.0872"
     fill="#0093d6" /><path
     id="Path 425"
     d="M 7.25129,24.5828 7.21801,24.394 C 7.2107,24.3152 7.18627,24.2388 7.14642,24.1704 7.10657,24.1019 7.05225,24.0429 6.98724,23.9975 6.92224,23.9521 6.8481,23.9214 6.76999,23.9074 6.69188,23.8935 6.61166,23.8967 6.53492,23.9168 L 0.800444,24.9271 C 0.721432,24.9344 0.644959,24.9588 0.576343,24.9985 0.507726,25.0383 0.448611,25.0925 0.403106,25.1574 0.357602,25.2222 0.3268,25.2962 0.312842,25.3742 0.298884,25.4521 0.302105,25.5321 0.32228,25.6087 l 0.033279,0.1888 c 0.007599,0.0787 0.032214,0.1549 0.072147,0.2232 0.039933,0.0683 0.094236,0.1272 0.159166,0.1725 0.064929,0.0454 0.138941,0.0761 0.216936,0.0902 0.077994,0.014 0.158116,0.0111 0.234842,-0.0088 l 5.73798,-1.0102 c 0.07901,-0.0073 0.15548,-0.0317 0.2241,-0.0714 0.06862,-0.0398 0.12773,-0.094 0.17323,-0.1589 0.04551,-0.0648 0.07631,-0.1388 0.09027,-0.2168 0.01396,-0.0779 0.01074,-0.158 -0.00944,-0.2345"
     fill="#0093d6" /><path
     id="Path 426"
     d="M 7.00785,21.9966 V 21.8043 C 7.01449,21.7253 7.00379,21.6458 6.97647,21.5713 6.94916,21.4968 6.9059,21.4292 6.8497,21.3731 6.79351,21.317 6.72573,21.2739 6.6511,21.2466 6.57647,21.2193 6.49678,21.2087 6.41758,21.2153 H 0.592031 c -0.079034,-0.0066 -0.158561,0.004 -0.233057,0.0312 -0.074496,0.0272 -0.142176,0.0702 -0.198341,0.126 -0.056164,0.0559 -0.0994666,0.1233 -0.1269001,0.1976 -0.02743346,0.0742 -0.03834045,0.1536 -0.03196355,0.2325 v 0.1922 c -0.0063401,0.079 0.00457787,0.1584 0.03199925,0.2327 0.0274213,0.0743 0.0706924,0.1418 0.1268204,0.1978 0.056129,0.056 0.123777,0.0992 0.198269,0.1266 0.074491,0.0274 0.154049,0.0383 0.233173,0.0319 H 6.41758 C 6.49655,22.5901 6.57594,22.5793 6.6503,22.552 6.72466,22.5247 6.79221,22.4817 6.84831,22.4259 6.90441,22.3701 6.94772,22.3028 6.97526,22.2287 7.0028,22.1546 7.01392,22.0754 7.00785,21.9966 Z"
     fill="#0093d6" /><path
     id="Path 427"
     d="M 7.21838,19.403 7.25166,19.2142 C 7.27184,19.1376 7.27506,19.0576 7.2611,18.9796 7.24714,18.9017 7.21634,18.8277 7.17084,18.7629 7.12533,18.698 7.06622,18.6438 6.9976,18.604 6.92898,18.5642 6.85251,18.5399 6.7735,18.5326 L 1.03727,17.5223 C 0.960546,17.5025 0.880424,17.4995 0.80243,17.5136 0.724436,17.5277 0.650423,17.5584 0.585494,17.6038 0.520564,17.6491 0.466262,17.708 0.426328,17.7763 0.386395,17.8446 0.36178,17.9208 0.354181,17.9995 l -0.033279,0.1888 c -0.019286,0.0764 -0.02178,0.1561 -0.007312,0.2337 0.014469,0.0775 0.045558,0.1509 0.091138,0.2154 0.04558,0.0644 0.104574,0.1182 0.17294,0.1577 0.068365,0.0395 0.144487,0.0639 0.22315,0.0713 l 5.737972,1.0085 c 0.07675,0.0201 0.15696,0.0233 0.23508,0.0094 0.07811,-0.0139 0.15224,-0.0447 0.21725,-0.0901 0.06501,-0.0454 0.11932,-0.1044 0.15917,-0.1728 0.03986,-0.0685 0.06429,-0.1448 0.0716,-0.2237"
     fill="#0093d6" /><path
     id="Path 428"
     d="M 7.87975,16.8985 7.94456,16.7237 C 7.97794,16.6519 7.99524,16.5737 7.99527,16.4945 7.99529,16.4153 7.97804,16.3371 7.9447,16.2652 7.91137,16.1934 7.86275,16.1296 7.80223,16.0784 7.74171,16.0272 7.67074,15.9898 7.59425,15.9687 L 2.11375,13.9744 C 2.04176,13.9411 1.96337,13.9239 1.88402,13.9238 c -0.07934,0 -0.15775,0.0172 -0.22975,0.0505 -0.07201,0.0333 -0.13589,0.0818 -0.18721,0.1422 -0.05132,0.0603 -0.08884,0.1312 -0.10997,0.2075 l -0.0648,0.1748 c -0.03338,0.0718 -0.05069,0.15 -0.05071,0.2292 -3e-5,0.0792 0.01723,0.1574 0.05056,0.2293 0.03334,0.0718 0.08196,0.1356 0.14248,0.1868 0.06052,0.0512 0.13149,0.0887 0.20797,0.1097 l 5.47525,1.989 c 0.07199,0.0333 0.15038,0.0506 0.22973,0.0506 0.07934,1e-4 0.15775,-0.0172 0.22975,-0.0504 0.07201,-0.0333 0.13589,-0.0818 0.18721,-0.1422 0.05132,-0.0604 0.08885,-0.1312 0.10997,-0.2075"
     fill="#0093d6" /><path
     id="Path 429"
     d="M 8.95996,14.5356 9.0563,14.3609 C 9.10156,14.2958 9.13207,14.2217 9.14572,14.1436 9.15936,14.0656 9.15581,13.9856 9.1353,13.909 9.1148,13.8325 9.07784,13.7614 9.02699,13.7006 8.97614,13.6397 8.91263,13.5907 8.84086,13.5569 L 3.79474,10.6642 C 3.72953,10.6191 3.65525,10.5886 3.57706,10.575 3.49886,10.5614 3.41864,10.5649 3.34196,10.5854 3.26528,10.6059 3.19398,10.6427 3.13304,10.6935 3.07209,10.7442 3.02295,10.8076 2.98904,10.8792 L 2.8927,11.0453 c -0.04522,0.0653 -0.07565,0.1396 -0.08918,0.2179 -0.01353,0.0782 -0.00984,0.1584 0.01083,0.2351 0.02066,0.0767 0.0578,0.1479 0.10884,0.2088 0.05104,0.0609 0.11474,0.11 0.1867,0.1439 l 5.03737,2.8996 c 0.06521,0.0452 0.13949,0.0756 0.21768,0.0892 0.07819,0.0137 0.15842,0.0101 0.2351,-0.0103 0.07668,-0.0205 0.14797,-0.0574 0.20892,-0.1081 0.06095,-0.0508 0.11009,-0.1141 0.144,-0.1858"
     fill="#0093d6" /><path
     id="Path 430"
     d="m 10.4406,12.3924 0.1243,-0.1468 c 0.0558,-0.0565 0.0985,-0.1244 0.1254,-0.199 0.0268,-0.0746 0.0371,-0.1541 0.0301,-0.2331 -0.007,-0.0789 -0.0311,-0.1554 -0.0706,-0.2242 -0.0396,-0.0687 -0.0936,-0.1281 -0.1584,-0.1739 L 6.03024,7.67858 C 5.97362,7.62314 5.90565,7.58057 5.831,7.55381 5.75634,7.52704 5.67677,7.51671 5.59774,7.52352 5.51871,7.53032 5.44209,7.55411 5.37313,7.59325 5.30418,7.63238 5.24453,7.68594 5.19827,7.75024 L 5.07566,7.8988 C 5.01995,7.95512 4.97718,8.02287 4.95034,8.09733 4.9235,8.1718 4.91322,8.2512 4.92022,8.33003 4.92722,8.40886 4.95133,8.48522 4.99088,8.55382 5.03042,8.62241 5.08445,8.6816 5.14922,8.72727 l 4.46287,3.73683 c 0.05644,0.0556 0.12433,0.0982 0.19895,0.125 0.07463,0.0268 0.1542,0.0371 0.23316,0.0301 0.079,-0.007 0.1556,-0.0311 0.2243,-0.0705 0.0687,-0.0395 0.1281,-0.0934 0.1738,-0.158"
     fill="#0093d6" /><path
     id="Path 431"
     d="m 12.2735,10.5444 0.1471,-0.1241 c 0.0648,-0.0457 0.1188,-0.1048 0.1583,-0.1734 0.0396,-0.0686 0.0637,-0.145 0.0707,-0.2238 C 12.6566,9.94424 12.6463,9.86484 12.6195,9.79038 12.5926,9.71591 12.5499,9.64816 12.4942,9.59185 L 8.74766,5.13843 C 8.70172,5.07376 8.64225,5.01982 8.57336,4.98035 8.50447,4.94088 8.42781,4.91682 8.34868,4.90984 8.26955,4.90286 8.18984,4.91312 8.11508,4.93992 8.04032,4.96671 7.97228,5.0094 7.91569,5.06502 L 7.76856,5.18912 C 7.70375,5.23496 7.6497,5.2943 7.61014,5.36305 7.57059,5.43179 7.54648,5.50829 7.53948,5.58726 7.53249,5.66622 7.54277,5.74575 7.56962,5.82036 7.59647,5.89496 7.63925,5.96285 7.695,6.01933 l 3.7465,4.45337 c 0.0458,0.0647 0.1051,0.1186 0.1738,0.1581 0.0688,0.0394 0.1453,0.0635 0.2243,0.0705 0.079,0.0069 0.1585,-0.0033 0.2332,-0.0301 0.0746,-0.0268 0.1425,-0.0695 0.1989,-0.125"
     fill="#0093d6" /><path
     id="Path 432"
     d="M 14.3988,9.03658 14.574,8.94045 C 14.6457,8.9066 14.7093,8.85757 14.7601,8.79675 14.811,8.73593 14.8479,8.66479 14.8684,8.58827 14.8889,8.51175 14.8925,8.4317 14.8788,8.35367 14.8652,8.27565 14.8347,8.20152 14.7894,8.13645 L 11.8679,3.10102 C 11.8337,3.02962 11.7845,2.96646 11.7235,2.91589 11.6625,2.86532 11.5913,2.82855 11.5147,2.80812 11.4381,2.78768 11.358,2.78407 11.2799,2.79752 11.2018,2.81097 11.1275,2.84117 11.0622,2.88604 L 10.887,2.98217 c -0.072,0.0338 -0.1358,0.08289 -0.1868,0.14385 -0.051,0.06095 -0.0881,0.1323 -0.1086,0.20904 -0.0205,0.07674 -0.024,0.15703 -0.0102,0.23525 0.0138,0.07822 0.0446,0.15248 0.0902,0.2176 l 2.9128,5.03369 c 0.0339,0.07161 0.083,0.13499 0.144,0.18573 0.0609,0.05074 0.1322,0.08762 0.2089,0.10808 0.0767,0.02046 0.1569,0.02401 0.2351,0.0104 0.0782,-0.01362 0.1525,-0.04407 0.2177,-0.08923"
     fill="#0093d6" /><path
     id="Path 433"
     d="m 16.7463,7.92991 0.1751,-0.06642 c 0.0765,-0.02108 0.1475,-0.05852 0.208,-0.10973 0.0605,-0.05121 0.1091,-0.11496 0.1425,-0.18681 0.0333,-0.07186 0.0505,-0.15009 0.0505,-0.22927 0,-0.07919 -0.0173,-0.15741 -0.0507,-0.22924 L 15.2855,1.64654 C 15.2641,1.57038 15.2264,1.49976 15.1751,1.43953 15.1237,1.37931 15.0598,1.33092 14.9879,1.29769 14.916,1.26447 14.8377,1.24719 14.7585,1.24707 c -0.0793,-1.2e-4 -0.1576,0.0169 -0.2297,0.0499 l -0.1751,0.06642 c -0.0763,0.02134 -0.1471,0.05893 -0.2075,0.1102 -0.0603,0.05126 -0.1088,0.11497 -0.1421,0.18674 -0.0333,0.07177 -0.0506,0.14989 -0.0507,0.22898 -2e-4,0.07909 0.0169,0.15726 0.05,0.22913 l 1.9915,5.46365 c 0.0213,0.07616 0.059,0.14678 0.1104,0.207 0.0514,0.06023 0.1152,0.10862 0.1871,0.14185 0.0719,0.03322 0.1502,0.05049 0.2295,0.05062 0.0792,1.2e-4 0.1576,-0.01691 0.2296,-0.04991"
     fill="#0093d6" /><path
     id="Path 434"
     d="m 19.2601,7.23767 0.1892,-0.03321 c 0.079,-0.0073 0.1554,-0.03167 0.2241,-0.07144 0.0686,-0.03977 0.1277,-0.09397 0.1732,-0.15884 0.0455,-0.06487 0.0763,-0.13885 0.0903,-0.21679 0.0139,-0.07795 0.0107,-0.158 -0.0095,-0.23458 L 18.9098,0.80049 C 18.9027,0.721492 18.8785,0.644985 18.8387,0.576303 18.799,0.507622 18.7447,0.448419 18.6796,0.402825 18.6146,0.35723 18.5404,0.326341 18.4622,0.312311 18.3839,0.298281 18.3036,0.301448 18.2267,0.321591 L 18.0375,0.354799 C 17.9586,0.362382 17.8823,0.386945 17.8139,0.426793 17.7454,0.466642 17.6864,0.52083 17.641,0.585622 17.5955,0.650414 17.5647,0.724269 17.5506,0.802098 17.5365,0.879928 17.5395,0.959879 17.5594,1.03644 l 1.0123,5.72582 c 0.0074,0.07885 0.0318,0.15516 0.0716,0.22363 0.0399,0.06847 0.0942,0.12746 0.1592,0.17287 0.065,0.04541 0.1392,0.07614 0.2173,0.09007 0.0781,0.01393 0.1583,0.01072 0.235,-0.00941"
     fill="#0093d6" /><path
     id="Path 435"
     d="m 40.0892,25.1884 h 0.1927 c 0.079,0.0066 0.1585,-0.0041 0.233,-0.0312 0.0745,-0.0272 0.1422,-0.0702 0.1984,-0.1261 0.0562,-0.0559 0.0995,-0.1233 0.1269,-0.1975 0.0274,-0.0743 0.0383,-0.1536 0.032,-0.2325 v -5.8184 c 0.0063,-0.079 -0.0046,-0.1584 -0.032,-0.2327 -0.0275,-0.0744 -0.0707,-0.1419 -0.1269,-0.1979 -0.0561,-0.056 -0.1237,-0.0992 -0.1982,-0.1265 -0.0745,-0.0274 -0.1541,-0.0383 -0.2332,-0.032 h -0.1927 c -0.0791,-0.0063 -0.1587,0.0046 -0.2332,0.032 -0.0744,0.0273 -0.1421,0.0705 -0.1982,0.1265 -0.0561,0.056 -0.0994,0.1235 -0.1268,0.1979 -0.0275,0.0743 -0.0384,0.1537 -0.032,0.2327 v 5.8132 c -0.0064,0.0789 0.0045,0.1582 0.0319,0.2324 0.0275,0.0743 0.0708,0.1417 0.1269,0.1976 0.0562,0.0559 0.1239,0.0989 0.1984,0.126 0.0745,0.0272 0.154,0.0378 0.233,0.0312"
     fill="#212b55" /><path
     id="Path 436"
     d="m 42.6818,25.3964 0.1892,0.0332 c 0.0767,0.0198 0.1568,0.0228 0.2348,0.0087 0.078,-0.014 0.152,-0.0448 0.2169,-0.0901 0.065,-0.0454 0.1193,-0.1042 0.1592,-0.1726 0.0399,-0.0683 0.0645,-0.1444 0.0721,-0.2231 l 1.0107,-5.7241 c 0.0202,-0.0766 0.0234,-0.1566 0.0094,-0.2346 C 44.5602,18.9159 44.5294,18.8419 44.4839,18.777 44.4384,18.7121 44.3792,18.6579 44.3106,18.6182 44.242,18.5784 44.1655,18.554 44.0865,18.5467 l -0.1891,-0.0332 c -0.0768,-0.0201 -0.157,-0.0233 -0.2351,-0.0094 -0.0781,0.0139 -0.1523,0.0447 -0.2173,0.0901 -0.065,0.0454 -0.1193,0.1044 -0.1591,0.1728 -0.0399,0.0685 -0.0643,0.1448 -0.0716,0.2237 l -1.0159,5.7241 c -0.0202,0.0765 -0.0234,0.1566 -0.0095,0.2345 0.014,0.078 0.0448,0.1519 0.0903,0.2168 0.0455,0.0649 0.1046,0.1191 0.1732,0.1589 0.0687,0.0397 0.1451,0.0641 0.2241,0.0714"
     fill="#212b55" /><path
     id="Path 437"
     d="m 45.2098,26.0571 0.1752,0.0647 c 0.072,0.033 0.1503,0.05 0.2296,0.0499 0.0792,-10e-5 0.1575,-0.0174 0.2294,-0.0506 0.072,-0.0332 0.1358,-0.0816 0.1872,-0.1419 0.0514,-0.0602 0.089,-0.1308 0.1104,-0.207 l 1.9915,-5.4636 c 0.0331,-0.0719 0.0501,-0.1501 0.05,-0.2291 -1e-4,-0.0791 -0.0174,-0.1572 -0.0507,-0.229 -0.0333,-0.0718 -0.0818,-0.1355 -0.1422,-0.1868 -0.0603,-0.0512 -0.1311,-0.0888 -0.2074,-0.1102 l -0.1752,-0.0646 c -0.072,-0.033 -0.1503,-0.0501 -0.2296,-0.0499 -0.0792,10e-5 -0.1575,0.0174 -0.2295,0.0506 -0.0719,0.0332 -0.1357,0.0816 -0.1871,0.1418 -0.0514,0.0603 -0.089,0.1309 -0.1104,0.207 l -1.9932,5.4637 c -0.0331,0.0719 -0.0502,0.15 -0.0501,0.2291 2e-4,0.0791 0.0175,0.1572 0.0508,0.229 0.0333,0.0718 0.0818,0.1355 0.1421,0.1867 0.0604,0.0513 0.1311,0.0889 0.2074,0.1102"
     fill="#212b55" /><path
     id="Path 438"
     d="m 47.5718,27.1393 0.1751,0.0962 c 0.0652,0.0451 0.1395,0.0756 0.2177,0.0892 0.0782,0.0136 0.1584,0.01 0.2351,-0.0104 0.0767,-0.0205 0.148,-0.0574 0.2089,-0.1081 0.061,-0.0507 0.1101,-0.1141 0.144,-0.1857 l 2.9128,-5.0337 c 0.0453,-0.0651 0.0758,-0.1392 0.0894,-0.2172 0.0137,-0.0781 0.0101,-0.1581 -0.0104,-0.2346 -0.0205,-0.0766 -0.0575,-0.1477 -0.1083,-0.2085 -0.0509,-0.0608 -0.1144,-0.1099 -0.1861,-0.1437 l -0.1752,-0.0961 c -0.0653,-0.0451 -0.1397,-0.0755 -0.218,-0.089 -0.0782,-0.0135 -0.1585,-0.0098 -0.2352,0.0108 -0.0767,0.0207 -0.148,0.0577 -0.2088,0.1087 -0.0609,0.0509 -0.1099,0.1144 -0.1437,0.1862 l -2.9128,5.0354 c -0.0452,0.0651 -0.0757,0.1392 -0.0894,0.2172 -0.0136,0.0781 -0.0101,0.1581 0.0104,0.2346 0.0205,0.0766 0.0575,0.1477 0.1083,0.2085 0.0509,0.0608 0.1144,0.1099 0.1862,0.1437"
     fill="#212b55" /><path
     id="Path 439"
     d="m 49.7172,28.6154 0.1471,0.1241 c 0.0566,0.0556 0.1246,0.0983 0.1994,0.1251 0.0748,0.0268 0.1545,0.037 0.2336,0.0301 0.0791,-0.007 0.1558,-0.0311 0.2247,-0.0706 0.0689,-0.0394 0.1283,-0.0934 0.1743,-0.158 l 3.7447,-4.4534 c 0.0559,-0.0564 0.0988,-0.1242 0.1258,-0.1987 0.0269,-0.0746 0.0374,-0.1541 0.0306,-0.233 -0.0069,-0.079 -0.0308,-0.1555 -0.0702,-0.2243 -0.0394,-0.0688 -0.0933,-0.1283 -0.158,-0.1743 l -0.1471,-0.1241 c -0.0565,-0.0559 -0.1245,-0.0988 -0.1993,-0.1258 -0.0748,-0.0269 -0.1546,-0.0373 -0.2338,-0.0303 -0.0792,0.007 -0.156,0.0312 -0.2249,0.0708 -0.0688,0.0397 -0.1282,0.0938 -0.174,0.1588 l -3.7465,4.4516 c -0.0557,0.0565 -0.0985,0.1244 -0.1254,0.199 -0.0268,0.0746 -0.0371,0.1541 -0.0301,0.2331 0.007,0.079 0.0311,0.1555 0.0707,0.2242 0.0395,0.0688 0.0936,0.1281 0.1584,0.1739"
     fill="#212b55" /><path
     id="Path 440"
     d="m 51.5719,30.446 0.1244,0.1468 c 0.0457,0.0647 0.105,0.1186 0.1738,0.158 0.0687,0.0395 0.1452,0.0636 0.2242,0.0705 0.079,0.007 0.1586,-0.0032 0.2332,-0.03 0.0747,-0.0268 0.1426,-0.0695 0.199,-0.1251 l 4.4629,-3.7385 c 0.0647,-0.0457 0.1188,-0.1049 0.1583,-0.1735 0.0396,-0.0686 0.0637,-0.1449 0.0707,-0.2238 0.007,-0.0788 -0.0033,-0.1582 -0.0302,-0.2327 -0.0268,-0.0744 -0.0696,-0.1422 -0.1253,-0.1985 l -0.1243,-0.1468 c -0.046,-0.0647 -0.1054,-0.1186 -0.1743,-0.1581 -0.0689,-0.0395 -0.1456,-0.0635 -0.2247,-0.0705 -0.0791,-0.007 -0.1589,0.0033 -0.2336,0.0301 -0.0748,0.0268 -0.1428,0.0695 -0.1994,0.1251 l -4.4594,3.7368 c -0.0648,0.0458 -0.1188,0.1052 -0.1584,0.1739 -0.0395,0.0688 -0.0637,0.1453 -0.0707,0.2242 -0.0069,0.079 0.0033,0.1585 0.0302,0.2331 0.0268,0.0746 0.0696,0.1425 0.1254,0.199"
     fill="#212b55" /><path
     id="Path 441"
     d="m 53.0807,32.558 0.0963,0.1748 c 0.0342,0.0714 0.0834,0.1345 0.1444,0.1851 0.061,0.0506 0.1322,0.0873 0.2088,0.1078 0.0766,0.0204 0.1567,0.024 0.2349,0.0106 0.0781,-0.0135 0.1523,-0.0437 0.2176,-0.0885 l 5.0462,-2.9066 c 0.0717,-0.0339 0.1353,-0.0829 0.1861,-0.1437 0.0509,-0.0609 0.0878,-0.132 0.1083,-0.2085 0.0205,-0.0765 0.0241,-0.1566 0.0104,-0.2346 -0.0136,-0.0781 -0.0441,-0.1522 -0.0894,-0.2172 L 59.148,29.0711 c -0.0339,-0.0716 -0.0831,-0.135 -0.144,-0.1857 -0.061,-0.0508 -0.1323,-0.0876 -0.2089,-0.1081 -0.0767,-0.0205 -0.157,-0.024 -0.2352,-0.0104 -0.0781,0.0136 -0.1524,0.0441 -0.2176,0.0892 l -5.0514,2.8979 c -0.0718,0.0338 -0.1353,0.0829 -0.1861,0.1437 -0.0509,0.0608 -0.0878,0.132 -0.1083,0.2085 -0.0206,0.0765 -0.0241,0.1565 -0.0105,0.2346 0.0137,0.078 0.0442,0.1521 0.0895,0.2172"
     fill="#212b55" /><path
     id="Path 442"
     d="m 54.1919,34.9097 0.0648,0.1748 c 0.0211,0.0763 0.0586,0.1471 0.1099,0.2075 0.0513,0.0604 0.1152,0.1089 0.1872,0.1422 0.0721,0.0332 0.1504,0.0505 0.2298,0.0504 0.0793,0 0.1577,-0.0173 0.2297,-0.0506 l 5.4753,-1.989 c 0.0763,-0.0213 0.1471,-0.0589 0.2074,-0.1102 0.0604,-0.0512 0.1089,-0.1149 0.1422,-0.1867 0.0333,-0.0718 0.0506,-0.1499 0.0507,-0.229 1e-4,-0.0791 -0.0169,-0.1573 -0.05,-0.2291 l -0.0666,-0.1748 c -0.0214,-0.0762 -0.059,-0.1468 -0.1104,-0.207 -0.0514,-0.0602 -0.1152,-0.1086 -0.1871,-0.1419 -0.072,-0.0332 -0.1503,-0.0505 -0.2295,-0.0506 -0.0793,-10e-5 -0.1576,0.0169 -0.2296,0.0499 l -5.4753,1.989 c -0.0765,0.0211 -0.1474,0.0586 -0.208,0.1098 -0.0605,0.0512 -0.1091,0.1149 -0.1424,0.1868 -0.0334,0.0718 -0.0506,0.1501 -0.0506,0.2292 0,0.0792 0.0173,0.1575 0.0507,0.2293"
     fill="#212b55" /><path
     id="Path 443"
     d="m 54.8862,37.4222 0.0333,0.1888 c 0.0073,0.0788 0.0318,0.1551 0.0716,0.2236 0.0399,0.0685 0.0942,0.1275 0.1592,0.1729 0.065,0.0454 0.1391,0.0761 0.2172,0.0901 0.0782,0.0139 0.1584,0.0107 0.2351,-0.0095 l 5.738,-1.0102 c 0.079,-0.0073 0.1555,-0.0317 0.2241,-0.0714 0.0686,-0.0398 0.1277,-0.094 0.1732,-0.1589 0.0455,-0.0648 0.0763,-0.1388 0.0903,-0.2168 0.0139,-0.0779 0.0107,-0.158 -0.0094,-0.2345 l -0.0333,-0.1888 c -0.0076,-0.0787 -0.0322,-0.1549 -0.0722,-0.2232 -0.0399,-0.0683 -0.0942,-0.1272 -0.1591,-0.1725 -0.065,-0.0454 -0.139,-0.0761 -0.217,-0.0902 -0.078,-0.0141 -0.1581,-0.0111 -0.2348,0.0087 l -5.738,1.0103 c -0.079,0.0073 -0.1555,0.0317 -0.2241,0.0714 -0.0686,0.0398 -0.1277,0.094 -0.1732,0.1589 -0.0455,0.0648 -0.0763,0.1388 -0.0903,0.2168 -0.0139,0.0779 -0.0107,0.1579 0.0094,0.2345 z"
     fill="#212b55" /><path
     id="Path 444"
     d="m 55.1264,40.0043 v 0.1923 c -0.0064,0.0789 0.0045,0.1582 0.032,0.2325 0.0274,0.0742 0.0707,0.1416 0.1269,0.1975 0.0561,0.0559 0.1238,0.0989 0.1983,0.126 0.0745,0.0272 0.154,0.0379 0.2331,0.0313 h 5.8255 c 0.079,0.0066 0.1586,-0.0041 0.2331,-0.0313 0.0745,-0.0271 0.1421,-0.0701 0.1983,-0.126 0.0562,-0.0559 0.0995,-0.1233 0.1269,-0.1975 0.0274,-0.0743 0.0384,-0.1536 0.032,-0.2325 v -0.1923 c 0.0063,-0.0789 -0.0046,-0.1583 -0.032,-0.2326 -0.0274,-0.0744 -0.0707,-0.1419 -0.1268,-0.1979 -0.0562,-0.056 -0.1238,-0.0992 -0.1983,-0.1265 -0.0745,-0.0274 -0.1541,-0.0383 -0.2332,-0.032 h -5.8255 c -0.0792,-0.0063 -0.1587,0.0046 -0.2332,0.032 -0.0745,0.0273 -0.1421,0.0705 -0.1983,0.1265 -0.0561,0.056 -0.0994,0.1235 -0.1268,0.1979 -0.0274,0.0743 -0.0383,0.1537 -0.032,0.2326 z"
     fill="#212b55" /><path
     id="Path 445"
     d="m 54.9195,42.5916 -0.0333,0.1888 c -0.0201,0.0766 -0.0233,0.1566 -0.0094,0.2346 0.014,0.0779 0.0448,0.1519 0.0903,0.2168 0.0455,0.0648 0.1046,0.119 0.1732,0.1588 0.0686,0.0398 0.1451,0.0641 0.2241,0.0714 l 5.738,1.0103 c 0.0767,0.0198 0.1568,0.0228 0.2348,0.0087 0.078,-0.0141 0.152,-0.0448 0.217,-0.0902 0.0649,-0.0453 0.1192,-0.1042 0.1591,-0.1725 0.04,-0.0683 0.0646,-0.1445 0.0722,-0.2232 l 0.0333,-0.1888 c 0.0201,-0.0766 0.0233,-0.1568 0.0094,-0.2348 -0.014,-0.0781 -0.0447,-0.1521 -0.0902,-0.2171 -0.0455,-0.065 -0.1046,-0.1194 -0.1732,-0.1594 -0.0686,-0.0399 -0.1451,-0.0645 -0.2242,-0.072 l -5.738,-1.0138 c -0.0767,-0.0201 -0.1569,-0.0233 -0.2351,-0.0094 -0.0781,0.0139 -0.1522,0.0447 -0.2172,0.0901 -0.065,0.0454 -0.1193,0.1044 -0.1592,0.1729 -0.0398,0.0684 -0.0643,0.1447 -0.0716,0.2236"
     fill="#212b55" /><path
     id="Path 446"
     d="m 54.2628,45.1131 -0.0647,0.1747 c -0.0334,0.0719 -0.0507,0.1501 -0.0508,0.2293 0,0.0792 0.0173,0.1574 0.0506,0.2292 0.0333,0.0719 0.082,0.1356 0.1425,0.1869 0.0605,0.0512 0.1315,0.0886 0.208,0.1097 l 5.4752,1.989 c 0.072,0.033 0.1504,0.05 0.2296,0.0499 0.0793,-1e-4 0.1576,-0.0174 0.2295,-0.0506 0.0719,-0.0333 0.1357,-0.0816 0.1871,-0.1419 0.0514,-0.0602 0.0891,-0.1308 0.1105,-0.207 l 0.0648,-0.1747 c 0.0333,-0.0719 0.0507,-0.1501 0.0507,-0.2293 0,-0.0792 -0.0173,-0.1574 -0.0506,-0.2293 -0.0333,-0.0718 -0.0819,-0.1356 -0.1425,-0.1868 -0.0605,-0.0512 -0.1314,-0.0886 -0.2079,-0.1097 l -5.4753,-1.989 c -0.072,-0.0333 -0.1504,-0.0506 -0.2297,-0.0506 -0.0794,0 -0.1578,0.0172 -0.2298,0.0504 -0.072,0.0333 -0.1359,0.0818 -0.1872,0.1422 -0.0513,0.0604 -0.0888,0.1312 -0.11,0.2076 z"
     fill="#212b55" /><path
     id="Path 447"
     d="m 53.1718,47.4718 -0.0963,0.1748 c -0.0453,0.0651 -0.0758,0.1392 -0.0895,0.2172 -0.0136,0.0781 -0.0101,0.1581 0.0105,0.2346 0.0205,0.0766 0.0574,0.1477 0.1083,0.2085 0.0508,0.0608 0.1143,0.1099 0.1861,0.1437 l 5.0461,2.9066 c 0.0653,0.0449 0.1396,0.0751 0.2177,0.0885 0.0781,0.0135 0.1583,0.0099 0.2349,-0.0106 0.0765,-0.0204 0.1478,-0.0572 0.2087,-0.1077 0.061,-0.0506 0.1103,-0.1138 0.1444,-0.1852 l 0.0964,-0.166 c 0.0452,-0.0653 0.0756,-0.1397 0.0891,-0.2179 0.0136,-0.0782 0.0099,-0.1585 -0.0108,-0.2352 -0.0207,-0.0766 -0.0578,-0.1479 -0.1088,-0.2088 -0.0511,-0.0609 -0.1148,-0.11 -0.1867,-0.1438 l -5.0444,-2.9066 c -0.0652,-0.0452 -0.1395,-0.0757 -0.2177,-0.0893 -0.0782,-0.0136 -0.1584,-0.0101 -0.2351,0.0104 -0.0767,0.0205 -0.148,0.0574 -0.2089,0.1081 -0.061,0.0507 -0.1101,0.1141 -0.144,0.1857"
     fill="#212b55" /><path
     id="Path 448"
     d="m 51.6979,49.6115 -0.1243,0.1468 c -0.0557,0.0563 -0.0985,0.1241 -0.1253,0.1985 -0.0269,0.0745 -0.0372,0.1539 -0.0302,0.2327 0.007,0.0789 0.0312,0.1552 0.0707,0.2238 0.0395,0.0686 0.0936,0.1278 0.1584,0.1735 l 4.4628,3.7368 c 0.0566,0.0554 0.1246,0.098 0.1993,0.1248 0.0746,0.0267 0.1542,0.0371 0.2332,0.0302 0.079,-0.0068 0.1557,-0.0305 0.2246,-0.0697 0.069,-0.0391 0.1286,-0.0927 0.1749,-0.157 l 0.1226,-0.1485 c 0.0557,-0.0563 0.0985,-0.1241 0.1253,-0.1986 C 57.2167,53.8304 57.227,53.751 57.22,53.6721 57.213,53.5933 57.1889,53.517 57.1494,53.4484 57.1098,53.3798 57.0558,53.3206 56.991,53.2749 l -4.4663,-3.7368 c -0.0565,-0.0556 -0.1244,-0.0983 -0.199,-0.1251 -0.0746,-0.0267 -0.1542,-0.037 -0.2332,-0.03 -0.079,0.007 -0.1555,0.031 -0.2242,0.0705 -0.0688,0.0394 -0.1281,0.0934 -0.1739,0.158"
     fill="#212b55" /><path
     id="Path 449"
     d="m 49.8639,51.4609 -0.1472,0.1241 c -0.0647,0.0456 -0.1188,0.1048 -0.1583,0.1734 -0.0396,0.0686 -0.0637,0.145 -0.0707,0.2238 -0.007,0.0788 0.0033,0.1582 0.0301,0.2327 0.0269,0.0745 0.0697,0.1422 0.1254,0.1985 l 3.7447,4.4534 c 0.046,0.0647 0.1054,0.1186 0.1743,0.1581 0.0689,0.0395 0.1456,0.0635 0.2247,0.0705 0.0791,0.007 0.1588,-0.0033 0.2336,-0.0301 0.0748,-0.0267 0.1428,-0.0694 0.1994,-0.1251 l 0.1471,-0.1241 c 0.0648,-0.0458 0.1189,-0.1051 0.1584,-0.1739 0.0396,-0.0687 0.0637,-0.1452 0.0707,-0.2242 0.007,-0.0789 -0.0033,-0.1585 -0.0302,-0.2331 -0.0268,-0.0746 -0.0696,-0.1425 -0.1253,-0.199 l -3.7448,-4.4481 c -0.0457,-0.0647 -0.105,-0.1186 -0.1738,-0.158 -0.0687,-0.0395 -0.1452,-0.0636 -0.2242,-0.0705 -0.079,-0.007 -0.1586,0.0032 -0.2332,0.03 -0.0747,0.0268 -0.1426,0.0695 -0.199,0.1251"
     fill="#212b55" /><path
     id="Path 450"
     d="m 47.7389,52.9666 -0.1752,0.0961 c -0.0717,0.0338 -0.1353,0.0829 -0.1861,0.1437 -0.0509,0.0608 -0.0878,0.1319 -0.1083,0.2085 -0.0205,0.0765 -0.0241,0.1565 -0.0104,0.2346 0.0136,0.078 0.0441,0.1521 0.0894,0.2172 l 2.9128,5.0354 c 0.0341,0.0714 0.0834,0.1346 0.1443,0.1851 0.061,0.0506 0.1322,0.0874 0.2088,0.1078 0.0766,0.0205 0.1567,0.0241 0.2349,0.0106 0.0781,-0.0134 0.1524,-0.0436 0.2177,-0.0885 l 0.1751,-0.0961 c 0.0718,-0.0341 0.1354,-0.0833 0.1862,-0.1443 0.0509,-0.0609 0.0878,-0.1322 0.1083,-0.2089 0.0205,-0.0766 0.0241,-0.1568 0.0104,-0.235 -0.0136,-0.0781 -0.0442,-0.1524 -0.0894,-0.2176 L 48.5533,53.178 c -0.0339,-0.0716 -0.083,-0.135 -0.144,-0.1857 -0.0609,-0.0507 -0.1322,-0.0876 -0.2089,-0.1081 -0.0767,-0.0204 -0.1569,-0.024 -0.2351,-0.0104 -0.0782,0.0137 -0.1525,0.0441 -0.2177,0.0893"
     fill="#212b55" /><path
     id="Path 451"
     d="m 45.3839,54.0809 -0.1751,0.0664 c -0.0765,0.0211 -0.1475,0.0585 -0.208,0.1097 -0.0605,0.0512 -0.1092,0.115 -0.1425,0.1868 -0.0333,0.0719 -0.0506,0.1501 -0.0506,0.2293 1e-4,0.0792 0.0174,0.1574 0.0508,0.2292 l 1.9932,5.4637 c 0.0211,0.0763 0.0586,0.1471 0.1099,0.2075 0.0514,0.0604 0.1152,0.1089 0.1873,0.1422 0.072,0.0333 0.1504,0.0505 0.2297,0.0505 0.0794,-10e-5 0.1578,-0.0173 0.2297,-0.0506 l 0.1752,-0.0647 c 0.0765,-0.0211 0.1474,-0.0585 0.208,-0.1097 0.0605,-0.0513 0.1091,-0.115 0.1424,-0.1869 0.0334,-0.0718 0.0506,-0.1501 0.0506,-0.2292 0,-0.0792 -0.0173,-0.1574 -0.0507,-0.2293 l -1.995,-5.4636 c -0.0214,-0.0762 -0.059,-0.1468 -0.1104,-0.207 -0.0514,-0.0602 -0.1152,-0.1086 -0.1872,-0.1419 -0.0719,-0.0332 -0.1502,-0.0505 -0.2294,-0.0506 -0.0793,-10e-5 -0.1576,0.0169 -0.2296,0.0499"
     fill="#212b55" /><path
     id="Path 452"
     d="m 42.8738,54.7729 -0.1892,0.0332 c -0.079,0.0073 -0.1555,0.0317 -0.2241,0.0715 -0.0686,0.0397 -0.1277,0.0939 -0.1732,0.1588 -0.0455,0.0649 -0.0763,0.1388 -0.0903,0.2168 -0.014,0.0779 -0.0107,0.158 0.0094,0.2346 l 1.0124,5.7258 c 0.0073,0.0788 0.0318,0.1551 0.0716,0.2236 0.0399,0.0685 0.0942,0.1275 0.1592,0.1729 0.065,0.0454 0.1391,0.0761 0.2172,0.09 0.0781,0.014 0.1584,0.0108 0.2351,-0.0094 l 0.1892,-0.0332 c 0.079,-0.0073 0.1555,-0.0317 0.2241,-0.0714 0.0686,-0.0398 0.1277,-0.094 0.1732,-0.1589 0.0455,-0.0648 0.0763,-0.1388 0.0903,-0.2167 0.0139,-0.078 0.0107,-0.1581 -0.0095,-0.2346 l -1.0106,-5.7293 c -0.0076,-0.0788 -0.0322,-0.1549 -0.0721,-0.2232 -0.04,-0.0683 -0.0943,-0.1272 -0.1592,-0.1726 -0.0649,-0.0453 -0.1389,-0.0761 -0.2169,-0.0901 -0.078,-0.0141 -0.1582,-0.0111 -0.2349,0.0087"
     fill="#212b55" /><path
     id="Path 453"
     d="m 40.282,55.0097 h -0.1926 c -0.0792,-0.0066 -0.1589,0.0041 -0.2335,0.0313 -0.0747,0.0273 -0.1425,0.0705 -0.1986,0.1265 -0.0562,0.0561 -0.0995,0.1237 -0.1268,0.1982 -0.0273,0.0745 -0.038,0.154 -0.0314,0.233 v 5.8132 c -0.0063,0.079 0.0046,0.1584 0.032,0.2327 0.0274,0.0744 0.0707,0.1419 0.1268,0.1979 0.0562,0.056 0.1238,0.0992 0.1983,0.1265 0.0745,0.0274 0.154,0.0383 0.2332,0.032 h 0.1926 c 0.0792,0.0063 0.1587,-0.0046 0.2332,-0.032 0.0745,-0.0273 0.1421,-0.0705 0.1983,-0.1265 0.0561,-0.056 0.0994,-0.1235 0.1268,-0.1979 0.0274,-0.0743 0.0383,-0.1537 0.032,-0.2327 v -5.8132 c 0.0066,-0.079 -0.0041,-0.1585 -0.0314,-0.233 -0.0273,-0.0745 -0.0706,-0.1421 -0.1267,-0.1982 -0.0562,-0.056 -0.124,-0.0992 -0.1986,-0.1265 -0.0747,-0.0272 -0.1544,-0.0379 -0.2336,-0.0313 z"
     fill="#212b55" /><path
     id="Path 454"
     d="m 37.6894,54.8026 -0.1891,-0.0332 c -0.0768,-0.0198 -0.1569,-0.0228 -0.2349,-0.0087 -0.078,0.014 -0.152,0.0448 -0.2169,0.0901 -0.065,0.0454 -0.1193,0.1043 -0.1592,0.1726 -0.0399,0.0683 -0.0645,0.1444 -0.0721,0.2232 l -1.0107,5.7258 c -0.0201,0.0766 -0.0234,0.1566 -0.0094,0.2345 0.014,0.078 0.0448,0.152 0.0903,0.2168 0.0455,0.0649 0.1046,0.1191 0.1732,0.1589 0.0686,0.0398 0.1451,0.0641 0.2241,0.0714 l 0.1892,0.0332 c 0.0767,0.0202 0.1569,0.0234 0.235,0.0095 0.0781,-0.014 0.1523,-0.0447 0.2173,-0.0901 0.065,-0.0454 0.1193,-0.1044 0.1592,-0.1729 0.0398,-0.0685 0.0642,-0.1448 0.0716,-0.2236 l 1.0123,-5.7241 c 0.0202,-0.0766 0.0234,-0.1566 0.0095,-0.2346 -0.014,-0.0779 -0.0448,-0.1519 -0.0903,-0.2168 -0.0455,-0.0648 -0.1046,-0.119 -0.1732,-0.1588 -0.0686,-0.0398 -0.1451,-0.0641 -0.2241,-0.0714"
     fill="#212b55" /><path
     id="Path 455"
     d="m 35.166,54.149 -0.1751,-0.0664 c -0.0721,-0.033 -0.1504,-0.05 -0.2297,-0.0499 -0.0792,1e-4 -0.1575,0.0174 -0.2294,0.0506 -0.0719,0.0333 -0.1358,0.0817 -0.1872,0.1419 -0.0513,0.0602 -0.089,0.1308 -0.1104,0.207 l -1.9915,5.4636 c -0.0334,0.0719 -0.0507,0.1501 -0.0507,0.2293 0,0.0791 0.0172,0.1574 0.0506,0.2292 0.0333,0.0719 0.0819,0.1356 0.1425,0.1869 0.0605,0.0512 0.1314,0.0886 0.2079,0.1097 l 0.1752,0.0647 c 0.072,0.0333 0.1504,0.0505 0.2297,0.0506 0.0794,0 0.1578,-0.0172 0.2298,-0.0505 0.072,-0.0333 0.1359,-0.0818 0.1872,-0.1422 0.0513,-0.0604 0.0888,-0.1312 0.1099,-0.2075 l 1.9933,-5.4637 c 0.0333,-0.0718 0.0506,-0.15 0.0507,-0.2292 0,-0.0792 -0.0173,-0.1574 -0.0506,-0.2293 -0.0333,-0.0718 -0.0819,-0.1356 -0.1425,-0.1868 -0.0605,-0.0512 -0.1315,-0.0886 -0.2079,-0.1097"
     fill="#212b55" /><path
     id="Path 456"
     d="m 32.795,53.0592 -0.1751,-0.0961 c -0.0652,-0.0452 -0.1395,-0.0756 -0.2177,-0.0893 -0.0782,-0.0136 -0.1584,-0.01 -0.2351,0.0104 -0.0767,0.0205 -0.148,0.0574 -0.2089,0.1081 -0.061,0.0508 -0.1101,0.1141 -0.144,0.1857 l -2.9128,5.0355 c -0.0453,0.0651 -0.0758,0.1392 -0.0894,0.2172 -0.0137,0.078 -0.0101,0.1581 0.0104,0.2346 0.0205,0.0765 0.0574,0.1477 0.1083,0.2085 0.0508,0.0608 0.1144,0.1098 0.1861,0.1437 l 0.1752,0.0961 c 0.0653,0.0449 0.1395,0.0751 0.2177,0.0885 0.0781,0.0135 0.1582,0.0099 0.2348,-0.0106 0.0766,-0.0204 0.1478,-0.0572 0.2088,-0.1077 0.061,-0.0506 0.1102,-0.1138 0.1444,-0.1852 l 2.9057,-5.0354 C 33.0487,53.7981 33.0792,53.724 33.0929,53.646 33.1065,53.5679 33.103,53.4879 33.0825,53.4114 33.0619,53.3348 33.025,53.2637 32.9741,53.2029 32.9233,53.1421 32.8598,53.093 32.788,53.0592"
     fill="#212b55" /><path
     id="Path 457"
     d="m 30.6566,51.5802 -0.1471,-0.1241 c -0.0565,-0.0556 -0.1244,-0.0983 -0.199,-0.1251 -0.0746,-0.0268 -0.1542,-0.037 -0.2332,-0.03 -0.079,0.0069 -0.1555,0.031 -0.2243,0.0705 -0.0687,0.0394 -0.128,0.0933 -0.1738,0.158 l -3.7447,4.4534 c -0.0558,0.0563 -0.0987,0.1241 -0.1257,0.1987 -0.027,0.0745 -0.0375,0.154 -0.0306,0.2329 0.0068,0.079 0.0307,0.1555 0.0701,0.2243 0.0394,0.0689 0.0933,0.1283 0.158,0.1743 l 0.1471,0.1241 c 0.0566,0.0556 0.1247,0.0983 0.1994,0.1251 0.0748,0.0268 0.1545,0.0371 0.2336,0.0301 0.0791,-0.007 0.1558,-0.0311 0.2247,-0.0705 0.0689,-0.0395 0.1284,-0.0935 0.1743,-0.1581 l 3.7447,-4.4569 c 0.0558,-0.0565 0.0986,-0.1244 0.1254,-0.199 0.0269,-0.0746 0.0372,-0.1541 0.0302,-0.2331 -0.007,-0.079 -0.0311,-0.1555 -0.0707,-0.2242 -0.0396,-0.0688 -0.0936,-0.1281 -0.1584,-0.1739"
     fill="#212b55" /><path
     id="Path 458"
     d="M 28.7974,49.7583 28.673,49.6115 C 28.6273,49.5469 28.568,49.4929 28.4992,49.4535 28.4305,49.414 28.3539,49.39 28.275,49.383 c -0.079,-0.007 -0.1586,0.0033 -0.2332,0.03 -0.0747,0.0268 -0.1426,0.0695 -0.199,0.1251 l -4.4629,3.7368 c -0.0647,0.0457 -0.1188,0.1049 -0.1583,0.1735 -0.0396,0.0686 -0.0637,0.1449 -0.0707,0.2237 -0.007,0.0789 0.0033,0.1583 0.0302,0.2327 0.0268,0.0745 0.0696,0.1423 0.1253,0.1986 l 0.1243,0.1468 c 0.046,0.0647 0.1054,0.1186 0.1743,0.1581 0.0689,0.0394 0.1456,0.0635 0.2247,0.0705 0.0791,0.007 0.1588,-0.0033 0.2336,-0.0301 0.0748,-0.0268 0.1428,-0.0695 0.1994,-0.1251 l 4.4629,-3.7368 c 0.0647,-0.0457 0.1188,-0.1049 0.1583,-0.1735 0.0396,-0.0686 0.0637,-0.1449 0.0707,-0.2238 0.007,-0.0788 -0.0033,-0.1582 -0.0301,-0.2327 -0.0269,-0.0744 -0.0697,-0.1422 -0.1254,-0.1985"
     fill="#212b55" /><path
     id="Path 459"
     d="m 27.2936,47.6371 -0.0964,-0.1747 c -0.0341,-0.0714 -0.0834,-0.1346 -0.1443,-0.1852 -0.061,-0.0505 -0.1322,-0.0873 -0.2088,-0.1078 -0.0766,-0.0204 -0.1567,-0.024 -0.2349,-0.0106 -0.0781,0.0135 -0.1524,0.0437 -0.2177,0.0886 l -5.0443,2.9066 c -0.0718,0.0338 -0.1353,0.0829 -0.1862,0.1437 -0.0508,0.0608 -0.0878,0.1319 -0.1083,0.2085 -0.0205,0.0765 -0.024,0.1565 -0.0104,0.2346 0.0137,0.078 0.0442,0.1521 0.0894,0.2172 l 0.0964,0.166 c 0.0339,0.0716 0.083,0.135 0.144,0.1857 0.0609,0.0508 0.1322,0.0877 0.2089,0.1081 0.0767,0.0205 0.1569,0.024 0.2351,0.0104 0.0782,-0.0136 0.1525,-0.044 0.2177,-0.0892 l 5.0443,-2.9066 c 0.0718,-0.0339 0.1353,-0.0829 0.1862,-0.1437 0.0508,-0.0608 0.0878,-0.132 0.1083,-0.2085 0.0205,-0.0765 0.024,-0.1566 0.0104,-0.2346 -0.0136,-0.078 -0.0442,-0.1521 -0.0894,-0.2172"
     fill="#212b55" /><path
     id="Path 460"
     d="m 27.1973,32.7254 0.0963,-0.1748 c 0.0453,-0.0651 0.0758,-0.1392 0.0894,-0.2172 0.0137,-0.078 0.0101,-0.1581 -0.0104,-0.2346 C 27.3521,32.0223 27.3152,31.9511 27.2643,31.8903 27.2135,31.8295 27.15,31.7805 27.0782,31.7466 L 22.0338,28.84 c -0.0652,-0.0451 -0.1395,-0.0756 -0.2177,-0.0892 -0.0782,-0.0136 -0.1584,-0.0101 -0.2351,0.0104 -0.0766,0.0204 -0.1479,0.0573 -0.2089,0.1081 -0.0609,0.0507 -0.1101,0.1141 -0.144,0.1857 l -0.0963,0.166 c -0.0453,0.0653 -0.0758,0.1395 -0.0895,0.2177 -0.0136,0.0781 -0.0101,0.1583 0.0104,0.2349 0.0205,0.0767 0.0575,0.148 0.1083,0.209 0.0509,0.0609 0.1144,0.1102 0.1862,0.1442 l 5.0444,2.9066 c 0.0652,0.0452 0.1395,0.0756 0.2177,0.0892 0.0782,0.0136 0.1584,0.0101 0.2351,-0.0104 0.0766,-0.0204 0.1479,-0.0573 0.2089,-0.1081 0.0609,-0.0507 0.1101,-0.1141 0.144,-0.1857"
     fill="#212b55" /><path
     id="Path 461"
     d="m 28.6756,30.5935 0.1226,-0.1468 c 0.0557,-0.0564 0.0985,-0.1243 0.1254,-0.1989 0.0268,-0.0746 0.0371,-0.1542 0.0301,-0.2331 -0.007,-0.079 -0.0311,-0.1555 -0.0707,-0.2242 -0.0395,-0.0688 -0.0936,-0.1281 -0.1584,-0.174 l -4.4628,-3.7368 c -0.0565,-0.0557 -0.1245,-0.0985 -0.1991,-0.1255 -0.0747,-0.0269 -0.1544,-0.0373 -0.2335,-0.0305 -0.0791,0.0068 -0.1558,0.0307 -0.2248,0.07 -0.069,0.0393 -0.1285,0.0931 -0.1746,0.1577 l -0.1244,0.1468 c -0.0554,0.0564 -0.0979,0.1242 -0.1246,0.1987 -0.0267,0.0744 -0.0368,0.1537 -0.0299,0.2324 0.007,0.0788 0.031,0.1551 0.0704,0.2236 0.0394,0.0686 0.0932,0.1279 0.1577,0.1737 l 4.4611,3.7404 c 0.0566,0.0556 0.1246,0.0983 0.1994,0.1251 0.0748,0.0268 0.1545,0.037 0.2336,0.03 0.0791,-0.0069 0.1558,-0.031 0.2247,-0.0705 0.0689,-0.0394 0.1283,-0.0934 0.1743,-0.1581"
     fill="#212b55" /><path
     id="Path 462"
     d="m 30.5095,28.7372 0.1471,-0.124 c 0.0648,-0.0457 0.1188,-0.1049 0.1583,-0.1735 0.0396,-0.0686 0.0637,-0.145 0.0707,-0.2238 0.007,-0.0788 -0.0033,-0.1582 -0.0301,-0.2327 -0.0269,-0.0744 -0.0696,-0.1422 -0.1253,-0.1985 l -3.7448,-4.4534 c -0.0457,-0.0649 -0.1051,-0.1191 -0.174,-0.1588 -0.0689,-0.0396 -0.1457,-0.0638 -0.2249,-0.0708 -0.0792,-0.007 -0.159,0.0034 -0.2338,0.0304 -0.0748,0.0269 -0.1428,0.0699 -0.1993,0.1258 l -0.1471,0.1241 c -0.0647,0.0459 -0.1186,0.1054 -0.158,0.1742 -0.0394,0.0688 -0.0633,0.1453 -0.0701,0.2243 -0.0069,0.079 0.0036,0.1585 0.0306,0.233 0.027,0.0745 0.0699,0.1423 0.1257,0.1987 l 3.7447,4.4534 c 0.0458,0.0646 0.1051,0.1185 0.1739,0.158 0.0687,0.0395 0.1452,0.0635 0.2242,0.0705 0.079,0.007 0.1586,-0.0033 0.2332,-0.0301 0.0746,-0.0267 0.1425,-0.0694 0.199,-0.125"
     fill="#212b55" /><path
     id="Path 463"
     d="m 32.6278,27.2381 0.1664,-0.0961 c 0.0717,-0.0339 0.1352,-0.0829 0.1861,-0.1437 0.0508,-0.0609 0.0878,-0.132 0.1083,-0.2085 0.0205,-0.0765 0.0241,-0.1566 0.0104,-0.2346 -0.0136,-0.078 -0.0441,-0.1522 -0.0894,-0.2172 l -2.9128,-5.0355 c -0.034,-0.0715 -0.0831,-0.1348 -0.144,-0.1856 -0.0609,-0.0507 -0.1321,-0.0877 -0.2087,-0.1083 -0.0766,-0.0206 -0.1568,-0.0244 -0.235,-0.011 -0.0782,0.0133 -0.1526,0.0434 -0.218,0.0882 l -0.1751,0.0961 c -0.0716,0.0341 -0.1349,0.0833 -0.1856,0.1441 -0.0506,0.0608 -0.0875,0.1319 -0.108,0.2084 -0.0204,0.0764 -0.0241,0.1563 -0.0106,0.2343 0.0135,0.0779 0.0438,0.1521 0.0887,0.2172 l 2.9128,5.0337 c 0.0341,0.0717 0.0834,0.1351 0.1445,0.1858 0.0611,0.0508 0.1326,0.0876 0.2094,0.1081 0.0768,0.0204 0.1572,0.024 0.2355,0.0104 0.0783,-0.0137 0.1527,-0.0441 0.2181,-0.0893"
     fill="#212b55" /><path
     id="Path 464"
     d="m 34.984,26.1225 0.1751,-0.0647 c 0.0763,-0.0213 0.1471,-0.0589 0.2075,-0.1102 0.0603,-0.0512 0.1088,-0.1149 0.1421,-0.1867 0.0333,-0.0718 0.0506,-0.1499 0.0507,-0.229 2e-4,-0.0791 -0.0169,-0.1572 -0.05,-0.2291 l -1.9932,-5.4637 c -0.0211,-0.0763 -0.0586,-0.1471 -0.11,-0.2075 -0.0513,-0.0604 -0.1152,-0.1089 -0.1872,-0.1422 -0.072,-0.0332 -0.1504,-0.0505 -0.2297,-0.0504 -0.0794,0 -0.1578,0.0173 -0.2298,0.0506 l -0.1751,0.0646 c -0.0763,0.0214 -0.1471,0.059 -0.2074,0.1102 -0.0604,0.0513 -0.1089,0.115 -0.1422,0.1868 -0.0333,0.0718 -0.0506,0.1499 -0.0507,0.229 -1e-4,0.079 0.0169,0.1572 0.05,0.2291 l 1.995,5.4636 c 0.0211,0.0764 0.0586,0.1472 0.1099,0.2076 0.0514,0.0604 0.1152,0.1089 0.1872,0.1421 0.0721,0.0333 0.1505,0.0505 0.2298,0.0505 0.0794,0 0.1577,-0.0173 0.2297,-0.0506"
     fill="#212b55" /><path
     id="Path 465"
     d="m 37.4935,25.4314 0.1891,-0.0333 c 0.0791,-0.0073 0.1555,-0.0316 0.2241,-0.0714 0.0687,-0.0398 0.1278,-0.094 0.1733,-0.1588 0.0455,-0.0649 0.0763,-0.1389 0.0902,-0.2168 0.014,-0.078 0.0108,-0.158 -0.0094,-0.2346 l -1.0124,-5.7258 c -0.0073,-0.0789 -0.0317,-0.1552 -0.0716,-0.2236 -0.0398,-0.0685 -0.0941,-0.1275 -0.1591,-0.1729 -0.065,-0.0454 -0.1392,-0.0762 -0.2173,-0.0901 -0.0781,-0.0139 -0.1583,-0.0107 -0.2351,0.0094 l -0.1891,0.0332 c -0.0789,0.0076 -0.1552,0.0322 -0.2237,0.072 -0.0684,0.0399 -0.1274,0.0941 -0.1729,0.1589 -0.0454,0.0648 -0.0763,0.1386 -0.0904,0.2164 -0.014,0.0779 -0.011,0.1578 0.0088,0.2344 l 1.0124,5.7241 c 0.0073,0.0788 0.0317,0.1551 0.0716,0.2236 0.0398,0.0685 0.0942,0.1274 0.1592,0.1728 0.065,0.0455 0.1391,0.0762 0.2172,0.0901 0.0781,0.014 0.1583,0.0107 0.2351,-0.0094"
     fill="#212b55" /></g></svg>
