<svg xmlns="http://www.w3.org/2000/svg" width="373.8" height="364.6">
  <rect width="373.8" height="364.6" fill="#2b74b8" />
  <path d="M182.598 153.267c-2.863.954-3.825 2.386-4.303 3.348-.954 3.341.954 7.166 4.303 11.468l.477.477.477-.477c3.825-2.394 6.689-3.825 6.689-7.643.477-2.386-.477-4.303-1.909-5.257-1.432-1.439-3.818-2.394-5.734-1.916zm-9.075 36.314l-1.909 1.909c-3.348 3.348-5.734 9.552-1.909 13.855 6.681 7.643 14.809 2.863 17.672.477l.477-.477L174 189.097zm124.691-10.037v46.344h-11.468c-.477-.477-3.341-6.689-3.341-6.689l-.477-.47-1.432.947c-2.863 1.916-5.734 3.348-10.037 4.78-4.295 1.439-8.598 2.386-13.855 1.924l-4.303-.477c-10.029-1.439-25.323-10.991-28.664-29.148l-.47-1.924s-3.348 6.211-7.643 10.037l.477.477c0 .477 2.386 3.341 8.598 2.863v17.203c-5.734 1.424-18.157 1.424-24.369-5.742l-.477-.47-.477.47c-2.386 1.916-5.257 3.833-13.377 5.742l-3.348.962c-7.643.947-16.718.462-23.407-2.386-2.863-.962-9.075-4.31-12.9-9.56l-.477-.954-.954-1.432-.477.954c-4.78 4.78-7.166 6.681-11.946 9.075-1.432.962-4.295 1.924-6.681 2.386-7.166 1.924-17.68 1.924-25.8-.947l-2.871-.962c-8.598-4.295-14.809-10.984-18.634-21.02-2.544-6.715-3.838-13.839-3.818-21.021 0-2.386.47-5.257.47-8.12.477-2.863 1.432-6.211 2.386-9.082 4.303-14.332 15.771-23.407 32.012-25.323 14.332-1.432 27.709 5.257 32.966 12.423 3.825 4.303 7.166 10.029 7.643 18.157h-23.414c-.954-7.643-6.689-12.423-11.946-12.423-8.598.477-13.377 9.552-12.9 24.846.477 14.332 3.348 22.929 9.552 25.323l1.909.477c3.348.954 6.211.477 8.598-1.432 3.341-2.871 5.734-7.643 6.211-12.9h15.764l.477-.954c1.909-5.25 6.211-10.029 12.423-12.893l4.78-1.909.954-.477-1.909-2.871c-2.386-2.863-4.78-6.689-5.257-11.468v-2.386c0-2.863.954-6.211 2.386-9.56.477-.954 5.257-8.598 17.203-10.507 4.303-.477 8.598-.954 12.9 0 6.211.477 17.203 3.825 20.066 15.286 1.432 6.211-.477 12.893-4.78 18.157-2.871 3.348-5.734 5.734-9.56 7.166l-.477.477.477.954c1.432 1.432 6.211 7.166 7.166 8.12l.477.477.477-.477c2.394-1.432 4.78-5.257 6.211-10.037h14.332l.954-5.734c2.386-10.991 8.12-26.278 23.891-32.012 1.432-.477 3.341-1.432 5.257-1.432 6.689-1.909 16.718-2.386 27.232 3.341l1.909.954c8.598 5.257 13.377 13.855 15.294 24.846h-23.414c-1.432-8.605-8.598-11.468-12.423-11.468l-.954.477c-6.689.954-10.514 8.12-10.991 19.112l-.477 7.166c0 2.871 0 8.12.477 9.56 1.909 8.598 5.257 12.9 11.946 14.332h1.432c2.863 0 6.211-.954 8.598-2.863 1.916-2.386 3.348-4.78 3.348-7.643v-.954h-13.855v-17.68z" fill="#fff" />
</svg>