<svg xmlns="http://www.w3.org/2000/svg" width="373.8" height="364.6">
  <rect width="373.8" height="364.6" fill="#000000" />
  <path d="M257.803 75.045h35.456c2.549 0 4.403 1.854 4.403 4.403v77.401c0 2.317-1.854 4.403-4.403 4.403h-35.456c-2.549 0-4.403-1.854-4.403-4.403V79.448c0-2.317 2.086-4.403 4.403-4.403zm-.232 129.079c-2.317 0-4.171 1.622-4.403 3.94-2.317 23.637-23.869 41.018-48.434 38.701-21.32-2.086-38.005-18.307-39.859-38.701-.232-2.317-2.086-3.94-4.403-3.94h-35.456c-2.549 0-4.403 1.854-4.403 4.403v.232c3.013 47.507 44.957 83.426 93.855 80.645 44.726-2.549 80.645-37.31 83.194-80.645.232-2.317-1.622-4.403-4.171-4.635h-.232zm-114.943-85.975c12.282 0 22.247 9.733 22.247 21.552v17.149c0 2.317 1.854 4.403 4.403 4.403h35.456c2.549 0 4.403-1.854 4.403-4.403V139.7c0-35.688-29.894-64.424-66.509-64.424-36.847 0-66.509 29.431-66.509 65.119v16.685c0 2.317 1.854 4.403 4.403 4.403h35.456c2.549 0 4.403-1.854 4.403-4.403v-16.917c0-11.819 9.733-21.552 21.784-21.784h.463z" fill="#fff" fill-rule="evenodd" />
</svg>