<svg xmlns="http://www.w3.org/2000/svg" width="373.8" height="364.6">
  <rect width="373.8" height="364.6" fill="#89f4ec" />
  <path d="M229.77 282.439c48.324-21.004 73.547-73.096 62.47-122.684-1.512-6.723-3.655-13.266-6.407-19.582s-6.091-12.363-9.949-18.071c-28.697-41.94-83.993-59.041-132.34-38.014h-.022c-6.475 2.82-12.656 6.249-18.454 10.265-.135.068-.226.181-.361.248-.97.812-1.354 1.354-.948 1.534.474.226 13.153-4.129 26.215-8.032 8.708-2.594 19.312-4.647 20.011-4.58 1.782.181-1.038.835-21.635 11.596-13.897 7.264-51.46 27.952-53.152 30.479l-.022.022c-.767 1.421 38.533-14.642 57.191-21.229 30.118-10.626 55.251-17.642 58.68-16.785 1.579.406-19.131 8.821-54.326 26.734-28.584 14.552-74.404 41.286-75.284 44.083-.519 1.624 48.595-18.116 81.353-30.118 42.955-15.77 77.811-24.839 79.345-23.982 1.76.993-29.126 13.559-73.84 36.683-37.044 19.131-89.385 48.821-89.317 52.318v.022c.338 1.444 56.469-20.259 96.987-34.698 48.979-17.417 86.835-30.005 87.986-28.133.857 1.421-32.126 17.575-81.488 43.068-39.278 20.282-91.844 48.573-94.957 52.656-.022.045-.022.09-.022.158.022.045.045.068.135.068 5.121.541 61.658-18.635 103.259-33.525 52.295-18.725 86.632-31.833 87.061-30.231.587 2.121-34.427 21.207-80.586 45.143l-91.528 47.287.022.022c2.527 2.459 59.921-15.589 99.198-29.622 47.399-16.943 77.653-30.953 77.179-29.013-.429 1.737-30.84 21.004-71.675 41.692l-77.518 38.962c2.64 1.263 53.446-14.01 83.564-24.997 37.135-13.536 57.394-22.944 56.627-21.5-1.692 3.068-23.982 16.695-52.295 31.472-17.552 9.16-56.13 26.937-54.551 27.343h.022c3.023.451 43.767-12.905 58.544-18.116 21.906-7.738 24.343-9.34 23.237-7.919-.429.564-9.16 6.926-16.988 11.528l-23.756 13.717c-.135.406.519.519 1.76.361.158-.022.271-.045.429-.068 6.904-1.557 13.649-3.768 20.146-6.565z" />
</svg>