<svg xmlns="http://www.w3.org/2000/svg" width="373.8" height="364.6">
  <rect width="373.8" height="364.6" fill="#ffffff" />
  <path fill-rule="evenodd" d="M165.787 222.774c2.561 0 4.637-2.066 4.637-4.612v-47.273l-.008-.02v-7.277c0-7.136-3.593-10.552-10.298-12.722-2.653-.821-5.191-1.48-7.645-2.012v73.917zm26.485 0c2.559 0 4.636-2.066 4.636-4.612v-47.273l-.008-.02v-7.277c0-7.136-3.594-10.552-10.299-12.722-2.653-.821-5.191-1.48-7.645-2.012v73.917zm31.224-4.612v-77.209c-2.447.53-4.987 1.189-7.637 2.012-6.715 2.175-10.302 5.587-10.302 12.721v7.284l-.008.024v59.78h13.308c2.56 0 4.639-2.068 4.639-4.612zm75.258-14.808l-6.103 1.793c-7.909 2.228-14.326 3.706-19.258 3.706-14.326 0-21.625-8.602-21.625-26.555 0-18.091 7.299-26.707 21.625-26.707 4.932 0 11.348 1.647 19.258 3.711l6.103 1.797v-15.25l-3.867-1.083c-8.802-2.518-16.417-4.004-23.124-4.004-22.537 0-37.899 14.241-37.899 41.537 0 28.337 15.362 41.543 37.899 41.543 6.707 0 14.322-1.636 23.124-4.149l3.867-1.093zm-158.82 0l-6.103 1.793c-7.906 2.228-14.325 3.706-19.257 3.706-14.325 0-21.625-8.602-21.625-26.555 0-18.091 7.3-26.707 21.625-26.707 4.931 0 11.351 1.647 19.257 3.711l6.103 1.797v-15.25l-3.868-1.083c-8.801-2.518-16.416-4.004-23.121-4.004-22.538 0-37.901 14.241-37.901 41.537 0 28.337 15.364 41.543 37.901 41.543 6.705 0 14.32-1.636 23.121-4.149l3.868-1.093z" fill="#101626" />
</svg>