<svg xmlns="http://www.w3.org/2000/svg" width="373.8" height="364.6">
  <rect width="373.8" height="364.6" fill="#003f4e" />
  <path d="M118.788 253.072c-19.63-8.918-38.778-30.846-42.019-48.117-7.196-38.358 8.269-75.017 38.253-90.677 17.281-9.025 62.769-11.415 65.429-3.437 1.124 3.371 5.364 3.133 16.935-.949 22.394-7.901 40.836-6.719 62.157 3.984 25.026 12.562 36.881 30.491 38.934 58.883 2.839 39.247-14.509 69.595-46.842 81.944-18.087 6.908-55.403 6.021-57.869-1.374-.877-2.631-5.751-2.147-14.28 1.417-17.593 7.351-42.337 6.669-60.698-1.672zm97.115-10.743c15.517 4.058 29.331-4.478 36.153-22.341 8.293-21.715 5.855-63.858-4.744-82.005-6.573-11.254-9.205-12.65-23.856-12.65-19.812 0-29.951 10.811-33.257 35.459l-2.121 15.812h19.489c19.169 0 19.489.19 19.489 11.515 0 15.326-9.436 37.163-22.039 51.003-5.633 6.186-7.261 8.976-3.617 6.198s10.17-4.124 14.501-2.991zm-54.281-1.427c13.287-4.632 23.66-25.363 23.66-47.285v-13.215h-18.989c-16.557 0-18.989-.989-18.989-7.718 0-10.717 10.302-34.305 19.048-43.616 7.286-7.756 7.278-7.762-10.287-6.734-30.019 1.757-41.441 21.231-38.29 65.281 2.029 28.36 10.731 48.533 23.081 53.506l8.729 3.602c.211.129 5.627-1.587 12.036-3.822z" fill="#fff" />
</svg>