<?xml version="1.0" encoding="UTF-8" standalone="no"?>

<svg
   version="1.1"
   id="Layer_1"
   x="0px"
   y="0px"
   viewBox="0 0 373.79998 364.60001"
   xml:space="preserve"
   width="373.79999"
   height="364.60001"
   xmlns="http://www.w3.org/2000/svg"
   xmlns:svg="http://www.w3.org/2000/svg"
   style="background-color:#003f4e"><defs
   id="defs13" />&#10;<style
   type="text/css"
   id="style1">&#10;	.st0{fill:#F9383D;}&#10;	.st1{fill:#FFFFFF;}&#10;	.st2{fill-rule:evenodd;clip-rule:evenodd;fill:#FFFFFF;}&#10;</style>&#10;&#10;&#10;&#10;&#10;&#10;&#10;&#10;&#10;&#10;&#10;&#10;&#10;&#10;<path
   d="M 118.78782,253.07225 C 99.158141,244.15474 80.009455,222.2267 76.769206,204.95493 c -7.196044,-38.35795 8.269303,-75.0174 38.253474,-90.67693 17.28066,-9.02525 62.76936,-11.41487 65.42855,-3.43728 1.12392,3.37067 5.36375,3.13281 16.9346,-0.94877 22.39353,-7.90084 40.83628,-6.71892 62.15716,3.98356 25.0259,12.56223 36.88079,30.49144 38.93442,58.88345 2.83889,39.2472 -14.50937,69.59539 -46.84213,81.94361 -18.08735,6.90753 -55.40349,6.02131 -57.86864,-1.37366 -0.87703,-2.63052 -5.75075,-2.14679 -14.28043,1.41673 -17.59288,7.35076 -42.33714,6.6691 -60.69839,-1.67225 z m 97.11543,-10.74319 c 15.51741,4.05772 29.33121,-4.47841 36.1529,-22.34056 8.29296,-21.71474 5.85523,-63.85755 -4.74353,-82.00532 -6.57283,-11.25404 -9.20547,-12.65026 -23.8555,-12.65026 -19.81156,0 -29.95059,10.81053 -33.25658,35.45878 l -2.12077,15.81182 h 19.489 c 19.16867,0 19.48916,0.18951 19.48916,11.51544 0,15.32551 -9.4361,37.16285 -22.03885,51.00331 -5.63348,6.18639 -7.26091,8.97565 -3.61661,6.19786 3.64433,-2.77775 10.16961,-4.12388 14.50078,-2.99107 z m -54.2812,-1.42676 c 13.28655,-4.63188 23.65999,-25.36323 23.65999,-47.28481 v -13.21548 h -18.98907 c -16.5571,0 -18.98895,-0.98899 -18.98895,-7.71768 0,-10.71736 10.30151,-34.30527 19.04835,-43.61578 7.2862,-7.75599 7.27758,-7.76161 -10.28685,-6.73358 -30.01918,1.75694 -41.44146,21.23087 -38.28977,65.28085 2.0292,28.36034 10.73085,48.53273 23.08093,53.50637 4.59041,1.84851 8.51848,3.46933 8.72891,3.60184 0.21116,0.12912 5.62687,-1.58741 12.03646,-3.82173 z"
   fill="#ffffff"
   style="stroke-width:14.3539"
   id="path1-6" /></svg>
