<?xml version="1.0" encoding="UTF-8" standalone="no"?>
<svg
   version="1.1"
   id="Layer_1"
   x="0px"
   y="0px"
   viewBox="0 0 373.79998 364.60001"
   xml:space="preserve"
   width="373.79999"
   height="364.60001"
   xmlns="http://www.w3.org/2000/svg"
   xmlns:svg="http://www.w3.org/2000/svg"
   style="background-color:#ffffff"><defs
   id="defs13" />&#10;<style
   type="text/css"
   id="style1">&#10;	.st0{fill:#F9383D;}&#10;	.st1{fill:#FFFFFF;}&#10;	.st2{fill-rule:evenodd;clip-rule:evenodd;fill:#FFFFFF;}&#10;</style>&#10;&#10;&#10;&#10;&#10;&#10;&#10;&#10;&#10;&#10;&#10;&#10;&#10;&#10;<g
   id="g2"
   transform="matrix(2.1830481,0,0,2.1830481,-353.46357,-335.52195)"><path
     class="cls-1"
     d="m 210.4921,229.82635 c 0,-3.93 -0.94,-5.64 -3.08,-5.64 -2.74,0 -3.08,3.42 -3.08,9 0,6.07 0.34,8.9 3.08,8.9 2.39,0 3,-1.63 3.08,-6.42 h 7.52 c -0.08,8.38 -3.33,11.72 -10.69,11.72 -10.17,0 -11,-7.18 -11,-15.22 0,-7.61 2.23,-13.26 11,-13.26 8.47,0 10.69,4.45 10.69,10.86 h -7.52 z"
     id="path27"
     fill="#23254f" /><path
     class="cls-1"
     d="m 231.0121,224.28635 c -2.39,0 -3.08,2.31 -3.08,8.89 0,6.58 0.69,9 3.08,9 2.39,0 3,-2.22 3,-8.89 0,-6.67 -0.51,-9 -3,-9 m -11.2,9 c 0,-8.12 1.79,-14.28 11.11,-14.28 9.92,0 11.12,6.07 11.12,14.19 0,8.12 -1.8,14.26 -11.13,14.26 -9.92,0 -11.11,-6.07 -11.11,-14.19"
     id="path28"
     fill="#23254f" /><path
     class="cls-1"
     d="m 263.9121,224.28635 c -2.39,0 -3.08,2.31 -3.08,8.89 0,6.58 0.69,9 3.08,9 2.39,0 3,-2.22 3,-8.89 0,-6.67 -0.43,-9 -3,-9 m -11.2,9 c 0,-8.12 1.79,-14.28 11.11,-14.28 9.92,0 11.12,6.07 11.12,14.19 0,8.12 -1.8,14.28 -11.12,14.28 -9.83,0 -11.11,-6.07 -11.11,-14.19"
     id="path29"
     fill="#23254f" /><path
     class="cls-1"
     d="m 287.6121,241.55635 c 2.91,0 3.08,-3.25 3.08,-8.12 0,-4.36 -0.08,-8.46 -3.16,-8.46 -2.4,0 -2.91,2.9 -2.91,8.12 0,4.7 0.17,8.46 3,8.46 m -10.95,-21.89 h 7.78 v 3.34 h 0.09 a 5.64,5.64 0 0 1 5.81,-4 c 5.47,0 8.38,3.93 8.38,14 0,8.38 -1.2,14.45 -7.87,14.45 a 6.26,6.26 0 0 1 -6.07,-3.63 h -0.08 v 11.67 h -8.13 v -35.83 z"
     id="path30"
     fill="#23254f" /><rect
     class="cls-1"
     x="243.2421"
     y="229.84636"
     width="8.1199999"
     height="6.5799999"
     id="rect35"
     style="fill:#23254f" /></g></svg>
