<svg xmlns="http://www.w3.org/2000/svg" width="373.8" height="364.6">
  <rect width="373.8" height="364.6" fill="#ffffff" />
  <path d="M106.051 166.2c0-8.579-2.052-12.312-6.724-12.312-5.982 0-6.724 7.466-6.724 19.647 0 13.251.742 19.429 6.724 19.429 5.217 0 6.549-3.558 6.724-14.015h16.417c-.175 18.294-7.27 25.585-23.337 25.585-22.202 0-24.014-15.674-24.014-33.226 0-16.613 4.868-28.947 24.014-28.947 18.49 0 23.337 9.715 23.337 23.708h-16.417zm44.796-12.094c-5.217 0-6.724 5.043-6.724 19.407s1.506 19.647 6.724 19.647 6.549-4.846 6.549-19.407-1.113-19.647-6.549-19.647m-24.45 19.647c0-17.726 3.908-31.174 24.254-31.174 21.656 0 24.275 13.251 24.275 30.977s-3.929 31.13-24.297 31.13c-21.656 0-24.254-13.251-24.254-30.977m96.294-19.603c-5.217 0-6.724 5.043-6.724 19.407s1.506 19.647 6.724 19.647 6.549-4.846 6.549-19.407-.939-19.647-6.549-19.647m-24.45 19.647c0-17.726 3.908-31.174 24.254-31.174 21.656 0 24.275 13.251 24.275 30.977s-3.929 31.174-24.275 31.174c-21.459 0-24.254-13.251-24.254-30.977m76.188 18.054c6.353 0 6.724-7.095 6.724-17.726 0-9.518-.175-18.469-6.898-18.469-5.239 0-6.353 6.331-6.353 17.726 0 10.26.371 18.469 6.549 18.469m-23.904-47.787h16.984v7.291h.196c1.661-5.522 6.933-9.151 12.684-8.732 11.941 0 18.294 8.579 18.294 30.563 0 18.294-2.62 31.545-17.181 31.545-5.629.346-10.892-2.802-13.251-7.924h-.175v25.476h-17.748V144.02zm-72.979 22.224h17.726v14.364h-17.726z" fill="#23254f" />
</svg>