<svg xmlns="http://www.w3.org/2000/svg" width="373.8" height="364.6" style="background-color:#ffffff"><g fill="#9e8d60"><path d="M244.94 158.273l1.549.136 1.7.203 1.527.263.391.053.398-2.543-1.978-.353c-1.437-.218-2.28-.308-3.596-.354l-.383-.016-.037 2.595.429.016zm-6.311.346l3.964-1.632-3.964-1.963-3.904 1.963zm-9.591.006l1.715-.173 1.692-.113.354-.021-.135-2.61-1.851.12-2.008.248-2.001.338.339 2.43 1.896-.218zm-.489 1.858c-2.858.376-4.235.978-4.235 1.858 0 .541.564 1.023 1.61 1.377.94.323 1.896.579 2.881.767 2.385.474 6.033.737 10.208.737 3.355 0 6.07-.18 8.561-.572 1.219-.188 2.414-.451 3.573-.774 1.189-.339 1.783-.828 1.783-1.49s-.564-1.158-1.64-1.452a21.21 21.21 0 0 0-3.799-.67c-2.001-.18-5.755-.316-8.801-.316-4.032-.006-7.41.173-10.14.534zm28.021-3.671l-.18.745-.12.436-3.475.579 3.024 2.603c-.053.181-.082.324-.105.414-.256 1.144-.293 1.294-.519 1.798-.331.76-.609 1.083-1.324 1.535-.782.489-1.67.88-2.715 1.203-1.264.384-2.648.677-4.123.888a69.89 69.89 0 0 1-8.786.579c-2.858 0-5.882-.218-8.387-.609-1.497-.233-2.791-.527-3.874-.88-.918-.301-1.775-.662-2.362-.993-.617-.346-1.158-.88-1.429-1.407-.143-.271-.263-.602-.369-.993-.143-.489-.196-.737-.323-1.407l3.182-2.678-3.679-.707-.113-.361-.173-.858-.098-.346.406-.158c1.188-.466 3.182-.986 5.205-1.354 2.22-.406 4.807-.707 8.004-.918 2.001-.136 3.551-.196 5.078-.196 1.188 0 2.467.037 3.844.113 2.971.158 4.867.391 7.755.963a54.02 54.02 0 0 1 3.287.737c1.129.301 1.505.421 2.483.835l-.113.437m-69.601 127.75c56.479 0 102.267-45.789 102.267-102.267 0-56.471-45.789-102.257-102.267-102.257S84.713 125.827 84.713 182.295c0 56.479 45.781 102.267 102.257 102.267zM79.811 182.295c0-59.141 47.94-107.084 107.084-107.084s107.093 47.94 107.093 107.084-47.94 107.093-107.093 107.093c-59.141 0-107.084-47.948-107.084-107.093"/><path d="M196.934 257.404c4.356 3.438 9.689 5.251 15.421 5.251 2.64 0 5.16-.391 7.477-1.151 5.077-1.67 9.11-4.927 12.044-9.741.887-1.452 1.595-2.919 2.114-4.378.564-1.58.752-2.332 1.113-4.438a17.33 17.33 0 0 1-2.716-.354c-1.233-.248-2.384-.587-3.452-1.008-2.234-.873-4.401-2.227-6.311-3.949-2.437-2.204-4.454-4.972-6.056-8.32a45.45 45.45 0 0 1-1.046-2.4 20.82 20.82 0 0 1-.752-2.129c-1.617 1.016-2.189 1.535-3.152 2.858-.699.955-1.234 2.024-1.587 3.159-.376 1.204-.579 2.746-.579 4.303 0 1.858.263 3.551.79 5.002.888 2.46 2.723 4.814 4.874 6.251 1.534 1.023 3.446 1.723 5.378 1.971a17.76 17.76 0 0 0 2.212.128 14.77 14.77 0 0 0 1.46-.06 4.07 4.07 0 0 1-.18.233c-.361.429-.933.82-1.753 1.204a9.85 9.85 0 0 1-1.444.549c-.933.278-2.061.421-3.287.421a18.22 18.22 0 0 1-1.279-.053c-1.813-.15-3.197-.557-4.761-1.422-2.039-1.113-3.498-2.535-4.611-4.483a16.24 16.24 0 0 1-1.993-7.59c0-3.009 1.046-6.304 2.821-8.937a15.02 15.02 0 0 1 2.686-3.024c1.173-1.001 1.805-1.407 3.769-2.445l-.173-.609c-.248-.978-.745-3.671-1.061-5.777l-.541-3.656-.655-3.363-.752-3.784c-.376-1.881-.76-3.468-1.158-4.762-.963-3.13-2.686-6.808-4.408-9.418-1.324-1.993-3.016-3.949-4.687-5.424-.556-.489-.85-.722-1.617-1.279a19.73 19.73 0 0 0 1.008.021c.376 0 .903-.006 1.58-.037 2.693-.188 3.837-.301 5.431-.527l3.182-.451a45.02 45.02 0 0 1 5.59-.376c1.158 0 2.317.06 3.701.203 1.256.128 2.475.301 3.648.527 1.647.316 2.212.489 3.535 1.09l-.195-.782c-.512-1.835-1.445-3.49-2.761-4.912-.692-.745-1.504-1.429-2.399-2.039-2.536-1.7-5.311-2.512-8.599-2.512-4.213 0-8.831 1.248-12.697 3.43-2.061 1.166-4.16 2.58-6.289 4.235-1.49 1.158-2.001 1.625-3.475 3.137l.504.617c2.317 2.851 4.243 5.582 5.755 8.184 4.453 7.65 6.679 16.038 6.679 25.148 0 7.59-1.557 14.781-4.649 21.514-.978 2.121-2.159 4.295-3.528 6.499a42.43 42.43 0 0 1-3.234 4.611c2.384 2.761 3.205 3.573 5.07 5.04zm-64.167-18.137a20.41 20.41 0 0 1 .098-1.745c.241-2.603.677-4.273 1.61-6.236a18.06 18.06 0 0 1 1.136-2.054c.474-.752 1.264-1.828 2.309-3.167.339-.429.587-.775.745-1.038a6.43 6.43 0 0 0 .813-2.994c0-3.295-2.919-5.973-6.507-5.973-5.1 0-9.012 5.168-9.012 11.893 0 3.099.797 5.567 2.535 7.808a13.41 13.41 0 0 0 2.61 2.52c1.452 1.068 2.061 1.369 3.686 1.79l-.021-.805zm45.549 7.778c-1.241-1.993-2.302-3.927-3.167-5.792-3.009-6.462-4.603-13.976-4.603-21.597 0-9.019 2.144-17.06 6.68-25.065 2.166-3.814 3.385-5.386 6.484-8.906-1.58-1.715-2.234-2.377-4.859-4.356-1.979-1.377-3.348-2.355-5.334-3.347-3.791-1.888-8.034-3.069-12.277-3.069-1.527 0-3.28.271-4.641.655-2.475.692-4.867 2.136-6.567 3.972a11.99 11.99 0 0 0-1.828 2.55c-.572 1.075-.775 1.647-1.136 3.144 1.331-.602 1.888-.774 3.535-1.09 1.173-.226 2.392-.399 3.648-.527 1.384-.143 2.543-.203 3.709-.203a45.19 45.19 0 0 1 5.582.376l3.182.451a66.57 66.57 0 0 0 2.678.316c1.813.173 3.047.256 4.175.256.354 0 .602-.006 1.166-.032l-.527.383c-1.121.857-2.249 1.918-3.355 3.174-1.896 2.144-3.317 4.333-4.732 7.29-1.61 3.34-2.43 5.875-3.257 10.035l-.752 3.784-.655 3.363-.541 3.656a106.96 106.96 0 0 1-.624 3.701c-.256 1.369-.323 1.693-.609 2.686 1.963 1.038 2.595 1.444 3.768 2.445 1.016.865 1.919 1.881 2.686 3.024 1.775 2.633 2.821 5.928 2.821 8.937 0 1.362-.211 2.783-.617 4.235-.699 2.482-1.843 4.483-3.408 5.988-1.339 1.271-3.272 2.385-5.025 2.874-1.031.293-2.309.451-3.596.451a14.3 14.3 0 0 1-.797-.022c-1.535-.083-2.663-.354-3.934-.948a9.1 9.1 0 0 1-1.001-.557 3.04 3.04 0 0 1-.933-.88 14.73 14.73 0 0 0 1.467.06c1.783 0 3.137-.196 4.566-.654 1.978-.639 3.565-1.632 4.995-3.107 2.52-2.61 3.686-5.642 3.686-9.591 0-1.557-.211-3.099-.579-4.303a10.4 10.4 0 0 0-1.588-3.159c-.963-1.324-1.534-1.843-3.151-2.858-.263.865-.377 1.189-.753 2.129a39.31 39.31 0 0 1-1.046 2.4c-1.595 3.347-3.618 6.116-6.056 8.32-1.911 1.723-4.069 3.077-6.311 3.949-1.069.421-2.227.76-3.453 1.008-1.053.211-1.52.271-2.716.354.043.263.083.459.098.594.564 3.077 1.512 5.567 3.13 8.222 1.151 1.888 2.467 3.536 3.911 4.905 4.122 3.904 9.651 6.025 15.67 6.025 6.1 0 10.538-1.241 16.489-6.138 2.7-2.219 2.971-2.889 4.16-4.167-1.783-2.159-2.422-3.039-3.859-5.341zm-27.434-24.102c-.669 0-1.414.075-2.219.241-2.023.406-3.708 1.166-5.123 2.317-1.979 1.602-3.656 4.258-4.559 7.214-.511 1.693-.79 3.551-.79 5.341 0 1.068.048 1.52.234 2.678 1.384-.218 1.888-.331 2.753-.617.948-.316 1.836-.752 2.618-1.294 1.474-1.016 2.956-2.678 4.213-4.724a30.49 30.49 0 0 0 2.761-5.973c.136-.421.384-1.271.73-2.55.383-1.422.436-1.625.587-2.558-.587-.06-.843-.075-1.204-.075zm93.842 15.338c1.001-.737 1.873-1.587 2.603-2.52 1.738-2.242 2.542-4.709 2.542-7.808 0-6.725-3.919-11.893-9.019-11.893-3.588 0-6.507 2.678-6.507 5.973 0 .624.121 1.279.346 1.956.263.767.481 1.136 1.211 2.076l1.053 1.377c1.166 1.557 1.775 2.535 2.399 3.844a16.65 16.65 0 0 1 1.008 2.693c.376 1.377.692 3.776.692 5.288a20.44 20.44 0 0 1-.021.805c1.625-.421 2.234-.722 3.693-1.79zm-62.391-38.582c-1.474 5.138-2.189 10.418-2.189 16.135 0 8.651 1.678 17.339 4.769 24.681.609 1.452.978 2.242 1.963 4.19.933-1.708 1.219-2.317 1.993-4.31 3.408-8.779 4.814-15.887 4.814-24.373 0-5.837-.722-11.185-2.196-16.323-1.189-4.107-2.031-5.912-4.611-9.809-2.497 3.746-3.295 5.461-4.543 9.809zm39.989 25.877c.805 2.934 1.015 3.551 1.858 5.409 1.189 2.618 2.505 4.671 3.98 6.214 1.444 1.497 3.092 2.58 4.483 2.919l2.046.504c.354.083.572.128.654.128.068 0 .128-.241.136-.549l.12-3.182c0-1.279-.256-2.731-.76-4.303-1.001-3.107-2.58-5.612-4.559-7.214a10.8 10.8 0 0 0-2.272-1.407c-1.52-.7-3.521-1.151-5.07-1.151-.361 0-.617.015-1.196.075.151.933.196 1.136.579 2.558zm-41.757 35.973c-5.16 2.64-11.795 4.167-17.632 4.175-8.605.015-15.872-2.55-21.566-7.568-3.588-3.159-5.785-6.514-7.297-11.155-.624-1.903-.797-2.64-1.068-4.566l-.564-.083c-2.309-.384-5.123-1.7-7.078-3.31-.94-.775-1.85-1.738-2.708-2.874-2.49-3.287-3.663-6.665-3.663-10.523 0-4.137 1.331-7.485 4.107-10.336.835-.85 1.707-1.55 2.61-2.106a12.46 12.46 0 0 1 6.402-1.768c2.813 0 5.055.918 6.996 2.866.872.873 1.527 1.828 1.925 2.806.384.925.564 1.896.564 3.024a11.43 11.43 0 0 1-.165 1.873c-.143.835-.234 1.121-.572 1.828 1.271-.903 1.813-1.196 3.197-1.73 2.076-.805 4.378-1.204 6.898-1.204a25.5 25.5 0 0 1 1.512.045l.098-.617.632-2.919 1.008-4.897c.7-3.408 2.054-7.801 3.242-10.553 1.474-3.408 3.4-6.462 5.965-9.471 1.557-1.813 3.317-3.566 4.724-4.687.797-.639 1.151-.873 2.084-1.399-.308-.06-.504-.097-.587-.105-.391-.043-1.128-.082-2.212-.113l-4.618-.128-.557-.006c-2.159 0-5.476.429-7.928 1.023a25.64 25.64 0 0 0-3.468 1.091c-1.7.677-2.355 1.038-3.904 2.129.361 1.219.534 1.632.985 2.28.331.496.775.925 1.302 1.279.88.579 2.031.918 3.159.918a5.5 5.5 0 0 0 2.445-.579c.685-.331 1.279-.782 1.746-1.324.519-.602.729-.986 1.075-1.993.113.437.151.632.151.978 0 .97-.436 2.377-1.008 3.25-.549.835-1.617 1.775-2.603 2.294-.993.512-2.294.82-3.498.82a7.77 7.77 0 0 1-2.535-.444c-.986-.353-1.873-.865-2.603-1.512-.918-.82-1.256-1.302-1.85-2.633-.843 1.128-1.113 1.61-1.632 2.941a14.42 14.42 0 0 0-1.023 5.409c0 1.873.323 3.724.918 5.273.399 1.023.971 2.069 1.7 3.107.933 1.316 1.445 1.888 2.889 3.197a20.87 20.87 0 0 1-.835-.384 16.15 16.15 0 0 1-4.536-3.378c-.692-.76-1.324-1.625-1.873-2.588-1.429-2.467-2.151-5.19-2.151-8.072 0-3.084.782-5.619 2.542-8.192.873-1.272 1.309-1.775 2.558-2.934l.043-1.001c.188-2.851 1.196-5.251 3.227-7.673 2.144-2.557 4.506-4.152 7.936-5.348 2.828-.986 5.597-1.452 8.688-1.452 4.325 0 9.094.865 13.292 2.565 1.85.752 3.378 1.482 5.296 2.633 2.738 1.632 3.957 2.625 6.131 4.664l1.053-.865c3.866-2.926 6.228-4.709 10.517-6.402 4.656-1.836 8.884-2.595 13.202-2.595 1.241 0 2.422.075 3.543.218 3.498.459 7.101 1.723 9.538 3.348 2.542 1.7 4.859 4.446 5.905 7.011.692 1.685.857 2.588.925 4.897 1.248 1.158 1.692 1.662 2.557 2.934 1.76 2.572 2.542 5.108 2.542 8.192 0 1.489-.195 2.956-.587 4.348-.647 2.347-1.888 4.611-3.438 6.311-.699.767-1.534 1.489-2.467 2.144-1.023.722-1.542 1.008-2.904 1.617 1.444-1.309 1.956-1.881 2.889-3.197.737-1.038 1.309-2.084 1.7-3.107.594-1.55.918-3.4.918-5.273a14.42 14.42 0 0 0-1.023-5.409c-.519-1.331-.79-1.813-1.632-2.941-.594 1.331-.933 1.813-1.85 2.633-1.362 1.211-3.317 1.956-5.138 1.956a8.24 8.24 0 0 1-1.64-.173c-1.294-.271-2.264-.76-3.28-1.64-.993-.857-1.489-1.61-1.881-2.836-.188-.587-.301-1.248-.301-1.715 0-.346.032-.541.143-.978.354 1.008.557 1.392 1.076 1.993 1.023 1.181 2.61 1.903 4.197 1.903 1.121 0 2.272-.338 3.152-.918.527-.354.971-.782 1.309-1.279.444-.647.617-1.061.978-2.28-1.542-1.09-2.204-1.452-3.897-2.129a25.8 25.8 0 0 0-3.475-1.091c-2.453-.594-5.77-1.023-7.929-1.023l-.556.006-4.619.128c-1.083.032-1.821.068-2.219.113a11.94 11.94 0 0 0-.579.105c.94.527 1.286.76 2.083 1.399 1.407 1.121 3.175 2.874 4.724 4.687 2.565 3.009 4.491 6.063 5.965 9.471 1.189 2.753 2.543 7.146 3.242 10.553l1.015 4.897.624 2.919.105.617a25.05 25.05 0 0 1 1.505-.045c2.528 0 4.822.399 6.898 1.204 1.384.534 1.925.827 3.197 1.73-.338-.707-.421-.993-.572-1.828-.113-.624-.165-1.264-.165-1.873 0-1.128.181-2.099.564-3.024.399-.978 1.061-1.933 1.925-2.806 1.941-1.948 4.183-2.866 7.003-2.866 2.257 0 4.514.624 6.394 1.768a13.64 13.64 0 0 1 2.61 2.106c2.776 2.851 4.107 6.198 4.107 10.336 0 1.805-.271 3.543-.79 5.16-.978 3.009-3.189 6.274-5.582 8.237-1.038.858-2.279 1.61-3.671 2.234-1.64.737-2.287.925-3.972 1.158l-.09.647c-.489 3.114-1.881 6.891-3.528 9.546-2.483 4.017-6.65 7.658-11.374 9.93-4.348 2.091-9.388 3.167-14.804 3.167-5.981 0-11.675-1.294-17.031-3.867-3.212-1.542-4.393-2.309-7.116-4.626-2.392 1.866-3.129 2.693-6.311 4.318m61.739-143.513l-3.317 2.573 3.317 2.61v-5.183"/><use href="#B"/><path d="M234.573 123.217l3.535-2.618-3.535-2.565v5.183m1.042-6.498l2.896 3.446 2.731-3.446h-5.627m5.635 25.919l.037-.624.331-4.649.248-2.347.444-2.806-.655.188c-1.008.271-1.836.376-3.039.376-.722 0-1.369-.037-1.94-.113-.7-.09-1.038-.173-1.858-.429l.083.654.278 2.061.301 2.663.233 2.528.121 2.001.037.496h5.378zm-2.746 5.379l3.175-4.258h-6.372zm-.79.278l-3.693-3.152v5.792zm1.685.032l3.573 2.648v-5.763zm16.467-2.813l1.429-3.904c.925-2.49 1.181-3.535 1.181-4.807 0-1.046-.188-1.775-.662-2.536-.955-1.534-2.821-2.422-5.063-2.422-1.166 0-2.475.211-4.859.775l-1.873.459-2.453.654-.037.376-.165 1.332c-.021.135-.061.572-.128 1.309-.006.143-.032.353-.06.632l.466-.181c1.354-.474 3.535-.812 5.206-.812.654 0 1.324.075 1.993.226 1.504.331 2.768 1.038 3.656 2.031.489.549.85 1.166 1.053 1.82.226.73.338 1.587.338 2.633l-.021.835c-.048.692-.105 1.166-.294 2.453l.294-.873zm-34.536.098a19.29 19.29 0 0 1-.211-2.7l.043-.903c.151-1.181.699-2.565 1.347-3.362.361-.437.835-.835 1.406-1.181 1.227-.737 2.558-1.068 4.273-1.068.895 0 2.054.113 3.129.308 1.098.195 1.527.308 2.595.662l-.037-.414-.143-1.437-.226-1.738-.316-.075-2.016-.542-2.49-.639c-2.317-.579-3.107-.707-4.348-.707-1.015 0-1.993.188-2.866.564-1.745.737-2.881 2.414-2.881 4.273 0 1.143.279 2.535.865 4.378l1.73 4.641.278.715-.136-.775zm-2.151 6.484l-1.045-3.174-.85-2.355-1.279-3.317-1.068-3.152c-.361-1.286-.541-2.415-.541-3.325s.188-2.046.474-2.866c.444-1.256 1.459-2.754 2.467-3.626 1.008-.88 2.716-1.715 4.205-2.061.782-.181 1.678-.271 2.678-.271.79 0 1.595.061 2.407.173 1.324.188 3.513.707 5.491 1.309l1.121.323 1.219.256c-.097-.542-.12-.737-.12-1.076l.016-.354c.061-.692.414-1.339.948-1.745.248-.188.535-.353.85-.481.699-.301 1.219-.398 2.091-.398l.331.006c1.045.032 1.632.143 2.37.444.797.323 1.286.745 1.617 1.377.203.384.316.82.316 1.241 0 .398-.053.594-.256 1.053.557-.09.67-.12 1.527-.399l3.167-.918c1.986-.497 3.987-.79 5.424-.79a12.64 12.64 0 0 1 2.648.278c1.707.376 3.152 1.053 4.318 2.039a8.44 8.44 0 0 1 1.798 2.136c.715 1.227 1.128 2.731 1.128 4.092 0 1.068-.173 2.257-.527 3.535-.481 1.783-.602 2.122-2.144 6.168l-1.113 2.994-1.196 3.453c-.933.263-1.316.316-2.129.316-1.534 0-3.024-.474-4.13-1.309a6.19 6.19 0 0 1-.828-.775 2.78 2.78 0 0 1-.677-1.204c.632-.391.925-.527 1.542-.722a14.55 14.55 0 0 1 1.452-.369l1.55-.226c-.158-.579-.279-.774-.73-1.166-.541-.458-1.241-.714-1.948-.714a9.63 9.63 0 0 0-.752.043l.158-.602a8.02 8.02 0 0 0 .173-1.647 5.59 5.59 0 0 0-.256-1.61c-.218-.722-.301-.88-.692-1.331-.497.399-.624.549-1.001 1.264-.541 1.001-.797 1.911-.797 2.858 0 .233.016.406.06.805-.444-.128-.624-.151-.948-.151-.632 0-1.249.113-1.723.323-.391.173-.624.376-1.03.903.534.158.714.226 1.286.496l1.377.722a6.7 6.7 0 0 1 1.422 1.046c-.323.587-.459.73-1.158 1.196a6.25 6.25 0 0 1-3.566 1.106c-.662 0-1.339-.098-2.001-.301-1.391-.421-2.098-.903-3.37-2.287l-.429-.459c-.579.857-.857 1.158-1.557 1.7-1.227.94-2.453 1.339-4.092 1.339-1.362 0-2.415-.271-3.385-.865-.707-.444-.955-.692-1.392-1.444.497-.564.722-.775 1.204-1.098a7.82 7.82 0 0 1 1.098-.602c.564-.24.88-.353 1.693-.579-.391-.519-.587-.685-1.068-.925-.489-.241-1.001-.361-1.512-.361-.361 0-.572.037-1.068.18.098-.398.12-.579.12-.835 0-.429-.098-.986-.293-1.64-.143-.466-.301-.865-.466-1.181-.286-.527-.466-.76-1.001-1.286a3.52 3.52 0 0 0-.722 1.331c-.248.692-.383 1.437-.383 2.031l.016.384c.048.398.09.556.399 1.534a3.7 3.7 0 0 0-.655-.068 3.16 3.16 0 0 0-1.888.669c-.413.323-.571.549-.843 1.158a6.45 6.45 0 0 1 1.49.196 11.14 11.14 0 0 1 1.406.391c.67.226.956.354 1.64.745-.504 1.015-.745 1.369-1.316 1.88-1.001.911-2.693 1.46-4.506 1.46-.91 0-1.219-.053-2.084-.376l-.158-.519m-80.153-34.112l-3.31 2.573 3.31 2.61v-5.183"/><use href="#B" x="-103.28" y="-0.056"/><path d="M131.292 123.161l3.536-2.618-3.536-2.565v5.183m1.052-6.498l2.896 3.446 2.731-3.446h-5.627m5.634 25.918l.037-.624.331-4.649.248-2.347.444-2.806-.662.188c-1.008.271-1.828.376-3.032.376-.722 0-1.369-.037-1.941-.113-.699-.09-1.038-.173-1.858-.429l.083.654.278 2.061.301 2.663.233 2.528.12 2.001.037.496h5.378zm-2.746 5.378l3.174-4.25h-6.364zm-.79.279l-3.693-3.152v5.8zm1.685.032l3.573 2.648v-5.763zm16.467-2.813l1.422-3.904c.933-2.49 1.188-3.535 1.188-4.807 0-1.045-.188-1.775-.662-2.535-.963-1.534-2.821-2.422-5.063-2.422-1.166 0-2.475.211-4.86.775l-1.873.459-2.453.654-.037.376-.166 1.332c-.021.135-.06.571-.128 1.308-.006.143-.032.354-.06.632l.466-.18c1.354-.474 3.535-.812 5.213-.812a9.13 9.13 0 0 1 1.986.226c1.505.338 2.769 1.038 3.656 2.031.489.549.85 1.174 1.053 1.821.226.73.338 1.587.338 2.633l-.021.835c-.043.692-.098 1.166-.294 2.452l.294-.872zm-34.536.098a18.29 18.29 0 0 1-.211-2.701l.043-.903c.151-1.181.699-2.557 1.347-3.363.361-.436.835-.835 1.399-1.173 1.233-.745 2.565-1.075 4.28-1.075.895 0 2.046.113 3.13.308 1.09.195 1.527.308 2.595.662l-.037-.414-.143-1.437-.233-1.738-.308-.075a101.72 101.72 0 0 1-2.016-.542l-2.49-.639c-2.317-.579-3.107-.707-4.356-.707a7.39 7.39 0 0 0-2.858.556c-1.753.745-2.881 2.422-2.881 4.281 0 1.143.278 2.535.865 4.378l1.73 4.649.279.707-.136-.774zm-2.151 6.484l-1.046-3.174-.85-2.355-1.279-3.317-1.068-3.152c-.361-1.286-.542-2.415-.542-3.325s.188-2.046.474-2.866c.444-1.256 1.46-2.753 2.467-3.625 1.008-.88 2.716-1.715 4.213-2.062.775-.18 1.67-.271 2.671-.271.79 0 1.595.06 2.407.173 1.324.188 3.505.714 5.491 1.308l1.121.324 1.219.255c-.105-.541-.12-.737-.12-1.075l.016-.354a2.48 2.48 0 0 1 .948-1.745 4.13 4.13 0 0 1 .843-.481c.707-.301 1.227-.391 2.099-.391h.339c1.038.032 1.624.143 2.362.444.798.323 1.287.745 1.617 1.377a2.69 2.69 0 0 1 .316 1.241c0 .398-.053.594-.263 1.053.564-.09.67-.113 1.534-.399l3.167-.918c1.986-.497 3.987-.79 5.432-.79a12.6 12.6 0 0 1 2.64.278c1.707.376 3.152 1.053 4.318 2.039.714.609 1.324 1.331 1.798 2.144a8.38 8.38 0 0 1 1.128 4.085c0 1.068-.173 2.257-.527 3.535-.489 1.79-.602 2.121-2.144 6.168l-1.114 2.994-1.196 3.453c-.933.263-1.316.316-2.122.316-1.542 0-3.024-.466-4.137-1.309a5.77 5.77 0 0 1-.828-.775 2.78 2.78 0 0 1-.677-1.204c.632-.391.925-.527 1.542-.722a14.51 14.51 0 0 1 1.452-.369l1.55-.226c-.158-.579-.279-.774-.73-1.166-.542-.459-1.241-.714-1.948-.714a9.64 9.64 0 0 0-.753.043l.158-.602c.105-.474.173-1.083.173-1.647a5.59 5.59 0 0 0-.256-1.61c-.218-.722-.308-.88-.692-1.331-.497.398-.624.549-1.001 1.256-.542 1.008-.79 1.918-.79 2.866 0 .233.006.406.053.805-.444-.128-.624-.15-.948-.15-.632 0-1.249.113-1.723.323-.391.173-.624.376-1.031.903.535.158.722.226 1.287.496l1.369.722a6.57 6.57 0 0 1 1.429 1.046c-.323.587-.466.73-1.158 1.196-1.113.745-2.287 1.113-3.566 1.113-.662 0-1.339-.105-2.001-.308-1.391-.421-2.099-.903-3.37-2.287l-.429-.458c-.579.857-.857 1.158-1.557 1.7-1.227.94-2.445 1.339-4.085 1.339-1.369 0-2.422-.271-3.392-.865-.707-.444-.956-.692-1.384-1.437.489-.572.715-.782 1.196-1.106a7.82 7.82 0 0 1 1.098-.602 10.97 10.97 0 0 1 1.692-.579c-.391-.519-.587-.685-1.068-.925a3.38 3.38 0 0 0-1.512-.361c-.361 0-.572.037-1.068.18.098-.398.12-.579.12-.835 0-.429-.098-.985-.301-1.64-.135-.466-.293-.865-.458-1.181-.286-.527-.466-.76-1.001-1.287a3.65 3.65 0 0 0-.73 1.332c-.241.699-.376 1.437-.376 2.031a3.09 3.09 0 0 0 .021.384c.037.398.083.556.391 1.534-.323-.053-.474-.068-.654-.068-.654 0-1.346.248-1.888.67-.414.323-.572.549-.843 1.158.617.021.843.053 1.482.196a12.3 12.3 0 0 1 1.414.383 7.94 7.94 0 0 1 1.64.752c-.504 1.016-.745 1.369-1.309 1.881-1.015.91-2.7 1.46-4.513 1.46-.903 0-1.219-.053-2.084-.376l-.158-.519m25.643 6.209l1.55.135 1.693.203 1.534.263.391.053.399-2.55-1.979-.346a25.85 25.85 0 0 0-3.596-.353l-.383-.016-.037 2.596.429.016zm-6.319.346l3.972-1.632-3.972-1.963-3.897 1.963zm-9.591.011l1.723-.173 1.685-.113.353-.021-.128-2.61-1.858.12-2.001.248-2.001.339.338 2.43 1.888-.218zm-.481 1.858c-2.858.376-4.243.978-4.243 1.858 0 .541.564 1.023 1.617 1.377a20.59 20.59 0 0 0 2.881.768c2.377.474 6.033.737 10.208.737 3.355 0 6.063-.181 8.56-.572 1.219-.188 2.415-.452 3.573-.775 1.189-.338 1.783-.827 1.783-1.489s-.564-1.158-1.64-1.452a21.32 21.32 0 0 0-3.799-.669c-2.001-.181-5.763-.316-8.802-.316-4.032-.006-7.409.173-10.14.534zm28.021-3.671l-.18.745-.121.437-3.475.579 3.017 2.603c-.048.18-.076.323-.098.414-.256 1.144-.301 1.294-.519 1.798-.331.76-.61 1.083-1.331 1.534-.775.489-1.663.88-2.708 1.204-1.271.383-2.648.677-4.13.888-2.565.354-5.958.579-8.779.579-2.866 0-5.883-.218-8.387-.61-1.505-.233-2.798-.527-3.882-.88-.91-.301-1.775-.662-2.355-.993-.616-.346-1.166-.88-1.437-1.407-.135-.271-.263-.602-.369-.993a14.43 14.43 0 0 1-.323-1.407l3.19-2.678-3.679-.707-.113-.361-.181-.857-.098-.346c.181-.068.316-.128.406-.165 1.196-.458 3.182-.978 5.213-1.346 2.212-.406 4.807-.707 8.004-.918 2.001-.135 3.55-.195 5.077-.195 1.181 0 2.46.037 3.844.113a48.53 48.53 0 0 1 7.756.963c1.271.248 2.362.496 3.28.737 1.136.294 1.512.421 2.49.835l-.113.436m37.41-61.117l-3.309 2.572 3.309 2.61v-5.183"/><use href="#B" x="-51.715" y="-22.369"/><path d="M182.857 100.858l3.535-2.618-3.535-2.565v5.183m1.043-6.508l2.896 3.445 2.731-3.445H183.9m5.644 25.928l.037-.624.331-4.649.248-2.347.437-2.806-.655.188c-1.008.271-1.828.377-3.031.377-.722 0-1.369-.037-1.941-.113-.7-.09-1.038-.173-1.858-.429l.083.655.278 2.061.294 2.663.24 2.528.121 2.001.037.497zm-2.746 5.378l3.175-4.258h-6.372zm-.79.278l-3.701-3.152v5.792zm1.685.032l3.573 2.648v-5.762zm16.459-2.814l1.429-3.904c.933-2.49 1.189-3.535 1.189-4.807 0-1.046-.188-1.775-.67-2.535-.948-1.534-2.813-2.422-5.055-2.422-1.166 0-2.475.211-4.859.775l-1.873.458-2.452.655-.043.376-.158 1.331a25.86 25.86 0 0 0-.128 1.309l-.06.632.466-.18c1.354-.474 3.528-.813 5.206-.813a9.23 9.23 0 0 1 1.993.226c1.504.331 2.768 1.038 3.656 2.031.489.549.843 1.166 1.046 1.821.233.729.346 1.587.346 2.632l-.032.835c-.037.692-.098 1.166-.294 2.453l.294-.873zm-34.528.098a18.26 18.26 0 0 1-.211-2.7c0-.331.016-.632.048-.903.151-1.181.699-2.565 1.347-3.363.361-.436.835-.835 1.399-1.173 1.234-.745 2.565-1.076 4.281-1.076.887 0 2.046.113 3.129.308a15.25 15.25 0 0 1 2.595.662l-.037-.414-.143-1.437-.234-1.738-.316-.076c-.097-.032-.767-.203-2.008-.541l-2.49-.639c-2.317-.579-3.107-.707-4.348-.707-1.015 0-1.993.188-2.866.557-1.753.745-2.881 2.422-2.881 4.28 0 1.144.279 2.535.865 4.378l1.73 4.641.278.715-.136-.775zm-2.151 6.484l-1.045-3.174-.85-2.362-1.279-3.31-1.068-3.151c-.361-1.287-.541-2.415-.541-3.325s.188-2.046.474-2.866c.444-1.256 1.459-2.753 2.467-3.626 1.008-.88 2.716-1.715 4.205-2.061.782-.18 1.67-.271 2.671-.271.797 0 1.602.06 2.415.173 1.324.188 3.505.707 5.491 1.309l1.121.323 1.219.248c-.105-.534-.128-.73-.128-1.068a2.61 2.61 0 0 1 .021-.354 2.48 2.48 0 0 1 .948-1.745 3.95 3.95 0 0 1 .843-.481c.707-.301 1.226-.399 2.098-.399l.331.006c1.046.032 1.632.143 2.37.444.797.323 1.286.745 1.617 1.377a2.69 2.69 0 0 1 .316 1.241c0 .399-.053.595-.263 1.053.564-.09.67-.12 1.535-.398l3.167-.918c1.978-.496 3.987-.797 5.431-.797.872 0 1.76.098 2.64.286 1.707.376 3.152 1.053 4.318 2.038a8.44 8.44 0 0 1 1.798 2.137 8.42 8.42 0 0 1 1.129 4.092c0 1.061-.181 2.256-.527 3.535-.489 1.783-.602 2.121-2.144 6.168l-1.113 2.994-1.196 3.452c-.94.263-1.324.316-2.129.316-1.535 0-3.017-.466-4.13-1.309a5.84 5.84 0 0 1-.828-.774c-.383-.444-.496-.647-.677-1.204.632-.391.925-.527 1.542-.722.451-.143.94-.263 1.452-.369l1.542-.226c-.151-.579-.279-.775-.73-1.166-.534-.459-1.234-.722-1.941-.722a8.16 8.16 0 0 0-.752.053l.158-.602c.105-.474.165-1.083.165-1.647a5.59 5.59 0 0 0-.248-1.61c-.226-.722-.308-.88-.692-1.332-.496.399-.624.549-1.001 1.264-.541.993-.79 1.911-.79 2.859a7.53 7.53 0 0 0 .043.805c-.444-.128-.617-.151-.94-.151-.632 0-1.249.113-1.723.323-.391.173-.624.376-1.03.903.534.158.714.226 1.286.497l1.369.722a6.55 6.55 0 0 1 1.429 1.046c-.323.587-.466.73-1.158 1.196-1.113.745-2.294 1.106-3.565 1.106a6.92 6.92 0 0 1-2.009-.301c-1.384-.421-2.091-.903-3.37-2.287l-.421-.459c-.579.857-.857 1.158-1.564 1.7-1.219.94-2.445 1.339-4.085 1.339-1.362 0-2.415-.271-3.385-.865-.715-.444-.955-.692-1.392-1.437.497-.572.722-.782 1.204-1.106a7.1 7.1 0 0 1 1.098-.594c.557-.248.873-.361 1.685-.587-.383-.519-.579-.685-1.061-.925a3.42 3.42 0 0 0-1.512-.361c-.361 0-.572.037-1.068.181.09-.399.12-.579.12-.835 0-.436-.098-.986-.301-1.64-.143-.466-.294-.865-.466-1.181-.279-.534-.459-.76-.993-1.286a3.65 3.65 0 0 0-.73 1.331c-.241.692-.376 1.437-.376 2.031l.016.383c.043.399.09.557.399 1.534a3.7 3.7 0 0 0-.655-.068c-.654 0-1.346.248-1.888.67-.413.323-.579.549-.85 1.158.624.021.85.053 1.49.195.511.105.978.241 1.414.384.67.233.948.361 1.64.752-.504 1.015-.753 1.369-1.316 1.881-1.008.91-2.693 1.459-4.506 1.459-.903 0-1.226-.053-2.091-.376l-.151-.519m25.631 6.211l1.55.136 1.693.203 1.534.263.391.053.399-2.543-1.979-.353c-1.437-.218-2.279-.308-3.596-.354l-.383-.016-.037 2.595.429.016zm-6.319.346l3.972-1.632-3.972-1.963-3.897 1.963zm-9.583.006l1.715-.173 1.685-.113.354-.021-.128-2.61-1.85.12-2.008.248-2.001.338.338 2.43 1.896-.218zm-.489 1.858c-2.858.376-4.243.978-4.243 1.858 0 .541.564 1.023 1.617 1.377a20.52 20.52 0 0 0 2.881.767c2.384.474 6.033.737 10.208.737 3.355 0 6.063-.18 8.553-.572a30.82 30.82 0 0 0 3.581-.774c1.189-.339 1.775-.828 1.775-1.49s-.557-1.158-1.632-1.452a21.32 21.32 0 0 0-3.799-.67c-2.001-.18-5.755-.316-8.801-.316-4.032-.006-7.41.173-10.14.534zm28.021-3.671l-.18.745-.121.436-3.475.579 3.017 2.602-.098.414c-.256 1.144-.294 1.294-.519 1.798-.331.76-.61 1.083-1.331 1.535-.775.489-1.67.88-2.716 1.203-1.264.384-2.64.677-4.122.888-2.565.354-5.958.579-8.779.579-2.866 0-5.883-.218-8.387-.609-1.505-.234-2.798-.527-3.874-.88-.918-.301-1.783-.662-2.362-.993-.616-.346-1.158-.88-1.437-1.407-.135-.271-.256-.602-.369-.993-.135-.489-.196-.737-.323-1.407l3.19-2.678-3.679-.707-.113-.361-.181-.858-.098-.346c.188-.068.316-.128.414-.165 1.189-.459 3.174-.978 5.206-1.347 2.212-.406 4.799-.707 8.004-.918 2.001-.136 3.55-.196 5.077-.196a70.73 70.73 0 0 1 3.844.113 48.51 48.51 0 0 1 7.756.963 54.02 54.02 0 0 1 3.287.737c1.121.301 1.505.421 2.482.835l-.113.437"/></g><defs ><path id="B" d="M241.24 124.241l-2.731-2.979-2.971 2.979h5.702"/></defs></svg>