<svg xmlns="http://www.w3.org/2000/svg" width="373.8" height="364.6">
  <rect width="373.8" height="364.6" fill="#003662" />
  <path d="M263.465 228.539c11.41 3.603 22.819 8.407 35.43 15.613-30.626-50.443-84.672-105.09-138.118-140.52 13.812 13.812 36.031 43.837 42.036 75.664 21.618 15.613 42.036 32.428 60.652 49.242zm0 0c-26.423-8.407-48.641-9.008-64.855-7.206 6.005-13.812 6.606-28.224 4.204-42.036-40.234-28.825-85.273-54.046-127.909-72.662 31.227 21.018 66.056 82.871 80.469 148.927 31.227-9.008 78.667-15.613 140.52 5.405-10.209-10.809-21.018-21.618-32.428-32.428z" fill="#fff" />
</svg>