<svg xmlns="http://www.w3.org/2000/svg" width="373.8" height="364.6">
  <rect width="373.8" height="364.6" fill="#003f63" />
  <path d="M108.81 184.891c0 7.386-3.969 11.053-12.952 11.053H81.705V168.23h13.663c10.89 0 13.445 5.232 13.445 10.946v5.714zm5.826-.216v-4.745c0-15.154-12.028-15.747-20.139-15.747H75.881v35.862h20.251c15.893 0 18.506-8.521 18.506-15.369zm31.52 6.526c0 2.101-.168 3.989-2.56 4.851-1.417.538-3.431.7-6.806.7s-5.389-.325-6.582-1.078c-.821-.485-1.148-1.294-1.148-3.02 0-2.157.546-3.398 1.636-3.882 1.036-.482 2.342-.588 6.476-.588h8.983v3.02zm5.498 8.843v-14.075c0-2.644 0-4.529-.216-5.877-.28-1.401-.767-2.375-1.91-3.238-2.613-2.045-9.092-2.101-12.302-2.101-2.395 0-8.983.269-11.378 2.319-.818.7-1.036 1.513-1.036 2.479 0 .644.112 1.507.168 2.641h5.33c.112-.65.218-2.213.818-2.801.7-.706 1.961-.975 5.602-.975 4.193 0 7.134.162 8.33.807 1.143.65 1.092 1.997 1.092 3.025v2.476h-12.302c-3.319 0-7.129.056-9.255 2.913-.924 1.238-1.359 2.801-1.359 4.851 0 5.93 3.703 7.927 13.176 7.927 4.952 0 8.165-.756 10.126-2.428l.487 2.05h4.627zm32.988 0v-13.697c0-4.745-.218-5.77-1.364-6.633-1.087-.812-3.263-1.294-6.582-1.294-2.941 0-5.938.378-8.767 1.132v20.49h-5.442v-25.075h4.902l.375 1.779c1.092-.594 1.905-1.025 3.053-1.35 1.793-.538 4.081-.807 7.129-.807 3.484 0 6.151.538 8.218 1.457 2.017.863 3.104 2.479 3.541 4.37.272 1.294.381 2.423.381 5.283v14.341h-5.442m40.279-1.504c-2.501 1.238-6.582 1.779-11.921 1.779-3.697 0-6.75-.266-9.143-.86-2.56-.594-3.809-1.779-3.977-3.935-.056-1.134 0-2.157.168-3.507h5.224l.216 1.941c.218 1.182.112 1.832 1.527 2.263 1.358.429 3.538.594 6.314.594 3.484 0 5.882-.381 7.512-1.081 1.14-.485 1.686-1.401 1.686-3.126 0-1.994-.434-2.801-2.501-3.129-.655-.104-1.308-.104-1.961-.157-.381-.056-1.58-.056-3.484-.112-.924 0-1.955-.05-3.21-.104-5.389-.269-11.159-.485-11.159-6.795 0-5.658 3.541-7.655 13.176-7.655 2.448 0 5.498.162 7.294.378 2.12.272 3.697.644 4.846 1.294 1.249.7 1.681 1.832 1.681 3.829 0 .541 0 1.081-.104 1.944h-5.277l-.218-1.134c-.272-1.35-.381-1.619-.812-1.944-.765-.588-3.109-.863-6.372-.863-3.322 0-5.171.162-6.694.7-1.417.487-2.017 1.401-2.017 3.182 0 1.244.437 2.157 1.036 2.535 1.415.86 8.871.756 11.428.807 2.725.056 4.521.269 6.101.812 2.779.966 3.865 2.745 3.865 6.414 0 2.969-.98 4.798-3.213 5.933m33.469 1.507l-13.067-11.862h-1.961v11.862h-5.434v-35.862h5.442v20.436h1.961l10.84-9.65h6.364l-12.633 11.053 15.736 14.019h-7.241m34.234-14.988h-17.478c.218-3.129.874-4.532 2.123-5.448 1.255-.916 3.594-1.345 7.022-1.345 4.739 0 6.969 1.022 7.787 3.179.328.916.543 1.781.543 3.613zm5.008 7.171h-5.389c-.168.756-.274 2.697-.98 3.398-.818.807-2.451 1.188-6.863 1.188-4.297 0-6.694-.594-7.893-1.779-.924-.919-1.468-2.807-1.468-5.77v-.644h22.756c.056-1.246.106-1.569.106-2.541 0-4.151-.599-6.47-2.395-8.249-2.073-2.101-6.045-3.129-11.49-3.129-6.966 0-11.266 1.569-13.061 5.014-1.036 2-1.636 4.801-1.636 8.308 0 5.445 1.473 8.896 4.686 10.621 2.017 1.078 5.498 1.672 9.904 1.725 3.697 0 6.638-.162 9.907-1.132 3.157-.972 3.921-2.751 3.921-4.202 0-.384 0-1.625-.112-2.809z" fill="#fff" />
</svg>