<svg xmlns="http://www.w3.org/2000/svg" width="373.8" height="364.6" style="background-color:#70b323"><path d="M139.529 198.656c-6.184 1.512-16.017 3.144-27.186 3.672-25.551 1.178-37.156-11.425-37.156-32.076 0-20.772 13.838-33.133 33.723-33.133 12.476 0 20.103 2.652 26.668 9.765 3.133 3.366 4.93 9.255 5.72 15.05.926 7.224-.191 13.047-.191 13.047H97.444c.082 11.397 9.507 12.834 18.85 13.029 6.538.148 19.068-.037 23.236-.213zM97.307 163.13h23.236c.545-8.726-3.269-12.352-11.032-12.352-6.592 0-12.095 3.348-12.204 10.942zm87.904 22.107c6.184 0 10.624-2.161 12.149-3.746v-28.487c-1.28-.844-5.475-1.465-9.18-1.252-6.047.306-16.371 5.666-16.371 17.007 0 12.018 4.713 16.479 13.402 16.479zm78.969 0c6.184 0 10.651-2.161 12.176-3.746v-28.487c-1.308-.844-5.475-1.465-9.207-1.252-6.047.306-16.344 5.666-16.344 17.007 0 12.027 4.713 16.479 13.375 16.479zm-29.801 38.465l.218-11.258c4.604-.102 12.721.371 19.885.185 12.367-.278 21.874-2.763 21.874-10.303v-6.157h-.545c-3.269 2.671-9.97 4.878-14.628 4.878-22.01 0-31.462-10.859-31.462-30.852 0-8.949 3.487-16.432 9.534-22.859 5.394-5.749 15.363-10.219 27.73-10.219 11.659 0 23.835 2.355 31.571 6.065l.055 7.817v49.13c0 19.149-15.5 28.97-40.67 27.133-7.191-.529-16.834-1.882-23.563-3.561zm-78.969 0l.191-11.258c4.631-.102 12.721.371 19.913.185 12.367-.278 21.847-2.763 21.847-10.303v-6.157h-.518c-3.269 2.671-9.97 4.878-14.655 4.878-22.01 0-31.435-10.859-31.435-30.852 0-8.949 3.487-16.432 9.534-22.859 5.366-5.749 15.336-10.219 27.73-10.219 11.659 0 23.835 2.355 31.571 6.065l.027 7.817v49.13c0 19.149-15.5 28.97-40.67 27.133-7.191-.529-16.834-1.882-23.535-3.561z" fill="#fff" fill-rule="evenodd"/></svg>
