<svg xmlns="http://www.w3.org/2000/svg" width="373.8" height="364.6" style="background-color:#6f3f96" fill-rule="evenodd"><path d="M118.123 219.083c0-3.618 2.969-6.489 6.47-6.489h131.105v17.069H118.123zm0 25.21c0 3.638 2.969 6.509 6.47 6.509h131.105l.02-17.069H118.123z" fill="#ffb71b"/><path d="M255.717 233.713l-.02 17.069H124.612c-3.5 0-6.47-2.871-6.47-6.509v-10.56zm-.02-4.051H118.123v-10.58c0-3.618 2.969-6.489 6.47-6.489h131.085v17.069z" fill="#fbbe24"/><path d="M212.317 187.954v-19.507l-1.298 2.006-6.588 10.068c-.118.177-.472.433-.885.433-.315 0-.61-.157-.846-.492l-6.489-9.931-1.298-2.006v19.409h-7.001v-28.553c0-.177.079-.472.315-.728a1.04 1.04 0 0 1 .747-.315h6.076c.905.02 1.357.806 1.357.806l7.296 11.858.61-.983 6.745-10.934c.452-.708 1.239-.747 1.377-.747h5.998c.983.059 1.023 1.003 1.023 1.023v28.592zm-94.253-.04V160.03c.079-1.671 1.593-1.671 1.652-1.671h21.69v6.096h-16.184v6.686h14.65v5.703h-14.65v11.071zm47.765.61c-8.692 0-15.26-6.588-15.26-15.319 0-8.869 6.706-15.496 15.614-15.496 5.211 0 9.203 1.829 12.153 5.624l-4.602 3.559c0 .02-.295.216-.669.216-.275 0-.511-.118-.767-.334-1.789-1.809-3.776-2.655-6.214-2.655-4.621 0-8.102 3.835-8.102 8.908 0 5.211 3.481 9.065 8.102 9.065 2.576 0 4.562-.865 6.47-2.812.236-.236.472-.354.747-.354.374 0 .669.197.669.216l4.562 3.245c-3.245 4.248-7.197 6.135-12.703 6.135m70.203-17.814h6.116c4.169 0 4.779-2.143 4.779-3.402 0-1.101-.433-3.461-4.602-3.461h-6.293zm0 11.72h7.355c3.028 0 4.818-1.318 4.818-3.54 0-1.141-.472-3.599-4.916-3.599h-7.256zm-6.942 5.486v-27.865c.079-1.652 1.514-1.691 1.671-1.691h13.49c3.618 0 6.214.846 7.945 2.576 1.18 1.18 1.789 2.694 1.789 4.503 0 2.969-1.455 5.073-4.346 6.332l-1.711.747 1.77.59c3.913 1.298 5.663 3.422 5.663 6.883 0 4.995-4.11 7.925-11.012 7.925z" fill="#fff"/></svg>