<?xml version="1.0" encoding="UTF-8" standalone="no"?>

<svg
   version="1.1"
   id="Layer_1"
   x="0px"
   y="0px"
   viewBox="0 0 373.79998 364.60001"
   xml:space="preserve"
   width="373.79999"
   height="364.60001"
   xmlns="http://www.w3.org/2000/svg"
   xmlns:svg="http://www.w3.org/2000/svg"
   style="background-color:#000000"><defs
   id="defs13" />&#10;<style
   type="text/css"
   id="style1">&#10;	.st0{fill:#F9383D;}&#10;	.st1{fill:#FFFFFF;}&#10;	.st2{fill-rule:evenodd;clip-rule:evenodd;fill:#FFFFFF;}&#10;</style>&#10;&#10;&#10;&#10;&#10;&#10;&#10;&#10;&#10;&#10;&#10;&#10;&#10;&#10;<g
   id="g2"
   transform="matrix(9.2781929,0,0,9.2781929,74.963751,89.436403)"><path
     d="M 2.0329109,19.695432 H 6.4036694 V 8.5279188 H 9.0464536 V 5.5837563 H 6.505315 V 4.5685279 c 0,-1.0152284 0.6098732,-1.4213198 1.118101,-1.4213198 H 9.1480992 V 0 H 7.0135427 C 3.2526575,0 2.0329109,2.0304569 2.0329109,4.2639594 V 5.5837563 H 0 v 2.8426396 h 2.0329109 z"
     id="Logo"
     style="fill:#ffffff" /><path
     d="m 20.164712,19.713037 h 3.964177 V 0.01760493 H 20.063067 V 6.9211582 C 19.148257,5.4998384 17.623574,5.093747 15.997245,5.093747 c -4.167467,0 -6.302024,3.5532995 -6.302024,7.309645 0,3.959391 2.032911,7.614213 6.302024,7.614213 1.82962,0 3.252658,-0.304568 4.167467,-1.827411 z m -0.101645,-7.208122 c 0,2.538071 -0.813164,4.568528 -3.252658,4.568528 -2.03291,0 -3.151011,-1.827412 -3.151011,-4.467005 0,-3.6548229 1.829619,-4.3654829 3.151011,-4.3654829 2.236202,0 3.252658,1.7258888 3.252658,4.2639599 z"
     style="fill:#ffffff"
     id="path1-8" /></g></svg>
