<svg xmlns="http://www.w3.org/2000/svg" width="373.8" height="364.6">
  <rect width="373.8" height="364.6" fill="#000000" />
  <path d="M93.825 272.174h40.553V168.56h24.52v-27.317h-23.577v-9.419c0-9.419 5.659-13.187 10.374-13.187h14.146v-29.2h-19.805c-34.894 0-46.211 18.839-46.211 39.562v12.245H74.964v26.375h18.862zm168.231.164h36.78V89.6h-37.723v64.052c-8.488-13.187-22.634-16.955-37.723-16.955-38.667 0-58.471 32.968-58.471 67.82 0 36.736 18.862 70.646 58.471 70.646 16.976 0 30.179-2.826 38.667-16.955zm-.943-66.878c0 23.549-7.545 42.388-30.179 42.388-18.862 0-29.236-16.955-29.236-41.446 0-33.91 16.976-40.504 29.236-40.504 20.748 0 30.179 16.013 30.179 39.562z" fill="#fff" />
</svg>