<svg xmlns="http://www.w3.org/2000/svg" width="373.8" height="364.6">
  <rect width="373.8" height="364.6" fill="#00095b" />
  <path d="M298.457 164.794c.253-.433-.012-.758-.565-.758l-9.625.012c-.71 0-1.083.084-1.42.746-1.107 2.118-14.57 22.294-17.072 26.204-.421.602-.938.517-.999-.168-.253-2.322-2.262-5.005-5.426-6.28-2.406-.975-4.776-1.155-7.219-.83-4.428.59-8.374 2.936-11.839 5.558-5.222 3.97-9.733 9.12-15.557 12.934-3.176 2.069-7.532 3.874-10.443 1.179-2.635-2.442-2.334-7.869 1.696-12.067.421-.445.938-.072.854.325-.385 1.901.084 3.79 1.528 5.113 1.757 1.576 4.271 1.757 6.425.698 2.539-1.263 4.03-3.694 4.476-6.449.674-4.283-2.623-8.061-6.75-8.362-3.357-.241-6.569.926-9.697 3.513-1.564 1.299-2.466 2.262-3.814 4.199-.325.469-.842.517-.818-.18.156-5.486-2.105-8.566-6.641-8.675-3.513-.084-7.279 1.829-10.203 4.163-3.212 2.575-6.016 6.004-9.024 9.216-.373.397-.698.373-.806-.397-.096-3.633-.999-7.147-2.683-9.649-.59-.866-1.841-1.299-2.9-.71-.481.265-2.178 1.047-3.405 2.033-.614.505-.842 1.227-.578 2.166 1.624 5.426 1.263 11.598-.938 16.808-2.021 4.776-5.956 9.084-10.576 10.539-3.044.962-6.208.493-8.169-2.202-2.683-3.718-1.6-10.203 2.406-15.569 3.537-4.728 8.651-7.736 13.752-9.673.602-.229.722-.614.553-1.131-.277-.842-.722-1.985-.902-2.503-.469-1.239-1.781-1.444-3.381-1.275-3.706.433-7.05 1.696-10.359 3.465-8.651 4.632-12.982 13.595-14.883 18.396-.914 2.31-1.696 3.742-2.707 5.017-1.36 1.708-3.08 3.273-6.208 6.028-.289.253-.493.782-.253 1.263.325.662 1.949 2.96 2.406 3.164.505.253 1.107-.096 1.335-.265 2.19-1.48 4.813-3.838 6.1-5.438.445-.541.914-.313 1.155.517 1.203 4.271 4.331 7.76 8.663 9.216 7.929 2.671 16.158-1.203 22.366-7.941 3.946-4.283 5.366-7.038 6.882-8.915 2.563-3.176 7.616-10.287 13.644-14.847 2.214-1.684 4.825-2.96 6.136-2.118 1.059.686 1.396 2.274-.301 5.354-6.136 11.213-15.172 24.388-16.832 27.588-.301.553-.036.987.541.987l9.312-.012c.481-.024.698-.241.95-.59l13.896-21.656c.265-.433.505-.096.517.096.096 1.684.517 3.994 1.516 5.498 1.793 2.791 4.343 3.994 7.171 4.018 2.25.024 3.381-.313 5.811-1.215 1.973-.734 3.561-1.696 4.764-2.563.71-.493.83.337.818.457-1.095 5.859.253 12.789 6.076 15.677 6.966 3.429 14.618-1.396 19.022-5.751.433-.421.89-.373.938.529.096 1.66.842 3.633 2.226 5.017 3.694 3.706 11.129 2.238 18.6-3.549 4.801-3.706 9.818-8.939 14.353-14.474.168-.217.289-.553-.036-.902-.686-.722-1.684-1.552-2.37-2.19-.313-.265-.77-.192-1.035.012-4.644 4.416-8.831 9.457-14.883 13.632-2.033 1.42-5.294 2.575-6.75.602-.565-.77-.505-1.829.06-3.224 1.745-4.403 29.669-46.898 31.113-49.413zm-36.9 35.637c.06.325.481.638.902.794.144.048.229.156.06.505-1.191 2.539-2.274 4.006-3.766 6.22-1.372 2.045-2.912 3.633-4.776 5.161-2.815 2.334-6.726 4.861-9.962 3.164-1.432-.746-2.057-2.755-2.033-4.379.072-4.572 2.105-9.276 5.859-13.884 4.584-5.643 9.649-8.566 12.97-6.966 3.441 1.636 2.346 5.619.806 8.747-.108.241-.12.445-.06.638zM95.981 224.626c-10.407.072-19.575-6.353-20.622-17.494-.59-6.172 1.155-11.67 4.656-16.194 3.092-4.031 8.338-7.387 12.777-8.205 1.444-.265 3.381-.096 4.187.854 1.263 1.468.89 3.068-.361 3.718-3.381 1.733-7.459 4.692-9.469 8.723-1.636 3.297-1.961 7.279.529 11.057 4.175 6.316 15.833 6.485 26.661-3.585 2.683-2.466 5.077-4.825 7.52-7.628 4.776-5.45 6.353-7.447 12.705-16.242.072-.096.096-.241.06-.301-.048-.108-.144-.144-.325-.156-4.235.12-7.929 1.384-11.514 4.067-1.035.758-2.515.65-3.176-.349-.722-1.119-.205-2.587.987-3.405 5.775-4.018 12.079-4.74 18.516-5.823 0 0 .445.024.818-.469 2.647-3.393 4.644-6.449 7.459-9.878 2.839-3.477 6.509-6.677 9.312-9.072 3.91-3.369 6.413-4.5 8.963-5.883.674-.349-.084-.77-.289-.77-14.233-2.671-29.02-6.136-43.156-.902-9.781 3.658-14.077 11.418-12.007 16.603 1.468 3.682 6.304 4.271 10.84 2.057a24.42 24.42 0 0 0 9.709-8.639c1.384-2.118 4.295-.59 2.719 3.092-4.139 9.721-12.043 17.433-21.668 17.758-8.193.265-13.475-5.763-13.463-13.198.036-14.666 16.363-24.315 33.507-25.771 20.658-1.708 40.221 3.79 60.734 6.28 15.713 1.901 30.788 1.949 46.573-1.684 1.865-.409 3.176.782 3.056 2.671-.156 2.731-2.262 5.354-7.471 8.193-5.919 3.248-12.104 4.223-18.576 4.283-15.629.132-30.199-5.968-45.262-9.24.024.662.193 1.444-.361 1.865-8.338 6.16-15.881 12.416-20.935 21.199-.168.205-.072.397.217.373l12.428-.674c.71-.06.746-.241.674-.758-.361-3.032.517-6.473 3.188-8.855 2.719-2.442 6.136-2.719 8.398-.963 2.575 2.009 2.346 5.607.938 8.314-1.432 2.743-3.79 4.211-6.064 4.921 0 0-.469.108-.409.541.096.698 3.188 2.406 3.453 2.863.253.433.12 1.107-.349 1.624-.325.373-.842.722-1.492.71-.529-.012-.854-.193-1.528-.565-1.384-.758-3.116-1.985-4.283-3.441-.397-.493-.59-.505-1.576-.445-4.428.253-11.346.926-16.026 1.504-1.131.144-1.299.349-1.54.746-7.471 12.308-15.436 25.591-24.183 34.47-9.384 9.529-17.193 12.043-25.482 12.104zm71.153-54.707c.12.638.361.758.65.698 1.42-.289 2.984-1.456 3.898-2.803.842-1.227 1.239-3.008.397-3.718-.746-.638-1.949-.457-2.851.337-1.781 1.576-2.334 3.826-2.093 5.486z" fill="#fff" />
</svg>