<?xml version="1.0" encoding="UTF-8" standalone="no"?>
<svg
   version="1.1"
   id="Layer_1"
   x="0px"
   y="0px"
   viewBox="0 0 373.79998 364.60001"
   xml:space="preserve"
   width="373.79999"
   height="364.60001"
   xmlns="http://www.w3.org/2000/svg"
   xmlns:svg="http://www.w3.org/2000/svg"
   style="background-color:#00635f"><defs
   id="defs13"><clipPath
     clipPathUnits="userSpaceOnUse"
     id="clipPath178"><path
       d="m 36.141,544.046 h 106.087 v 28.552 H 36.141 Z"
       transform="translate(-43.050601,-559.31071)"
       id="path178" /></clipPath><clipPath
     clipPathUnits="userSpaceOnUse"
     id="clipPath180"><path
       d="m 36.141,544.046 h 106.087 v 28.552 H 36.141 Z"
       transform="translate(-48.337001,-559.39101)"
       id="path180" /></clipPath><clipPath
     clipPathUnits="userSpaceOnUse"
     id="clipPath182"><path
       d="m 36.141,544.046 h 106.087 v 28.552 H 36.141 Z"
       transform="translate(-61.028702,-564.72031)"
       id="path182" /></clipPath><clipPath
     clipPathUnits="userSpaceOnUse"
     id="clipPath184"><path
       d="m 36.141,544.046 h 106.087 v 28.552 H 36.141 Z"
       transform="translate(-43.385601,-558.43481)"
       id="path184" /></clipPath><clipPath
     clipPathUnits="userSpaceOnUse"
     id="clipPath186"><path
       d="m 36.141,544.046 h 106.087 v 28.552 H 36.141 Z"
       transform="translate(-52.220602,-562.52331)"
       id="path186" /></clipPath></defs>&#10;<style
   type="text/css"
   id="style1">&#10;	.st0{fill:#F9383D;}&#10;	.st1{fill:#FFFFFF;}&#10;	.st2{fill-rule:evenodd;clip-rule:evenodd;fill:#FFFFFF;}&#10;</style>&#10;&#10;&#10;&#10;&#10;&#10;&#10;&#10;&#10;&#10;&#10;&#10;&#10;&#10;<g
   id="g108"
   transform="translate(37.8104,242.73787)"><g
     id="group-MC1" /><g
     id="g3"><g
       id="g4"
       transform="translate(53.100086,-13.583743)"><g
         id="g5"
         transform="matrix(6.7896462,0,0,6.7896462,-344.94053,-386.00284)"><g
           id="g1"><path
             id="path177"
             d="M 0,0 0.5626719,-1.5941108 5.2962917,0.05421217 5.2021601,0.42645879 4.9878181,1.0308359 4.833486,1.4693055 4.727,1.656 C 3.286,5.016 0.444,7.588 -2.829,9.62 -3.72,8.78 -4.491,7.816 -5.116,6.755 -2.946,4.881 -1.108,2.661 0,0"
             fill="#ffffff"
             style="fill:#ffffff;fill-opacity:1;fill-rule:nonzero;stroke:none"
             transform="matrix(1.3333333,0,0,-1.3333333,57.4008,47.953733)"
             clip-path="url(#clipPath178)" /><path
             id="path179"
             d="m 0,0 -4.728,-1.656 c 0.963,-3.269 0.742,-6.696 -0.055,-9.993 1.016,-0.484 2.104,-0.84 3.244,-1.047 C 0.175,-8.54 1.166,-4.092 0,0"
             fill="#ffffff"
             style="fill:#ffffff;fill-opacity:1;fill-rule:nonzero;stroke:none"
             transform="matrix(1.3333333,0,0,-1.3333333,64.449333,47.846667)"
             clip-path="url(#clipPath180)" /></g><path
           id="path181"
           d="m 0,0 h -0.003 c 0,0 0.001,-0.001 0.001,-0.002 z"
           fill="#ffffff"
           style="fill:#ffffff;fill-opacity:1;fill-rule:nonzero;stroke:none"
           transform="matrix(1.3333333,0,0,-1.3333333,81.3716,40.740933)"
           clip-path="url(#clipPath182)" /><path
           id="path183"
           d="M 0,0 -0.031,0.089 C -0.125,0.356 -0.227,0.617 -0.335,0.876 L -7.002,-1.46 c 0.108,-0.554 0.251,-1.096 0.427,-1.622 L 0.223,-0.7 C 0.154,-0.466 0.081,-0.232 0,0"
           fill="#ffffff"
           style="fill:#ffffff;fill-opacity:1;fill-rule:nonzero;stroke:none"
           transform="matrix(1.3333333,0,0,-1.3333333,57.847467,49.1216)"
           clip-path="url(#clipPath184)" /><path
           id="path185"
           d="m 0,0 -4.443,-1.556 c 0.111,-0.258 0.215,-0.519 0.309,-0.786 l 0.031,-0.089 c 0.081,-0.232 0.152,-0.466 0.219,-0.701 l 4.437,1.554 -1.503,-4.304 9.642,7.991 0.114,0.086 c 0,0.001 0,0.002 -10e-4,0.002 L -3.862,2.429 Z"
           fill="#ffffff"
           style="fill:#ffffff;fill-opacity:1;fill-rule:nonzero;stroke:none"
           transform="matrix(1.3333333,0,0,-1.3333333,69.627467,43.670267)"
           clip-path="url(#clipPath186)" /></g></g></g></g></svg>
