<?xml version="1.0" encoding="UTF-8" standalone="no"?>
<svg
   version="1.1"
   id="Layer_1"
   x="0px"
   y="0px"
   viewBox="0 0 373.79998 364.60001"
   xml:space="preserve"
   width="373.79999"
   height="364.60001"
   xmlns="http://www.w3.org/2000/svg"
   xmlns:svg="http://www.w3.org/2000/svg"
   style="background-color:#f7618b"><defs
   id="defs13" />&#10;<style
   type="text/css"
   id="style1">&#10;	.st0{fill:#F9383D;}&#10;	.st1{fill:#FFFFFF;}&#10;	.st2{fill-rule:evenodd;clip-rule:evenodd;fill:#FFFFFF;}&#10;</style>&#10;&#10;&#10;&#10;&#10;&#10;&#10;&#10;&#10;&#10;&#10;&#10;&#10;&#10;<g
   id="g12"
   transform="matrix(8.9375144,0,0,8.9375144,92.278676,75.050025)"
   fill="#ffffff"><path
     d="M 8.80092,1.86568 C 8.80092,1.40543 8.81313,0.945176 8.79743,0.485506 8.78406,0.102351 9.17294,-0.124295 9.5095,0.0722092 10.4169,0.602018 11.3307,1.12023 12.2409,1.6454 c 0.3116,0.1797 0.4633,0.45504 0.4633,0.81327 0,0.81616 0.0041,1.63232 -6e-4,2.44848 -0.0093,1.49088 -0.662,2.62006 -1.9531,3.36898 -1.77578,1.03063 -3.56497,2.03867 -5.33671,3.07567 -0.97481,0.5704 -1.4782,1.4422 -1.50204,2.5725 -0.01337,0.6278 -0.00232,1.2562 -0.0029,1.8839 0,0.04 0.00116,0.08 -0.00117,0.12 -0.0186,0.36 -0.36737,0.5588 -0.68417,0.3837 C 2.88288,16.1236 2.54806,15.9259 2.21092,15.7323 1.65463,15.4123 1.10183,15.0871 0.540896,14.7747 0.170619,14.5689 -0.00841559,14.2727 3.03645e-4,13.8472 0.0119293,13.2873 -0.00260277,12.7273 0.00437262,12.1674 0.0218111,10.709 0.664709,9.60065 1.92319,8.86622 3.71354,7.8211 5.52249,6.80727 7.31051,5.75809 8.29055,5.18307 8.77185,4.29329 8.79859,3.16295 8.80848,2.73111 8.80034,2.29868 8.80034,1.86683 Z"
     id="path10"
     fill="#ffffff" /><path
     d="m 6.78231,16.8823 c 0,-0.2792 -0.00749,-0.5584 0.00115,-0.8377 0.04438,-1.3834 0.64889,-2.4604 1.83428,-3.1611 2.12126,-1.2539 4.26326,-2.472 6.39546,-3.70689 0.3262,-0.18846 0.6466,-0.18904 0.9722,0 0.8846,0.51337 1.7709,1.02499 2.6572,1.53609 0.1493,0.0861 0.2616,0.1931 0.276,0.3769 0.0167,0.2127 -0.0812,0.3561 -0.2599,0.4584 -0.4212,0.2417 -0.8413,0.4857 -1.2614,0.7285 -1.7369,1.0042 -3.4744,2.0072 -5.2101,3.0131 -0.8275,0.4798 -1.3318,1.1921 -1.4966,2.1385 -0.0271,0.156 -0.0363,0.3168 -0.0375,0.4757 -0.004,0.6383 0,1.2765 -0.0034,1.9148 0,0.0821 -0.0104,0.1699 -0.0404,0.2451 -0.1008,0.2538 -0.3976,0.3405 -0.6523,0.1948 C 9.48734,19.9891 9.0194,19.7174 8.55089,19.4463 8.12042,19.1971 7.68994,18.9473 7.25889,18.6988 6.93733,18.5132 6.77655,18.2374 6.78058,17.8634 c 0.00346,-0.3272 5.8e-4,-0.6545 5.8e-4,-0.9811 h 5.7e-4 z"
     id="path11"
     fill="#ffffff" /><path
     d="m 13.5527,20.6539 c 0,-0.2685 -0.0057,-0.5371 0.0012,-0.8057 0.0346,-1.3551 0.6444,-2.3961 1.8191,-3.1081 0.622,-0.3769 1.2658,-0.7199 1.9005,-1.077 0.321,-0.1811 0.6404,-0.1772 0.962,0.0056 0.8883,0.5038 1.7777,1.0054 2.6682,1.5053 0.147,0.0824 0.2525,0.1907 0.268,0.3616 0.0185,0.2009 -0.0772,0.3425 -0.2513,0.4407 -0.4242,0.2386 -0.8502,0.4744 -1.2715,0.7187 -0.373,0.2161 -0.7644,0.4108 -1.1033,0.6703 -0.7349,0.5631 -1.1032,1.3253 -1.12,2.2387 -0.0115,0.646 -0.0011,1.2926 -0.0034,1.9386 -0.0012,0.2905 -0.2133,0.4852 -0.4963,0.4541 -0.0686,-0.0073 -0.1389,-0.0355 -0.2,-0.0693 -0.9079,-0.5095 -1.8151,-1.0195 -2.7201,-1.5341 -0.2992,-0.1698 -0.4525,-0.4293 -0.4525,-0.7707 0,-0.3233 0,-0.646 0,-0.9693 z"
     id="path12"
     fill="#ffffff" /></g></svg>
