<svg xmlns="http://www.w3.org/2000/svg" width="373.8" height="364.6" style="background-color:#f7618b"><path d="M170.937 91.725l-.031-12.335c-.119-3.424 3.356-5.45 6.364-3.694l24.412 14.06c2.785 1.606 4.141 4.067 4.141 7.269l-.005 21.883c-.083 13.325-5.917 23.417-17.456 30.11l-47.697 27.489c-8.712 5.098-13.211 12.89-13.425 22.992-.119 5.611-.021 11.227-.026 16.837 0 .358.01.715-.01 1.073-.166 3.218-3.283 4.994-6.115 3.429-3.044-1.683-6.037-3.45-9.05-5.18l-14.926-8.559c-3.309-1.839-4.909-4.487-4.832-8.29.104-5.004-.026-10.009.036-15.013.156-13.034 5.902-22.94 17.149-29.504l48.149-27.779c8.759-5.139 13.061-13.092 13.3-23.194.088-3.86.016-7.724.016-11.584zm-18.041 134.211l.01-7.487c.397-12.364 5.799-21.99 16.394-28.252l57.16-33.13c2.915-1.684 5.779-1.69 8.689 0l23.749 13.729c1.334.77 2.338 1.726 2.467 3.369.149 1.901-.726 3.183-2.323 4.097l-11.274 6.511-46.565 26.93c-7.396 4.288-11.903 10.654-13.376 19.113-.242 1.394-.324 2.831-.335 4.252l-.03 17.114c0 .734-.093 1.518-.361 2.191-.901 2.268-3.554 3.043-5.83 1.741l-12.567-7.259-11.547-6.681c-2.874-1.659-4.311-4.124-4.275-7.466l.005-8.769h.005zm60.51 33.709l.011-7.201c.309-12.111 5.759-21.415 16.258-27.779 5.559-3.369 11.313-6.434 16.986-9.626 2.869-1.619 5.724-1.584 8.598.05l23.847 13.454c1.314.736 2.257 1.704 2.395 3.232.165 1.796-.69 3.061-2.246 3.939l-11.364 6.423c-3.334 1.931-6.832 3.672-9.861 5.991-6.568 5.033-9.86 11.845-10.01 20.008-.103 5.774-.01 11.553-.03 17.326-.011 2.596-1.906 4.336-4.436 4.059-.613-.065-1.241-.317-1.788-.619l-24.311-13.711c-2.674-1.518-4.044-3.837-4.044-6.888v-8.663z" fill="#fff"/></svg>
