<svg xmlns="http://www.w3.org/2000/svg" width="373.8" height="364.6" style="background-color:#ffffff"><defs><linearGradient id="A" x1="-192.79" y1="443.403" x2="-191.79" y2="443.403" gradientTransform="matrix(-14.7509,-8.4106,-8.4106,14.7509,935.1413,-8149.2749)" href="#l"><stop offset="0" stop-color="#dfd900"/><stop offset=".289" stop-color="#dbd702"/><stop offset=".572" stop-color="#cfd106"/><stop offset=".851" stop-color="#bcc80e"/><stop offset="1" stop-color="#aec113"/></linearGradient><clipPath id="B"><use href="#Z"/></clipPath><clipPath id="C"><use href="#a"/></clipPath><linearGradient id="D" x1="-139.207" y1="-340.518" x2="-139.207" y2="-340.518" href="#l"><stop offset="0" stop-color="#aec113"/><stop offset=".259" stop-color="#aabf15"/><stop offset=".521" stop-color="#9eba1a"/><stop offset=".784" stop-color="#8ab123"/><stop offset="1" stop-color="#73a72d"/></linearGradient><clipPath id="E"><use href="#a"/></clipPath><linearGradient id="F" x1="-172.268" y1="449.126" x2="-171.268" y2="449.126" gradientTransform="matrix(-16.5624,9.5751,9.5751,16.5624,-7129.835,-5784.582)" href="#l"><stop offset="0" stop-color="#aec113"/><stop offset=".259" stop-color="#aabf15"/><stop offset=".521" stop-color="#9eba1a"/><stop offset=".784" stop-color="#8ab123"/><stop offset="1" stop-color="#73a72d"/></linearGradient><clipPath id="G"><use href="#b"/></clipPath><linearGradient id="H" x1="-172.268" y1="449.105" x2="-171.268" y2="449.105" gradientTransform="matrix(-16.5624,9.5751,9.5751,16.5624,-7125.9932,-5777.9355)" href="#l"><stop offset="0" stop-color="#aec113"/><stop offset=".259" stop-color="#aabf15"/><stop offset=".521" stop-color="#9eba1a"/><stop offset=".784" stop-color="#8ab123"/><stop offset="1" stop-color="#73a72d"/></linearGradient><clipPath id="I"><use href="#c"/></clipPath><linearGradient id="J" x1="-156.734" y1="436.697" x2="-155.734" y2="436.697" gradientTransform="matrix(0,19.2814,19.2814,0,-8409.9619,3045.7065)" href="#l"><stop offset="0" stop-color="#73a72d"/><stop offset=".224" stop-color="#64a53f"/><stop offset=".67" stop-color="#3c9e6c"/><stop offset="1" stop-color="#1b9992"/></linearGradient><clipPath id="K"><use href="#d"/></clipPath><linearGradient id="L" x1="-159.755" y1="416.943" x2="-158.755" y2="416.943" gradientTransform="matrix(16.8212,9.5751,9.5751,-16.8212,-1294.2556,8589.4717)" href="#l"><stop offset="0" stop-color="#1b9992"/><stop offset=".508" stop-color="#107f94"/><stop offset="1" stop-color="#076a95"/></linearGradient><clipPath id="M"><use href="#e"/></clipPath><linearGradient id="N" x1="-192.79" y1="443.378" x2="-191.79" y2="443.378" gradientTransform="matrix(-14.7509,-8.4106,-8.4106,14.7509,931.3447,-8142.6157)" href="#l"><stop offset="0" stop-color="#dfd900"/><stop offset=".289" stop-color="#dbd702"/><stop offset=".572" stop-color="#cfd106"/><stop offset=".851" stop-color="#bcc80e"/><stop offset="1" stop-color="#aec113"/></linearGradient><clipPath id="O"><use href="#f"/></clipPath><linearGradient id="P" x1="-177.812" y1="409.458" x2="-176.812" y2="409.458" gradientTransform="matrix(16.6918,-9.3163,-9.3163,-16.6918,6813.9561,5233.7969)" href="#l"><stop offset="0" stop-color="#076a95"/><stop offset=".037" stop-color="#096894"/><stop offset=".652" stop-color="#275185"/><stop offset="1" stop-color="#324880"/></linearGradient><clipPath id="Q"><use href="#g"/></clipPath><linearGradient id="R" x1=".52" y1="48.751" x2="4.963" y2="48.751" href="#l"><stop offset="0" stop-color="#73a72d"/><stop offset=".224" stop-color="#64a53f"/><stop offset=".67" stop-color="#3c9e6c"/><stop offset="1" stop-color="#1b9992"/></linearGradient><clipPath id="S"><use href="#h"/></clipPath><linearGradient id="T" x1="-156.734" y1="436.697" x2="-155.734" y2="436.697" gradientTransform="matrix(0,19.2814,19.2814,0,-8417.6387,3045.7065)" href="#l"><stop offset="0" stop-color="#73a72d"/><stop offset=".224" stop-color="#64a53f"/><stop offset=".67" stop-color="#3c9e6c"/><stop offset="1" stop-color="#1b9992"/></linearGradient><clipPath id="U"><use href="#i"/></clipPath><linearGradient id="V" x1="-177.812" y1="409.478" x2="-176.812" y2="409.478" gradientTransform="matrix(16.6918,-9.3163,-9.3163,-16.6918,6817.689,5240.4858)" href="#l"><stop offset="0" stop-color="#076a95"/><stop offset=".037" stop-color="#096894"/><stop offset=".652" stop-color="#275185"/><stop offset="1" stop-color="#324880"/></linearGradient><clipPath id="W"><use href="#j"/></clipPath><linearGradient id="X" x1="-159.755" y1="416.963" x2="-158.755" y2="416.963" gradientTransform="matrix(16.8212,9.5751,9.5751,-16.8212,-1298.05,8596.1377)" href="#l"><stop offset="0" stop-color="#1b9992"/><stop offset=".508" stop-color="#107f94"/><stop offset="1" stop-color="#076a95"/></linearGradient><clipPath id="Y"><use href="#k"/></clipPath><path id="Z" d="M29.4 5.1l24.4 14.1 5-2.9L31.4.5c-.6-.3-1.3-.5-2-.5z"/><path id="a" d="M1.9 15.3z"/><path id="b" d="M27.5.5L1.9 15.3a3.16 3.16 0 0 0-1.4 1.4L5 19.2 29.4 5.1V0c-.7 0-1.3.2-1.9.5"/><path id="c" d="M29.4 14V8.3L7.7 20.8l4.9 2.9z"/><path id="d" d="M12.6 23.7l-4.9-2.9v25.1l4.9-2.9z"/><path id="e" d="M29.4 52.7L12.6 43l-4.9 2.9 21.7 12.6z"/><path id="f" d="M29.4 14l14.8 8.6c1.2.7 2.7.7 3.9 0l3-1.7L29.4 8.3z"/><path id="g" d="M51.1 45.9L46.2 43l-16.8 9.7v5.8z"/><path id="h" d="M.5 50L5 47.5z"/><path id="i" d="M0 18.6v29.5c0 .7.2 1.4.5 1.9L5 47.5V19.2L.6 16.6c-.4.7-.6 1.3-.6 2"/><path id="j" d="M29.4 61.6v5.1c.7 0 1.3-.2 1.9-.5l25.5-14.7a3.16 3.16 0 0 0 1.4-1.4l-4.4-2.6z"/><path id="k" d="M.5 50a3.16 3.16 0 0 0 1.4 1.4l25.5 14.7c.6.3 1.3.5 1.9.5v-5.1L5 47.5z"/><linearGradient id="l" gradientUnits="userSpaceOnUse"/></defs><g transform="matrix(3.201496 0 0 3.201496 92.77602 75.530122)"><path d="M58.8 44.6h0 0l-5-2.9-18-10.4-5 2.9L58.3 50c.3-.6.5-1.2.5-1.9zm-1.9-9.9L45.3 28c-1.2-.7-2.7-.7-3.9 0l-3 1.7 20.3 11.7V38c.1-1.3-.6-2.6-1.8-3.3" fill="#324880"/><path d="M31.4.5zm-3.9 0z" fill="#1b9892"/><linearGradient gradientUnits="userSpaceOnUse" x1="-192.79" y1="443.403" x2="-191.79" y2="443.403" gradientTransform="matrix(-14.7509,-8.4106,-8.4106,14.7509,935.1413,-8149.2749)"><stop offset="0" stop-color="#dfd900"/><stop offset=".289" stop-color="#dbd702"/><stop offset=".572" stop-color="#cfd106"/><stop offset=".851" stop-color="#bcc80e"/><stop offset="1" stop-color="#aec113"/></linearGradient><path clip-path="url(#B)" d="M36.6-12.7L67.1 4.7 51.6 31.9 21.1 14.5z" fill="url(#A)"/><g clip-path="url(#C)"><linearGradient gradientUnits="userSpaceOnUse" x1="-139.207" y1="-340.518" x2="-139.207" y2="-340.518"><stop offset="0" stop-color="#aec113"/><stop offset=".259" stop-color="#aabf15"/><stop offset=".521" stop-color="#9eba1a"/><stop offset=".784" stop-color="#8ab123"/><stop offset="1" stop-color="#73a72d"/></linearGradient><path d="M1.9 15.3z" clip-path="url(#E)" fill="url(#D)"/></g><linearGradient gradientUnits="userSpaceOnUse" x1="-172.268" y1="449.126" x2="-171.268" y2="449.126" gradientTransform="matrix(-16.5624,9.5751,9.5751,16.5624,-7129.835,-5784.582)"><stop offset="0" stop-color="#aec113"/><stop offset=".259" stop-color="#aabf15"/><stop offset=".521" stop-color="#9eba1a"/><stop offset=".784" stop-color="#8ab123"/><stop offset="1" stop-color="#73a72d"/></linearGradient><path clip-path="url(#G)" d="M-7.8 4.8l30-17.3 15.5 26.9L7.8 31.8z" fill="url(#F)"/><linearGradient gradientUnits="userSpaceOnUse" x1="-172.268" y1="449.105" x2="-171.268" y2="449.105" gradientTransform="matrix(-16.5624,9.5751,9.5751,16.5624,-7125.9932,-5777.9355)"><stop offset="0" stop-color="#aec113"/><stop offset=".259" stop-color="#aabf15"/><stop offset=".521" stop-color="#9eba1a"/><stop offset=".784" stop-color="#8ab123"/><stop offset="1" stop-color="#73a72d"/></linearGradient><path clip-path="url(#I)" d="M1 12.1L24-1.2l12.1 21-23 13.3z" fill="url(#H)"/><linearGradient gradientUnits="userSpaceOnUse" x1="-156.734" y1="436.697" x2="-155.734" y2="436.697" gradientTransform="matrix(0,19.2814,19.2814,0,-8409.9619,3045.7065)"><stop offset="0" stop-color="#73a72d"/><stop offset=".224" stop-color="#64a53f"/><stop offset=".67" stop-color="#3c9e6c"/><stop offset="1" stop-color="#1b9992"/></linearGradient><path clip-path="url(#K)" d="M7.7 20.8h5v25.1h-5z" fill="url(#J)"/><linearGradient gradientUnits="userSpaceOnUse" x1="-159.755" y1="416.943" x2="-158.755" y2="416.943" gradientTransform="matrix(16.8212,9.5751,9.5751,-16.8212,-1294.2556,8589.4717)"><stop offset="0" stop-color="#1b9992"/><stop offset=".508" stop-color="#107f94"/><stop offset="1" stop-color="#076a95"/></linearGradient><path clip-path="url(#M)" d="M24.1 67.8l-23-13.1 11.9-21 23 13.1z" fill="url(#L)"/><linearGradient gradientUnits="userSpaceOnUse" x1="-192.79" y1="443.378" x2="-191.79" y2="443.378" gradientTransform="matrix(-14.7509,-8.4106,-8.4106,14.7509,931.3447,-8142.6157)"><stop offset="0" stop-color="#dfd900"/><stop offset=".289" stop-color="#dbd702"/><stop offset=".572" stop-color="#cfd106"/><stop offset=".851" stop-color="#bcc80e"/><stop offset="1" stop-color="#aec113"/></linearGradient><path clip-path="url(#O)" d="M34.7-1.1l22.9 13-11.8 20.7-22.8-13z" fill="url(#N)"/><linearGradient gradientUnits="userSpaceOnUse" x1="-177.812" y1="409.458" x2="-176.812" y2="409.458" gradientTransform="matrix(16.6918,-9.3163,-9.3163,-16.6918,6813.9561,5233.7969)"><stop offset="0" stop-color="#076a95"/><stop offset=".037" stop-color="#096894"/><stop offset=".652" stop-color="#275185"/><stop offset="1" stop-color="#324880"/></linearGradient><path clip-path="url(#Q)" d="M57.7 54.8L34.6 67.7l-11.7-21L46 33.8z" fill="url(#P)"/><linearGradient gradientUnits="userSpaceOnUse" x1=".52" y1="48.751" x2="4.963" y2="48.751"><stop offset="0" stop-color="#73a72d"/><stop offset=".224" stop-color="#64a53f"/><stop offset=".67" stop-color="#3c9e6c"/><stop offset="1" stop-color="#1b9992"/></linearGradient><path clip-path="url(#S)" d="M.5 47.5h4.4v2.6H.5z" fill="url(#R)"/><linearGradient gradientUnits="userSpaceOnUse" x1="-156.734" y1="436.697" x2="-155.734" y2="436.697" gradientTransform="matrix(0,19.2814,19.2814,0,-8417.6387,3045.7065)"><stop offset="0" stop-color="#73a72d"/><stop offset=".224" stop-color="#64a53f"/><stop offset=".67" stop-color="#3c9e6c"/><stop offset="1" stop-color="#1b9992"/></linearGradient><path clip-path="url(#U)" d="M0 16.7h5v33.4H0z" fill="url(#T)"/><linearGradient gradientUnits="userSpaceOnUse" x1="-177.812" y1="409.478" x2="-176.812" y2="409.478" gradientTransform="matrix(16.6918,-9.3163,-9.3163,-16.6918,6817.689,5240.4858)"><stop offset="0" stop-color="#076a95"/><stop offset=".037" stop-color="#096894"/><stop offset=".652" stop-color="#275185"/><stop offset="1" stop-color="#324880"/></linearGradient><path clip-path="url(#W)" d="M66.5 62.1L36.3 79 21.2 52l30.2-16.8z" fill="url(#V)"/><linearGradient gradientUnits="userSpaceOnUse" x1="-159.755" y1="416.963" x2="-158.755" y2="416.963" gradientTransform="matrix(16.8212,9.5751,9.5751,-16.8212,-1298.05,8596.1377)"><stop offset="0" stop-color="#1b9992"/><stop offset=".508" stop-color="#107f94"/><stop offset="1" stop-color="#076a95"/></linearGradient><path clip-path="url(#Y)" d="M22.3 79.1L-7.8 62 7.6 35.1l30.1 17.1z" fill="url(#X)"/></g></svg>