<svg xmlns="http://www.w3.org/2000/svg" width="373.8" height="364.6" style="background-color:#008269"><path d="M88.127 211.228h13.336v-57.857H88.127zm60.144-57.857v57.857h-13.323v-24.276h-29.697l11.623-11.635h18.075v-21.946zm84.66 0v57.857H274l11.672-11.648h-39.41v-46.209zm-34.673 47.514h-22.133V163.7h20.949c7.445 0 8.967 2.312 8.967 5.796 0 5.288-3.442 5.76-6.775 6.219l-.681.097h-7.526l-11.143 11.141h20.088c3.723 0 8.165 1.173 8.165 6.726 0 6.01-3.792 7.207-9.912 7.207zm-35.457-47.514v57.857h39.251c15.73 0 19.925-10.896 19.925-17.328 0-6.929-3.117-11.64-9.168-14.064 2.864-1.537 6.563-4.439 6.563-11.672 0-6.746-2.936-14.792-16.929-14.792h-39.642z" fill="#fff" fill-rule="evenodd"/></svg>