<svg xmlns="http://www.w3.org/2000/svg" width="373.8" height="364.6" style="background-color:#00664a" fill="#fff"><path d="M102.142 140.858l-.226.226c0-.226.226-.451.226-.677v.451m32.254 70.371c.451.902.677 2.707 1.579 2.707s.902-.677 1.128-.902.226-.677.451-.451c.226 0 1.128 0 .677.451-.226.451-.902 1.579-.677 1.804 0 .451 0 .451-.451.677s-.451 1.579-.902 1.804l-.677.226s.451-1.353-.226-2.03c-.677-.902-2.03-3.383-2.707-3.834-.677-.677-2.707-3.158-3.609-4.737s-1.579-4.737-1.579-5.639.677-.902.677-.226.677 2.256 1.128 3.383c.677 1.353 1.353 2.481 2.03 3.383 1.128.902 2.707 2.481 3.158 3.383m-16.466-23.907c0-.677 0 0 0 0 .226-.451.677.226.677.677s.677 2.03.902 2.481c.226.677.902 2.03 1.128 2.481.226.677-.226.677-.451.677s-.226-.451-.677-.902c-.451-.677-.902-2.03-1.128-2.932-.677-1.128-.677-1.804-.451-2.481m45.787-15.564c-1.353 0-1.353-1.804-1.353-1.804 0-.677.677 0 .902.226.451.677.451 1.579.451 1.579m-16.691 24.584c.451 3.158 1.804 4.962 2.707 7.669s1.579 6.767 1.804 8.12.902 3.158 1.128.902c0-2.256.226-7.443-.902-10.15s-2.707-5.639-3.158-8.12c-.451-2.256-.677-4.511-.677-5.864 0-1.128-.451-2.03-.451-2.03s-1.579.902-.451 9.473M121.088 92.365c-.226 0-.451-.226-1.579-.451-2.03-.677-4.06 1.128-3.158 2.03s2.481.902 3.834 1.804 3.609 2.03 3.834 4.06 1.579 6.315 5.413 6.541 6.09-1.579 6.09-4.962c0 0-3.158 1.128-5.188-1.579l-1.579-2.256-2.256-6.992c-.226-1.128-.902-2.256.451-1.579s2.481 1.579 3.383 1.353 2.03 1.804.902 2.932c-.902 1.128-2.932 3.158-1.579 3.383h.677c16.691-9.699 43.306-13.759 70.372-9.248 28.645 4.737 52.102 17.818 63.605 33.381v-10.826h11.278c-13.082-16.916-41.727-30.449-75.785-34.058-28.87-2.932-56.839 2.481-74.206 12.405-.226-2.256-1.579-7.669-6.315-7.669-5.188 0-4.737 5.639-4.737 5.639s2.707-.902 4.06.902c2.03 1.804 2.481 4.737 2.481 5.188m37.895 184.05h-8.796l-2.707-8.12-2.932 8.12h-8.796l7.218 5.188-2.707 7.894 7.218-4.962 6.992 4.962-2.707-7.894zm38.569 0h-8.796l-2.707-8.12-2.707 8.12h-8.796l7.218 5.188-2.707 7.894 6.992-4.962 7.218 4.962-2.707-7.894zm38.794 0h-8.796l-2.707-8.12-2.707 8.12h-8.796l6.992 5.188-2.707 7.894 7.218-4.962 6.992 4.962-2.707-7.894zm38.795 0h-8.796l-2.932-8.12-2.707 8.12h-8.796l7.218 5.188-2.707 7.894 6.992-4.962 7.218 4.962-2.707-7.894zm-154.953 0h-8.796l-2.707-8.12-2.707 8.12H97.18l6.992 5.188-2.707 7.894 7.218-4.962 6.992 4.962-2.707-7.894zm89.769-19.397c.226 0 .677-.226.677-.677.226-.902 0-2.03.677-3.158s1.804-1.804 1.128-.902-1.128 3.383-.226 4.06c.451.451.902.677 1.353.677 4.962-.226 6.541-.902 8.345-3.609 2.03-2.932 4.737-6.541 8.796-9.022 4.962-3.158 8.571-4.737 10.601-6.767s3.383-6.992-1.579-7.894c-4.06-.677-5.188-5.188-6.541-8.571-1.128-3.158-4.06-5.864-4.06-5.864s-4.285.451-8.12 1.579-7.894 3.383-11.278 5.188-2.932 3.609 1.353 6.992c4.06 3.158 3.609 1.804 8.12 4.06 4.06 2.03.677 5.864.677 5.864l-4.737 5.188c-.677.451-2.03 2.481-6.541.902-4.737-1.579-7.443-1.579-9.022.226s-5.188 3.834-6.09 6.315c-.902 2.03.451 3.383 2.481 4.285.226 0 1.128.226 1.353-.677.451-1.128.451-2.481 1.579-3.609s2.256-1.804 1.353-.902-2.03 4.285-1.353 5.188c.451.902 1.353 1.128 1.804 1.128h.226c.451 0 .677 0 .902.226.451 0 1.353 0 1.579-.677.451-1.579 1.128-3.383 2.256-4.285s2.256-1.579 1.353-.677-2.03 3.609-1.579 4.737c.451.902.902 1.128 1.353 1.353 1.579-.677 2.256-.677 3.158-.677" /><path d="M124.923 227.018c.451 2.707 1.579 8.796 1.579 11.503 0 3.609-1.128 4.06-3.158 5.413s-4.285.226-9.022 0-6.541 2.707-7.443 4.285c-1.128 1.579-.451 5.864.902 7.218l.226.226c.451 0 1.128 0 1.128-.677.226-.902.451-2.707 1.353-3.609.677-.902 1.804-1.579 1.128-.902-.677.902-1.804 4.285-.677 5.413.226.226.677.451.902.677.451 0 .902.226 1.579.226.226 0 .677-.226.677-.677.226-.902-.226-2.03.451-3.158.902-.902 1.804-1.579 1.128-.902-.677.902-.902 3.609-.226 4.285.226.226.677.451.902.451h.902c1.353 0 1.804-.902 1.804-.902-.902-4.511.226-6.315 2.707-7.894s6.767-.677 8.12-.451a26.21 26.21 0 0 0 3.383.677s-1.353.677-3.383.226c-2.03-.677-5.864-.677-7.669.677-2.03 1.353-2.707 4.511-1.579 7.669.226.902.902 1.579 1.804 2.03 0-.902-.226-2.256.677-3.158s1.804-1.579 1.128-.902c-.677.902-.902 3.609-.226 4.285.451.451.902.677 1.353.902.677.226 1.353.226 2.03.451.226-.902-.226-2.481.677-3.609.902-.902 1.804-1.579 1.128-.902-.677.902-.902 3.609-.226 4.285.226.226.677.451.902.451h2.707c.226 0 .451-.226.451-.677.226-.902-.226-2.707.677-3.609s1.804-1.579 1.128-.902c-.677.902-.902 3.609-.226 4.285s1.579.677 2.256.677h1.804c6.992 0 7.894-9.022 8.571-10.826v-.226c2.03-5.413 4.737-5.639 7.218-6.541 2.481-1.128 8.796-4.962 10.375-6.315s2.932-3.158 3.158-7.218c.226-4.285 3.609-12.18 4.511-13.533s.677 0 .226 1.353-2.03 6.992-2.256 9.924c-.451 2.932 1.579 2.932 1.579 2.932 17.593.902 36.539-8.571 43.531-12.18s13.759-3.834 13.759-3.834-.451-.226-1.804-1.579-5.188-5.639-5.188-5.639c3.383.677 4.285 3.158 11.503 11.052s20.976 14.661 27.517 14.886 6.315 6.767 6.09 10.601c0 3.609-.226 4.06-1.579 4.285-1.579.451-1.804-.451-6.09-.677-5.864-.226-6.767 4.285-6.992 7.443 0 2.707 1.579 4.285 3.609 5.413.451.226 1.353.226 1.353-.451.226-1.128 0-2.481.902-3.834.902-1.128 1.804-1.579 1.128-.677s-1.128 4.06-.451 4.962c.677.677 1.353.677 1.804.677h.902c.451 0 .902-.226.902-.677.226-.902 0-2.481.902-3.609s2.03-1.804 1.353-.902-1.128 3.609-.451 4.511c.451.451.902.677 1.579.677h.677.451c.226 0 .677-.226.902-.677.226-.902 0-2.256.677-3.158s1.804-1.579 1.128-.902c-.677.902-1.128 3.383-.226 4.06.677.677 1.579.677 2.03.677 7.218-.451 6.992-10.826 6.992-16.916 0-6.315 1.353-10.375 2.932-15.112s0-5.864-1.128-6.767c-1.579-.677-.226-.902-5.639-.902-5.188 0-7.894-8.571-8.796-10.601-1.128-2.03 1.128-8.345 1.128-8.345 2.707-11.052-.226-13.082-1.804-16.24-1.128-2.03-.451-4.06.226-5.188 5.188-5.864 7.669-14.21 1.804-20.751-6.767-7.669-17.818-7.218-28.87-6.315-11.052 1.128-22.329 3.609-28.645 4.511-18.044 2.256-28.87-3.158-28.87-11.052 0-4.285 2.707-6.315 6.541-7.443 1.804-.451 4.06-.902 5.864-1.128 5.864-.677 6.541-.677 10.826-2.932 4.285-2.03 8.571-.451 11.278.226 2.932.677 5.639.226 5.639.226-2.481.902-6.09 1.128-11.052.226-3.834-.677-6.541.451-9.473 2.481l.677.677c6.541 5.639 16.465 3.158 20.976 1.579 6.767-2.481 12.856.226 13.082-1.353.226-1.128-2.03-.451-6.541-3.609-5.413-3.609-10.601-6.767-16.916-6.767-8.796 0-10.601 4.06-14.21 4.06-2.256.226-4.06.226-6.541.677-2.481.226-5.188.902-7.443 1.804-4.737 1.804-8.12 5.188-8.12 11.503 0 13.759 17.367 18.27 34.96 16.24 4.962-.677 16.014-2.932 26.389-4.06 10.601-1.128 19.848-.677 23.457 3.383 4.06 4.737 3.609 8.796.226 13.307-2.03.902-4.285-1.353-9.248-3.158-5.413-1.804-15.112.677-24.359 3.383-9.022 2.707-22.555 1.128-28.87.451-5.864-.677-21.878-4.962-29.322-6.09-.451 1.128.902 1.353.677 2.707v.902c.226 1.353.226 4.962-.451 9.248-.677 4.06-4.06 6.992-4.06 7.669s-.451 6.767-.902 9.924-4.737 9.924-4.962 10.375c-.226.226-1.128.451-1.353.226s0-2.256 0-2.707.451-.451.902-.902c.451-.226 0-.902-.451-1.128s-.677.677-1.804 1.804c-.902 1.128-1.579 3.834-1.804 5.188s-.226 2.481-.902 2.481c-.451 0-1.579.451-2.256 1.128-.677.902-.677 1.353-1.128 1.128-.451 0-.226-.902-.451-1.128 0-.226-.451-3.834-.677-6.315s-3.609-10.601-4.285-12.405c-.902-1.804-.226-10.15-.226-10.826s0-.902-1.128.226c-.226.226-.451.451-.451.226l-.451.451c-2.03 2.481-1.804 6.09-2.256 7.894-.451 1.579-.677 4.511-.226 10.15.451 5.864 4.285 7.669 5.864 9.924.451.677 3.158 4.511 3.158 3.834 0-.451.226-1.353.677-1.579.451-.451.902.226.677.451s-.451 1.128-.226 1.804c0 .451 0 3.383-.451 4.285-.451 1.128-.902.902-.902.902v-.677c.226-2.932-.677-4.285-1.128-5.188-.451-.677-1.579-.677-1.579-.677l.226.902c.226 2.03-.451 5.639-.902 7.443-.677 1.579-3.383 3.834-3.383 3.834s0-2.256-.451-4.511-2.03-3.158-2.932-4.06-2.256-.451-2.256-.451l.226.677c.902 1.579.902 4.511.677 6.315s-1.804 3.834-1.804 4.737-.226 6.09-.451 6.541-1.579.902-1.579.902l.451-1.804c.226-1.579.226-6.315 0-7.669s-4.06-2.932-6.315-4.06c-2.481-1.128-2.932-2.481-3.609-3.609.226-.226.226 1.128.451 2.03m-24.136-107.132c.226-.226-8.571-9.924-8.796-9.924-1.128.902-.902 6.315 0 7.443l.902 1.128c1.128 1.128 6.767 2.481 7.894 1.353" /><path d="M110.938 110.634c-1.804 0-4.962-1.579-5.864-2.707s-4.285-2.03-5.864-2.03c-.451 0-.451 0-.677-.226-.902 0-1.128.677-1.128 1.128.226.677 1.128 1.128 1.128 1.579s-.226.451-.451.451c-.902-.902-2.481-2.481-3.609-1.579-1.128.677-1.579 1.579-.677 2.707l7.443 8.571c.902 1.128 2.03 1.128 2.932.226s.677-2.707-.226-3.834c0 0 1.804.451 3.609.226s4.06-2.707 4.06-4.511h-.677m17.82-20.3c-.226.451-.677 1.353-.226 2.256s.677 1.353 1.128 1.128 1.128-.677 1.353-1.128.677-.677 0-1.128c-1.128-.451-2.256-1.579-2.256-1.128m-20.299 92.024c-.902 1.353-3.383 6.09-3.383 8.345-.226 4.962-.677 9.022 4.962 17.142l.226.451c.226-.226.226-.677.451-1.128.226-.902 0-1.804-.677-2.707s-.451-1.353-.451-1.353.451 0 1.128.226c.451.451 1.128 1.579 1.353.451.451-.902 1.579-4.511 1.579-4.511.451-1.804.677-3.834.902-5.639.226-3.158.226-7.218.226-10.375-.226-2.256-.451-3.834-.451-4.511-.226-.902-1.128-2.256-1.579-.902s-.451 3.158-1.128 4.285c-.451.902-1.128 1.353-1.579 1.353-.226 0-.677 0-.226-.902.451-.677.451-1.128.451-1.579s-.677-.226-1.128.226c-.226.677-.451 1.128-.677 1.128zm4.286 29.096h0c0 .902.226 2.707 1.353 4.285 2.03 2.707 3.834 3.158 3.834 3.158l-.677-2.256 2.932 1.804s-1.579-6.315.451-9.248c1.353-2.03 3.158-8.345 1.579-11.729s-1.579-3.158-1.579-3.158l.677-.451s1.579 1.579 2.256 4.285c.677 2.03.451 7.443 0 10.826-.226.677-.226 1.353-.226 2.03v2.03c-.226 4.737 2.256 9.248 3.834 11.954 1.804 2.707 4.06 2.256 4.06 2.256s-.451-.902.226-1.353c1.353-.451 4.737 5.188 4.737 5.188s.451-.451.902-3.158-2.256-6.767-3.158-7.669-1.804-3.383-1.804-3.383.451.226.677.902c.451.677 2.256 2.03 4.737 2.707 2.256.677 4.737 2.481 5.188 3.609.451.902 2.256 2.481 2.256 2.03.226-.451.902-1.804.902-4.511s-.677-3.609-1.579-5.188c-.677-1.579-3.609-3.383-3.609-3.383s-.226-1.353-.451-2.03-1.353-.451-1.353-.451-.226.902-.451 1.353-1.353-.226-1.353-.226.226-.677.451-1.128.226-4.285 0-6.09-1.804-4.06-2.707-5.188-1.353-3.609-1.353-4.511.226-2.932 0-2.932-.902.451-1.804 2.481c-.677 2.256.451 4.511.677 4.962 0 .451 2.03 2.932 2.481 3.609s0 2.03 0 1.579c-.226-.451-.226-.677-1.128-1.579-.902-1.128-2.256-3.158-3.158-4.285-.677-1.128-.677-4.285-.677-5.188s0-1.353-.451-1.353l-.451.451c-.902 1.579-.677 4.06-1.128 6.09-.226.677-.677.226-.677-.226 0 0 0-4.285-.902-5.864-1.128-2.256-1.353-2.932-4.06-5.188-2.03-1.579-2.932-2.481-3.158-3.383-.226-1.128-1.353-.451-2.03 1.128-.902 1.804-1.353 3.158-1.128 9.022.226 4.737-2.481 8.571-3.383 9.924 0 1.804 0 4.962.226 7.443m23.456-18.943c-.451.902-1.804 2.932-.451 5.639l2.256 3.609c.226.451 1.128.902.902-.451 0-1.579-.902-3.383-1.579-4.511-.451-1.128-.451-2.03-.451-2.932.226-.902-.226-2.256-.677-1.353m14.435-11.279c-.677-1.579-1.353 4.285-1.353 4.285 0 1.579-.226 2.03-.226 3.609 0 2.256 1.353 7.218 2.481 9.699 1.353 2.481 2.256 7.218 2.481 8.12s.677 1.128.677 1.128.677-.677 1.128-1.579 1.128-4.06 1.128-6.767-1.579-6.09-2.707-8.571c-3.158-6.315-3.383-9.248-3.609-9.924m14.21-.225c-.226-1.579-.902-4.962-1.128-5.639 0 0-.451-2.932-.226-2.932.902-.226 1.128 2.03 1.128 2.03.902 1.579 2.256 7.894 2.256 8.12 0 .451.902.226 1.353-.677.451-.677.451-5.413.451-7.894 0 0 0-1.128-.226-2.03v-.677c0-1.353-2.03-8.571-2.481-9.924s-.902 1.579-1.353 2.256c-.677.902-1.128 1.804-1.128 4.06 0 2.03-1.128-.451-1.128-.451s-.677-3.158-1.353-5.188-3.158-5.413-5.413-5.639-1.804 1.128-1.579 2.03.677.677 1.804 1.579 2.932 4.285 3.834 6.992c.902 2.932 1.579 6.992 1.579 7.669 0 .226.226.677.226 1.128.226.677 1.128 3.158 1.128 3.383.451.677 1.128 1.804 1.579 3.158.451 2.481.902.902.677-1.353" /><path d="M149.282 137.023c-.677.902.677.677.677.677s.451-.226 2.256-.451c1.804 0 3.383.677 4.962 1.579s4.06 3.383 4.285 4.06c.226.451.902 0 .902 0s0-1.579-.677-2.932c-.677-1.128-2.03-3.609-5.864-4.285-3.383-.677-5.864.451-6.541 1.353m1.804 7.217c-1.128 1.353.226.902.226.902s2.03-.451 4.737.451c2.932.902 4.285 5.639 4.737 6.767s-.451 5.639.226 7.894l1.353 2.707c.451.677.451.451.677 0s1.579-3.158 1.804-5.413c.451-2.481 0-7.218-1.804-11.503s-5.864-4.511-7.669-4.285c-1.804 0-3.158 1.128-4.285 2.481m1.126 35.185c0 1.579 0 2.707.451 3.834v.226l1.353 3.609c.677 1.804 4.511 10.15 4.962 11.954s.677 4.511.451 5.188c0 .677.677.677.677.677s1.128-.451 1.804-1.579 1.353-5.864 1.579-8.345c0-2.481.677-2.481.902-3.383.451-1.128-.677-1.804-.677-1.804s-.451.677-.226-2.481c.226-1.804-1.128-4.737-2.03-6.541l-.902-1.353v-.226c-1.128-2.03-1.804-3.383-1.804-4.511-.226-1.128.451-3.834-.226-5.639s-2.256-5.864-2.932-6.315-1.128-.226-1.128.451v6.315c0 .226-.677.451-.677 2.481s.226 2.932.902 3.834c.677.677.902 2.256 1.128 3.158.677 1.353 2.03 3.834 2.256 5.413.226 1.804.677 4.285.677 4.737s-.451.226-.677-.451-.451-1.579-.677-2.481-.677-1.579-1.579-3.383c-.451-.677-.677-1.579-1.128-2.256-.677-1.579-1.353-3.609-1.804-3.834-.677-.451-.677-.226-.677.451v2.256m-9.245-21.88c-1.128-.226-1.128 0-1.128 0s-.451 1.128-.451 1.353c0 0 .677.451 1.353.226.902-.226 1.579-1.579.226-1.579m-23.232 1.127c-1.128.226-.451 1.353.451 1.579.677.226 1.353-.226 1.353-.226 0-.226-.677-1.353-.677-1.353s0-.451-1.128 0" /><path d="M156.274 148.527c-2.03-.902-2.707-.902-4.06-.451s-2.03 1.579-2.932.902c-1.128-.902-.451-1.353-.226-2.481.226-.902.451-3.609.226-4.06-.226-.677-1.128.451-1.128.451s-1.579.451-2.256 0c-.451-.451-.902-2.256-2.932-.902 0 0-3.609.677-6.315-.677s-4.511-3.834-4.511-3.834-.451-1.353-.226-4.06c0-.677.226.451.451-.902s1.128-2.03 1.804-1.353.677.902.677.902.677-.902.902-1.804c0-.902.226-1.353.677-1.579.451 0 1.128-.451 1.128-.451s-.226 1.579-.451 2.03-1.804 1.579-2.03 3.158c0 1.353-.677.677-.902 1.353 0 .902 0 2.03.451 2.481s.677.451.677.451 0-1.579.902-2.256.902-.451.902-.451-.451.902-.451 1.579c0 .451 1.128 1.579 1.128 1.579s.451-1.804 1.353-2.707c1.128-.902 2.03-1.128 2.481-1.128h.451s-1.353.902-1.804 1.804c-.677.902-1.128 1.579-.677 2.481.226.902.677.902.677.902s.226-1.128.902-2.03 2.03-.451 2.03-.451-.902.226-1.128.902-.677.902 0 1.579 2.256.902 3.158.226c.677-.902 2.707-4.737 4.285-5.413 1.579-.451 4.06-1.353 5.864-1.128s1.128 0 1.128 0-1.353-2.707-3.834-2.481c-2.481.451-3.158 2.481-4.285.677s-2.481-4.285-4.737-4.06.451-.902-1.128-1.579-.226-2.707-3.158-3.158-4.06 0-4.737-.451-1.353-.902-3.609-.677-3.383-.902-5.639.677-2.03 2.481-2.03 2.481-2.256-.226-3.383.677-2.932 1.353-3.158 2.481-4.285.902-4.737 4.06v.677s-3.383.451-3.609 1.128c-.226.451-1.579 1.353 0 2.707.226.902-1.579.677-2.03.902-1.804.677-2.932 2.256-3.609 4.285 0 .226-.226.451-.226.677s0 .451-.226.677c0 .451 0 .902.226 1.353.451.677.677.451 1.128.226.451-.451 1.128-.677 1.353-.451s.451.451-.226.902c-.451.226-2.256 2.256-2.256 3.383-.226 1.128-.677 1.353-.677 2.481v.902 3.158 4.737.226c.451.226.677.226 1.128 0s1.353-.677 1.353-.226 0 .902-.451 1.128c-.226.226-1.804 1.804-2.03 3.834v1.804 4.06c0 .451.226 1.128.451 1.128.451-.226.677-.677 1.128-1.128.226-.226 1.128-1.353 1.579-.677.226.677 0 .677-.677 1.579-.451.902-1.353 4.511-1.128 5.639v2.03c.226 1.579.677 2.932 1.128 4.285.902 2.481 2.03 3.834 2.707-.902 0-.226 0-.226.226-.226.226-.902.451-1.804.451-2.481.226-1.579.677-3.834 1.353-5.188s.226-3.834 1.128-4.962c.451-.451.226-1.353-.677-1.128s-.677-.226-.677-.451c0-.451.902-1.353 0-1.128-1.128.226-1.353.451-1.353.677-.226.226-.677.451-.677 0-.226-.451.451-1.128 1.579-2.256s1.804-1.579 1.804-2.256c0-.902.451-3.383.451-3.834-.226-.677-.451-.226-.902-.226-.226 0-.677.451-.902 1.128s-.902.226-.902-.226c0-.677 1.353-2.256 1.579-2.707.451-.451.451-.451.451-1.128s-.226-.902-.677-.677-1.128.451-1.579.226.226-.451.677-.902c.451-.226 1.128-1.353 1.804-1.804.226-.226.451-.677.451-1.128 0-1.353 0-2.481.226-3.383-.226-.226-.226.451-.902.677-.677.451-.451.902-1.353.902-.677 0-.902-.226-.902-.451s.677-.902.902-1.353c.451-.451.902-1.804 1.353-2.707s0-1.804 1.353-1.804l.451-.451c-1.579-1.128-2.03-2.03-1.579-2.481.226-.226 1.579.677 1.579.451 3.158.226 4.962 0 6.09.677l1.128.226s.226-1.353-.226-2.03h2.03c.677 0 1.128-1.128.451-2.03s-1.128-1.128-1.128-1.128 1.128 0 1.804.677l.902.902s0-1.353-.451-2.03-.451-1.128-.451-1.128a3.01 3.01 0 0 0 2.03 1.579l.677 2.03s.451-1.353.451-2.256.226-1.128.226-1.128.677.677 1.128 1.579.902 1.353.902 1.353l.226-4.737.226-1.353s.451.902 1.128 1.579l.677.677v-2.03c0-.451 0-.902.451-.677.677.226.677 2.481.677 4.285 0 1.128-1.128 2.481-2.256 2.707-4.285 1.353-4.06 4.511-6.315 4.737-1.128.226-6.992 0-6.992 0s-2.932-.451-3.383 2.707-.226 6.767.226 7.894c.226 1.128-.451 7.443.677 10.15s4.737 9.699 4.962 11.729c.451 2.03 1.128 6.767 6.09 9.473s6.541 3.158 6.767 3.609c.451.451 1.353 1.353 2.03.451s2.707-3.383 1.579-4.962c-.226-.677-.677-1.128-1.128-1.579s-1.353-.451-1.128-1.128c0-.226.451-.451.902-.451 1.128.226 1.804 0 2.256-.451s2.256-.677 2.256.226c0 1.353-1.353.902-1.128 2.03.226.902-.451 1.353.677 2.481 1.353 1.579.677 2.932 1.353 4.06 0 0 1.353 1.353 2.932-.677.226-.226.451-.677.677-1.128 0 0 7.218-6.09 7.894-10.601.902-5.413.677-10.375.677-11.052s2.481-3.834.226-10.826c0 0-1.804-4.737.902-5.864s4.737-.451 5.188.902l.677 1.353c0 .451.902-2.481-1.128-3.383m-23.006 24.134c1.804 0 3.158-.451 4.06-1.579.226-.226.451-.451.677-.451s.226.226.226.677c0 2.03-2.256 3.609-5.188 3.609s-4.737-1.128-4.737-3.158c0-.451 0-.677.226-.677s.451.226.677.451c.902.902 2.256.902 4.06 1.128m-13.307-11.052c-2.03 0-3.158-2.481-3.383-2.707s1.128-1.353 4.06-1.579c2.03-.226 3.609.451 4.962 1.804.226.226.902.451 1.579.451.677-.226.677-.451-.451-1.353-.451-.451-.902-.677-1.128-1.128-.902-.902-2.481-1.353-3.609-1.579s-1.353-.451-1.353-.451-.226-1.353 1.353-.902 2.481.226 1.579-.677c-1.579-1.353-1.804-2.03-2.932-2.03-1.128-.226-1.128 0-2.03-.226-.677 0-.902-.902 0-.902.677 0-1.128 0 .902 0 1.804 0 1.579-.902 3.834.677s5.188 3.158 5.639 3.609 1.353 1.804.226 1.804-2.03.451-.902 1.353 2.256.677 2.256 1.579c0 .677.451 2.932.226 3.158-.226.451-.677 0-.902-.677s0-1.804-.902-2.481h-.902c-.902 0-.902.677-.902 1.579.902 1.353-3.834.451-7.218.677m20.3 15.789c-1.579 0-2.481 0-3.158.226s-2.481.902-2.481.902h-1.579s-1.353-.226-2.481-.226c-.902 0-1.804 0-2.256.226-.677.226-1.804.226-1.804-.902 0-.902.902-1.128 2.03-.902 2.03.226 8.796 0 9.699-.226s2.481-.902 2.932-.677c.677.451.677 1.579-.902 1.579m2.932-16.916c-3.383.226-8.345 1.804-7.443.226.451-.677.902-1.353 1.128-1.804v-.677c0-1.353-.226-1.353-.451-1.353-.451 0-.677 0-.226-.451.902-1.128-.226-.902-1.353-.677s-.451-1.353 0-1.804c.451-.677.902-.902 2.932-2.707s2.932-.902 4.737-.902c2.03.226 1.128 1.128-1.804 1.579-1.353.226-2.03 1.128-2.707 2.03-.677 1.128 2.256.902 1.353 1.804-.226.226-.451.226-.677.451l-.226.226c-.226.677-.677 1.353 0 1.353 1.128-.902 2.256-1.353 3.834-1.353 2.932 0 4.511.902 4.285 1.128-.677.226-1.579 2.932-3.383 2.932M121.99 98.906c-.677-.902-2.256-2.256-4.06-2.932-1.804-.902-3.834-1.353-5.188-1.353-2.03 0-3.609 1.579-3.609 3.383v.451c-.451-.226-.902-.226-1.579-.226-2.03 0-3.609 1.579-3.609 3.383 0 .226.226 1.128-.226.902-.677-.226-1.353-.226-2.03-.226-2.03 0-3.609 1.128-3.383 2.932 0 0 0 .226.226.226h.451c1.353 0 5.413.902 6.541 2.256s4.511 2.707 5.639 2.481c0 0 1.128.226 1.804.226 2.03-.226 3.383-1.804 3.158-3.609v-.451c.451.226.902.226 1.579.226 2.03-.226 3.609-2.03 3.834-4.06.226-.902.902-.677 1.128-1.353.226-1.128-.451-1.804-.677-2.256m-7.669 7.218c-1.804-.226-2.932-1.128-3.834-2.03s-2.932-1.353-4.285-1.353c-1.579 0-.451-.902-.451-.902h.451c1.353 0 3.834.226 4.962 1.579 1.128 1.128 2.932 2.03 3.609 2.03s1.353.902-.451.677" /></svg>
