<?xml version="1.0" encoding="UTF-8" standalone="no"?>

<svg
   version="1.1"
   id="Layer_1"
   x="0px"
   y="0px"
   viewBox="0 0 373.79998 364.60001"
   xml:space="preserve"
   width="373.79999"
   height="364.60001"
   xmlns="http://www.w3.org/2000/svg"
   xmlns:svg="http://www.w3.org/2000/svg"
   style="background-color:#005eb8"><defs
   id="defs13" />&#10;<style
   type="text/css"
   id="style1">&#10;	.st0{fill:#F9383D;}&#10;	.st1{fill:#FFFFFF;}&#10;	.st2{fill-rule:evenodd;clip-rule:evenodd;fill:#FFFFFF;}&#10;</style>&#10;&#10;&#10;&#10;&#10;&#10;&#10;&#10;&#10;&#10;&#10;&#10;&#10;&#10;<g
   stroke="none"
   stroke-width="1"
   fill="none"
   fill-rule="evenodd"
   id="g9"
   transform="matrix(2.6378611,0,0,2.6378611,74.778681,109.57133)"><g
     fill="#ffffff"
     id="g8"><g
       id="g7"><polyline
         points="46.6864344 16.6594399 31.0503552 0.142308743 0 0.142308743 17.1569945 16.6594399 46.6864344 16.6594399"
         id="polyline1" /><polyline
         points="17.1571448 38.4827186 0 54.9998497 31.0503552 54.9998497 46.6865847 38.4827186 17.1571448 38.4827186"
         id="polyline2" /><polyline
         points="53.9589071 0.142308743 44.2739481 10.1961885 50.3923224 16.6594399 67.8522678 16.6594399 85.0092623 0.142308743 53.9589071 0.142308743"
         id="polyline3" /><polyline
         points="67.8522678 38.4827186 50.3924727 38.4827186 44.2739481 44.9459699 53.9589071 54.9998497 85.0092623 54.9998497 67.8522678 38.4827186"
         id="polyline4" /><polyline
         points="9.2865847 26.1618169 3.96030055 26.1618169 3.96030055 19.7484563 0.328497268 19.7484563 0.328497268 35.3937022 3.96030055 35.3937022 3.96030055 29.4618169 9.2865847 29.4618169 9.2865847 35.3937022 12.9407787 35.3937022 12.9407787 19.7484563 9.2865847 19.7484563 9.2865847 26.1618169"
         id="polyline5" /><path
         d="m 19.747855,29.461817 1.665629,-5.290519 1.665628,5.290519 z m -0.333156,-9.713361 -5.289767,15.645246 h 3.755478 l 0.895027,-2.842869 h 5.276243 l 0.895028,2.842869 h 3.755478 L 23.417678,19.748456 Z"
         id="path5" /><polyline
         points="33.5405328 19.7484563 29.8863388 19.7484563 29.8863388 35.3937022 39.2092896 35.3937022 39.2092896 32.0935519 33.5405328 32.0935519 33.5405328 19.7484563"
         id="polyline6" /><polygon
         points="44.602295,19.748456 40.904372,19.748456 40.904372,35.393702 44.602295,35.393702 "
         id="polygon6" /><polyline
         points="50.3404781 23.0486066 57.2244945 23.0486066 57.2244945 19.7484563 46.686735 19.7484563 46.686735 35.3937022 50.3404781 35.3937022 50.3404781 29.4618169 56.0445492 29.4618169 56.0445492 26.1618169 50.3404781 26.1618169 50.3404781 23.0486066"
         id="polyline7" /><path
         d="m 61.730137,29.461817 1.665628,-5.290519 1.665628,5.290519 z m 22.55571,-9.713361 H 80.14041 L 77.195656,24.4753 74.250751,19.748456 h -4.145287 l 5.102528,7.822623 -4.721284,7.23791 -5.086749,-15.060533 h -4.003128 l -5.289768,15.645246 h 3.755478 l 0.895027,-2.842869 h 5.276394 l 0.895027,2.842869 h 7.321762 l 2.944905,-4.726694 2.944754,4.726694 h 4.145437 l -5.102678,-7.822623 z"
         id="path7" /></g></g></g></svg>
