<svg xmlns="http://www.w3.org/2000/svg" width="373.8" height="364.6" style="background-color:#005eb8"><g fill="#fff" fill-rule="evenodd"><path d="M197.931 153.517l-41.246-43.57H74.779l45.258 43.57h77.895m-77.895 57.566l-45.258 43.57h81.907l41.246-43.57h-77.895m97.078-101.136l-25.548 26.521 16.139 17.049h46.057l45.258-43.57h-81.907m36.65 101.136h-46.057l-16.14 17.049 25.548 26.521h81.907l-45.258-43.57m-154.489-32.5h-14.05v-16.918h-9.58v41.27h9.58v-15.647h14.05v15.647h9.639v-41.27h-9.639v16.918m27.596 8.705l4.394-13.956 4.394 13.956zm-.879-25.622l-13.954 41.27h9.906l2.361-7.499h13.918l2.361 7.499h9.906l-13.94-41.27z"/><path d="M163.254 161.665h-9.639v41.27h24.593v-8.705h-14.953v-32.565m29.178 0h-9.755v41.27h9.755zm15.137 8.705h18.159v-8.705h-27.797v41.27h9.638v-15.647h15.047v-8.705H207.57v-8.212m30.044 16.917l4.394-13.956 4.394 13.956zm59.499-25.622h-10.935l-7.768 12.469-7.768-12.469h-10.935l13.46 20.635-12.454 19.093-13.418-39.728h-10.56l-13.954 41.27h9.906l2.361-7.499h13.918l2.361 7.499h19.314l7.768-12.468 7.768 12.468h10.935l-13.46-20.635z"/></g></svg>
