<svg xmlns="http://www.w3.org/2000/svg" width="373.8" height="364.6">
  <rect width="373.8" height="364.6" fill="#ffffff" />
  <path d="M80.033 170.746v8.712h9.113v-8.712h4.958v22.699h-4.958v-9.799h-9.113v9.796H75.08v-22.696zm17.938 8.672a5.39 5.39 0 0 1 1.766-1.688c.747-.437 1.562-.744 2.411-.908.887-.18 1.79-.271 2.695-.271a18.15 18.15 0 0 1 2.487.175 7.58 7.58 0 0 1 2.301.684 4.54 4.54 0 0 1 1.702 1.416 3.98 3.98 0 0 1 .662 2.401v8.557 2.131a5.89 5.89 0 0 0 .186 1.524h-4.305c-.061-.216-.103-.436-.128-.659-.038-.263-.036-.654-.057-.928-.693.729-1.561 1.266-2.521 1.559a10.13 10.13 0 0 1-2.965.445c-.735.005-1.466-.093-2.174-.289a4.95 4.95 0 0 1-1.765-.891 4.14 4.14 0 0 1-1.181-1.528 5.21 5.21 0 0 1-.426-2.197 4.84 4.84 0 0 1 .489-2.308 4.12 4.12 0 0 1 1.261-1.446 5.63 5.63 0 0 1 1.765-.812 19 19 0 0 1 2.001-.43l1.985-.255a11.78 11.78 0 0 0 1.733-.289 3.01 3.01 0 0 0 1.198-.557c.149-.131.265-.296.336-.482a1.24 1.24 0 0 0 .073-.585 2.43 2.43 0 0 0-.235-1.162 1.75 1.75 0 0 0-.629-.668c-.28-.165-.589-.273-.911-.318-.369-.055-.741-.082-1.114-.08a3.34 3.34 0 0 0-2.073.578 2.58 2.58 0 0 0-.643.865 2.6 2.6 0 0 0-.236 1.055h-4.486a5.29 5.29 0 0 1 .801-2.642zm8.832 6.379c-.299.099-.604.179-.913.238l-1.023.159-1.069.159a7.87 7.87 0 0 0-.991.254 2.92 2.92 0 0 0-.849.43c-.242.181-.441.414-.582.682a2.22 2.22 0 0 0-.22 1.05 2.13 2.13 0 0 0 .22 1.017 1.69 1.69 0 0 0 .598.652c.27.166.569.28.881.335a5.58 5.58 0 0 0 1.039.096 3.92 3.92 0 0 0 2.045-.445 2.96 2.96 0 0 0 1.069-1.06 3.42 3.42 0 0 0 .425-1.253 8.68 8.68 0 0 0 .079-1.018v-1.684a2.01 2.01 0 0 1-.71.389zm107.091-6.379a5.38 5.38 0 0 1 1.765-1.688c.748-.437 1.562-.744 2.411-.908a13.6 13.6 0 0 1 2.695-.271c.832.001 1.662.06 2.487.175.798.104 1.575.335 2.3.684a4.54 4.54 0 0 1 1.703 1.416 3.98 3.98 0 0 1 .661 2.401v8.557 2.131a5.9 5.9 0 0 0 .185 1.524h-4.304c-.061-.216-.104-.436-.129-.659-.038-.263-.035-.654-.057-.928a5.82 5.82 0 0 1-2.52 1.559c-.962.296-1.961.446-2.965.445a7.95 7.95 0 0 1-2.175-.289c-.642-.175-1.241-.478-1.765-.891-.508-.408-.913-.932-1.181-1.528a5.18 5.18 0 0 1-.425-2.197 4.83 4.83 0 0 1 .488-2.308 4.12 4.12 0 0 1 1.26-1.446 5.63 5.63 0 0 1 1.765-.812 18.9 18.9 0 0 1 2.001-.43l1.985-.255a11.78 11.78 0 0 0 1.734-.289 3.01 3.01 0 0 0 1.197-.557c.15-.131.264-.296.336-.482a1.23 1.23 0 0 0 .073-.585 2.44 2.44 0 0 0-.235-1.162 1.74 1.74 0 0 0-.628-.668c-.28-.165-.589-.273-.911-.318-.369-.055-.742-.082-1.114-.08-.736-.042-1.464.162-2.073.578a2.57 2.57 0 0 0-.643.865 2.58 2.58 0 0 0-.236 1.055h-4.486a5.3 5.3 0 0 1 .801-2.642zm8.832 6.379a7.13 7.13 0 0 1-.912.238l-1.023.159-1.069.159a7.87 7.87 0 0 0-.991.254 2.9 2.9 0 0 0-.849.43 2.03 2.03 0 0 0-.582.682 2.22 2.22 0 0 0-.22 1.05c-.011.352.065.702.22 1.017a1.7 1.7 0 0 0 .598.652 2.51 2.51 0 0 0 .88.335c.343.065.691.097 1.039.096a3.92 3.92 0 0 0 2.046-.445 2.96 2.96 0 0 0 1.069-1.06 3.44 3.44 0 0 0 .425-1.253c.045-.339.072-.681.077-1.024v-1.684c-.207.179-.447.313-.708.395zm-103.434-8.796v1.889h.096c.547-.768 1.286-1.376 2.141-1.764a6.75 6.75 0 0 1 2.849-.567 7.58 7.58 0 0 1 2.953.493 4.38 4.38 0 0 1 1.817 1.367 5.3 5.3 0 0 1 .932 2.13c.187.915.277 1.848.269 2.782v10.11h-4.486v-9.288a5.8 5.8 0 0 0-.632-3.037 2.46 2.46 0 0 0-.989-.805 2.44 2.44 0 0 0-1.256-.198 3.1 3.1 0 0 0-1.461.222c-.463.191-.872.491-1.195.876a6.13 6.13 0 0 0-.822 3.61v8.62h-4.462v-16.44zm115.908 0v1.889h.096a5.33 5.33 0 0 1 2.141-1.764 6.75 6.75 0 0 1 2.848-.567 7.58 7.58 0 0 1 2.953.493 4.38 4.38 0 0 1 1.817 1.367 5.29 5.29 0 0 1 .932 2.13 13.42 13.42 0 0 1 .269 2.782v10.11h-4.488v-9.288a5.8 5.8 0 0 0-.632-3.037 2.45 2.45 0 0 0-.989-.805 2.44 2.44 0 0 0-1.257-.198 3.09 3.09 0 0 0-1.46.222 3.11 3.11 0 0 0-1.195.876c-.639 1.088-.927 2.35-.822 3.61v8.62h-4.463v-16.44zm52.464 0v1.889h.095c.547-.768 1.286-1.376 2.141-1.764a6.75 6.75 0 0 1 2.848-.567c1.007-.034 2.011.134 2.953.493.715.287 1.341.758 1.817 1.367a5.29 5.29 0 0 1 .932 2.13c.188.915.278 1.848.269 2.782v10.11h-4.486v-9.288a5.8 5.8 0 0 0-.632-3.037 2.45 2.45 0 0 0-.989-.805 2.44 2.44 0 0 0-1.256-.198c-.498-.045-.999.031-1.461.222a3.12 3.12 0 0 0-1.195.876c-.639 1.088-.927 2.35-.822 3.61v8.62h-4.463v-16.44zm-130.581 12.511a4.56 4.56 0 0 0 5.237.299 2.85 2.85 0 0 0 1.199-1.456h3.945a7.56 7.56 0 0 1-2.902 4.236 8.49 8.49 0 0 1-4.731 1.274 9.26 9.26 0 0 1-3.471-.62 7.22 7.22 0 0 1-2.621-1.765 7.96 7.96 0 0 1-1.659-2.736 10.1 10.1 0 0 1-.585-3.5c-.01-1.173.194-2.337.601-3.436.374-1.023.952-1.957 1.699-2.745a7.89 7.89 0 0 1 2.644-1.836c1.073-.456 2.228-.683 3.392-.668a7.7 7.7 0 0 1 3.627.812 7.27 7.27 0 0 1 2.54 2.181 8.99 8.99 0 0 1 1.435 3.119 11.72 11.72 0 0 1 .316 3.663h-11.764a4.59 4.59 0 0 0 1.099 3.177zm5.062-8.67a3.13 3.13 0 0 0-2.444-.894c-.615-.021-1.225.105-1.782.367a3.4 3.4 0 0 0-1.136.909 3.33 3.33 0 0 0-.599 1.149 5.24 5.24 0 0 0-.206 1.084h7.286a5.26 5.26 0 0 0-1.118-2.616zm12.423-10.096v22.699h-4.486v-22.699zm6.988 18.625a2.61 2.61 0 0 0 .774.855 3.31 3.31 0 0 0 1.089.491c.418.107.848.16 1.279.158a4.77 4.77 0 0 0 .994-.111c.331-.068.65-.186.947-.349a2.17 2.17 0 0 0 .711-.636 1.68 1.68 0 0 0 .287-1.003c0-.678-.446-1.187-1.339-1.527a26.58 26.58 0 0 0-3.739-1.019l-1.913-.524a6.5 6.5 0 0 1-1.657-.795 3.85 3.85 0 0 1-1.169-1.242c-.31-.558-.463-1.192-.442-1.831a4.98 4.98 0 0 1 .615-2.608 4.55 4.55 0 0 1 1.626-1.606 7.09 7.09 0 0 1 2.273-.827 13.92 13.92 0 0 1 2.588-.239 12.84 12.84 0 0 1 2.571.254c.786.153 1.539.444 2.225.86.655.406 1.211.955 1.626 1.607a5.44 5.44 0 0 1 .774 2.53h-4.253a2 2 0 0 0-.248-1.022 1.98 1.98 0 0 0-.731-.751c-.647-.322-1.363-.481-2.084-.464-.274.001-.549.017-.822.047s-.549.098-.805.207a1.66 1.66 0 0 0-.616.462c-.178.231-.268.519-.253.812a1.26 1.26 0 0 0 .108.545 1.24 1.24 0 0 0 .334.442c.339.279.729.49 1.148.62a14.2 14.2 0 0 0 1.626.43l1.862.415a18.96 18.96 0 0 1 1.913.541 6.27 6.27 0 0 1 1.657.843 4.07 4.07 0 0 1 1.168 1.305 3.85 3.85 0 0 1 .442 1.928 5.03 5.03 0 0 1-.561 2.565 4.98 4.98 0 0 1-1.774 1.923c-.729.46-1.537.779-2.382.94a13.84 13.84 0 0 1-2.729.27 13.47 13.47 0 0 1-2.774-.289 7.3 7.3 0 0 1-2.414-.952 5.43 5.43 0 0 1-1.736-1.762c-.481-.834-.737-1.781-.741-2.746h4.253a2.47 2.47 0 0 0 .295 1.255zm72.215-18.625v12.177l5.645-5.913h5.299l-6.15 6.04 6.845 10.395h-5.427l-4.478-7.342-1.735 1.685v5.657h-4.486v-22.699zm16.708 18.766a4.56 4.56 0 0 0 2.572.979 4.55 4.55 0 0 0 2.665-.68c.552-.334.975-.847 1.198-1.456h3.943a7.56 7.56 0 0 1-2.902 4.236 8.49 8.49 0 0 1-4.731 1.274c-1.186.018-2.364-.193-3.472-.62a7.23 7.23 0 0 1-2.621-1.765 7.94 7.94 0 0 1-1.657-2.736c-.401-1.122-.598-2.308-.585-3.5a9.63 9.63 0 0 1 .599-3.436c.375-1.023.952-1.957 1.7-2.745s1.646-1.413 2.644-1.837a8.39 8.39 0 0 1 3.392-.668c1.257-.03 2.501.249 3.627.812a7.27 7.27 0 0 1 2.539 2.181 9.01 9.01 0 0 1 1.435 3.119 11.76 11.76 0 0 1 .317 3.663h-11.767a4.6 4.6 0 0 0 1.105 3.177zm5.064-8.67a3.14 3.14 0 0 0-1.126-.714 3.12 3.12 0 0 0-1.319-.18c-.614-.021-1.225.105-1.782.367a3.39 3.39 0 0 0-1.136.909c-.273.34-.476.73-.599 1.149a5.33 5.33 0 0 0-.205 1.084h7.287a5.27 5.27 0 0 0-1.12-2.616zm-130.85-10.109v7.938h-.047a4.94 4.94 0 0 0-2.051-1.574 6.58 6.58 0 0 0-2.779-.548 6.54 6.54 0 0 0-3.018.648 6.6 6.6 0 0 0-2.395 1.962c-.615.814-1.075 1.736-1.357 2.719-.306 1.038-.46 2.115-.457 3.197a11.9 11.9 0 0 0 .457 3.309c.281 1.012.74 1.966 1.355 2.815.601.818 1.384 1.483 2.286 1.941a6.98 6.98 0 0 0 3.217.715c.935.018 1.865-.138 2.744-.46a4.78 4.78 0 0 0 2.208-1.681h.063v1.727h4.261v-22.709zm-3.936 19.807c-2.957 0-4.2-2.767-4.2-5.344 0-2.699 1.079-5.329 4.204-5.329 3.092 0 4.097 2.626 4.097 5.302 0 2.705-.941 5.371-4.101 5.371zm53.707-19.809v22.707h4.26v-1.726h.062a4.78 4.78 0 0 0 2.208 1.681 7.55 7.55 0 0 0 2.744.46 6.98 6.98 0 0 0 3.216-.715 6.48 6.48 0 0 0 2.287-1.941c.615-.849 1.074-1.802 1.355-2.815a11.92 11.92 0 0 0 .457-3.309 11.15 11.15 0 0 0-.457-3.197c-.283-.983-.743-1.905-1.358-2.719a6.61 6.61 0 0 0-2.394-1.962 6.55 6.55 0 0 0-3.019-.648 6.58 6.58 0 0 0-2.779.548c-.81.333-1.517.876-2.051 1.574h-.046v-7.938zm4.318 14.436c0-2.672 1.005-5.302 4.097-5.302 3.125 0 4.204 2.626 4.204 5.329 0 2.577-1.243 5.344-4.2 5.344-3.158.008-4.103-2.666-4.103-5.371z" fill="#005fa5" />
</svg>