<?xml version="1.0" encoding="UTF-8" standalone="no"?>
<svg
   version="1.1"
   id="Layer_1"
   x="0px"
   y="0px"
   viewBox="0 0 373.79998 364.60001"
   xml:space="preserve"
   width="373.79999"
   height="364.60001"
   xmlns="http://www.w3.org/2000/svg"
   xmlns:svg="http://www.w3.org/2000/svg"
   style="background-color:#ffffff"><defs
   id="defs13" />&#10;<style
   type="text/css"
   id="style1">&#10;	.st0{fill:#F9383D;}&#10;	.st1{fill:#FFFFFF;}&#10;	.st2{fill-rule:evenodd;clip-rule:evenodd;fill:#FFFFFF;}&#10;</style>&#10;&#10;&#10;&#10;&#10;&#10;&#10;&#10;&#10;&#10;&#10;&#10;&#10;&#10;<g
   id="g13"
   transform="matrix(1.2178182,0,0,1.2178182,75.080259,170.42655)"><path
     d="M 4.06724,0.262695 V 7.41659 H 11.5505 V 0.262695 h 4.0712 V 18.9018 h -4.0712 v -8.046 H 4.06724 v 8.0436 H 0 V 0.262695 Z"
     fill="#005fa5"
     id="path1-6" /><path
     d="M 18.7969,7.38332 C 19.1687,6.81565 19.6647,6.34149 20.2469,5.99734 20.8604,5.63852 21.5296,5.38645 22.2263,5.25172 22.9548,5.1041 23.696,5.0296 24.439,5.0293 c 0.6832,0.00116 1.3656,0.04929 2.0423,0.14406 0.6552,0.08568 1.2927,0.27535 1.8891,0.56198 0.5537,0.26567 1.0337,0.6651 1.3973,1.16277 0.3871,0.58116 0.5777,1.27265 0.5436,1.97171 v 7.02648 1.7501 c -0.004,0.422 0.0472,0.8428 0.1524,1.2514 H 26.929 c -0.0497,-0.1773 -0.0849,-0.3584 -0.1053,-0.5414 -0.0314,-0.2161 -0.0298,-0.5367 -0.0471,-0.7623 -0.5691,0.599 -1.282,1.0399 -2.0697,1.2799 -0.7892,0.2431 -1.6098,0.3664 -2.435,0.3657 -0.6032,0.0039 -1.2039,-0.076 -1.7854,-0.2374 -0.5268,-0.1436 -1.0197,-0.3923 -1.4493,-0.7314 -0.4171,-0.3351 -0.7495,-0.7651 -0.97,-1.2546 -0.2458,-0.5684 -0.3651,-1.1841 -0.3496,-1.8039 -0.0245,-0.6554 0.1134,-1.3067 0.4014,-1.8949 0.2475,-0.4724 0.6022,-0.8793 1.0353,-1.1873 0.4413,-0.3048 0.9316,-0.5303 1.4492,-0.6665 0.5411,-0.1473 1.0896,-0.2652 1.6432,-0.353 0.552,-0.0871 1.0953,-0.1568 1.6299,-0.209 0.4796,-0.0436 0.9554,-0.123 1.4233,-0.2375 0.3573,-0.0776 0.6931,-0.2338 0.9834,-0.4575 0.1226,-0.1074 0.2174,-0.24337 0.276,-0.39608 C 26.6178,9.65791 26.6385,9.49309 26.6195,9.33049 26.6349,9.00131 26.5685,8.67346 26.4263,8.3767 26.3059,8.15074 26.1277,7.96134 25.9102,7.82817 25.6804,7.69242 25.4263,7.60366 25.1624,7.56696 24.8595,7.52193 24.5536,7.49996 24.2474,7.50126 23.6437,7.4672 23.0456,7.63407 22.5452,7.97618 c -0.2239,0.1966 -0.404,0.43874 -0.5284,0.7105 -0.1244,0.27175 -0.1903,0.56697 -0.1934,0.86624 h -3.684 c 0.0235,-0.7693 0.2505,-1.51831 0.6575,-2.1696 z m 7.2524,5.23838 c -0.2453,0.0817 -0.4956,0.147 -0.7494,0.1955 -0.2671,0.0528 -0.547,0.0963 -0.8397,0.1306 -0.2927,0.0343 -0.5854,0.0778 -0.8781,0.1306 -0.2755,0.0517 -0.5473,0.1212 -0.8138,0.2082 -0.25,0.0786 -0.4856,0.1978 -0.6975,0.353 -0.1986,0.1486 -0.3618,0.3401 -0.4776,0.5604 -0.1297,0.268 -0.1918,0.5641 -0.1807,0.862 -0.0095,0.2892 0.0526,0.5762 0.1807,0.8351 0.1137,0.219 0.2832,0.4037 0.4909,0.535 0.222,0.1364 0.4674,0.2296 0.7235,0.2747 0.2813,0.053 0.5668,0.0795 0.853,0.0792 0.5823,0.0329 1.1626,-0.0934 1.6794,-0.3657 0.3624,-0.209 0.6649,-0.509 0.8781,-0.8707 0.1819,-0.3167 0.3004,-0.6663 0.3488,-1.029 0.0381,-0.2771 0.0599,-0.5562 0.0652,-0.8359 v -1.3828 c -0.1709,0.1452 -0.3691,0.2539 -0.5828,0.3198 z"
     fill="#005fa5"
     id="path2" /><path
     d="m 113.986,7.38332 c 0.371,-0.56762 0.867,-1.04178 1.449,-1.38598 0.614,-0.35886 1.283,-0.61093 1.98,-0.74562 0.729,-0.14765 1.47,-0.22215 2.213,-0.22242 0.683,0.00116 1.365,0.04929 2.042,0.14406 0.655,0.08568 1.293,0.27535 1.889,0.56198 0.554,0.26556 1.034,0.66501 1.398,1.16277 0.387,0.58116 0.577,1.27265 0.543,1.97171 v 7.02648 1.7501 c -0.004,0.422 0.047,0.8428 0.152,1.2514 h -3.534 c -0.05,-0.1773 -0.085,-0.3584 -0.106,-0.5414 -0.031,-0.2161 -0.029,-0.5367 -0.047,-0.7623 -0.569,0.599 -1.282,1.0398 -2.069,1.2799 -0.79,0.2431 -1.61,0.3663 -2.435,0.3657 -0.604,0.0039 -1.204,-0.0761 -1.786,-0.2374 -0.527,-0.1435 -1.019,-0.3922 -1.449,-0.7314 -0.417,-0.3351 -0.75,-0.7651 -0.97,-1.2546 -0.246,-0.5685 -0.365,-1.1842 -0.349,-1.8039 -0.025,-0.6554 0.113,-1.3067 0.401,-1.8949 0.247,-0.4725 0.602,-0.8793 1.035,-1.1873 0.441,-0.3048 0.932,-0.5303 1.449,-0.6665 0.541,-0.1473 1.09,-0.2652 1.643,-0.353 0.552,-0.0871 1.096,-0.1568 1.63,-0.209 0.48,-0.0436 0.956,-0.123 1.424,-0.2375 0.357,-0.0777 0.693,-0.2339 0.983,-0.4575 0.123,-0.1074 0.217,-0.24337 0.276,-0.39608 0.059,-0.15271 0.079,-0.31753 0.06,-0.48013 0.015,-0.32917 -0.051,-0.65698 -0.193,-0.95379 -0.12,-0.22601 -0.298,-0.41542 -0.516,-0.54853 -0.23,-0.13581 -0.484,-0.22457 -0.748,-0.26121 -0.303,-0.04504 -0.609,-0.067 -0.915,-0.0657 -0.604,-0.03412 -1.202,0.13275 -1.702,0.47492 -0.224,0.1966 -0.404,0.43874 -0.528,0.7105 -0.125,0.27175 -0.191,0.56697 -0.194,0.86624 h -3.684 c 0.024,-0.7693 0.251,-1.51831 0.658,-2.1696 z m 7.252,5.23838 c -0.245,0.0817 -0.496,0.147 -0.749,0.1955 -0.267,0.0528 -0.547,0.0963 -0.84,0.1306 -0.293,0.0343 -0.585,0.0778 -0.878,0.1306 -0.276,0.0517 -0.547,0.1213 -0.814,0.2082 -0.25,0.0786 -0.486,0.1978 -0.697,0.353 -0.199,0.1485 -0.362,0.34 -0.478,0.5604 -0.13,0.268 -0.192,0.5641 -0.181,0.862 -0.009,0.2892 0.053,0.5762 0.181,0.8351 0.114,0.219 0.283,0.4037 0.491,0.535 0.222,0.1365 0.467,0.2296 0.723,0.2747 0.282,0.053 0.567,0.0795 0.853,0.0792 0.583,0.0329 1.163,-0.0934 1.68,-0.3657 0.362,-0.209 0.665,-0.509 0.878,-0.8707 0.182,-0.3167 0.3,-0.6663 0.349,-1.029 0.037,-0.2787 0.059,-0.5594 0.063,-0.8406 v -1.3828 c -0.17,0.1466 -0.367,0.257 -0.581,0.3245 z"
     fill="#005fa5"
     id="path3" /><path
     d="m 36.304,5.39825 v 1.55141 h 0.0785 c 0.4492,-0.6304 1.0556,-1.13009 1.7579,-1.44851 0.7374,-0.32313 1.5353,-0.4819 2.3392,-0.46542 0.8268,-0.02775 1.6509,0.10972 2.4248,0.40447 0.5866,0.23559 1.1014,0.6227 1.4924,1.1224 0.381,0.51848 0.6424,1.1161 0.7651,1.74929 0.1533,0.75147 0.2273,1.51719 0.2207,2.28441 v 8.3016 H 41.6987 V 11.2714 C 41.7553,10.4079 41.5757,9.54516 41.1795,8.77731 40.9711,8.48893 40.6909,8.261 40.3673,8.11648 40.0436,7.97196 39.6879,7.91596 39.3359,7.95412 38.9274,7.9171 38.516,7.97969 38.1364,8.1366 37.7569,8.29352 37.4204,8.54015 37.1554,8.85567 36.6306,9.74923 36.3948,10.7852 36.4807,11.82 v 7.0779 H 32.8164 V 5.39825 Z"
     fill="#005fa5"
     id="path4" /><path
     d="m 131.481,5.39825 v 1.55141 h 0.079 c 0.449,-0.6304 1.055,-1.13009 1.758,-1.44851 0.737,-0.32311 1.535,-0.48187 2.339,-0.46542 0.827,-0.02775 1.651,0.10972 2.425,0.40447 0.586,0.23545 1.101,0.62259 1.492,1.1224 0.381,0.51844 0.643,1.11607 0.765,1.74929 0.153,0.75149 0.227,1.5172 0.221,2.28441 v 8.3016 h -3.685 v -7.6265 c 0.057,-0.8636 -0.123,-1.72627 -0.519,-2.49409 -0.208,-0.28844 -0.488,-0.51642 -0.812,-0.66095 -0.324,-0.14452 -0.68,-0.20049 -1.032,-0.16224 -0.408,-0.03702 -0.819,0.02557 -1.199,0.18248 -0.38,0.15692 -0.716,0.40355 -0.981,0.71907 -0.525,0.89352 -0.761,1.92953 -0.675,2.96433 v 7.0779 h -3.665 V 5.39825 Z"
     fill="#005fa5"
     id="path5" /><path
     d="m 174.561,5.39824 v 1.55142 h 0.078 c 0.449,-0.63038 1.056,-1.13006 1.758,-1.44851 0.737,-0.32309 1.535,-0.48185 2.339,-0.46543 0.827,-0.02772 1.651,0.10974 2.425,0.40448 0.587,0.23551 1.101,0.62264 1.492,1.12239 0.381,0.51846 0.643,1.11609 0.765,1.74929 0.154,0.7515 0.228,1.51721 0.221,2.28442 v 8.3016 h -3.684 v -7.6265 c 0.057,-0.8635 -0.123,-1.72624 -0.519,-2.49409 -0.208,-0.28838 -0.488,-0.51631 -0.812,-0.66084 -0.324,-0.14452 -0.679,-0.20052 -1.031,-0.16236 -0.409,-0.03708 -0.82,0.02548 -1.2,0.1824 -0.379,0.15691 -0.716,0.40358 -0.981,0.71916 -0.525,0.89351 -0.761,1.92953 -0.675,2.96433 v 7.0779 h -3.665 V 5.39824 Z"
     fill="#005fa5"
     id="path6" /><path
     d="m 67.3354,15.6718 c 0.6056,0.4796 1.3427,0.7602 2.1116,0.8041 0.769,0.0439 1.5327,-0.1511 2.1882,-0.5587 0.4535,-0.2739 0.8007,-0.6955 0.9842,-1.1952 h 3.2393 c -0.3659,1.4047 -1.2093,2.6355 -2.3831,3.478 -1.1657,0.7238 -2.5164,1.0876 -3.885,1.0464 -0.9734,0.0145 -1.9406,-0.1582 -2.8498,-0.509 -0.8145,-0.3175 -1.5494,-0.8124 -2.1522,-1.4493 -0.6007,-0.6478 -1.0641,-1.4121 -1.362,-2.2463 -0.3287,-0.9216 -0.4913,-1.8949 -0.48,-2.8741 -0.0081,-0.9628 0.1591,-1.919 0.4933,-2.82103 0.3069,-0.83983 0.7819,-1.60714 1.3953,-2.25431 0.6135,-0.64718 1.3524,-1.16041 2.1708,-1.50786 0.8811,-0.37424 1.8293,-0.56099 2.7853,-0.54853 1.0318,-0.02458 2.0541,0.20416 2.9786,0.66647 0.8239,0.42562 1.5379,1.03894 2.0855,1.79125 0.5531,0.76914 0.9532,1.63896 1.1782,2.56141 0.2441,0.9824 0.3316,1.9977 0.2592,3.0078 h -9.6599 c -0.0396,0.9537 0.2832,1.8867 0.9025,2.6089 z M 71.4922,8.55276 C 71.2291,8.29306 70.9139,8.09319 70.5677,7.96662 70.2215,7.84005 69.8524,7.78972 69.4853,7.81901 68.9807,7.80151 68.4792,7.90486 68.0219,8.12058 67.6612,8.29876 67.3429,8.55337 67.0888,8.867 66.8649,9.14584 66.6978,9.46647 66.5971,9.81051 66.5096,10.1005 66.453,10.399 66.4282,10.701 h 5.983 C 72.3079,9.9132 71.9901,9.16963 71.493,8.55276 Z"
     fill="#005fa5"
     id="path7" /><path
     d="M 81.6937,0.262695 V 18.9018 H 78.0098 V 0.262695 Z"
     fill="#005fa5"
     id="path8" /><path
     d="m 87.4315,15.5561 c 0.1573,0.2788 0.3744,0.5186 0.6355,0.7021 0.2716,0.1875 0.5747,0.324 0.8946,0.4028 0.3433,0.0876 0.6961,0.1312 1.0502,0.1299 0.2744,-0.0017 0.5479,-0.0322 0.8161,-0.0911 0.2719,-0.0558 0.5341,-0.1524 0.7776,-0.2865 0.2307,-0.1282 0.4301,-0.3067 0.5837,-0.5224 0.1638,-0.242 0.2464,-0.5305 0.2356,-0.8232 0,-0.5567 -0.3666,-0.9747 -1.0997,-1.2538 C 90.323,13.4606 89.2968,13.181 88.2546,12.9773 87.7184,12.8554 87.1948,12.7118 86.6837,12.5467 86.2019,12.3947 85.7439,12.1749 85.3232,11.8936 84.9316,11.6304 84.6037,11.282 84.3634,10.8741 84.1088,10.4155 83.9833,9.89548 84.0005,9.37023 83.9702,8.62305 84.145,7.88192 84.5056,7.22834 c 0.3267,-0.54675 0.7862,-1.0006 1.3353,-1.3187 0.5791,-0.33181 1.2104,-0.5615 1.8663,-0.67913 0.7009,-0.1316 1.4125,-0.19732 2.1255,-0.19631 0.709,-0.00151 1.4163,0.06849 2.1114,0.20897 0.6455,0.12526 1.2639,0.36428 1.827,0.70605 0.5378,0.33317 0.9942,0.78417 1.3353,1.31949 0.3795,0.62879 0.5979,1.3428 0.6355,2.07778 H 92.2496 C 92.2578,9.0533 92.1874,8.7633 92.0459,8.50701 91.9043,8.25072 91.6969,8.0376 91.4453,7.89006 90.9137,7.62546 90.3264,7.49481 89.7337,7.50933 89.5083,7.51035 89.2831,7.5233 89.059,7.54812 88.8313,7.57089 88.6083,7.62827 88.3976,7.7183 c -0.1957,0.0848 -0.3689,0.21466 -0.5058,0.37914 -0.1463,0.18988 -0.2199,0.42644 -0.2074,0.66648 -0.0043,0.15397 0.026,0.30693 0.0889,0.44734 0.0629,0.14041 0.1566,0.26459 0.274,0.36318 0.2787,0.22925 0.5988,0.40207 0.9426,0.50896 0.4378,0.144 0.8837,0.2618 1.3353,0.353 0.5001,0.1056 1.0096,0.219 1.5286,0.3404 0.5309,0.1204 1.0553,0.2686 1.5709,0.444 0.485,0.1618 0.9435,0.3952 1.3605,0.6926 0.3932,0.2827 0.7205,0.6485 0.9591,1.0718 0.2565,0.4865 0.3816,1.0324 0.3628,1.583 0.0354,0.7309 -0.1238,1.458 -0.461,2.106 -0.3373,0.6479 -0.8404,1.1933 -1.4571,1.5794 -0.5987,0.3776 -1.262,0.6393 -1.9559,0.7718 -0.7379,0.1479 -1.4885,0.2221 -2.2409,0.2216 -0.7654,10e-5 -1.5288,-0.0795 -2.278,-0.2375 -0.7017,-0.1399 -1.373,-0.4047 -1.9825,-0.782 -0.5793,-0.3655 -1.0671,-0.8606 -1.4257,-1.4469 -0.3953,-0.685 -0.6053,-1.4627 -0.6087,-2.2551 h 3.4923 c -0.0119,0.3591 0.0716,0.7149 0.2419,1.0306 z"
     fill="#005fa5"
     id="path9" /><path
     d="M 146.73,0.262695 V 10.2614 l 4.635,-4.85531 h 4.351 l -5.05,4.95971 5.621,8.536 h -4.456 l -3.677,-6.0292 -1.425,1.3836 v 4.6456 h -3.684 V 0.262695 Z"
     fill="#005fa5"
     id="path10" /><path
     d="m 160.45,15.6718 c 0.606,0.4796 1.343,0.7602 2.112,0.8041 0.769,0.0439 1.533,-0.1511 2.188,-0.5587 0.453,-0.274 0.801,-0.6956 0.984,-1.1952 h 3.238 c -0.366,1.4046 -1.209,2.6354 -2.383,3.478 -1.166,0.7238 -2.516,1.0876 -3.885,1.0464 -0.974,0.0145 -1.941,-0.1582 -2.851,-0.509 -0.814,-0.3177 -1.549,-0.8126 -2.152,-1.4493 -0.6,-0.6478 -1.064,-1.4121 -1.361,-2.2463 -0.329,-0.9216 -0.491,-1.8949 -0.48,-2.8741 -0.009,-0.9628 0.158,-1.919 0.492,-2.82103 0.308,-0.83973 0.782,-1.60696 1.396,-2.25412 0.613,-0.64715 1.352,-1.16044 2.171,-1.50805 0.881,-0.37428 1.829,-0.56103 2.785,-0.54853 1.032,-0.02458 2.054,0.20416 2.978,0.66647 0.824,0.42577 1.538,1.03907 2.085,1.79125 0.553,0.7692 0.953,1.639 1.178,2.56141 0.244,0.9824 0.332,1.9977 0.26,3.0078 h -9.662 c -0.038,0.9543 0.287,1.8872 0.907,2.6089 z m 4.158,-7.11904 c -0.263,-0.25963 -0.579,-0.45945 -0.925,-0.58601 -0.346,-0.12657 -0.716,-0.17694 -1.083,-0.14774 -0.504,-0.01741 -1.006,0.08593 -1.463,0.30157 -0.361,0.17815 -0.679,0.43278 -0.933,0.74642 -0.224,0.27884 -0.391,0.59946 -0.492,0.94351 -0.087,0.29009 -0.143,0.58849 -0.168,0.89049 h 5.984 c -0.104,-0.78788 -0.423,-1.53137 -0.92,-2.14824 z"
     fill="#005fa5"
     id="path11" /><path
     d="M 57.1622,0.251953 V 6.77024 H 57.1237 C 56.6858,6.19682 56.1046,5.75077 55.4397,5.47766 54.7202,5.16358 53.9418,5.00994 53.1578,5.02728 52.3015,5.00425 51.4519,5.1865 50.6792,5.55901 c -0.7728,0.37252 -1.4468,0.92465 -1.9664,1.61095 -0.5048,0.66879 -0.8827,1.4258 -1.1146,2.23292 -0.2515,0.85202 -0.378,1.73662 -0.3755,2.62552 -0.0032,0.9191 0.1232,1.8341 0.3755,2.7173 0.2308,0.8314 0.6078,1.6142 1.113,2.3113 0.4935,0.672 1.1365,1.218 1.8773,1.5942 0.822,0.4038 1.7273,0.6051 2.6416,0.5873 0.7675,0.0147 1.5312,-0.1133 2.2528,-0.3776 0.7262,-0.2697 1.3571,-0.75 1.8129,-1.3804 h 0.0518 v 1.4184 h 3.4986 V 0.251953 Z M 53.93,16.5164 c -2.428,0 -3.4491,-2.2725 -3.4491,-4.3883 0,-2.21626 0.886,-4.37557 3.4522,-4.37557 2.5387,0 3.3642,2.15614 3.3642,4.35347 0,2.221 -0.7729,4.4104 -3.3673,4.4104 z"
     fill="#005fa5"
     id="path12" /><path
     d="m 98.0312,0.25 v 18.6454 h 3.4978 v -1.4169 h 0.051 c 0.456,0.6304 1.087,1.1107 1.813,1.3805 0.721,0.2643 1.485,0.3923 2.253,0.3775 0.914,0.0179 1.819,-0.1834 2.641,-0.5873 0.741,-0.3761 1.384,-0.9221 1.878,-1.5941 0.505,-0.6972 0.882,-1.48 1.113,-2.3113 0.252,-0.8833 0.378,-1.7982 0.375,-2.7173 0.003,-0.889 -0.124,-1.7735 -0.375,-2.62556 -0.232,-0.80706 -0.61,-1.56404 -1.115,-2.23293 -0.52,-0.68626 -1.194,-1.23835 -1.966,-1.61086 -0.773,-0.37251 -1.623,-0.55478 -2.479,-0.53182 -0.784,-0.01743 -1.562,0.13621 -2.282,0.45039 -0.665,0.27304 -1.246,0.71909 -1.684,1.29257 h -0.038 V 0.25 Z m 3.5458,11.854 c 0,-2.19411 0.825,-4.35342 3.364,-4.35342 2.566,0 3.452,2.15614 3.452,4.37562 0,2.1158 -1.021,4.3883 -3.449,4.3883 -2.593,0.0063 -3.369,-2.1894 -3.369,-4.4105 z"
     fill="#005fa5"
     id="path13" /></g></svg>
