<?xml version="1.0" encoding="UTF-8" standalone="no"?>
<svg
   version="1.1"
   id="Layer_1"
   x="0px"
   y="0px"
   viewBox="0 0 373.79998 364.60001"
   xml:space="preserve"
   width="373.79999"
   height="364.60001"
   xmlns="http://www.w3.org/2000/svg"
   xmlns:svg="http://www.w3.org/2000/svg"
   style="background-color:#57559c"><defs
   id="defs13"><clipPath
     clipPathUnits="userSpaceOnUse"
     id="clipPath388"><path
       d="M 24.387,28.346 H 284.288 V 71.563 H 24.387 Z"
       id="path388" /></clipPath><clipPath
     clipPathUnits="userSpaceOnUse"
     id="clipPath390"><path
       d="M 24.387,28.346 H 284.288 V 71.563 H 24.387 Z"
       id="path390" /></clipPath><clipPath
     clipPathUnits="userSpaceOnUse"
     id="clipPath392"><path
       d="M 24.387,28.346 H 284.288 V 71.563 H 24.387 Z"
       id="path392" /></clipPath><clipPath
     clipPathUnits="userSpaceOnUse"
     id="clipPath394"><path
       d="M 24.387,28.346 H 284.288 V 71.563 H 24.387 Z"
       id="path394" /></clipPath><clipPath
     clipPathUnits="userSpaceOnUse"
     id="clipPath396"><path
       d="M 24.387,28.346 H 284.288 V 71.563 H 24.387 Z"
       id="path396" /></clipPath><clipPath
     clipPathUnits="userSpaceOnUse"
     id="clipPath452"><path
       d="M 24.387,28.346 H 284.288 V 71.563 H 24.387 Z"
       id="path452" /></clipPath><clipPath
     clipPathUnits="userSpaceOnUse"
     id="clipPath454"><path
       d="M 24.387,28.346 H 284.288 V 71.563 H 24.387 Z"
       id="path454" /></clipPath><clipPath
     clipPathUnits="userSpaceOnUse"
     id="clipPath456"><path
       d="M 24.387,28.346 H 284.288 V 71.563 H 24.387 Z"
       id="path456" /></clipPath><clipPath
     clipPathUnits="userSpaceOnUse"
     id="clipPath458"><path
       d="M 24.387,28.346 H 284.288 V 71.563 H 24.387 Z"
       id="path458" /></clipPath></defs>&#10;<style
   type="text/css"
   id="style1">&#10;	.st0{fill:#F9383D;}&#10;	.st1{fill:#FFFFFF;}&#10;	.st2{fill-rule:evenodd;clip-rule:evenodd;fill:#FFFFFF;}&#10;</style>&#10;&#10;&#10;&#10;&#10;&#10;&#10;&#10;&#10;&#10;&#10;&#10;&#10;&#10;<g
   id="g464"
   transform="matrix(1.51734,0,0,1.51734,25.734931,-905.75254)"
   style="fill:#ffffff;fill-opacity:1"><path
     id="path387"
     d="m 33.8351,58.2422 h 7.264 v -5.737 c 1.598,0.162 3.268,0.247 5.03,0.251 v 16.857 h -5.03 v -7.47 h -7.264 v 7.47 h -5.031 v -19.353 h 2.64 c 0.769,0.298 1.561,0.578 2.391,0.827 z"
     style="fill:#ffffff;fill-opacity:1;fill-rule:nonzero;stroke:none"
     fill="#ffffff"
     transform="matrix(1.3333333,0,0,-1.3333333,0,793.70133)"
     clip-path="url(#clipPath388)" /><path
     id="path389"
     d="m 54.2778,60.3474 c 0.454,0.376 1.04,0.565 1.758,0.565 0.685,0 1.266,-0.197 1.746,-0.591 0.478,-0.394 0.795,-0.915 0.95,-1.565 h -5.313 c 0.119,0.684 0.405,1.214 0.859,1.591 m 8.612,-6.057 h -4.492 c -0.513,-0.822 -1.275,-1.232 -2.285,-1.232 -1.882,0 -2.823,1 -2.823,3.002 h 9.779 v 0.488 c 0,1.146 -0.163,2.178 -0.488,3.093 -0.324,0.915 -0.795,1.69 -1.411,2.323 -0.616,0.633 -1.369,1.117 -2.259,1.45 -0.89,0.333 -1.891,0.5 -3.003,0.5 -1.129,0 -2.143,-0.167 -3.042,-0.5 -0.897,-0.333 -1.664,-0.808 -2.297,-1.424 -0.633,-0.617 -1.12,-1.365 -1.463,-2.247 -0.343,-0.881 -0.513,-1.869 -0.513,-2.964 0,-1.061 0.179,-2.019 0.539,-2.874 0.188,-0.447 0.418,-0.859 0.687,-1.241 3.898,-0.163 7.777,-0.544 11.593,-0.99 0.659,0.688 1.157,1.553 1.478,2.616"
     style="fill:#ffffff;fill-opacity:1;fill-rule:nonzero;stroke:none"
     fill="#ffffff"
     transform="matrix(1.3333333,0,0,-1.3333333,0,793.70133)"
     clip-path="url(#clipPath390)" /><path
     id="path391"
     d="m 71.8341,54.0843 c -0.368,0.154 -0.685,0.368 -0.95,0.642 -0.266,0.273 -0.475,0.594 -0.629,0.962 -0.153,0.368 -0.231,0.766 -0.231,1.194 0,0.411 0.078,0.791 0.231,1.142 0.154,0.35 0.363,0.663 0.629,0.937 0.265,0.274 0.582,0.487 0.95,0.641 0.368,0.155 0.765,0.232 1.193,0.232 0.411,0 0.8,-0.077 1.168,-0.232 0.368,-0.154 0.684,-0.367 0.95,-0.641 0.265,-0.274 0.479,-0.595 0.642,-0.963 0.162,-0.368 0.243,-0.757 0.243,-1.168 0,-0.41 -0.081,-0.795 -0.243,-1.154 -0.163,-0.36 -0.377,-0.677 -0.642,-0.95 -0.266,-0.274 -0.582,-0.488 -0.95,-0.642 -0.368,-0.154 -0.757,-0.231 -1.168,-0.231 -0.428,0 -0.825,0.077 -1.193,0.231 m 1.967,-3.894 c 0.808,0.305 1.502,0.811 2.075,1.533 v -1.463 h 4.671 v 13.167 h -4.671 v -1.31 c -1.078,1.147 -2.438,1.72 -4.081,1.72 -0.975,0 -1.865,-0.184 -2.669,-0.551 -0.804,-0.369 -1.498,-0.869 -2.079,-1.502 -0.582,-0.633 -1.036,-1.373 -1.361,-2.22 -0.325,-0.847 -0.487,-1.741 -0.487,-2.682 0,-1.01 0.167,-1.942 0.5,-2.798 0.334,-0.856 0.8,-1.6 1.399,-2.233 0.379,-0.401 0.804,-0.738 1.266,-1.026 1.7,-0.209 3.413,-0.416 5.113,-0.6 0.108,-0.012 0.216,-0.023 0.324,-0.035"
     style="fill:#ffffff;fill-opacity:1;fill-rule:nonzero;stroke:none"
     fill="#ffffff"
     transform="matrix(1.3333333,0,0,-1.3333333,0,793.70133)"
     clip-path="url(#clipPath392)" /><path
     id="path393"
     d="M 83.704,50.26 H 88.35 V 71.564 H 83.704 Z"
     style="fill:#ffffff;fill-opacity:1;fill-rule:nonzero;stroke:none"
     fill="#ffffff"
     transform="matrix(1.3333333,0,0,-1.3333333,0,793.70133)"
     clip-path="url(#clipPath394)" /><path
     id="path395"
     d="m 92.7139,50.2601 h 4.646 v 9.292 h 2.643 v 3.875 h -2.643 v 3.953 h -4.646 v -3.953 h -1.54 v -3.875 h 1.54 z"
     style="fill:#ffffff;fill-opacity:1;fill-rule:nonzero;stroke:none"
     fill="#ffffff"
     transform="matrix(1.3333333,0,0,-1.3333333,0,793.70133)"
     clip-path="url(#clipPath396)" /><path
     id="path451"
     d="m 123.6414,52.0571 -6.365,11.37 h 5.39 l 3.516,-6.75 3.414,6.75 h 5.339 l -10.575,-19.737 h -5.211 z"
     style="fill:#ffffff;fill-opacity:1;fill-rule:nonzero;stroke:none"
     fill="#ffffff"
     transform="matrix(1.3333333,0,0,-1.3333333,0,793.70133)"
     clip-path="url(#clipPath452)" /><path
     id="path453"
     d="m 61.968,46.0794 c -4.014,0.599 -8.041,1.128 -12.08,1.432 -2.018,0.161 -4.04,0.243 -6.054,0.246 -2.013,-0.031 -4.021,-0.11 -6.015,-0.332 -1.992,-0.219 -3.979,-0.525 -5.92,-1.036 -0.974,-0.243 -1.941,-0.524 -2.881,-0.881 -0.946,-0.339 -2.824,-1.141 -2.824,-1.141 1.627,1.268 3.54,2.105 5.481,2.777 1.958,0.634 3.977,1.09 6.018,1.355 4.096,0.53 8.22,0.229 12.268,-0.169 4.059,-0.411 8.084,-1.034 12.09,-1.745 4.003,-0.727 7.987,-1.554 11.946,-2.473 0,0 -8.012,1.375 -12.029,1.967"
     style="fill:#ffffff;fill-opacity:1;fill-rule:nonzero;stroke:none"
     fill="#ffffff"
     transform="matrix(1.3333333,0,0,-1.3333333,0,793.70133)"
     clip-path="url(#clipPath454)" /><path
     id="path455"
     d="m 116.224,53.3806 v 5.247 c 0,1.556 -0.423,2.793 -1.27,3.709 -0.847,0.915 -2.1,1.373 -3.76,1.373 -0.873,0 -1.634,-0.133 -2.285,-0.398 -0.65,-0.265 -1.292,-0.783 -1.924,-1.552 v 9.804 h -4.647 v -21.303 h 4.647 v 7.032 c 0,0.873 0.208,1.544 0.628,2.015 0.419,0.471 1.022,0.706 1.81,0.706 0.581,0 1.078,-0.18 1.489,-0.539 0.239,-0.223 0.41,-0.539 0.513,-0.95 0.102,-0.41 0.153,-0.949 0.153,-1.617 v -5.638 c 1.257,0.453 2.524,0.997 3.78,1.635 0.265,0.141 0.56,0.303 0.866,0.476"
     style="fill:#ffffff;fill-opacity:1;fill-rule:nonzero;stroke:none"
     fill="#ffffff"
     transform="matrix(1.3333333,0,0,-1.3333333,0,793.70133)"
     clip-path="url(#clipPath456)" /><path
     id="path457"
     d="m 110.21,49.6916 c -3.872,-1.198 -7.906,-1.797 -11.955,-2.004 -1.205,-0.06 -2.411,-0.092 -3.619,-0.092 -0.825,0 -1.65,0.015 -2.475,0.046 -2.033,0.079 -4.073,0.212 -6.124,0.374 -4.098,0.329 -8.247,0.652 -12.401,1.111 -8.311,0.884 -16.642,2.271 -25.152,2.52 -0.758,0.026 -1.52,0.04 -2.283,0.04 -3.504,0 -7.04,-0.303 -10.462,-1.14 -2.082,-0.499 -4.128,-1.169 -6.063,-2.083 -1.929,-0.925 -3.774,-2.036 -5.287,-3.598 -0.076,-0.078 3.769,1.947 5.678,2.676 1.926,0.727 3.936,1.211 5.964,1.527 2.051,0.332 4.115,0.458 6.187,0.458 2.038,0 4.083,-0.122 6.127,-0.292 4.123,-0.366 8.24,-1.002 12.362,-1.668 4.123,-0.672 8.247,-1.427 12.397,-2.16 4.149,-0.726 8.323,-1.491 12.588,-1.821 1.745,-0.142 3.507,-0.215 5.276,-0.215 2.545,0 5.102,0.151 7.639,0.462 2.151,0.272 4.287,0.694 6.392,1.236 2.103,0.554 4.159,1.296 6.147,2.179 1.973,0.915 3.88,1.988 5.607,3.304 0.867,0.652 1.712,1.338 2.45,2.129 0.973,1.043 1.538,2.121 1.89,2.878 0.04,0.086 -1.835,-1.676 -5.235,-3.596 -1.776,-1.003 -3.701,-1.699 -5.648,-2.271"
     style="fill:#ffffff;fill-opacity:1;fill-rule:nonzero;stroke:none"
     fill="#ffffff"
     transform="matrix(1.3333333,0,0,-1.3333333,0,793.70133)"
     clip-path="url(#clipPath458)" /></g></svg>
