<svg xmlns="http://www.w3.org/2000/svg" width="373.8" height="364.6">
  <rect width="373.8" height="364.6" fill="#57559c" />
  <defs>
    <clipPath id="A">
      <path d="M24.387 28.346h259.901v43.217H24.387z" />
    </clipPath>
    <clipPath id="B">
      <path d="M24.387 28.346h259.901v43.217H24.387z" />
    </clipPath>
    <clipPath id="C">
      <path d="M24.387 28.346h259.901v43.217H24.387z" />
    </clipPath>
    <clipPath id="D">
      <path d="M24.387 28.346h259.901v43.217H24.387z" />
    </clipPath>
    <clipPath id="E">
      <path d="M24.387 28.346h259.901v43.217H24.387z" />
    </clipPath>
    <clipPath id="F">
      <path d="M24.387 28.346h259.901v43.217H24.387z" />
    </clipPath>
    <clipPath id="G">
      <path d="M24.387 28.346h259.901v43.217H24.387z" />
    </clipPath>
    <clipPath id="H">
      <path d="M24.387 28.346h259.901v43.217H24.387z" />
    </clipPath>
    <clipPath id="I">
      <path d="M24.387 28.346h259.901v43.217H24.387z" />
    </clipPath>
  </defs>
  <g transform="matrix(2.023119 0 0 -2.023119 25.734931 298.562236)" fill="#fff">
    <path d="M33.835 58.242h7.264v-5.737c1.598.162 3.268.247 5.03.251v16.857h-5.03v-7.47h-7.264v7.47h-5.031V50.26h2.64l2.391.827z" clip-path="url(#A)" />
    <path d="M54.278 60.347c.454.376 1.04.565 1.758.565.685 0 1.266-.197 1.746-.591s.795-.915.95-1.565h-5.313c.119.684.405 1.214.859 1.591m8.612-6.057h-4.492c-.513-.822-1.275-1.232-2.285-1.232-1.882 0-2.823 1-2.823 3.002h9.779v.488c0 1.146-.163 2.178-.488 3.093s-.795 1.69-1.411 2.323a6.07 6.07 0 0 1-2.259 1.45c-.89.333-1.891.5-3.003.5-1.129 0-2.143-.167-3.042-.5s-1.664-.808-2.297-1.424-1.12-1.365-1.463-2.247-.513-1.869-.513-2.964c0-1.061.179-2.019.539-2.874a6.57 6.57 0 0 1 .687-1.241c3.898-.163 7.777-.544 11.593-.99.659.688 1.157 1.553 1.478 2.616" clip-path="url(#B)" />
    <path d="M71.834 54.084a2.82 2.82 0 0 0-.95.642 3.05 3.05 0 0 0-.629.962 3.08 3.08 0 0 0-.231 1.194c0 .411.078.791.231 1.142a3.16 3.16 0 0 0 .629.937c.265.274.582.487.95.641a3.04 3.04 0 0 0 1.193.232c.411 0 .8-.077 1.168-.232s.684-.367.95-.641.479-.595.642-.963.243-.757.243-1.168-.081-.795-.243-1.154-.377-.677-.642-.95a2.83 2.83 0 0 0-.95-.642c-.368-.154-.757-.231-1.168-.231-.428 0-.825.077-1.193.231m1.967-3.894c.808.305 1.502.811 2.075 1.533V50.26h4.671v13.167h-4.671v-1.31c-1.078 1.147-2.438 1.72-4.081 1.72-.975 0-1.865-.184-2.669-.551s-1.498-.869-2.079-1.502a6.89 6.89 0 0 1-1.361-2.22 7.42 7.42 0 0 1-.487-2.682c0-1.01.167-1.942.5-2.798s.8-1.6 1.399-2.233c.379-.401.804-.738 1.266-1.026l5.113-.6.324-.035" clip-path="url(#C)" />
    <path d="M83.704 50.26h4.646v21.304h-4.646z" clip-path="url(#D)" />
    <path d="M92.714 50.26h4.646v9.292h2.643v3.875H97.36v3.953h-4.646v-3.953h-1.54v-3.875h1.54z" clip-path="url(#E)" />
    <path d="M123.641 52.057l-6.365 11.37h5.39l3.516-6.75 3.414 6.75h5.339L124.36 43.69h-5.211z" clip-path="url(#F)" />
    <path d="M61.968 46.079c-4.014.599-8.041 1.128-12.08 1.432-2.018.161-4.04.243-6.054.246-2.013-.031-4.021-.11-6.015-.332s-3.979-.525-5.92-1.036c-.974-.243-1.941-.524-2.881-.881-.946-.339-2.824-1.141-2.824-1.141 1.627 1.268 3.54 2.105 5.481 2.777 1.958.634 3.977 1.09 6.018 1.355 4.096.53 8.22.229 12.268-.169 4.059-.411 8.084-1.034 12.09-1.745 4.003-.727 7.987-1.554 11.946-2.473l-12.029 1.967" clip-path="url(#G)" />
    <path d="M116.224 53.381v5.247c0 1.556-.423 2.793-1.27 3.709s-2.1 1.373-3.76 1.373c-.873 0-1.634-.133-2.285-.398s-1.292-.783-1.924-1.552v9.804h-4.647V50.261h4.647v7.032c0 .873.208 1.544.628 2.015s1.022.706 1.81.706c.581 0 1.078-.18 1.489-.539.239-.223.41-.539.513-.95s.153-.949.153-1.617V51.27c1.257.453 2.524.997 3.78 1.635l.866.476" clip-path="url(#H)" />
    <path d="M110.21 49.692c-3.872-1.198-7.906-1.797-11.955-2.004a72.75 72.75 0 0 0-3.619-.092c-.825 0-1.65.015-2.475.046-2.033.079-4.073.212-6.124.374l-12.401 1.111c-8.311.884-16.642 2.271-25.152 2.52-.758.026-1.52.04-2.283.04-3.504 0-7.04-.303-10.462-1.14-2.082-.499-4.128-1.169-6.063-2.083-1.929-.925-3.774-2.036-5.287-3.598-.076-.078 3.769 1.947 5.678 2.676 1.926.727 3.936 1.211 5.964 1.527 2.051.332 4.115.458 6.187.458 2.038 0 4.083-.122 6.127-.292 4.123-.366 8.24-1.002 12.362-1.668l12.397-2.16c4.149-.726 8.323-1.491 12.588-1.821 1.745-.142 3.507-.215 5.276-.215a62.85 62.85 0 0 1 7.639.462c2.151.272 4.287.694 6.392 1.236 2.103.554 4.159 1.296 6.147 2.179 1.973.915 3.88 1.988 5.607 3.304.867.652 1.712 1.338 2.45 2.129.973 1.043 1.538 2.121 1.89 2.878.04.086-1.835-1.676-5.235-3.596-1.776-1.003-3.701-1.699-5.648-2.271" clip-path="url(#I)" />
  </g>
</svg>