<svg xmlns="http://www.w3.org/2000/svg" width="373.8" height="364.6" style="background-color:#ffffff"><path d="M277.513 90.573c-.359-1.799-1.436-3.597-3.231-4.317-18.668-8.993-80.415-11.151-87.236-11.151h-.359v27.698h.359c5.744 0 10.411 4.676 10.411 10.432s-4.667 10.432-10.411 10.432h-.359v21.942h.359c5.744 0 10.411 4.676 10.411 10.432s-4.667 10.432-10.411 10.432h-.359v23.022c5.744 0 10.411 4.676 10.411 10.432s-4.667 10.432-10.411 10.432v21.223h.359c5.744 0 10.411 4.676 10.411 10.432s-4.667 10.432-10.411 10.432h-.359v37.05h.359c.718 0 1.436 0 2.513-.36 25.489-11.151 45.951-28.777 60.67-52.158 11.847-18.705 20.463-41.007 25.13-66.187 7.539-42.446 2.513-78.777 2.154-80.216m-59.234 122.302c-5.744 0-10.411-4.676-10.411-10.432s4.667-10.432 10.411-10.432 10.411 4.676 10.411 10.432-4.667 10.432-10.411 10.432m-11.129-54.676c0-5.755 4.667-10.432 10.411-10.432s10.411 4.676 10.411 10.432-4.667 10.432-10.411 10.432-10.411-4.676-10.411-10.432m11.129-32.374c-5.744 0-10.411-4.676-10.411-10.432s4.667-10.432 10.411-10.432 10.411 4.676 10.411 10.432-4.667 10.432-10.411 10.432m28.72 47.122c-5.744 0-10.411-4.676-10.411-10.432s4.667-10.432 10.411-10.432 10.411 4.676 10.411 10.432-4.667 10.432-10.411 10.432m4.308-42.806c-5.744 0-10.411-4.676-10.411-10.432s4.667-10.432 10.411-10.432 10.411 4.676 10.411 10.432-4.667 10.432-10.411 10.432" fill="#fc0"/><path d="M176.276 242.397a10.42 10.42 0 0 1 10.411-10.411v-21.181a10.42 10.42 0 0 1-10.411-10.411 10.42 10.42 0 0 1 10.411-10.411V166.29a10.42 10.42 0 0 1-10.411-10.411 10.42 10.42 0 0 1 10.411-10.411V123.57a10.42 10.42 0 0 1-10.411-10.411 10.42 10.42 0 0 1 10.411-10.411V75.106c-7.18.359-68.568 2.154-87.236 11.129-1.795.718-2.872 2.513-3.231 4.308-.359 1.436-5.385 37.694 2.513 80.415 4.667 25.13 13.283 47.387 25.13 66.055 15.078 23.335 35.541 40.925 60.67 52.054.718.359 1.436.359 2.154.359v-36.618a10.42 10.42 0 0 1-10.411-10.411m-64.619-122.776a10.42 10.42 0 0 1 10.411-10.411 10.42 10.42 0 0 1 10.411 10.411 10.42 10.42 0 0 1-10.411 10.411 10.42 10.42 0 0 1-10.411-10.411m15.078 53.131a10.42 10.42 0 0 1-10.411-10.411 10.42 10.42 0 0 1 10.411-10.411 10.42 10.42 0 0 1 10.411 10.411 10.42 10.42 0 0 1-10.411 10.411m28.361-68.209a10.42 10.42 0 0 1 10.411 10.411 10.42 10.42 0 0 1-10.411 10.411 10.42 10.42 0 0 1-10.411-10.411c0-5.385 4.667-10.411 10.411-10.411m0 108.058a10.42 10.42 0 0 1-10.411-10.411 10.42 10.42 0 0 1 10.411-10.411 10.42 10.42 0 0 1 10.411 10.411c.359 5.744-4.308 10.411-10.411 10.411m.718-44.156a10.42 10.42 0 0 1-10.411-10.411 10.42 10.42 0 0 1 10.411-10.411 10.42 10.42 0 0 1 10.411 10.411c.359 5.744-4.308 10.411-10.411 10.411" fill="#f4b700"/></svg>