<svg xmlns="http://www.w3.org/2000/svg" width="373.8" height="364.6" style="background-color:#ffffff"><path d="M75.875 153.452v10.3H89.34v-10.3zm0 15.423v41.066H89.34v-6.572-27.627-6.867z" fill="#84d5f7"/><path d="M106.507 167.695c-7.518 0-13.451 3.034-17.167 8.047-2.815 3.795-4.372 8.724-4.372 14.35 0 5.249 1.612 9.775 4.372 13.277 3.854 4.889 9.975 7.779 17.167 7.779 7.47 0 13.836-2.978 17.488-8.369 1.689-2.491 2.791-5.484 3.165-8.959h-6.759c.141.869.313 1.685.536 2.495-.223-.801-.423-1.635-.563-2.495h-6.277c-.633 4.352-3.002 7.028-7.671 7.028-5.693 0-7.993-5.461-7.993-10.756 0-5.7 1.2-12.097 8.717-12.097 3.402 0 6.464 2.452 6.545 5.928h6.974 6.089c-.257-2.943-1.122-5.505-2.441-7.644-3.537-5.74-10.375-8.583-17.81-8.583zm16.63 10.327a20.75 20.75 0 0 0-1.448 2.816 21.02 21.02 0 0 1 1.448-2.816zm-2.199 18.32a21.97 21.97 0 0 0 .778 2.334c-.305-.747-.552-1.525-.778-2.334z" fill="#6acff6"/><path d="M89.34 175.731c-2.815 3.795-4.359 8.732-4.359 14.359 0 5.249 1.599 9.782 4.359 13.284" fill="#53caf5"/><path d="M142.181 167.695c-7.28 0-13.808 3.25-17.864 8.583-1.681 2.212-2.944 4.803-3.648 7.644-.423 1.704-.644 3.485-.644 5.365 0 1.581.116 3.106.349 4.533h.027c.565 3.476 1.798 6.468 3.594 8.959 3.89 5.394 10.41 8.369 18.508 8.369 6.317 0 12.435-1.965 16.442-6.277 1.815-1.952 3.205-4.391 3.97-7.349h-6.733-5.847c-1.267 3.005-4.43 4.506-7.671 4.506-5.699 0-8.937-3.714-9.173-9.334h30.149c.032-.718.036-1.417.027-2.119-.088-6.309-1.896-11.93-5.338-16.013-.358.586-.647 1.226-.885 1.904a9.81 9.81 0 0 1 .885-1.904c-3.602-4.271-9.011-6.867-16.147-6.867zm0 9.093c4.506 0 7.757 3.8 7.993 8.396H133.49c.789-4.986 3.939-8.396 8.691-8.396zm17.569 11.292a10.07 10.07 0 0 0 .563.51c-.199-.165-.378-.33-.563-.51zm1.18.992c.413.296.857.554 1.314.805-.458-.25-.901-.508-1.314-.805z" fill="#57b9e9"/><path d="M127.156 193.81h-6.768c.565 3.476 1.799 6.484 3.595 8.975 1.689-2.491 2.798-5.5 3.173-8.975m-2.832-17.521c-1.681 2.212-2.938 4.782-3.641 7.623h6.076c-.257-2.943-1.116-5.484-2.434-7.623" fill="#2db4e8"/><path d="M175.575 167.695c-6.229 0-14.019 1.59-17.247 6.867-.956 1.562-1.502 3.456-1.502 5.713 0 5.777 2.882 8.612 6.84 10.3 3.634 1.549 8.18 2.142 12.231 3.165 2.371.553 6.572 1.186 6.572 4.345 0 3.248-3.723 4.345-6.33 4.345-1.908 0-3.715-.473-4.989-1.422-1.34-1.025-2.226-2.525-2.226-4.587h-12.821c.013.379.047.737.08 1.1.283 3.035 1.265 5.451 2.763 7.349 3.719 4.718 10.561 6.277 17.274 6.277 5.319 0 11.017-1.208 14.913-4.318 2.884-2.302 4.774-5.651 4.774-10.327 0-1.995-.724-4.883-3.004-7.269-1.609-1.684-3.991-3.122-7.43-3.809-6.172-1.347-15.209-2.054-15.209-5.928 0-2.85 3.584-3.085 5.794-3.085 1.663 0 3.153.312 4.265 1.019 1.105.715 1.743 1.828 1.743 3.567h8.02 4.399c-.124-2.804-.851-5.05-2.039-6.84-3.336-5.032-10.217-6.464-16.872-6.464zm12.902 29.344a16.35 16.35 0 0 0-.08 1.663c0-.585.026-1.132.08-1.663z" fill="#a8d15f"/><path d="M162.917 197.528h-6.734c.283 3.035 1.277 5.448 2.775 7.346 1.815-1.952 3.194-4.388 3.959-7.346m-4.578-22.956c-.956 1.562-1.513 3.444-1.513 5.701 0 5.777 2.882 8.607 6.84 10.295-.088-6.309-1.885-11.913-5.327-15.996" fill="#91ca64"/><path d="M209.506 167.695c-4.668 0-9.397.781-13.036 2.843-1.588.931-2.955 2.134-4.023 3.621-1.296 1.806-2.148 4.059-2.36 6.84-.014.182-.018.35-.027.536h12.58c.633-3.484 3.014-5.123 6.733-5.123 2.769 0 6.491 1.179 6.491 4.265 0 2.533-1.27 3.305-3.567 3.782-6.072 1.236-14.346 1.253-19.393 4.774-2.717 1.895-4.506 4.788-4.506 9.468 0 3.431 1.01 6.141 2.736 8.127 2.532 2.914 6.606 4.318 11.266 4.318 4.912 0 10.041-1.432 13.519-5.07.161 1.348.326 2.604.805 3.862h13.519c-1.584-3.239-1.583-7.032-1.583-10.515v-7.269-10.702c0-6.667-3.089-10.204-7.564-12.017-3.329-1.348-7.433-1.743-11.587-1.743zm6.196 23.041c.317 8.461-1.828 12.097-8.235 12.097-3.005 0-5.633-1.347-5.633-4.667 0-3.248 2.547-4.516 5.552-5.23 2.931-.789 6.414-1.014 8.315-2.199z" fill="#f7934e"/><path d="M192.894 189.224c-2.717 1.895-4.498 4.81-4.498 9.49 0 3.431 1.012 6.123 2.738 8.109 2.884-2.302 4.773-5.65 4.773-10.326 0-1.995-.734-4.887-3.014-7.273m-.458-15.077c-1.296 1.806-2.137 4.059-2.35 6.84h4.4c-.124-2.804-.863-5.05-2.05-6.84" fill="#e98f38"/><path d="M276.456 167.695c-5.129 0-9.899 1.63-13.68 4.453-5.146 3.841-8.476 9.891-8.476 17.14 0 2.196.227 4.246.671 6.142 2.335 9.997 10.566 15.718 21.807 15.718 9.185 0 17.961-4.134 20.412-13.626h-12.58c-1.266 3.005-4.45 4.506-7.698 4.506-5.692 0-8.931-3.714-9.173-9.334h30.149c.633-13.925-6.71-24.999-21.431-24.999zm0 9.093c4.507 0 7.766 3.8 7.993 8.396h-16.711c.795-4.986 3.974-8.396 8.717-8.396z" fill="#a682bb"/><path d="M220.906 168.875l.188.563 7.564 22.719 5.955 17.784h15.504l4.855-14.511 7.805-23.282 1.1-3.272H250.17l-7.591 27.145h-.134l-7.537-27.145z" fill="#d77183"/><path d="M221.094 169.432l7.57 22.712v-10.686c0-6.667-3.095-10.214-7.57-12.026" fill="#d76370"/><path d="M262.782 172.137c-5.146 3.841-8.482 9.908-8.482 17.157 0 2.196.232 4.246.675 6.142" fill="#cd607d"/></svg>