<svg xmlns="http://www.w3.org/2000/svg" width="373.8" height="364.6" style="background-color:#ffffff"><style><![CDATA[.B{fill-rule:evenodd}]]></style><g fill="#fff" class="B"><path d="M246.639 254.289c2.672-.404 5.506-.343 7.636-2.297 9.026 1.385 18.175-.844 25.269-5.81 3.737-3.011 7.105-6.506 9.831-10.326 2.397-3.361 4.289-6.495 5.513-10.261a47.67 47.67 0 0 0 2.181-7.22c2.574-11.7 1.22-24.784-2.592-35.911-.697-2.067-1.495-4.068-2.361-5.976-4.759-9.824-11.236-20.424-21.208-26.638-5.618-3.498-10.788-8.912-13.961-14.516-1.726-1.551-3.379-3.607-5.611-3.978.61 1.006 1.282 1.991 1.448 3.167l-.13.166c-2.368.069-4.224-1.183-5.845-2.698l1.787-1.619c-.675-.343-1.448-.472-2.195-.646-6.82-.775-12.431 2.37-18.482 3.884l-.094.335c3.715 1.652 4.491 5.742 6.654 8.508.534-.642 1.448-.173 2.195-.231 1.08.061 2.094.84 3.141.566.032-.902-.477-1.619-.639-2.427.639-.303 1.415-.036 2.13 0 1.957 1.143 5.094-.202 6.315 2.427-2.231.141-4.325.61-6.419 1.118.137.844.982 1.515.913 2.362-1.791-.743-3.686-1.212-5.679-1.446l-.101.299c2.535 2.968 6.015 4.728 9.564 5.771 5.105 1.179 9.596-1.248 14.525-.404 12.102 5.536 22.439 18.199 26.934 30.216a43.85 43.85 0 0 1 .632 1.756c3.766 10.975 4.481 24.463.708 35.911-2.007 4.761-4.217 9.254-7.759 13.124-1.339 1.648-2.82 3.116-4.43 4.357-5.073 3.946-11.326 5.688-17.774 3.92-.404-.278-1.217-.346-1.08-1.05a61.94 61.94 0 0 0 .617-2.871c1.065-5.486 1.563-11.256 1.274-17.027l-.022-.739c-.357-8.378-2.029-15.909-5.109-23.154-1.979-4.158-4.325-8.692-7.282-12.76-3.531-4.851-7.91-9.042-13.535-11.133-3.448-.912-7.705-1.086-10.304 1.782-1.859 1.627-2.632 3.816-2.365 6.218-2.906 1.839-6.174 2.831-9.73 3.134-.87.076-1.762.397-2.668.386a14.96 14.96 0 0 1-2.52-.097c-4.278-.527-8.607-2.835-11.896-5.468l-.238-5.266c-1.885-.977-3.448-2.835-3.578-5.031l.166-.166c1.087.335 2.025.873 3.007 1.446-.44-2.633-.95-5.23-2.26-7.527-1.22-.509-2.437-.912-3.582-1.522-1.318-.869-2.166-2.463-2.361-3.91 1.181 1.147 3.239.743 4.152 1.955-1.592-4.692-1.617-10.059-4.224-14.347-1.318-3.17-4.766-4.624-7.131-6.95-.913-1.118-1.282-2.669-2.935-2.842-1.354-.335-1.455-1.85-1.69-2.835.841.101 1.549.674 2.257.808-1.957-5.19-3.683-10.968-8.983-14.275l-.91.577c-2.062.303-4.26.44-6.318.509.913-1.349 2.531-1.926 3.816-2.539-1.487-1.111-2.711-1.378-4.571-1.681-1.08 1.075-3.033 1.619-4.419 1.922l-.173-.137c-.036-1.215-.31-2.698 1.52-3.004-1.758-.844-4.672-.501-6.463 0-.502 1.316-1.953 2.499-1.849 4.057-1.043 1.078-1.787 2.532-2.874 3.307-.032-2.6 1.076-4.995 1.549-7.188-1.52.573-3.065 1.385-4.556 2.092-2.394-1.385-4.921-2.766-7.488-3.816-.231-.101-.744-.198-.643.238 2.199 1.583 1.347 4.559 1.581 6.813l-1.386-1.143c-.675-1.72-2.625-2.968-2.961-4.858-2.3.44-3.769 1.046-5.899 1.958l-.292.17c1.585 0 2.935 1.244 3.712 2.499-2.397.13-4.527-.811-6.892-1.053-.235-.231-.44-.509-.812-.472-1.181.44-2.199 1.28-3.239 2.092-2.332 2.297-4.701 4.829-5.813 7.87.78.13 1.758.097 2.332.57-1.282.775-2.397 2.095-3.647 2.835-.44 1.756-.372 3.754-.477 5.673-.982 1.49-2.296 2.799-2.935 4.461-2.098 6.773-2.636 14.307-2.332 22-.679.646-1.56 1.053-2.195 1.558l.069 6.881h.166c.303-1.446 2.029-2.254 3.076-3.235h.339c-.17 1.551-.372 3.105-.404 4.692l-1.957 1.619c-1.964 1.724-.307 4.321-.473 6.485.137.566.231 1.414.639 1.551.238-.844.978-1.45 1.455-2.196.841-.198 1.585-.88 2.361-.974-.44 1.688-1.007 3.34-1.69 4.959-.325.213-.704.498-1.029.844-.347.371-.625.786-.697 1.248 1.527 7.996 3.917 15.894 6.65 23.421-1.852 3.141-2.906 6.838-4.452 10.08a17.48 17.48 0 0 0-.607 1.385c-1.552 3.924-2.025 8.313-3.957 12.082-.783-.534-1.628-.949-2.498-1.316-3.654-1.215-7.878-.44-10.542 2.366-2.368-.44-4.802-.036-6.661 1.215-1.332.992-2.361 2.2-2.953 3.607a7.31 7.31 0 0 0-.527 3.213c-1.516 1.042-2.329 2.658-2.834 4.285-.708 3.643.574 7.437 2.668 10.243h168.415z"/><path d="M224.272 178.396c-.036.876-.675 1.861-.101 2.6.812-.912 2.166-.88 3.246-1.28 3.004-.27 5.878.671 8.679 1.352-.704-1.118-1.181-2.359-1.957-3.376-1.56-.404-3.921.674-4.188-1.619-.95-.811-2.441-.231-3.412-.173-.95.682-1.726 1.518-2.267 2.496zm-103.265-29.141c-.014-.014-.036-.029-.051-.032 0 .004 0 .018.007.032zm12.283 29.999l2.029-1.955c.173 0 .303.036.404.173l-.17 3.744c.978.912 2.195 1.215 3.477 1.284.105-1.013.881-1.72 1.321-2.6.372-.707.137-1.756.877-2.265l.231.238c.242 1.111.177 2.362.751 3.34l.231 1.688c1.487.072 2.834-.339 3.986-.876-.069-1.28.375-2.33.57-3.513.31-.408-.372-1.147.477-1.111.473 1.01 1.318 2.056 1.791 3.134 1.957-1.991 2.769-4.588 3.242-7.285-.57-.783-1.451-.783-2.13-1.284-5.741-1.857-13.113-2.232-18.655.638-.357 2.301.116 4.833 1.567 6.651zm-53.694 63.339c-.206 2.604 0 5.042.162 7.606.545.844 1.527 1.825 2.498 1.893l.177-1.724c.401-2.402-.881-4.948.473-6.972.946.303 1.885.775 2.704 1.215.397-2.229-.17-4.826-2.3-6.174zm8.34-3.639c-1.318 3.946-2.3 8.822-.704 12.973.906-.602 1.856-1.179 2.661-2.023-.162-3.177-.603-6.568 1.285-9.2 1.654.509 2.776 2.095 3.412 3.65 1.119-1.425 1.491-3.379 1.051-5.273.069-1.479-1.628-1.14-2.437-1.753.274-1.248.235-2.694 1.556-3.401l-4.054.404c-1.043 1.479-2.192 2.936-2.769 4.624zm8.347 11.653c.173.31 0 .844.339.912.509-2.831 2.805-4.671 4.058-7.166.603-.844.567-2.027 1.549-2.669 1.321 0 2.267.949 3.553 1.05.404.303-.209.57-.238.905-.267 2.301-1.148 4.205-.978 6.564h.231c1.791-1.883 3.007-3.931 4.325-6.092l.231-1.919c.303-2.297-2.195-3.78-3.816-4.725l1.451-1.857-2.025-.71c-2.368.238-4.499 1.215-6.152 3.076-2.054 3.776-2.39 8.043-2.527 12.63zm9.091-20.031c.776.238 1.484-.404 2.257-.065 3.112 1.143 6.358 2.326 8.687 4.927l2.773 7.051 1.386-4.35-.913-2.366c-.776-1.688-2.906-1.551-4.361-1.619-.603-.674.036-1.453.242-2.092.704-2.395-2.235-2.265-3.415-3.235.072-1.453-1.69-.949-2.672-1.086l-.336-.404c-.199-.303-.704-.303-.978-.069-.072-.097-.202-.166-.13-.339l-.751.173c-1.043.912-1.755 2.092-1.787 3.473zm1.957-7.758c.101.436.372.876.708 1.143 1.524-.404 2.971-1.446 4.73-.811 2.267 1.991 4.629 4.083 7.372 5.168l.975-.173c.61.209 1.282.238 1.69.912.375.912-.567 1.453-.877 2.193 1.524 1.114.913 3.109 1.863 4.454l2.433-3.239c-.57-1.421.032-3.848-2.199-3.982-.74-.375-1.249-1.118-1.217-1.962-1.448-1.316-3.239-1.886-4.697-3.235-1.181-.949-1.888-2.402-3.412-2.737-1.043-.57-2.188-.876-3.405-1.143-2.275-.335-2.473 2.359-3.964 3.412zm3.242-6.65l.408.642c1.686-.105 3.213-.844 4.87-.811 1.112.678 2.567.646 3.712 1.215.913 1.248 1.895 2.665 3.239 3.513 2.744.4 4.26 3.34 5.206 5.496v-1.046c.404-1.446-.036-3.138-.578-4.451-.675-.678-1.654-1.122-2.361-1.728-.137-.436-.036-.642.101-1.046-1.051-1.114-2.603-1.724-3.885-2.597-1.791-2.6-5.239-1.89-7.975-2.6zm-.054-24.763l.866 3.477c.946-2.092 2.813-3.03 4.466-4.753-.95-.646-2.127-.949-3.174-1.15v-.061c-.744.739-1.892 1.482-2.159 2.489zm6.137 11.105l1.52-1.551c1.524-1.551 2.773-3.343 3.007-5.334-1.08-.642-2.498-.206-3.545.166-.379 2.2-.946 4.36-.982 6.719zm1.112 4.76c2.336.137 4.596.602 6.492-.703l1.888-6.081c-.603-.036-1.217-.303-1.787-.101-1.246 2.77-3.755 5.5-6.593 6.885zm.686-21.535c1.52 2.232 4.054 4.728 6.658 5.432-.303-2.831-2.733-4.793-3.986-7.22l-.072-.811c-.978-.949-2.163-1.583-3.177-2.095-.162 1.627.278 3.181.578 4.696zm8.239 21.806c1.791.31 3.715 0 5.369-.512 2.405-.566 3.722-3.203 4.531-5.258h-3.007l-3.246 3.17c-1.278.678-2.502 1.695-3.647 2.6zm-.364-24.875c.509 2.633 1.617 5.028 3.145 7.292l.404-5.031zm11.077 13.128c.202-1.688-.502-3.643-.697-5.363-1.018-.678-2.441-.61-3.484-1.28.065 2.665 2.155 4.923 4.181 6.643zm-3.077 17.153c2.13-.678 4.188-1.421 6.145-2.503 1.249-1.782 3.145-3.412 3.412-5.5-1.552.436-2.906-.065-4.354.646-.877 1.583-1.423 3.376-3.109 4.519-.267 1.143-1.52 1.926-2.094 2.838zm3.308 4.151l2.535 3.304c1.354.44 3.044.303 4.224-.472l-.913-3.004c-1.787.682-3.914.472-5.845.173zm4.227-23.904l.978 4.458c2.361-1.926 2.841-4.728 2.784-7.696-1.354 1.551-2.145 2.499-3.762 3.239zm6.654 7.869c.036.638.206 1.248.578 1.756 2.632.941 2.903 4.148 5.34 5.363 1.585.707 3.405-.173 4.795-.811-1.047-1.179-2.235-1.998-3.242-3.242-.711-.303-1.423-.743-1.386-1.619zm2.094 15.931c1.152 1.316 2.704 1.991 4.325 2.359-.267-.371.173 0 .238-.234l-2.033-4.447c-1.011.025-2.058.231-3.004.166.065.736.238 1.475.473 2.157zm3.586-20.796c-.95-2.193-1.347-4.858-1.614-7.285-1.015 1.212-2.062 1.991-3.007 3.235-.44 2.499 3.13 3.112 4.621 4.05zm4.119-2.29c1.217 1.583 3.885 1.042 5.38.57-.715-1.215-3.004-1.922-3.408-3.239-.238-2.326-.704-4.588-1.455-6.715-1.184 2.867-2.61 6.279-.516 9.384zm2.127 7.155c3.383 2.467 6.69 5.331 11.42 4.285.339-.238.913-.206.982-.642-1.39-.88-2.87-1.554-4.293-2.359l-1.617-2.366h-.744c-1.827.61-3.791.84-5.748 1.082zm.072 27.374h.231c2.033-1.619 4.43-2.16 6.827-2.838.646.234.238.945.812 1.219 1.455-.61 3.213-.472 4.697-.981 1.794.072 3.249.105 4.697.88 1.145 1.515 3.311 1.352 4.802 2.359l-.238-2.359c-3.141-3.682-8.044-3.953-12.564-3.881l-.105-.476c-1.08 0-2.293.238-3.307.714-1.451.061-2.838.775-4.228 1.212-.646 1.284-1.152 2.831-1.625 4.151zm2.711-41.483c1.318 1.724 3.275 3.037 5.506 2.6-1.145-1.114-2.466-2.301-2.535-3.884.339-3.004-2.971-3.239-4.592-4.797.534 2.031.473 4.288 1.621 6.081zm-.343 47.459h.394c1.794-1.122 4.397-.274 6.156-1.457.978-.509 1.043.844 1.726 1.215 1.654 1.013 1.856 4.047 4.188 3.343 2.802 1.45 2.094 4.865 2.195 7.361l2.603-1.619c-.238-1.316.502-2.911-.343-4.054-.639-1.446-2.394-1.583-3.239-2.766 1.015-1.724-1.282-2.528-1.758-3.78l.137-.173 3.574.472c1.224.743 1.657 2.095 2.033 3.343 2.805.472 3.48 3.643 4.462 5.67.574-1.385.809-2.871 1.386-4.216.032-1.118-1.455-1.118-2.195-1.619-.209-1.72-.982-3.347-2.498-4.389-3.112-.775-5.845-2.499-9.257-2.499l-2.841.88c-1.556.371-3.21-.101-4.39.974-1.765.133-1.899 2.063-2.332 3.314zm1.784-13.91l.646.303 4.224-1.926c2.26-.642 4.018 1.926 5.914.307.708-.509 1.311.234 1.856.642.812 1.486 2.704 1.385 4.123 1.789-.708-1.922-1.585-4.559-4.054-4.869-.978-.436-2.13-.393-3.076-.974-2.599-2.867-4.289 2.359-7.131 1.078-1.011 1.122-2.26 2.164-2.502 3.65zm.646 16.439c1.08.905 2.192 2.463 3.878 2.258 2.105.981 1.224 3.744 2.372 5.197l1.213-1.082-.101-.065.173-.17.072.101c.336-1.017-.141-2.806-.715-3.985-.776-.534-1.69.036-2.43-.472-.105-1.078-.78-1.619-1.556-2.294-.542-.404-1.253.137-1.859.101zm4.224-41.148c1.116 1.861 3.275 3.008 5 4.288 1.415.646 3.275.808 4.798.472-1.451-1.179-2.773-2.528-3.986-3.953-.473-.674-.578-1.515-1.217-2.124-1.596.307-3.379.274-4.596 1.316zm1.863-12.078c1.56 1.919 3.957 1.147 6.152 1.212v-.231l-3.379-2.842c-.95.307-1.957 1.147-2.773 1.861zm-62.2-31.832l1.957 6.077c-.036-3.444 1.552-6.312 1.217-9.821l1.455-2.164-3.08.945c-.809 1.551-1.48 3.109-1.549 4.963zm1.318-10.531l2.664-1.554v-3.949c-1.116.678-1.729 1.825-2.599 2.737z"/><path d="M165.321 147.499c-.646.844-1.621 1.046-2.43 1.215 1.415-2.6 2.094-6.218.975-9.153.747-.267 1.56-.397 2.267-.808l-.072-.065 1.863-1.627c2.466-1.688 1.52-4.891 2.433-7.285-1.217-1.893-1.585-4.187-3.347-5.778l.105-.061c-1.39-1.756-3.888-1.558-5.787-2.434-2.498-.844-4.423.876-6.214 2.031-.776.13-.303 1.143-1.148 1.111l-1.386 3.982c-3.347-.476-6.957-.097-9.629 1.789-1.423-1.042-3.145-1.248-4.802-1.72-1.213-.234-2.599.206-3.473-.476-1.282-1.446-1.56-4.083-3.758-4.451-.773-.27-.939-1.111-.939-1.857-1.455-.234-2.744-.905-4.163-1.215-2.155-.981-3.878.577-5.502 1.619-.708.307-1.52.404-2.192.815-1.217 1.886-2.368 3.812-3.145 5.9.238 1.72.978 3.242 1.863 4.692.776 2.196 3.206 3.917 5.268 4.797-.978 3.34-.978 7.325 0 10.701 0 0-.058.04-.058.032 0 .007-.108.094-.108.094-.325 0-.668.065-.935-.094h-.043c.473 3.224 1.993 6.045 4.448 8.465.881.31.679 1.352 1.054 2.031.231.299.264.941.162 1.212-5.264-.17-9.965 1.147-14.189 3.542-1.08.541-.603 2.031-.704 3.073 2.971-1.955 6.181-3.408 9.726-4.047 1.52-.101 3.242-.472 4.697-.069l.17 2.903c-4.018 2.092-8.412 3.307-11.86 6.752.069 1.042-.13 2.261.173 3.141l3.076-2.503c2.968-2.254 6.076-4.184 9.492-5.432.913 1.082 1.863 2.229 3.08 2.9 2.058-1.316 4.289-2.29 6.654-2.9 1.253-.743 3.239-.069 4.051-1.551l.578-3.073c-.105-.069-.166-.198-.339-.162-1.585-.912-2.632-2.496-2.498-4.357-.538.267-1.145.44-1.791.472-.542-.137-1.043-.267-1.282-.811-.036-.678-.375-1.688.3-2.193 2.195-1.352 5.037-1.421 7.809-1.212 2.058.267 5.037.162 5.741 2.6-.094.707-.032 1.482-.74 1.955-.744.404-1.585-.036-2.267-.335-.534 1.652-1.448 3.513-3.311 4.047l.242 1.962c.231.88.3 2.326 1.69 2.023 3.21.775 6.044 2.431 8.849 4.22.946-.949 1.69-2.031 2.361-3.004 5 1.684 9.329 5.432 13.449 8.908l.173-2.835c-3.921-3.477-8.282-5.94-12.81-7.866.173-.912.375-1.792.404-2.766 5.376.299 10.47 1.955 14.904 4.559l-.072-2.431c-4.661-2.496-9.763-4.151-15.341-4.22-.202-.31-.267-.743-.231-1.05 2.704-.44 4.625-3.239 5.275-5.673 1.379-1.583 3.379-3.307 2.906-5.666l.199-.602c.181-.595.332-1.212.13-1.76zm4.701 8.673l2.769-.88.3-1.551c.783-2.261-.87-3.949-1.69-5.742zm6.986 10.701c1.318 1.446 2.603 3.78 4.939 3.066-.173-.974-.715-1.782-1.051-2.662-.614-.714-.812-2.737-2.029-2.023-.913-.61-1.145-1.627-1.726-2.434-.264 1.248-.097 2.802-.134 4.054zm.477 9.882c.509.714.646 1.627 1.145 2.265.913.602 2.267.509 3.379.404 1.015-.234 1.657.876 2.603.231-1.177-.739-1.885-2.092-3.007-3.066-1.321-1.046-2.733-.133-4.119.166zm1.79 15.699c2.329 1.385 5.296 2.737 8.405 2.265.336-.173.913-.137.978-.545-1.924-.678-3.946-2.6-5.968-3.004-1.119-1.72-2.571.44-3.99.303.032.408.437.714.574.981zm7.023 29.802l.509 1.086c.509 3.513 2.733 6.748 1.516 10.596 1.015.707 1.321 1.886 1.96 2.831h.17c.776-2.932.238-5.972-.17-8.912.303-2.665-2.401-4.22-3.986-5.601zm.581-34.562c1.758 1.352 4.564 1.486 6.585.811-1.282-.707-2.697-1.482-3.751-2.431zm8.336 10.365c-.173 1.421.776 2.6 1.791 3.307.372-.844.978-1.551 1.043-2.496-.3-1.453-1.112-2.766-2.43-3.744-.238.941-.505 1.847-.404 2.932zm.105 15.386c-.238 1.583 1.516 1.792 2.26 2.669.61.739-.404 1.248-.404 1.955 1.282 1.652 2.025 3.545 2.025 5.742.509-2.056 1.285-4.021 1.563-6.146-.137-1.482-2.498-1.179-2.13-2.831.672-1.688-.137-3.343-.578-4.858-.137-.242-.44-.714-.704-.577-.621 1.385-2.137 2.359-2.033 4.047zm4.629-8.032l1.755 3.408c.78-.094 1.278-.844 1.888-1.378.477-1.421-.776-2.333-1.145-3.48-.31-.811 0-1.89-.578-2.6-.437-.267-.95-.707-1.455-.577zm2.26-8.973c1.386.84 2.971 2.056 3.712 3.538 1.188 3.444 3.08 6.55 4.462 9.889.509 2.33.913 4.407 1.556 6.705.238.599.101 1.782 1.051 1.684.267-2.564.776-5.028.809-7.696-.841-1.111-1.964-1.583-3.007-2.265v-.231c.137-.577.61-1.251 1.321-1.143.3-.346 1.213-.678.812-1.284-1.758-1.753-1.657-4.779-4.466-5.323-.975-.404-1.217-1.414-1.311-2.359-1.321-1.107-3.285-1.49-4.939-1.515zm1.617 18.292c1.726 1.58 1.123 3.877.982 6.005-.267 1.284 1.354.541 1.863 1.215 1.043 1.554.437 3.816.061 5.504.917-1.389 1.964-2.604 2.672-4.119-.036-.577.704-.844.679-1.551.3-.981-.845-.541-1.318-.649-.404-.101-.845-.371-.715-.909.881-1.691.072-3.715-.267-5.399-.404-1.389.173-3.239-.473-4.454-1.08 1.486-4.293 1.825-3.484 4.357zm3.145-23.969c3.011 3.04 5.206 6.092 8.448 9.031.072-1.309-.101-2.532-.17-3.816-.477-.905-1.354-1.583-2.098-2.258-2.394-.238-3.647-3.462-6.181-2.957zm7.874 16.089c.069.303.206.57.336.876 1.318 2.164 2.567 4.386 3.484 6.715-.271-2.492 1.423-5.605-.812-7.523-.303-.811-1.318-.541-1.96-.476zm8.109 24.658c.95.429 2.163-.346 3.076-.88.845-.206 1.556.267 2.199.707.267.537 0 1.042.094 1.551 2.033.573 4.022 1.316 5.816 2.496l.567-.57c.137-1.453-1.007-2.492-2.09-3.304-.708-.415-1.762-.173-2.26-.819.336-.534.336-1.345.3-1.955-1.119 0-1.827-.339-2.74-.88-.567-.166-1.08-.638-1.552 0-1.686 1.15-1.787 2.835-3.408 3.653zm2.369-42.478c.841-.231 1.726-.476 2.433-1.078 2.257-2.059 5.538-.678 8.17-.71-.502-.912-1.217-1.818-1.856-2.6-.946-.371-1.827-.811-2.906-.811-2.3-1.345-3.849.912-5.611 2.023-.469.92-.704 2.265-.231 3.177zm.065 6.946c0-.094 0-.202.101-.231.303.27-.036.909.473 1.042.877-.433 1.69-1.042 2.498-1.612 2.267 0 3.618-2.193 5.842-2.193 3.715.671 7.405 1.414 10.644 3.235-.231-2.193-2.127-4.184-4.047-5.168-1.087-.371-1.932.209-2.708.811-2.267 1.425-1.08-2.056-2.668-2.128-2.062.649-4.192 1.352-6.484 1.154-1.354.501-2.303 1.746-3.82 1.616-.069 1.114-.238 2.467.17 3.473zm1.556 7.534c.704.739 1.885.602 2.906.739l2.935-1.143c.036-.541-.877-.682-.679-1.28.812-.912 1.932-.274 2.939-.649 1.426-.198 2.877-1.616 4.289-.57-.032.166.072.408-.061.57-.448 1.05.303 1.688 1.112 2.092 1.657.31 3.21 1.829 4.867 1.147-.166-1.381-.538-2.662-.881-3.982-1.383-.238-2.361-1.385-3.647-1.861-.578.541-1.318.949-2.029.88-2.603-.606-5.712-2.225-8.344-.57-.95 1.143-2.639.808-3.921 1.309.072 1.158.202 2.269.513 3.318z"/><path d="M228.056 223.572c-.206.573-.776 1.522.267 1.789 2.166.072 4.935-1.042 6.629.642.57.444.3 1.349.267 1.926l2.834 2.366c.274-1.421.776-2.705.812-4.227-.231-1.078-.776-2.128-1.719-2.835-1.863 0-2.946-2.175-4.939-1.897-1.043-.242-1.953.685-3.007.685-.473.472-.74 1.05-1.145 1.551zm.812-15.909c.437.905.95 2.395 1.791 2.496 1.993-.876 4.896-1.421 7.131-.472.744.133.744.977.578 1.522 1.145.674 2.535 1.208 3.748 1.955l-.336-2.023c-.072-2.196-2.841-2.402-3.011-4.566-2.264-.739-4.798-.974-7.196-.4-.783.71-1.892.61-2.841.815-.061.267.101.433.137.674zm.578 10.936c1.318-.371 2.155-1.825 3.578-1.955 2.163.036 4.091.905 5.437 2.766.82.537.646 1.926 1.69 1.926-.303-1.659.238-3.177.173-4.865-1.426-2.359-4.928-.541-6.25-3.307l-2.498.166c-1.791.44-1.314 2.535-1.56 3.953-.202.44-.607.775-.57 1.316zm12.391 14.761c1.051 2.092 3.354 3.682 3.585 6.081.542-.646.913-1.385 1.285-2.092-.036-.678-.816-.678-1.123-1.215-.303-.876.173-1.652.307-2.434-.437-1.251-1.487-2.431-2.668-3.17zm4.166-5.33l2.43 3.307c1.043-1.655 1.043-4.083.639-6.081-.231-.371-.675-.977-1.282-.707-.917.949-1.047 2.395-1.787 3.48zm-9.907-92.39c.881.44 1.726.844 2.769.909.715-.368 1.628-.638 2.506-.404 1.249.811 2.769-.17 4.217-.101-1.278-1.212-2.737-1.955-4.217-2.662-1.895.4-3.412 1.746-5.275 2.258zm13.218 3.174c1.784.166 3.069 1.749 4.286 3.076 1.524.231 2.672 1.309 3.582 2.427l-.574-1.792c-.404-1.792-1.52-3.177-2.664-4.588-1.621.101-3.217.234-4.629.876z"/></g><path d="M123.217 124.002l.978.101c2.639 1.316 6.896 1.991 7.131 5.803-2.661 1.05-5.231 2.471-7.358 4.624-1.621-1.655-4.903-.743-5.441-3.643.509-2.734 1.484-6.171 4.69-6.885zm2.541 17.117c3.069-.267 6.044.162 9.225-.101.776.335 1.585 1.013 1.957 1.789-.101 3.643-1.217 7.123-1.386 10.867-1.383.581-2.737 1.724-3.072 3.242-1.253.368-2.368 1.118-3.585 1.684-.542-1.143-.44-2.867.513-3.809 1.314-1.861 4.73-1.421 4.452-4.357.881-1.421.036-3.242.072-4.728-.339-1.111-.675.371-1.217.335-1.08.231-2.195.303-3.137-.231-.715-.75-1.592-1.352-1.794-2.366-.946-.472-2.058-1.215-2.531-2.196zm3.715 22.007c1.444.198 2.971-.44 4.221.267-.271.472-.978.674-1.552.811l-2.264 1.05c-.845-.209-.372-1.558-.404-2.128zm5.914-28.189c1.448-.472 3.007-1.446 4.56-.974-1.116 1.114-1.993 2.564-2.834 3.91l-4.629-.097c.498-1.212 1.78-2.225 2.903-2.838zm13.55-1.111c1.921-.335 1.82 2.16 3.578 2.265.307.404.747.772.574 1.378-1.015.404-2.498.206-3.654.472-1.52-.844-.534-3.477-2.939-3.307-.13-.198-.404-.606-.065-.743.747-.263 1.719-.166 2.506-.065zm-1.217 9.049c.841-1.187 2.13-1.28 3.343-1.522l8.752.17c.372.335-.336.638-.336 1.046-.542.505-1.321.642-1.794 1.118-1.145.036-1.051 1.378-1.859 1.955-1.253 1.248-3.072.678-4.527.472-.509-.371-1.08-.88-1.318-1.453l-.404.404c.509 1.893.372 3.989.74 5.908l2.094 1.389c.036 3.105 3.686 2.261 5.275 3.985-.372 1.111-1.116 2.056-1.921 3.004-1.285-1.251-2.74-2.067-4.293-2.6-.134-1.825-2.127-2.9-3.246-3.816l-.906-9.889zm3.174 20.821h4.058l-.509 2.128-4.058-1.724c-.094-.335.271-.436.509-.404zm7.297-38.237l3.007-.949c1.726.808 3.347 1.825 4.932 2.968 1.253 2.301 1.043 5.399.473 7.963-.913 1.017-2.906 0-3.647 1.619h-.137c-1.119-3.17-4.289-6.001-7.232-7.458.473-1.616.982-3.199 2.603-4.144z" fill="#f60" class="B"/><path d="M228.662 254.051h18.027c2.668-.404 5.506-.339 7.632-2.301 9.026 1.389 18.178-.84 25.273-5.799 3.744-3.022 7.109-6.513 9.828-10.326 2.397-3.361 4.293-6.503 5.517-10.264a48.12 48.12 0 0 0 2.177-7.224c2.574-11.696 1.224-24.777-2.581-35.914a66.05 66.05 0 0 0-2.368-5.969c-4.759-9.824-11.228-20.42-21.208-26.638-5.621-3.502-10.788-8.919-13.961-14.516-1.726-1.558-3.383-3.614-5.611-3.985.61 1.013 1.282 1.991 1.455 3.17l-.137.17c-2.361.069-4.224-1.179-5.845-2.705l1.794-1.616c-.679-.335-1.455-.476-2.199-.638-6.827-.775-12.434 2.359-18.478 3.881l-.101.335c3.712 1.652 4.488 5.734 6.654 8.508.542-.646 1.455-.173 2.195-.242 1.08.069 2.094.844 3.137.573.036-.909-.466-1.616-.639-2.424.639-.31 1.423-.036 2.13 0 1.957 1.143 5.102-.209 6.318 2.424-2.231.141-4.325.606-6.419 1.114.134.844.978 1.522.913 2.366-1.794-.75-3.683-1.212-5.679-1.453l-.094.299c2.535 2.972 6.008 4.728 9.557 5.778 5.102 1.179 9.593-1.248 14.521-.404 12.106 5.536 22.439 18.199 26.937 30.216.22.577.43 1.161.632 1.749 3.766 10.975 4.477 24.474.708 35.914-2.007 4.768-4.217 9.254-7.759 13.132-1.339 1.641-2.823 3.109-4.434 4.357-5.073 3.946-11.326 5.68-17.767 3.91-.401-.263-1.22-.335-1.087-1.042a58.3 58.3 0 0 0 .621-2.867c1.072-5.493 1.56-11.263 1.278-17.027-.014-.249-.018-.498-.029-.743-.354-8.374-2.025-15.909-5.109-23.151-1.971-4.158-4.322-8.692-7.279-12.764-3.527-4.854-7.91-9.049-13.535-11.141-3.448-.912-7.708-1.078-10.304 1.792-1.863 1.619-2.636 3.812-2.368 6.207-2.906 1.847-6.174 2.842-9.73 3.141-.87.076-1.765.39-2.664.386-.863.04-1.704 0-2.516-.105-4.289-.527-8.614-2.824-11.904-5.468l-.238-5.258c-1.888-.981-3.441-2.842-3.578-5.031l.173-.17c1.08.335 2.025.876 3 1.453-.44-2.633-.942-5.233-2.26-7.527-1.217-.509-2.441-.909-3.585-1.522-1.318-.876-2.163-2.463-2.358-3.917 1.177 1.154 3.239.747 4.152 1.962-1.585-4.692-1.621-10.059-4.224-14.347-1.318-3.174-4.766-4.624-7.131-6.957-.913-1.111-1.282-2.662-2.939-2.835-1.35-.335-1.455-1.857-1.69-2.831.845.097 1.552.674 2.267.808-1.964-5.201-3.686-10.968-8.99-14.275l-.913.57c-2.058.31-4.257.44-6.318.509.913-1.352 2.535-1.922 3.82-2.535-1.491-1.111-2.711-1.381-4.574-1.688-1.08 1.086-3.029 1.619-4.416 1.922l-.166-.13c-.036-1.212-.318-2.705 1.509-3.004-1.755-.844-4.661-.509-6.455 0-.509 1.316-1.95 2.496-1.856 4.047-1.04 1.086-1.784 2.532-2.87 3.311-.029-2.6 1.072-4.999 1.549-7.188-1.52.57-3.065 1.378-4.549 2.092-2.401-1.385-4.928-2.77-7.492-3.812-.238-.105-.747-.206-.646.231 2.195 1.587 1.347 4.555 1.581 6.82l-1.386-1.143c-.675-1.724-2.628-2.972-2.961-4.865-2.3.44-3.769 1.05-5.899 1.962l-.296.166c1.585 0 2.935 1.248 3.715 2.496-2.397.137-4.527-.811-6.889-1.042-.238-.238-.437-.509-.816-.472-1.184.44-2.192 1.284-3.242 2.095-2.329 2.29-4.697 4.829-5.809 7.862.78.137 1.758.105 2.332.577-1.278.775-2.397 2.092-3.65 2.835-.437 1.756-.372 3.747-.473 5.673-.978 1.482-2.296 2.799-2.939 4.451-2.094 6.784-2.636 14.311-2.329 22.007-.679.638-1.56 1.053-2.195 1.554l.069 6.885h.166c.31-1.453 2.033-2.261 3.076-3.239h.339c-.166 1.551-.372 3.102-.404 4.692l-1.96 1.619c-1.953 1.72-.3 4.313-.473 6.474.141.577.235 1.421.65 1.558.231-.844.975-1.453 1.444-2.193.845-.209 1.585-.88 2.361-.981-.43 1.684-1.007 3.34-1.69 4.959-.321.213-.704.505-1.029.844-.343.371-.617.797-.682 1.255 1.516 7.999 3.906 15.894 6.647 23.421-1.863 3.134-2.914 6.834-4.462 10.077a20.6 20.6 0 0 0-.607 1.385c-1.552 3.928-2.025 8.31-3.957 12.086-.776-.545-1.617-.949-2.495-1.32-3.657-1.212-7.878-.436-10.542 2.362-2.368-.44-4.802-.036-6.665 1.212-1.329 1.003-2.361 2.207-2.95 3.617a7.32 7.32 0 0 0-.524 3.206c-1.524 1.046-2.336 2.665-2.838 4.285-.711 3.65.57 7.44 2.664 10.243h150.395z" fill="#fff" class="B"/><path d="M294.534 182.226l-2.368-5.969c-4.759-9.824-11.228-20.42-21.208-26.638-5.621-3.502-10.788-8.919-13.961-14.516-1.726-1.558-3.383-3.614-5.611-3.985.61 1.013 1.282 1.991 1.455 3.17l-.137.17c-2.361.069-4.224-1.179-5.845-2.705l1.794-1.616c-.679-.335-1.455-.476-2.199-.638-6.827-.775-12.434 2.359-18.478 3.881l-.101.335c3.712 1.652 4.488 5.734 6.654 8.508.542-.646 1.455-.173 2.195-.242 1.08.069 2.094.844 3.137.573.036-.909-.466-1.616-.639-2.424.639-.31 1.423-.036 2.13 0 1.957 1.143 5.102-.209 6.318 2.424-2.231.141-4.325.606-6.419 1.114.134.844.978 1.522.913 2.366-1.794-.75-3.683-1.212-5.679-1.453l-.094.299c2.535 2.972 6.008 4.728 9.557 5.778 5.102 1.179 9.593-1.248 14.521-.404 12.106 5.536 22.439 18.199 26.937 30.216.22.577.43 1.161.632 1.749 3.766 10.975 4.477 24.474.708 35.914-2.007 4.768-4.217 9.254-7.759 13.132-1.339 1.641-2.823 3.109-4.434 4.357-5.073 3.946-11.326 5.68-17.767 3.91-.401-.263-1.22-.335-1.087-1.042a58.3 58.3 0 0 0 .621-2.867c1.072-5.493 1.56-11.263 1.278-17.027-.014-.249-.018-.498-.029-.743-.354-8.374-2.025-15.909-5.109-23.151-1.971-4.158-4.322-8.692-7.279-12.764-3.527-4.854-7.91-9.049-13.535-11.141-3.448-.912-7.708-1.078-10.304 1.792-1.863 1.619-2.636 3.812-2.368 6.207-2.906 1.847-6.174 2.842-9.73 3.141-.87.076-1.765.39-2.664.386-.863.04-1.704 0-2.516-.105-4.289-.527-8.614-2.824-11.904-5.468l-.238-5.258c-1.888-.981-3.441-2.842-3.578-5.031l.173-.17c1.08.335 2.025.876 3 1.453-.44-2.633-.942-5.233-2.26-7.527-1.217-.509-2.441-.909-3.585-1.522-1.318-.876-2.163-2.463-2.358-3.917 1.177 1.154 3.239.747 4.152 1.962-1.585-4.692-1.621-10.059-4.224-14.347-1.318-3.174-4.766-4.624-7.131-6.957-.913-1.111-1.282-2.662-2.939-2.835-1.35-.335-1.455-1.857-1.69-2.831.845.097 1.552.674 2.267.808-1.964-5.201-3.686-10.968-8.99-14.275l-.913.57c-2.058.31-4.257.44-6.318.509.913-1.352 2.535-1.922 3.82-2.535-1.491-1.111-2.711-1.381-4.574-1.688-1.08 1.086-3.029 1.619-4.416 1.922l-.166-.13c-.036-1.212-.318-2.705 1.509-3.004-1.755-.844-4.661-.509-6.455 0-.509 1.316-1.95 2.496-1.856 4.047-1.04 1.086-1.784 2.532-2.87 3.311-.029-2.6 1.072-4.999 1.549-7.188-1.52.57-3.065 1.378-4.549 2.092-2.401-1.385-4.928-2.77-7.492-3.812-.238-.105-.747-.206-.646.231 2.195 1.587 1.347 4.555 1.581 6.82l-1.386-1.143c-.675-1.724-2.628-2.972-2.961-4.865-2.3.44-3.769 1.05-5.899 1.962l-.296.166c1.585 0 2.935 1.248 3.715 2.496-2.397.137-4.527-.811-6.889-1.042-.238-.238-.437-.509-.816-.472-1.184.44-2.192 1.284-3.242 2.095-2.329 2.29-4.697 4.829-5.809 7.862.78.137 1.758.105 2.332.577-1.278.775-2.397 2.092-3.65 2.835-.437 1.756-.372 3.747-.473 5.673-.978 1.482-2.296 2.799-2.939 4.451-2.094 6.784-2.636 14.311-2.329 22.007-.679.638-1.56 1.053-2.195 1.554l.069 6.885h.166c.31-1.453 2.033-2.261 3.076-3.239h.339c-.166 1.551-.372 3.102-.404 4.692l-1.96 1.619c-1.953 1.72-.3 4.313-.473 6.474.141.577.235 1.421.65 1.558.231-.844.975-1.453 1.444-2.193.845-.209 1.585-.88 2.361-.981-.43 1.684-1.007 3.34-1.69 4.959-.321.213-.704.505-1.029.844-.343.371-.617.797-.682 1.255 1.516 7.999 3.906 15.894 6.647 23.421-1.863 3.134-2.914 6.834-4.462 10.077a20.6 20.6 0 0 0-.607 1.385c-1.552 3.928-2.025 8.31-3.957 12.086-.776-.545-1.617-.949-2.495-1.32-3.657-1.212-7.878-.436-10.542 2.362-2.368-.44-4.802-.036-6.665 1.212-1.329 1.003-2.361 2.207-2.95 3.617a7.32 7.32 0 0 0-.524 3.206c-1.524 1.046-2.336 2.665-2.838 4.285-.711 3.65.57 7.44 2.664 10.243h59.705c-.877-1.042-1.69-2.496-2.303-3.744-1.278-1.93-.401-4.66-.538-6.889 1.217-2.452 2.451-4.919 3.841-7.318l.852-1.425 2.74-1.046c1.451 0 2.672-1.046 4.054-.678 1.859 1.861 1.859-1.854 3.654-2.023 4.188-.541 8.344-.137 10.705 3.408 0 .472.751.472.578.912-.542.162-1.051-.173-1.621-.173-2.567-.638-5.578-2.265-8.109-.811-.097.606-.227 1.223-.35 1.829-.126.646-.242 1.277-.296 1.883 1.654.472 3.04 1.655 4.289 2.936.845-1.652 2.636-2.395 4.224-2.936 1.386.303 2.906.339 4.058 1.215 2.13 1.962 1.08 5.302.881 7.797 1.921 1.078 4.051 1.691 6.008 2.734-.913.819-2.123 1.15-3.239 1.558l-3.242-.646c-.372-.267-1.018-.267-1.152-.739-1.08 1.143-2.397 2.665-3.072 4.148h46.286c-.61-1.385-1.318-2.463-2.163-3.744-.95-2.027-.57-4.797-.675-6.957l4.325-6.582c2.361-.032 5.037-.912 7.6-.472a2.82 2.82 0 0 0 .372-.198c1.065-.736 1.39-2.445 2.975-2.232 2.834-.772 5 .512 7.131 1.792a3.34 3.34 0 0 1-.217.44c-.892 1.425-2.56-.166-3.776.263-.509.541.238 1.179.336 1.792.44.602-.44.534-.74.638-.708.101-1.484-.069-2.029-.638-.134-.173-.032-.371-.3-.404-.614 1.006-1.491 1.922-1.726 3.069.773.747 1.82 1.486 2.195 2.434.776 1.114-.61 1.955-.877 2.936-.101.198-.412.198-.509 0-.715-.404-1.318-1.421-2.098-1.154-.679 3.008.235 6.012-.17 9.016 1.318.31 2.87-.069 4.289 0l.578-6.348c.603-4.115 3.044-7.559 5.914-10.704 3.101-2.117 5.102 2.067 7.394 3.516.375.069.242.472.404.707-.032.678-.74.945-1.213 1.15-1.423.501-2.47-1.05-3.347-1.962-.841.912-1.217 2.124-2.195 2.838l.336.097c1.123 1.118 2.195 2.297 2.441 3.783-.137 1.345-.812 2.662-2.033 3.343-.906-1.558-1.654-3.278-2.257-4.865.032.072-.04.101-.105.173-1.863.501-2.358 2.593-2.668 4.285.101 1.655-1.148 2.33-.816 3.982h24.096c2.668-.404 5.506-.339 7.632-2.301 9.026 1.389 18.178-.84 25.273-5.799 3.744-3.022 7.109-6.513 9.828-10.326 2.397-3.361 4.293-6.503 5.517-10.264a48.12 48.12 0 0 0 2.177-7.224c2.571-11.685 1.22-24.766-2.585-35.9zm-155.053 62.646c1.318-.844 3.448-1.05 3.748-3.004-.534-.408-1.011-.916-1.621-1.05l-1.386.404c.101-.811.542-1.72.82-2.597l4.455-1.45c-.614 2.023-.845 4.555-1.051 6.885.404 3.444.913 7.123 2.672 9.99h-4.802c-.538-3.17-3.856-5.471-2.834-9.179zm10.377-4.053h.267l3.239 2.939.473-.101c-.264 3.444-.437 6.82-.473 10.394h-3.509c-.715-3.34-1.895-6.852-1.758-10.459.607-.912 1.011-2.063 1.762-2.773zm7.224 3.246c.646-.84.913-2.265 2.195-2.427.913.025 1.758.162 2.441.808 1.181 1.482.025 3.379-.404 4.862-.477 2.261-1.293 4.62-2.033 6.748h-3.412zm51.257-1.05c.744.949.978 2.229 2.094 3.073.982-1.349 1.217-3.444.744-5.165l-.978-.981c1.253-.299 2.567-.404 3.82-.638-.542 1.789-1.563 3.408-1.386 5.5.032 3.04.538 6.081.809 9.247h-3.715c-1.35-2.972-2.704-5.803-2.603-9.247.404-.61.675-1.32 1.217-1.789z" fill="#f60" class="B"/><g fill="#fff" class="B"><path d="M224.323 178.165c-.036.876-.675 1.85-.105 2.6.82-.912 2.166-.88 3.249-1.284 3.007-.274 5.878.674 8.679 1.352-.708-1.118-1.181-2.366-1.96-3.376-1.556-.408-3.921.674-4.188-1.627-.946-.808-2.43-.231-3.412-.166-.95.674-1.722 1.518-2.264 2.499zm-103.269-29.148c-.014-.007-.029-.022-.051-.036 0 .014.007.022.007.036zm12.286 30.007l2.029-1.955c.173 0 .307.032.404.162l-.166 3.747c.978.912 2.188 1.212 3.473 1.284.105-1.01.881-1.724 1.321-2.6.372-.707.137-1.753.877-2.254l.238.231c.231 1.118.166 2.366.744 3.34l.227 1.688c1.491.069 2.845-.335 3.99-.88-.069-1.28.375-2.326.57-3.502.31-.408-.372-1.154.473-1.118.477 1.013 1.318 2.056 1.794 3.141 1.957-1.991 2.776-4.588 3.239-7.292-.57-.772-1.448-.772-2.13-1.28-5.741-1.854-13.102-2.225-18.644.642-.372 2.287.101 4.818 1.56 6.647zm-53.701 63.338c-.206 2.6 0 5.038.166 7.606.542.844 1.527 1.825 2.506 1.886l.166-1.724c.404-2.395-.877-4.937.477-6.964.946.299 1.892.775 2.704 1.212.404-2.225-.173-4.829-2.303-6.182zm8.347-3.65c-1.318 3.953-2.296 8.818-.708 12.98.913-.613 1.856-1.187 2.664-2.027-.166-3.177-.607-6.56 1.285-9.2 1.654.509 2.773 2.095 3.408 3.643 1.123-1.414 1.491-3.376 1.054-5.258.069-1.49-1.621-1.147-2.433-1.756.267-1.251.231-2.694 1.552-3.408l-4.051.404c-1.047 1.49-2.195 2.932-2.773 4.624zm8.347 11.664c.17.299 0 .844.343.912.502-2.838 2.798-4.674 4.054-7.177.603-.833.574-2.023 1.552-2.662 1.314 0 2.264.945 3.549 1.046.404.307-.209.577-.242.912-.267 2.301-1.145 4.198-.978 6.564h.235c1.791-1.893 3.007-3.931 4.325-6.092l.231-1.919c.31-2.297-2.188-3.78-3.82-4.728l1.455-1.861-2.029-.707c-2.365.234-4.495 1.215-6.149 3.076-2.058 3.772-2.394 8.043-2.527 12.634zm9.091-20.031c.773.231 1.484-.404 2.257-.072 3.112 1.15 6.354 2.33 8.687 4.927l2.773 7.058 1.386-4.36-.913-2.355c-.78-1.688-2.906-1.551-4.361-1.619-.607-.678.032-1.453.238-2.092.708-2.398-2.231-2.265-3.412-3.242.069-1.446-1.69-.949-2.672-1.078l-.336-.404c-.202-.31-.708-.31-.982-.072-.061-.101-.199-.17-.13-.335l-.74.166c-1.054.912-1.762 2.092-1.794 3.48zm1.954-7.765c.105.433.372.873.708 1.147 1.524-.404 2.982-1.457 4.733-.811 2.267 1.991 4.629 4.083 7.369 5.161l.982-.166c.603.198 1.278.231 1.682.912.375.912-.57 1.446-.87 2.189 1.516 1.118.913 3.105 1.856 4.454l2.43-3.235c-.567-1.421.036-3.848-2.188-3.985-.751-.371-1.253-1.111-1.224-1.955-1.448-1.316-3.239-1.89-4.69-3.242-1.191-.941-1.895-2.391-3.412-2.73-1.051-.577-2.199-.88-3.412-1.143-2.271-.346-2.473 2.355-3.964 3.405zm3.249-6.65l.404.649c1.69-.105 3.206-.844 4.863-.815 1.112.674 2.567.638 3.715 1.215.913 1.251 1.895 2.662 3.239 3.506 2.74.404 4.257 3.351 5.203 5.504v-1.042c.404-1.453-.036-3.145-.567-4.461-.679-.674-1.664-1.111-2.368-1.713-.137-.44-.036-.649.101-1.05-1.051-1.114-2.603-1.724-3.888-2.604-1.791-2.6-5.231-1.883-7.972-2.6zm-.058-24.759l.87 3.48c.942-2.092 2.809-3.04 4.462-4.757-.95-.642-2.13-.949-3.174-1.147v-.069c-.747.736-1.895 1.482-2.159 2.492zm6.138 11.108l1.516-1.551c1.524-1.558 2.78-3.351 3.007-5.338-1.08-.638-2.498-.198-3.542.173-.372 2.186-.95 4.346-.982 6.715zm1.112 4.76c2.332.13 4.6.602 6.492-.714l1.895-6.073c-.614-.036-1.224-.31-1.794-.101-1.249 2.763-3.748 5.5-6.593 6.889zm.686-21.534c1.52 2.225 4.058 4.717 6.654 5.432-.3-2.838-2.733-4.797-3.986-7.22l-.069-.811c-.978-.945-2.163-1.59-3.177-2.092-.162 1.619.278 3.167.578 4.692zm8.235 21.801c1.791.303 3.719 0 5.372-.509 2.397-.577 3.719-3.206 4.527-5.262h-3.007l-3.239 3.17c-1.282.671-2.498 1.684-3.654 2.6zm-.364-24.874c.509 2.636 1.628 5.031 3.148 7.292l.401-5.031zm11.076 13.128c.206-1.688-.502-3.65-.7-5.363-1.015-.678-2.43-.613-3.48-1.28.069 2.658 2.155 4.923 4.181 6.643zm-3.072 17.145c2.127-.674 4.188-1.417 6.152-2.496 1.249-1.792 3.137-3.408 3.412-5.5-1.563.436-2.906-.072-4.361.642-.877 1.583-1.423 3.379-3.109 4.523-.271 1.14-1.52 1.919-2.094 2.831zm3.307 4.152l2.535 3.307c1.354.436 3.044.307 4.224-.469l-.906-3.001c-1.794.667-3.925.472-5.852.162zm4.224-23.894l.978 4.451c2.365-1.919 2.852-4.721 2.784-7.689-1.35 1.551-2.134 2.496-3.762 3.239zm6.662 7.859c.032.646.199 1.251.567 1.756 2.636.949 2.906 4.148 5.343 5.363 1.581.714 3.412-.166 4.791-.811-1.043-1.179-2.224-1.991-3.239-3.235-.708-.303-1.426-.743-1.386-1.619zm2.094 15.937c1.145 1.309 2.697 1.991 4.318 2.355-.267-.368.173 0 .238-.231l-2.029-4.458c-1.015.036-2.065.242-3.007.173.076.743.238 1.482.48 2.16zm3.581-20.792c-.95-2.193-1.339-4.865-1.617-7.289-1.007 1.215-2.058 1.994-3.007 3.235-.44 2.496 3.137 3.105 4.625 4.054zm4.116-2.301c1.224 1.594 3.888 1.053 5.376.577-.711-1.215-3-1.93-3.405-3.235-.231-2.33-.708-4.598-1.455-6.715-1.181 2.864-2.61 6.275-.516 9.373zm2.13 7.156c3.379 2.463 6.694 5.334 11.416 4.285.339-.231.917-.206.982-.638-1.386-.876-2.87-1.558-4.289-2.366l-1.617-2.359h-.744c-1.827.602-3.784.848-5.748 1.078zm.069 27.374h.242c2.025-1.619 4.423-2.164 6.82-2.835.646.238.238.949.816 1.215 1.451-.602 3.21-.472 4.694-.977 1.791.065 3.246.097 4.697.873 1.155 1.522 3.311 1.349 4.802 2.366l-.242-2.366c-3.137-3.679-8.037-3.946-12.564-3.877l-.101-.472c-1.08 0-2.296.231-3.311.707-1.448.069-2.838.775-4.224 1.212-.646 1.284-1.155 2.846-1.628 4.155zm2.715-41.48c1.314 1.724 3.275 3.044 5.506 2.604-1.145-1.122-2.47-2.301-2.535-3.884.339-3.004-2.971-3.246-4.592-4.797.542 2.027.469 4.288 1.621 6.077zm-.347 47.452h.404c1.787-1.111 4.39-.263 6.149-1.446.978-.509 1.047.844 1.722 1.215 1.657 1.006 1.863 4.047 4.192 3.34 2.798 1.45 2.094 4.858 2.195 7.354l2.603-1.616c-.238-1.316.509-2.903-.339-4.05-.643-1.45-2.401-1.583-3.246-2.763 1.018-1.724-1.282-2.539-1.758-3.787l.141-.166 3.582.472c1.217.739 1.657 2.092 2.029 3.343 2.798.472 3.473 3.643 4.455 5.666.578-1.381.812-2.871 1.386-4.22.036-1.114-1.451-1.114-2.195-1.619-.199-1.724-.978-3.34-2.498-4.382-3.109-.786-5.842-2.499-9.253-2.499l-2.838.873c-1.56.375-3.213-.097-4.397.977-1.762.137-1.892 2.063-2.332 3.307zm1.787-13.903l.646.307 4.224-1.926c2.257-.638 4.015 1.926 5.914.303.704-.501 1.318.238 1.852.646.823 1.482 2.708 1.381 4.13 1.782-.711-1.919-1.592-4.551-4.058-4.858-.978-.436-2.13-.4-3.072-.977-2.603-2.867-4.289 2.366-7.138 1.086-1.007 1.107-2.26 2.16-2.498 3.639zm.647 16.439c1.08.912 2.195 2.467 3.888 2.261 2.09.977 1.213 3.747 2.358 5.201l1.217-1.082-.101-.072.17-.166.072.094c.336-1.006-.137-2.795-.715-3.982-.773-.537-1.682.036-2.43-.472-.101-1.086-.776-1.619-1.552-2.29-.542-.411-1.253.13-1.863.094zm4.224-41.144c1.112 1.854 3.275 3.004 5 4.285 1.423.642 3.275.811 4.798.469-1.455-1.179-2.776-2.532-3.986-3.946-.477-.678-.578-1.526-1.217-2.128-1.589.307-3.383.27-4.596 1.32zm1.863-12.079c1.552 1.922 3.953 1.147 6.149 1.215v-.238l-3.379-2.835c-.946.299-1.957 1.143-2.769 1.857zm-62.201-31.831l1.957 6.077c-.036-3.444 1.56-6.319 1.22-9.824l1.448-2.164-3.076.949c-.809 1.551-1.484 3.105-1.549 4.963zm1.318-10.531l2.668-1.551v-3.953c-1.123.674-1.726 1.829-2.603 2.73z"/><path d="M165.372 147.26c-.643.84-1.621 1.05-2.433 1.212 1.423-2.593 2.098-6.207.982-9.146.74-.267 1.552-.404 2.26-.808l-.069-.072 1.859-1.619c2.466-1.688 1.516-4.891 2.43-7.289-1.213-1.886-1.585-4.184-3.343-5.771l.101-.069c-1.386-1.756-3.885-1.551-5.777-2.427-2.506-.844-4.43.876-6.224 2.023-.776.137-.3 1.147-1.145 1.111l-1.39 3.985c-3.343-.472-6.957-.101-9.625 1.789-1.426-1.05-3.141-1.248-4.798-1.72-1.217-.242-2.599.198-3.477-.476-1.282-1.446-1.56-4.083-3.758-4.451-.776-.274-.939-1.118-.939-1.861-1.455-.242-2.744-.912-4.156-1.215-2.163-.981-3.885.577-5.506 1.619-.715.299-1.524.404-2.199.808-1.213 1.893-2.358 3.816-3.145 5.908.242 1.72.982 3.235 1.863 4.692.776 2.193 3.21 3.917 5.268 4.797a19.85 19.85 0 0 0 0 10.693s-.054.047-.054.036c0 .011-.108.101-.108.101-.318 0-.672.061-.935-.101h-.043c.484 3.224 2 6.052 4.455 8.472.881.303.675 1.352 1.043 2.023.238.307.274.945.173 1.215-5.275-.166-9.972 1.15-14.196 3.545-1.08.541-.607 2.023-.708 3.073 2.975-1.962 6.181-3.408 9.73-4.054 1.52-.094 3.239-.472 4.697-.069l.166 2.911c-4.015 2.095-8.412 3.307-11.853 6.752.065 1.042-.137 2.254.166 3.134l3.08-2.496c2.971-2.265 6.08-4.187 9.488-5.435.917 1.078 1.863 2.232 3.08 2.903a22.77 22.77 0 0 1 6.658-2.903c1.249-.743 3.246-.069 4.054-1.551l.57-3.073c-.094-.069-.166-.206-.336-.173-1.585-.912-2.636-2.496-2.498-4.35a4.43 4.43 0 0 1-1.791.465c-.534-.13-1.047-.267-1.282-.811-.032-.671-.375-1.684.307-2.186 2.192-1.352 5.033-1.421 7.802-1.219 2.058.274 5.033.17 5.748 2.6-.101.71-.036 1.49-.747 1.958-.744.404-1.585-.036-2.264-.343-.538 1.659-1.451 3.513-3.307 4.054l.231 1.955c.231.88.303 2.33 1.69 2.023 3.21.783 6.051 2.434 8.853 4.22.95-.941 1.69-2.023 2.361-3.004 5.008 1.695 9.326 5.439 13.456 8.919l.162-2.838c-3.921-3.48-8.275-5.94-12.806-7.862.173-.912.375-1.792.412-2.773 5.369.307 10.47 1.962 14.893 4.555l-.069-2.427c-4.661-2.499-9.763-4.151-15.333-4.216a1.65 1.65 0 0 1-.238-1.046c2.704-.436 4.625-3.235 5.271-5.673 1.39-1.583 3.383-3.307 2.91-5.666a11.65 11.65 0 0 1 .199-.61c.177-.581.329-1.201.134-1.749zm4.693 8.678l2.769-.88.31-1.547c.776-2.265-.881-3.953-1.693-5.742zm6.994 10.693c1.318 1.453 2.603 3.78 4.935 3.073-.173-.981-.715-1.792-1.047-2.669-.607-.707-.816-2.734-2.029-2.023-.913-.606-1.145-1.619-1.726-2.431-.264 1.251-.097 2.802-.134 4.05zm.473 9.89c.509.707.65 1.623 1.148 2.265.913.602 2.267.501 3.387.404 1.007-.238 1.654.873 2.596.234-1.181-.743-1.888-2.092-3-3.076-1.321-1.039-2.74-.126-4.13.173zm1.794 15.699c2.332 1.381 5.293 2.734 8.405 2.261.336-.166.913-.133.978-.537-1.928-.678-3.95-2.6-5.972-3.004-1.116-1.72-2.571.44-3.99.303.032.4.437.703.578.977zm7.015 29.801l.509 1.078c.513 3.513 2.733 6.748 1.52 10.596 1.015.714 1.318 1.893 1.964 2.838h.166c.776-2.932.238-5.972-.166-8.912.303-2.665-2.405-4.216-3.993-5.601zm.585-34.562c1.755 1.352 4.56 1.482 6.585.811-1.282-.707-2.701-1.49-3.751-2.431zm8.34 10.358c-.166 1.421.776 2.6 1.791 3.314.372-.84.975-1.558 1.043-2.499-.303-1.45-1.116-2.77-2.433-3.751-.231.945-.505 1.857-.401 2.936zm.101 15.397c-.242 1.583 1.516 1.789 2.257 2.665.61.743-.404 1.251-.404 1.958 1.285 1.652 2.033 3.534 2.033 5.734.502-2.056 1.278-4.014 1.552-6.138-.137-1.49-2.498-1.179-2.13-2.835.679-1.688-.134-3.34-.574-4.865-.13-.231-.44-.707-.704-.566-.614 1.378-2.13 2.359-2.029 4.047zm4.629-8.036l1.755 3.408c.776-.101 1.282-.844 1.888-1.385.473-1.417-.78-2.33-1.145-3.48-.307-.811 0-1.886-.578-2.593-.44-.274-.942-.714-1.448-.577zm2.256-8.98c1.39.844 2.975 2.056 3.722 3.545 1.181 3.444 3.072 6.542 4.455 9.886.509 2.33.913 4.411 1.552 6.701.242.61.105 1.789 1.054 1.688.264-2.564.773-5.031.809-7.696-.845-1.114-1.957-1.583-3.007-2.258v-.238c.137-.57.614-1.251 1.318-1.143.3-.339 1.217-.674.812-1.284-1.758-1.753-1.657-4.771-4.455-5.316-.982-.404-1.217-1.421-1.318-2.359-1.321-1.122-3.278-1.49-4.943-1.526zm1.632 18.296c1.719 1.583 1.116 3.881.978 6.009-.267 1.284 1.35.534 1.859 1.215 1.051 1.551.44 3.816.072 5.5.913-1.389 1.957-2.6 2.664-4.122-.029-.57.711-.844.679-1.554.3-.977-.845-.537-1.321-.638-.404-.101-.841-.371-.704-.912.87-1.688.065-3.711-.274-5.399-.404-1.385.173-3.242-.477-4.458-1.083 1.493-4.296 1.829-3.477 4.36zm3.138-23.962c3.011 3.04 5.206 6.092 8.448 9.031.069-1.32-.101-2.532-.166-3.816-.473-.912-1.354-1.583-2.101-2.265-2.397-.231-3.647-3.459-6.181-2.95zm7.867 16.082c.072.31.209.577.347.876 1.314 2.164 2.567 4.393 3.48 6.719-.274-2.499 1.415-5.601-.82-7.527-.3-.815-1.307-.541-1.957-.476zm8.112 24.654c.946.44 2.163-.335 3.076-.876.845-.202 1.552.274 2.199.71.267.537 0 1.046.101 1.554 2.025.57 4.015 1.316 5.806 2.496l.57-.573c.137-1.45-1.007-2.499-2.094-3.311-.704-.404-1.758-.166-2.26-.808.339-.541.339-1.352.303-1.958-1.116 0-1.827-.343-2.733-.876-.578-.17-1.087-.646-1.56 0-1.686 1.143-1.787 2.835-3.408 3.643zm2.372-42.471c.841-.242 1.722-.476 2.43-1.086 2.267-2.059 5.542-.674 8.181-.707-.509-.912-1.224-1.825-1.863-2.6-.95-.371-1.827-.808-2.906-.808-2.3-1.352-3.849.912-5.611 2.023-.477.912-.708 2.261-.231 3.177zm.058 6.95c0-.105 0-.209.101-.234.31.267-.032.916.477 1.046.877-.44 1.69-1.046 2.498-1.619 2.264 0 3.618-2.196 5.842-2.196 3.722.678 7.405 1.425 10.644 3.239-.231-2.186-2.13-4.184-4.051-5.161-1.087-.371-1.932.202-2.704.811-2.26 1.421-1.08-2.059-2.664-2.128-2.065.638-4.195 1.352-6.492 1.143-1.35.512-2.3 1.756-3.82 1.619-.061 1.122-.227 2.474.17 3.48zm1.56 7.524c.708.75 1.888.613 2.906.75l2.939-1.154c.032-.53-.877-.674-.675-1.28.812-.912 1.921-.267 2.939-.638 1.415-.206 2.87-1.616 4.289-.577-.043.173.061.404-.072.577-.437 1.046.303 1.688 1.116 2.092 1.657.303 3.206 1.825 4.863 1.143-.166-1.385-.534-2.658-.874-3.982-1.386-.234-2.368-1.381-3.65-1.857-.57.541-1.321.945-2.029.876-2.603-.61-5.715-2.229-8.347-.573-.946 1.15-2.636.811-3.921 1.316.076 1.147.209 2.265.516 3.307zm1.115 20.067c-.202.573-.776 1.515.274 1.789 2.159.065 4.932-1.05 6.621.638.574.44.3 1.352.264 1.926l2.838 2.362c.271-1.425.783-2.705.82-4.223-.238-1.082-.78-2.124-1.726-2.831-1.863 0-2.939-2.175-4.939-1.908-1.043-.231-1.957.696-3.007.696-.466.469-.74 1.046-1.145 1.551zm.809-15.916c.437.912.95 2.398 1.791 2.496 1.993-.869 4.903-1.414 7.131-.465.74.13.74.974.578 1.515 1.145.674 2.531 1.215 3.748 1.955l-.339-2.027c-.069-2.193-2.834-2.391-3.007-4.555-2.264-.739-4.798-.981-7.196-.404-.776.707-1.895.613-2.834.811-.069.27.094.444.13.674zm.574 10.938c1.318-.375 2.166-1.821 3.585-1.958 2.159.036 4.087.916 5.441 2.777.809.53.639 1.915 1.69 1.915-.31-1.652.231-3.167.162-4.862-1.412-2.359-4.928-.534-6.246-3.307l-2.498.17c-1.794.444-1.318 2.535-1.552 3.956-.206.433-.61.772-.581 1.309zm12.405 14.766c1.043 2.092 3.347 3.679 3.578 6.073.538-.638.913-1.381 1.282-2.092-.036-.674-.812-.674-1.112-1.215-.31-.876.162-1.652.3-2.431-.44-1.248-1.491-2.427-2.668-3.174zm4.156-5.334l2.43 3.311c1.043-1.652 1.043-4.086.639-6.077-.231-.375-.675-.981-1.278-.707-.913.941-1.051 2.395-1.791 3.473zm-9.903-92.386c.877.44 1.722.844 2.776.912.704-.371 1.621-.646 2.498-.404 1.249.811 2.769-.17 4.224-.101-1.285-1.215-2.744-1.962-4.224-2.669-1.895.4-3.412 1.753-5.275 2.261zm13.21 3.166c1.791.17 3.08 1.756 4.289 3.073 1.52.231 2.668 1.316 3.578 2.427l-.567-1.785c-.404-1.792-1.527-3.177-2.672-4.595-1.621.105-3.213.245-4.629.88z"/></g><path d="M123.271 123.771l.982.105c2.628 1.316 6.885 1.991 7.131 5.803-2.675 1.05-5.242 2.463-7.372 4.624-1.617-1.652-4.896-.743-5.441-3.643.513-2.741 1.487-6.185 4.701-6.889zm2.538 17.117c3.076-.274 6.047.162 9.225-.105.773.335 1.581 1.006 1.957 1.785-.105 3.646-1.217 7.127-1.383 10.87-1.386.57-2.74 1.724-3.08 3.239-1.249.371-2.368 1.111-3.585 1.684-.531-1.143-.437-2.867.513-3.816 1.318-1.854 4.733-1.421 4.462-4.357.877-1.414.036-3.239.061-4.721-.336-1.118-.675.371-1.213.335-1.08.231-2.192.299-3.141-.242-.711-.743-1.581-1.352-1.791-2.359-.95-.472-2.058-1.212-2.535-2.193zm3.715 21.996c1.444.209 2.971-.44 4.221.274-.264.476-.978.674-1.552.811l-2.267 1.042c-.841-.198-.368-1.551-.401-2.128zm5.91-28.178c1.448-.472 3.007-1.446 4.56-.981-1.112 1.118-1.989 2.564-2.834 3.917l-4.629-.101c.509-1.219 1.791-2.225 2.903-2.835zm13.55-1.111c1.924-.335 1.82 2.16 3.578 2.254.31.404.751.775.578 1.385-1.018.404-2.502.209-3.65.472-1.524-.844-.538-3.477-2.939-3.307-.134-.206-.401-.61-.069-.743.744-.267 1.729-.166 2.502-.061zm-1.217 9.038c.845-1.183 2.13-1.28 3.347-1.515l8.752.162c.372.343-.339.646-.339 1.05-.538.509-1.318.646-1.791 1.114-1.148.032-1.047 1.385-1.856 1.962-1.253 1.248-3.08.671-4.531.472-.505-.375-1.08-.88-1.321-1.453l-.404.404c.509 1.893.375 3.985.751 5.908l2.094 1.385c.032 3.102 3.683 2.258 5.268 3.982-.372 1.118-1.116 2.059-1.924 3.004-1.282-1.248-2.74-2.056-4.289-2.6-.137-1.814-2.13-2.9-3.239-3.809l-.913-9.893zm3.178 20.828h4.058l-.509 2.124-4.062-1.72c-.094-.335.274-.436.513-.404zm7.296-38.237l3.007-.945c1.726.808 3.343 1.818 4.932 2.968 1.249 2.294 1.051 5.399.473 7.963-.913 1.01-2.906 0-3.647 1.619h-.141c-1.112-3.17-4.289-6.012-7.228-7.455.473-1.623.982-3.21 2.603-4.151z" fill="#f60" class="B"/></svg>
