<?xml version="1.0" encoding="UTF-8" standalone="no"?>
<svg
   version="1.1"
   id="Layer_1"
   x="0px"
   y="0px"
   viewBox="0 0 373.79998 364.60001"
   xml:space="preserve"
   width="373.79999"
   height="364.60001"
   xmlns="http://www.w3.org/2000/svg"
   xmlns:svg="http://www.w3.org/2000/svg"
   style="background-color:#3b3bf5"><defs
   id="defs13" />&#10;<style
   type="text/css"
   id="style1">&#10;	.st0{fill:#F9383D;}&#10;	.st1{fill:#FFFFFF;}&#10;	.st2{fill-rule:evenodd;clip-rule:evenodd;fill:#FFFFFF;}&#10;</style>&#10;&#10;&#10;&#10;&#10;&#10;&#10;&#10;&#10;&#10;&#10;&#10;&#10;&#10;<path
   d="m 132.96,128.685 c -2.39,3.28 -4.55,6.75 -6.5,10.34 H 93.379992 L 107.77,177.005 h 49.61 c 2.65,-25.2 23.96,-44.83 49.88,-44.83 7.27,0 14.18,1.56 20.41,4.32 l 20.81,-36.01 C 232.34,93.165003 218.9,90.925003 190.93,90.715003 H 74.889992 l 14.52,37.969997 z m 124.48,-23.02 -20.79,36 c 12.59,9.11 20.77,23.9 20.77,40.63 0,16.73 -8.14,31.44 -20.69,40.56 l 20.81,36.02 c 24.91,-16.37 41.37,-44.54 41.37,-76.58 0,-32.04 -16.48,-60.26 -41.44,-76.63 h -0.03 m -50.19,126.76 c -25.99,0 -47.36,-19.75 -49.9,-45.05 h -41.59 c 2.64,48.22 42.59,86.51 91.49,86.51 14.85,0 28.9,-3.54 41.31,-9.82 l -20.79,-36.01 c -6.27,2.82 -13.2,4.37 -20.5,4.37 h -0.02"
   fill="#ffffff"
   id="path1-2" /></svg>
