<svg xmlns="http://www.w3.org/2000/svg" width="373.8" height="364.6">
  <rect width="373.8" height="364.6" fill="#0b1742" />
  <path fill="#5e9ad3" d="M191.911 177.647V79.578h-8.59v21.475c-42.234 1.432-77.31 28.633-85.9 63.709h22.907c7.874-28.633 32.928-50.108 62.993-51.54v65.141H75.23v8.59h19.327c2.863 41.518 40.802 75.162 88.047 77.31v20.759h8.59v-98.069h65.141c-2.148 30.781-23.622 55.835-52.972 62.993v12.885c41.518-6.442 73.015-37.939 75.878-75.878h19.327v-9.306H191.911zm-8.59 73.731c-35.076-2.147-62.993-30.065-65.141-65.141h65.141zm71.583-86.616h22.907c-7.874-32.212-36.507-56.551-73.015-62.993v12.885c24.338 6.442 43.666 25.77 50.108 50.108" />
</svg>