<svg xmlns="http://www.w3.org/2000/svg" width="373.8" height="364.6">
  <rect width="373.8" height="364.6" fill="#3b3bf5" />
  <path d="M132.96 128.685c-2.39 3.28-4.55 6.75-6.5 10.34H93.38l14.39 37.98h49.61c2.65-25.2 23.96-44.83 49.88-44.83 7.27 0 14.18 1.56 20.41 4.32l20.81-36.01c-16.14-7.32-29.58-9.56-57.55-9.77H74.89l14.52 37.97zm124.48-23.02l-20.79 36c12.59 9.11 20.77 23.9 20.77 40.63s-8.14 31.44-20.69 40.56l20.81 36.02c24.91-16.37 41.37-44.54 41.37-76.58s-16.48-60.26-41.44-76.63h-.03m-50.19 126.76c-25.99 0-47.36-19.75-49.9-45.05h-41.59c2.64 48.22 42.59 86.51 91.49 86.51 14.85 0 28.9-3.54 41.31-9.82l-20.79-36.01c-6.27 2.82-13.2 4.37-20.5 4.37h-.02" fill="#fff" />
</svg>