<svg xmlns="http://www.w3.org/2000/svg" width="373.8" height="364.6" style="background-color:#00428a"><path d="M167.753 104.635l35.323-.002v2.922c-7.967 0-7.614 7.083-7.614 7.083v60.024l-19.918-11.245v-48.513c0-6.994-7.791-7.349-7.791-7.349zm30.022 17.308s8.168 4.633 12.976 4.633 6.604-4.575 6.604-4.575h2.722v33.539h-3.069c-1.159-21.433-19.232-28.906-19.232-28.906zm-24.563-1.828v4.11s-18.035 2.768-18.035 18.958c0 0-1.427 12.835 20.385 23.907l27.011 14.848s19.46 8.808 25.416 24.495 2.097 36.656-17.7 46.639c-8.053 4.11-15.267 4.529-17.867 4.865 0 0 6.542 3.273 6.542 11.242s-8.892 20.3-12.749 20.383h-2.265s-.337-.418.837-1.762 6.63-7.885 5.286-11.659c0 0-3.178 1.411-6.326 1.411s-9.227-2.714-9.227-9.879 5.428-10.097 7.383-10.097c0 0-3.04-.326-12.703-3.799s-17.153-6.839-22.039 1.52h-2.605v-35.611h3.149s7.164 33.873 42.231 33.873c24.32-.107 27.251-20.192 27.251-23.884s.001-14.981-18.131-25.295l-35.5-19.758s-20.302-9.445-20.302-31.81 20.512-32.696 29.961-32.696zm2.265 74.238l19.881 11.24v22.984s-.253 6.963 7.718 6.963v3.104h-35.399v-3.357s7.801.168 7.801-7.13zm20.93-108.298a11.02 11.02 0 0 1-11.017 11.017 11.02 11.02 0 0 1-11.018-11.017 11.02 11.02 0 0 1 11.018-11.017 11.02 11.02 0 0 1 11.017 11.017z" fill="#fff" fill-rule="evenodd"/></svg>