<svg xmlns="http://www.w3.org/2000/svg" width="373.8" height="364.6" style="background-color:#0053a0"><path d="M147.192 251.98h3.862l27.719.078c3.058.078 4.32-.887 5.238-3.829a4367.274 4367.274 0 0 1 18.602-57.466c.859-2.612 2.274-5.263 4.108-7.256 2.545-2.768 5.832-2.168 7.819 1.063 1.166 1.878 2.085 3.949 2.83 6.036a13237.651 13237.651 0 0 1 20.664 58.376c.65 1.839 1.245 3.075 3.672 3.058l53.928-.019c2.294.019 2.888-.795 2.866-3.019l.022-29.586c.036-2.534-.901-3.056-3.156-3.017-7.437.114-14.874-.137-22.291.114-4.434.137-7.568-1.758-9.845-5.26a30.473 30.473 0 0 1-3.248-6.812l-12.809-38.602a32.806 32.806 0 0 0-3.728-7.585c-3.307-4.934-7.855-7.66-14.011-7.197-4.836.368-9.1 2.051-12.77 5.146-4.359-4.585-4.359-4.585-10.858-4.585-7.839 0-15.677.137-23.497-.078-2.676-.056-3.823.753-4.644 3.349l-23.285 74.146-7.189 22.947zm-71.916 0h3.575l34.045-.017a28.09 28.09 0 0 0 3.597-.251c14.949-2.012 23.396-11.243 27.641-25.291l29.957-98.775 4.415-14.916c-1.3-.059-2.199-.137-3.078-.137-10.035 0-20.092.056-30.127-.056-2.313-.022-3.231.714-3.957 2.958l-28.827 88.947c-2.411 7.507-8.642 12.519-16.383 12.072-5.813-.327-11.642-.056-17.472-.056h-3.385v35.524z" fill="#fff204"/></svg>