<svg xmlns="http://www.w3.org/2000/svg" width="373.8" height="364.6">
  <rect width="373.8" height="364.6" fill="#f9f9f1"/>
  <path d="M101.8 129.1H88.3v74.1c0 27.8-8.8 36.2-34 36.2-22.1 0-30.1-8-30.1-18.5 0-2.3 1-10 8.6-10 7.7 0 9.9 6.8 9.9 10.2 0 11.7 6 13.5 11.4 13.5 11.7 0 18.2-6.7 18.2-29.4v-76H58.7v-4h43.1zm64.2-3.9c35.3 0 42 13.5 42 32.1s-11 32.1-45.5 32.1h-11.8v33.9q0 3 1.8 5.7 2 2.7 5.1 3.7c2.5.6 4.4.6 6.6.6v3.7h-43v-3.7c2.2 0 4 0 6.6-.6q3-1 5-3.7 1.8-2.6 2-5.7v-94.2H121v-3.9zm117.7 85.3q.2.5.8.5t.7-.5l34.2-85.3h30.2v4h-13.5v94q0 3 1.8 5.8 2 2.7 5.1 3.7c2.5.6 4.4.6 6.6.6v3.7h-43v-3.7c2.2 0 4 0 6.6-.6q3-1 5-3.7 1.8-2.8 1.9-5.7v-82h-1l-38.5 95.5h-4c0-1.2-40.8-96.2-40.8-96.2h-1.9v82.6q0 3 2 5.8 1.9 2.7 5 3.7c2.5.6 4.4.6 6.6.6v3.7h-31.3v-3.7c2.2 0 4 0 6.6-.6q3.1-1 5-3.7 2-2.8 2-5.7V129h-13.6v-3.9h31.3zm-133-81.4v56.4h8.2c21.4 0 33.3-9 33.3-28.2 0-18-6.4-28.2-33.3-28.2z" fill="#3a2206"/>
</svg>