<?xml version="1.0" encoding="UTF-8" standalone="no"?>
<svg
   version="1.1"
   id="Layer_1"
   x="0px"
   y="0px"
   viewBox="0 0 373.79998 364.60001"
   xml:space="preserve"
   width="373.79999"
   height="364.60001"
   xmlns="http://www.w3.org/2000/svg"
   xmlns:svg="http://www.w3.org/2000/svg"
   style="background-color:#50213f"><defs
   id="defs13" />&#10;<style
   type="text/css"
   id="style1">&#10;	.st0{fill:#F9383D;}&#10;	.st1{fill:#FFFFFF;}&#10;	.st2{fill-rule:evenodd;clip-rule:evenodd;fill:#FFFFFF;}&#10;</style>&#10;&#10;&#10;&#10;&#10;&#10;&#10;&#10;&#10;&#10;&#10;&#10;&#10;&#10;<g
   id="g2"
   transform="matrix(6.9556591,0,0,6.9556591,71.625247,101.34712)"><path
     d="m 27.0836,21.1231 -3.3572,-5.9483 h -1.9977 v 5.9483 H 17.0383 V 2.14844 h 7.6754 c 5.009,0 7.237,2.72708 7.237,6.49947 0.0924,1.22368 -0.198,2.44579 -0.8311,3.49629 -0.633,1.0505 -1.577,1.877 -2.7007,2.3646 v 0.058 l 4.2267,6.5574 z M 24.7705,10.8228 c 1.882,0 2.4319,-0.92831 2.4319,-2.17594 0,-1.24763 -0.5488,-2.14753 -2.4319,-2.14753 h -3.0397 v 4.32037 z"
     fill="#ffffff" /><path
     d="M 0.5,21.1242 V 2.14844 H 5.18936 V 9.80913 H 5.24719 L 10.6894,2.14844 h 5.7923 L 9.33197,11.434 16.7719,21.1284 H 10.8345 L 5.24719,13.2317 H 5.18936 v 7.8914 z"
     fill="#ffffff" /></g></svg>
