<svg xmlns="http://www.w3.org/2000/svg" width="373.8" height="364.6" style="background-color:#50213f"><path d="M260.01 248.272l-23.352-41.374h-13.895v41.374h-32.625V116.291h53.387c34.841 0 50.338 18.969 50.338 45.208a41.12 41.12 0 0 1-5.781 24.319 40.98 40.98 0 0 1-18.785 16.447v.403l29.399 45.611zm-16.089-71.645c13.091 0 16.915-6.457 16.915-15.135s-3.817-14.937-16.915-14.937h-21.143v30.051zM75.103 248.28V116.291h32.618v53.285h.402l37.854-53.285h40.289l-49.731 64.587 51.75 67.431h-41.299l-38.863-54.927h-.402v54.89z" fill="#fff"/></svg>
