<svg xmlns="http://www.w3.org/2000/svg" width="373.8" height="364.6" style="background-color:#e3176f" fill="#fff"><path d="M75.931 161.526h8.085v19.689l18.232-19.689h9.357l-16.842 17.88 17.805 23.671h-9.293l-13.699-18.18-5.56 5.918v12.263h-8.085zm50.473 0h17.805c9.993 0 15.334 4.836 15.334 12.926 0 5.918-3.025 10.572-8.757 12.563l10.32 16.062h-8.812l-9.538-15.099h-8.276v15.099h-8.076zm8.085 6.527v13.635h9.357c4.951 0 7.485-3.018 7.485-7.127s-2.653-6.463-7.485-6.463zm163.379 13.862a35.01 35.01 0 0 0-3.015-13.635 35.06 35.06 0 0 0-13.776-15.924 35.03 35.03 0 0 0-20.408-5.156 35.07 35.07 0 0 0-14.535 4.036 36.11 36.11 0 0 0-12.409 10.954 64.14 64.14 0 0 1-4.542 5.818c-1.272 1.549-3.068 2.578-5.047 2.889a8.17 8.17 0 0 1-5.69-1.199 39.79 39.79 0 0 1-5.578-4.163c-.563-.482-1.145-.909-1.735-1.345a22.52 22.52 0 0 0-13.572-4.545 23.6 23.6 0 0 0-3.634.282 21.61 21.61 0 0 0-8.839 3.436 22.79 22.79 0 0 0-7.794 8.736 20.59 20.59 0 0 0-2.362 8.399 24.55 24.55 0 0 0-.073 1.818 22.56 22.56 0 0 0 2.834 10.99 20.42 20.42 0 0 0 2.725 3.936 22.71 22.71 0 0 0 7.162 5.473 22.7 22.7 0 0 0 8.725 2.255c3.03.161 6.061-.287 8.915-1.318s5.472-2.623 7.701-4.684c1.544-1.245 3.034-2.554 4.669-3.636 3.025-2.046 6.268-2.4 9.529-.418a17.1 17.1 0 0 1 4.933 5.218c2.358 3.627 5.246 6.881 8.566 9.654a35.26 35.26 0 0 0 27.253 7.272c5.954-.887 11.58-3.291 16.339-6.98a35.13 35.13 0 0 0 10.832-14.09 35.04 35.04 0 0 0 2.825-14.072z" /></svg>
