<?xml version="1.0" encoding="UTF-8" standalone="no"?>
<svg
   version="1.1"
   id="Layer_1"
   x="0px"
   y="0px"
   viewBox="0 0 373.79998 364.60001"
   xml:space="preserve"
   width="373.79999"
   height="364.60001"
   xmlns="http://www.w3.org/2000/svg"
   xmlns:svg="http://www.w3.org/2000/svg"
   style="background-color:#f8c301"><defs
   id="defs13" />&#10;<style
   type="text/css"
   id="style1">&#10;	.st0{fill:#F9383D;}&#10;	.st1{fill:#024282;}&#10;	.st2{fill-rule:evenodd;clip-rule:evenodd;fill:#024282;}&#10;</style>&#10;&#10;&#10;&#10;&#10;&#10;&#10;&#10;&#10;&#10;&#10;&#10;&#10;&#10;<g
   id="g58"
   transform="matrix(2.3838756,0,0,2.3838756,51.410544,52.584733)"
   fill="#024282"><path
     d="m 52.77,9.47 c 1.65,-0.11 3.3,-0.08 4.95,-0.09 a 31.08,31.08 0 0 1 5.62,0.41 26.43,26.43 0 0 1 3.83,0.94 17,17 0 0 1 3,1.1 46.33,46.33 0 0 1 4.5,2.41 37.73,37.73 0 0 1 7.18,6.22 c 1,1.09 1.91,2.3 2.84,3.48 0.93,1.18 1.68,2.55 2.4,3.89 a 30.41,30.41 0 0 1 1.91,4.29 19.18,19.18 0 0 1 1.29,6.29 q 0,14.46 0,28.92 v 3.1 a 24,24 0 0 1 -1.82,7.64 c -0.25,0.48 -0.36,1 -0.61,1.49 a 39.31,39.31 0 0 1 -3.2,5.51 27.57,27.57 0 0 1 -2.58,3.22 22.33,22.33 0 0 1 -3.14,3.16 29,29 0 0 1 -5.17,3.84 24.62,24.62 0 0 1 -5,2.34 27.3,27.3 0 0 1 -9.77,1.76 c -1.07,0 -2.14,0.14 -3.21,0 -1.07,-0.14 -2.28,0 -3.41,-0.13 a 27.08,27.08 0 0 1 -5,-0.83 c -1.12,-0.28 -2.18,-0.72 -3.28,-1 A 34.21,34.21 0 0 1 41,95.92 c -1,-0.51 -1.91,-1.2 -2.89,-1.75 a 40.63,40.63 0 0 1 -3.77,-3 7.7,7.7 0 0 1 -0.75,-0.66 c -1.08,-1.18 -2.22,-2.31 -3.23,-3.57 -0.63,-0.9 -1.29,-1.77 -1.93,-2.66 a 29.3,29.3 0 0 1 -1.6,-2.69 29.72,29.72 0 0 1 -3.11,-8.18 28.59,28.59 0 0 1 -0.33,-3.44 q 0,-15.06 0,-30.13 a 20.48,20.48 0 0 1 0.77,-6.18 27.52,27.52 0 0 1 1.5,-3.9 c 0.39,-0.91 0.9,-1.77 1.32,-2.67 a 34.57,34.57 0 0 1 2.49,-3.73 22.6,22.6 0 0 1 2.48,-3 27.8,27.8 0 0 1 3.3,-3.21 28.28,28.28 0 0 1 4.45,-3.24 24.45,24.45 0 0 1 2.65,-1.47 22.21,22.21 0 0 1 4.31,-1.7 28.62,28.62 0 0 1 6.15,-1.21 m -0.3,1 c -1,0.08 -1.91,0.26 -2.87,0.38 a 28.22,28.22 0 0 0 -7.94,3 19.85,19.85 0 0 0 -3,1.83 34.74,34.74 0 0 0 -5.58,4.84 c -1,1.06 -2,2.24 -2.89,3.4 -0.53,0.85 -1.15,1.66 -1.67,2.53 a 11.7,11.7 0 0 0 -1.83,4.26 19.3,19.3 0 0 0 -0.47,4.61 c 0.09,5.43 0,10.87 0,16.31 v 17.85 a 58,58 0 0 0 0.27,7.91 c 0.07,0.54 0.22,1.06 0.3,1.6 a 11.73,11.73 0 0 0 1.73,3.62 38.24,38.24 0 0 0 3.62,5 c 0.42,0.42 0.83,0.85 1.21,1.3 a 28.49,28.49 0 0 0 2.11,2 9.21,9.21 0 0 1 1.09,0.89 38.18,38.18 0 0 0 3.28,2.34 40.57,40.57 0 0 0 4.77,2.35 26.22,26.22 0 0 0 2.84,0.94 c 1.2,0.22 2.39,0.55 3.61,0.67 1.4,0.2 2.8,0.17 4.2,0.26 a 40,40 0 0 0 4.1,-0.06 27.33,27.33 0 0 0 13.73,-3.86 14.91,14.91 0 0 0 2.56,-1.65 c 0.87,-0.6 1.65,-1.3 2.49,-1.93 1,-1 2,-1.86 2.91,-2.89 a 13.18,13.18 0 0 0 1.16,-1.43 35.28,35.28 0 0 0 2.5,-3.7 c 0.61,-1.26 1.4,-2.43 1.89,-3.74 a 19.13,19.13 0 0 0 1,-7.7 c 0,-3.1 0,-6.2 0,-9.3 q 0,-11.76 0,-23.52 A 29,29 0 0 0 87.4,32 16.58,16.58 0 0 0 84.93,26.55 42.3,42.3 0 0 0 81.39,21.68 c -1,-1.13 -2.07,-2.13 -3.1,-3.2 C 77.26,17.41 76.11,16.69 75,15.8 a 24.59,24.59 0 0 0 -3.09,-1.93 28.2,28.2 0 0 0 -7.86,-3 c -0.86,-0.09 -1.7,-0.28 -2.56,-0.36 a 49.87,49.87 0 0 0 -5.6,-0.15 33,33 0 0 0 -3.42,0.12 z"
     fill="#024282"
     id="path1-1"
     style="fill:#024282;fill-opacity:1" /><path
     d="m 39.56,24.5 a 0.47,0.47 0 0 1 0.25,-0.46 2.43,2.43 0 0 1 2.64,2.75 18.53,18.53 0 0 1 -1.73,5.21 10.29,10.29 0 0 0 -1,2.07 c -0.3,0.74 -0.65,1.46 -0.92,2.21 a 6.8,6.8 0 0 1 -0.39,0.76 29.84,29.84 0 0 0 -1.26,5.26 12.26,12.26 0 0 0 0.36,4.47 c 0.06,0.25 0.14,0.55 0.45,0.56 0.37,-1 -0.07,-2 -0.05,-3 0,-0.81 0,-1.63 0.06,-2.45 a 13.35,13.35 0 0 1 0.83,-3.29 21.35,21.35 0 0 1 0.82,-2.19 c 1,-2.72 2.59,-5.23 3.35,-8.05 a 11.74,11.74 0 0 0 0.32,-2 c 0,-0.61 0.18,-1.2 0.25,-1.81 0.06,-0.34 0.5,-0.3 0.75,-0.21 a 3.32,3.32 0 0 1 1.89,1.77 3.21,3.21 0 0 1 0.11,1.41 c -0.1,0.32 -0.5,0.19 -0.75,0.21 a 0.71,0.71 0 0 0 -0.38,0.53 17.32,17.32 0 0 0 -0.45,2.21 6.92,6.92 0 0 1 -0.45,1.79 c -0.44,1.32 -1,2.62 -1.33,4 -0.26,0.67 -0.48,1.36 -0.77,2 a 30,30 0 0 0 -1.06,4.69 9.6,9.6 0 0 0 0.3,4.36 0.27,0.27 0 0 0 0.46,0.06 c 0,-0.54 -0.18,-1.07 -0.18,-1.61 a 12.31,12.31 0 0 1 0.16,-1.91 18.4,18.4 0 0 1 0.82,-4.1 c 0.25,-0.65 0.39,-1.33 0.59,-2 0.76,-2.29 1.71,-4.53 2.27,-6.89 a 2.94,2.94 0 0 1 0.48,-1.56 1,1 0 0 1 0.93,-0.42 1.89,1.89 0 0 1 1,1.43 9.24,9.24 0 0 1 -0.2,3.7 15.64,15.64 0 0 1 -0.64,2.32 c -0.29,0.66 -0.59,1.31 -0.84,2 a 3.24,3.24 0 0 0 -0.07,1.24 19.57,19.57 0 0 1 0,4.12 16.44,16.44 0 0 0 -0.43,2.2 2.29,2.29 0 0 0 0.38,0.88 c 0.28,0.59 0.71,1.1 1,1.72 0.29,0.62 0.3,1.32 0.45,2 a 1.32,1.32 0 0 0 0.36,0.55 9.19,9.19 0 0 1 1.66,2.43 15.79,15.79 0 0 0 1.65,2.54 c 0.45,0.59 0.9,1.18 1.33,1.78 0.45,0.77 1.06,1.43 1.53,2.18 a 27.74,27.74 0 0 1 1.47,2.53 8.23,8.23 0 0 1 0.66,2 5.75,5.75 0 0 1 -2.6,5.48 c -0.29,0.18 -0.63,0.38 -0.71,0.74 -0.21,0.92 -0.33,1.85 -0.58,2.76 -4.19,0 -8.37,0 -12.55,0 0.82,-1.46 1.68,-2.89 2.49,-4.35 0.12,-0.23 0.29,-0.43 0.42,-0.66 a 1.83,1.83 0 0 0 -0.22,-1.23 7.72,7.72 0 0 0 -1,-1.52 17.57,17.57 0 0 1 -1.57,-2.14 c -0.35,-0.72 -0.87,-1.34 -1.28,-2 -0.61,-1 -1.19,-2 -1.81,-3 C 36.21,57.57 35.6,56.38 35,55.35 34.31,54.14 33.59,52.94 32.94,51.7 A 6,6 0 0 1 32.2,49 c -0.24,-2.59 -0.17,-5.2 -0.18,-7.8 a 12.59,12.59 0 0 1 1,-5.68 c 0.22,-0.51 0.34,-1.05 0.58,-1.55 0.62,-1.42 1.15,-2.88 1.75,-4.31 A 13.46,13.46 0 0 0 36,27.11 c 0.12,-0.48 -0.06,-1 0.1,-1.47 a 0.42,0.42 0 0 1 0.56,-0.24 2.34,2.34 0 0 1 1.7,1.6 5.58,5.58 0 0 1 -0.63,2.3 c -1.07,2.85 -2,5.74 -3.17,8.57 a 14.58,14.58 0 0 0 -0.45,3.42 32.4,32.4 0 0 0 0.29,3.8 c 0.06,0.29 0,0.63 0.19,0.88 0.45,-0.22 0.39,-0.76 0.37,-1.17 a 24,24 0 0 1 0,-3.5 17.43,17.43 0 0 1 0.43,-3.22 10.26,10.26 0 0 1 0.72,-1.91 16.65,16.65 0 0 0 0.53,-1.6 35.36,35.36 0 0 1 1.53,-3.66 11.87,11.87 0 0 0 1.39,-6.41 z"
     fill="#024282"
     id="path2"
     style="fill:#024282;fill-opacity:1" /><path
     d="m 72.9,24.18 a 1.86,1.86 0 0 1 1.16,-0.11 c 0.35,0.19 0.2,0.63 0.15,0.93 a 12.88,12.88 0 0 0 1.28,5.62 42.45,42.45 0 0 1 2.14,5.18 c 0.18,0.67 0.53,1.27 0.77,1.92 0.24,0.65 0.24,1.54 0.36,2.31 a 36.73,36.73 0 0 1 0.12,3.79 6.89,6.89 0 0 0 0,1.87 c 0.06,0.15 0.27,0.38 0.4,0.18 0.12,-0.85 0.18,-1.7 0.28,-2.55 a 14.21,14.21 0 0 0 -0.52,-6 c -0.19,-0.6 -0.48,-1.17 -0.62,-1.78 -0.35,-1 -0.73,-2.07 -1.13,-3.08 -0.4,-1.01 -0.76,-1.9 -1.14,-2.84 A 6.42,6.42 0 0 1 75.47,27 2.22,2.22 0 0 1 77,25.42 a 0.47,0.47 0 0 1 0.59,0.11 c 0.26,0.43 0,0.95 0.15,1.4 0.17,0.7 0.27,1.4 0.45,2.09 0.73,2 1.62,4 2.39,6 a 14.31,14.31 0 0 1 1.07,3.67 c 0,0.47 0.08,0.94 0.1,1.41 0,2.3 0.07,4.61 0,6.91 0,0.78 0,1.57 -0.12,2.35 A 5.57,5.57 0 0 1 81,51.74 c -1.34,2.24 -2.65,4.5 -4,6.76 -0.67,1.1 -1.36,2.19 -2,3.33 -0.8,1.14 -1.5,2.35 -2.37,3.44 a 8.33,8.33 0 0 0 -1.24,1.87 c -0.19,0.44 -0.41,1 0,1.44 a 17.4,17.4 0 0 1 1,1.79 c 0.56,1 1.18,2 1.74,3 -4.19,0 -8.39,0 -12.58,0 -0.22,-0.93 -0.43,-1.87 -0.65,-2.81 -0.15,-0.5 -0.69,-0.67 -1.08,-0.94 a 5.28,5.28 0 0 1 -1.11,-1.2 5.36,5.36 0 0 1 -1,-4.39 10.88,10.88 0 0 1 1.29,-2.76 10.67,10.67 0 0 1 1.16,-2 c 0.72,-0.92 1.39,-1.88 2.09,-2.82 0.34,-0.58 0.84,-1 1.18,-1.64 0.53,-0.87 1,-1.77 1.56,-2.63 a 18,18 0 0 1 1.14,-1.47 2,2 0 0 0 0.34,-1 c 0.1,-0.46 0.16,-0.93 0.3,-1.39 0.36,-0.84 1,-1.52 1.33,-2.38 a 3.18,3.18 0 0 0 -0.18,-1.43 9.11,9.11 0 0 1 -0.37,-2.89 18.71,18.71 0 0 1 0.16,-2.8 1.15,1.15 0 0 0 -0.07,-0.55 c -0.26,-0.72 -0.63,-1.4 -0.92,-2.11 a 17,17 0 0 1 -0.83,-3.45 6.06,6.06 0 0 1 0.03,-2.71 1.61,1.61 0 0 1 1,-1.14 1.47,1.47 0 0 1 1.3,1.34 c 0.1,0.88 0.49,1.69 0.63,2.56 0.19,0.59 0.35,1.19 0.57,1.77 0.67,1.67 1.22,3.39 1.76,5.1 a 20,20 0 0 1 0.93,6.09 c 0,0.54 -0.14,1.07 -0.11,1.62 l 0.21,0.14 c 0.38,-0.15 0.35,-0.6 0.43,-0.93 a 8.7,8.7 0 0 0 0.23,-2.33 28.91,28.91 0 0 0 -0.8,-4.52 8.51,8.51 0 0 0 -0.66,-2.19 c -0.7,-1.9 -1.34,-3.83 -2,-5.74 -0.26,-0.69 -0.2,-1.45 -0.41,-2.15 a 6.3,6.3 0 0 1 -0.2,-1.29 1.06,1.06 0 0 0 -0.43,-0.65 c -0.28,0 -0.71,0.07 -0.83,-0.27 a 2.52,2.52 0 0 1 0.66,-2.14 3.18,3.18 0 0 1 1.64,-1 c 0.16,0 0.44,0 0.46,0.2 0,0.57 0.21,1.11 0.22,1.67 a 11.5,11.5 0 0 0 1,3.86 c 0.42,1 0.74,1.95 1.18,2.89 0.37,0.75 0.67,1.53 1,2.27 a 23.57,23.57 0 0 1 2.15,6.84 19.58,19.58 0 0 1 -0.09,3.67 2.43,2.43 0 0 0 0.17,1.7 c 0.12,-0.1 0.27,-0.2 0.3,-0.37 a 12.37,12.37 0 0 0 0.33,-5.54 27.48,27.48 0 0 0 -1.87,-6.15 24.61,24.61 0 0 0 -1.47,-3 13.16,13.16 0 0 1 -1.14,-2.61 C 71.91,28.89 71.66,28.1 71.5,27.29 a 2.32,2.32 0 0 1 0,-1.7 2.75,2.75 0 0 1 1.4,-1.41 z"
     fill="#024282"
     id="path3"
     style="fill:#024282;fill-opacity:1" /><path
     d="m 55.89,27.1 c 0.29,0.94 0.72,1.84 1.1,2.75 a 13.47,13.47 0 0 1 1.65,5.55 6.87,6.87 0 0 1 -0.28,2.06 c -0.33,1 -0.65,2 -1,3 a 19.26,19.26 0 0 1 6.6,1.1 5.22,5.22 0 0 1 1.88,1.13 1.65,1.65 0 0 1 0.69,1.31 5.52,5.52 0 0 1 -0.85,2.55 9.9,9.9 0 0 1 -2.18,2.85 13.89,13.89 0 0 1 -2,1.6 8.39,8.39 0 0 1 -5.5,1.32 9.32,9.32 0 0 1 -3,-1 13.56,13.56 0 0 1 -2.53,-1.87 9.35,9.35 0 0 1 -1.7,-2 6.73,6.73 0 0 1 -1.42,-3.56 c 0,-0.71 0.61,-1.19 1.13,-1.57 a 12.27,12.27 0 0 1 4.76,-1.64 c 0.4,-0.07 0.8,-0.13 1.21,-0.17 A 16.33,16.33 0 0 1 53.13,38.17 4.14,4.14 0 0 1 52.88,35 13.85,13.85 0 0 1 53.8,33.15 20.12,20.12 0 0 0 55.07,30.4 15.18,15.18 0 0 0 55.89,27.15 m 1,16.2 a 2.06,2.06 0 0 0 1.62,1.54 9.67,9.67 0 0 0 5.58,-0.37 2.77,2.77 0 0 0 1.3,-0.81 0.51,0.51 0 0 0 -0.11,-0.67 6.27,6.27 0 0 0 -2.39,-1.2 A 19.4,19.4 0 0 0 57.21,41 7.51,7.51 0 0 0 56.87,43.35 M 51.4,41.6 a 7.44,7.44 0 0 0 -2.49,1 c -0.24,0.18 -0.55,0.36 -0.61,0.69 -0.06,0.33 0.16,0.5 0.36,0.65 a 6.58,6.58 0 0 0 2.46,0.9 9.7,9.7 0 0 0 3.31,0.15 1.83,1.83 0 0 0 1.44,-0.84 2.91,2.91 0 0 0 -0.17,-1.65 6.32,6.32 0 0 0 -1,-1.49 21,21 0 0 0 -3.3,0.59 z"
     fill="#024282"
     id="path4"
     style="fill:#024282;fill-opacity:1" /><path
     d="m 79,74.79 c 0.76,-0.5 1.51,-1 2.24,-1.55 l 0.49,0.48 c -0.23,0.16 -0.45,0.32 -0.66,0.49 1.11,1.44 2.13,2.94 3.28,4.34 -0.29,0.28 -0.59,0.55 -0.89,0.82 -0.46,-0.61 -1,-1.15 -1.45,-1.74 a 6.69,6.69 0 0 1 -0.92,0.69 c 0,0.3 0,0.7 -0.29,0.85 a 4.79,4.79 0 0 1 -1.07,0 1,1 0 0 1 -0.92,-0.54 0.72,0.72 0 0 1 0.17,-0.58 16.35,16.35 0 0 0 -1.07,-1.63 9.43,9.43 0 0 1 -1,0.55 14,14 0 0 0 0.79,1.35 l -1.4,1 c -0.16,0.12 -0.35,0.23 -0.42,0.43 -0.07,0.2 0.39,0.12 0.54,0 a 1.84,1.84 0 0 1 1.31,-0.5 2.57,2.57 0 0 1 1.31,0.47 1.93,1.93 0 0 1 0.5,1.51 c 0,0.34 -0.23,0.59 -0.42,0.84 q -0.39,-0.18 -0.75,-0.39 a 1.33,1.33 0 0 0 0,-0.84 0.71,0.71 0 0 0 -0.82,-0.23 1.34,1.34 0 0 0 -0.72,0.87 1,1 0 0 0 0.5,1.11 1.46,1.46 0 0 0 1,0 8,8 0 0 1 0.21,1 2.8,2.8 0 0 1 -2.54,-0.4 2.53,2.53 0 0 1 -0.54,-2 2.5,2.5 0 0 1 -1,-1 1.44,1.44 0 0 1 0.24,-1.3 7.15,7.15 0 0 1 1.16,-0.89 2.2,2.2 0 0 1 -0.17,-0.25 c -0.24,0.13 -0.47,0.28 -0.72,0.39 -0.65,0.25 -1.25,0.6 -1.9,0.86 0.43,1 0.86,1.95 1.32,2.91 a 24.52,24.52 0 0 1 1,2.31 6.72,6.72 0 0 1 -1.07,0.45 c -0.27,-0.43 -0.48,-0.9 -0.73,-1.34 a 2,2 0 0 1 -1.93,0.87 4,4 0 0 1 -1.09,-0.19 3.87,3.87 0 0 1 -1.63,-1.5 c 0.14,-0.17 0.26,-0.39 0.49,-0.44 a 0.8,0.8 0 0 0 0.55,-0.88 1.14,1.14 0 0 0 -0.71,-0.66 c -0.43,0.17 -0.88,0.28 -1.32,0.41 0.19,0.69 0.44,1.37 0.63,2.06 L 69,82.83 c 0.3,0.4 0.55,0.82 0.84,1.22 l -0.81,0.32 c -0.06,0.31 -0.12,0.75 -0.48,0.83 A 5.6,5.6 0 0 1 67.08,84.58 0.57,0.57 0 0 1 66.75,83.9 c 0.07,-0.3 0.4,-0.41 0.63,-0.58 -0.25,-0.68 -0.47,-1.38 -0.73,-2 -0.36,0.08 -0.73,0.14 -1.09,0.19 0.34,1.81 0.89,3.58 1.33,5.37 l -1.28,0.24 c -0.41,-1.8 -1,-3.57 -1.42,-5.36 l -0.82,0.15 c 0.08,0.55 0.17,1.09 0.24,1.63 -0.61,0.11 -1.21,0.25 -1.81,0.38 -0.19,0 -0.28,0.22 -0.35,0.38 0.51,0.22 1,-0.2 1.51,-0.12 a 2.15,2.15 0 0 1 1.08,0.5 1.24,1.24 0 0 1 0.59,1.18 1.76,1.76 0 0 1 -0.93,1.59 c -0.21,-0.24 -0.42,-0.48 -0.64,-0.7 a 1.47,1.47 0 0 0 0.32,-0.81 0.72,0.72 0 0 0 -1.06,-0.41 1.24,1.24 0 0 0 -0.76,1.33 c 0.15,0.51 0.7,0.72 1.17,0.85 -0.07,0.3 -0.12,0.6 -0.17,0.91 a 3.73,3.73 0 0 1 -2,-0.92 2.21,2.21 0 0 1 0,-2.43 c -0.3,-0.4 -0.72,-0.79 -0.68,-1.32 a 1.5,1.5 0 0 1 0.88,-1.15 9.9,9.9 0 0 1 1.43,-0.23 L 62,82.07 c -1,0.15 -2.09,0.22 -3.13,0.33 0.19,1.82 0.19,3.66 0.37,5.49 -0.42,0 -0.84,0 -1.26,0.08 0,-0.34 0,-0.67 -0.07,-1 a 2.51,2.51 0 0 1 -1.81,0 2.12,2.12 0 0 1 -1.3,-1.78 2,2 0 0 1 1.09,-1.71 3.73,3.73 0 0 1 1.62,-0.36 v -0.59 c -0.71,0 -1.43,0 -2.15,0.08 0,-0.27 0,-0.53 -0.07,-0.8 1.4,-0.09 2.8,-0.12 4.2,-0.26 a 41,41 0 0 0 10,-1.92 c 0.6,-0.23 1.19,-0.48 1.78,-0.72 0.59,-0.24 1.11,-0.52 1.7,-0.7 a 54.83,54.83 0 0 0 6,-3.37 m 0.05,0.83 c 0.41,0.54 0.78,1.1 1.2,1.62 l 0.91,-0.73 c -0.39,-0.49 -0.78,-1 -1.21,-1.46 -0.29,0.19 -0.59,0.39 -0.9,0.57 m -8,4.36 c 0,0.36 0.29,0.68 0.32,1 a 1.49,1.49 0 0 1 -0.54,1.4 1.16,1.16 0 0 0 0.69,0.52 c 0.23,0.08 0.43,-0.09 0.62,-0.19 a 1.14,1.14 0 0 0 0.51,-1.23 16,16 0 0 1 -0.82,-1.85 3.07,3.07 0 0 0 -0.78,0.3 m -14.9,4.8 a 0.7,0.7 0 0 0 0.36,1 1.38,1.38 0 0 0 1.25,0 c 0,-0.46 -0.05,-0.91 -0.09,-1.37 a 1.5,1.5 0 0 0 -1.48,0.37 z"
     fill="#024282"
     id="path5"
     style="fill:#024282;fill-opacity:1" /><path
     d="m 32,75.06 c 0.22,-0.23 0.43,-0.46 0.63,-0.7 a 8.6,8.6 0 0 1 0.86,0.63 c 0.57,0.28 1.1,0.64 1.65,1 0.55,0.36 1.19,0.68 1.76,1.06 -0.1,-0.6 -0.22,-1.19 -0.32,-1.79 l 1.12,0.56 c 0.15,0.59 0.27,1.19 0.41,1.79 1.57,0.77 3.19,1.42 4.81,2 -0.11,0.3 -0.21,0.59 -0.33,0.88 l -0.47,-0.15 c -0.64,1.69 -1.24,3.39 -1.87,5.08 -0.39,-0.16 -0.77,-0.34 -1.17,-0.48 0.21,-0.49 0.39,-1 0.58,-1.48 0.35,-1.24 0.9,-2.4 1.32,-3.61 l -0.8,-0.32 a 4.32,4.32 0 0 1 -0.89,2.65 1.53,1.53 0 0 1 -1.35,0.59 1.37,1.37 0 0 1 -0.9,-1.23 0.79,0.79 0 0 1 0.45,-0.85 0.9,0.9 0 0 1 1.13,0.36 2,2 0 0 0 0.17,-2.05 8.67,8.67 0 0 0 -1,-0.49 c -0.47,0.93 -1,1.82 -1.41,2.78 -0.4,0.69 -0.77,1.39 -1.13,2.1 -0.37,-0.17 -0.73,-0.37 -1.11,-0.54 0.3,-0.74 0.74,-1.4 1.1,-2.11 0.47,-0.92 1,-1.82 1.41,-2.76 -0.22,-0.14 -0.44,-0.27 -0.67,-0.39 -0.93,1.54 -1.82,3.1 -2.75,4.65 -0.36,-0.22 -0.74,-0.4 -1.08,-0.64 0.33,-0.44 0.58,-0.93 0.89,-1.39 a 2.41,2.41 0 0 1 -2,-0.62 2.87,2.87 0 0 1 -0.11,-3 3.54,3.54 0 0 0 1.3,0 c 0.38,-0.18 0.42,-0.64 0.4,-1 -0.23,-0.16 -0.46,-0.32 -0.71,-0.46 m 1.81,1.2 a 2.16,2.16 0 0 1 -0.45,1.09 c -0.27,0.41 -0.81,0.43 -1.25,0.45 0,0.17 -0.15,0.35 -0.06,0.53 a 1.06,1.06 0 0 0 1.57,0.5 c 0.45,-0.61 0.82,-1.28 1.23,-1.92 a 11.27,11.27 0 0 0 -1,-0.72 z"
     fill="#024282"
     id="path6"
     style="fill:#024282;fill-opacity:1" /><path
     d="m 85.22,78.62 a 0.28,0.28 0 0 1 0.44,0.21 c -0.36,0.29 -0.66,0.64 -1,0.92 a 1,1 0 0 1 -0.64,0.13 c 0,-0.19 -0.13,-0.47 0.1,-0.57 0.36,-0.21 0.72,-0.46 1.1,-0.69 z"
     fill="#024282"
     id="path7"
     style="fill:#024282;fill-opacity:1" /><path
     d="m 46.08,79.2 c 0.43,0.13 0.87,0.23 1.31,0.33 0.28,0.44 0.52,0.91 0.81,1.34 a 20.22,20.22 0 0 0 5.08,0.71 6.25,6.25 0 0 1 -0.09,1 h -0.47 c -0.1,1.76 -0.26,3.52 -0.44,5.27 -0.41,0 -0.81,-0.1 -1.21,-0.16 0,-0.67 0.06,-1.34 0.09,-2 a 9.21,9.21 0 0 0 -1.27,-0.17 1.15,1.15 0 0 1 -0.56,0.79 c -0.25,0 -0.4,-0.24 -0.57,-0.4 a 2.48,2.48 0 0 1 -0.8,-1.24 0.71,0.71 0 0 1 0.82,-0.74 c 0.08,-0.64 0.16,-1.27 0.23,-1.91 A 10,10 0 0 1 47.8,81.77 c -0.36,1.79 -0.76,3.58 -1.14,5.37 -0.41,-0.09 -0.82,-0.17 -1.24,-0.24 0.23,-1.18 0.5,-2.35 0.73,-3.52 -0.63,-0.18 -1.27,-0.34 -1.89,-0.57 a 1,1 0 0 0 -1.26,1 0.83,0.83 0 0 0 0.53,0.47 c 0.42,0.16 0.82,-0.12 1.21,-0.24 0.2,0.24 0.39,0.49 0.61,0.71 -0.19,0.33 -0.74,0.42 -0.71,0.85 0.03,0.43 0,0.61 0,0.92 a 6.56,6.56 0 0 1 -1.15,-0.25 c 0,-0.2 0,-0.4 0,-0.59 A 2.92,2.92 0 0 1 42,84.59 a 1.76,1.76 0 0 1 0,-1.8 2.61,2.61 0 0 1 1.26,-1.13 C 42.9,81.32 42.98,80.78 43.03,80.34 a 1.53,1.53 0 0 1 2.25,-0.73 1.45,1.45 0 0 1 0.56,1.72 2.65,2.65 0 0 1 -0.54,0.66 l 1.07,0.24 c 0.06,-0.25 0.11,-0.51 0.16,-0.77 h -0.34 a 3.16,3.16 0 0 1 0.2,-1 l 0.46,0.11 a 14.2,14.2 0 0 1 -0.74,-1.39 m -1.93,1.73 c 0.06,0.2 0.3,0.22 0.48,0.25 0.1,-0.17 0.24,-0.43 0,-0.6 -0.24,-0.17 -0.66,0.06 -0.53,0.35 m 6.17,1.34 c -0.08,0.61 -0.21,1.21 -0.3,1.82 a 7.1,7.1 0 0 0 1.3,0.08 c 0,-0.59 0,-1.18 0.07,-1.78 C 51,82.34 50.68,82.3 50.32,82.27 Z"
     fill="#024282"
     id="path8"
     style="fill:#024282;fill-opacity:1" /><path
     d="m 51.87,79.71 a 0.52,0.52 0 0 1 0.84,0.43 0.53,0.53 0 1 1 -0.84,-0.43 z"
     fill="#024282"
     id="path9"
     style="fill:#024282;fill-opacity:1" /></g></svg>
