<?xml version="1.0" encoding="UTF-8" standalone="no"?>
<svg
   version="1.1"
   id="Layer_1"
   x="0px"
   y="0px"
   viewBox="0 0 373.79998 364.60001"
   xml:space="preserve"
   width="373.79999"
   height="364.60001"
   xmlns="http://www.w3.org/2000/svg"
   xmlns:svg="http://www.w3.org/2000/svg"
   style="background-color:#ffffff"><defs
   id="defs13" />&#10;<style
   type="text/css"
   id="style1">&#10;	.st0{fill:#F9383D;}&#10;	.st1{fill:#FFFFFF;}&#10;	.st2{fill-rule:evenodd;clip-rule:evenodd;fill:#FFFFFF;}&#10;</style>&#10;&#10;&#10;&#10;&#10;&#10;&#10;&#10;&#10;&#10;&#10;&#10;&#10;&#10;<path
   d="M 265.56364,172.67477 H 134.81067 l 74.45171,-61.97182 -16.56577,60.63386 c 0,0 37.32313,-73.281489 38.76369,-76.457698 1.58743,-2.690322 2.16554,-5.85191 1.63103,-8.924906 -0.53384,-3.072928 -2.14609,-5.859018 -4.55038,-7.864671 -2.40362,-2.005719 -5.44502,-3.101699 -8.58501,-3.093853 -3.13933,0.0067 -6.17537,1.119051 -8.56893,3.136774 L 100.29662,170.37108 c -1.621825,1.25882 -2.932345,2.86905 -3.831225,4.70731 -0.89881,1.83892 -1.36216,3.85759 -1.35451,5.90173 0,7.39663 5.841165,13.44189 13.922325,13.44189 h 71.54873 c 0,0 -29.1336,61.79255 -35.29173,75.29882 -1.5877,2.69065 -2.1656,5.8521 -1.63136,8.92503 0.53451,3.07293 2.14615,5.85883 4.55031,7.86474 2.40415,2.00525 5.44536,3.10177 8.58502,3.09372 3.13972,-0.007 6.17509,-1.11932 8.56933,-3.13664 0.29508,-0.21461 108.13729,-89.77082 108.13729,-89.77082 2.19169,-1.70614 3.8006,-4.04135 4.60739,-6.68842 0.80679,-2.64706 0.77258,-5.47655 -0.0979,-8.10348 -0.87118,-2.62695 -2.53642,-4.92327 -4.76834,-6.57642 -2.23261,-1.65249 -4.92394,-2.58202 -7.70714,-2.66115 z m -96.85828,80.34212 21.24693,-58.58818 h 49.12059 z"
   fill="#000000"
   id="path2"
   style="stroke-width:6.70652" /></svg>
