<svg xmlns="http://www.w3.org/2000/svg" width="373.8" height="364.6" style="background-color:#ffffff"><path d="M265.564 172.675H134.811l74.452-61.972-16.566 60.634 38.764-76.458a13.13 13.13 0 0 0 1.631-8.925c-.534-3.073-2.146-5.859-4.55-7.865a13.35 13.35 0 0 0-8.585-3.094c-3.139.007-6.175 1.119-8.569 3.137l-111.09 92.239c-1.622 1.259-2.932 2.869-3.831 4.707s-1.362 3.858-1.355 5.902c0 7.397 5.841 13.442 13.922 13.442h71.549l-35.292 75.299a13.13 13.13 0 0 0-1.631 8.925c.535 3.073 2.146 5.859 4.55 7.865s5.445 3.102 8.585 3.094a13.35 13.35 0 0 0 8.569-3.137c.295-.215 108.137-89.771 108.137-89.771 2.192-1.706 3.801-4.041 4.607-6.688s.773-5.477-.098-8.103a13.46 13.46 0 0 0-4.768-6.576c-2.233-1.652-4.924-2.582-7.707-2.661zm-96.858 80.342l21.247-58.588h49.121z"/></svg>
