<?xml version="1.0" encoding="UTF-8" standalone="no"?>

<svg
   version="1.1"
   id="Layer_1"
   x="0px"
   y="0px"
   viewBox="0 0 373.79998 364.60001"
   xml:space="preserve"
   width="373.79999"
   height="364.60001"
   xmlns="http://www.w3.org/2000/svg"
   xmlns:svg="http://www.w3.org/2000/svg"
   style="background-color:#11b67a"><defs
   id="defs13" />&#10;<style
   type="text/css"
   id="style1">&#10;	.st0{fill:#F9383D;}&#10;	.st1{fill:#FFFFFF;}&#10;	.st2{fill-rule:evenodd;clip-rule:evenodd;fill:#FFFFFF;}&#10;</style>&#10;&#10;&#10;&#10;&#10;&#10;&#10;&#10;&#10;&#10;&#10;&#10;&#10;&#10;<g
   id="g1"
   transform="matrix(4.903995,0,0,4.903995,-959.75462,-1335.4864)"><path
     d="m 221.6809,329.9665 -0.87196,-0.61 c -0.36961,-4.3958 -1.74397,-7.0602 -2.47242,-8.4328 0.77689,-0.5131 2.06693,-1.6955 2.06693,-3.3928 0,-1.6973 -1.38513,-2.5927 -1.38513,-4.6937 0,-1.159 0.39472,-2.1261 1.03885,-2.8779 -0.41805,-0.5975 -0.90788,-0.9204 -1.63632,-0.9204 -0.81278,0 -1.54123,0.6692 -1.54123,1.6955 0,0.5975 0.26196,1.2542 0.82354,1.5412 -0.40549,0.5616 -1.44613,0.6208 -2.01848,-0.2278 h -0.0126 c 0,2.0059 2.12614,3.4036 2.12614,5.5423 0,1.3851 -1.09806,2.7236 -2.68773,2.7236 -1.18238,0 -2.293,-0.549 -2.86714,-1.6489 1.29003,0.3337 2.22123,-0.1794 2.22123,-1.3259 0,-2.0777 -3.46462,-4.1213 -3.46462,-7.6559 0,-2.7828 2.1387,-4.324 4.57523,-4.324 2.22123,0 4.20383,1.028 5.69837,3.6081 0.7644,-0.5741 1.6956,-0.8953 2.6393,-1.0873 2.5442,-0.5023 5.6625,-0.0484 8.0506,-1.0639 1.064,-0.454 1.9467,-1.2542 1.9467,-2.1746 0,-0.4414 -0.2511,-0.7051 -0.61,-0.7051 -0.1794,0 -0.4539,0.0843 -0.61,0.4772 -0.4665,-0.4055 -0.61,-0.8361 -0.61,-1.2667 0,-0.7159 0.226,-1.0514 0.4772,-1.3977 -0.2386,-0.6208 -0.9796,-0.7643 -1.482,-0.1561 -0.6208,-1.1465 -0.2386,-2.7236 1.3744,-3.2008 v -0.0126 c -1.8875,-0.3104 -2.3881,-1.48023 -2.1746,-2.78282 0.1794,0.15609 0.3821,0.25119 0.5849,0.25119 0.3104,0 0.5024,-0.25119 0.5024,-0.61003 0,-0.38217 -0.1902,-0.97964 -1.1699,-1.63632 0.8595,-1.29004 2.3415,-1.48202 3.0933,-1.00296 l 0.0125,-0.0126 c -0.3821,-0.52571 -0.5741,-1.44614 0.0359,-2.354 0.1435,0.20274 0.4898,0.50237 1.0281,0.50237 1.5771,0 1.6363,-1.73141 2.842,-1.89827 -0.0718,0.53826 0.0718,1.29004 0.741,1.29004 0.872,0 1.2775,-1.31336 1.4928,-2.12614 0.3822,0.2153 0.6567,0.58491 0.5975,1.27748 h 0.0125 l 0.5257,-1.06218 c 0.4414,0.36961 0.5257,0.9922 0.3822,1.552 -0.0359,0.14353 -0.0843,0.25118 -0.0843,0.33372 0,0.41805 1.2541,0.72845 1.2541,1.65964 0,0.1561 -0.0484,0.32296 -0.1202,0.51314 l 2.8672,3.61892 c 0.1794,0.22607 0.2386,0.4665 0.2386,0.66924 0,0.75178 -0.6567,1.55204 -1.6004,1.55204 -0.9438,0 -1.2668,-0.51319 -1.3134,-0.75182 l -2.4957,-1.21827 c -0.1436,0.23863 -0.3104,0.63336 -0.3104,1.07473 0,2.74696 3.8826,2.81866 4.8264,6.41426 l 3.8468,-1.2774 c 2.7469,2.6751 5.6499,5.2678 7.4423,6.3299 l 1.134,1.4462 h -3.4395 v -1.003 l -0.9438,-0.262 c -1.4461,-2.2696 -3.4036,-3.5112 -4.455,-3.8216 -1.2775,0.7769 -2.2338,1.5879 -3.357,2.842 1.8283,-0.1435 3.8701,0.0359 5.5782,0.3588 l -0.8953,7.6811 -0.7284,1.97 -1.9342,1.6489 v -3.3929 h 1.0389 l -0.2871,-1.0747 c 0.8487,-2.2464 0.9563,-3.7499 0.9563,-4.5627 0,-0.2512 -0.0126,-0.4898 -0.0951,-0.5741 -0.0718,-0.0718 -0.3696,0 -0.6333,0.0717 -0.6926,0.192 -1.8283,0.7285 -3.2852,1.9109 -1.3134,1.0747 -2.0311,1.5645 -3.8109,1.3618 -2.006,2.0777 -6.2582,3.0824 -9.9866,3.034 -0.2871,3.0214 -3.6315,4.7654 -3.6315,6.199 0,0.5131 0.4898,1.3492 1.5646,2.9622 1.1949,1.7924 2.3288,3.5113 3.7391,4.0621 L 233.2302,331 h -3.452 l -0.0233,-1.0388 -0.9797,-0.5383 c -1.1231,-2.0777 -2.8779,-4.3725 -5.2911,-6.522 0.5849,-1.1698 0.8953,-2.3647 0.9079,-3.5005 -1.0873,1.6364 -2.6752,1.6489 -2.9623,2.8905 -0.1076,0.4665 -0.0484,1.3744 0.2028,2.5442 0.3696,1.7673 0.7051,3.8701 2.3414,4.6829 l 1.134,1.482 h -3.4288 v -1.0388 z"
     fill="#000000"
     id="path1-6" /><path
     d="m 215.73132,306.3277 c 0.71588,0 1.73141,0.1669 2.43653,0.8236 -1.6722,-0.7644 -4.15718,-0.262 -4.3366,1.7565 -0.28708,-0.3104 -0.38217,-0.6926 -0.40549,-1.0281 -0.6208,0.2871 -1.08729,1.1465 -1.20571,2.0669 -0.48982,-2.1979 1.29003,-3.6189 3.51127,-3.6189 z m 9.25808,2.3899 c 2.3181,-0.2871 5.4706,-0.0233 8.0506,-1.3026 1.2057,-0.5975 2.424,-1.6004 2.424,-2.9622 0,-1.6363 -2.0185,-3.2493 -2.0185,-6.72472 0,-2.26967 1.003,-4.88563 3.6548,-6.30664 -1.6847,1.45689 -2.4849,3.1291 -2.4849,5.16014 0,2.03102 0.8002,4.19302 3.5005,5.25522 1.9108,0.7518 3.6906,0.7769 4.455,2.3648 -0.68,-0.5383 -1.5412,-0.7159 -2.1495,-0.7159 -3.8826,0 -5.3521,7.263 -9.9022,9.3281 0.9671,-2.5209 -1.9467,-3.3319 -4.6345,-3.2727 -2.1979,0.0485 -5.55483,0.646 -5.59071,4.1213 -0.6208,-2.3288 0.71591,-4.455 4.69361,-4.9448 z m 17.9654,-11.77718 c 0,-0.20274 0.1203,-0.54902 0.1203,-0.84866 0,-0.15609 -0.0359,-0.34628 -0.2261,-0.64412 -0.2745,-0.41805 -0.8002,-1.1465 -1.3026,-1.68476 -0.6693,-0.70512 -1.2542,-0.90787 -2.162,-0.84866 0.741,-0.40549 0.9078,-0.78766 0.9078,-1.21827 0,-0.36961 -0.2027,-0.76433 -0.5382,-1.13394 0.4772,0.0843 1.7565,0.61003 1.7565,1.3026 0,0.14353 -0.0718,0.27451 -0.2153,0.41805 l 3.0699,3.84678 c -0.1077,0.16686 -0.3463,0.0951 -0.549,0.0951 -0.131,0 -0.2153,0.0843 -0.2153,0.22787 0,0.26195 0.2027,0.58491 0.3229,0.76433 -0.0951,0.0592 -0.2745,0.13098 -0.4665,0.13098 -0.2386,0 -0.5024,-0.0843 -0.5024,-0.40549 z"
     style="fill:#006a4d"
     id="path2" /></g></svg>
