<svg xmlns="http://www.w3.org/2000/svg" width="373.8" height="364.6" style="background-color:#11b67a"><path d="M127.367 282.668l-4.276-2.991c-1.813-21.557-8.552-34.623-12.125-41.354 3.81-2.516 10.136-8.315 10.136-16.638s-6.793-12.715-6.793-23.018c0-5.684 1.936-10.426 5.095-14.113-2.05-2.93-4.452-4.514-8.025-4.514-3.986 0-7.558 3.282-7.558 8.315 0 2.93 1.285 6.151 4.039 7.558-1.989 2.754-7.092 3.044-9.899-1.117H97.9c0 9.837 10.427 16.691 10.427 27.179 0 6.793-5.385 13.357-13.181 13.357-5.798 0-11.245-2.692-14.06-8.086 6.326 1.636 10.893-.88 10.893-6.502 0-10.189-16.99-20.211-16.99-37.544 0-13.647 10.488-21.205 22.437-21.205 10.893 0 20.616 5.041 27.945 17.694 3.749-2.815 8.315-4.391 12.943-5.332 12.477-2.463 27.769-.237 39.48-5.217 5.218-2.226 9.547-6.151 9.547-10.664 0-2.165-1.231-3.458-2.991-3.458-.88 0-2.226.413-2.991 2.34-2.288-1.989-2.991-4.1-2.991-6.212 0-3.511 1.108-5.156 2.34-6.854-1.17-3.044-4.804-3.748-7.268-.766-3.044-5.622-1.17-13.357 6.74-15.697v-.062c-9.256-1.522-11.711-7.259-10.664-13.647.88.765 1.874 1.232 2.868 1.232 1.522 0 2.464-1.232 2.464-2.992 0-1.874-.933-4.804-5.737-8.025 4.215-6.326 11.483-7.268 15.17-4.919l.061-.062c-1.874-2.578-2.815-7.092.176-11.544.704.994 2.402 2.464 5.042 2.464 7.734 0 8.024-8.491 13.937-9.309-.352 2.64.352 6.326 3.634 6.326 4.276 0 6.265-6.441 7.321-10.427 1.874 1.056 3.22 2.868 2.93 6.265h.061l2.578-5.209c2.165 1.813 2.578 4.866 1.874 7.611-.176.704-.413 1.232-.413 1.637 0 2.05 6.15 3.572 6.15 8.139 0 .766-.237 1.584-.589 2.516l14.061 17.747c.88 1.109 1.17 2.288 1.17 3.282 0 3.687-3.22 7.611-7.848 7.611s-6.212-2.517-6.441-3.687l-12.239-5.974c-.704 1.17-1.522 3.106-1.522 5.27 0 13.471 19.04 13.823 23.669 31.455l18.865-6.264c13.471 13.119 27.707 25.833 36.497 31.042l5.561 7.092h-16.867v-4.919l-4.628-1.285c-7.092-11.13-16.691-17.219-21.847-18.741-6.265 3.81-10.955 7.787-16.463 13.937 8.966-.704 18.979.176 27.355 1.76l-4.391 37.668-3.572 9.661-9.485 8.086v-16.639h5.095l-1.408-5.27c4.162-11.016 4.69-18.389 4.69-22.375 0-1.232-.062-2.402-.466-2.815-.352-.352-1.813 0-3.106.352-3.397.942-8.966 3.573-16.111 9.371-6.441 5.27-9.961 7.672-18.689 6.678-9.837 10.189-30.69 15.116-48.974 14.879-1.408 14.817-17.809 23.369-17.809 30.4 0 2.516 2.402 6.616 7.673 14.527 5.86 8.79 11.42 17.219 18.337 19.921l5.86 7.145h-16.929l-.114-5.094-4.804-2.64c-5.508-10.189-14.113-21.443-25.948-31.984 2.868-5.737 4.391-11.596 4.452-17.166-5.332 8.025-13.119 8.086-14.527 14.175-.528 2.288-.237 6.74.995 12.477 1.813 8.667 3.458 18.979 11.482 22.965l5.561 7.268h-16.815v-5.094z"/><path d="M98.191 166.743c3.511 0 8.491.818 11.949 4.039-8.2-3.749-20.387-1.285-21.267 8.614-1.408-1.522-1.874-3.397-1.989-5.042-3.044 1.408-5.332 5.622-5.913 10.136-2.402-10.778 6.326-17.747 17.219-17.747zm45.402 11.72c11.368-1.408 26.828-.114 39.48-6.388 5.913-2.93 11.887-7.848 11.887-14.527 0-8.024-9.899-15.935-9.899-32.978 0-11.13 4.919-23.959 17.923-30.928-8.262 7.145-12.186 15.345-12.186 25.305s3.924 20.563 17.166 25.772c9.371 3.687 18.099 3.81 21.847 11.597-3.335-2.64-7.558-3.511-10.541-3.511-19.04 0-26.247 35.618-48.56 45.745 4.743-12.362-9.547-16.34-22.728-16.049-10.778.238-27.241 3.168-27.417 20.211-3.044-11.42 3.511-21.847 23.017-24.249zm88.102-57.755c0-.994.59-2.692.59-4.162 0-.765-.176-1.698-1.109-3.159-1.346-2.05-3.924-5.622-6.388-8.262-3.282-3.458-6.151-4.452-10.602-4.162 3.634-1.989 4.452-3.863 4.452-5.974 0-1.813-.994-3.748-2.639-5.561 2.34.413 8.614 2.992 8.614 6.388 0 .704-.352 1.346-1.056 2.05l15.055 18.865c-.528.818-1.698.466-2.692.466-.642 0-1.056.413-1.056 1.117 0 1.285.994 2.868 1.583 3.748a4.63 4.63 0 0 1-2.288.642c-1.17 0-2.464-.413-2.464-1.989z" fill="#006a4d"/></svg>
