<svg xmlns="http://www.w3.org/2000/svg" width="373.8" height="364.6">
  <rect width="373.8" height="364.6" fill="#2a74ba" />
  <g fill-rule="evenodd">
    <path fill="#2a74ba" d="M.364.35h373.073V182.3H.364z" />
    <path fill="#67b37e" d="M.364 364.468h373.291V182.3H.364z" />
    <path d="M199.737 110.471c.755 0 .755 0 .755-1.51 0-2.266 1.51-.755 3.781-.755 3.776 0 4.531 0 7.552 2.266 2.266 1.51 3.021 3.021 6.042 3.021.755 0 .755-1.51 1.51-1.51 1.51 0 1.51 2.266 1.51 3.781 0 1.506-1.51 2.266-1.51 3.776s5.287 1.51 5.287 2.266c1.51 1.51.755 3.021 2.266 3.776.755 0 1.51-.755 2.266 0 .755 0 .755.755.755 1.51-.755.755-.755 1.51-2.266 3.021-.755.755-2.271.755-3.021.755v2.266c2.266 2.266 2.266 2.266 2.266 3.021.755.755 3.021 1.51 3.021 3.021 0 .755-.755.755-2.266 1.51-.755 0-1.51 1.51-1.51 3.021.755.755.755 1.51.755 3.021 0 .755 1.51 1.51 1.51 2.266 0 1.51-1.51 2.266-2.271 2.266s-.755-1.51-2.266-1.51c-1.51.755 3.021 5.291 0 6.802-2.266.755-.755 3.021 1.51 4.531 0 0 1.51 0 4.536-.755h10.578c3.776 0 6.797 2.271 9.823 5.291 3.021 3.776 5.291 5.291 9.068 8.312s5.291 6.047 9.068 9.068c3.776 2.266 6.802 3.776 6.802 8.308 0 1.51-1.51 1.51-3.021 1.51-3.021 0-5.287 0-7.552-2.266-.755-1.51 0-3.026-.755-4.536-.755-.75-1.51 0-3.021-.75s-.755-1.51-2.266-3.026c-3.021-3.776-5.287-6.797-9.063-9.818-3.021-2.266-6.047-4.531-7.557-3.776h-2.266c-3.776 0-6.042 2.266-9.068 3.776s-3.776 1.51-5.291 1.51l-.755.755h3.021c3.021 0 4.531-.755 7.552-.755s4.531 2.266 6.047 5.291c2.266 4.531 4.531 6.797 6.797 12.084 1.51 3.776 3.021 6.802 5.291 10.578 1.51 3.026 3.776 5.291 3.776 9.068 0 1.51 0 3.026-1.51 3.026-2.266 0-3.021-.76-5.291-2.275-1.51-.75-3.021-.75-3.021-3.016 0-1.51 1.51-2.266 1.51-4.536 0-1.501-2.266-1.501-2.266-2.266-.755-3.776-.755-3.776-2.266-7.552a145.534 145.534 0 0 0-7.557-11.329c-1.51-.76-.755-1.51-3.021-1.51-.755 0-1.51.75-2.266.75-3.776 1.51-6.047 3.776-8.312 6.052-3.021 1.51-3.021 2.266-7.552 3.016-3.026 1.51-3.781-.75-6.802 0-3.021.76-7.552 3.776-10.578 4.536-2.266.75-3.776.75-8.312 1.51-3.776.75-9.823 1.501-14.354.75-9.068-1.51-13.599-2.266-14.354-1.51-.755 2.266-2.266 4.536-3.021 6.052-2.266 4.527-5.291 8.308-9.823 9.818-3.776 1.51-4.531 3.776-3.776 7.552.755 2.266.755 3.026 2.266 5.291l4.531 6.802c1.51 3.776 5.291 9.818 8.312 12.084s6.802 3.776 6.802 7.552c0 1.51-2.266.76-3.776.76-2.271 0-3.781.75-4.531-.76-1.51-1.501 0-3.016-1.51-4.527s-2.266-.76-3.776-1.51c-2.266-2.266-.755-3.026-2.266-6.042-4.531-6.802-6.802-9.828-10.578-15.119-2.266-2.266-4.531-3.776-4.531-7.552s4.531-4.527 3.776-9.068c-3.776 2.275-3.021 3.026-7.552 3.776-.755 0-2.271 0-3.021.76-.755 0-2.266.75-3.021 1.51-2.266 2.266-3.021 3.776-3.021 6.042l-.755 6.042-.755 12.844c.755 3.776 2.266 3.776 4.531 6.802 1.51 2.266 3.776 3.026 3.776 6.042 0 2.275-3.021 1.51-4.531 1.51s-3.021.76-4.531-.75c-.755-1.51 0-2.266 0-4.536-.755-3.016-5.291-3.016-4.531-6.792.755-7.562.755-16.63.755-16.63v-12.084c0-6.042 4.536-5.291 7.557-10.578 2.266-2.266 1.51-1.51 2.266-3.026 1.51-2.266 1.51-3.776.755-5.282 0-1.51-1.51-5.291 0-12.093.755-4.531 2.266-6.042 4.531-9.068h-.755c-3.021 0-2.266 3.021-3.776 3.021-.755 0-1.51-.755-1.51-1.51v-1.51c.755-.755 0-.755-.755-.755-1.51 0-1.51 1.51-3.021 1.51-.755 0-2.266-.755-2.266-1.51 0-1.51.755-1.51 1.51-3.021 1.51-1.51 0-.755 0-.755-1.51.755-3.021 1.51-3.781 3.021-.755.755-.755 2.266-1.51 2.266-1.51 0-1.51-2.266-2.266-2.266s-.755 1.51-.755 2.266c0 3.781 2.266 4.536 5.291 6.802s5.291 5.287 5.291 10.578c0 4.527-2.266 9.818-6.047 9.818h-3.04c-1.51 0-3.776 0-3.776 1.51 0 .76.755 1.51 1.51 2.266 0 .76-1.51 2.275-2.266 2.275s-1.51 0-3.021-1.51c-.755-.76-1.51-2.266-1.51-4.536 0-3.016.755-4.527 3.021-6.042 1.51-.75 4.531-1.51 4.531-3.776s-1.51-2.266-3.021-3.776c-2.266-1.51-4.531-3.026-6.802-6.047-3.021-3.776-3.776-7.557-3.776-12.844 0-9.068 6.042-15.865 13.599-15.865 2.266 0 6.802-.76 10.578 5.287 1.51 2.266 3.021 3.021 4.531 4.531.755 1.51 2.271 2.266 3.781 3.776.755 0 3.021 1.51 5.287 1.51 0 0 3.021-2.266 5.291-3.021s6.042-1.51 8.312-1.51c7.557.755 9.823 1.51 15.865 2.266 5.291.755 12.089-2.266 18.135-6.047 2.266-1.51 3.021-2.266 5.287-3.776s2.266-3.021 4.531-5.291c.755-1.51 2.266-5.287 3.021-6.797s1.51-3.781 2.266-5.291c0-2.266 0-3.021-1.51-3.021-3.021 0-5.287 2.266-7.552 4.531-1.51 1.51.755 2.271-3.021 4.531-.755.755-2.266-.755-3.776-.755-3.021 0-4.531-3.021-4.531-6.047 0-1.51 1.51-2.266 2.266-3.776 1.51-2.266.755-3.776 2.266-6.802 1.51-1.51 2.266-3.021 2.266-4.531v-1.51c0-2.266 3.776-4.531 3.776-7.557 0-1.51-2.266-2.266-2.266-3.776-.755-.755 0-1.51 0-1.51 1.51 0 2.266 1.51 3.776 2.266v-.755c0-1.51-.755-1.51-.755-3.021 0-.755 0-2.266.755-2.266 1.51 0 1.51 1.51 1.51 2.266 1.51.755 2.266.755 3.776 1.51 1.506.765 2.261 2.275 3.016 3.031z" />
    <path d="M103.788 165.622c.755 0 1.51-1.51 2.271-3.021 1.51-2.271 3.021-4.531 6.042-4.531 0 0 .755.755.755 1.51s-1.51.755-1.51 2.266c0 .755 0 .755.755.755s.755-.755 1.51-.755c2.266-.755 3.021-1.51 5.291-1.51.755 0 2.266 0 3.021.755.755 0 1.51.755 1.51 0 0-1.51-.755-2.266-1.51-3.776v-.755c-3.021-3.021-7.552-3.021-8.312-3.021-5.287.755-8.312 4.531-10.578 10.578-.755 1.506 0 1.506.755 1.506zm19.646 82.349c0 1.51.755 2.275 1.51 3.776h1.51v-1.501c-.755-1.51-.755-2.275-1.51-3.026h-1.51zm36.261-.75c.755 1.51.755 2.266 1.51 3.776h2.266v-.75c-.755-1.51-1.51-2.275-3.021-3.786zm92.172-37.021c.755.75 1.51.75 2.266 1.501v-.75s.755-.75.755-1.51c-.755-1.51-.755-3.016-2.266-3.776-.755 2.266 0 3.026-.755 4.536zm18.89-18.89c1.51-.75 1.51 0 2.266-.75h.755v-1.51c-1.51-1.51-2.266-3.026-3.776-3.026 1.51 2.271.755 5.287.755 5.287zm-55.151-57.417c0 8.312-3.026 12.089-7.557 18.135-1.51 1.51-2.266 2.266-3.021 3.776-.755.755-1.51.755-1.51 1.51 0 1.51 1.51 1.51 2.266 2.266 2.266 1.51 3.776 1.51 5.287 3.021 3.021 2.266 3.781 5.287 3.781 9.063 0 3.021-.755 4.531-.755 7.557 0 .755-.755 1.51 0 1.51 3.021-4.531 6.042-7.557 6.042-12.844 0-3.021-.755-5.287-3.021-6.802-1.51-.755-3.021-.755-3.021-3.021 0-1.51 1.51-3.776 2.266-6.042.755-3.021 3.776-10.578 3.776-18.135 0-9.068-5.287-15.865-12.844-18.886-2.266-.755-2.266.755-1.51.755 1.51 1.506 5.287 1.506 9.068 9.818.755 2.275 1.51 5.296.755 8.317zm-43.068 43.818c6.802-.755 7.557-2.266 9.068-7.557 0-.755 0-1.51.755-2.266.755-1.51 1.51-3.021 3.021-3.776.755-1.51 1.51-2.266 2.266-3.781.755-.755.755-.755 0-.755 0 .755-2.266 2.266-3.776 3.021-.755 0-2.266 1.51-3.021 1.51-6.802 3.021-9.068 3.021-12.089 3.021 0 0-2.266 0-8.312-.755-3.021 0-6.797-.755-9.823 0-6.042.755-13.599 9.068-14.354 18.886l-.755.75h1.51c.755-.75 1.51-1.501 2.266-3.016.755-.76 2.266-2.271 3.781-4.536 5.287-4.531 9.823-5.291 14.354-6.042s9.068-.755 9.823-.755c.755.755 1.51.755 1.51 2.266 0 0 0 .755-.755.755-.755.755-1.51.755-1.51 1.51 0 .765 1.51 2.275 6.042 1.52zm21.911-57.417c-1.51-.755-1.51-1.51-.755-3.021 0-2.266 0-3.021-.755-3.021s-1.51 0-2.266 1.51c-1.51.755-2.266 2.266-3.021 3.776s1.51.755 0 3.776c-2.266 3.776-3.021 4.531-3.776 7.552s-1.51 3.776-2.266 4.531.755.755 2.266 0c2.266 0 2.266 2.266 1.51 3.021-.755 1.51 0 1.51 1.51.755 1.51-1.51-.755-2.266 0-5.287 0-3.021.755-5.287 3.021-8.312 1.51-2.266 3.021-4.531 6.042-3.776.755.76 0-1.506-1.51-1.506z" fill="#59595b" />
  </g>
</svg>