<svg xmlns="http://www.w3.org/2000/svg" width="373.8" height="364.6" style="background-color:#b6cc00"><path d="M74.948 150.871v61.854h62.006v-24.14h-36.57v-37.714zm161.871 37.709h62.034v24.14h-62.034zm0-37.692h62.034v24.14h-62.034zm-15.122 20.764c2.267-2.267 3.549-5.336 3.567-8.542a13.56 13.56 0 0 0-3.926-9.142 12.79 12.79 0 0 0-9.933-3.511c-2.859.266-5.53 1.538-7.538 3.59l-22.845 24.118-22.996-24.202a12.13 12.13 0 0 0-7.207-3.461 12.76 12.76 0 0 0-10.247 3.567c-2.507 2.576-3.915 6.025-3.926 9.619a12.04 12.04 0 0 0 3.573 8.211l40.793 42.291z" fill="#fff"/></svg>
