<?xml version="1.0" encoding="UTF-8" standalone="no"?>
<svg
   version="1.1"
   id="Layer_1"
   x="0px"
   y="0px"
   viewBox="0 0 373.79998 364.60001"
   xml:space="preserve"
   width="373.79999"
   height="364.60001"
   xmlns="http://www.w3.org/2000/svg"
   xmlns:svg="http://www.w3.org/2000/svg"
   style="background-color:#b6cc00"><defs
   id="defs13" />&#10;<style
   type="text/css"
   id="style1">&#10;	.st0{fill:#F9383D;}&#10;	.st1{fill:#FFFFFF;}&#10;	.st2{fill-rule:evenodd;clip-rule:evenodd;fill:#FFFFFF;}&#10;</style>&#10;&#10;&#10;&#10;&#10;&#10;&#10;&#10;&#10;&#10;&#10;&#10;&#10;&#10;<g
   id="Layer_2"
   data-name="Layer 2"
   transform="matrix(0.56088258,0,0,0.56088258,74.94783,150.41147)"
   fill="#ffffff"><g
     id="Layer_1-2"
     data-name="Layer 1"
     fill="#ffffff"><polygon
       class="cls-1"
       points="0,0.82 0,111.1 110.55,111.1 110.55,68.06 45.35,68.06 45.35,0.82 "
       id="polygon1"
       fill="#ffffff" /><rect
       class="cls-1"
       x="288.60001"
       y="68.050003"
       width="110.6"
       height="43.040001"
       id="rect1"
       fill="#ffffff" /><rect
       class="cls-1"
       x="288.60001"
       y="0.85000002"
       width="110.6"
       height="43.040001"
       id="rect2"
       fill="#ffffff" /><path
       class="cls-1"
       d="M 261.64,37.87 A 21.71,21.71 0 0 0 268,22.64 24.18,24.18 0 0 0 261,6.34 22.81,22.81 0 0 0 243.29,0.08 21.6,21.6 0 0 0 229.85,6.48 l -40.73,43 -41,-43.15 A 21.62,21.62 0 0 0 135.27,0.16 22.75,22.75 0 0 0 117,6.52 a 24.7,24.7 0 0 0 -7,17.15 21.47,21.47 0 0 0 6.37,14.64 l 72.73,75.4 z"
       id="path2"
       fill="#ffffff" /></g></g></svg>
