<svg xmlns="http://www.w3.org/2000/svg" width="373.8" height="364.6" fill="#2f6167">
  <rect width="373.8" height="364.6" fill="#ffffff" />
  <path d="M94.527 89.927h184.746v184.746H94.527zm-6.06 190.806h196.865V83.867H88.467zm134.114-30.349c10.733 0 17.015-3.235 21.02-8.387l1.763 7.001h8.576v-32.232h-32.043v9.637h21.071c-1.335 7.96-8.49 13.591-18.589 13.591-11.109 0-21.79-7.104-21.79-22.971s9.055-22.886 20.934-22.886c11.109 0 16.501 5.204 18.555 12.016h11.879c-1.232-9.723-9.962-22.543-30.417-22.543s-32.899 13.968-32.899 33.43 13.54 33.379 31.941 33.379m-66.93-86.186l-19.839-48.596h-15.97v64.036h10.921v-48.339l19.822 48.339h9.74l19.822-48.339v48.339h11.297v-64.036h-15.97zm26.601 69.753l4.331-4.861-2.67-10.733-8.114 8.73a.77.77 0 0 1-1.147 0l-9.004-9.825c-.479-.479-.479-.993.051-1.421l2.191-1.763c5.717-4.622 8.576-9.158 8.576-14.259 0-9.209-6.967-15.645-16.929-15.645-8.199 0-16.878 5.666-16.878 16.159 0 5.58 3.441 10.253 6.333 13.488l.907.993c.428.428.428.959-.051 1.284l-1.044.805c-6.573 5.101-9.723 9.397-9.723 16.775 0 8.251 6.385 16.587 18.692 16.587 5.717 0 10.544-1.712 16.347-7.532.428-.428.959-.428 1.284-.051l5.82 6.248h13.728l-12.735-13.831c-.342-.377-.291-.856 0-1.198m-22.834-40.962c4.057 0 7.052 2.859 7.052 6.727 0 2.859-1.626 5.341-4.433 7.532l-3.338 2.568-1.951-2.191c-2.482-2.773-4.091-5.289-4.091-7.669 0-4.536 3.441-6.967 6.761-6.967m8.542 42.571c-3.013 3.201-5.871 5.341-9.911 5.341-5.204 0-8.387-3.954-8.387-7.96 0-4.622 2.807-7.206 5.478-9.295l1.677-1.284 11.674 12.684-.531.531z" />
</svg>