<?xml version="1.0" encoding="UTF-8" standalone="no"?>
<svg
   version="1.1"
   id="Layer_1"
   x="0px"
   y="0px"
   viewBox="0 0 373.79998 364.60001"
   xml:space="preserve"
   width="373.79999"
   height="364.60001"
   xmlns="http://www.w3.org/2000/svg"
   xmlns:svg="http://www.w3.org/2000/svg"
   style="background-color:#000000"><defs
   id="defs13" />&#10;<style
   type="text/css"
   id="style1">&#10;	.st0{fill:#FFFFFF;}&#10;	.st1{fill:#FFFFFF;}&#10;	.st2{fill-rule:evenodd;clip-rule:evenodd;fill:#FFFFFF;}&#10;</style>&#10;&#10;&#10;&#10;&#10;&#10;&#10;&#10;&#10;&#10;&#10;&#10;&#10;&#10;<g
   id="g2"
   transform="matrix(5.378501,0,0,5.378501,2.4174096,65.855456)"
   fill="#ffffff">&#10;			<path
   d="M 27.3,14 V 29.2 H 25.9 V 16.8 l -5,9.7 h -1 l -5,-9.7 V 29.2 H 13.5 V 14 H 15 L 20.5,24.5 25.9,14 Z m 14.9,15.5 -2.5,-2.7 c -0.9,1.4 -2.2,2.5 -4.2,2.5 -2.6,0 -4.6,-1.8 -4.6,-4.1 0,-1.9 1.2,-3 3.4,-4.3 -1.3,-1.3 -2,-2.3 -2,-3.6 0,-1.8 1.5,-3.3 3.4,-3.3 2,0 3.4,1.4 3.4,3.3 0,1.7 -1.4,2.9 -2.8,3.8 l 3.1,3.4 1.9,-3 1.1,0.7 -2.1,3.3 2.8,3 z m -7.1,-7.7 c -2,1.1 -2.9,2 -2.9,3.3 0,1.5 1.4,2.8 3.2,2.8 1.6,0 2.4,-0.7 3.3,-2.2 z m -1.5,-4.5 c 0,0.9 0.6,1.6 1.8,2.9 1.5,-0.9 2.3,-1.7 2.3,-2.9 0,-1.1 -0.8,-2 -2.1,-2 -1.2,0 -2,0.9 -2,2 m 21.4,0 -1.3,0.5 c -0.5,-1.6 -1.9,-2.6 -3.8,-2.6 -2.1,0 -3.5,1 -3.5,2.8 0,3.8 8.7,1.8 8.7,7.1 0,2.6 -2.1,4.3 -5.1,4.3 -2.8,0 -4.5,-1.4 -5.7,-3.5 l 1.2,-0.7 c 0.8,1.7 2.2,2.9 4.4,2.9 2.5,0 3.8,-1.2 3.8,-3.1 0,-3.8 -8.7,-1.9 -8.7,-7.1 0,-3.1 2.8,-4.1 4.8,-4.1 2.4,0 4.5,1.1 5.2,3.5"
   id="path1-7"
   fill="#ffffff" />&#10;		</g></svg>
