<svg xmlns="http://www.w3.org/2000/svg" width="373.8" height="364.6" style="background-color:#000000"><path d="M149.25 141.154v81.753h-7.53v-66.693l-26.893 52.171h-5.379l-26.893-52.171v66.693h-7.53v-81.753h8.068l29.582 56.474 29.044-56.474zm80.14 83.367l-13.446-14.522c-4.841 7.53-11.833 13.446-22.59 13.446-13.984 0-24.741-9.681-24.741-22.052 0-10.219 6.454-16.136 18.287-23.128-6.992-6.992-10.757-12.371-10.757-19.363 0-9.681 8.068-17.749 18.287-17.749 10.757 0 18.287 7.53 18.287 17.749 0 9.143-7.53 15.598-15.06 20.438l16.673 18.287 10.219-16.136 5.916 3.765-11.295 17.749 15.06 16.136zm-38.187-41.414c-10.757 5.916-15.598 10.757-15.598 17.749 0 8.068 7.53 15.06 17.211 15.06 8.606 0 12.908-3.765 17.749-11.833zm-8.068-24.203c0 4.841 3.227 8.606 9.681 15.598 8.068-4.841 12.371-9.143 12.371-15.598 0-5.916-4.303-10.757-11.295-10.757-6.454 0-10.757 4.841-10.757 10.757m115.1 0l-6.992 2.689c-2.689-8.606-10.219-13.984-20.438-13.984-11.295 0-18.825 5.379-18.825 15.06 0 20.438 46.793 9.681 46.793 38.187 0 13.984-11.295 23.128-27.43 23.128-15.06 0-24.203-7.53-30.657-18.825l6.454-3.765c4.303 9.143 11.833 15.598 23.665 15.598 13.446 0 20.438-6.454 20.438-16.673 0-20.438-46.793-10.219-46.793-38.187 0-16.673 15.06-22.052 25.817-22.052 12.908 0 24.203 5.916 27.968 18.825" fill="#fff"/></svg>
