<svg xmlns="http://www.w3.org/2000/svg" width="373.8" height="364.6" style="background-color:#107987"><path d="M155.13 190.02zm.016 0zm-6.583-40.07h11.334v20.289c4.432-4.261 9.38-6.051 13.722-6.051 13.935 0 25.232 11.297 25.232 25.232s-11.297 25.232-25.232 25.232c-13.975 0-25.064-10.574-25.064-25.4V149.95zm25.064 54.299c8.014 0 13.902-7.245 13.902-14.916 0-7.924-5.724-14.72-13.902-14.72-8.439 0-13.722 6.542-13.722 14.662 0 7.589 5.724 15.006 13.722 15.006m124.062 8.742H287.32v-5.88c-3.754 4.432-8.864 7.409-14.662 7.409-13.935 0-25.232-11.297-25.232-25.232s11.297-25.232 25.232-25.232c13.975 0 25.064 10.631 25.064 25.4v23.535zm-25.032-38.541c-8.014 0-13.902 7.245-13.902 14.916 0 7.924 5.724 14.72 13.902 14.72 8.439 0 13.722-6.542 13.722-14.662 0-7.589-5.724-15.006-13.722-15.006M126.37 164.097c-5.598-.053-10.979 2.162-14.916 6.141a20.65 20.65 0 0 0-14.834-6.141 21.26 21.26 0 0 0-9.192 2.069v-1.742h-11.35v48.599h11.334v-29.439c.065-5.081 4.237-9.147 9.318-9.081s9.147 4.237 9.081 9.318v29.202h11.35v-29.235a9.21 9.21 0 0 1 13.887-8.203 9.21 9.21 0 0 1 4.521 8.203v29.235h11.342v-28.384c0-12.103-9.29-20.542-20.542-20.542m96.773 0a24.67 24.67 0 0 0-11.252 2.6v-2.273h-11.334v48.599h11.334v-27.272c0-6.214 5.038-11.252 11.252-11.252s11.252 5.038 11.252 11.252v27.272h11.334v-27.092c0-13.378-10.148-21.818-22.586-21.818" fill="#fff"/></svg>