<?xml version="1.0" encoding="UTF-8" standalone="no"?>
<svg
   version="1.1"
   id="Layer_1"
   x="0px"
   y="0px"
   viewBox="0 0 373.79998 364.60001"
   xml:space="preserve"
   width="373.79999"
   height="364.60001"
   xmlns="http://www.w3.org/2000/svg"
   xmlns:svg="http://www.w3.org/2000/svg"
   style="background-color:#ffffff"><defs
   id="defs13" />&#10;<style
   type="text/css"
   id="style1">&#10;	.st0{fill:#F9383D;}&#10;	.st1{fill:#FFFFFF;}&#10;	.st2{fill-rule:evenodd;clip-rule:evenodd;fill:#FFFFFF;}&#10;</style>&#10;&#10;&#10;&#10;&#10;&#10;&#10;&#10;&#10;&#10;&#10;&#10;&#10;&#10;<g
   id="g2"
   transform="matrix(1.3151949,0,0,1.3151949,-10.379225,-14.989725)"><path
     id="path48"
     d="m 150,122.46 a 138.16,138.16 0 0 1 28,83.54 139.35,139.35 0 0 1 -1.78,22.24 H 227 a 8,8 0 0 0 8,-8 V 79.76 A 8,8 0 0 0 225,72 138.45,138.45 0 0 0 150,122.47"
     fill="#afcb3a" /><path
     id="path52"
     d="M 123.82,228.27 A 139.06,139.06 0 0 1 150,122.46 138.32,138.32 0 0 0 75,72 8,8 0 0 0 65,79.77 v 140.48 a 8,8 0 0 0 8,8 z"
     fill="#0096d8" /><path
     id="path56"
     d="m 150,122.46 a 138.17,138.17 0 0 0 -28,83.54 140.52,140.52 0 0 0 1.78,22.24 h 52.37 A 139.35,139.35 0 0 0 178,206 138.16,138.16 0 0 0 150,122.43"
     fill="#0061a3" /></g></svg>
