<svg xmlns="http://www.w3.org/2000/svg" width="373.8" height="364.6">
  <rect width="373.8" height="364.6" fill="#ffffff" />
  <path d="M186.9 146.069a181.71 181.71 0 0 1 36.825 109.871 183.27 183.27 0 0 1-2.341 29.25h66.786c5.811 0 10.522-4.711 10.522-10.522V89.91a10.52 10.52 0 0 0-13.152-10.206 182.09 182.09 0 0 0-98.64 66.378" fill="#afcb3a" />
  <path d="M152.468 285.23A182.89 182.89 0 0 1 186.9 146.069a181.92 181.92 0 0 0-98.64-66.365 10.52 10.52 0 0 0-13.152 10.219v184.759c0 5.811 4.711 10.522 10.522 10.522z" fill="#0096d8" />
  <path d="M186.9 146.069a181.72 181.72 0 0 0-36.825 109.871 184.81 184.81 0 0 0 2.341 29.25h68.877a183.27 183.27 0 0 0 2.433-29.25A181.71 181.71 0 0 0 186.9 146.03" fill="#0061a3" />
</svg>