<svg xmlns="http://www.w3.org/2000/svg" width="373.8" height="364.6">
  <rect width="373.8" height="364.6" fill="#320327" />
  <g fill="#fff">
    <path d="M289.955 119.317c-4.737 0-8.587 3.85-8.587 8.592 0 1.045.215 2.037.558 2.962l-27.283 26.271-2.194 2.113-36.504 35.154a8.56 8.56 0 0 0-3.287-.658c-1.479 0-2.853.415-4.064 1.069l-39.161-30.455c.167-.677.286-1.374.286-2.109 0-4.737-3.845-8.587-8.592-8.587-4.732 0-8.582 3.85-8.582 8.587 0 1.05.215 2.037.558 2.967l-65.981 63.539c-1.011-.425-2.123-.658-3.287-.658-4.737 0-8.582 3.85-8.582 8.587s3.845 8.592 8.582 8.592c4.747 0 8.592-3.85 8.592-8.592 0-1.045-.215-2.037-.558-2.962l11.077-10.667 18.4-17.718 36.504-35.149a8.53 8.53 0 0 0 3.277.654c1.484 0 2.858-.405 4.074-1.069l39.161 30.455c-.172.677-.291 1.374-.291 2.099a8.59 8.59 0 0 0 8.587 8.592c4.747 0 8.587-3.84 8.587-8.592 0-1.04-.21-2.027-.553-2.953l65.981-63.539a8.53 8.53 0 0 0 3.282.654c4.751 0 8.592-3.84 8.592-8.587a8.59 8.59 0 0 0-8.592-8.592m-33.696 59.06l.2 3.921c0 38.355-31.204 69.559-69.559 69.559-26.662 0-49.833-15.089-61.506-37.162l-17.665 17.012c16.506 26.391 45.745 44.003 79.172 44.003 51.588 0 93.412-41.818 93.412-93.412 0-8.305-1.193-16.315-3.225-23.977z" />
    <path d="M117.538 186.228l-.2-3.926c0-38.355 31.204-69.559 69.559-69.559 26.662 0 49.833 15.089 61.506 37.162l17.67-17.012c-16.506-26.391-45.749-44.003-79.176-44.003-51.588 0-93.412 41.818-93.412 93.412 0 8.305 1.193 16.315 3.225 23.981z" />
  </g>
</svg>