<?xml version="1.0" encoding="UTF-8" standalone="no"?>
<svg
   version="1.1"
   id="Layer_1"
   x="0px"
   y="0px"
   viewBox="0 0 373.79998 364.60001"
   xml:space="preserve"
   width="373.79999"
   height="364.60001"
   xmlns="http://www.w3.org/2000/svg"
   xmlns:svg="http://www.w3.org/2000/svg"
   style="background-color:#320327"><defs
   id="defs13" />&#10;<style
   type="text/css"
   id="style1">&#10;	.st0{fill:#F9383D;}&#10;	.st1{fill:#FFFFFF;}&#10;	.st2{fill-rule:evenodd;clip-rule:evenodd;fill:#FFFFFF;}&#10;</style>&#10;&#10;&#10;&#10;&#10;&#10;&#10;&#10;&#10;&#10;&#10;&#10;&#10;&#10;<g
   id="g11"
   transform="matrix(4.3548917,0,0,4.3548917,75.251616,88.888142)"><path
     d="m 49.301712,6.9873751 c -1.087772,0 -1.971793,0.8840202 -1.971793,1.9728878 0,0.2399014 0.0493,0.467753 0.128167,0.6802684 l -6.264823,6.0325897 -0.503903,0.48528 -8.382308,8.072299 c -0.232233,-0.0964 -0.487471,-0.151171 -0.754758,-0.151171 -0.339587,0 -0.655074,0.0953 -0.933316,0.245379 L 21.62651,17.331617 c 0.03834,-0.155552 0.06573,-0.315487 0.06573,-0.484184 0,-1.087773 -0.882925,-1.971793 -1.972888,-1.971793 -1.086677,0 -1.970697,0.88402 -1.970697,1.971793 0,0.240996 0.0493,0.467753 0.128167,0.681363 L 2.7257839,32.118965 C 2.4935506,32.021471 2.238313,31.967794 1.9710256,31.967794 c -1.08777214,0 -1.97069696716,0.88402 -1.97069696716,1.971792 0,1.088868 0.88292482716,1.972888 1.97069696716,1.972888 1.089963,0 1.9728879,-0.88402 1.9728879,-1.972888 0,-0.239901 -0.049295,-0.467752 -0.1281666,-0.680268 l 2.5436123,-2.449404 4.2251128,-4.068465 8.382309,-8.071204 c 0.232233,0.0964 0.486375,0.150075 0.752567,0.150075 0.340682,0 0.656169,-0.09311 0.935506,-0.245378 l 8.992469,6.99329 c -0.03944,0.155553 -0.06682,0.315487 -0.06682,0.481994 0,1.091058 0.88402,1.972888 1.971793,1.972888 1.089963,0 1.971792,-0.88183 1.971792,-1.972888 0,-0.238806 -0.0482,-0.465562 -0.127071,-0.678078 L 48.548049,10.78198 c 0.232233,0.0964 0.486375,0.150075 0.753663,0.150075 1.091058,0 1.972887,-0.881829 1.972887,-1.9717921 0,-1.0888676 -0.881829,-1.9728878 -1.972887,-1.9728878"
     id="path7"
     fill="#ffffff" /><path
     d="m 41.56407,20.549035 c 0.01643,0.30015 0.04601,0.597015 0.04601,0.900452 0,8.807339 -7.165275,15.972613 -15.972614,15.972613 -6.122415,0 -11.442969,-3.464877 -14.123511,-8.533479 l -4.056415,3.90634 c 3.790223,6.059975 10.504176,10.104341 18.179926,10.104341 11.846091,0 21.449815,-9.602629 21.449815,-21.449815 0,-1.907162 -0.27386,-3.746406 -0.740517,-5.505683 z"
     id="path8"
     fill="#ffffff" /><path
     d="m 9.7102013,22.351801 c -0.016432,-0.300151 -0.046008,-0.597015 -0.046008,-0.901548 0,-8.807339 7.1652737,-15.9726137 15.9726137,-15.9726137 6.122415,0 11.442968,3.4648775 14.123511,8.5334797 l 4.05751,-3.90634 C 40.027605,4.0448035 33.312556,4.3817313e-4 25.636807,4.3817313e-4 13.790716,4.3817313e-4 4.1869916,9.6030672 4.1869916,21.450253 c 0,1.907162 0.2738601,3.746406 0.7405176,5.506778 z"
     id="path9"
     fill="#ffffff" /></g></svg>
