<svg xmlns="http://www.w3.org/2000/svg" width="373.8" height="364.6" style="background-color:#004048"><path d="M253.137 74.995l-33.54 12.214L186.9 74.995l-33.55 12.214-32.687-12.214-35.49 13.433v159.734l35.49 13.405 30.747-11.474v26.266l35.49 13.246 35.49-13.246v-26.313l30.747 11.464 35.49-13.339V88.437zM118.291 99.986v155.61l-28.385-10.574V91.681l30.7-11.661 25.938 9.693zm66.247 0v183.797l-28.403-10.574V91.212l30.719-11.193 25.929 9.683zm66.237 0v155.61l-28.385-10.574V91.212l30.7-11.193 25.882 9.683z" fill="#fff"/></svg>
