<svg xmlns="http://www.w3.org/2000/svg" width="373.8" height="364.6" style="background-color:#112231"><path d="M305.052 231.08c0 2.932-1.256 5.863-3.35 7.957l-48.999 48.161a4.19 4.19 0 0 1-7.538-2.932V174.962l59.05-58.631h.838z" fill="#ff4f40"/><path d="M68.853 231.08c0 2.932 1.256 5.863 3.35 7.957l48.999 48.161a4.19 4.19 0 0 0 7.538-2.932V174.962l-59.05-58.631h-.838z" fill="#0088a6"/><path d="M128.74 218.097l-59.887-58.212V116.75l59.468 60.306v41.042z" fill="url(#b)" style="mix-blend-mode:multiply"/><path d="M245.164 216.422l59.887-58.631V116.75l-59.887 60.306z" fill="url(#c)" style="mix-blend-mode:multiply"/><path d="M304.214 114.656l-37.691-37.691a4.19 4.19 0 0 0-2.932-1.256 4.19 4.19 0 0 0-3.35 1.256l-72.451 72.87-.838.419v83.758l2.513-1.256 56.537-56.537 58.631-57.793v-3.769z" fill="#bbf42e"/><path d="M186.115 149.834l-72.87-72.87a4.19 4.19 0 0 0-5.863 0l-37.691 37.691c-1.256 1.256-1.256 2.513 0 3.769l58.212 57.793 56.537 56.537c.419.838 1.675 1.256 2.513 1.256v-83.758z" fill="#48d3b2"/></svg>
