<svg xmlns="http://www.w3.org/2000/svg" width="373.8" height="364.6" style="background-color:#00585c"><path d="M267.739 276.412c.894 2.847 1.216 4.22 1.216 5.181 0 1.219-.479 1.899-2.026 2.592-7.465 3.349-20.246 5.288-33.582 5.288-13.464 0-26.12-1.943-33.582-5.288-1.547-.693-2.026-1.373-2.026-2.592 0-.961.322-2.334 1.216-5.181.318-1.015.81-2.488 1.387-4.163 1.541-4.471 2.157-5.781 4.816-4.876 5.938 2.023 12.914 3.436 17.68 3.764v-62.673c-6.806-.479-15.731-2.05-20.855-4.006-1.397-.536-2.093-1.316-2.093-3.209 0-1.259.352-3.004 1.028-5.499l.573-2.023c1.668-5.831 2.653-7.301 5.188-6.611 9.368 2.545 17.486 3.885 26.67 3.885s17.298-1.34 26.67-3.885c2.535-.69 3.517.78 5.188 6.611l.569 2.023c.68 2.495 1.028 4.24 1.028 5.499 0 1.892-.693 2.673-2.09 3.209-5.124 1.956-14.05 3.527-20.855 4.006v62.673c4.766-.328 11.742-1.742 17.684-3.764 2.656-.904 3.269.402 4.813 4.876l1.387 4.163m-80.869-2.11l-8.537-8.356c5.412-10.034 8.031-22.624 8.031-34.687 0-2.472-1.179-2.964-6.39-2.964h-3.959c-5.787 0-6.363.727-6.444 3.075-.261 8.078-1.51 15.641-3.952 21.947-8.269-8.306-15.647-15.929-21.351-22.155-8.105-8.842-10.215-12.308-10.215-16.903 0-5.543 3.898-9.706 12.593-9.706 5.318 0 11.203 1.497 18.24 4.17.864.328 1.547.502 2.11.502 1.698 0 2.344-1.547 3.694-5.218l1.778-4.89c.63-1.825.971-3.054.971-3.962 0-1.35-.713-1.943-2.294-2.709-6.685-3.239-16.19-5.486-25.444-5.486-17.761 0-31.275 8.725-31.275 26.469 0 6.162 2.083 11.682 6.035 17.426-10.225 6.665-15.617 16.27-15.617 27.53 0 18.263 15.463 31.09 34.373 31.09 10.975 0 20.008-3.53 27.088-9.468l7.452 7.388c.985.961 1.738 1.497 2.569 1.521 1.33.037 2.864-1.233 5.878-4.166l2.076-2.01c2.85-2.716 4.166-4.3 4.166-5.72 0-.924-.549-1.718-1.574-2.72m-44.035-3.463c-10.248 0-16.317-6.598-16.317-15.386 0-5.215 2.053-9.428 5.556-12.573a1574.797 1574.797 0 0 0 22.309 24.462c-3.245 2.254-7.084 3.497-11.548 3.497m57.1-110.697l1.802-3.54c1.996-3.912 2.894-5.416 4.364-5.416.717 0 1.514.368 2.639.988 7.783 4.274 16.89 7.318 24.56 7.318 11.247 0 15.242-5.154 15.242-10.701 0-6.236-4.203-9.1-14.619-13.574l-9.076-3.858c-16.012-6.648-24.878-14.619-24.878-28.88 0-19.211 15.242-27.349 34.259-27.349 10.399 0 21.488 2.542 28.987 6.755 1.078.603 1.611 1.259 1.611 2.291 0 1.179-.65 2.833-1.882 5.442l-1.708 3.617c-1.785 3.744-2.586 5.057-3.969 5.057-.693 0-1.524-.335-2.689-.867-6.715-3.031-13.464-4.649-19.827-4.649-8.205 0-14.515 2.565-14.515 8.966 0 5.272 3.805 8.182 13.571 12.305l7.931 3.386c17.975 7.552 27.215 15.235 27.215 30.879 0 18.263-14.415 29.332-35.438 29.332-13.099 0-26.147-4.364-33.74-9.237-1.296-.831-2.043-1.507-2.043-2.549 0-1.162.663-2.699 2.204-5.717m-14.586-82.473v94.33c0 1.963-.683 2.539-8.581 2.539h-2.442c-8.195 0-9.049-.402-10.315-3.577l-1.658-4.18c-9.713-24.704-23.257-48.041-35.702-63.232v68.45c0 1.963-.683 2.539-8.581 2.539h-1.554c-7.894 0-8.577-.576-8.577-2.539v-94.33c0-1.963.683-2.539 8.574-2.539h3.684c5.593 0 8.118.616 10.808 3.399l1.855 1.932c10.446 10.985 27.617 36.627 33.776 51.664V77.665c0-1.963.68-2.539 8.577-2.539h1.554c7.897 0 8.581.576 8.581 2.539" fill="#fff"/></svg>
