<?xml version="1.0" encoding="UTF-8" standalone="no"?>
<svg
   version="1.1"
   id="Layer_1"
   x="0px"
   y="0px"
   viewBox="0 0 373.79998 364.60001"
   xml:space="preserve"
   width="373.79999"
   height="364.60001"
   xmlns="http://www.w3.org/2000/svg"
   xmlns:svg="http://www.w3.org/2000/svg"
   style="background-color:#00585c"><defs
   id="defs13" />&#10;<style
   type="text/css"
   id="style1">&#10;	.st0{fill:#F9383D;}&#10;	.st1{fill:#FFFFFF;}&#10;	.st2{fill-rule:evenodd;clip-rule:evenodd;fill:#FFFFFF;}&#10;</style>&#10;&#10;&#10;&#10;&#10;&#10;&#10;&#10;&#10;&#10;&#10;&#10;&#10;&#10;<path
   d="m 267.73908,276.41188 c 0.89423,2.8468 1.21575,4.21996 1.21575,5.18118 0,1.2191 -0.47893,1.89898 -2.02625,2.59226 -7.46532,3.34918 -20.24578,5.28835 -33.5822,5.28835 -13.46369,0 -26.12023,-1.94252 -33.5822,-5.28835 -1.54732,-0.69328 -2.02625,-1.37316 -2.02625,-2.59226 0,-0.96122 0.32152,-2.33438 1.21575,-5.18118 0.31817,-1.0148 0.8105,-2.48844 1.38656,-4.16303 1.54062,-4.47115 2.15687,-5.78068 4.81612,-4.8764 5.93809,2.0229 12.91442,3.43626 17.6803,3.76448 v -62.67316 c -6.80553,-0.47893 -15.73108,-2.04969 -20.85532,-4.00561 -1.39661,-0.53587 -2.09324,-1.31623 -2.09324,-3.20851 0,-1.25929 0.35166,-3.00422 1.0282,-5.49935 0.16411,-0.59616 0.34496,-1.22245 0.57271,-2.02291 1.66789,-5.83091 2.65254,-7.3012 5.18787,-6.61127 9.36765,2.54537 17.48606,3.88504 26.6695,3.88504 9.18344,0 17.2985,-1.33967 26.6695,-3.88504 2.53532,-0.68993 3.51663,0.78036 5.18787,6.61127 0.23109,0.80381 0.4086,1.42675 0.56936,2.02291 0.67988,2.49513 1.0282,4.24006 1.0282,5.49935 0,1.89228 -0.69328,2.67264 -2.08989,3.20851 -5.12424,1.95592 -14.0498,3.52668 -20.85532,4.00561 v 62.67316 c 4.76588,-0.32822 11.74221,-1.74158 17.68365,-3.76448 2.6559,-0.90428 3.2688,0.4019 4.81277,4.8764 0.57606,1.67459 1.06839,3.14823 1.38656,4.16303 m -80.86923,-2.10998 c -2.88029,-2.80661 -5.73044,-5.59648 -8.53705,-8.3562 5.41227,-10.03413 8.03132,-22.62369 8.03132,-34.68743 0,-2.47169 -1.17891,-2.96402 -6.39023,-2.96402 h -3.95872 c -5.78738,0 -6.36344,0.72677 -6.44382,3.07455 -0.26124,8.07821 -1.51048,15.64065 -3.95203,21.94715 -8.26912,-8.30596 -15.64736,-15.92868 -21.351,-22.1548 -8.10501,-8.84183 -10.21499,-12.30823 -10.21499,-16.9033 0,-5.54289 3.89844,-9.70591 12.5929,-9.70591 5.31849,0 11.203,1.49708 18.23962,4.16972 0.86409,0.32822 1.54732,0.50238 2.10998,0.50238 1.69803,0 2.34443,-1.54732 3.69414,-5.21802 0.56936,-1.53057 1.28609,-3.46305 1.77842,-4.8898 0.62964,-1.8253 0.97126,-3.05445 0.97126,-3.96208 0,-1.34971 -0.71338,-1.94252 -2.29419,-2.70948 -6.68496,-3.23865 -16.18992,-5.48595 -25.4437,-5.48595 -17.76068,0 -31.27461,8.7246 -31.27461,26.46854 0,6.16249 2.08319,11.68193 6.03521,17.42577 -10.22503,6.66487 -15.61721,16.27031 -15.61721,27.53024 0,18.26306 15.46315,31.09041 34.37261,31.09041 10.97525,0 20.00798,-3.53003 27.08814,-9.46812 2.68269,2.69943 5.20462,5.20127 7.45192,7.38828 0.98466,0.96121 1.73822,1.49708 2.56882,1.52053 1.32962,0.0368 2.86354,-1.2325 5.8778,-4.16638 0.8373,-0.81385 1.37317,-1.33632 2.07649,-2.00951 2.85015,-2.71618 4.16638,-4.30034 4.16638,-5.72039 0,-0.92437 -0.54926,-1.71813 -1.57411,-2.71953 m -44.03498,-3.46305 c -10.24849,0 -16.31719,-6.59788 -16.31719,-15.38612 0,-5.21467 2.05304,-9.42793 5.55628,-12.57281 a 1574.7965,1574.7965 0 0 0 22.30887,24.46239 c -3.24535,2.25399 -7.08351,3.49654 -11.54796,3.49654 m 57.10012,-110.697 1.80185,-3.54008 c 1.99611,-3.91184 2.89369,-5.41562 4.36398,-5.41562 0.71673,0 1.51383,0.36841 2.63915,0.98801 7.78349,4.27355 16.8899,7.31795 24.55952,7.31795 11.24654,0 15.2421,-5.15439 15.2421,-10.70062 0,-6.23617 -4.20321,-9.09972 -14.61915,-13.57422 -3.52669,-1.51048 -5.6936,-2.45495 -9.07627,-3.85825 -16.01242,-6.64812 -24.87769,-14.61916 -24.87769,-28.87995 0,-19.210884 15.2421,-27.349384 34.25873,-27.349384 10.3992,0 21.48832,2.542025 28.98713,6.75529 1.07843,0.602852 1.61095,1.259291 1.61095,2.290837 0,1.17891 -0.64974,2.833404 -1.88223,5.442413 -0.76027,1.621002 -1.12533,2.398011 -1.70808,3.617111 -1.78512,3.74438 -2.58557,5.057258 -3.96878,5.057258 -0.69328,0 -1.52387,-0.334918 -2.68939,-0.867437 -6.7151,-3.031006 -13.46369,-4.648658 -19.82713,-4.648658 -8.20548,0 -14.51533,2.56547 -14.51533,8.96575 0,5.2716 3.80466,8.18204 13.57087,12.30487 3.02765,1.27604 4.55488,1.96932 7.93085,3.38602 17.97503,7.5524 27.21541,15.23541 27.21541,30.87941 0,18.26307 -14.41486,29.3321 -35.43764,29.3321 -13.09863,0 -26.14703,-4.36398 -33.73961,-9.23703 -1.29613,-0.8306 -2.043,-1.50713 -2.043,-2.54873 0,-1.16216 0.66314,-2.69943 2.20376,-5.71704 M 185.35267,77.665012 v 94.329568 c 0,1.96262 -0.68323,2.53868 -8.58059,2.53868 h -2.44155 c -8.19544,0 -9.04948,-0.4019 -10.31547,-3.57692 -0.75356,-1.87889 -1.08513,-2.72623 -1.65784,-4.17977 -9.71261,-24.70353 -23.25669,-48.0406 -35.70223,-63.23247 v 68.45048 c 0,1.96262 -0.68323,2.53868 -8.58059,2.53868 h -1.55402 c -7.89401,0 -8.57724,-0.57606 -8.57724,-2.53868 V 77.665012 c 0,-1.962618 0.68323,-2.538676 8.57389,-2.538676 h 3.6841 c 5.59312,0 8.1184,0.616248 10.80779,3.399414 l 1.85545,1.932476 c 10.44608,10.985301 27.61731,36.626604 33.77645,51.664404 V 77.665012 c 0,-1.962618 0.67988,-2.538676 8.57724,-2.538676 h 1.55402 c 7.89736,0 8.58059,0.576058 8.58059,2.538676"
   fill="#ffffff"
   fill-rule="nonzero"
   id="path1-7"
   style="stroke-width:3.34918" /></svg>
