<?xml version="1.0" encoding="UTF-8" standalone="no"?>
<svg
   version="1.1"
   id="Layer_1"
   x="0px"
   y="0px"
   viewBox="0 0 373.79998 364.60001"
   xml:space="preserve"
   width="373.79999"
   height="364.60001"
   xmlns="http://www.w3.org/2000/svg"
   xmlns:svg="http://www.w3.org/2000/svg"
   style="background-color:#3c1053"><defs
   id="defs13"><linearGradient
     x1="39.877254"
     y1="67.052444"
     x2="51.221699"
     y2="70.833336"
     id="linearGradient-1"
     gradientTransform="scale(1.3162483,0.7597351)"
     gradientUnits="userSpaceOnUse"><stop
       stop-color="#C20000"
       stop-opacity="0.1"
       offset="0%"
       id="stop1" /><stop
       stop-color="#C20000"
       stop-opacity="0.2"
       offset="24%"
       id="stop2" /><stop
       stop-color="#C20000"
       stop-opacity="0.44"
       offset="72%"
       id="stop3" /><stop
       stop-color="#C20000"
       stop-opacity="0.6"
       offset="100%"
       id="stop4" /></linearGradient><linearGradient
     x1="39.008945"
     y1="54.277645"
     x2="31.098743"
     y2="59.722172"
     id="linearGradient-2"
     gradientTransform="scale(1.3158341,0.75997422)"
     gradientUnits="userSpaceOnUse"><stop
       stop-color="#C20000"
       stop-opacity="0.1"
       offset="0%"
       id="stop5" /><stop
       stop-color="#C20000"
       stop-opacity="0.2"
       offset="20%"
       id="stop6" /><stop
       stop-color="#C20000"
       stop-opacity="0.44"
       offset="61%"
       id="stop7" /><stop
       stop-color="#C20000"
       stop-opacity="0.7"
       offset="100%"
       id="stop8" /></linearGradient><linearGradient
     x1="62.93074"
     y1="35.457115"
     x2="67.769394"
     y2="44.831448"
     id="linearGradient-3"
     gradientTransform="scale(0.65810363,1.5195175)"
     gradientUnits="userSpaceOnUse"><stop
       stop-color="#C20000"
       stop-opacity="0.1"
       offset="0%"
       id="stop9" /><stop
       stop-color="#C20000"
       stop-opacity="0.2"
       offset="20%"
       id="stop10" /><stop
       stop-color="#C20000"
       stop-opacity="0.44"
       offset="61%"
       id="stop11" /><stop
       stop-color="#C20000"
       stop-opacity="0.7"
       offset="100%"
       id="stop12" /></linearGradient></defs>&#10;<style
   type="text/css"
   id="style1">&#10;	.st0{fill:#F9383D;}&#10;	.st1{fill:#FFFFFF;}&#10;	.st2{fill-rule:evenodd;clip-rule:evenodd;fill:#FFFFFF;}&#10;</style>&#10;&#10;&#10;&#10;&#10;&#10;&#10;&#10;&#10;&#10;&#10;&#10;&#10;&#10;<g
   id="g20"
   transform="matrix(3.2124323,0,0,3.2124323,26.277259,27.87517)"><g
     id="Group"
     transform="translate(15.170106,17.908)"><polygon
       id="polygon12"
       fill="#e90000"
       points="39.810277,60.326 59.712415,60.326 59.716415,60.326 49.766346,43.084 29.866208,43.084 " /><polygon
       id="polygon13"
       fill="#c20000"
       points="69.660485,43.092 59.716415,60.326 49.766346,43.084 59.710415,25.86 " /><polygon
       id="polygon14"
       fill="#e90000"
       points="24.882173,0 14.938104,17.226 34.836242,17.226 44.780312,0.002 44.782311,0 " /><polygon
       id="polygon15"
       fill="#c20000"
       points="44.786312,34.464 54.730381,17.234 44.780312,0 34.836242,17.226 " /><polygon
       id="polygon16"
       fill="#e90000"
       points="29.850208,25.858 9.9500692,25.858 0.0060000417,43.082 0,43.09 19.906139,43.082 " /><polygon
       id="polygon17"
       fill="#c20000"
       points="29.848208,60.326 9.9500692,60.326 0,43.09 0.0060000417,43.082 19.906139,43.082 29.854208,60.326 " /></g><polygon
     id="polygon18"
     fill="url(#linearGradient-1)"
     points="64.920452,43.766 59.954417,52.37 50.004348,52.37 45.036313,60.992 64.936452,60.992 74.880521,43.766 "
     style="fill:url(#linearGradient-1)" /><polygon
     id="polygon19"
     fill="url(#linearGradient-2)"
     points="35.102244,43.766 45.018313,43.766 50.004348,52.37 59.954417,52.37 50.006348,35.132 30.108209,35.132 "
     style="fill:url(#linearGradient-2)" /><polygon
     id="polygon20"
     fill="url(#linearGradient-3)"
     points="49.996348,69.592 45.036313,60.992 50.004348,52.37 45.018313,43.766 35.076244,60.99 45.024313,78.234 "
     style="fill:url(#linearGradient-3)" /></g></svg>
