<svg xmlns="http://www.w3.org/2000/svg" width="373.8" height="364.6">
  <rect width="373.8" height="364.6" fill="#000000" />
  <g fill="#f7ca32">
    <path d="M180.874 85.645s1.439-4.317 0-7.195-4.317-5.036-6.475-1.439c0 0-2.159 4.316-2.159 7.195v6.475s.719 3.597 3.597 3.597c3.597 0 4.316-2.878 5.036-8.633zm.72 10.793c-8.633 6.475 1.439 7.914 1.439 7.914 2.878 0 2.878 1.439-1.439 3.597-4.317 2.878-5.756 6.475-5.036 9.353 0 2.878 1.439 5.036 7.914 3.597s7.914-7.195 7.914-7.195 0-5.756 1.439-7.914 4.316 0 4.316 0-.719 1.439-.719 5.756c-.72 8.633 8.633.72 10.072-1.439s7.195-6.475 10.072-7.195c2.878-1.439 6.475-1.439 6.475-6.475s-8.633-3.597-10.792-3.597-10.072 2.159-13.67 6.475c-1.439 2.159-4.316 1.439-5.036 0 0-1.439-.719-2.878 1.439-4.316s2.159-2.159 3.597-8.633-3.597-6.476-5.036-5.756-5.036 5.756-5.036 7.195-1.439 5.036-1.439 5.036-2.159.719-6.475 3.597zm51.082-16.548c-3.597-.72-10.072-.72-12.231 2.159s-.72 7.914 7.195 6.475c9.353-.72 13.67-6.475 5.036-8.633zm4.316 12.95s-5.036.719-6.476 2.878-.719 3.597 0 4.316 1.439 3.597-1.439 2.878c-4.316-.72-12.231 4.316-1.439 7.195s8.633 0 13.67 2.158 14.389-5.755 4.317-8.633c0 0-5.036.72-2.878-3.597 3.597-5.036 3.597-9.353-5.755-7.194zm26.619 17.986s-10.792-5.036-5.756 4.317c2.159 3.597 5.036 4.316 6.475 2.158 2.159-2.158 1.439-3.597-.719-6.475zm-.719 14.389s-12.231-6.475-5.036 4.317c2.159 3.597 5.036 7.195 7.195 5.036 1.439-2.159 1.439-6.475-2.159-9.353zm-22.303-7.195c-4.316 0-3.597 2.878-3.597 3.597s.72 1.439 2.878 3.597c1.439 1.439 3.597 3.597 5.755.72s.72-5.756-1.439-7.195c-1.439 0-.719 0-3.597-.72zm-25.18 10.792s12.231-5.756 13.67-9.353c.72-2.158 1.439-5.755-5.036-5.755-3.597 0-8.633 5.036-8.633 5.036-1.439 1.439-5.036-1.439-2.878 0 0 0-7.195-2.159-12.95 4.316-5.036 6.476 0 10.792 3.597 8.633s6.475-7.195 7.914-4.316c2.159 2.159 2.878 2.159 4.316 1.439zm-30.936 5.756c1.439-1.439 2.159-2.878 5.756-4.317 5.036-2.158 1.439-5.036-2.878-5.755-3.597-.72-5.756 5.036-5.756 5.036-.72 7.914 2.159 6.475 2.878 5.036zm-20.144-38.85s-2.159-.72-1.439-3.597.719-4.317-3.597-6.475-9.353-1.439-8.633 2.878c0 3.597-1.439 2.159-2.159 2.878s-4.316 5.036 2.159 7.195 9.353 5.756 12.95 9.353c1.439 2.158 7.195 4.316 6.475-2.878-1.439-7.194-5.755-9.353-5.755-9.353zm-28.062-.72c-3.597-.72-6.475 0-4.316 4.316 2.878 4.317 5.756 2.878 6.475 2.878 0 0 2.878-2.159.72-4.317-.72-1.439-2.878-2.878-2.878-2.878zm-12.949 20.144s5.756-8.633-5.036-5.755c-4.316.719-7.914 4.316-8.633 6.475-1.439 1.439-3.597 12.231 3.597 7.195 7.914-5.036 10.072-7.914 10.072-7.914z" />
    <path d="M167.203 137.445s7.195-2.878 4.317-7.914c-2.139-3.744-4.676-3.91-6.723-4.043-.707-.047-1.356-.089-1.91-.274-2.159-.719-3.597-1.439-2.159-3.597 1.439-1.439 5.756-5.755-4.317-10.072-1.374-.549-2.433-.364-3.338-.206-1.464.256-2.523.441-3.856-2.671-2.159-5.036-10.792-2.159-13.67-.72-3.597 1.439-11.511 9.353-10.791 10.792 1.439 3.597 2.159 4.317 7.195 2.878 3.597-.719 7.194 0 4.316 2.878s-3.597 2.878-5.756 1.439c-2.878-1.439-5.755-1.439-10.072 2.159-1.423 1.423-2.768 2.611-3.906 3.617-2.313 2.044-3.77 3.332-3.288 4.296.741.741 1.481.528 2.124.344.606-.174 1.124-.322 1.473.376.72 1.439 0 2.158-3.597 3.597s-12.95 8.633-10.792 17.267c.719 4.316 5.756 1.439 7.914-3.597.719-2.159 9.353-8.633 7.914-2.159 0 0-1.439 2.878-4.317 5.036s-9.353 8.633-5.756 11.511c2.995 2.397 3.995 1.301 5.908-.795.384-.421.805-.882 1.287-1.363 2.878-2.878 9.353-6.476 6.475 0 0 0-6.475 2.878-.719 7.194s10.072-.719 11.511-4.316 6.475-11.511 8.633-12.95c2.878-1.439 10.792-2.158 5.756 5.036-4.317 7.195-5.036 8.633-2.878 10.073s1.439 3.597.72 4.316c0 .72 1.439 12.95 7.195 7.195.239-.24.579-.64.976-1.106 1.982-2.332 5.379-6.328 4.78-.333-.28 2.518-.342 4.926-.398 7.1h0c-.089 3.416-.161 6.25-1.041 8.009-2.158 2.159-4.316 4.316-3.597 9.353.258 1.806.608 2.224.852 2.515.437.521.532.634-.852 7.557-2.158 10.072-4.316 20.144-7.194 27.339-1.782 5.941-4.547 17.28-5.861 22.671h0l-.615 2.509c-.157.631-.523 1.435-.929 2.328-1.446 3.181-3.407 7.498 1.648 9.183 5.866 1.955 7.008 1.549 8.775.921l.578-.201c1.553-.388 3.317.901 5.517 2.509 1.874 1.37 4.065 2.973 6.713 3.966.977.245 1.85.489 2.648.712h.001c3.903 1.091 5.999 1.678 9.582-.712 0 0 2.878-1.439 7.914-.719 4.637 1.325 8.055-1.011 10.252-2.512l.001-.001.538-.365c1.296-.863 3.368-.172 5.44.518 1.381.461 2.762.921 3.914.921 1.078 0 2.356-.403 3.837-.871 2.475-.78 5.512-1.738 9.114-1.288 3.597.719 9.353-3.597 7.914-6.475s-10.792-43.167-10.792-58.995v-12.95c0-1.439 1.439-7.194 2.159 1.439l.074.819h0c.742 8.193 2.18 24.05 4.962 35.872 2.021 8.589 5.106 18.95 7.013 25.357l.001.001 1.62 5.578c.72 2.878 2.878 9.353 9.353 4.317 4.049-3.037 3.113-4.294 1.451-6.525-.701-.941-1.531-2.054-2.17-3.547 0 0-13.67-28.059-15.108-43.887-.595-6.248-1.19-10.896-1.633-14.352h0c-.627-4.901-.947-7.404-.526-8.671.139-.279.495-.639.947-1.096 1.877-1.9 5.41-5.475 1.93-11.854l-.664-1.147c-2.312-3.957-2.755-4.716-.774-13.961l.227-1.492c.558-3.853 1.067-7.369 5.529-3.545 5.036 4.316 8.633-2.159 8.633-5.036s0-15.109-7.195-17.267c-6.802-2.041-6.53 6.208-6.48 7.722v.001l.005.19a6.1 6.1 0 0 0 .008.23c.061 1.359.311 6.965-5.044 6.965-5.756.719-11.512 2.159-12.95 10.072s4.317 7.195 5.756 5.036c.719-2.159 2.878-6.475 3.597-1.439s.719 8.633.719 9.353c0 0 0 7.914-2.158 2.159-2.287-4.574-3.666-.969-4.857 2.149h0c-.308.805-.603 1.577-.899 2.168l-.038.152c-.713 2.876-1.752 7.068-21.546 8.482-2.878 0-3.597 0-3.597-2.878s0-12.231 1.439-14.389c.719-2.159 2.878-4.317 4.316-1.439 1.439 3.597 3.597 3.597 4.317 2.878s2.158-1.439 2.158 1.439 1.439 7.914 3.597 6.475c3.245-1.298 2.978-10.202 2.894-12.993h0l-.016-.675c0-1.439 0-12.231 2.878-19.425 1.439-3.597-2.159-12.95-7.914-2.159-3.14 5.494-3.711 9.062-4.048 11.169-.281 1.757-.4 2.5-1.708 2.5-2.878 0-3.597-1.439-2.878-5.756s-.72-10.792-9.353-4.316c0 0-6.475 5.755-7.195 7.195s-5.036 4.316-4.316-1.439 1.439-10.791 7.195-11.511c5.036-.72 13.67-2.878 11.511-11.511s-12.95-5.756-15.108-1.439l-.247.371c-2.909 4.374-7.687 11.557-8.386 1.068 0 0 7.195-3.597 7.914-4.317zm-13.669-17.266c0 1.439-1.439 2.878-4.317 2.878-3.597 0-5.036-2.878-4.316-4.317 0-1.439 2.158-2.878 5.036-2.878 3.877.646 3.691 3.034 3.614 4.035-.009.113-.016.209-.016.282zm-14.441 24.106h0 0l-.001.001-1.386 1.074c-3.597 2.878-5.756 2.878-5.756 0s-1.439-2.159-1.439-2.159-1.439 2.159-3.597.719c-4.316-3.597 5.756-10.791 9.353-12.23 5.036-2.159 10.072-.72 10.072-.72 5.134 3.85-2.898 9.991-7.246 13.314zm54.975 124.446c.53 2.923 1.345 7.426-3.843 6.85-4.526 0-4.158-3.114-3.794-6.194.099-.837.197-1.67.197-2.439v-53.239c.144-.72.23-1.41.311-2.054v-.001h0 0 0c.322-2.578.552-4.421 4.006-4.421 4.316 0 8.633-2.158 10.072-3.597s4.317-2.878 4.317 1.439 2.878 46.764 5.036 53.239 4.316 15.827 0 15.827c-.356 0-.69.007-1.004.014-4.137.089-4.853.104-6.191-17.281l-.106-2.783c-.623-16.434-.798-21.07-4.211-23.118-1.439-.719-2.158-2.878-2.158-4.316v-10.072c0-.72-3.597-4.317-4.317 2.878.72 7.914.72 15.828.72 15.828l.719 31.656c0 .429.114 1.057.245 1.783zm-14.635-5.381c0 .808.029 1.659.057 2.524.177 5.298.372 11.146-5.812 11.146-5.528.691-5.083-3.264-4.402-9.315l.085-.757c.72-7.914 4.317-39.57 5.756-46.764 0-2.159.72-7.195 3.597-7.195 5.755-.719 2.878 7.195 2.878 7.195-.719 3.597-2.159 38.131-2.159 43.167zm-26.619 10.791c-5.756 0-2.159-11.511-2.159-11.511 0-2.159 10.792-41.009 10.792-41.009 5.036-16.547 3.597 2.159 3.597 2.159.719 3.597-2.878 27.339-4.317 35.253l-.298 1.665c-1.268 7.141-2.27 12.775-7.616 13.444zm13.988-87.07c.057-1.614.116-3.317.4-5.02 1.439-5.756 7.195-1.439 7.195-.72.72 1.439 0 4.317 0 4.317.497 1.989-.036 3.977-.888 7.153-.381 1.42-.825 3.077-1.27 5.078-1.439 6.475-7.914-.72-6.475-4.317.871-1.743.951-4.012 1.039-6.491z" fill-rule="evenodd" />
    <path d="M219.726 135.288c-1.439-3.597-4.317-1.439-4.317-1.439s-.719 1.439-4.316 0-5.036 2.878-4.317 4.316c0 .72 1.439 0 2.878 8.633 1.439 7.914 2.159 6.475 7.914 3.597 5.036-2.878 4.316-10.792 4.316-10.792s-.719-.719-2.158-4.316zm40.289 41.728s0-2.159-2.159-2.878c-2.158 0-3.597 2.158-4.316 3.597-.72 2.158-.72 7.914 2.878 6.475 4.317-1.439 4.317-5.036 3.597-7.195zm-20.145-2.159c0 2.159 3.597 4.316 5.037 2.878 2.158-.719 3.597-1.439 4.316-7.914s-1.439-7.914-5.036-8.633c-2.159-.72-4.317 2.159-4.317 5.756.72 2.878 0 5.755 0 7.914zm5.034-40.289c-.719 2.159-2.878-1.439-6.475-1.439-6.475-.72-2.878 6.475-1.439 7.914s5.036 5.036 7.195 2.159 4.316 0 8.633 5.036 7.195 2.878 7.914-5.036-11.511-12.231-11.511-12.231c-4.317-.72-3.597 1.439-4.317 3.597zm20.865 14.389c-.72 2.878 2.158 9.353 6.475 9.353s4.316-6.475 2.878-8.633-2.878-5.036-6.475-4.316c-2.878 0-2.159 0-2.878 3.597zm-157.56 37.412c2.158 8.633 5.756 3.597 6.475.719s1.439-2.878 2.878-5.036.72-6.475-2.158-7.195-5.036 2.159-5.036 2.159c-1.439 2.159-2.878 5.036-2.158 9.353zm21.584-3.597c0 5.755 5.755 2.878 6.475 1.439 1.439-1.439 2.159-5.036 2.159-8.633 0-4.316-4.317-2.878-4.317-1.439-.72 5.036-4.316 7.195-4.316 8.633zm47.485-97.127s1.439-4.317 0-7.195-4.317-5.036-6.476-1.439c0 0-2.158 4.316-2.158 7.195v6.475s.719 3.597 3.597 3.597c3.597 0 4.317-2.878 5.037-8.633zm.719 10.792c-8.633 6.475 1.439 7.914 1.439 7.914 2.878 0 2.878 1.439-1.439 3.597-4.316 2.878-5.755 6.475-5.036 9.353 0 2.878 1.439 5.036 7.914 3.597s7.914-7.194 7.914-7.194 0-5.756 1.439-7.914 4.317 0 4.317 0-.72 1.439-.72 5.756c-.719 8.633 8.633.719 10.072-1.439s7.195-6.476 10.073-7.195c3.597-.72 6.475-1.439 6.475-5.756 0-5.036-8.633-3.597-10.792-3.597s-10.072 2.159-13.67 6.476c-1.439 2.158-4.317 1.439-5.036 0 0-1.439-.72-2.878 1.439-4.317s2.159-2.159 3.597-8.633-3.597-6.475-5.036-5.756-5.036 5.756-5.036 7.195-1.439 5.036-1.439 5.036-2.159 0-6.476 2.878zm51.8-16.547c-3.597-.72-10.072-.72-12.231 2.159s-.72 7.914 7.195 6.475c9.353-.72 12.95-6.475 5.036-8.633zm4.319 12.95s-5.036.719-6.476 2.878-.719 3.597 0 4.316 1.439 3.597-1.439 2.878c-4.316-.72-12.231 4.316-1.439 7.195s8.633 0 13.67 2.158 14.389-5.755 4.317-8.633c0 0-5.036.72-2.878-3.597 2.878-5.036 3.597-9.353-5.755-7.194z" />
    <path d="M260.732 110.826s-10.792-5.036-5.756 4.317c2.159 3.597 5.036 4.316 6.476 2.158s1.439-3.597-.72-6.475zm-.719 14.389s-12.23-6.475-5.036 4.317c2.159 3.597 5.036 7.195 7.195 5.036.72-2.159.72-6.475-2.159-9.353zm-23.021-7.195c-4.317 0-3.597 2.878-3.597 3.597s.72 1.439 2.878 3.597c1.439 1.439 3.597 3.597 5.756.72s.72-5.756-1.439-7.195c-.72 0-.72 0-3.597-.72zm-25.18 10.792s12.231-5.756 13.67-9.353c.72-2.158 1.439-5.755-5.036-5.755-3.597 0-8.633 5.036-8.633 5.036-1.439 1.439-5.036-1.439-2.878 0 0 0-7.195-2.159-12.95 4.316-5.036 6.476 0 10.792 3.597 8.633s6.475-7.195 7.914-4.316c2.158 2.159 3.597 2.159 4.316 1.439zm-30.936 5.756c1.439-1.439 2.159-2.878 5.756-4.317 5.036-2.158 1.439-5.036-2.878-5.755-3.597-.72-5.755 5.036-5.755 5.036-.72 7.914 2.158 6.475 2.878 5.036zM159.292 92.12c.72-2.878.72-4.317-3.597-6.475s-9.353-1.439-8.633 2.878c0 3.597-1.439 2.159-2.158 2.878s-4.317 5.036 2.158 7.195 9.353 5.756 12.95 9.353c1.439 2.158 7.195 4.316 6.475-2.878s-5.036-9.353-5.036-9.353-2.878-.72-2.159-3.597zm-26.618 2.878c-3.597-.72-6.475 0-4.317 4.316 2.878 4.317 5.756 2.878 6.476 2.878 0 0 2.878-2.159.719-4.317-.719-2.158-2.878-2.878-2.878-2.878zm-12.231 19.425s5.756-8.633-5.036-5.756c-5.036 1.439-8.633 5.036-9.353 6.475-.719 2.159-3.597 12.95 3.597 7.914 7.914-5.036 10.792-8.633 10.792-8.633z" />
    <path d="M163.608 137.445s7.195-2.878 4.316-7.914c-2.139-3.744-4.676-3.91-6.723-4.043-.707-.047-1.356-.089-1.911-.274-2.158-.719-3.597-1.439-2.158-3.597 1.439-1.439 5.755-5.755-4.317-10.072-1.374-.549-2.433-.364-3.338-.206-1.464.256-2.523.441-3.857-2.671-2.158-5.036-10.791-2.159-13.67-.72-3.597 1.439-11.511 9.353-10.791 10.792 1.439 3.597 2.158 4.317 7.194 2.878 3.597-.719 7.195 0 4.317 2.878s-3.597 2.878-5.756 1.439l-.284-.057c-3.467-.697-6.305-1.268-10.508 2.935-1.423 1.423-2.768 2.612-3.906 3.617-2.313 2.045-3.77 3.332-3.288 4.297.741.741 1.481.528 2.124.344.606-.174 1.124-.323 1.473.375.719 1.439 0 2.159-3.597 3.597s-12.95 8.633-10.792 17.267c.719 4.317 5.756 1.439 7.914-3.597.719-2.159 9.353-8.633 7.914-2.159 0 0-1.439 2.878-4.317 5.037s-9.353 8.633-5.756 11.511c2.995 2.396 3.995 1.301 5.908-.795.384-.421.805-.882 1.287-1.364 2.878-2.878 9.353-6.475 6.475 0 0 0-6.475 2.878-.72 7.195s10.072-.72 11.511-4.317 6.476-11.511 8.633-12.95c2.878-1.439 10.792-2.159 5.756 5.036-4.317 7.195-5.036 8.633-2.878 10.072s1.439 3.597.719 4.317c0 .719 1.439 12.95 7.195 7.195.24-.24.58-.64.976-1.106 1.982-2.332 5.379-6.328 4.78-.333-.28 2.518-.342 4.927-.398 7.1h0c-.089 3.416-.161 6.25-1.041 8.009-2.159 2.158-4.317 4.316-3.597 9.353.258 1.806.608 2.224.852 2.515.436.521.532.635-.852 7.557-2.159 10.072-4.317 20.145-7.195 27.339-1.782 5.942-4.546 17.281-5.86 22.671h-.001l-.614 2.51c-.158.631-.523 1.435-.929 2.328-1.445 3.181-3.407 7.498 1.648 9.183 5.866 1.955 7.008 1.549 8.776.92l.577-.2c1.553-.388 3.317.901 5.517 2.509 1.874 1.37 4.066 2.973 6.714 3.966a94.92 94.92 0 0 1 2.647.711l.001.001c3.903 1.091 5.999 1.677 9.582-.712 0 0 2.878-1.439 7.914-.72 4.637 1.325 8.055-1.01 10.252-2.512h.001l.539-.365c1.295-.864 3.367-.172 5.439.518h0c1.382.461 2.762.921 3.914.921 1.078 0 2.356-.403 3.837-.87 2.474-.78 5.512-1.738 9.113-1.288 3.597.72 9.353-3.597 7.914-6.475s-10.792-43.167-10.792-58.995v-12.95c0-1.439 1.439-7.195 2.159 1.439l.074.819v.001c.743 8.193 2.18 24.049 4.962 35.872 2.021 8.588 5.106 18.95 7.013 25.356l.001.001 1.62 5.579c.72 2.878 2.878 9.353 9.353 4.316 4.049-3.036 3.113-4.293 1.451-6.525-.701-.94-1.531-2.054-2.17-3.547 0 0-13.67-28.059-15.108-43.886-.594-6.237-1.188-11.002-1.63-14.549v-.001c-.629-5.047-.951-7.628-.528-8.473.14-.279.496-.639.947-1.097 1.877-1.9 5.41-5.474 1.93-11.853l-.664-1.147c-2.312-3.957-2.755-4.716-.774-13.962l.227-1.492c.558-3.853 1.067-7.368 5.529-3.545 5.036 4.317 8.633-2.158 8.633-5.036s0-15.108-7.195-17.267c-6.802-2.041-6.53 6.208-6.48 7.722l.005.192c0 .12.005.271.011.446.064 1.917.226 6.748-5.047 6.748-5.756.72-11.511 2.159-12.95 10.073s4.317 7.194 5.756 5.036c.72-2.159 2.878-6.476 3.597-1.439s.719 8.633.719 9.353c0 0 0 7.914-2.158 2.159-2.287-4.574-3.666-.969-4.857 2.148-.308.805-.603 1.578-.899 2.168l-.038.152c-.713 2.876-1.752 7.068-21.546 8.482-2.878 0-3.597 0-3.597-2.878s0-12.231 1.439-14.389c.719-2.158 2.878-4.316 4.316-1.439 1.439 3.597 3.597 3.597 4.317 2.878s2.159-1.439 2.159 1.439 1.439 7.914 3.597 6.475c3.244-1.298 2.977-10.202 2.893-12.993v-.001l-.016-.675c0-1.439 0-12.231 2.878-19.425 1.439-3.597-2.159-12.95-7.914-2.159-3.14 5.494-3.711 9.062-4.048 11.17-.281 1.756-.4 2.5-1.708 2.5-2.878 0-3.597-1.439-2.878-5.755s-.72-10.792-9.353-4.317c0 0-6.475 5.756-7.195 7.195s-5.036 4.317-4.316-1.439 1.439-10.792 7.195-11.511c5.036-.72 13.67-2.878 11.511-11.512s-12.95-5.755-15.108-1.439l-.247.371c-2.909 4.375-7.687 11.557-8.386 1.068.36-.359 2.338-1.439 4.316-2.518h0c1.979-1.08 3.957-2.159 4.317-2.518zm-13.67-17.266c0 1.439-1.439 2.878-4.317 2.878-3.597 0-5.036-2.878-4.316-4.317 0-1.439 2.159-2.878 5.036-2.878 3.878.646 3.692 3.034 3.614 4.035-.009.113-.016.209-.016.282zm-7.195 10.791c5.756 4.316-5.036 11.511-8.633 13.67-3.597 2.878-5.756 2.878-5.756 0s-1.439-2.159-1.439-2.159-1.439 2.159-3.597.72c-4.316-3.597 5.756-10.792 9.353-12.231 5.756-1.439 10.072 0 10.072 0zm47.729 137.76c.53 2.923 1.345 7.426-3.842 6.85-4.526 0-4.158-3.114-3.794-6.194.098-.837.197-1.67.197-2.439v-53.239c.144-.72.23-1.41.31-2.054v-.001h0 0 0c.323-2.578.552-4.421 4.006-4.421 3.597 0 8.633-2.158 10.072-3.597s4.317-2.878 4.317 1.439 2.878 46.764 5.036 53.239 5.036 15.827 0 15.827a43.38 43.38 0 0 0-1.004.014c-4.137.089-4.853.104-6.191-17.281l-.106-2.783c-.623-16.434-.798-21.07-4.21-23.118-1.439-.719-2.159-2.878-2.159-4.316v-10.072c0-.72-3.597-4.317-4.317 2.878.72 7.914.72 15.828.72 15.828l.72 31.656c0 .429.113 1.057.245 1.783zm-14.635-4.661c0 .808.029 1.658.057 2.524.176 5.298.372 11.146-5.813 11.146-5.528.691-5.082-3.264-4.401-9.315l.085-.757c.72-7.914 4.316-40.29 5.756-47.484 0-2.159.719-7.195 3.597-7.195 5.755-.719 2.878 7.195 2.878 7.195 0 1.588-.421 9.207-.891 17.717v.002.003h0l-1.268 26.164zm-26.619 10.072c-5.756 0-2.159-11.511-2.159-11.511 0-2.159 10.792-41.009 10.792-41.009 5.036-16.547 3.597 2.159 3.597 2.159 1.439 3.597-2.878 27.339-4.316 35.253l-.298 1.665c-1.269 7.141-2.27 12.775-7.616 13.444zm15.108-91.37c1.439-5.755 7.195-1.439 7.914-.719.719 1.439 0 4.316 0 4.316.609 1.219-.33 3.987-1.944 8.741l-.934 2.771c-2.158 6.475-8.633-.72-6.475-3.597.871-1.743.951-4.013 1.039-6.491.057-1.614.116-3.317.4-5.02z" fill-rule="evenodd" />
    <path d="M216.128 135.288c-1.439-3.597-4.316-1.439-4.316-1.439s-.72 1.439-4.317 0-5.036 2.878-4.316 4.316c0 .72 1.439 0 2.878 8.633 1.439 7.914 2.159 6.475 7.914 3.597 5.036-2.878 4.316-10.792 4.316-10.792s0-.719-2.159-4.316zm41.008 41.728s0-2.159-2.158-2.878c-2.159 0-3.597 2.158-4.317 3.597-.719 2.158-.719 7.914 2.878 6.475s3.597-5.036 3.597-7.195zm-20.863-2.159c0 2.159 3.597 4.316 5.036 2.878 2.159-.719 3.597-1.439 4.317-7.914s-1.439-7.914-5.036-8.633c-2.159-.72-4.317 2.159-4.317 5.756 1.439 2.878.72 5.755 0 7.914zm5.038-40.289c-.72 2.159-2.878-1.439-6.475-1.439-6.475-.72-2.878 6.475-1.439 7.914s5.036 5.036 7.194 2.159 4.317 0 9.353 5.036c4.316 5.036 7.195 2.878 7.914-5.036s-11.511-12.231-11.511-12.231c-5.036-.72-3.597 1.439-5.036 3.597zm21.582 14.389c-.72 2.878 2.158 9.353 6.475 9.353s4.316-6.475 2.878-8.633-2.878-5.036-6.475-4.316c-3.597 0-2.159 0-2.878 3.597zm-158.28 37.412c2.158 8.633 5.756 3.597 6.475.719s1.439-2.878 2.878-5.036.719-6.475-2.158-7.195-5.036 2.159-5.036 2.159c-1.439 2.159-2.878 5.036-2.158 9.353zm21.583-3.597c0 5.755 5.756 2.878 6.475 1.439 1.439-1.439 2.159-5.036 2.159-8.633 0-4.316-4.316-2.878-4.316-1.439-.72 5.756-4.317 7.195-4.317 8.633z" />
  </g>
</svg>