<?xml version="1.0" encoding="UTF-8" standalone="no"?>
<svg
   version="1.1"
   id="Layer_1"
   x="0px"
   y="0px"
   viewBox="0 0 373.79998 364.60001"
   xml:space="preserve"
   width="373.79999"
   height="364.60001"
   xmlns="http://www.w3.org/2000/svg"
   xmlns:svg="http://www.w3.org/2000/svg"
   style="background-color:#000000"><defs
   id="defs13" />&#10;<style
   type="text/css"
   id="style1">&#10;	.st0{fill:#F9383D;}&#10;	.st1{fill:#FFFFFF;}&#10;	.st2{fill-rule:evenodd;clip-rule:evenodd;fill:#FFFFFF;}&#10;</style>&#10;&#10;&#10;&#10;&#10;&#10;&#10;&#10;&#10;&#10;&#10;&#10;&#10;&#10;<g
   id="g52"
   style="mix-blend-mode:normal"
   transform="matrix(6.5074487,0,0,6.5074487,51.373506,-158.96962)"><path
     d="m 19.9004,37.59 c 0,0 0.2211,-0.6634 0,-1.1056 -0.2211,-0.4422 -0.6634,-0.7739 -0.995,-0.2211 0,0 -0.3317,0.6633 -0.3317,1.1056 0,0.4422 0,0.7739 0,0.995 0,0 0.1105,0.5528 0.5528,0.5528 0.5528,0 0.6633,-0.4423 0.7739,-1.3267 z"
     fill="#f7ca32"
     fill-rule="nonzero"
     id="path11" /><path
     d="m 20.011,39.2485 c -1.3267,0.995 0.2211,1.2161 0.2211,1.2161 0.4422,0 0.4422,0.2211 -0.2211,0.5528 -0.6634,0.4422 -0.8845,0.995 -0.7739,1.4373 0,0.4422 0.2211,0.7739 1.2161,0.5528 0.995,-0.2212 1.2161,-1.1056 1.2161,-1.1056 0,0 0,-0.8845 0.2212,-1.2162 0.2211,-0.3316 0.6633,0 0.6633,0 0,0 -0.1105,0.2212 -0.1105,0.8845 -0.1106,1.3267 1.3267,0.1106 1.5478,-0.2211 0.2211,-0.3317 1.1056,-0.995 1.5478,-1.1056 0.4422,-0.2211 0.995,-0.2211 0.995,-0.995 0,-0.7739 -1.3267,-0.5528 -1.6584,-0.5528 -0.3316,0 -1.5478,0.3317 -2.1006,0.995 -0.2211,0.3317 -0.6633,0.2211 -0.7739,0 0,-0.2211 -0.1105,-0.4422 0.2211,-0.6633 0.3317,-0.2212 0.3317,-0.3317 0.5528,-1.3267 0.2211,-0.9951 -0.5528,-0.9951 -0.7739,-0.8845 -0.2211,0.1106 -0.7739,0.8845 -0.7739,1.1056 0,0.2211 -0.2211,0.7739 -0.2211,0.7739 0,0 -0.3317,0.1105 -0.995,0.5528 z"
     fill="#f7ca32"
     fill-rule="nonzero"
     id="path12" /><path
     d="M 27.8608,36.7056 C 27.308,36.595 26.313,36.595 25.9813,37.0373 c -0.3317,0.4422 -0.1106,1.2161 1.1056,0.995 1.4372,-0.1106 2.1006,-0.995 0.7739,-1.3267 z"
     fill="#f7ca32"
     fill-rule="nonzero"
     id="path13" /><path
     d="m 28.524,38.6956 c 0,0 -0.7739,0.1105 -0.9951,0.4422 -0.2211,0.3317 -0.1105,0.5528 0,0.6633 0.1106,0.1106 0.2212,0.5528 -0.2211,0.4423 -0.6633,-0.1106 -1.8795,0.6633 -0.2211,1.1056 1.6584,0.4422 1.3267,0 2.1006,0.3316 0.7739,0.3317 2.2112,-0.8844 0.6634,-1.3267 0,0 -0.7739,0.1106 -0.4423,-0.5528 0.5528,-0.7739 0.5528,-1.4372 -0.8844,-1.1055 z"
     fill="#f7ca32"
     fill-rule="nonzero"
     id="path14" /><path
     d="m 32.6146,41.4595 c 0,0 -1.6584,-0.7739 -0.8845,0.6634 0.3317,0.5527 0.7739,0.6633 0.995,0.3316 0.3317,-0.3316 0.2212,-0.5528 -0.1105,-0.995 z"
     fill="#f7ca32"
     fill-rule="nonzero"
     id="path15" /><path
     d="m 32.504,43.6706 c 0,0 -1.8795,-0.995 -0.7739,0.6634 0.3317,0.5528 0.7739,1.1056 1.1056,0.7739 0.2211,-0.3317 0.2211,-0.995 -0.3317,-1.4373 z"
     fill="#f7ca32"
     fill-rule="nonzero"
     id="path16" /><path
     d="m 29.0767,42.565 c -0.6633,0 -0.5528,0.4423 -0.5528,0.5528 0,0.1106 0.1106,0.2211 0.4423,0.5528 0.2211,0.2211 0.5528,0.5528 0.8844,0.1106 0.3317,-0.4423 0.1106,-0.8845 -0.2211,-1.1056 -0.2211,0 -0.1105,0 -0.5528,-0.1106 z"
     fill="#f7ca32"
     fill-rule="nonzero"
     id="path17" /><path
     d="m 25.2073,44.2234 c 0,0 1.8795,-0.8845 2.1006,-1.4373 0.1106,-0.3316 0.2212,-0.8844 -0.7739,-0.8844 -0.5528,0 -1.3267,0.7739 -1.3267,0.7739 -0.2211,0.2211 -0.7739,-0.2211 -0.4422,0 0,0 -1.1056,-0.3317 -1.99,0.6633 -0.7739,0.9951 0,1.6584 0.5528,1.3267 0.5527,-0.3316 0.995,-1.1056 1.2161,-0.6633 0.3317,0.3317 0.4422,0.3317 0.6633,0.2211 z"
     fill="#f7ca32"
     fill-rule="nonzero"
     id="path18" /><path
     d="m 20.4534,45.1079 c 0.2212,-0.2211 0.3317,-0.4423 0.8845,-0.6634 0.7739,-0.3316 0.2211,-0.7739 -0.4422,-0.8844 -0.5528,-0.1106 -0.8845,0.7739 -0.8845,0.7739 -0.1106,1.2161 0.3317,0.995 0.4422,0.7739 z"
     fill="#f7ca32"
     fill-rule="nonzero"
     id="path19" /><path
     d="m 17.3578,39.1378 c 0,0 -0.3317,-0.1106 -0.2211,-0.5528 0.1105,-0.4422 0.1105,-0.6634 -0.5528,-0.995 -0.6634,-0.3317 -1.4373,-0.2212 -1.3267,0.4422 0,0.5528 -0.2211,0.3317 -0.3317,0.4422 -0.1106,0.1106 -0.6633,0.7739 0.3317,1.1056 0.995,0.3317 1.4372,0.8845 1.99,1.4373 0.2211,0.3316 1.1056,0.6633 0.995,-0.4423 -0.2211,-1.1055 -0.8844,-1.4372 -0.8844,-1.4372 z"
     fill="#f7ca32"
     fill-rule="nonzero"
     id="path20" /><path
     d="m 13.0456,39.0272 c -0.5528,-0.1106 -0.995,0 -0.6633,0.6633 0.4422,0.6634 0.8845,0.4423 0.995,0.4423 0,0 0.4422,-0.3317 0.1106,-0.6634 -0.1106,-0.2211 -0.4423,-0.4422 -0.4423,-0.4422 z"
     fill="#f7ca32"
     fill-rule="nonzero"
     id="path21" /><path
     d="m 11.0557,42.1228 c 0,0 0.8845,-1.3267 -0.7739,-0.8844 -0.66331,0.1105 -1.2161,0.6633 -1.32666,0.995 -0.22111,0.2211 -0.55279,1.8795 0.55279,1.1056 1.21617,-0.7739 1.54777,-1.2162 1.54777,-1.2162 z"
     fill="#f7ca32"
     fill-rule="nonzero"
     id="path22" /><path
     d="m 17.7996,45.5501 c 0,0 1.1056,-0.4422 0.6634,-1.2161 -0.3287,-0.5753 -0.7185,-0.6008 -1.0332,-0.6213 -0.1087,-0.0072 -0.2084,-0.0137 -0.2935,-0.0421 -0.3317,-0.1105 -0.5528,-0.2211 -0.3317,-0.5528 0.2211,-0.2211 0.8845,-0.8844 -0.6634,-1.5478 -0.2111,-0.0844 -0.3739,-0.056 -0.5129,-0.0317 -0.2249,0.0393 -0.3877,0.0678 -0.5926,-0.4105 -0.3317,-0.7739 -1.6584,-0.3317 -2.1007,-0.1106 -0.5527,0.2212 -1.7689,1.4373 -1.6583,1.6584 0.2211,0.5528 0.3317,0.6634 1.1056,0.4422 0.5527,-0.1105 1.1055,0 0.6633,0.4423 -0.4422,0.4422 -0.5528,0.4422 -0.8845,0.2211 -0.4422,-0.2211 -0.8844,-0.2211 -1.5478,0.3317 -0.2187,0.2187 -0.4254,0.4013 -0.6003,0.5559 -0.35544,0.3141 -0.57936,0.512 -0.50525,0.6602 0.11382,0.1138 0.22764,0.0812 0.32639,0.0528 0.09307,-0.0267 0.17276,-0.0495 0.22636,0.0578 0.1106,0.2211 0,0.3316 -0.55275,0.5528 -0.55279,0.2211 -1.99005,1.3267 -1.65838,2.6534 0.11056,0.6633 0.88447,0.2211 1.21614,-0.5528 0.11056,-0.3317 1.43729,-1.3267 1.21619,-0.3317 0,0 -0.2212,0.4422 -0.6634,0.7739 -0.44223,0.3317 -1.43725,1.3267 -0.88446,1.7689 0.46031,0.3683 0.61398,0.1999 0.90785,-0.1221 0.05904,-0.0647 0.12374,-0.1356 0.19773,-0.2095 0.44228,-0.4423 1.43728,-0.9951 0.99498,0 0,0 -0.99498,0.4422 -0.1105,1.1055 0.8845,0.6634 1.5478,-0.1105 1.7689,-0.6633 0.2211,-0.5528 0.995,-1.7689 1.3267,-1.9901 0.4422,-0.2211 1.6584,-0.3316 0.8845,0.7739 -0.6634,1.1056 -0.7739,1.3267 -0.4423,1.5479 0.3317,0.2211 0.2212,0.5528 0.1106,0.6633 0,0.1106 0.2211,1.9901 1.1056,1.1056 0.0368,-0.0369 0.089,-0.0983 0.15,-0.1699 0.3045,-0.3583 0.8266,-0.9725 0.7345,-0.0512 -0.043,0.3869 -0.0526,0.757 -0.0612,1.091 v 0 c -0.0136,0.5249 -0.0248,0.9604 -0.16,1.2307 -0.3316,0.3317 -0.6633,0.6633 -0.5528,1.4373 0.0397,0.2775 0.0935,0.3417 0.131,0.3865 0.0671,0.08 0.0818,0.0975 -0.131,1.1613 -0.3316,1.5478 -0.6633,3.0956 -1.1055,4.2012 -0.2739,0.913 -0.6987,2.6554 -0.9006,3.4838 v 1e-4 c -0.0425,0.1746 -0.0752,0.3086 -0.0945,0.3856 -0.0242,0.097 -0.0803,0.2205 -0.1427,0.3578 -0.2222,0.4889 -0.5235,1.1522 0.2533,1.4111 0.9014,0.3005 1.0769,0.2381 1.3485,0.1415 0.0283,-0.0101 0.0575,-0.0205 0.0888,-0.0309 0.2387,-0.0597 0.5097,0.1385 0.8478,0.3856 0.288,0.2106 0.6247,0.4568 1.0316,0.6094 0.1501,0.0376 0.2843,0.0751 0.4069,0.1094 h 10e-5 c 0.5997,0.1677 0.9218,0.2578 1.4725,-0.1094 0,0 0.4423,-0.2211 1.2162,-0.1105 0.7126,0.2036 1.2378,-0.1553 1.5754,-0.386 l 2e-4,-2e-4 c 0.029,-0.0197 0.0565,-0.0386 0.0827,-0.0561 0.1991,-0.1326 0.5175,-0.0265 0.8359,0.0796 0.2122,0.0708 0.4245,0.1416 0.6014,0.1416 0.1656,0 0.3621,-0.062 0.5896,-0.1338 0.3803,-0.1199 0.8471,-0.2671 1.4005,-0.1979 0.5527,0.1105 1.4372,-0.5528 1.2161,-0.995 -0.2211,-0.4423 -1.6584,-6.6335 -1.6584,-9.0658 V 55.832 c 0,-0.2211 0.2211,-1.1055 0.3317,0.2212 l 0.0114,0.1259 v 0 c 0.1141,1.259 0.335,3.6957 0.7625,5.5125 0.3105,1.3198 0.7846,2.9121 1.0777,3.8966 l 10e-5,2e-4 c 0.1242,0.4174 0.216,0.7255 0.2489,0.8572 0.1106,0.4423 0.4422,1.4373 1.4373,0.6634 0.6222,-0.4667 0.4784,-0.6598 0.2229,-1.0027 -0.1077,-0.1446 -0.2352,-0.3157 -0.3335,-0.5451 0,0 -2.1006,-4.3118 -2.3217,-6.7441 C 26,57.857 25.9086,57.1427 25.8406,56.6116 v 0 c -0.0964,-0.7532 -0.1456,-1.1378 -0.0808,-1.3324 0.0214,-0.0428 0.0761,-0.0982 0.1456,-0.1684 0.2885,-0.292 0.8313,-0.8413 0.2966,-1.8216 -0.0363,-0.0635 -0.0704,-0.1219 -0.1021,-0.1763 -0.3553,-0.608 -0.4234,-0.7247 -0.119,-2.1454 0.0126,-0.0758 0.0238,-0.1529 0.0349,-0.2292 0.0858,-0.5921 0.164,-1.1324 0.8496,-0.5447 0.7739,0.6633 1.3267,-0.3317 1.3267,-0.7739 0,-0.4423 0,-2.3218 -1.1056,-2.6534 -1.0453,-0.3136 -1.0035,0.954 -0.9958,1.1867 v 2e-4 c 4e-4,0.0133 8e-4,0.0232 8e-4,0.0292 0,0.0077 5e-4,0.0197 0.0012,0.0353 0.0093,0.2088 0.0478,1.0703 -0.7751,1.0703 -0.8845,0.1105 -1.769,0.3317 -1.9901,1.5478 -0.2211,1.2161 0.6634,1.1056 0.8845,0.7739 0.1105,-0.3317 0.4422,-0.995 0.5528,-0.2211 0.1105,0.7739 0.1105,1.3267 0.1105,1.4372 0,0 0,1.2162 -0.3316,0.3317 -0.3515,-0.7029 -0.5633,-0.1489 -0.7464,0.3302 v 0 c -0.0473,0.1237 -0.0927,0.2424 -0.1381,0.3332 l -0.0058,0.0233 c -0.1095,0.4419 -0.2692,1.0861 -3.311,1.3034 -0.4422,0 -0.5527,0 -0.5527,-0.4423 0,-0.4422 0,-1.8795 0.2211,-2.2111 0.1105,-0.3317 0.4422,-0.6634 0.6633,-0.2211 0.2211,0.5527 0.5528,0.5527 0.6634,0.4422 0.1105,-0.1106 0.3316,-0.2211 0.3316,0.2211 0,0.4422 0.2212,1.2161 0.5528,0.995 0.4986,-0.1994 0.4576,-1.5678 0.4447,-1.9967 v -10e-5 c -0.0014,-0.0466 -0.0024,-0.0821 -0.0024,-0.1038 0,-0.2211 0,-1.8795 0.4422,-2.985 0.2211,-0.5528 -0.3317,-1.9901 -1.2161,-0.3317 -0.4825,0.8442 -0.5702,1.3925 -0.622,1.7164 -0.0432,0.27 -0.0615,0.3842 -0.2625,0.3842 -0.4422,0 -0.5528,-0.2211 -0.4422,-0.8845 0.1105,-0.6633 -0.1106,-1.6584 -1.4373,-0.6633 0,0 -0.995,0.8844 -1.1056,1.1056 -0.1105,0.2211 -0.7739,0.6633 -0.6633,-0.2212 0.1105,-0.8844 0.2211,-1.6583 1.1056,-1.7689 0.7739,-0.1106 2.1006,-0.4422 1.7689,-1.7689 -0.3317,-1.3267 -1.9901,-0.8845 -2.3217,-0.2211 l -0.038,0.057 c -0.4471,0.6722 -1.1813,1.776 -1.2887,0.1641 0,0 1.1056,-0.5528 1.2161,-0.6634 z m -2.1005,-2.6533 c 0,0.2211 -0.2212,0.4422 -0.6634,0.4422 -0.5528,0 -0.7739,-0.4422 -0.6633,-0.6634 0,-0.2211 0.3316,-0.4422 0.7739,-0.4422 0.5958,0.0993 0.5672,0.4663 0.5553,0.62 -0.0014,0.0174 -0.0025,0.0321 -0.0025,0.0434 z M 13.48,46.6011 v 0 10e-5 l -2e-4,1e-4 c -0.0808,0.0618 -0.1534,0.1172 -0.213,0.165 -0.5528,0.4422 -0.8845,0.4422 -0.8845,0 0,-0.4423 -0.2211,-0.3317 -0.2211,-0.3317 0,0 -0.2211,0.3317 -0.5528,0.1105 -0.6633,-0.5527 0.8845,-1.6583 1.4373,-1.8794 0.7739,-0.3317 1.5478,-0.1106 1.5478,-0.1106 0.7889,0.5917 -0.4453,1.5353 -1.1135,2.046 z m 8.448,19.1236 c 0.0814,0.4492 0.2067,1.1412 -0.5905,1.0527 -0.6955,0 -0.639,-0.4786 -0.5831,-0.9519 0.0152,-0.1286 0.0303,-0.2567 0.0303,-0.3748 v -8.1813 c 0.0222,-0.1106 0.0354,-0.2167 0.0478,-0.3157 v -10e-5 0 0 0 c 0.0495,-0.3962 0.0849,-0.6793 0.6156,-0.6793 0.6633,0 1.3267,-0.3316 1.5478,-0.5528 0.2211,-0.2211 0.6634,-0.4422 0.6634,0.2212 0,0.6633 0.4422,7.1862 0.7739,8.1813 0.3316,0.995 0.6633,2.4322 0,2.4322 -0.0547,0 -0.106,0.0011 -0.1543,0.0022 -0.6358,0.0136 -0.7458,0.016 -0.9513,-2.6556 l -0.0163,-0.4276 c -0.0957,-2.5254 -0.1227,-3.2379 -0.6471,-3.5525 -0.2211,-0.1105 -0.3316,-0.4422 -0.3316,-0.6633 v -1.5478 c 0,-0.1106 -0.5528,-0.6634 -0.6634,0.4422 0.1106,1.2162 0.1106,2.4323 0.1106,2.4323 0,0 0.1105,4.5329 0.1105,4.8646 0,0.0659 0.0175,0.1625 0.0377,0.274 z m -2.249,-0.8269 c 0,0.1242 0.0044,0.2549 0.0088,0.3878 0.0272,0.8142 0.0571,1.7128 -0.8932,1.7128 -0.8495,0.1062 -0.7811,-0.5016 -0.6764,-1.4315 l 0.013,-0.1163 c 0.1106,-1.2161 0.6634,-6.0807 0.8845,-7.1863 0,-0.3317 0.1106,-1.1056 0.5528,-1.1056 0.8844,-0.1105 0.4422,1.1056 0.4422,1.1056 -0.1105,0.5528 -0.3317,5.8596 -0.3317,6.6335 z m -4.0906,1.6583 c -0.8845,0 -0.3317,-1.7689 -0.3317,-1.7689 0,-0.3317 1.6584,-6.3019 1.6584,-6.3019 0.7739,-2.5428 0.5528,0.3317 0.5528,0.3317 0.1105,0.5528 -0.4423,4.2012 -0.6634,5.4174 -0.0157,0.0864 -0.0309,0.1718 -0.0458,0.2558 -0.1949,1.0974 -0.3488,1.9632 -1.1703,2.0659 z m 2.1496,-13.38 c 0.0087,-0.2481 0.0179,-0.5097 0.0615,-0.7714 0.2212,-0.8845 1.1056,-0.2211 1.1056,-0.1106 0.1106,0.2212 0,0.6634 0,0.6634 0.0764,0.3056 -0.0056,0.6112 -0.1365,1.0992 -0.0585,0.2182 -0.1268,0.4728 -0.1952,0.7803 -0.2211,0.995 -1.2161,-0.1106 -0.995,-0.6634 0.1339,-0.2678 0.1462,-0.6166 0.1596,-0.9975 z"
     fill="#f7ca32"
     fill-rule="evenodd"
     id="path23" /><path
     d="m 25.8707,45.2186 c -0.2212,-0.5528 -0.6634,-0.2211 -0.6634,-0.2211 0,0 -0.1105,0.2211 -0.6633,0 -0.5528,-0.2211 -0.7739,0.4422 -0.6634,0.6633 0,0.1106 0.2211,0 0.4422,1.3267 0.2212,1.2162 0.3317,0.995 1.2162,0.5528 0.7739,-0.4422 0.6633,-1.6584 0.6633,-1.6584 0,0 -0.1105,-0.1105 -0.3316,-0.6633 z"
     fill="#f7ca32"
     fill-rule="nonzero"
     id="path24" /><path
     d="m 32.062,51.6309 c 0,0 0,-0.3317 -0.3317,-0.4422 -0.3316,0 -0.5528,0.3316 -0.6633,0.5528 -0.1106,0.3316 -0.1106,1.2161 0.4422,0.995 0.6634,-0.2211 0.6634,-0.7739 0.5528,-1.1056 z"
     fill="#f7ca32"
     fill-rule="nonzero"
     id="path25" /><path
     d="m 28.9662,51.2992 c 0,0.3317 0.5528,0.6633 0.774,0.4422 0.3316,-0.1105 0.5527,-0.2211 0.6633,-1.2161 0.1106,-0.995 -0.2211,-1.2162 -0.7739,-1.3267 -0.3317,-0.1106 -0.6634,0.3317 -0.6634,0.8845 0.1106,0.4422 0,0.8844 0,1.2161 z"
     fill="#f7ca32"
     fill-rule="nonzero"
     id="path26" /><path
     d="m 29.7399,45.1079 c -0.1105,0.3317 -0.4422,-0.2211 -0.995,-0.2211 -0.995,-0.1106 -0.4422,0.995 -0.2211,1.2161 0.2211,0.2211 0.7739,0.7739 1.1056,0.3317 0.3317,-0.4422 0.6633,0 1.3267,0.7739 0.6633,0.7739 1.1056,0.4422 1.2161,-0.7739 0.1106,-1.2162 -1.7689,-1.8795 -1.7689,-1.8795 -0.6634,-0.1106 -0.5528,0.2211 -0.6634,0.5528 z"
     fill="#f7ca32"
     fill-rule="nonzero"
     id="path27" /><path
     d="m 32.9461,47.3191 c -0.1106,0.4422 0.3316,1.4372 0.995,1.4372 0.6633,0 0.6633,-0.995 0.4422,-1.3267 -0.2211,-0.3316 -0.4422,-0.7739 -0.995,-0.6633 -0.4422,0 -0.3317,0 -0.4422,0.5528 z"
     fill="#f7ca32"
     fill-rule="nonzero"
     id="path28" /><path
     d="m 8.73398,53.0682 c 0.33167,1.3267 0.88446,0.5528 0.99502,0.1105 0.11056,-0.4422 0.22112,-0.4422 0.4422,-0.7739 0.2211,-0.3316 0.1106,-0.995 -0.33164,-1.1056 -0.44223,-0.1105 -0.77391,0.3317 -0.77391,0.3317 -0.22111,0.3317 -0.44223,0.7739 -0.33167,1.4373 z"
     fill="#f7ca32"
     fill-rule="nonzero"
     id="path29" /><path
     d="m 12.0508,52.5154 c 0,0.8844 0.8844,0.4422 0.995,0.2211 0.2211,-0.2211 0.3317,-0.7739 0.3317,-1.3267 0,-0.6633 -0.6634,-0.4422 -0.6634,-0.2211 -0.1106,0.7739 -0.6633,1.1056 -0.6633,1.3267 z"
     fill="#f7ca32"
     fill-rule="nonzero"
     id="path30" /><path
     d="m 19.3477,37.59 c 0,0 0.2211,-0.6634 0,-1.1056 -0.2212,-0.4422 -0.6634,-0.7739 -0.9951,-0.2211 0,0 -0.3316,0.6633 -0.3316,1.1056 0,0.4422 0,0.7739 0,0.995 0,0 0.1105,0.5528 0.5527,0.5528 0.5528,0 0.6634,-0.4423 0.774,-1.3267 z"
     fill="#f7ca32"
     fill-rule="nonzero"
     id="path31" /><path
     d="m 19.4582,39.2484 c -1.3267,0.995 0.2212,1.2161 0.2212,1.2161 0.4422,0 0.4422,0.2211 -0.2212,0.5528 -0.6633,0.4422 -0.8844,0.995 -0.7739,1.4373 0,0.4422 0.2211,0.7739 1.2162,0.5527 0.995,-0.2211 1.2161,-1.1055 1.2161,-1.1055 0,0 0,-0.8845 0.2211,-1.2162 0.2211,-0.3317 0.6634,0 0.6634,0 0,0 -0.1106,0.2211 -0.1106,0.8845 -0.1105,1.3267 1.3267,0.1105 1.5478,-0.2211 0.2212,-0.3317 1.1056,-0.9951 1.5479,-1.1056 0.5527,-0.1106 0.995,-0.2211 0.995,-0.8845 0,-0.7739 -1.3267,-0.5528 -1.6584,-0.5528 -0.3317,0 -1.5478,0.3317 -2.1006,0.9951 -0.2211,0.3316 -0.6634,0.2211 -0.7739,0 0,-0.2212 -0.1106,-0.4423 0.2211,-0.6634 0.3317,-0.2211 0.3317,-0.3317 0.5528,-1.3267 0.2211,-0.995 -0.5528,-0.995 -0.7739,-0.8845 -0.2211,0.1106 -0.7739,0.8845 -0.7739,1.1056 0,0.2211 -0.2211,0.7739 -0.2211,0.7739 0,0 -0.3317,0 -0.9951,0.4423 z"
     fill="#f7ca32"
     fill-rule="nonzero"
     id="path32" /><path
     d="m 27.4184,36.7056 c -0.5528,-0.1106 -1.5478,-0.1106 -1.8795,0.3317 -0.3317,0.4422 -0.1106,1.2161 1.1056,0.995 1.4372,-0.1106 1.99,-0.995 0.7739,-1.3267 z"
     fill="#f7ca32"
     fill-rule="nonzero"
     id="path33" /><path
     d="m 28.0821,38.6956 c 0,0 -0.7739,0.1105 -0.9951,0.4422 -0.2211,0.3317 -0.1105,0.5528 0,0.6633 0.1106,0.1106 0.2212,0.5528 -0.2211,0.4423 -0.6633,-0.1106 -1.8795,0.6633 -0.2211,1.1056 1.6584,0.4422 1.3267,0 2.1006,0.3316 0.7739,0.3317 2.2112,-0.8844 0.6634,-1.3267 0,0 -0.7739,0.1106 -0.4423,-0.5528 0.4423,-0.7739 0.5528,-1.4372 -0.8844,-1.1055 z"
     fill="#f7ca32"
     fill-rule="nonzero"
     id="path34" /><path
     d="m 32.1722,41.4595 c 0,0 -1.6584,-0.7739 -0.8845,0.6634 0.3317,0.5527 0.7739,0.6633 0.9951,0.3316 0.2211,-0.3316 0.2211,-0.5528 -0.1106,-0.995 z"
     fill="#f7ca32"
     fill-rule="nonzero"
     id="path35" /><path
     d="m 32.0616,43.6706 c 0,0 -1.8794,-0.995 -0.7739,0.6634 0.3317,0.5528 0.7739,1.1056 1.1056,0.7739 0.1106,-0.3317 0.1106,-0.995 -0.3317,-1.4373 z"
     fill="#f7ca32"
     fill-rule="nonzero"
     id="path36" /><path
     d="m 28.524,42.565 c -0.6634,0 -0.5528,0.4423 -0.5528,0.5528 0,0.1106 0.1106,0.2211 0.4422,0.5528 0.2212,0.2211 0.5528,0.5528 0.8845,0.1106 0.3317,-0.4423 0.1106,-0.8845 -0.2211,-1.1056 -0.1106,0 -0.1106,0 -0.5528,-0.1106 z"
     fill="#f7ca32"
     fill-rule="nonzero"
     id="path37" /><path
     d="m 24.6546,44.2234 c 0,0 1.8795,-0.8845 2.1006,-1.4373 0.1106,-0.3316 0.2211,-0.8844 -0.7739,-0.8844 -0.5528,0 -1.3267,0.7739 -1.3267,0.7739 -0.2211,0.2211 -0.7739,-0.2211 -0.4422,0 0,0 -1.1056,-0.3317 -1.9901,0.6633 -0.7739,0.9951 0,1.6584 0.5528,1.3267 0.5528,-0.3316 0.995,-1.1056 1.2162,-0.6633 0.3316,0.3317 0.5528,0.3317 0.6633,0.2211 z"
     fill="#f7ca32"
     fill-rule="nonzero"
     id="path38" /><path
     d="m 19.9007,45.1079 c 0.2211,-0.2211 0.3317,-0.4423 0.8845,-0.6634 0.7739,-0.3316 0.2211,-0.7739 -0.4423,-0.8844 -0.5528,-0.1106 -0.8844,0.7739 -0.8844,0.7739 -0.1106,1.2161 0.3316,0.995 0.4422,0.7739 z"
     fill="#f7ca32"
     fill-rule="nonzero"
     id="path39" /><path
     d="m 16.5839,38.585 c 0.1106,-0.4422 0.1106,-0.6634 -0.5528,-0.995 -0.6633,-0.3317 -1.4372,-0.2212 -1.3267,0.4422 0,0.5528 -0.2211,0.3317 -0.3316,0.4422 -0.1106,0.1106 -0.6634,0.7739 0.3316,1.1056 0.9951,0.3317 1.4373,0.8845 1.9901,1.4373 0.2211,0.3316 1.1056,0.6633 0.995,-0.4423 -0.1105,-1.1055 -0.7739,-1.4372 -0.7739,-1.4372 0,0 -0.4422,-0.1106 -0.3317,-0.5528 z"
     fill="#f7ca32"
     fill-rule="nonzero"
     id="path40" /><path
     d="m 12.4934,39.0272 c -0.5528,-0.1106 -0.995,0 -0.6634,0.6633 0.4423,0.6634 0.8845,0.4423 0.9951,0.4423 0,0 0.4422,-0.3317 0.1105,-0.6634 -0.1105,-0.3316 -0.4422,-0.4422 -0.4422,-0.4422 z"
     fill="#f7ca32"
     fill-rule="nonzero"
     id="path41" /><path
     d="m 10.6139,42.0123 c 0,0 0.8845,-1.3267 -0.77387,-0.8845 -0.77391,0.2211 -1.3267,0.7739 -1.43726,0.995 -0.11056,0.3317 -0.55279,1.9901 0.55279,1.2162 1.21614,-0.7739 1.65834,-1.3267 1.65834,-1.3267 z"
     fill="#f7ca32"
     fill-rule="nonzero"
     id="path42" /><path
     d="m 17.2471,45.5501 c 0,0 1.1056,-0.4422 0.6633,-1.2161 -0.3287,-0.5753 -0.7185,-0.6008 -1.0331,-0.6213 -0.1087,-0.0072 -0.2084,-0.0137 -0.2936,-0.0421 -0.3316,-0.1105 -0.5528,-0.2211 -0.3316,-0.5528 0.2211,-0.2211 0.8844,-0.8844 -0.6634,-1.5478 -0.2111,-0.0844 -0.3739,-0.056 -0.5129,-0.0317 -0.2249,0.0393 -0.3877,0.0678 -0.5927,-0.4105 -0.3316,-0.7739 -1.6583,-0.3317 -2.1006,-0.1106 -0.5528,0.2212 -1.7689,1.4373 -1.6583,1.6584 0.2211,0.5528 0.3316,0.6634 1.1055,0.4422 0.5528,-0.1105 1.1056,0 0.6634,0.4423 -0.4423,0.4422 -0.5528,0.4422 -0.8845,0.2211 L 11.565,43.7724 c -0.5327,-0.1071 -0.9689,-0.1948 -1.61476,0.451 -0.21871,0.2187 -0.42541,0.4014 -0.60028,0.5559 -0.35548,0.3142 -0.5794,0.5121 -0.5053,0.6603 0.11383,0.1138 0.22765,0.0811 0.32639,0.0528 0.09308,-0.0267 0.17276,-0.0496 0.2264,0.0577 0.11056,0.2211 0,0.3317 -0.55279,0.5528 -0.55279,0.2211 -1.99005,1.3267 -1.65837,2.6534 0.11056,0.6634 0.88446,0.2211 1.21614,-0.5528 0.11056,-0.3317 1.43726,-1.3267 1.21614,-0.3317 0,0 -0.22112,0.4423 -0.66335,0.774 -0.44223,0.3316 -1.43726,1.3267 -0.88447,1.7689 0.46031,0.3682 0.61398,0.1999 0.90785,-0.1221 0.05905,-0.0647 0.12375,-0.1356 0.19774,-0.2096 0.44223,-0.4422 1.43726,-0.995 0.99506,0 0,0 -0.99506,0.4422 -0.1106,1.1056 0.8845,0.6633 1.5478,-0.1106 1.7689,-0.6634 0.2211,-0.5527 0.9951,-1.7689 1.3267,-1.99 0.4423,-0.2211 1.6584,-0.3317 0.8845,0.7739 -0.6634,1.1056 -0.7739,1.3267 -0.4422,1.5478 0.3316,0.2211 0.2211,0.5528 0.1105,0.6634 0,0.1105 0.2211,1.99 1.1056,1.1056 0.0369,-0.0369 0.0891,-0.0983 0.15,-0.17 0.3045,-0.3583 0.8266,-0.9725 0.7345,-0.0512 -0.043,0.3869 -0.0526,0.7571 -0.0612,1.091 v 0 c -0.0136,0.525 -0.0248,0.9605 -0.1599,1.2308 -0.3317,0.3316 -0.6634,0.6633 -0.5528,1.4372 0.0396,0.2775 0.0935,0.3418 0.131,0.3865 0.067,0.0801 0.0817,0.0976 -0.131,1.1613 -0.3317,1.5478 -0.6634,3.0957 -1.1056,4.2012 -0.2739,0.9131 -0.6986,2.6555 -0.9005,3.4838 l -10e-5,1e-4 c -0.0425,0.1747 -0.0752,0.3087 -0.0944,0.3857 -0.0243,0.0969 -0.0804,0.2205 -0.1428,0.3578 -0.2221,0.4889 -0.5235,1.1522 0.2533,1.4111 0.9014,0.3005 1.0769,0.238 1.3486,0.1414 0.0282,-0.01 0.0574,-0.0204 0.0887,-0.0308 0.2387,-0.0597 0.5098,0.1384 0.8478,0.3856 0.288,0.2106 0.6248,0.4568 1.0317,0.6094 0.1501,0.0375 0.2842,0.075 0.4068,0.1093 l 10e-5,1e-4 c 0.5997,0.1677 0.9218,0.2577 1.4725,-0.1094 0,0 0.4423,-0.2211 1.2162,-0.1106 0.7126,0.2036 1.2378,-0.1552 1.5754,-0.386 l 2e-4,-1e-4 c 0.029,-0.0198 0.0566,-0.0386 0.0828,-0.0561 0.199,-0.1327 0.5174,-0.0265 0.8358,0.0796 v 0 c 0.2123,0.0708 0.4245,0.1415 0.6014,0.1415 0.1656,0 0.3621,-0.062 0.5897,-0.1337 0.3802,-0.1199 0.847,-0.2671 1.4004,-0.198 0.5528,0.1106 1.4372,-0.5528 1.2161,-0.995 -0.2211,-0.4422 -1.6584,-6.6335 -1.6584,-9.0658 v -1.99 c 0,-0.2211 0.2211,-1.1056 0.3317,0.2211 l 0.0114,0.1259 v 1e-4 c 0.1142,1.259 0.335,3.6956 0.7625,5.5125 0.3105,1.3197 0.7846,2.9121 1.0777,3.8965 l 10e-5,2e-4 c 0.1243,0.4175 0.216,0.7256 0.2489,0.8573 0.1106,0.4422 0.4422,1.4372 1.4373,0.6633 0.6222,-0.4666 0.4784,-0.6597 0.2229,-1.0027 -0.1077,-0.1445 -0.2352,-0.3156 -0.3335,-0.5451 0,0 -2.1006,-4.3118 -2.3217,-6.744 -0.0913,-0.9584 -0.1826,-1.6907 -0.2505,-2.2358 v -10e-5 c -0.0967,-0.7755 -0.1461,-1.1722 -0.0812,-1.302 0.0215,-0.0429 0.0762,-0.0982 0.1456,-0.1685 0.2885,-0.292 0.8314,-0.8412 0.2966,-1.8215 -0.0363,-0.0636 -0.0703,-0.1219 -0.1021,-0.1763 -0.3553,-0.6081 -0.4234,-0.7247 -0.119,-2.1455 0.0127,-0.0757 0.0238,-0.1529 0.0349,-0.2292 0.0858,-0.5921 0.164,-1.1323 0.8496,-0.5447 0.7739,0.6634 1.3267,-0.3316 1.3267,-0.7739 0,-0.4422 0,-2.3217 -1.1056,-2.6534 -1.0453,-0.3136 -1.0035,0.954 -0.9958,1.1867 5e-4,0.0135 8e-4,0.0234 8e-4,0.0295 0,0.0185 8e-4,0.0417 0.0017,0.0686 0.0098,0.2946 0.0347,1.0369 -0.7756,1.0369 -0.8845,0.1106 -1.7689,0.3317 -1.9901,1.5479 -0.2211,1.2161 0.6634,1.1055 0.8845,0.7739 0.1106,-0.3317 0.4422,-0.9951 0.5528,-0.2211 0.1105,0.7739 0.1105,1.3267 0.1105,1.4372 0,0 0,1.2161 -0.3316,0.3317 -0.3515,-0.7029 -0.5633,-0.1489 -0.7464,0.3301 -0.0473,0.1237 -0.0927,0.2425 -0.1381,0.3332 l -0.0058,0.0233 c -0.1095,0.4419 -0.2692,1.0862 -3.3109,1.3034 -0.4423,0 -0.5528,0 -0.5528,-0.4422 0,-0.4422 0,-1.8795 0.2211,-2.2112 0.1105,-0.3316 0.4422,-0.6633 0.6633,-0.2211 0.2212,0.5528 0.5528,0.5528 0.6634,0.4423 0.1105,-0.1106 0.3317,-0.2212 0.3317,0.2211 0,0.4422 0.2211,1.2161 0.5528,0.995 0.4985,-0.1994 0.4575,-1.5678 0.4446,-1.9967 v -1e-4 c -0.0014,-0.0466 -0.0024,-0.0821 -0.0024,-0.1038 0,-0.2211 0,-1.8795 0.4422,-2.9851 0.2211,-0.5528 -0.3317,-1.99 -1.2161,-0.3317 -0.4825,0.8443 -0.5702,1.3925 -0.622,1.7165 -0.0432,0.2699 -0.0615,0.3841 -0.2625,0.3841 -0.4422,0 -0.5528,-0.2211 -0.4422,-0.8844 0.1105,-0.6634 -0.1106,-1.6584 -1.4373,-0.6634 0,0 -0.995,0.8845 -1.1056,1.1056 -0.1105,0.2211 -0.7739,0.6634 -0.6633,-0.2211 0.1106,-0.8845 0.2211,-1.6584 1.1056,-1.7689 0.7739,-0.1106 2.1006,-0.4423 1.7689,-1.769 -0.3317,-1.3267 -1.99,-0.8844 -2.3217,-0.2211 l -0.038,0.057 c -0.4471,0.6723 -1.1813,1.776 -1.2887,0.1641 0.0553,-0.0552 0.3593,-0.2211 0.6633,-0.3869 v 0 c 0.3041,-0.1659 0.6081,-0.3317 0.6634,-0.387 z m -2.1006,-2.6533 c 0,0.2211 -0.2211,0.4422 -0.6634,0.4422 -0.5528,0 -0.7739,-0.4422 -0.6633,-0.6634 0,-0.2211 0.3317,-0.4422 0.7739,-0.4422 0.5959,0.0993 0.5673,0.4663 0.5553,0.62 -0.0014,0.0174 -0.0025,0.0321 -0.0025,0.0434 z m -1.1056,1.6583 c 0.8845,0.6633 -0.7739,1.7689 -1.3267,2.1006 -0.5528,0.4422 -0.8845,0.4422 -0.8845,0 0,-0.4422 -0.2211,-0.3317 -0.2211,-0.3317 0,0 -0.2211,0.3317 -0.5528,0.1106 -0.6633,-0.5528 0.8845,-1.6584 1.4373,-1.8795 0.8845,-0.2211 1.5478,0 1.5478,0 z m 7.3345,21.1696 c 0.0814,0.4492 0.2067,1.1412 -0.5904,1.0527 -0.6955,0 -0.639,-0.4786 -0.5831,-0.9519 0.0151,-0.1286 0.0303,-0.2567 0.0303,-0.3748 v -8.1813 c 0.0221,-0.1106 0.0353,-0.2167 0.0477,-0.3157 v -10e-5 0 0 0 c 0.0496,-0.3962 0.0849,-0.6793 0.6156,-0.6793 0.5528,0 1.3267,-0.3316 1.5478,-0.5528 0.2212,-0.2211 0.6634,-0.4422 0.6634,0.2212 0,0.6633 0.4422,7.1862 0.7739,8.1813 0.3317,0.995 0.7739,2.4322 0,2.4322 -0.0546,0 -0.106,0.0011 -0.1543,0.0022 -0.6358,0.0136 -0.7458,0.016 -0.9513,-2.6556 L 22.7587,63.4752 C 22.663,60.9498 22.636,60.2373 22.1117,59.9227 21.8905,59.8122 21.78,59.4805 21.78,59.2594 v -1.5478 c 0,-0.1106 -0.5528,-0.6634 -0.6634,0.4422 0.1106,1.2162 0.1106,2.4323 0.1106,2.4323 0,0 0.1106,4.5329 0.1106,4.8646 0,0.0659 0.0174,0.1625 0.0376,0.274 z m -2.2489,-0.7163 c 0,0.1241 0.0044,0.2548 0.0088,0.3878 0.0271,0.8141 0.0571,1.7128 -0.8933,1.7128 -0.8495,0.1062 -0.781,-0.5016 -0.6763,-1.4315 l 0.013,-0.1163 c 0.1106,-1.2162 0.6633,-6.1913 0.8845,-7.2969 0,-0.3317 0.1105,-1.1056 0.5528,-1.1056 0.8844,-0.1105 0.4422,1.1056 0.4422,1.1056 0,0.2441 -0.0647,1.4149 -0.1369,2.7226 v 3e-4 5e-4 1e-4 c -0.0914,1.654 -0.1948,3.5267 -0.1948,4.0206 z m -4.0905,1.5477 c -0.8845,0 -0.3317,-1.7689 -0.3317,-1.7689 0,-0.3317 1.6584,-6.3019 1.6584,-6.3019 0.7739,-2.5428 0.5527,0.3317 0.5527,0.3317 0.2212,0.5528 -0.4422,4.2012 -0.6633,5.4174 -0.0157,0.0864 -0.0309,0.1718 -0.0458,0.2558 -0.195,1.0974 -0.3488,1.9632 -1.1703,2.0659 z m 2.3217,-14.0408 c 0.2212,-0.8844 1.1056,-0.2211 1.2162,-0.1105 0.1105,0.2211 0,0.6633 0,0.6633 0.0936,0.1874 -0.0507,0.6127 -0.2987,1.3432 -0.0447,0.1319 -0.0929,0.2737 -0.1436,0.4258 -0.3316,0.995 -1.3267,-0.1106 -0.995,-0.5528 0.1339,-0.2678 0.1462,-0.6167 0.1596,-0.9975 0.0087,-0.2481 0.0179,-0.5098 0.0615,-0.7715 z"
     fill="#f7ca32"
     fill-rule="evenodd"
     id="path43" /><path
     d="m 25.3179,45.2186 c -0.2211,-0.5528 -0.6633,-0.2211 -0.6633,-0.2211 0,0 -0.1106,0.2211 -0.6634,0 -0.5528,-0.2211 -0.7739,0.4422 -0.6633,0.6633 0,0.1106 0.2211,0 0.4422,1.3267 0.2211,1.2162 0.3317,0.995 1.2162,0.5528 0.7739,-0.4422 0.6633,-1.6584 0.6633,-1.6584 0,0 0,-0.1105 -0.3317,-0.6633 z"
     fill="#f7ca32"
     fill-rule="nonzero"
     id="path44" /><path
     d="m 31.6196,51.6309 c 0,0 0,-0.3317 -0.3316,-0.4422 -0.3317,0 -0.5528,0.3316 -0.6634,0.5528 -0.1105,0.3316 -0.1105,1.2161 0.4423,0.995 0.5527,-0.2211 0.5527,-0.7739 0.5527,-1.1056 z"
     fill="#f7ca32"
     fill-rule="nonzero"
     id="path45" /><path
     d="m 28.4135,51.2992 c 0,0.3317 0.5528,0.6633 0.7739,0.4422 0.3317,-0.1105 0.5528,-0.2211 0.6634,-1.2161 0.1105,-0.995 -0.2211,-1.2162 -0.7739,-1.3267 -0.3317,-0.1106 -0.6634,0.3317 -0.6634,0.8845 0.2211,0.4422 0.1106,0.8844 0,1.2161 z"
     fill="#f7ca32"
     fill-rule="nonzero"
     id="path46" /><path
     d="m 29.1877,45.1079 c -0.1106,0.3317 -0.4422,-0.2211 -0.995,-0.2211 -0.995,-0.1106 -0.4423,0.995 -0.2211,1.2161 0.2211,0.2211 0.7739,0.7739 1.1055,0.3317 0.3317,-0.4422 0.6634,0 1.4373,0.7739 0.6633,0.7739 1.1056,0.4422 1.2161,-0.7739 0.1106,-1.2162 -1.7689,-1.8795 -1.7689,-1.8795 -0.7739,-0.1106 -0.5528,0.2211 -0.7739,0.5528 z"
     fill="#f7ca32"
     fill-rule="nonzero"
     id="path47" /><path
     d="m 32.5042,47.3191 c -0.1106,0.4422 0.3316,1.4372 0.995,1.4372 0.6633,0 0.6633,-0.995 0.4422,-1.3267 -0.2211,-0.3316 -0.4422,-0.7739 -0.995,-0.6633 -0.5528,0 -0.3317,0 -0.4422,0.5528 z"
     fill="#f7ca32"
     fill-rule="nonzero"
     id="path48" /><path
     d="m 8.18124,53.0682 c 0.33168,1.3267 0.88447,0.5528 0.99503,0.1105 0.11055,-0.4422 0.22111,-0.4422 0.44223,-0.7739 0.22111,-0.3316 0.11056,-0.995 -0.33168,-1.1056 -0.44223,-0.1105 -0.7739,0.3317 -0.7739,0.3317 -0.22112,0.3317 -0.44223,0.7739 -0.33168,1.4373 z"
     fill="#f7ca32"
     fill-rule="nonzero"
     id="path49" /><path
     d="m 11.498,52.5154 c 0,0.8844 0.8845,0.4422 0.995,0.2211 0.2212,-0.2211 0.3317,-0.7739 0.3317,-1.3267 0,-0.6633 -0.6633,-0.4422 -0.6633,-0.2211 -0.1106,0.8845 -0.6634,1.1056 -0.6634,1.3267 z"
     fill="#f7ca32"
     fill-rule="nonzero"
     id="path50" /></g></svg>
