<?xml version="1.0" encoding="UTF-8" standalone="no"?>
<svg
   version="1.1"
   id="Layer_1"
   x="0px"
   y="0px"
   viewBox="0 0 373.79998 364.60001"
   xml:space="preserve"
   width="373.79999"
   height="364.60001"
   xmlns="http://www.w3.org/2000/svg"
   xmlns:svg="http://www.w3.org/2000/svg"
   style="background-color:#eb008c"><defs
   id="defs13" />&#10;<style
   type="text/css"
   id="style1">&#10;	.st0{fill:#F9383D;}&#10;	.st1{fill:#FFFFFF;}&#10;	.st2{fill-rule:evenodd;clip-rule:evenodd;fill:#FFFFFF;}&#10;</style>&#10;&#10;&#10;&#10;&#10;&#10;&#10;&#10;&#10;&#10;&#10;&#10;&#10;&#10;<g
   id="g2"
   transform="translate(42.74743,34.42749)"><g
     transform="matrix(2.9745674,0,0,2.9745674,-3283.5654,-2205.7964)"
     id="g108"
     style="fill:#ffffff;fill-rule:nonzero;stroke:none;stroke-width:0;stroke-linecap:butt;stroke-linejoin:miter;stroke-miterlimit:10"><path
       d="m 1160.77,778.536 c -0.42,-0.281 -0.94,-0.441 -1.78,-0.441 -1.04,0 -1.92,0.519 -2.39,1.218 v -1 h -2.06 v 10.469 h 2.06 v -5.98 c 0,-1.774 0.76,-2.692 2.05,-2.692 0.68,0 1.14,0.141 1.58,0.379 l 0.54,-1.953"
       id="path110"
       style="stroke:none" /></g><g
     transform="matrix(2.9745674,0,0,2.9745674,-3283.5654,-2205.7964)"
     id="g112"
     style="fill:#ffffff;fill-rule:evenodd;stroke:none;stroke-width:0;stroke-linecap:butt;stroke-linejoin:miter;stroke-miterlimit:10"><path
       d="m 1170.42,783.501 c 0,-3.27 -1.99,-5.406 -4.67,-5.406 -2.63,0 -4.66,2.035 -4.66,5.465 0,3.269 1.97,5.445 4.6,5.445 2.69,0 4.73,-2.035 4.73,-5.504 z m -2.08,0.059 c 0,1.914 -1.01,3.488 -2.57,3.488 -1.56,0 -2.61,-1.254 -2.61,-3.547 0,-2.074 0.96,-3.449 2.51,-3.449 1.66,0 2.67,1.375 2.67,3.508"
       id="path114"
       style="stroke:none" /></g><g
     transform="matrix(2.9745674,0,0,2.9745674,-3283.5654,-2205.7964)"
     id="g116"
     style="fill:#ffffff;fill-rule:nonzero;stroke:none;stroke-width:0;stroke-linecap:butt;stroke-linejoin:miter;stroke-miterlimit:10"><path
       d="m 1179.95,779.872 c -0.98,-1.156 -2.18,-1.777 -3.71,-1.777 -2.55,0 -4.59,2.015 -4.59,5.484 0,3.27 1.98,5.426 4.53,5.426 1.89,0 2.93,-0.918 3.75,-1.957 l -1.32,-1.293 c -0.82,0.855 -1.4,1.293 -2.37,1.293 -1.63,0 -2.51,-1.473 -2.51,-3.528 0,-2.132 0.95,-3.468 2.45,-3.468 0.94,0 1.7,0.398 2.55,1.273 l 1.22,-1.453"
       id="path118"
       style="stroke:none" /></g><g
     transform="matrix(2.9745674,0,0,2.9745674,-3283.5654,-2205.7964)"
     id="g120"
     style="fill:#ffffff;fill-rule:nonzero;stroke:none;stroke-width:0;stroke-linecap:butt;stroke-linejoin:miter;stroke-miterlimit:10"><path
       d="m 1189.96,788.782 -3.15,-6.957 2.65,-3.512 h -2.33 l -2.18,3.051 c -0.33,0.5 -0.87,1.297 -1.15,1.715 0,-0.516 0.02,-1.594 0.02,-2.23 v -6.602 l -2.05,1.078 v 13.457 h 2.05 v -3.09 l 1.59,-2.113 2.32,5.203 h 2.23"
       id="path122"
       style="stroke:none" /></g><g
     transform="matrix(2.9745674,0,0,2.9745674,-3283.5654,-2205.7964)"
     id="g124"
     style="fill:#ffffff;fill-rule:nonzero;stroke:none;stroke-width:0;stroke-linecap:butt;stroke-linejoin:miter;stroke-miterlimit:10"><path
       d="m 1124.95,769.97 v -6 c 0,-3.09 -1.29,-4.688 -3.72,-4.688 -1.08,0 -2.12,0.457 -2.64,1.215 v -0.996 h -2.05 v 10.469 h 2.05 v -6.121 c 0,-1.696 0.78,-2.672 2.16,-2.672 1.35,0 2.15,0.758 2.15,2.871 v 5.922 h 2.05"
       id="path126"
       style="stroke:none" /></g><g
     transform="matrix(2.9745674,0,0,2.9745674,-3283.5654,-2205.7964)"
     id="g128"
     style="fill:#ffffff;fill-rule:evenodd;stroke:none;stroke-width:0;stroke-linecap:butt;stroke-linejoin:miter;stroke-miterlimit:10"><path
       d="m 1135.84,764.685 c 0,-3.27 -1.99,-5.403 -4.66,-5.403 -2.64,0 -4.67,2.035 -4.67,5.465 0,3.27 1.97,5.441 4.6,5.441 2.7,0 4.73,-2.031 4.73,-5.503 z m -2.07,0.062 c 0,1.914 -1.02,3.488 -2.57,3.488 -1.56,0 -2.62,-1.257 -2.62,-3.55 0,-2.075 0.96,-3.45 2.51,-3.45 1.66,0 2.68,1.375 2.68,3.512"
       id="path130"
       style="stroke:none" /></g><g
     transform="matrix(2.9745674,0,0,2.9745674,-3283.5654,-2205.7964)"
     id="g132"
     style="fill:#ffffff;fill-rule:nonzero;stroke:none;stroke-width:0;stroke-linecap:butt;stroke-linejoin:miter;stroke-miterlimit:10"><path
       d="m 1143.7,759.72 c -0.42,-0.278 -0.94,-0.438 -1.78,-0.438 -1.03,0 -1.91,0.52 -2.39,1.215 v -0.996 h -2.05 v 10.469 h 2.05 v -5.981 c 0,-1.773 0.76,-2.691 2.05,-2.691 0.68,0 1.14,0.137 1.58,0.379 l 0.54,-1.957"
       id="path134"
       style="stroke:none" /></g><g
     transform="matrix(2.9745674,0,0,2.9745674,-3283.5654,-2205.7964)"
     id="g136"
     style="fill:#ffffff;fill-rule:nonzero;stroke:none;stroke-width:0;stroke-linecap:butt;stroke-linejoin:miter;stroke-miterlimit:10"><path
       d="m 1150.95,767.895 c -0.38,0.219 -0.97,0.418 -1.51,0.418 -0.76,0 -1.08,-0.277 -1.08,-1.253 v -5.684 h 2.59 v -1.875 h -2.59 v -4.066 l -2.01,1.078 v 2.988 h -1.49 v 1.875 h 1.49 v 6.043 c 0,1.875 0.9,2.769 2.35,2.769 0.82,0 1.52,-0.199 2.01,-0.476 l 0.24,-1.817"
       id="path138"
       style="stroke:none" /></g><g
     transform="matrix(2.9745674,0,0,2.9745674,-3283.5654,-2205.7964)"
     id="g140"
     style="fill:#ffffff;fill-rule:nonzero;stroke:none;stroke-width:0;stroke-linecap:butt;stroke-linejoin:miter;stroke-miterlimit:10"><path
       d="m 1161.36,769.97 v -6 c 0,-3.09 -1.29,-4.688 -3.73,-4.688 -1.07,0 -2.11,0.457 -2.63,1.215 v -5.062 l -2.05,1.078 v 13.457 h 2.05 v -6.121 c 0,-1.696 0.78,-2.672 2.16,-2.672 1.35,0 2.15,0.758 2.15,2.871 v 5.922 h 2.05"
       id="path142"
       style="stroke:none" /></g><g
     transform="matrix(2.9745674,0,0,2.9745674,-3283.5654,-2205.7964)"
     id="g144"
     style="fill:#ffffff;fill-rule:evenodd;stroke:none;stroke-width:0;stroke-linecap:butt;stroke-linejoin:miter;stroke-miterlimit:10"><path
       d="m 1172.01,764.528 c 0,-2.832 -1.44,-5.246 -4.41,-5.246 -2.71,0 -4.58,1.914 -4.58,5.465 0,3.469 2.07,5.441 4.52,5.441 1.6,0 2.69,-0.496 3.61,-1.375 l -1.21,-1.316 c -0.7,0.52 -1.4,0.84 -2.28,0.84 -1.27,0 -2.41,-0.859 -2.63,-2.871 h 6.92 c 0.02,-0.223 0.06,-0.563 0.06,-0.938 z m -2.07,-0.758 h -4.87 c 0.18,-1.675 1.02,-2.632 2.39,-2.632 1.7,0 2.38,1.195 2.48,2.632"
       id="path146"
       style="stroke:none" /></g><g
     transform="matrix(2.9745674,0,0,2.9745674,-3283.5654,-2205.7964)"
     id="g148"
     style="fill:#ffffff;fill-rule:nonzero;stroke:none;stroke-width:0;stroke-linecap:butt;stroke-linejoin:miter;stroke-miterlimit:10"><path
       d="m 1179.79,759.72 c -0.42,-0.278 -0.94,-0.438 -1.78,-0.438 -1.04,0 -1.91,0.52 -2.39,1.215 v -0.996 h -2.06 v 10.469 h 2.06 v -5.981 c 0,-1.773 0.76,-2.691 2.05,-2.691 0.68,0 1.14,0.137 1.58,0.379 l 0.54,-1.957"
       id="path150"
       style="stroke:none" /></g><g
     transform="matrix(2.9745674,0,0,2.9745674,-3283.5654,-2205.7964)"
     id="g152"
     style="fill:#ffffff;fill-rule:nonzero;stroke:none;stroke-width:0;stroke-linecap:butt;stroke-linejoin:miter;stroke-miterlimit:10"><path
       d="m 1189.32,769.97 v -6 c 0,-3.09 -1.3,-4.688 -3.73,-4.688 -1.08,0 -2.11,0.457 -2.63,1.215 v -0.996 h -2.06 v 10.469 h 2.06 v -6.121 c 0,-1.696 0.77,-2.672 2.15,-2.672 1.36,0 2.16,0.758 2.16,2.871 v 5.922 h 2.05"
       id="path154"
       style="stroke:none" /></g></g></svg>
