<svg xmlns="http://www.w3.org/2000/svg" width="373.8" height="364.6">
  <rect width="373.8" height="364.6" fill="#eb008c" />
  <g fill="#fff">
    <path d="M211.97 144.438c-1.249-.836-2.796-1.312-5.295-1.312-3.094 0-5.711 1.544-7.109 3.623v-2.975h-6.128v31.141h6.128v-17.788c0-5.277 2.261-8.008 6.098-8.008 2.023 0 3.391.419 4.7 1.127l1.606-5.809" />
    <path d="M240.674 159.207c0-9.727-5.919-16.081-13.891-16.081-7.823 0-13.861 6.053-13.861 16.256 0 9.724 5.86 16.197 13.683 16.197 8.002 0 14.07-6.053 14.07-16.372zm-6.187.175c0 5.693-3.004 10.375-7.645 10.375s-7.764-3.73-7.764-10.551c0-6.169 2.856-10.259 7.466-10.259 4.938 0 7.942 4.09 7.942 10.435" fill-rule="evenodd" />
    <path d="M269.022 148.412c-2.915-3.439-6.485-5.286-11.036-5.286-7.585 0-13.653 5.994-13.653 16.313 0 9.727 5.89 16.14 13.475 16.14 5.622 0 8.715-2.731 11.155-5.821l-3.926-3.846c-2.439 2.543-4.164 3.846-7.05 3.846-4.849 0-7.466-4.382-7.466-10.494 0-6.342 2.826-10.316 7.288-10.316 2.796 0 5.057 1.184 7.585 3.787l3.629-4.322m29.774 26.503l-9.37-20.694 7.883-10.447h-6.931l-6.485 9.075-3.421 5.101.059-6.633V131.68l-6.098 3.207v40.029h6.098v-9.191l4.73-6.285 6.901 15.477h6.633m-193.375-55.959v-17.847c0-9.191-3.837-13.945-11.065-13.945-3.213 0-6.306 1.359-7.853 3.614v-2.963h-6.098v31.141h6.098v-18.207c0-5.045 2.32-7.948 6.425-7.948 4.016 0 6.395 2.255 6.395 8.54v17.615h6.098" />
    <path d="M137.814 103.237c0-9.727-5.919-16.072-13.861-16.072-7.853 0-13.891 6.053-13.891 16.256 0 9.727 5.86 16.185 13.683 16.185 8.031 0 14.07-6.041 14.07-16.369zm-6.157.184c0 5.693-3.034 10.375-7.645 10.375-4.64 0-7.793-3.739-7.793-10.56 0-6.172 2.856-10.262 7.466-10.262 4.938 0 7.972 4.09 7.972 10.447" fill-rule="evenodd" />
    <path d="M161.194 88.469c-1.249-.827-2.796-1.303-5.295-1.303-3.064 0-5.681 1.547-7.109 3.614v-2.963h-6.098v31.141h6.098v-17.791c0-5.274 2.261-8.005 6.098-8.005 2.023 0 3.391.408 4.7 1.127l1.606-5.821m21.565 24.318c-1.13.651-2.885 1.243-4.492 1.243-2.261 0-3.213-.824-3.213-3.727V93.395h7.704v-5.577h-7.704V75.723l-5.979 3.207v8.888h-4.432v5.577h4.432v17.975c0 5.577 2.677 8.237 6.99 8.237 2.439 0 4.521-.592 5.979-1.416l.714-5.405m30.967 6.172v-17.847c0-9.191-3.837-13.945-11.095-13.945-3.183 0-6.276 1.359-7.823 3.614V75.723l-6.098 3.207v40.029h6.098v-18.207c0-5.045 2.32-7.948 6.425-7.948 4.016 0 6.395 2.255 6.395 8.54v17.615h6.098" />
    <path d="M245.404 102.77c0-8.424-4.283-15.605-13.118-15.605-8.061 0-13.624 5.693-13.624 16.256 0 10.319 6.157 16.185 13.445 16.185 4.759 0 8.002-1.475 10.738-4.09l-3.599-3.915c-2.082 1.547-4.164 2.499-6.782 2.499-3.778 0-7.169-2.555-7.823-8.54h20.584c.059-.663.178-1.675.178-2.79zm-6.157-2.255H224.76c.535-4.982 3.034-7.829 7.109-7.829 5.057 0 7.079 3.555 7.377 7.829" fill-rule="evenodd" />
    <path d="M268.546 88.469c-1.249-.827-2.796-1.303-5.295-1.303-3.094 0-5.681 1.547-7.109 3.614v-2.963h-6.128v31.141h6.128v-17.791c0-5.274 2.261-8.005 6.098-8.005 2.023 0 3.391.408 4.7 1.127l1.606-5.821m28.348 30.49v-17.847c0-9.191-3.867-13.945-11.095-13.945-3.213 0-6.276 1.359-7.823 3.614v-2.963h-6.128v31.141h6.128v-18.207c0-5.045 2.29-7.948 6.395-7.948 4.045 0 6.425 2.255 6.425 8.54v17.615h6.098" />
  </g>
</svg>