<?xml version="1.0" encoding="UTF-8" standalone="no"?>
<svg
   version="1.1"
   id="Layer_1"
   x="0px"
   y="0px"
   viewBox="0 0 373.79998 364.60001"
   xml:space="preserve"
   width="373.79999"
   height="364.60001"
   xmlns="http://www.w3.org/2000/svg"
   xmlns:svg="http://www.w3.org/2000/svg"
   style="background-color:#ffffff"><defs
   id="defs13"><clipPath
     id="clip0_1_6"><rect
       width="50"
       height="50"
       fill="#ffffff"
       id="rect2"
       x="0"
       y="0" /></clipPath></defs>&#10;<style
   type="text/css"
   id="style1">&#10;	.st0{fill:#F9383D;}&#10;	.st1{fill:#FFFFFF;}&#10;	.st2{fill-rule:evenodd;clip-rule:evenodd;fill:#FFFFFF;}&#10;</style>&#10;&#10;&#10;&#10;&#10;&#10;&#10;&#10;&#10;&#10;&#10;&#10;&#10;&#10;<g
   clip-path="url(#clip0_1_6)"
   id="g2"
   transform="matrix(4.2875832,0,0,4.2875832,79.710414,75.110423)"><path
     d="M 50,25 V 9.99901 0 H 39.9985 25 V 9.99901 H 39.9985 V 25 Z"
     fill="#006d6b"
     id="path1-4" /><path
     d="M 39.9985,25 C 39.9985,33.2855 33.283,39.9985 25,39.9985 16.717,39.9985 9.99901,33.283 9.99901,25 9.99901,16.717 16.7145,9.99901 25,9.99901 33.2855,9.99901 39.9985,16.7145 39.9985,25 Z m 9.999,0 C 50,11.1926 38.8074,0 25,0 11.1926,0 0,11.1926 0,25 0,38.8074 11.1926,50 25,50 38.8074,50 50,38.8074 50,25"
     fill="#2adaa5"
     id="path2" /></g></svg>
