<?xml version="1.0" encoding="UTF-8" standalone="no"?>
<svg
   version="1.1"
   id="Layer_1"
   x="0px"
   y="0px"
   viewBox="0 0 373.79998 364.60001"
   xml:space="preserve"
   width="373.79999"
   height="364.60001"
   xmlns="http://www.w3.org/2000/svg"
   xmlns:svg="http://www.w3.org/2000/svg"
   style="background-color:#100030"><defs
   id="defs13" />&#10;<style
   type="text/css"
   id="style1">&#10;	.st0{fill:#F9383D;}&#10;	.st1{fill:#FFFFFF;}&#10;	.st2{fill-rule:evenodd;clip-rule:evenodd;fill:#FFFFFF;}&#10;</style>&#10;&#10;&#10;&#10;&#10;&#10;&#10;&#10;&#10;&#10;&#10;&#10;&#10;&#10;<path
   class="f5b3ff0c-98db-4400-a671-5d0f738b43c8"
   d="m 259.03738,227.35419 c 2.82157,-13.19769 22.39056,-32.03853 24.84806,-57.97882 3.18565,-33.94991 -14.01685,-94.295212 -98.02697,-94.295212 -84.01011,0 -96.297621,62.347702 -96.297621,88.287992 0,34.8601 25.576211,52.79075 24.392971,65.16928 l 0.27306,0.27305 c 0.63713,13.37973 -13.37973,14.19889 -12.65158,22.39056 0.63713,6.46232 18.84084,8.10065 31.4014,1.18324 -2.00241,3.82278 -4.73297,7.28149 -8.28269,9.19288 -6.46232,3.64074 -11.65037,5.37009 -11.65037,9.37491 0,4.00481 19.38695,14.10787 39.41103,4.27787 a 53.882977,53.882977 0 0 0 13.37972,-9.10186 16.110282,16.110282 0 0 1 0.36408,1.82038 c 1.0012,5.73416 4.27787,21.57139 18.6588,21.57139 14.38093,0 17.29352,-13.92584 19.66,-22.20852 l 0.54611,-2.09343 a 51.152421,51.152421 0 0 0 14.28992,10.01204 c 20.02407,9.83 39.50204,-0.27306 39.50204,-4.27787 0,-4.00482 -5.27907,-5.73417 -11.74139,-9.37491 -3.73176,-2.00241 -6.64435,-5.73417 -8.64676,-9.83001 12.56056,7.64556 31.94751,6.09825 32.58464,-0.54611 0.81916,-8.3737 -13.92584,-9.01083 -12.56056,-23.39176 z"
   id="path9"
   fill="#ff48d8"
   style="stroke-width:0.910185" /></svg>
