<?xml version="1.0" encoding="UTF-8" standalone="no"?>
<svg
   version="1.1"
   id="Layer_1"
   x="0px"
   y="0px"
   viewBox="0 0 373.79998 364.60001"
   xml:space="preserve"
   width="373.79999"
   height="364.60001"
   xmlns="http://www.w3.org/2000/svg"
   xmlns:svg="http://www.w3.org/2000/svg"
   style="background-color:#ffffff"><defs
   id="defs13" />&#10;   <style
   id="style1">.st0{display:none}.st1{display:inline}.st1,.st2{fill:#231f20}.st3{filter:url(#Adobe_OpacityMaskFilter)}.st4{fill:url(#SVGID_2_)}.st5{mask:url(#SVGID_1_);fill:#e2066f}.st6{filter:url(#Adobe_OpacityMaskFilter_1_)}.st7{fill:url(#SVGID_4_)}.st8{mask:url(#SVGID_3_);fill:#231f20}</style>&#10;  <g
   id="Logo_1_"
   style="display:inline">&#10;    <defs
   id="defs2"><filter
     id="Adobe_OpacityMaskFilter"
     filterUnits="userSpaceOnUse"
     x="0"
     y="0"
     width="52"
     height="26.9">&#10;        <feColorMatrix
   values="-1 0 0 0 1 0 -1 0 0 1 0 0 -1 0 1 0 0 0 1 0"
   color-interpolation-filters="sRGB"
   result="source"
   id="feColorMatrix2" />&#10;      </filter></defs>&#10;    <mask
   maskUnits="userSpaceOnUse"
   x="0"
   y="0"
   width="52"
   height="26.9"
   id="SVGID_1_">&#10;      <g
   class="st3"
   id="g10">&#10;        <linearGradient
   id="SVGID_2_"
   gradientUnits="userSpaceOnUse"
   x1="25.999001"
   y1="26.927999"
   x2="25.999001">&#10;          <stop
   offset="0"
   stop-color="#fefefe"
   id="stop2" />&#10;          <stop
   offset=".016"
   stop-color="#e2e1e1"
   id="stop3" />&#10;          <stop
   offset=".053"
   stop-color="#a8a7a7"
   id="stop4" />&#10;          <stop
   offset=".088"
   stop-color="#797677"
   id="stop5" />&#10;          <stop
   offset=".122"
   stop-color="#535051"
   id="stop6" />&#10;          <stop
   offset=".152"
   stop-color="#393536"
   id="stop7" />&#10;          <stop
   offset=".179"
   stop-color="#292526"
   id="stop8" />&#10;          <stop
   offset=".2"
   stop-color="#231f20"
   id="stop9" />&#10;          <stop
   offset=".699"
   stop-color="#231f20"
   id="stop10" />&#10;        </linearGradient>&#10;        <path
   class="st4"
   d="M 13.6,26.9 V 26 C 13.5,18.4 19,13 26,13 c 7,0 12.5,5.5 12.5,13.1 V 27 H 52 V 26.1 C 52,11.1 40.5,0 26,0 11.5,0 0,11.1 0,26.1 V 27 h 13.6 z"
   id="path10" />&#10;      </g>&#10;    </mask>&#10;    <defs
   id="defs11"><filter
     id="Adobe_OpacityMaskFilter_1_"
     filterUnits="userSpaceOnUse"
     x="0"
     y="0"
     width="52"
     height="26.9">&#10;        <feColorMatrix
   values="-1 0 0 0 1 0 -1 0 0 1 0 0 -1 0 1 0 0 0 1 0"
   color-interpolation-filters="sRGB"
   result="source"
   id="feColorMatrix11" />&#10;      </filter></defs>&#10;    <mask
   maskUnits="userSpaceOnUse"
   x="0"
   y="0"
   width="52"
   height="26.9"
   id="SVGID_3_">&#10;      <g
   class="st6"
   id="g17">&#10;        <linearGradient
   id="SVGID_4_"
   gradientUnits="userSpaceOnUse"
   x1="25.999001"
   y1="22.353001"
   x2="25.999001"
   y2="5.8390002">&#10;          <stop
   offset=".01"
   stop-color="#fff"
   id="stop11" />&#10;          <stop
   offset=".057"
   stop-color="#f4f4f4"
   id="stop12" />&#10;          <stop
   offset=".282"
   stop-color="#c4c4c5"
   id="stop13" />&#10;          <stop
   offset=".496"
   stop-color="#9e9fa0"
   id="stop14" />&#10;          <stop
   offset=".693"
   stop-color="#838486"
   id="stop15" />&#10;          <stop
   offset=".867"
   stop-color="#737476"
   id="stop16" />&#10;          <stop
   offset="1"
   stop-color="#6d6e70"
   id="stop17" />&#10;        </linearGradient>&#10;        <path
   class="st7"
   d="M 13.6,26.9 V 26 C 13.5,18.4 19,13 26,13 c 7,0 12.5,5.5 12.5,13.1 V 27 H 52 V 26.1 C 52,11.1 40.5,0 26,0 11.5,0 0,11.1 0,26.1 V 27 h 13.6 z"
   id="path17" />&#10;      </g>&#10;    </mask>&#10;    &#10;  <g
   id="g19">&#10;        &#10;        <g
   id="g1"
   transform="matrix(2.8385411,0,0,2.8385411,78.893505,125.1034)"><path
     class="st5"
     d="M 13.6,26.9 V 26 C 13.5,18.4 19,13 26,13 c 7,0 12.5,5.5 12.5,13.1 V 27 H 52 V 26.1 C 52,11.1 40.5,0 26,0 11.5,0 0,11.1 0,26.1 V 27 h 13.6 z"
     mask="url(#SVGID_1_)"
     id="path11" /><path
     class="st2"
     d="M 0,27.4 V 40.3 H 76.1 V 27.4 Z"
     id="path2" /><path
     class="st8"
     d="M 13.6,26.9 V 26 C 13.5,18.4 19,13 26,13 c 7,0 12.5,5.5 12.5,13.1 V 27 H 52 V 26.1 C 52,11.1 40.5,0 26,0 11.5,0 0,11.1 0,26.1 V 27 h 13.6 z"
     mask="url(#SVGID_3_)"
     id="path18" /></g>&#10;      </g></g></svg>
