<svg xmlns="http://www.w3.org/2000/svg" width="373.8" height="364.6">
  <rect width="373.8" height="364.6" fill="#ffffff" />
  <path d="M264.373 142.722l-22.46-22.46c.693-4.156 1.781-8.014 3.166-11.379.792-1.781 1.187-3.661 1.187-5.739 0-8.212-6.629-14.842-14.842-14.842-16.227 0-30.574 7.817-39.578 19.789h-49.472c-30.079 0-54.419 24.34-54.419 54.419s24.736 113.785 24.736 113.785h54.419v-19.789H186.9v19.789h54.419l16.623-55.31 27.902-9.301v-68.964h-21.471m-67.579 14.842h-49.472v-19.789h49.472v19.789m29.683 19.789c-5.442 0-9.894-4.452-9.894-9.894s4.452-9.894 9.894-9.894 9.894 4.452 9.894 9.894-4.452 9.894-9.894 9.894z" fill="#333" />
</svg>