<svg xmlns="http://www.w3.org/2000/svg" width="373.8" height="364.6" style="background-color:#1a0a2b"><path d="M227.217 90.374c-12.787 13.042-17.491 32.087-13.684 51.879a9.48 9.48 0 0 0 7.406 7.556c19.394 3.882 38.066-.915 50.853-13.957s17.486-32.096 13.68-51.884c-.709-3.795-3.635-6.78-7.401-7.552-4.254-.862-8.582-1.3-12.922-1.309-14.577 0-28.027 5.16-37.931 15.267zm3.888 41.505c-.663-11.153 2.616-21.056 9.381-27.965 6.774-6.908 16.48-10.247 27.413-9.572.667 11.153-2.611 21.056-9.381 27.965-6.197 6.324-14.857 9.663-24.666 9.663-.902 0-1.822-.03-2.747-.091zM87.047 187.591c0 56.26 44.358 101.901 99.108 101.901s99.108-45.641 99.108-101.901c0-11.28-1.782-22.125-5.074-32.268-17.265 14.148-40.11 18.95-63.071 14.352-11.659-2.333-20.77-11.629-23.061-23.521-4.041-21.043-.658-41.981 10.112-58.788a97.04 97.04 0 0 0-18.014-1.676c-54.754 0-99.104 45.637-99.104 101.901zm126.138 27.951c3.626-3.757 9.62-3.779 13.274-.053a9.73 9.73 0 0 1 .053 13.545c-10.622 10.918-25.014 17.174-40.349 17.174-15.29 0-29.641-6.22-40.258-17.079a9.72 9.72 0 0 1 .023-13.545 9.26 9.26 0 0 1 13.274.015c7.131 7.303 16.719 11.461 26.962 11.461 10.274 0 19.89-4.186 27.025-11.52z" fill="#fff"/></svg>
