<?xml version="1.0" encoding="UTF-8" standalone="no"?>

<svg
   version="1.1"
   id="Layer_1"
   x="0px"
   y="0px"
   viewBox="0 0 373.79998 364.60001"
   xml:space="preserve"
   width="373.79999"
   height="364.60001"
   xmlns="http://www.w3.org/2000/svg"
   xmlns:svg="http://www.w3.org/2000/svg"
   style="background-color:#1a0a2b"><defs
   id="defs13" />&#10;<style
   type="text/css"
   id="style1">&#10;	.st0{fill:#F9383D;}&#10;	.st1{fill:#FFFFFF;}&#10;	.st2{fill-rule:evenodd;clip-rule:evenodd;fill:#FFFFFF;}&#10;</style>&#10;&#10;&#10;&#10;&#10;&#10;&#10;&#10;&#10;&#10;&#10;&#10;&#10;&#10;<path
   d="m 227.21658,90.374055 c -12.78652,13.042315 -17.49071,32.087095 -13.68402,51.879355 0.70897,3.79695 3.63711,6.78436 7.40582,7.5563 19.39406,3.88235 38.06646,-0.91509 50.85298,-13.95741 12.78206,-13.04686 17.48618,-32.09617 13.67956,-51.883887 -0.70897,-3.794535 -3.63507,-6.779909 -7.40129,-7.551772 -4.25404,-0.861561 -8.58223,-1.30008 -12.9219,-1.309216 -14.57706,0 -28.02665,5.159849 -37.93115,15.26663 z m 3.88785,41.505295 c -0.66291,-11.15325 2.61594,-21.05617 9.38135,-27.96466 6.77433,-6.908485 16.48041,-10.247211 27.41327,-9.572217 0.66744,11.153237 -2.61149,21.056167 -9.38135,27.964657 -6.19703,6.3241 -14.85673,9.66282 -24.66648,9.66282 -0.90211,0 -1.82218,-0.0302 -2.74679,-0.0906 z M 87.047239,187.59122 c 0,56.26003 44.358251,101.90136 99.108141,101.90136 54.75435,0 99.10806,-45.64133 99.10806,-101.90136 0,-11.28009 -1.78156,-22.12528 -5.074,-32.26831 -17.26526,14.14768 -40.10963,18.94965 -63.07126,14.35154 -11.65897,-2.33303 -20.76972,-11.62891 -23.06092,-23.52057 -4.04113,-21.04259 -0.65838,-41.98097 10.11199,-58.787849 -5.93987,-1.118496 -11.97049,-1.679632 -18.01387,-1.676158 -54.75442,0 -99.103611,45.636797 -99.103611,101.901347 z m 126.138001,27.95107 c 3.62602,-3.75663 9.61979,-3.77913 13.27367,-0.0529 3.67584,3.72379 3.69842,9.78514 0.0529,13.54517 -10.62163,10.91768 -25.01387,17.17383 -40.34868,17.17383 -15.28973,0 -29.64134,-6.21991 -40.25845,-17.0787 -3.65961,-3.77052 -3.64957,-9.78695 0.0226,-13.54517 3.6461,-3.73534 9.63769,-3.72718 13.27367,0.0151 7.13069,7.30261 16.71945,11.46129 26.96221,11.46129 10.27439,0 19.89018,-4.18586 27.02541,-11.52019 z"
   fill="#ffffff"
   style="stroke-width:4.53016"
   id="path1-8" /></svg>
