<svg xmlns="http://www.w3.org/2000/svg" width="373.8" height="364.6" style="background-color:#d71440"><path d="M219.649 212.001c.022-13.615 10.739-23.855 24.462-23.876 5.463 0 10.377 1.043 14.379 3.913v6.473c-3.091-2.224-7.504-4.139-14.379-4.119-10.488.046-17.267 7.148-17.208 17.61.069 10.204 7.226 17.6 17.208 17.6 6.231 0 9.828-1.105 14.379-4.119v6.482c-3.96 2.844-8.916 3.897-14.379 3.897-14.533 0-24.478-10.602-24.462-23.861zm46.781-22.725v45.446h31.657v-6.266h-24.82v-13.832h21.584v-6.281h-21.584v-12.81h23.647v-6.255zm-61.53 45.445h6.859v-45.445H204.9zm-73.53-45.445v45.446h6.864V215.31h20.034v-6.266h-20.034v-13.512h22.442v-6.255zm-55.657 22.725c0 13.615 10.505 23.866 24.43 23.866 13.958 0 24.457-10.25 24.457-23.866 0-13.6-10.499-23.876-24.457-23.876-13.926 0-24.43 10.277-24.43 23.876zm7.238 0c0-10.214 7.242-17.62 17.192-17.62 9.982 0 17.209 7.406 17.209 17.62 0 10.194-7.227 17.6-17.209 17.6-9.95 0-17.192-7.407-17.192-17.6zm85.008-22.725v45.446h6.864V215.31h20.033v-6.266h-20.033v-13.512h22.442v-6.255zm38.591-47.712c0 10.106 7.37 12.207 13.866 14.204 4.807 1.491 9.386 3.029 9.386 7.334 0 4.511-5.058 6.797-9.386 6.855-4.498.066-9.476-2.024-13.067-4.491l.016 6.638c3.47 2.787 8.325 4.418 12.908 4.371 9.636-.093 16.671-5.899 16.671-14.167 0-8.996-7.264-10.911-13.425-12.738-5.207-1.538-9.939-3.035-9.939-8.005 0-2.431 2.073-6.565 8.969-6.565 3.556 0 6.166.506 10.718 3.273l.469.314.016-6.658c-2.788-2.091-6.811-3.195-11.203-3.195-11.661.01-15.998 7.886-15.998 12.831zm32.954-11.682v6.271h14.918v39.174h6.859v-39.174h14.923v-6.271zm-86.648 22.727c0 13.615 10.504 23.866 24.43 23.866 13.958 0 24.457-10.25 24.457-23.866 0-13.599-10.499-23.875-24.457-23.875-13.926 0-24.43 10.276-24.43 23.875zm7.237 0c0-10.213 7.242-17.62 17.193-17.62 9.982 0 17.209 7.407 17.209 17.62 0 10.194-7.227 17.6-17.209 17.6-9.95 0-17.193-7.406-17.193-17.6zm-42.509-22.727v45.445h6.854v-18.421h9.726c14.07 0 15.162-10.359 15.162-13.527 0-3.154-1.092-13.497-15.162-13.497zm15.508 5.878c3.598 0 9.657 1.001 9.657 7.618 0 6.637-6.059 7.622-9.657 7.622h-8.655v-15.24z" fill-rule="evenodd" fill="#fff"/></svg>
