<svg xmlns="http://www.w3.org/2000/svg" width="373.8" height="364.6">
  <rect width="373.8" height="364.6" fill="#e72139" />
  <defs>
    <clipPath id="A">
      <path d="M0 0h595.276v841.89H0z" />
    </clipPath>
  </defs>
  <g clip-path="url(#A)" transform="matrix(3.52214 0 0 -3.522139 -361.36998 570.86613)" fill="#fff">
    <path d="M0 0c.508 0 .391-.767 1.472-.767.619 0 .692.303 1.421.303 2.102 0 2.871-2.531 4.329-2.531.666 0 .729.443 1.43.443.264 0 .75-.151.942-.352.195-.19.61-.542 1.659-3.399.118-.313-.05-.439-.21-.439s-.486.148-1.22.917c-.417.436-.764.234-2.585 1.375-.857.532-1.681 1.307-2.596 1.65-.922.338-2.457.472-3.04.612-.761.177-1.976.758-1.976 1.641C-.374-.255-.202 0 0 0" transform="translate(149.646 132.286)" />
    <path d="M0 0c.423 0 .761-.662 1.206-1.103 1.042-.998 2.659-.354 3.884-1.581.313-.318.564-1.07.564-1.792 0-.727-.16-1.469-.533-1.469-.869 0-.306 1.408-2.062 2.453C1.298-2.443 1.006-2.395.284-1.666-.445-.935-.478-.653-.478-.457S-.341 0 0 0" transform="translate(160.011 132.636)" />
    <path d="M0 0c.43 0 .305-.602.792-1 .477-.4.791-.27 1.461-.936.3-.298.377-.498.377-.581s-.166-1.131-1.25-1.131c-.234 0-.42.048-.588.401-.263.521-.145 1.249-.7 1.896-.479.559-.542.61-.542.935C-.45-.097-.151 0 0 0" transform="translate(167.96 129.34)" />
    <path d="M0 0c1.367-.385 2.032-.94 2.032-1.772 0-.849-.333-.898-.617-1.309-.215-.302-.43-.739-.403-2.031 0-.266-.082-.408-.277-.408a.26.26 0 0 0-.292.29c0 .127.081.214.081.327s.037.726-.388 1.093c-1.235 1.119-7.33 1.873-11.208 1.873-4.705 0-8.463-.997-9.52-.997-1.913 0-2.801.949-2.801 1.661s.416.838.416 1.176-.111.392-.111.681.23.873.464.873c.347 0 .319-.39.652-.972.43-.726 1.321-1.686 3.005-1.686 1.499 0 2.767.57 4.982 1.076 2.712.62 4.856.917 6.992.917C-6.015.792-2.351.748 0 0" transform="translate(169.689 123.928)" />
    <path d="M170.132 116.289c.292 0 .47-.072.47-.268s-.305-.193-.483-.23c-.176-.027-1.346-.242-1.854-1.061-.083-.132-.013-.257.092-.306.119-.05 1.441-.704 1.441-1.2 0-.477-1.02-.951-1.322-.951-.314 0-.425.369-.425.437 0 .134.291.291.291.426 0 .121-.245.305-.382.305-.153 0-.214-.07-.298-.408l-.451-2.528-.323-3.244c0-.282-.044-1.035-.648-1.459l-1.126-.712s-.224-.147-.303-.147-.277.2-.514.395c-.248.187-.504.206-.667.206-.312 0-.921-.485-1.372-.485s-1.375.499-1.375.784c0 .091.182.174.23.174.196 0 .549-.251.987-.251.429 0 .818.39 1.385.39.327 0 1.072-.166 1.66-.166.596 0 .826.152.922.325.097.179.292.409.292 1.09 0 .672-.437 2.953-.437 4.335 0 1.396.256 2.6.955 3.295s2.181 1.254 3.255 1.254m.859-3.973c.162 0 .341-.215.341-.78 0-.571-.403-4.374-1.425-7.01-1.017-2.63-1.301-2.651-2.197-4.164-.886-1.517-1.58-3.12-2.546-4.085-.372-.369-.921-.82-2.247-.82-1.317 0-3.213.282-5.343 1.145-2.13.852-4.246 2.118-5.52 3.387-.187.193-.083.373.241.193.328-.174 2.055-1.517 5.356-2.516 2.414-.731 3.075-.736 4.086-.736.973 0 2.013-.176 3.236 1.04s2.238 3.28 2.676 4.074 1.304 2.175 2.128 4.743.973 3.987 1.058 5.099c.01.239.026.43.156.43m-8.261-8.344c.48 0 .86-.668 1.373-.668s.66.569.973.569c.298 0 .38-.659.491-.879.111-.239.179-.355.179-.417s-.117-.153-.241-.153c-.118 0-.36.215-.909.215-.402 0-.721-.263-.749-.327-.02-.062-.105-.044-.181.004-.168.121-.519.68-1.103.68-.312 0-.715-.203-1.151-.454-.43-.274-.757-.378-1.139-.378-.334 0-.784.134-.784.364 0 .131.18.214.326.214.339 0 .667-.077 1.422.353.514.306 1.075.877 1.493.877m-1.478-2.271c.257 0 .673-.507 1.942-.507 1.228 0 1.561.571 1.823.571.157 0 .189-.167.189-.231s-.477-1.636-1.77-1.636c-.75 0-1.559.645-1.852.937s-.499.577-.499.699c0 .128.103.167.167.167m-2.204 13.398c.882 0 2.83-.196 2.83-.709 0-.284-.875-.018-1.547-.018-.681 0-.743-.037-.743-.086s.014-.083.068-.132c.063-.048.508-.533.508-.665 0-.522-1.352-1.054-1.673-1.054-.172 0-.535.192-.535.422 0 .166.71.34.71.507 0 .175-.41.52-.784.52s-1.522-.803-1.673-.803c-.158 0-.193.103-.193.226s.103.334.103.444c0 .369-.249.328-.249.621 0 .158.201.428 1.332.58s1.407.147 1.846.147m-.529 2.468a32.33 32.33 0 0 0 3.124-.206c.304-.057.366-.194.366-.279 0-.148-.097-.167-.45-.167-.653 0-2.306-.004-3.984-.52-2.635-.815-3.009-1.588-3.449-1.588-.131 0-.338.165-.338.341 0 .164.264.568.264.856 0 .217-.216.446-.216.577 0 .481 2.229.986 4.683.986m23.275.812c1.346 0 1.885-1.317 1.885-2.885 0-.244-.117-.653-.337-.653-.313 0 .097.875-.702.875-.195 0-.568-.212-.895-.535-.333-.326-2.302-2.981-3.733-7.388-.713-2.205-1.034-3.586-1.034-4.766 0-.779.229-1.374.229-1.647 0-.483-.512-.169-.594-.026-.196.343-.564 1.311-.564 2.618s.564 4.605 1.583 7.943c.547 1.822 2.12 6.464 4.162 6.464" />
    <path d="M177.882 97.088c.164 0 .303-.083.303-.182 0-.171-.656-.725-.94-1.032-.462-.485-.592-1.276-.979-1.276-.127 0-.202.145-.202.257s.049.213.049.294c0 .387-.499.289-.499.593 0 .244.715.714 1.024.909.307.189.973.437 1.244.437m-.544-3.151c.21 0 .367-.068.367-.156 0-.196-.784-.659-.934-.811s-.972-1.23-1.098-1.842-.324-.804-.499-.804c-.373 0-.144.61-.422.804-.2.147-.729.079-.729.529 0 .292.485.763.935 1.166s1.397 1.114 2.38 1.114m-3.183 5.827c.202 0 .353-.103.45-.277.105-.171.059-.282.23-.441.167-.175.779-.265.779-.557 0-.285-.328-.285-.488-.402-.169-.117-.606-.303-.943-.887-.332-.584-.527-1.348-.591-2.396s-.407-2.071-.941-2.946c-.562-.946-1.415-1.679-1.889-2.456-.393-.661-.257-1.396-.667-1.396-.393 0-.456 1.117-.456 1.505s.098 1.713 1.123 2.68c1.139 1.069 2.053 1.117 2.053 2.845 0 1.081-.13 1.422-.13 2.08 0 .668.229 2.648 1.47 2.648" />
    <path d="M0 0c.671 0-.073-.273.99-1.334.5-.499.793-.716 1.964-.716.7 0 1.714.162 4.26 1.298 1.004.452 2.614.938 3.78.938 1.49 0 2.655-.724 3.482-1.325l2.248-1.799c.435-.34 1.088-.729 1.338-.825.244-.099.293-.235.215-.437-.069-.185-.359-.624-.428-.722-.078-.095-.37-.242-.537-.312-.172-.077-.824-.34-1.628-.949-.793-.606-2.129-1.333-3.746-1.333-1.631 0-4.122.659-5.502.659-.576 0-1.43-.318-2.034-.922-.229-.229-.421-.665-.583-.817-.157-.162-.679-.494-.865-.494-.196 0-.535.125-.535.311 0 .369.798.516.798 1.145s-.195.654-.195.944.235.81.602 1.183c.794.789 2.839 1.265 4.677 1.265 1.332 0 3.922-.582 5.69-.582.749 0 1.332.113 1.671.264.473.213.366.469.151.469-.192 0-.171-.094-.678-.094-.458 0-1.54.262-2.462.874-.916.615-2.388 1.449-3.804 1.449-1.427 0-2.44-.5-2.876-.674-1.049-.402-3.49-1.803-4.794-1.803s-2.824.644-2.824 1.756S-.523-1.552-.523-.888c0 .116-.054.191-.054.324S-.445 0 0 0" transform="translate(129.273 123.543)" />
    <path d="M0 0c.283 0 .254-.311.437-.514.179-.215.255.051.512-.228.265-.277.134-.424.312-.584.172-.165.459-.145.465-.29.048-.597-.228-1.546-.228-3a10.27 10.27 0 0 1 .534-3.23c.143-.43-.166-.507-.318-.208C.658-6.083-.293-3.195-.293-.936-.293-.4-.21 0 0 0" transform="translate(145.326 114.035)" />
    <path d="M0 0c.132 0 .201-.09.201-.242 0-.159-.464-1.678-1.158-2.58-.687-.896-1.775-2.077-2.171-2.077-.181 0-.181.213-.214.285-.042.075-.174.244.091.46s.304.337.304.478-.118.34-.118.468c0 .121.103.406.274.509.168.094 1.223.626 1.812 1.34S-.209 0 0 0" transform="translate(143.964 111.877)" />
    <path d="M0 0l.006.549c0 2.464-.535 4.036-.868 4.036-.499 0-1.047-2.42-1.269-3.698-.791.244-1.35.285-1.791.285-1.233 0-1.469-.263-1.469-.584 0-.311.27-.783.578-1.082.748-.753 1.616-.734 2.433-.767l-.277-4.198.019-1.015c-.843-.443-2.24-1.212-2.704-1.678-.681-.68-.756-1.069-.756-1.525 0-1.663 1.477-1.589 1.477-2.735 0-.436-.29-.893.076-.893.437 0 .798.843.798 1.352s-.439 1.36-.439 1.885c0 .544.182 1.132.945 1.897.18.171.397.338.646.485l.152-3.609c.049-.678.078-2.252.416-2.252s.944 3.05 1.229 5.18l.229 1.713c.32.154.629.327.936.513 1.437.873 2.4 1.896 2.4 3.068C2.767-1.65 1.45-.724 0 0m-.445-5.523l.348 3.622c.705-.325 1.24-.747 1.24-1.623 0-1.049-1.151-1.771-1.588-1.999" transform="translate(145.027 103.79)" />
  </g>
</svg>