<svg xmlns="http://www.w3.org/2000/svg" width="373.8" height="364.6">
  <rect width="373.8" height="364.6" fill="#9f1a45" />
  <path d="M188.672 97.389a44.706 44.706 0 1 1-45.406 44.707 45.022 45.022 0 0 1 13.43-31.772 45.012 45.012 0 0 1 31.976-12.935zm52.543-22.084h52.752V289.32h-52.775v-60.634c-46.455 16.978-89.879 18.47-129.828-20.616-16.512-17.187-25.816-40.625-21.922-81.483.676-6.25-2.332-35.238-9.609-51.306h46.759c21.945 34.842-6.833 79.291 26.795 107.697 45.803 29.665 85.775-5.807 87.71-37.827z" fill="#febd30" fill-rule="evenodd" />
</svg>