<?xml version="1.0" encoding="UTF-8" standalone="no"?>
<svg
   version="1.1"
   id="Layer_1"
   x="0px"
   y="0px"
   viewBox="0 0 373.79998 364.60001"
   xml:space="preserve"
   width="373.79999"
   height="364.60001"
   xmlns="http://www.w3.org/2000/svg"
   xmlns:svg="http://www.w3.org/2000/svg"
   style="background-color:#9f1a45"><defs
   id="defs13" />&#10;<style
   type="text/css"
   id="style1">&#10;	.st0{fill:#F9383D;}&#10;	.st1{fill:#FFFFFF;}&#10;	.st2{fill-rule:evenodd;clip-rule:evenodd;fill:#FFFFFF;}&#10;</style>&#10;&#10;&#10;&#10;&#10;&#10;&#10;&#10;&#10;&#10;&#10;&#10;&#10;&#10;<path
   clip-rule="evenodd"
   d="m 188.67219,97.388559 a 44.706455,44.706455 0 1 1 -45.40609,44.707301 45.02226,45.02226 0 0 1 13.43007,-31.77192 45.012181,45.012181 0 0 1 31.97602,-12.934536 z m 52.54277,-22.084457 h 52.7519 V 289.32026 H 241.19144 V 228.68585 C 194.7363,245.66369 151.31238,247.1562 111.36316,208.06955 94.851465,190.88257 85.546995,167.44503 89.441637,126.58617 90.117758,120.33644 87.10922,91.347968 79.833125,75.279747 H 126.5923 c 21.94504,34.841773 -6.83346,79.291213 26.79549,107.696803 45.80253,29.6646 85.77528,-5.8071 87.71043,-37.8268 z"
   fill="#febd30"
   fill-rule="evenodd"
   id="path3"
   style="stroke-width:0.839903" /></svg>
