<svg xmlns="http://www.w3.org/2000/svg" width="373.8" height="364.6" style="background-color:#0075b0" fill="#fff"><path d="M267.395 221.861H249.5a20.02 20.02 0 0 1-12.718-3.168c-5.605-4.206-5.579-12.968-5.558-18.787q0-.522 0-.965v-61.027c.365-15.854-5.114-17.263-8.392-18.109l-.115-.031c-.6-.117-1.21-.184-1.821-.198h-.162c-.083 0-.188 0-.224-.052s0-.12.094-.214a21.32 21.32 0 0 1 6.095-1.477 63.93 63.93 0 0 1 6.659-.344h28.249.84c4.436 0 26.553 1.206 26.553 24.998a22.14 22.14 0 0 1-12.128 19.638h0a25.98 25.98 0 0 1 9.164 3.778c6.52 4.369 10.904 11.278 12.081 19.038 1.118 5.856.83 11.895-.84 17.618A24.66 24.66 0 0 1 286.84 216.9a38.23 38.23 0 0 1-19.445 4.963zm-19.507-55.214v33.619 2.463c0 .282 0 .574.026.856v.01c0 .266.026.522.026.762 0 12.212 4.342 13.235 8.418 13.235h4.9a20.18 20.18 0 0 0 12.593-4.279c5.164-4.674 8.043-11.36 7.891-18.323.558-10.74-1.487-18.678-6.08-23.594a14.61 14.61 0 0 0-9.498-4.749zm-4.692-45.22c2.27 2.39 4.697 5.782 4.697 15.907v25.191h8.799c13.569 0 16.423-11.246 16.423-20.682 0-19.841-13.861-20.416-15.442-20.416zm-38.963-1.289a24.91 24.91 0 0 0-19.069-1.393c-.363.097-.714.237-1.044.417-.209.12-.209.355.13.282.478-.01.956.033 1.425.13 4.525.945 8.59 3.35 8.59 16.7v65.108s-1.399 12.843 5.975 17.744a24.2 24.2 0 0 0 19.1 1.404 8.91 8.91 0 0 0 1.044-.391c.209-.157.209-.391-.099-.318a10.17 10.17 0 0 1-1.461-.094c-4.509-.976-8.574-3.361-8.574-16.7v-65.14s.887-13.402-6.001-17.744m-51.676 78.907c.193-.25.068-.334-.141-.157a39.91 39.91 0 0 1-25.66 9.221c-21.456.314-39.106-16.819-39.432-38.274.161-16.923 11.366-31.753 27.602-36.531.266-.052.256-.167-.026-.167-22.429.963-40.209 19.261-40.528 41.708.366 23.434 19.651 42.14 43.086 41.791 13.837.072 26.878-6.464 35.101-17.592m21.718 31.72c-4.851 3.927-11.807 3.855-16.575-.172l-7.551-7.724a20.39 20.39 0 0 0-8.6-5.219c22.104-6.123 37.351-26.313 37.194-49.249.304-27.816-21.997-50.612-49.812-50.919a49.01 49.01 0 0 0-33.577 13.323c-.177.172-.13.261.063.146 6.907-4.062 14.777-6.199 22.79-6.189a46.34 46.34 0 0 1 32.624 13.925c8.597 8.785 13.352 20.626 13.217 32.918.235 23.871-17.664 44.034-41.395 46.629a30.69 30.69 0 0 1-4.78.037c-.47-.068-.198.11-.083.193a16.83 16.83 0 0 0 3.256 1.08 15.48 15.48 0 0 1 4.869 2.03c2.675 2.18 5.142 4.603 7.369 7.238 2.046 2.087 4.044 4.238 6.054 6.377.397.417.783.872 1.195 1.305a20.83 20.83 0 0 0 14.681 6.236 20.84 20.84 0 0 0 14.789-5.976 42.15 42.15 0 0 0 4.41-5.673c.172-.303.063-.522-.151-.313" /></svg>
