<svg xmlns="http://www.w3.org/2000/svg" width="373.8" height="364.6" style="background-color:#0f7b3f"><path d="M263.98 262.735c-2.656.519-5.268.854-7.51 1.027-25.185 1.912-52.735-6.773-65.803-20.398 40.317-2.471 79.922-38.483 79.922-83.78 0-46.82-42.176-84.365-83.911-84.365s-83.467 37.545-83.467 84.365c0 45.051 38.627 81.049 78.805 83.699l.261.369c12.241 24.915 38.076 44.562 68.434 45.672 3.185.146 6.414.01 9.696-.483 1.234-.186 2.424-.427 3.574-.724zM131.404 159.584c0-45.497 17.091-79.949 55.274-79.949 38.403 0 55.718 34.452 55.718 79.949 0 45.713-17.316 79.503-55.718 79.503-38.183 0-55.274-34.009-55.274-79.503z" fill="#fff"/></svg>