<svg xmlns="http://www.w3.org/2000/svg" width="373.8" height="364.6" style="background-color:#0059b3"><path d="M130.913 232.423c-33.267-20.768-44.266-29.963-45.2-43.587-.149-2.773.474-7.441 1.634-10.773l-3.134-2.087a27.587 27.587 0 0 0-4.103 14.09c0 7.88 2.518 13.836 5.602 18.603 4.683 7.194 9.599 11.714 21.716 20.796 13.058 9.797 21.956 21.235 27.084 33.196h1.853v-13.581c17.648 10.009 33.203 19.438 40.85 36.273h1.853c-2.999-17.45-12.86-30.897-48.156-52.931m97.657-45.419c-7.286 3.268-12.294 7.689-16.771 14.055l14.869-.778c.538-6.607 1.401-10.992 1.91-13.277zm53.603 53.087a34.137 34.137 0 0 0 2.723-11.544l-21.737-1.231a74.908 74.908 0 0 1-4.322 15.71zm-23.519-53.928c1.556 4.188 2.73 8.248 3.593 12.152l12.782-.707a41.125 41.125 0 0 0-16.375-11.445zm-5.8 12.676a74.696 74.696 0 0 0-6.161-15.279 48.206 48.206 0 0 0-2.653-.071c-1.464 0-2.943.191-4.371.354-2.122 5.27-3.834 10.61-5.234 16.014zm10.66 6.847c.679 5.447.75 10.554.403 15.272l20.909-1.111a40.347 40.347 0 0 0-3.912-13.369zm-7.109 15.661a93.547 93.547 0 0 0-1.945-16.085l-21.107-.955c-1.457 6.423-2.405 12.697-2.858 18.412zm3.247-45.164l2.476-3.466-3.834-5.114.637-1.132 10.78 5.814-2.348 7.123c1.726.828 3.325 1.889 5.468 3.303l6.953-11.445-18.023-9.422h-39.838l-32.326 19.452c6.069 4.216 11.657 8.771 15.632 13.369 8.658-12.605 23.88-20.655 38.954-20.655 4.923 0 10.667.531 15.47 2.172zm-79.718-1.132l17.854-10.695a27.007 27.007 0 0 0-11.975-2.914c-6.154-.092-16.531 2.737-21.56 3.501 2.249 1.542 10.221 6.635 15.689 10.108zm3.664-40.298c-6.331-1.386-9.868-.608-13.51 2.865 1.79.849 4.018 1.316 6.486 1.139 3.558-.248 5.772-2.384 7.024-4.004zm100.585 150.623h-2.256c0-12.414-11.381-15.795-23.307-15.795h-37.263c1.202 6.119 1.768 13.284.828 20.046h-1.853c-3.452-27.898-19.219-41.727-41.26-56.517v12.697h-1.853c-5.857-13.1-18.745-25.401-30.925-34.123l-9.924-7.081v13.694h-1.853c-5.164-13.581-14.55-23.725-27.933-35.792-14.444-13.001-20.28-20.789-23.654-29.744-2.051-5.418-2.631-9.797-2.709-15.753-.127-10.646 5.256-20.266 11.954-23.866v5.164c-3.325 4.407-5.043 9.974-5.05 15.647-.014 5.22 1.231 11.035 3.841 15.993 8.135 15.491 35.537 34.505 52.945 46.176 54.126 36.294 64.928 42.632 73.918 61.893.99 2.15 1.995 5.043 2.829 8.382l41.408-6.352c.997-.156 3.098-.424 4.173-.488 4.881-3.091 8.7-7.024 12.053-11.933l-20.747-1.613c-1.061 2.384-2.122 4.386-3.063 5.984h-1.691a109.9 109.9 0 0 0 1.485-6.232l-5.305-.389v-1.132l5.751-.707c1.089-5.871 1.613-11.424 1.726-16.616l-26.13-1.471c-.141 2.674-.17 5.199-.078 7.54h-1.676a105.18 105.18 0 0 1-1.33-7.724l-5.73-.325v-1.747l5.447-.297a119.097 119.097 0 0 1-.531-18.907l-15.279-.707c.721 1.344 1.464 2.716 1.995 4.188 3.296 9.224 2.511 20.032 1.415 24.998h-1.839c-.276-5.758-2.207-12.803-4.039-17.104-4.23-9.959-13.716-18.759-29.603-28.973v12.732h-1.853c-5.291-16.729-18.448-26.031-38.013-36.075-16.135-8.29-21.15-18.271-20.244-33.726l5.447 3.233c1.401 14.451 12.506 22.791 24.128 22.706 6.84-.049 13.249-.962 19.452-2.2 8.941-1.811 17.21-3.353 24.121-.898v-8.538h-5.425c-1.938 1.676-5.871 3.629-11.671 3.714-6.366.12-18.419-3.551-18.419-17.012 0-11.7 9.903-13.56 17.967-13.56 4.301 0 11.473-.163 13.899-.304 1.804-.099 3.155-.375 4.032-1.245.912-.898 1.188-1.825 1.401-3.013.255-1.457.255-2.943.255-5.447v-8.538h-37.348v14.784l-14.126-5.376v-3.537h6.762v-5.871H124.25v-12.28h-8.608c-4.598 0-9.882 3.211-10.25 9.45-.354 5.977 2.334 11.006 8.488 11.006h1.103v7.158h-1.111c-10.78 0-18.907-8.099-18.907-18.851 0-11.197 9.549-19.728 21.079-19.728h18.214V87.26h70.827v18.144c0 3.063-.163 7.165-.46 9.761-.212 1.889-.884 5.291-4.456 8.021-2.157 1.648-5.411 2.306-10.702 2.334a225.362 225.362 0 0 1-12.768-.453c-8.064-.502-10.356 2.603-10.681 5.496a7.84 7.84 0 0 0 0 1.775c3.777-2.928 9.125-4.994 15.208-3.084 10.681 3.36 13.73 3.664 19.297-.707l.566 1.245c-.601.934-1.676 2.264-3.233 3.445h5.164v27.969l16.071-9.627h45.108l22.211 11.601c2.759 1.457 3.855 3.218 4.287 5.8.354 2.157-.198 4.895-1.266 6.649l-8.58 14.119a48.553 48.553 0 0 1 12.838 32.835c0 11.714-4.329 26.83-18.405 38.063a24.75 24.75 0 0 1 13.263 9.839l-4.371 14.89" fill="#ffdf01"/></svg>
