<?xml version="1.0" encoding="UTF-8" standalone="no"?>
<svg
   version="1.1"
   id="Layer_1"
   x="0px"
   y="0px"
   viewBox="0 0 373.79998 364.60001"
   xml:space="preserve"
   width="373.79999"
   height="364.60001"
   xmlns="http://www.w3.org/2000/svg"
   xmlns:svg="http://www.w3.org/2000/svg"
   style="background-color:#0059b3"><defs
   id="defs13" />&#10;<style
   type="text/css"
   id="style1">&#10;	.st0{fill:#F9383D;}&#10;	.st1{fill:#FFFFFF;}&#10;	.st2{fill-rule:evenodd;clip-rule:evenodd;fill:#FFFFFF;}&#10;</style>&#10;&#10;&#10;&#10;&#10;&#10;&#10;&#10;&#10;&#10;&#10;&#10;&#10;&#10;<path
   d="M 130.91317,232.42289 C 97.646463,211.65506 86.647156,202.4595 85.713453,188.83593 c -0.148544,-2.77282 0.473925,-7.44134 1.63398,-10.77296 l -3.133564,-2.08668 a 27.586684,27.586684 0 0 0 -4.102635,14.09043 c 0,7.87988 2.518169,13.83578 5.602219,18.60332 4.682662,7.19376 9.59875,11.71373 21.715667,20.79612 13.0577,9.79681 21.95617,21.23467 27.08447,33.19598 h 1.85325 V 249.081 c 17.64841,10.00901 33.20305,19.438 40.84952,36.27295 h 1.85326 c -2.99917,-17.45034 -12.85964,-30.89708 -48.15645,-52.93106 m 97.65686,-45.419 c -7.28571,3.26796 -12.29376,7.6889 -16.77129,14.05506 l 14.86852,-0.77809 c 0.53758,-6.60665 1.40055,-10.99223 1.90984,-13.27697 z m 53.60305,53.08668 a 34.136753,34.136753 0 0 0 2.7233,-11.54397 l -21.73689,-1.23079 a 74.908456,74.908456 0 0 1 -4.32192,15.71027 z m -23.51942,-53.92843 c 1.55617,4.18752 2.73038,8.24771 3.59334,12.15229 l 12.78183,-0.70735 a 41.125379,41.125379 0 0 0 -16.37517,-11.44494 z m -5.80028,12.67573 a 74.696251,74.696251 0 0 0 -6.16102,-15.27878 48.205961,48.205961 0 0 0 -2.65257,-0.0707 c -1.46421,0 -2.94258,0.19099 -4.37143,0.35368 -2.12205,5.26976 -3.83384,10.61026 -5.23439,16.01442 z m 10.65978,6.84715 c 0.67906,5.4466 0.74979,10.55368 0.40319,15.27171 l 20.90929,-1.11054 a 40.347293,40.347293 0 0 0 -3.91165,-13.36893 z m -7.10887,15.66075 a 93.547151,93.547151 0 0 0 -1.94522,-16.08516 l -21.10735,-0.95492 c -1.45714,6.42274 -2.40499,12.69695 -2.8577,18.41234 z m 3.24674,-45.16435 2.47572,-3.46602 -3.83384,-5.11415 0.63662,-1.13176 10.78003,5.81443 -2.34841,7.12302 c 1.72594,0.8276 3.32455,1.88863 5.46782,3.30333 l 6.95326,-11.44494 -18.0233,-9.42191 h -39.838 L 189.595,181.29557 c 6.06907,4.21581 11.65714,8.77115 15.63245,13.36893 8.65798,-12.605 23.88017,-20.65465 38.95381,-20.65465 4.92317,0 10.66685,0.53051 15.46977,2.17157 z m -79.71845,-1.13176 17.85354,-10.69515 a 27.006656,27.006656 0 0 0 -11.97545,-2.91428 c -6.15395,-0.092 -16.53079,2.73744 -21.56005,3.50138 2.24937,1.54203 10.22122,6.63495 15.68904,10.10805 z m 3.66408,-40.29778 c -6.33079,-1.38641 -9.86754,-0.60832 -13.5104,2.86477 1.7896,0.84882 4.01775,1.31567 6.48641,1.13883 3.55797,-0.24757 5.77198,-2.38377 7.02399,-4.0036 z m 100.58529,150.62329 h -2.25644 c 0,-12.41401 -11.38128,-15.79514 -23.30722,-15.79514 h -37.26324 c 1.2025,6.11858 1.76838,13.28405 0.8276,20.04632 h -1.85326 c -3.45187,-27.89792 -19.21872,-41.72663 -41.25977,-56.51733 v 12.69694 h -1.85326 c -5.85687,-13.10013 -18.7448,-25.40097 -30.92538,-34.1226 l -9.92414,-7.08058 v 13.69431 h -1.85325 C 129.34992,204.71595 119.96338,194.57254 106.5803,182.50514 92.136199,169.50403 86.300554,161.71609 82.92649,152.76103 c -2.051317,-5.41831 -2.631345,-9.79681 -2.709153,-15.7527 -0.127324,-10.64563 5.255617,-20.2656 11.954229,-23.86602 v 5.16366 c -3.324549,4.4068 -5.043411,9.97365 -5.050485,15.6466 -0.01415,5.22025 1.230791,11.03468 3.840915,15.99321 8.134537,15.49098 35.537304,34.50457 52.945214,46.17586 54.12648,36.29417 64.92773,42.63204 73.91816,61.8932 0.99029,2.15035 1.99473,5.04341 2.8294,8.38211 7.81623,-1.2025 36.181,-5.51734 41.40832,-6.35201 0.99737,-0.15562 3.0982,-0.42441 4.17337,-0.48808 4.88072,-3.09112 8.70042,-7.02399 12.05326,-11.933 l -20.7466,-1.61276 c -1.06103,2.38377 -2.12205,4.38557 -3.06283,5.98418 h -1.69057 c 0.56588,-2.1079 1.06103,-4.18044 1.48544,-6.23176 l -5.30513,-0.38904 v -1.13176 l 5.75076,-0.70735 c 1.08932,-5.87101 1.61276,-11.42372 1.72594,-16.61567 l -26.12954,-1.47129 c -0.14147,2.67378 -0.16977,5.19903 -0.0778,7.54036 h -1.67642 c -0.55174,-2.61013 -0.99029,-5.19903 -1.32982,-7.72427 l -5.72955,-0.32539 v -1.74715 l 5.44661,-0.29709 a 119.09666,119.09666 0 0 1 -0.53053,-18.90749 l -15.27878,-0.70735 c 0.7215,1.34397 1.46422,2.71623 1.99473,4.18752 3.29626,9.22385 2.5111,20.03217 1.41471,24.99778 h -1.83912 c -0.27586,-5.75784 -2.20693,-12.80305 -4.03897,-17.10375 -4.22996,-9.9595 -13.71553,-18.75894 -29.60263,-28.97309 v 12.73232 h -1.85326 c -5.29099,-16.72885 -18.44771,-26.03051 -38.01304,-36.0749 -16.13467,-8.29015 -21.14979,-18.27087 -20.24438,-33.72649 l 5.4466,3.2326 c 1.40056,14.45118 12.50597,22.79084 24.12774,22.70596 6.84008,-0.0495 13.24868,-0.962 19.45215,-2.19986 8.94091,-1.81082 17.20984,-3.35284 24.12066,-0.89834 v -8.53772 h -5.42538 c -1.93814,1.67642 -5.87101,3.62871 -11.67129,3.71359 -6.36616,0.12025 -18.41941,-3.5509 -18.41941,-17.01179 0,-11.69958 9.90291,-13.55991 17.96671,-13.55991 4.30069,0 11.47323,-0.16269 13.89944,-0.30416 1.80375,-0.099 3.15479,-0.3749 4.0319,-1.24494 0.91248,-0.89834 1.18835,-1.82497 1.40056,-3.01332 0.25464,-1.45714 0.25464,-2.94258 0.25464,-5.4466 v -8.537724 h -37.34812 v 14.783634 l -14.1258,-5.37587 v -3.53675 h 6.76228 v -5.871014 h -25.1817 V 85.937595 h -8.60846 c -4.59778,0 -9.88169,3.211373 -10.24951,9.450208 -0.35367,5.977117 2.33426,11.006377 8.48821,11.006377 h 1.10347 v 7.15839 h -1.11054 c -10.78003,0 -18.907487,-8.09916 -18.907487,-18.850898 0,-11.197364 9.549237,-19.728015 21.079047,-19.728015 h 18.21429 v 12.286684 h 70.82704 v 18.143549 c 0,3.06283 -0.16269,7.16547 -0.45978,9.76144 -0.2122,1.88863 -0.88419,5.29099 -4.45631,8.02136 -2.15742,1.64813 -5.41123,2.30597 -10.70222,2.33426 a 225.36198,225.36198 0 0 1 -12.76768,-0.4527 c -8.0638,-0.50222 -10.35562,2.60305 -10.681,5.49611 -0.0707,0.60832 -0.0637,1.2025 0,1.77545 3.77726,-2.92843 9.12483,-4.99389 15.20805,-3.08405 10.68099,3.35992 13.72968,3.66408 19.29653,-0.70735 l 0.56588,1.24494 c -0.60125,0.9337 -1.67642,2.26352 -3.23259,3.4448 h 5.16366 v 27.96865 l 16.07101,-9.62704 h 45.10776 l 22.21082,11.60055 c 2.75867,1.45714 3.85506,3.21845 4.28655,5.80028 0.35367,2.15742 -0.19806,4.89487 -1.26616,6.6491 -0.65784,1.08932 -5.84272,9.5846 -8.58017,14.11872 a 48.552563,48.552563 0 0 1 12.83842,32.83523 c 0,11.71373 -4.32899,26.82981 -18.40527,38.06255 a 24.750207,24.750207 0 0 1 13.26283,9.83925 l -4.37143,14.88973"
   fill="#ffdf01"
   id="path3"
   style="stroke-width:7.07351" /></svg>
