<svg xmlns="http://www.w3.org/2000/svg" width="373.8" height="364.6">
  <rect width="373.8" height="364.6" fill="#3c1053" />
  <path d="M148.865 118.69V92.402c-.163-8.679 6.225-16.099 14.851-17.21a16.79 16.79 0 0 1 18.689 13.137c.326 1.54.474 3.095.445 4.665v33.219a16.88 16.88 0 0 1-11.62 17.298c-10.419 4.206-18.675 12.455-22.884 22.867-3.839 8.694-9.026 12.307-18.437 12.307H96.858c-7.826-.385-14.406-6.013-16.007-13.685-1.986-7.805 1.942-15.921 9.308-19.194 2.609-.963 5.35-1.466 8.122-1.466h26.174c-.741-.933-1.156-1.54-1.66-2.073l-36.904-37.44c-6.017-5.791-7.055-15.047-2.46-22.038 5.039-7.805 15.458-10.056 23.269-5.035.016 0 .045.029.059.045a16.13 16.13 0 0 1 3.201 2.651l35.2 35.559a33.88 33.88 0 0 1 2.786 3.362l.993-.711m103.822 101.436h25.314c4.639-.089 8.967-2.37 11.649-6.176 4.12-5.095 4.861-12.13 1.882-17.965-2.52-6.131-8.567-10.086-15.206-9.908h-32.443c-8.389-.637-16.125 4.517-18.749 12.5a40.45 40.45 0 0 1-23.803 23.148 14.83 14.83 0 0 0-10.523 13.744c-.445 13.048-.519 26.125 0 39.144a17.03 17.03 0 0 0 16.496 14.973c9.397.222 17.207-7.198 17.43-16.602v-27.754c1.215 1.155 1.986 1.822 2.653 2.533l36.386 36.685.711.711s.029.017.029.029a16.71 16.71 0 0 0 23.61-.637l.193-.193c6.566-6.946 6.269-17.891-.682-24.452l-18.141-18.35-20.987-21.208 4.194-.193zM148.628 245.17l.83.474v28.051a15.28 15.28 0 0 0 3.942 10.589 17.64 17.64 0 0 0 18.823 4.191c6.655-2.488 11.042-8.886 10.938-15.995v-33.516c.489-7.835-4.343-15.032-11.783-17.55-10.419-4.251-18.63-12.603-22.691-23.089-3.29-8.442-8.389-12.189-17.37-12.189H98.873a21.63 21.63 0 0 0-7.262 1.155c-6.521 2.577-10.849 8.827-10.968 15.832-.163 9.567 7.47 17.461 17.044 17.624h24.099c.741 0 1.467.326 2.816.326l-8.641 8.501-29.761 30.346c-1.349 1.303-2.475 2.829-3.335 4.502a17.41 17.41 0 0 0 7.499 23.474c6.877 3.421 15.206 1.792 20.29-3.969l24.514-24.778c4.55-4.606 8.967-9.33 13.443-14.04m101.095-101.436l2.757-2.947 34.281-34.789a26.13 26.13 0 0 0 5.854-9.301c1.749-5.983.074-12.441-4.343-16.824a17.05 17.05 0 0 0-24.084.074l-29.924 30.346c-2.979 3.199-5.736 6.398-8.922 9.597l-.548-.933V92.254c.029-.429.029-.859 0-1.274v-.059a16.38 16.38 0 0 0-16.985-15.743h-.445-.045a16.9 16.9 0 0 0-16.511 17.269v32.908c-.519 7.835 4.209 15.062 11.59 17.743 10.716 4.31 19.134 12.915 23.165 23.726 2.282 7.287 9.204 12.115 16.837 11.774 10.982.222 22.246.163 33.377 0 6.877.281 13.235-3.673 16.007-9.982 1.156-2.384 1.734-5.006 1.69-7.642v-.029c-.104-9.567-7.959-17.239-17.533-17.135h-26.085" fill="#fff" />
</svg>