<?xml version="1.0" encoding="UTF-8" standalone="no"?>
<svg
   version="1.1"
   id="Layer_1"
   x="0px"
   y="0px"
   viewBox="0 0 373.79998 364.60001"
   xml:space="preserve"
   width="373.79999"
   height="364.60001"
   xmlns="http://www.w3.org/2000/svg"
   xmlns:svg="http://www.w3.org/2000/svg"
   style="background-color:#3c1053"><defs
   id="defs13" />&#10;<style
   type="text/css"
   id="style1">&#10;	.st0{fill:#F9383D;}&#10;	.st1{fill:#FFFFFF;}&#10;	.st2{fill-rule:evenodd;clip-rule:evenodd;fill:#FFFFFF;}&#10;</style>&#10;&#10;&#10;&#10;&#10;&#10;&#10;&#10;&#10;&#10;&#10;&#10;&#10;&#10;<path
   d="M 148.86502,118.68985 V 92.401665 c -0.16284,-8.678843 6.22487,-16.098786 14.85072,-17.209556 8.7148,-1.184793 16.86638,4.546779 18.68937,13.136719 0.3261,1.540282 0.47427,3.095359 0.44464,4.665234 V 126.2135 c 0.57801,7.74575 -4.22403,14.89911 -11.61971,17.29837 -10.4192,4.20614 -18.67458,12.45543 -22.88372,22.86707 -3.83865,8.69359 -9.02602,12.30733 -18.43741,12.30733 H 96.857925 c -7.825522,-0.38521 -14.406074,-6.013 -16.006739,-13.68469 -1.986037,-7.80502 1.941563,-15.92106 9.30761,-19.1941 2.608522,-0.96269 5.350419,-1.46622 8.121949,-1.46622 h 26.174005 c -0.74107,-0.93304 -1.15603,-1.54028 -1.65994,-2.07345 -12.28667,-12.49985 -24.647445,-24.91088 -36.90447,-37.44036 -6.017335,-5.7908 -7.054825,-15.047202 -2.460308,-22.037675 5.039154,-7.804982 15.458363,-10.056156 23.269088,-5.035476 0.0165,0 0.0446,0.02893 0.0591,0.04464 1.17086,0.740527 2.25279,1.629144 3.20133,2.651051 11.81239,11.774161 23.52104,23.66678 35.20001,35.55943 0.99302,1.05154 1.92678,2.17711 2.78638,3.36194 l 0.99302,-0.71089 M 252.7605,220.09598 c 8.44801,0 16.86638,0.19259 25.31439,0 4.63899,-0.0889 8.96675,-2.36968 11.64935,-6.17588 4.12024,-5.09475 4.8613,-12.12961 1.88229,-17.96488 -2.51958,-6.13146 -8.56659,-10.0858 -15.20641,-9.90808 -10.81938,0 -21.63875,0.19261 -32.44332,0 -8.3887,-0.63682 -16.12533,4.51715 -18.74864,12.4999 -4.25366,10.76705 -12.924,19.1941 -23.80263,23.14845 -6.10628,1.85125 -10.33031,7.3903 -10.52295,13.74391 -0.44464,13.04785 -0.51875,26.1253 0,39.14352 1.00781,8.38263 8.033,14.76582 16.49585,14.97318 9.39655,0.22195 17.20724,-7.19778 17.42956,-16.60232 v -27.75441 c 1.21533,1.1552 1.98604,1.82167 2.65295,2.53256 12.12365,12.21846 24.188,24.49617 36.38572,36.685 l 0.71144,0.71089 c 0,0 0.029,0.0165 0.029,0.029 6.69909,6.33881 17.2665,6.05742 23.60994,-0.63682 l 0.1926,-0.19261 c 0,0 0,0 0,0 6.56572,-6.946 6.26929,-17.89081 -0.68179,-24.45173 l -18.14108,-18.35009 -20.98662,-21.20828 4.19435,-0.1926 z m -104.13277,25.07376 0.82997,0.47394 v 28.05063 c -0.0889,3.89511 1.31908,7.68653 3.94239,10.58933 4.87615,5.00588 12.27187,6.64982 18.82279,4.19133 6.65466,-2.48813 11.0417,-8.88616 10.93792,-15.99509 v -33.51566 c 0.4891,-7.83461 -4.34257,-15.0324 -11.78272,-17.55016 -10.41921,-4.25052 -18.6301,-12.6035 -22.69107,-23.08917 -3.29028,-8.44186 -8.3887,-12.18888 -17.37026,-12.18888 H 98.873425 c -2.47511,-0.029 -4.920579,0.35544 -7.262351,1.1552 -6.521242,2.57699 -10.849008,8.82693 -10.967587,15.8322 -0.163257,9.56742 7.469829,17.4613 17.044228,17.62419 h 24.099065 c 0.74107,0 1.46729,0.32568 2.816,0.32568 -3.20133,3.09537 -5.95806,5.79085 -8.64065,8.50113 -9.88567,10.17465 -19.875075,20.17158 -29.760701,30.34623 -1.348754,1.30329 -2.475147,2.82874 -3.334748,4.5023 -4.416669,8.56035 -1.067125,19.06081 7.499463,23.47427 6.876971,3.42116 15.206416,1.79206 20.290036,-3.96915 8.21086,-8.20489 16.39207,-16.46902 24.51402,-24.77758 4.55009,-4.60597 8.96676,-9.33047 13.4427,-14.04013 M 249.70741,143.67484 c 1.24497,-1.34772 1.98603,-2.17711 2.75673,-2.94723 11.42703,-11.58164 23.0023,-23.05958 34.28112,-34.78931 2.59368,-2.65105 4.57971,-5.82043 5.85431,-9.300832 1.74888,-5.983361 0.074,-12.440623 -4.34256,-16.824475 -6.66949,-6.620188 -17.44439,-6.590554 -24.08421,0.07398 -10.04872,10.04136 -19.96398,20.216017 -29.92376,30.346237 -2.97905,3.19901 -5.73574,6.39804 -8.92228,9.59705 l -0.54838,-0.93305 V 92.253535 c 0.029,-0.429471 0.029,-0.858982 0,-1.273656 0,-0.01653 0,-0.02893 0,-0.05911 -0.34097,-9.034289 -7.9441,-16.083948 -16.98491,-15.74334 h -0.44464 c 0,0 -0.029,0 -0.0446,0 -9.32245,0.207483 -16.71817,7.938316 -16.51069,17.268784 v 32.908427 c -0.5187,7.83461 4.20919,15.06204 11.59007,17.74269 10.71563,4.30978 19.134,12.91456 23.16535,23.72604 2.28242,7.28665 9.20387,12.11481 16.83671,11.77416 10.98242,0.22236 22.24644,0.16284 33.37704,0 6.87697,0.28147 13.2352,-3.67296 16.00673,-9.98213 1.15607,-2.38442 1.73408,-5.00584 1.68961,-7.6421 0,0 0,-0.029 0,-0.029 -0.10374,-9.56742 -7.9589,-17.23915 -17.5333,-17.13545 h -26.08509"
   id="Shape"
   fill="#ffffff"
   style="stroke-width:4.1331" /></svg>
