<svg xmlns="http://www.w3.org/2000/svg" width="373.8" height="364.6" style="background-color:#41d7eb"><path d="M215.115 222.134c-14.277 0-25.862-12.264-25.862-27.378s11.585-27.378 25.862-27.378c8.236 0 15.544 4.073 20.273 10.386l15.861-13.282c-8.666-10.318-21.631-16.879-36.135-16.879-26.043 0-47.154 21.111-47.154 47.154s21.111 47.154 47.154 47.154c14.504 0 27.469-6.562 36.135-16.879l-15.861-13.282c-4.752 6.335-12.06 10.386-20.273 10.386m-100.1-31.293H94.538v-24.731h20.477c7.829 0 13.757 4.661 13.757 12.354 0 7.716-5.928 12.377-13.757 12.377m38.307 49.756l-24.708-34.913c9.888-2.353 20.07-10.997 20.07-27.197 0-17.038-11.675-29.55-30.772-29.55H75.034v91.66h19.504v-32.582h12.92l22.084 32.582zm121.346.09h21.269v-62.676c0-5.86-4.774-10.612-10.657-10.612-5.86 0-10.635 4.752-10.635 10.612v62.676zM285.28 122.69c7.444 0 13.485 6.019 13.485 13.44s-6.041 13.44-13.485 13.44c-7.422 0-13.463-6.019-13.463-13.44s6.041-13.44 13.463-13.44" fill="#fff"/></svg>