<?xml version="1.0" encoding="UTF-8" standalone="no"?>
<svg
   version="1.1"
   id="Layer_1"
   x="0px"
   y="0px"
   viewBox="0 0 373.79998 364.60001"
   xml:space="preserve"
   width="373.79999"
   height="364.60001"
   xmlns="http://www.w3.org/2000/svg"
   xmlns:svg="http://www.w3.org/2000/svg"
   style="background-color:#470054"><defs
   id="defs13" />&#10;<style
   type="text/css"
   id="style1">&#10;	.st0{fill:#F9383D;}&#10;	.st1{fill:#FFFFFF;}&#10;	.st2{fill-rule:evenodd;clip-rule:evenodd;fill:#FFFFFF;}&#10;</style>&#10;&#10;&#10;&#10;&#10;&#10;&#10;&#10;&#10;&#10;&#10;&#10;&#10;&#10;<path
   style="stroke-width:1.09805"
   fill="#ffffff"
   d="m 221.82316,288.67597 c -5.65498,-0.94433 -7.86207,1.41649 -16.361,0.63687 -5.3371,-0.47219 -10.70547,-0.47219 -16.04257,0 1.26276,-3.62358 6.91774,-2.67925 8.33423,-4.72163 2.19611,-3.15142 -1.57022,-8.49894 -3.93103,-15.37276 -0.94433,-2.83297 -0.30746,-8.3452 4.39221,-8.78443 -0.30745,4.09574 1.88866,16.05355 6.13812,20.45675 1.88866,1.88865 3.77731,3.62357 10.54132,3.7773 2.84396,-0.1098 5.51223,0.70276 6.92872,4.0079 z m 34.13849,-101.77861 c 0.16256,-2.42671 -0.68827,-4.81221 -2.34983,-6.58832 -3.77731,-3.64554 -12.39703,-12.60566 -19.98458,-20.92891 16.20727,27.37448 -12.74841,70.16564 -24.22307,84.16583 -1.41649,1.73492 1.09806,-3.29417 -0.7906,-7.68638 -2.67925,15.53746 -15.88884,19.62222 -17.90926,24.19012 -2.52552,-7.55461 -23.12501,-0.94432 -42.95586,2.51455 12.72644,-8.33423 40.10092,-27.41841 50.32381,-44.98727 -16.04257,18.40339 -39.21151,34.29222 -51.91599,42.30802 -4.13462,2.5569 -8.83144,4.06471 -13.68175,4.39221 -5.83066,0.15373 -13.37429,-0.94432 -17.47004,-4.39221 23.91562,-4.71065 28.16509,-32.40357 37.76208,-47.66652 3.80564,-6.24002 8.21936,-12.0882 13.17664,-17.45906 -14.94451,21.5548 -21.5548,53.48621 -21.5548,53.48621 0,0 19.83086,-41.37467 41.38565,-55.05642 9.88249,-6.29185 25.48583,-10.69505 23.27874,5.81968 9.27856,-16.05354 -1.73492,-25.80426 -17.93121,-22.81756 2.83297,-1.57021 5.97341,-3.14043 9.27855,-5.18281 5.02909,-2.83298 13.68175,-8.49894 11.7931,-17.56886 -2.51455,-11.48564 -14.2747,-26.58388 -18.08495,-38.54169 -2.51454,-8.02677 -5.49027,-23.289723 8.49894,-29.889026 -0.7906,-1.734925 -5.04007,-4.721632 -5.1938,-9.882485 3.29417,3.151415 7.23618,3.931033 13.3743,5.819686 13.36331,3.931032 17.76651,8.971099 20.12733,15.372753 1.09805,3.294162 1.58119,8.971102 2.83297,15.888842 8.34521,23.28972 22.97129,61.83141 24.70622,67.49737 1.13099,4.513 -0.76864,6.08322 -2.49259,7.19225 z m -33.97378,-79.29047 c 0.62124,1.25099 1.8974,2.04222 3.29416,2.04238 0.81627,-1.01631 1.05269,-2.38092 0.62589,-3.61259 -0.36146,-1.11512 -1.5891,-1.69373 -2.67925,-1.26277 v 0 c -1.06434,0.5007 -1.59453,1.7112 -1.2408,2.83298 z m 33.34789,70.16564 c -2.83298,-8.65266 -23.44345,-58.8447 -25.3321,-62.92946 -0.94433,-1.88865 -4.71065,-1.09806 -3.29416,2.36081 1.41649,3.45887 18.08495,41.20996 21.54382,50.02734 -6.76402,-8.94914 -21.07166,-41.37467 -25.48583,-48.13868 -0.47217,-0.7906 -4.39222,-6.58833 -9.43229,-2.99769 -7.40088,-2.51454 -9.76169,-8.96012 -8.78443,-15.25197 -4.74359,12.90213 3.59064,16.81121 7.84011,17.90926 -0.47217,13.54998 36.97147,53.20071 42.94488,59.02039 z"
   id="path1-7" /></svg>
