<svg xmlns="http://www.w3.org/2000/svg" width="373.8" height="364.6" style="background-color:#470054"><path fill="#fff" d="M221.823 288.676c-5.655-.944-7.862 1.416-16.361.637a91.02 91.02 0 0 0-16.043 0c1.263-3.624 6.918-2.679 8.334-4.722 2.196-3.151-1.57-8.499-3.931-15.373-.944-2.833-.307-8.345 4.392-8.784-.307 4.096 1.889 16.054 6.138 20.457 1.889 1.889 3.777 3.624 10.541 3.777 2.844-.11 5.512.703 6.929 4.008zm34.138-101.779c.163-2.427-.688-4.812-2.35-6.588-3.777-3.646-12.397-12.606-19.985-20.929 16.207 27.374-12.748 70.166-24.223 84.166-1.416 1.735 1.098-3.294-.791-7.686-2.679 15.537-15.889 19.622-17.909 24.19-2.526-7.555-23.125-.944-42.956 2.515 12.726-8.334 40.101-27.418 50.324-44.987-16.043 18.403-39.212 34.292-51.916 42.308-4.135 2.557-8.831 4.065-13.682 4.392-5.831.154-13.374-.944-17.47-4.392 23.916-4.711 28.165-32.404 37.762-47.667 3.806-6.24 8.219-12.088 13.177-17.459-14.945 21.555-21.555 53.486-21.555 53.486s19.831-41.375 41.386-55.056c9.882-6.292 25.486-10.695 23.279 5.82 9.279-16.054-1.735-25.804-17.931-22.818 2.833-1.57 5.973-3.14 9.279-5.183 5.029-2.833 13.682-8.499 11.793-17.569-2.515-11.486-14.275-26.584-18.085-38.542-2.515-8.027-5.49-23.29 8.499-29.889-.791-1.735-5.04-4.722-5.194-9.882 3.294 3.151 7.236 3.931 13.374 5.82 13.363 3.931 17.767 8.971 20.127 15.373 1.098 3.294 1.581 8.971 2.833 15.889l24.706 67.497c1.131 4.513-.769 6.083-2.493 7.192zm-33.974-79.29a3.68 3.68 0 0 0 3.294 2.042 3.79 3.79 0 0 0 .626-3.613 2.03 2.03 0 0 0-2.679-1.263h0a2.35 2.35 0 0 0-1.241 2.833zm33.348 70.166c-2.833-8.653-23.443-58.845-25.332-62.929-.944-1.889-4.711-1.098-3.294 2.361s18.085 41.21 21.544 50.027c-6.764-8.949-21.072-41.375-25.486-48.139-.472-.791-4.392-6.588-9.432-2.998-7.401-2.515-9.762-8.96-8.784-15.252-4.744 12.902 3.591 16.811 7.84 17.909-.472 13.55 36.971 53.201 42.945 59.02z"/></svg>
