<svg xmlns="http://www.w3.org/2000/svg" width="373.8" height="364.6" style="background-color:#f06c00"><path d="M151.612 121.512c0-15.79 14.82-26.37 33.584-26.37 16.79 0 29.611 5.809 43.02 15.725 3.662 2.718 6.071 4.459 9.107 4.459 3.624 0 4.643-2.383 4.643-5.475V89.975c0-3.026-.631-4.75-3.645-6.165-11.495-4.415-31.606-8.83-53.756-8.83-44.708 0-68.896 28.046-68.896 59.803 0 69.116 104.757 54.789 104.757 101.581 0 28.402-40.24 48.251-86.969 15.108-4.404-3.048-6.353-4.819-9.393-4.819-5.705 0-6.702 3.052-6.702 6.208v17.379c0 3.069.648 4.771 3.991 6.868 56.446 27.052 136.777 11.262 136.777-57.416 0-63.311-106.513-59.252-106.513-98.182z" fill="#fff"/></svg>
