<?xml version="1.0" encoding="UTF-8" standalone="no"?>
<svg
   version="1.1"
   id="Layer_1"
   x="0px"
   y="0px"
   viewBox="0 0 373.79998 364.60001"
   xml:space="preserve"
   width="373.79999"
   height="364.60001"
   xmlns="http://www.w3.org/2000/svg"
   xmlns:svg="http://www.w3.org/2000/svg"
   style="background-color:#f06c00"><defs
   id="defs13" />&#10;<style
   type="text/css"
   id="style1">&#10;	.st0{fill:#F9383D;}&#10;	.st1{fill:#FFFFFF;}&#10;	.st2{fill-rule:evenodd;clip-rule:evenodd;fill:#FFFFFF;}&#10;</style>&#10;&#10;&#10;&#10;&#10;&#10;&#10;&#10;&#10;&#10;&#10;&#10;&#10;&#10;<path
   d="m 151.61223,121.51157 c 0,-15.78983 14.82029,-26.369928 33.58444,-26.369928 16.79009,0 29.61081,5.808858 43.01979,15.724708 3.66244,2.71774 6.07142,4.45866 9.10713,4.45866 3.62406,0 4.64308,-2.38345 4.64308,-5.47456 V 89.975325 c 0,-3.025985 -0.63124,-4.749538 -3.64542,-6.164848 -11.49466,-4.415247 -31.60613,-8.830494 -53.75557,-8.830494 -44.70817,0 -68.89565,28.045717 -68.89565,59.803377 0,69.11576 104.75684,54.789 104.75684,101.58107 0,28.40171 -40.23988,48.25079 -86.96908,15.10822 -4.40431,-3.0477 -6.35275,-4.81901 -9.39271,-4.81901 -5.70474,0 -6.70241,3.05204 -6.70241,6.20827 v 17.37879 c 0,3.0694 0.64775,4.77125 3.99074,6.86816 56.44596,27.05153 136.77654,11.2617 136.77654,-57.41557 0,-63.31126 -106.51347,-59.25201 -106.51347,-98.18172 z"
   fill="#ffffff"
   style="stroke-width:4.34144"
   id="path1-6" /></svg>
