<svg xmlns="http://www.w3.org/2000/svg" width="373.8" height="364.6">
  <rect width="373.8" height="364.6" fill="#ec0000" />
  <path d="M-707.916-1.269c-.223 5.149-1.664 10.257-4.33 14.874l-23.514 40.728c-1.793 3.105-3.032 6.434-3.719 9.846l-.983-1.701c-5.82-10.081-5.82-22.5-.001-32.581l18.812-32.582c5.819-10.081 5.819-22.501 0-32.581l-.983-1.702c-.688 3.413-1.927 6.741-3.72 9.846l-17.221 29.829-10.996 19.045a32.57 32.57 0 0 0-3.72 9.846l-.982-1.702a32.58 32.58 0 0 1-.057-32.478l-.002-.001 18.87-32.683c5.82-10.081 5.82-22.501 0-32.582l-.983-1.702a32.55 32.55 0 0 1-3.72 9.847l-23.513 40.727a32.56 32.56 0 0 0-4.331 17.703c-25.172-6.576-42.546-20.54-42.546-36.708 0-22.493 33.62-40.727 75.093-40.727s75.092 18.234 75.092 40.727c0 16.169-17.372 30.136-42.546 36.712" transform="matrix(1.496129 0 0 -1.496129 1294.2849 171.77407)" clip-path="url(#clipPath2)" fill="#fff" />
</svg>