<?xml version="1.0" encoding="UTF-8" standalone="no"?>

<svg
   version="1.1"
   id="Layer_1"
   x="0px"
   y="0px"
   viewBox="0 0 373.79998 364.60001"
   xml:space="preserve"
   width="373.79999"
   height="364.60001"
   xmlns="http://www.w3.org/2000/svg"
   xmlns:svg="http://www.w3.org/2000/svg"
   style="background-color:#ec0000"><defs
   id="defs13" />&#10;<style
   type="text/css"
   id="style1">&#10;	.st0{fill:#F9383D;}&#10;	.st1{fill:#FFFFFF;}&#10;	.st2{fill-rule:evenodd;clip-rule:evenodd;fill:#FFFFFF;}&#10;</style>&#10;&#10;&#10;&#10;&#10;&#10;&#10;&#10;&#10;&#10;&#10;&#10;&#10;&#10;<path
   id="path1-0"
   d="m -707.916,-1.269 c -0.223,5.149 -1.664,10.257 -4.33,14.874 l -23.514,40.728 c -1.793,3.105 -3.032,6.434 -3.719,9.846 l -0.983,-1.701 c -5.82,-10.081 -5.82,-22.5 -10e-4,-32.581 l 18.812,-32.582 c 5.819,-10.081 5.819,-22.501 0,-32.581 l -0.983,-1.702 c -0.688,3.413 -1.927,6.741 -3.72,9.846 l -17.221,29.829 -10.996,19.045 c -1.793,3.105 -3.031,6.434 -3.72,9.846 l -0.982,-1.702 c -5.8,-10.046 -5.818,-22.416 -0.057,-32.478 l -0.002,-0.001 18.87,-32.683 c 5.82,-10.081 5.82,-22.501 0,-32.582 l -0.983,-1.702 c -0.688,3.413 -1.927,6.741 -3.72,9.847 l -23.513,40.727 c -3.154,5.463 -4.595,11.612 -4.331,17.703 -25.172,-6.576 -42.546,-20.54 -42.546,-36.708 0,-22.493 33.62,-40.727 75.093,-40.727 41.472,0 75.092,18.234 75.092,40.727 0,16.169 -17.372,30.136 -42.546,36.712"
   style="fill:#ffffff;fill-opacity:1;fill-rule:nonzero;stroke:none"
   transform="matrix(1.4961291,0,0,-1.4961291,1294.2849,171.77407)"
   clip-path="url(#clipPath2)" /></svg>
