<svg xmlns="http://www.w3.org/2000/svg" width="373.8" height="364.6">
  <rect width="373.8" height="364.6" fill="#001e41" />
  <path fill-rule="evenodd" d="M196.224 84.189c52.782 4.485 91.555 46.547 91.555 98.286 0 51.095-37.808 92.44-89.58 97.75l-1.975.186v-42.039c27.55-4.474 46.006-28.284 46.006-55.896 0-28.888-18.681-51.039-44.477-55.97l-1.529-.276V84.196zm-18.642 0v42.039c-26.586 4.344-46.011 26.789-46.011 56.252 0 27.065 17.739 50.48 44.398 55.603l1.614.282v42.045c-52.788-4.452-91.56-46.198-91.56-97.936 0-51.089 37.808-92.745 89.585-98.099z" fill="#fff" />
</svg>