<?xml version="1.0" encoding="UTF-8" standalone="no"?>

<svg
   version="1.1"
   id="Layer_1"
   x="0px"
   y="0px"
   viewBox="0 0 373.79998 364.60001"
   xml:space="preserve"
   width="373.79999"
   height="364.60001"
   xmlns="http://www.w3.org/2000/svg"
   xmlns:svg="http://www.w3.org/2000/svg"
   style="background-color:#001e41"><defs
   id="defs13" />&#10;<style
   type="text/css"
   id="style1">&#10;	.st0{fill:#F9383D;}&#10;	.st1{fill:#FFFFFF;}&#10;	.st2{fill-rule:evenodd;clip-rule:evenodd;fill:#FFFFFF;}&#10;</style>&#10;&#10;&#10;&#10;&#10;&#10;&#10;&#10;&#10;&#10;&#10;&#10;&#10;&#10;<path
   fill-rule="evenodd"
   clip-rule="evenodd"
   d="m 196.22363,84.189227 c 52.78188,4.485492 91.55454,46.547353 91.55454,98.285643 0,51.09488 -37.80784,92.44028 -89.57987,97.74961 l -1.97467,0.1863 v -42.03941 c 27.55035,-4.47419 46.00575,-28.28396 46.00575,-55.89636 0,-28.88761 -18.68102,-51.03855 -44.47674,-55.96985 l -1.52901,-0.27579 V 84.195535 Z m -18.64155,0 v 42.039413 c -26.58568,4.34437 -46.01147,26.7887 -46.01147,56.2518 0,27.06522 17.7388,50.47994 44.39782,55.60312 l 1.61365,0.28165 v 42.04498 c -52.7876,-4.4516 -91.560262,-46.19762 -91.560262,-97.93576 0,-51.08946 37.807842,-92.74512 89.585452,-98.099487 z"
   fill="#001e41"
   id="path1-1"
   style="fill:#ffffff;fill-opacity:1;stroke-width:5.64211" /></svg>
