<?xml version="1.0" encoding="UTF-8" standalone="no"?>
<svg
   version="1.1"
   id="Layer_1"
   x="0px"
   y="0px"
   viewBox="0 0 373.79998 364.60001"
   xml:space="preserve"
   width="373.79999"
   height="364.60001"
   xmlns="http://www.w3.org/2000/svg"
   xmlns:svg="http://www.w3.org/2000/svg"
   style="background-color:#472f92"><defs
   id="defs13"><linearGradient
     id="a"
     x1="9.2101011"
     x2="2.1493504"
     y1="29.007013"
     y2="17.639847"
     gradientTransform="scale(1.0406495,0.96093836)"
     gradientUnits="userSpaceOnUse"><stop
       offset="0%"
       stop-color="#004712"
       id="stop1" /><stop
       offset="2.479%"
       stop-color="#0F5113"
       id="stop2" /><stop
       offset="10.46%"
       stop-color="#3A6F16"
       id="stop3" /><stop
       offset="19.07%"
       stop-color="#618A19"
       id="stop4" /><stop
       offset="28.2%"
       stop-color="#81A01C"
       id="stop5" /><stop
       offset="38%"
       stop-color="#9BB31E"
       id="stop6" /><stop
       offset="48.72%"
       stop-color="#B0C11F"
       id="stop7" /><stop
       offset="60.86%"
       stop-color="#BECA20"
       id="stop8" /><stop
       offset="75.56%"
       stop-color="#C6D021"
       id="stop9" /><stop
       offset="100%"
       stop-color="#C9D221"
       id="stop10" /></linearGradient><linearGradient
     id="b"
     x1="7.7331414"
     x2="2.4161103"
     y1="18.059156"
     y2="9.4987955"
     gradientTransform="scale(1.0407644,0.96083228)"
     gradientUnits="userSpaceOnUse"><stop
       offset="0%"
       stop-color="#004712"
       id="stop11" /><stop
       offset="2.479%"
       stop-color="#0F5113"
       id="stop12" /><stop
       offset="10.46%"
       stop-color="#3A6F16"
       id="stop13" /><stop
       offset="19.07%"
       stop-color="#618A19"
       id="stop14" /><stop
       offset="28.2%"
       stop-color="#81A01C"
       id="stop15" /><stop
       offset="38%"
       stop-color="#9BB31E"
       id="stop16" /><stop
       offset="48.72%"
       stop-color="#B0C11F"
       id="stop17" /><stop
       offset="60.86%"
       stop-color="#BECA20"
       id="stop18" /><stop
       offset="75.56%"
       stop-color="#C6D021"
       id="stop19" /><stop
       offset="100%"
       stop-color="#C9D221"
       id="stop20" /></linearGradient><linearGradient
     id="c"
     x1="8.3072338"
     x2="6.042172"
     y1="7.7186909"
     y2="1.6857423"
     gradientTransform="scale(0.80915054,1.235864)"
     gradientUnits="userSpaceOnUse"><stop
       offset="0%"
       stop-color="#004712"
       id="stop21" /><stop
       offset="2.479%"
       stop-color="#0F5113"
       id="stop22" /><stop
       offset="10.46%"
       stop-color="#3A6F16"
       id="stop23" /><stop
       offset="19.07%"
       stop-color="#618A19"
       id="stop24" /><stop
       offset="28.2%"
       stop-color="#81A01C"
       id="stop25" /><stop
       offset="38%"
       stop-color="#9BB31E"
       id="stop26" /><stop
       offset="48.72%"
       stop-color="#B0C11F"
       id="stop27" /><stop
       offset="60.86%"
       stop-color="#BECA20"
       id="stop28" /><stop
       offset="75.56%"
       stop-color="#C6D021"
       id="stop29" /><stop
       offset="100%"
       stop-color="#C9D221"
       id="stop30" /></linearGradient><linearGradient
     id="d"
     x1="21.627361"
     x2="24.000689"
     y1="15.817935"
     y2="6.02982"
     gradientTransform="scale(0.81892415,1.2211143)"
     gradientUnits="userSpaceOnUse"><stop
       offset="0%"
       stop-color="#004712"
       id="stop31" /><stop
       offset="2.479%"
       stop-color="#0F5113"
       id="stop32" /><stop
       offset="10.46%"
       stop-color="#3A6F16"
       id="stop33" /><stop
       offset="19.07%"
       stop-color="#618A19"
       id="stop34" /><stop
       offset="28.2%"
       stop-color="#81A01C"
       id="stop35" /><stop
       offset="38%"
       stop-color="#9BB31E"
       id="stop36" /><stop
       offset="48.72%"
       stop-color="#B0C11F"
       id="stop37" /><stop
       offset="60.86%"
       stop-color="#BECA20"
       id="stop38" /><stop
       offset="75.56%"
       stop-color="#C6D021"
       id="stop39" /><stop
       offset="100%"
       stop-color="#C9D221"
       id="stop40" /></linearGradient><linearGradient
     id="e"
     x1="18.913286"
     x2="20.044744"
     y1="8.7907448"
     y2="2.3399413"
     gradientTransform="scale(0.6966533,1.4354342)"
     gradientUnits="userSpaceOnUse"><stop
       offset="0%"
       stop-color="#004712"
       id="stop41" /><stop
       offset="2.479%"
       stop-color="#0F5113"
       id="stop42" /><stop
       offset="10.46%"
       stop-color="#3A6F16"
       id="stop43" /><stop
       offset="19.07%"
       stop-color="#618A19"
       id="stop44" /><stop
       offset="28.2%"
       stop-color="#81A01C"
       id="stop45" /><stop
       offset="38%"
       stop-color="#9BB31E"
       id="stop46" /><stop
       offset="48.72%"
       stop-color="#B0C11F"
       id="stop47" /><stop
       offset="60.86%"
       stop-color="#BECA20"
       id="stop48" /><stop
       offset="75.56%"
       stop-color="#C6D021"
       id="stop49" /><stop
       offset="100%"
       stop-color="#C9D221"
       id="stop50" /></linearGradient><linearGradient
     id="f"
     x1="25.218845"
     x2="27.712002"
     y1="22.983511"
     y2="12.703379"
     gradientTransform="scale(0.81896405,1.2210548)"
     gradientUnits="userSpaceOnUse"><stop
       offset="0%"
       stop-color="#004712"
       id="stop51" /><stop
       offset="2.479%"
       stop-color="#0F5113"
       id="stop52" /><stop
       offset="10.46%"
       stop-color="#3A6F16"
       id="stop53" /><stop
       offset="19.07%"
       stop-color="#618A19"
       id="stop54" /><stop
       offset="28.2%"
       stop-color="#81A01C"
       id="stop55" /><stop
       offset="38%"
       stop-color="#9BB31E"
       id="stop56" /><stop
       offset="48.72%"
       stop-color="#B0C11F"
       id="stop57" /><stop
       offset="60.86%"
       stop-color="#BECA20"
       id="stop58" /><stop
       offset="75.56%"
       stop-color="#C6D021"
       id="stop59" /><stop
       offset="100%"
       stop-color="#C9D221"
       id="stop60" /></linearGradient><linearGradient
     id="g"
     x1="14.365355"
     x2="14.973961"
     y1="3.9117727"
     y2="0.23784974"
     gradientTransform="scale(0.67712852,1.4768245)"
     gradientUnits="userSpaceOnUse"><stop
       offset="0%"
       stop-color="#004712"
       id="stop61" /><stop
       offset="2.479%"
       stop-color="#0F5113"
       id="stop62" /><stop
       offset="10.46%"
       stop-color="#3A6F16"
       id="stop63" /><stop
       offset="19.07%"
       stop-color="#618A19"
       id="stop64" /><stop
       offset="28.2%"
       stop-color="#81A01C"
       id="stop65" /><stop
       offset="38%"
       stop-color="#9BB31E"
       id="stop66" /><stop
       offset="48.72%"
       stop-color="#B0C11F"
       id="stop67" /><stop
       offset="60.86%"
       stop-color="#BECA20"
       id="stop68" /><stop
       offset="75.56%"
       stop-color="#C6D021"
       id="stop69" /><stop
       offset="100%"
       stop-color="#C9D221"
       id="stop70" /></linearGradient></defs>&#10;<style
   type="text/css"
   id="style1">&#10;	.st0{fill:#F9383D;}&#10;	.st1{fill:#FFFFFF;}&#10;	.st2{fill-rule:evenodd;clip-rule:evenodd;fill:#FFFFFF;}&#10;</style>&#10;&#10;&#10;&#10;&#10;&#10;&#10;&#10;&#10;&#10;&#10;&#10;&#10;&#10;<g
   id="g80"
   transform="matrix(5.4572343,0,0,5.4572343,-261.36803,74.792487)"><path
     fill="url(#a)"
     d="m 5.69,20.49 c 0,0 3.776,0.965 5.726,3.892 A 10.475,10.475 0 0 0 8.292,19.745 c -2.439,-2.127 -5.509,-2.909 -8.29,-2.454 -0.054,2.836 1.174,5.782 3.63,7.909 2.312,2.018 5.22,2.818 7.856,2.51 -0.505,-1.674 -1.932,-5.128 -5.797,-7.22 z"
     transform="translate(69.334,0.036)"
     id="path70"
     style="fill:url(#a)" /><path
     fill="url(#b)"
     d="m 5.113,11.8 c 0,0 2.835,0.727 4.316,2.927 A 7.931,7.931 0 0 0 7.082,11.237 C 5.239,9.637 2.928,9.037 0.832,9.4 0.796,11.527 1.717,13.745 3.56,15.345 5.312,16.873 7.479,17.473 9.484,17.236 9.104,15.964 8.021,13.364 5.113,11.8 Z"
     transform="translate(69.334,0.036)"
     id="path71"
     style="fill:url(#b)" /><path
     fill="url(#c)"
     d="m 6.052,4.8 c 0,0 1.788,1.218 2.258,3.11 C 8.328,6.91 8.093,5.873 7.551,4.89 6.684,3.327 5.221,2.327 3.686,2.055 c -0.56,1.472 -0.47,3.236 0.416,4.8 0.83,1.49 2.185,2.454 3.63,2.8 C 7.786,8.691 7.678,6.618 6.052,4.8 Z"
     transform="translate(69.334,0.036)"
     id="path72"
     style="fill:url(#c)" /><path
     fill="url(#d)"
     d="m 18.352,11.8 c 0,0 -2.71,1.782 -3.45,4.6 -0.018,-1.49 0.38,-3.055 1.21,-4.49 1.355,-2.328 3.558,-3.765 5.852,-4.146 0.794,2.2 0.614,4.854 -0.74,7.163 -1.283,2.2 -3.342,3.618 -5.51,4.073 -0.054,-1.418 0.163,-4.527 2.638,-7.2 z"
     transform="translate(69.334,0.036)"
     id="path73"
     style="fill:url(#d)" /><path
     fill="url(#e)"
     d="m 12.915,6.982 c 0,0 -1.535,2 -1.354,4.254 a 6.683,6.683 0 0 1 -0.253,-3.6 c 0.397,-2.054 1.643,-3.672 3.233,-4.545 1.138,1.418 1.68,3.4 1.282,5.454 -0.38,1.946 -1.517,3.51 -2.998,4.4 -0.415,-1.036 -1.048,-3.363 0.09,-5.963 z"
     transform="translate(69.334,0.036)"
     id="path74"
     style="fill:url(#e)" /><path
     fill="url(#f)"
     d="m 21.332,20.182 c 0,0 -2.836,1.854 -3.63,4.818 -0.019,-1.564 0.397,-3.2 1.282,-4.71 1.426,-2.435 3.72,-3.963 6.14,-4.363 0.831,2.31 0.632,5.091 -0.776,7.528 -1.355,2.309 -3.504,3.8 -5.78,4.272 -0.072,-1.49 0.163,-4.745 2.764,-7.545 z"
     transform="translate(69.334,0.036)"
     id="path75"
     style="fill:url(#f)" /><path
     fill="#004712"
     d="m 84.29,39.364 a 24.86,24.86 0 0 0 2.077,-9.982 c 0,-7.546 -3.36,-14.31 -8.67,-18.855 a 24.843,24.843 0 0 1 3.288,20.51 24.531,24.531 0 0 1 -4.136,8.308 h 7.44 v 0.019 z"
     id="path76" /><path
     fill="url(#g)"
     d="m 10.44,2.51 c 0,0 0.67,1.38 0.29,2.708 0.361,-0.6 0.578,-1.327 0.596,-2.109 C 11.344,1.836 10.802,0.71 9.97,0 9.121,0.69 8.543,1.8 8.543,3.073 a 4.012,4.012 0 0 0 1.247,3 C 10.133,5.509 10.801,4.2 10.44,2.509 Z"
     transform="translate(69.334,0.036)"
     id="path77"
     style="fill:url(#g)" /></g></svg>
