<svg xmlns="http://www.w3.org/2000/svg" width="373.8" height="364.6" style="background-color:#472f92"><defs><linearGradient id="A" x1="9.584" x2="2.237" y1="27.874" y2="16.951" href="#H"><stop offset="0%" stop-color="#004712"/><stop offset="2.479%" stop-color="#0f5113"/><stop offset="10.46%" stop-color="#3a6f16"/><stop offset="19.07%" stop-color="#618a19"/><stop offset="28.2%" stop-color="#81a01c"/><stop offset="38%" stop-color="#9bb31e"/><stop offset="48.72%" stop-color="#b0c11f"/><stop offset="60.86%" stop-color="#beca20"/><stop offset="75.56%" stop-color="#c6d021"/><stop offset="100%" stop-color="#c9d221"/></linearGradient><linearGradient id="B" x1="8.048" x2="2.515" y1="17.352" y2="9.127" href="#H"><stop offset="0%" stop-color="#004712"/><stop offset="2.479%" stop-color="#0f5113"/><stop offset="10.46%" stop-color="#3a6f16"/><stop offset="19.07%" stop-color="#618a19"/><stop offset="28.2%" stop-color="#81a01c"/><stop offset="38%" stop-color="#9bb31e"/><stop offset="48.72%" stop-color="#b0c11f"/><stop offset="60.86%" stop-color="#beca20"/><stop offset="75.56%" stop-color="#c6d021"/><stop offset="100%" stop-color="#c9d221"/></linearGradient><linearGradient id="C" x1="8.307" x2="6.042" y1="7.719" y2="1.686" gradientTransform="scale(0.80915054,1.235864)" href="#H"><stop offset="0%" stop-color="#004712"/><stop offset="2.479%" stop-color="#0f5113"/><stop offset="10.46%" stop-color="#3a6f16"/><stop offset="19.07%" stop-color="#618a19"/><stop offset="28.2%" stop-color="#81a01c"/><stop offset="38%" stop-color="#9bb31e"/><stop offset="48.72%" stop-color="#b0c11f"/><stop offset="60.86%" stop-color="#beca20"/><stop offset="75.56%" stop-color="#c6d021"/><stop offset="100%" stop-color="#c9d221"/></linearGradient><linearGradient id="D" x1="21.627" x2="24.001" y1="15.818" y2="6.03" gradientTransform="scale(0.81892415,1.2211143)" href="#H"><stop offset="0%" stop-color="#004712"/><stop offset="2.479%" stop-color="#0f5113"/><stop offset="10.46%" stop-color="#3a6f16"/><stop offset="19.07%" stop-color="#618a19"/><stop offset="28.2%" stop-color="#81a01c"/><stop offset="38%" stop-color="#9bb31e"/><stop offset="48.72%" stop-color="#b0c11f"/><stop offset="60.86%" stop-color="#beca20"/><stop offset="75.56%" stop-color="#c6d021"/><stop offset="100%" stop-color="#c9d221"/></linearGradient><linearGradient id="E" x1="18.913" x2="20.045" y1="8.791" y2="2.34" gradientTransform="scale(0.6966533,1.4354342)" href="#H"><stop offset="0%" stop-color="#004712"/><stop offset="2.479%" stop-color="#0f5113"/><stop offset="10.46%" stop-color="#3a6f16"/><stop offset="19.07%" stop-color="#618a19"/><stop offset="28.2%" stop-color="#81a01c"/><stop offset="38%" stop-color="#9bb31e"/><stop offset="48.72%" stop-color="#b0c11f"/><stop offset="60.86%" stop-color="#beca20"/><stop offset="75.56%" stop-color="#c6d021"/><stop offset="100%" stop-color="#c9d221"/></linearGradient><linearGradient id="F" x1="25.219" x2="27.712" y1="22.984" y2="12.703" gradientTransform="scale(0.81896405,1.2210548)" href="#H"><stop offset="0%" stop-color="#004712"/><stop offset="2.479%" stop-color="#0f5113"/><stop offset="10.46%" stop-color="#3a6f16"/><stop offset="19.07%" stop-color="#618a19"/><stop offset="28.2%" stop-color="#81a01c"/><stop offset="38%" stop-color="#9bb31e"/><stop offset="48.72%" stop-color="#b0c11f"/><stop offset="60.86%" stop-color="#beca20"/><stop offset="75.56%" stop-color="#c6d021"/><stop offset="100%" stop-color="#c9d221"/></linearGradient><linearGradient id="G" x1="14.365" x2="14.974" y1="3.912" y2=".238" gradientTransform="scale(0.67712852,1.4768245)" href="#H"><stop offset="0%" stop-color="#004712"/><stop offset="2.479%" stop-color="#0f5113"/><stop offset="10.46%" stop-color="#3a6f16"/><stop offset="19.07%" stop-color="#618a19"/><stop offset="28.2%" stop-color="#81a01c"/><stop offset="38%" stop-color="#9bb31e"/><stop offset="48.72%" stop-color="#b0c11f"/><stop offset="60.86%" stop-color="#beca20"/><stop offset="75.56%" stop-color="#c6d021"/><stop offset="100%" stop-color="#c9d221"/></linearGradient><linearGradient id="H" gradientUnits="userSpaceOnUse"/></defs><g transform="matrix(5.457234 0 0 5.457234 -261.36803 74.792487)"><g transform="translate(69.334 .036)"><path fill="url(#A)" d="M5.69 20.49s3.776.965 5.726 3.892c-.602-1.8-1.682-3.403-3.124-4.637-2.439-2.127-5.509-2.909-8.29-2.454-.054 2.836 1.174 5.782 3.63 7.909 2.312 2.018 5.22 2.818 7.856 2.51-.505-1.674-1.932-5.128-5.797-7.22z"/><path fill="url(#B)" d="M5.113 11.8s2.835.727 4.316 2.927a7.93 7.93 0 0 0-2.347-3.49c-1.843-1.6-4.154-2.2-6.25-1.837-.036 2.127.885 4.345 2.728 5.945 1.752 1.528 3.919 2.128 5.924 1.891-.38-1.272-1.463-3.872-4.371-5.436z"/><path fill="url(#C)" d="M6.052 4.8S7.84 6.018 8.31 7.91c.018-1-.217-2.037-.759-3.02-.867-1.563-2.33-2.563-3.865-2.835-.56 1.472-.47 3.236.416 4.8.83 1.49 2.185 2.454 3.63 2.8.054-.964-.054-3.037-1.68-4.855z"/><path fill="url(#D)" d="M18.352 11.8s-2.71 1.782-3.45 4.6c-.018-1.49.38-3.055 1.21-4.49 1.355-2.328 3.558-3.765 5.852-4.146.794 2.2.614 4.854-.74 7.163-1.283 2.2-3.342 3.618-5.51 4.073-.054-1.418.163-4.527 2.638-7.2z"/><path fill="url(#E)" d="M12.915 6.982s-1.535 2-1.354 4.254c-.413-1.154-.5-2.4-.253-3.6.397-2.054 1.643-3.672 3.233-4.545 1.138 1.418 1.68 3.4 1.282 5.454-.38 1.946-1.517 3.51-2.998 4.4-.415-1.036-1.048-3.363.09-5.963z"/><path fill="url(#F)" d="M21.332 20.182s-2.836 1.854-3.63 4.818c-.019-1.564.397-3.2 1.282-4.71 1.426-2.435 3.72-3.963 6.14-4.363.831 2.31.632 5.091-.776 7.528-1.355 2.309-3.504 3.8-5.78 4.272-.072-1.49.163-4.745 2.764-7.545z"/></g><path fill="#004712" d="M84.29 39.364a24.86 24.86 0 0 0 2.077-9.982 24.75 24.75 0 0 0-8.67-18.855 24.843 24.843 0 0 1 3.288 20.51 24.531 24.531 0 0 1-4.136 8.308h7.44v.019z"/><path fill="url(#G)" d="M10.44 2.51s.67 1.38.29 2.708c.361-.6.578-1.327.596-2.109C11.344 1.836 10.802.71 9.97 0c-.849.69-1.427 1.8-1.427 3.073a4.01 4.01 0 0 0 1.247 3c.343-.564 1.011-1.873.65-3.564z" transform="translate(69.334 .036)"/></g></svg>
