<?xml version="1.0" encoding="UTF-8" standalone="no"?>

<svg
   version="1.1"
   id="Layer_1"
   x="0px"
   y="0px"
   viewBox="0 0 373.79998 364.60001"
   xml:space="preserve"
   width="373.79999"
   height="364.60001"
   xmlns="http://www.w3.org/2000/svg"
   xmlns:svg="http://www.w3.org/2000/svg"
   style="background-color:#ff222f"><defs
   id="defs13" />&#10;<style
   type="text/css"
   id="style1">&#10;	.st0{fill:#F9383D;}&#10;	.st1{fill:#FFFFFF;}&#10;	.st2{fill-rule:evenodd;clip-rule:evenodd;fill:#FFFFFF;}&#10;</style>&#10;&#10;&#10;&#10;&#10;&#10;&#10;&#10;&#10;&#10;&#10;&#10;&#10;&#10;<path
   d="m 243.78492,281.10808 c -0.0966,-17.68799 -6.6974,-28.33513 -6.74033,-37.43672 -0.0322,-5.84948 1.64215,-10.80813 10.07829,-22.30318 l -0.1288,-0.11807 a 50.788579,50.788579 0 0 1 -10.03536,7.20185 c 0.45079,-14.1783 0.0859,-33.04692 -1.56701,-48.78151 h -0.1288 c -3.15551,22.27098 -7.89949,39.99118 -14.48956,55.62916 -18.6647,6.74034 -38.81054,4.37907 -53.87968,-1.39529 9.23039,-9.42358 17.52699,-22.7325 22.02412,-38.49928 H 188.789 c -6.99793,11.8707 -16.49663,20.89716 -26.68226,25.25476 -13.50211,-5.14111 -23.48381,-13.27673 -23.50527,-19.53407 -0.043,-5.58116 8.45761,-6.02122 8.42541,-11.88144 -0.0322,-7.27697 -13.84558,-20.86496 -42.13778,-29.04351 32.88593,-38.93934 88.24677,-6.57933 100.66485,-33.70163 h -0.13953 c -2.0822,1.95341 -5.07671,3.40236 -7.95315,3.4131 -6.01048,0.0322 -8.85473,-5.04452 -9.63824,-8.98354 20.22097,-0.42931 24.68591,-13.46991 34.36708,-13.52358 6.6652,-0.0322 11.16232,6.97645 13.89924,6.95498 1.43822,0 1.95341,-2.22173 1.39529,-7.29844 7.8673,2.69399 12.37516,13.34113 12.40736,20.36051 0.043,7.68484 -1.89975,11.46285 -1.83535,23.04377 0.0752,14.17829 3.55262,29.38696 12.87961,60.55561 -2.211,2.36126 -5.60263,4.84059 -8.46835,7.07305 -0.55811,17.95631 -0.96597,37.86605 1.45969,52.54879 0.67618,4.422 3.04818,6.49347 8.55421,9.32699 5.63483,2.8335 6.41834,2.69398 6.42907,3.60629 0,0.64397 -1.0411,1.43822 -3.39163,1.44895 l -19.88826,0.10733 c -2.22173,0.0107 -1.83534,-1.81388 -1.84607,-4.02488 z M 171.55179,102.99387 c 2.61886,1.67434 4.98011,2.44712 7.33064,2.43639 9.80997,-0.0537 12.62202,-12.825939 26.4998,-10.164154 v -0.128795 c -5.63483,-2.307597 -7.49164,-5.548965 -6.33248,-10.894001 2.23246,1.931942 4.3254,2.575921 6.15002,2.575921 7.58823,-0.04293 14.85447,-11.795572 25.05083,-11.849237 4.84059,-0.02147 8.77959,1.770946 10.7652,6.976454 0.79424,2.071469 0.54738,4.024876 1.21283,5.838754 0.39712,0.912305 1.05184,1.824611 1.97487,2.983776 0.39713,0.515184 -0.65471,1.041101 -1.42749,1.438222 -0.11806,2.994508 -0.10733,5.076711 -0.76204,5.860221 -0.77278,0.912305 -3.52043,1.18063 -7.4487,1.470421 0.82644,6.364668 1.10549,9.359178 -0.46153,9.369908 -2.23246,0.0107 -5.52749,-5.82802 -12.98694,-5.79582 -8.88692,0.0537 -17.84898,12.46102 -32.75713,12.54688 -7.84582,0.0322 -15.45552,-3.82095 -16.80788,-12.66494 z m 6.99792,184.17836 c 0,-1.68508 1.94268,-3.2521 3.3809,-4.69032 7.80289,-7.85656 7.74922,-18.38564 8.88693,-24.51419 1.78167,-10.41101 8.69373,-13.9529 17.83825,-15.18719 -1.26649,6.65446 -3.98194,13.29819 -6.95498,19.16914 -3.88536,7.69556 -4.12148,12.77227 -4.21808,19.14768 0,1.55628 -0.64398,1.82461 -2.0822,2.60812 -1.69581,0.92304 -2.211,1.83534 -2.85498,3.64922 -0.51519,1.57775 -1.15916,2.23247 -3.64922,2.2432 l -6.54714,0.0322 c -2.35052,0.0107 -3.78875,-0.75131 -3.79948,-2.44713 z"
   style="fill:#ffffff;fill-opacity:1;stroke-width:10.733"
   id="path2" /></svg>
