<svg xmlns="http://www.w3.org/2000/svg" width="373.8" height="364.6">
  <rect width="373.8" height="364.6" fill="#ff222f" />
  <path d="M243.785 281.108c-.097-17.688-6.697-28.335-6.74-37.437-.032-5.849 1.642-10.808 10.078-22.303l-.129-.118a50.789 50.789 0 0 1-10.035 7.202c.451-14.178.086-33.047-1.567-48.782h-.129c-3.156 22.271-7.899 39.991-14.49 55.629-18.665 6.74-38.811 4.379-53.88-1.395 9.23-9.424 17.527-22.733 22.024-38.499h-.129c-6.998 11.871-16.497 20.897-26.682 25.255-13.502-5.141-23.484-13.277-23.505-19.534-.043-5.581 8.458-6.021 8.425-11.881-.032-7.277-13.846-20.865-42.138-29.044 32.886-38.939 88.247-6.579 100.665-33.702h-.14c-2.082 1.953-5.077 3.402-7.953 3.413-6.01.032-8.855-5.045-9.638-8.984 20.221-.429 24.686-13.47 34.367-13.524 6.665-.032 11.162 6.976 13.899 6.955 1.438 0 1.953-2.222 1.395-7.298 7.867 2.694 12.375 13.341 12.407 20.361.043 7.685-1.9 11.463-1.835 23.044.075 14.178 3.553 29.387 12.88 60.556-2.211 2.361-5.603 4.841-8.468 7.073-.558 17.956-.966 37.866 1.46 52.549.676 4.422 3.048 6.493 8.554 9.327 5.635 2.834 6.418 2.694 6.429 3.606 0 .644-1.041 1.438-3.392 1.449l-19.888.107c-2.222.011-1.835-1.814-1.846-4.025zm-72.233-178.114c2.619 1.674 4.98 2.447 7.331 2.436 9.81-.054 12.622-12.826 26.5-10.164v-.129c-5.635-2.308-7.492-5.549-6.332-10.894 2.232 1.932 4.325 2.576 6.15 2.576 7.588-.043 14.854-11.796 25.051-11.849 4.841-.021 8.78 1.771 10.765 6.976.794 2.071.547 4.025 1.213 5.839.397.912 1.052 1.825 1.975 2.984.397.515-.655 1.041-1.427 1.438-.118 2.995-.107 5.077-.762 5.86-.773.912-3.52 1.181-7.449 1.47.826 6.365 1.105 9.359-.462 9.37-2.232.011-5.527-5.828-12.987-5.796-8.887.054-17.849 12.461-32.757 12.547-7.846.032-15.456-3.821-16.808-12.665zm6.998 184.178c0-1.685 1.943-3.252 3.381-4.69 7.803-7.857 7.749-18.386 8.887-24.514 1.782-10.411 8.694-13.953 17.838-15.187-1.266 6.654-3.982 13.298-6.955 19.169-3.885 7.696-4.121 12.772-4.218 19.148 0 1.556-.644 1.825-2.082 2.608-1.696.923-2.211 1.835-2.855 3.649-.515 1.578-1.159 2.232-3.649 2.243l-6.547.032c-2.351.011-3.789-.751-3.799-2.447z" fill="#fff" />
</svg>