<?xml version="1.0" encoding="UTF-8" standalone="no"?>
<svg
   version="1.1"
   id="Layer_1"
   x="0px"
   y="0px"
   viewBox="0 0 373.79998 364.60001"
   xml:space="preserve"
   width="373.79999"
   height="364.60001"
   xmlns="http://www.w3.org/2000/svg"
   xmlns:svg="http://www.w3.org/2000/svg"
   style="background-color:#003a67"><defs
   id="defs13" />&#10;<style
   type="text/css"
   id="style1">&#10;	.st0{fill:#F9383D;}&#10;	.st1{fill:#FFFFFF;}&#10;	.st2{fill-rule:evenodd;clip-rule:evenodd;fill:#FFFFFF;}&#10;</style>&#10;&#10;&#10;&#10;&#10;&#10;&#10;&#10;&#10;&#10;&#10;&#10;&#10;&#10;<g
   id="g19"
   transform="matrix(3.8172083,0,0,3.8172083,100.65781,75.225211)"><path
     d="m 38.3207,8.21582 v 3.28628 l -2.6995,-1.115 V 7.10084 L 30.5158,5.04693 V 8.33319 L 27.8164,7.2182 V 3.93195 L 22.7109,1.87804 17.4881,3.93195 V 7.2182 L 14.7887,8.33319 V 5.04693 L 9.68328,7.10084 v 3.28626 l -2.69943,1.115 V 8.21582 L 1.87842,10.2697 v 13.4972 c 0,21.9475 20.83248,30.3979 20.83248,30.4565 0,0 20.8326,-8.509 20.8326,-30.4565 V 10.2697 Z"
     fill="#ffffff"
     id="path16" /><path
     d="M 22.593,56.1011 21.9475,55.8664 C 21.7128,55.8077 0,46.9466 0,23.8254 V 9.15458 L 22.593,0 45.186,9.15458 V 23.8254 c 0,23.2385 -21.7714,31.9823 -21.9475,32.041 z M 3.52099,11.4432 v 12.3235 c 0,18.6026 15.60971,26.8769 19.07201,28.52 3.4623,-1.5844 19.0721,-9.9174 19.0721,-28.52 V 11.4432 L 40.0806,10.7977 V 14.084 L 33.8602,11.5606 V 8.27433 L 32.2757,7.62881 V 10.9151 L 26.0553,8.3917 V 5.10544 L 22.7104,3.75572 19.2481,5.10544 V 8.3917 l -6.2204,2.5234 V 7.62881 L 11.4432,8.27433 V 11.5606 L 5.2228,14.084 v -3.2863 z"
     fill="#ffffff"
     id="path17" /><path
     d="M 17.4881,3.93143 V 7.21768 L 14.7887,8.33267 V 5.04641 L 9.68328,7.10032 v 3.28628 l -2.69943,1.115 V 8.2153 l -5.10543,2.0539 v 13.4971 c 0,21.9475 20.83248,30.4566 20.83248,30.4566 V 1.81883 Z"
     fill="#003a67"
     id="path18" /><path
     d="m 27.6979,3.93143 v 3.28625 l 2.6994,1.11499 V 5.04641 l 5.1055,2.05391 v 3.28628 l 2.6994,1.115 V 8.2153 l 5.1054,2.0539 v 13.4971 c 0,21.9475 -20.8325,30.4566 -20.8325,30.4566 V 1.81883 Z"
     fill="#00a9e6"
     id="path19" /></g></svg>
