<svg xmlns="http://www.w3.org/2000/svg" width="373.8" height="364.6" style="background-color:#003a67"><g fill="#fff"><path d="M246.936 106.587v12.544l-10.305-4.256v-12.544l-19.488-7.84v12.544l-10.304-4.256V90.234l-19.489-7.84-19.937 7.84v12.544l-10.304 4.256V94.49l-19.488 7.84v12.544l-10.304 4.256v-12.544l-19.488 7.84v51.522c0 83.778 79.522 116.035 79.522 116.259 0 0 79.522-32.481 79.522-116.259v-51.522z"/><path d="M186.9 289.375l-2.464-.896c-.896-.224-83.778-34.049-83.778-122.307V110.17L186.9 75.225l86.242 34.945v56.002c0 88.706-83.106 122.083-83.778 122.307zm-72.802-170.468v47.041c0 71.01 59.586 102.595 72.802 108.867 13.216-6.048 72.802-37.857 72.802-108.867v-47.041l-6.048-2.464v12.544l-23.745-9.632V106.81l-6.048-2.464v12.544l-23.745-9.632V94.714l-12.768-5.152-13.216 5.152v12.544l-23.745 9.632v-12.544l-6.048 2.464v12.544l-23.745 9.632v-12.544z"/></g><path d="M167.414 90.232v12.544l-10.304 4.256V94.488l-19.488 7.84v12.544l-10.304 4.256v-12.544l-19.488 7.84v51.521c0 83.778 79.522 116.259 79.522 116.259V82.168z" fill="#003a67"/><path d="M206.386 90.232v12.544l10.304 4.256V94.488l19.489 7.84v12.544l10.304 4.256v-12.544l19.488 7.84v51.521c0 83.778-79.522 116.259-79.522 116.259V82.168z" fill="#00a9e6"/></svg>
