<?xml version="1.0" encoding="UTF-8" standalone="no"?>
<svg
   version="1.1"
   id="Layer_1"
   x="0px"
   y="0px"
   viewBox="0 0 373.79998 364.60001"
   xml:space="preserve"
   width="373.79999"
   height="364.60001"
   xmlns="http://www.w3.org/2000/svg"
   xmlns:svg="http://www.w3.org/2000/svg"
   style="background-color:#e10a93"><defs
   id="defs13" />&#10;<style
   type="text/css"
   id="style1">&#10;	.st0{fill:#F9383D;}&#10;	.st1{fill:#FFFFFF;}&#10;	.st2{fill-rule:evenodd;clip-rule:evenodd;fill:#FFFFFF;}&#10;</style>&#10;&#10;&#10;&#10;&#10;&#10;&#10;&#10;&#10;&#10;&#10;&#10;&#10;&#10;<path
   d="M 188.09633,289.46351 H 121.23155 V 174.92807 h 33.99591 c -19.52122,-12.25358 -40.7748,-32.32599 -36.24288,-60.17236 6.44773,-39.619214 47.10949,-39.619214 66.64973,-39.619214 h 66.73413 V 189.67194 h -33.70087 c 19.47549,12.25267 40.67881,32.3269 36.14648,60.17254 -6.4485,39.61903 -47.15468,39.61903 -66.71772,39.61903 z m -52.1635,-14.74524 h 52.1635 c 34.82541,0 48.97555,-7.38471 52.2087,-27.25054 5.47035,-33.61013 -46.35939,-54.66616 -54.62831,-57.79579 h -49.74389 z m 52.34454,-99.7902 h 49.38961 V 89.879823 h -52.03267 c -34.77538,0 -48.90756,7.385573 -52.14047,27.250677 -5.48504,33.70721 46.5064,54.68618 54.78353,57.79757 z"
   fill="#ffffff"
   id="path10"
   style="stroke-width:4.56015" /></svg>
