<svg xmlns="http://www.w3.org/2000/svg" width="373.8" height="364.6" style="background-color:#e10a93"><path d="M188.096 289.464h-66.865V174.928h33.996c-19.521-12.254-40.775-32.326-36.243-60.172 6.448-39.619 47.109-39.619 66.65-39.619h66.734v114.535h-33.701c19.475 12.253 40.679 32.327 36.146 60.173-6.448 39.619-47.155 39.619-66.718 39.619zm-52.163-14.745h52.164c34.825 0 48.976-7.385 52.209-27.251 5.47-33.61-46.359-54.666-54.628-57.796h-49.744zm52.345-99.79h49.39V89.88h-52.033c-34.775 0-48.908 7.386-52.14 27.251-5.485 33.707 46.506 54.686 54.784 57.798z" fill="#fff"/></svg>
