<?xml version="1.0" encoding="UTF-8" standalone="no"?>

<svg
   version="1.1"
   id="Layer_1"
   x="0px"
   y="0px"
   viewBox="0 0 373.79998 364.60001"
   xml:space="preserve"
   width="373.79999"
   height="364.60001"
   xmlns="http://www.w3.org/2000/svg"
   xmlns:svg="http://www.w3.org/2000/svg"
   style="background-color:#ffffff"><defs
   id="defs13"><linearGradient
     id="Path_290_1_"
     gradientUnits="userSpaceOnUse"
     x1="-1089.4442"
     y1="84.029701"
     x2="-1088.5142"
     y2="83.166702"
     gradientTransform="matrix(40.765,0,0,17.3493,44554.852,-1406.4063)">&#10;			<stop
   offset="0"
   style="stop-color:#F29111"
   id="stop1" />&#10;			<stop
   offset="0.223"
   style="stop-color:#F49C09"
   id="stop2" />&#10;			<stop
   offset="0.561"
   style="stop-color:#F6A502"
   id="stop3" />&#10;			<stop
   offset="1"
   style="stop-color:#F7A900"
   id="stop4" />&#10;		</linearGradient><linearGradient
     id="Path_291_1_"
     gradientUnits="userSpaceOnUse"
     x1="-1080.502"
     y1="73.963203"
     x2="-1079.666"
     y2="73.046204"
     gradientTransform="matrix(40.765,0,0,17.3485,44554.855,-1369.5032)">&#10;			<stop
   offset="0"
   style="stop-color:#F49C0E"
   id="stop5" />&#10;			<stop
   offset="1"
   style="stop-color:#F7A900"
   id="stop6" />&#10;		</linearGradient></defs>&#10;<style
   type="text/css"
   id="style1">&#10;	.st0{fill:#F9383D;}&#10;	.st1{fill:#FFFFFF;}&#10;	.st2{fill-rule:evenodd;clip-rule:evenodd;fill:#FFFFFF;}&#10;</style>&#10;&#10;&#10;&#10;&#10;&#10;&#10;&#10;&#10;&#10;&#10;&#10;&#10;&#10;<g
   id="g14"
   transform="matrix(3.9540453,0,0,3.9540453,-451.28292,-55.338119)"><path
     id="Path_289"
     class="st0"
     d="m 141,46.1 39.1,16.3 c 1.1,0.6 1.8,1.8 1.6,3.1 v 8.7 l -39,-16.3 c 0,0 -1.7,-0.5 -1.7,-3.4 0,-2.9 0,-8.4 0,-8.4 z"
     style="fill:#f7aa00" /><path
     id="Path_290"
     class="st1"
     d="m 180.4,39.9 c -0.7,-0.9 -1.7,-1.6 -2.7,-2.1 v 0 c -12.8,-5.9 -17,-5.9 -26.9,-2.6 -2.8,0.8 -5.4,2.1 -7.8,3.7 0,0 -2,1.5 -2,3.1 0,1.6 -0.2,2.4 0.4,2.7 l 8.3,3.5 1,0.4 v -0.5 c 0,-0.3 0.1,-0.5 0.3,-0.7 0.3,-0.3 0.6,-0.5 1,-0.7 11.7,-5.5 27.3,3.3 27.3,3.3 1.6,0.7 2.5,0.6 2.5,-2.6 0,-3.2 -0.1,-5.8 -1.4,-7.5 z"
     style="fill:url(#Path_290_1_)" /><path
     id="Path_291"
     class="st2"
     d="m 142.4,80.3 c 0.7,0.9 1.7,1.6 2.7,2.1 v 0 c 12.8,5.9 17,5.9 26.9,2.6 2.8,-0.8 5.4,-2.1 7.8,-3.7 0,0 2,-1.5 2,-3.1 0,-1.6 0.2,-2.4 -0.4,-2.7 l -8.3,-3.5 -1,-0.4 v 0.5 c 0,0.3 -0.1,0.5 -0.3,0.7 -0.3,0.3 -0.6,0.5 -1,0.7 -11.7,5.5 -27.3,-3.3 -27.3,-3.3 -1.6,-0.7 -2.5,-0.6 -2.5,2.6 0,3.2 0,5.9 1.4,7.5 z"
     style="fill:url(#Path_291_1_)" /></g></svg>
