<svg xmlns="http://www.w3.org/2000/svg" width="373.8" height="364.6" style="background-color:#005da8" fill="#fff"><path d="M180.832 185.095l-106.469.777c11.806 10.707 19.232 44.641 19.213 60.252zm.228-4.042l-86.344-61.787c.05 21.242-11.662 49.613-19.909 61.029zm2.3-3.168L149.498 76.566c-9.67 14.509-37.174 34.103-52.613 37.558zm3.911-1.33l31.693-101.577c-19.481 6.202-49.982 5.316-64.247.187zm3.905 1.133l84.793-62.012c-20.396-7.258-43.224-26.954-51.686-39.135zm2.61 3.312l105.311-1.074c-11.109-12.742-20.365-45.331-19.513-60.339zm-.218 4.18l86.032 61.357c.128-21.02 10.173-48.043 19.837-61.147zm-2.679 3.124l32.436 99.982c7.735-14.412 36.672-32.311 52.888-37.539zm-3.699 1.321l-32.842 99.998c22.64-7.451 50.762-4.367 63.748-.147zm-3.671-1.595l-86.772 62.256c17.758 5.016 43.711 24.825 52.557 37.386z"/></svg>