<svg xmlns="http://www.w3.org/2000/svg" width="373.8" height="364.6">
  <rect width="373.8" height="364.6" fill="#0a1428" />
  <path d="M90.937 220.839l-.07-18.677h.279l17.144 17.213c.558.697 3.136 2.579 7.527 2.579 10.035 0 16.795-5.157 16.795-14.286 0-8.363-5.784-12.265-17.423-17.492l-5.296-2.369c-10.732-4.878-21.743-12.614-21.743-27.667 0-16.029 12.893-26.273 32.894-26.273 6.411 0 15.402.627 24.322 2.718v18.677h-.348l-17.074-17.004c-1.254-1.324-3.345-2.021-6.133-2.021-8.642 0-14.774 4.878-14.774 13.659 0 7.666 5.645 11.29 14.496 15.541l5.784 2.718c13.38 6.411 24.81 12.544 24.81 27.528 0 17.004-14.147 28.643-35.403 28.643-7.527.07-18.05-1.324-25.785-3.485zm77.983-8.711v-84.046c0-1.603-.279-1.951-1.254-2.997l-7.875-7.875v-.279h41.466v.279l-7.945 7.945c-1.115 1.115-1.254 1.394-1.254 2.997v80.353c0 22.092-13.52 38.399-39.863 39.166l-.139-.279c11.708-6.481 16.865-17.213 16.865-35.263zm78.959-21.604c22.44 0 37.772-8.781 37.772-28.782s-17.144-26.552-34.566-26.552h-43.417v.279l8.084 7.945c1.115.976 1.254 1.394 1.254 2.997v65.509c0 1.603-.139 2.021-1.254 2.997l-8.014 8.014v.279h41.396v-.279l-8.014-8.014c-1.115-.976-1.254-1.394-1.254-2.997v-21.395zm-8.014-50.456c0-2.16.348-2.369 2.23-2.369h4.6c9.269 0 14.496 10.175 14.496 24.67 0 15.541-5.645 25.646-15.889 25.646h-5.506c.07 0 .07-47.947.07-47.947z" fill="#fff" />
</svg>