<svg xmlns="http://www.w3.org/2000/svg" width="373.8" height="364.6">
  <rect width="373.8" height="364.6" fill="#2cb9f1" />
  <defs>
    <clipPath id="A">
      <path d="M0 841.89h595.276V0H0z" transform="translate(-46.997 -807.528)" />
    </clipPath>
  </defs>
  <path d="M0 0a13.64 13.64 0 0 1-13.643-13.631c0-6.978 5.247-12.731 12.016-13.534v9.664c-1.509.637-2.571 2.131-2.571 3.87 0 2.315 1.884 4.198 4.198 4.198s4.199-1.883 4.199-4.198c0-1.739-1.062-3.233-2.572-3.87v-9.664c6.769.803 12.017 6.556 12.017 13.534A13.64 13.64 0 0 1 0 0" fill="#fff" transform="matrix(7.884061 0 0 -7.884061 186.89605 75.214745)" clip-path="url(#A)" />
</svg>