<svg xmlns="http://www.w3.org/2000/svg" width="373.8" height="364.6">
  <rect width="373.8" height="364.6" fill="#6640ff" />
  <path d="M266.123 185.059l27.232-27.21a3.2 3.2 0 0 0 0-4.499l-77.351-77.445c-.599-.596-1.409-.931-2.253-.931s-1.654.335-2.253.931l-80.575 80.672a3.18 3.18 0 0 0-.934 2.249 3.17 3.17 0 0 0 .243 1.217 3.16 3.16 0 0 0 .691 1.031l26.945 27.032a3.19 3.19 0 0 0 4.507 0l48.809-48.868a3.18 3.18 0 0 1 4.493 0l45.954 45.819c.295.297.645.532 1.031.692a3.16 3.16 0 0 0 1.216.243c.418 0 .831-.083 1.217-.243a3.16 3.16 0 0 0 1.03-.692zm-158.434-5.578l-27.231 27.265a3.17 3.17 0 0 0-.691 1.031 3.18 3.18 0 0 0 0 2.435 3.17 3.17 0 0 0 .691 1.031l77.352 77.445c.294.296.644.532 1.03.692a3.16 3.16 0 0 0 2.433 0 3.17 3.17 0 0 0 1.03-.692l80.575-80.672c.595-.6.93-1.411.93-2.256a3.2 3.2 0 0 0-.93-2.256l-26.945-27.005a3.16 3.16 0 0 0-1.03-.692c-.386-.16-.799-.243-1.217-.243a3.16 3.16 0 0 0-1.216.243c-.386.16-.736.396-1.03.692l-48.81 48.868a3.17 3.17 0 0 1-1.03.692c-.386.16-.799.243-1.217.243a3.16 3.16 0 0 1-2.246-.935l-45.955-45.888c-.598-.592-1.405-.924-2.247-.924s-1.648.331-2.246.924z" fill="#fff" />
</svg>