<?xml version="1.0" encoding="UTF-8" standalone="no"?>
<svg
   version="1.1"
   id="Layer_1"
   x="0px"
   y="0px"
   viewBox="0 0 373.79998 364.60001"
   xml:space="preserve"
   width="373.79999"
   height="364.60001"
   xmlns="http://www.w3.org/2000/svg"
   xmlns:svg="http://www.w3.org/2000/svg"
   style="background-color:#6640ff"><defs
   id="defs13" />&#10;<style
   type="text/css"
   id="style1">&#10;	.st0{fill:#F9383D;}&#10;	.st1{fill:#FFFFFF;}&#10;	.st2{fill-rule:evenodd;clip-rule:evenodd;fill:#FFFFFF;}&#10;</style>&#10;&#10;&#10;&#10;&#10;&#10;&#10;&#10;&#10;&#10;&#10;&#10;&#10;&#10;<g
   id="g12"
   transform="matrix(7.5339749,0,0,7.5339749,79.530216,62.000242)"
   style="fill:#ffffff;fill-opacity:1"><path
     d="m 24.7668,16.3339 3.6145,-3.6116 c 0.0785,-0.0795 0.1225,-0.1868 0.1225,-0.2985 0,-0.1118 -0.044,-0.2191 -0.1225,-0.2986 L 18.1143,1.84572 c -0.0795,-0.07913 -0.187,-0.12355 -0.2991,-0.12355 -0.1121,0 -0.2196,0.04442 -0.2991,0.12355 L 6.82126,12.5535 c -0.0393,0.0391 -0.07048,0.0857 -0.09176,0.1369 -0.02128,0.0512 -0.03223,0.1062 -0.03223,0.1617 0,0.0555 0.01095,0.1104 0.03223,0.1616 0.02128,0.0513 0.05246,0.0978 0.09176,0.1369 l 3.57644,3.588 c 0.0795,0.0792 0.187,0.1236 0.2991,0.1236 0.1121,0 0.2196,-0.0444 0.2991,-0.1236 l 6.4785,-6.4863 c 0.0792,-0.0791 0.1864,-0.1234 0.2982,-0.1234 0.1118,0 0.219,0.0443 0.2982,0.1234 l 6.0996,6.0816 c 0.0391,0.0394 0.0856,0.0706 0.1368,0.0919 0.0511,0.0213 0.106,0.0323 0.1614,0.0323 0.0555,0 0.1103,-0.011 0.1615,-0.0323 0.0512,-0.0213 0.0976,-0.0525 0.1367,-0.0919 z"
     fill="#ffffff"
     id="path10"
     style="fill:#ffffff;fill-opacity:1" /><path
     d="m 3.73751,15.5935 -3.614492,3.6189 c -0.039297,0.0391 -0.0704813,0.0856 -0.0917607,0.1369 -0.0212793,0.0512 -0.032233862,0.1062 -0.032233862,0.1616 -10e-10,0.0555 0.010954562,0.1105 0.032233862,0.1617 0.0212794,0.0512 0.0524637,0.0978 0.0917607,0.1369 L 10.3901,30.089 c 0.039,0.0393 0.0855,0.0706 0.1367,0.0919 0.0511,0.0213 0.106,0.0322 0.1614,0.0322 0.0555,0 0.1103,-0.0109 0.1615,-0.0322 0.0512,-0.0213 0.0976,-0.0526 0.1367,-0.0919 L 21.6813,19.3812 c 0.079,-0.0796 0.1234,-0.1873 0.1234,-0.2995 0,-0.1122 -0.0444,-0.2199 -0.1234,-0.2994 l -3.5765,-3.5844 c -0.0391,-0.0394 -0.0855,-0.0706 -0.1367,-0.0919 -0.0512,-0.0213 -0.106,-0.0323 -0.1615,-0.0323 -0.0554,0 -0.1103,0.011 -0.1614,0.0323 -0.0512,0.0213 -0.0977,0.0525 -0.1367,0.0919 l -6.4786,6.4864 c -0.0391,0.0393 -0.0855,0.0705 -0.1367,0.0918 -0.0512,0.0213 -0.106,0.0323 -0.1615,0.0323 -0.0554,0 -0.1103,-0.011 -0.1614,-0.0323 -0.0512,-0.0213 -0.0977,-0.0525 -0.1367,-0.0918 L 4.33388,15.5935 c -0.0794,-0.0786 -0.18654,-0.1226 -0.29819,-0.1226 -0.11164,0 -0.21878,0.044 -0.29818,0.1226 z"
     fill="#ffffff"
     id="path11"
     style="fill:#ffffff;fill-opacity:1" /></g></svg>
