<svg xmlns="http://www.w3.org/2000/svg" width="373.8" height="364.6" style="background-color:#ffffff"><style><![CDATA[.B{mask:url(#m)}.C{mask:url(#n)}.D{mask:url(#f)}.E{mask:url(#e)}.F{mask:url(#l)}.G{mask:url(#y)}.H{mask:url(#z)}.I{mask:url(#g)}.J{mask:url(#w)}.K{mask:url(#x)}.L{mask:url(#o)}.M{mask:url(#v)}.N{mask:url(#u)}.O{fill:#fff}.P{mask:url(#h)}.Q{mask:url(#k)}.R{mask:url(#d)}.S{mask:url(#AA)}.T{mask:url(#j)}.U{mask:url(#p)}.V{mask:url(#i)}.W{mask:url(#t)}.X{mask:url(#q)}.Y{mask:url(#c)}.Z{mask:url(#s)}.a{mask:url(#AC)}.b{mask:url(#AD)}.c{mask:url(#r)}.d{fill:#54b78f}.e{fill:#55b78e}.f{fill:#58b88e}.g{fill:#59b88d}.h{fill:#5ab88d}.i{fill:#5ab88c}.j{fill:#5cb88c}.k{fill:#4eb691}.l{fill:#4fb691}.m{fill:#50b691}.n{fill:#52b690}.o{fill:#53b690}.p{fill:#53b78f}.q{fill:#56b78e}.r{fill:#57b78e}.s{fill:#5db88c}.t{fill:#5eb98b}.u{fill:#5fb98b}.v{fill:#60b98a}.w{mask:url(#AE)}.x{fill:#82c17b}.y{fill:#85c27a}.z{fill:#86c279}.AA{fill:#86c278}.AB{fill:#87c379}.AC{fill:#88c378}.AD{fill:#89c378}.AE{fill:#8ec576}.AF{fill:#47b595}.AG{fill:#48b595}.AH{fill:#49b594}.AI{fill:#4ab593}.AJ{fill:#4bb593}.AK{fill:#4cb592}.AL{fill:#4db692}.AM{fill:#61b98a}.AN{fill:#62b989}.AO{fill:#63ba89}.AP{fill:#69bb86}.AQ{fill:#6abb86}.AR{fill:#6bbb85}.AS{fill:#6cbc85}.AT{fill:#6dbc84}.AU{fill:#40b196}.AV{fill:#41b297}.AW{mask:url(#AB)}.AX{mask:url(#AF)}.AY{fill:#a6cd6f}.AZ{fill:#a7ce6e}.Aa{fill:#a8ce6e}.Ab{fill:#a9ce6e}.Ac{fill:#a4cc6f}.Ad{fill:#70bd83}.Ae{fill:#71bd82}.Af{fill:#72bd82}.Ag{fill:#73bd82}.Ah{fill:#74bd81}.Ai{fill:#75be81}.Aj{fill:#76be81}.Ak{fill:#77be81}.Al{fill:#77be80}.Am{fill:#78be7f}.An{fill:#79bf7e}.Ao{fill:#7bbf7e}.Ap{fill:#7cbf7d}.Aq{fill:#7dc07d}.Ar{fill:#7ec07d}.As{fill:#80c17c}.At{fill:#81c17c}.Au{fill:#83c17b}.Av{fill:#84c27a}.Aw{fill:#8bc477}.Ax{fill:#8cc577}.Ay{fill:#8fc576}.Az{fill:#64ba89}.BA{fill:#65ba89}.BB{fill:#66ba88}.BC{fill:#67ba87}.BD{fill:#68bb87}.BE{fill:#6fbc84}.BF{fill:#3ead93}.BG{fill:#3faf94}.BH{fill:#40b095}.BI{fill:#42b398}.BJ{fill:#42b397}.BK{fill:#abcf6d}.BL{fill:#accf6d}.BM{fill:#9cca71}.BN{fill:#9dca71}.BO{fill:#9eca71}.BP{fill:#9fcb70}.BQ{fill:#a0cb70}.BR{fill:#a2cb6f}.BS{fill:#a2cc6f}.BT{fill:#a3cc6f}.BU{fill:#a5cd6f}.BV{fill:#7fc07d}.BW{fill:#8ac477}.BX{fill:#94c774}.BY{fill:#95c774}.BZ{fill:#96c874}.Ba{fill:#97c874}.Bb{fill:#99c973}.Bc{fill:#9ac972}.Bd{fill:#9bc972}.Be{fill:#6ebc84}.Bf{fill:#3eaa90}.Bg{fill:#3eab91}.Bh{fill:#3dad92}.Bi{fill:#43b497}.Bj{fill:#44b496}.Bk{fill:#45b496}.Bl{fill:#46b495}.Bm{fill:#3ba58c}.Bn{fill:#318c76}.Bo{fill:#318d77}.Bp{fill:#32917a}.Bq{fill:#70bc83}.Br{fill:#adcf6b}.Bs{fill:#aed06b}.Bt{fill:#afd06a}.Bu{fill:#b0d06a}.Bv{fill:#b1d069}.Bw{fill:#b2d169}.Bx{fill:#b3d169}.By{fill:#90c676}.Bz{fill:#90c675}.CA{fill:#92c676}.CB{fill:#93c775}.CC{fill:#94c775}.CD{fill:#3ea98f}.CE{fill:#308b75}.CF{fill:#318e78}.CG{fill:#328f79}.CH{fill:#329079}.CI{fill:#33927b}.CJ{fill:#34937c}.CK{fill:#35947d}.CL{fill:#35957e}.CM{fill:#35967f}.CN{fill:#369780}.CO{fill:#369881}.CP{fill:#379982}.CQ{fill:#389a83}.CR{fill:#389b84}.CS{fill:#389d85}.CT{fill:#399f87}.CU{fill:#39a088}.CV{fill:#3ba289}.CW{fill:#3ba38a}.CX{fill:#3ba48b}]]></style><defs><path d="M4.752.259C4.094-.2 3.189-.033 2.734.633c-.556.812-1.202 1.565-1.909 2.232l-.324.293A1.47 1.47 0 0 0 .356 5.22c.287.333.691.504 1.096.504a1.44 1.44 0 0 0 .951-.359l.395-.358c.868-.815 1.65-1.729 2.326-2.715A1.47 1.47 0 0 0 4.752.259" id="A"/><path d="M3.026 1.21C2.889.415 2.143-.11 1.347.02A1.46 1.46 0 0 0 .167 1.711a13.9 13.9 0 0 1 .202 2.355L.316 5.274c-.054.607-.148 1.214-.28 1.8-.177.788.313 1.57 1.095 1.749.108.024.216.037.323.037.663 0 1.261-.46 1.414-1.139a16.6 16.6 0 0 0 .34-2.194l.064-1.462c0-.954-.083-1.916-.246-2.856" id="B"/><path d="M.681 2.7C2.424 3.798 3.917 5.306 5 7.062c.276.444.75.69 1.235.69A1.44 1.44 0 0 0 7 7.531a1.47 1.47 0 0 0 .466-2.014A16.58 16.58 0 0 0 2.221.223c-.68-.428-1.578-.22-2 .463A1.47 1.47 0 0 0 .681 2.7" id="C"/><path d="M.899 1.172C3.703.01 7.049-.311 10.18.312c.786.157 1.297.926 1.142 1.718s-.916 1.31-1.706 1.15a13.44 13.44 0 0 0-2.62-.255c-1.816 0-3.449.311-4.992.95a1.45 1.45 0 0 1-.553.111A1.45 1.45 0 0 1 .11 3.08" id="D"/><path d="M.63 8.306a1.43 1.43 0 0 0 .82.259c.462 0 .916-.222 1.197-.634 1.195-1.748 2.652-3.758 4.401-5.399.587-.549.619-1.475.072-2.065A1.44 1.44 0 0 0 5.07.393C3.114 2.226 1.54 4.394.256 6.274c-.455.664-.288 1.575.373 2.032" id="E"/><path d="M1.451 5.706c.348 0 .696-.125.973-.379.817-.744 1.639-1.697 2.587-2.999A1.47 1.47 0 0 0 4.7.285a1.44 1.44 0 0 0-2.028.314C1.842 1.738 1.146 2.552.478 3.161c-.595.541-.641 1.465-.102 2.063a1.44 1.44 0 0 0 1.075.482" id="F"/><path d="M.401 2.47c.49.517 1.067.922 1.716 1.201a1.45 1.45 0 0 0 .569.117 1.45 1.45 0 0 0 1.335-.89c.313-.742-.029-1.6-.767-1.917a2.23 2.23 0 0 1-.753-.528C1.948-.131 1.032-.153.449.403A1.47 1.47 0 0 0 .401 2.47" id="G"/><path d="M1.066 6.899a1.41 1.41 0 0 0 .387.054 1.45 1.45 0 0 0 1.396-1.074c.153-.554.342-1.104.564-1.635.292-.696.641-1.369 1.039-1.999A1.47 1.47 0 0 0 4.005.228c-.677-.432-1.571-.233-2.003.45-.484.766-.909 1.583-1.263 2.43-.271.647-.502 1.318-.686 1.994-.214.779.241 1.583 1.013 1.797" id="H"/><path d="M1.299.007a1.46 1.46 0 0 1 1.589 1.308c.228 2.301 1.049 4.52 2.37 6.419.462.66.302 1.572-.354 2.035-.254.179-.543.267-.831.267-.457 0-.907-.217-1.189-.623A16.55 16.55 0 0 1 0 1.607l.016.154v-.564C.125.597.602.113 1.223.017" id="I"/><path d="M.231.67C.667-.011 1.564-.202 2.237.232A13.37 13.37 0 0 0 9.536 2.39l.782-.019a1.47 1.47 0 0 1 1.523 1.385c.041.807-.575 1.494-1.374 1.534l-.027.001h-1.79C5.803 5.137 3.06 4.246.665 2.691" id="J"/><path d="M6.247.526C4.456 2.688 2.729 4.139.809 5.095.09 5.452-.205 6.329.151 7.053a1.45 1.45 0 0 0 1.302.815c.216 0 .434-.049.641-.152C4.359 6.589 6.445 4.85 8.476 2.397A1.47 1.47 0 0 0 8.29.339c-.612-.512-1.527-.438-2.044.187" id="K"/><path d="M7.308 2.574A1.47 1.47 0 0 0 7.47.513C6.949-.104 6.032-.172 5.424.35 3.678 1.85 2.197 4.074.628 6.429l-.381.569a1.47 1.47 0 0 0 .394 2.03c.249.168.531.249.809.249a1.45 1.45 0 0 0 1.206-.646l.381-.574c1.455-2.182 2.828-4.246 4.27-5.484" id="L"/><path d="M1.806.045A1.45 1.45 0 0 0 .044 1.106c-.195.784.277 1.578 1.053 1.775.789.2 1.409.815 1.62 1.606a2.48 2.48 0 0 1 .064.36c.077.751.707 1.313 1.442 1.313.049 0 .099-.003.15-.008A1.46 1.46 0 0 0 5.67 4.549a5.15 5.15 0 0 0-.15-.815C5.039 1.917 3.615.503 1.806.045" id="M"/><path d="M.986.027C.315.17-.115.835.027 1.511S.829 2.62 1.5 2.477A1.25 1.25 0 0 0 2.459.993C2.318.317 1.658-.116.986.027" id="N"/><path d="M2.486 1.252C2.486.561 1.93 0 1.243 0S0 .561 0 1.252.557 2.504 1.243 2.504s1.243-.561 1.243-1.252" id="O"/><path d="M1.5 2.477A1.25 1.25 0 0 0 2.459.993C2.318.317 1.658-.116.986.027S-.115.835.027 1.511.829 2.62 1.5 2.477" id="P"/><path d="M1.665 2.749a1.39 1.39 0 0 0 1.065-1.647A1.38 1.38 0 0 0 1.094.03 1.39 1.39 0 0 0 .03 1.677a1.38 1.38 0 0 0 1.634 1.072" id="Q"/><path d="M1.094.03A1.39 1.39 0 0 0 .03 1.677a1.38 1.38 0 0 0 1.635 1.072 1.39 1.39 0 0 0 1.064-1.647A1.38 1.38 0 0 0 1.094.03" id="R"/><path d="M3.162.29A7.81 7.81 0 0 1 .991 1.432c-.76.257-1.17 1.086-.915 1.851.205.612.77.998 1.376.998.153 0 .308-.025.461-.076 1.067-.362 2.071-.888 2.978-1.567A1.47 1.47 0 0 0 5.192.592 1.44 1.44 0 0 0 3.162.29" id="S"/><path d="M2.817 6.822a10.92 10.92 0 0 0 .639-3.692 11.04 11.04 0 0 0-.17-1.925C3.145.41 2.395-.117 1.603.022A1.46 1.46 0 0 0 .43 1.718c.082.463.123.937.123 1.411 0 .928-.156 1.835-.466 2.7-.273.759.118 1.597.872 1.872.162.059.329.087.493.087.593 0 1.151-.371 1.365-.966" id="T"/><path d="M.042 1.113c-.19.784.285 1.575 1.063 1.769a7.9 7.9 0 0 1 2.023.814 7.94 7.94 0 0 1 1.538 1.158 1.44 1.44 0 0 0 1.003.406c.383 0 .764-.152 1.049-.452a1.47 1.47 0 0 0-.046-2.067 10.83 10.83 0 0 0-2.102-1.581A10.73 10.73 0 0 0 1.798.042a1.45 1.45 0 0 0-1.756 1.07" id="U"/><path d="M1.451 5.472a1.44 1.44 0 0 0 1.003-.406C3.566 3.995 4.69 3.267 5.895 2.84c.756-.266 1.152-1.102.887-1.864S5.69-.186 4.932.084C3.33.65 1.864 1.589.448 2.953A1.47 1.47 0 0 0 .403 5.02a1.44 1.44 0 0 0 1.049.452" id="V"/><path d="M5.95.25C5.286-.2 4.386-.026 3.934.643L2.82 2.339.297 6.022c-.487.642-.362 1.559.276 2.048.263.202.571.3.877.3.438 0 .871-.2 1.156-.577l2.639-3.848L6.341 2.28A1.47 1.47 0 0 0 5.95.25" id="W"/><path d="M.003 3.192a1.46 1.46 0 0 0 1.353 1.556l.674.022c2.493 0 4.689-.69 6.719-2.11.66-.46.822-1.37.365-2.033S7.753-.198 7.095.26c-1.661 1.16-3.551 1.71-5.547 1.57A1.47 1.47 0 0 0 .003 3.192" id="X"/><path d="M3.64 6.601a1.44 1.44 0 0 0 .868.292c.443 0 .879-.203 1.164-.587a1.47 1.47 0 0 0-.293-2.046C4.229 3.395 3.336 2.236 2.793.908 2.489.161 1.634-.199.9.112.158.418-.196 1.273.11 2.018.85 3.836 2.072 5.42 3.64 6.601" id="Y"/><path d="M.856 1.724a.86.86 0 0 0 .856-.862A.86.86 0 0 0 .856 0 .86.86 0 0 0 0 .862a.86.86 0 0 0 .856.862" id="Z"/><path d="M.856 0A.86.86 0 0 0 0 .862a.86.86 0 0 0 .856.862.86.86 0 0 0 .856-.862A.86.86 0 0 0 .856 0" id="a"/><path d="M.953 0C.426 0 0 .43 0 .96s.426.959.953.959.953-.429.953-.959S1.479 0 .953 0" id="b"/></defs><g transform="matrix(3.45018 0 0 3.45018 88.522922 125.37203)" fill="none" fill-rule="evenodd"><g transform="translate(49.014 23.596)"><mask id="c" class="O"><use href="#A"/></mask><path d="M-.024-.2L-.17.005V-.2h.146" class="Y AY"/><path d="M.276-.2L-.17.426V.005L-.024-.2h.3" class="Y AZ"/><path d="M.576-.2L-.17.847V.426L.276-.2h.3" class="Y Aa"/><path d="M.876-.2L-.17 1.268V.847L.576-.2h.3" class="Y Ab"/><path d="M1.176-.2L-.17 1.689v-.421L.876-.2h.3" class="Y BK"/><path d="M1.476-.2L-.17 2.11v-.421L1.176-.2h.3" class="Y BL"/><path d="M1.776-.2L-.17 2.531V2.11L1.476-.2h.3" class="Y Br"/><path d="M2.076-.2L-.17 2.952v-.421L1.776-.2h.3" class="Y Bs"/><path d="M2.376-.2L-.17 3.373v-.421L2.076-.2h.3" class="Y Bt"/><path d="M2.677-.2L-.17 3.794v-.421L2.376-.2h.3" class="Y Bu"/><path d="M2.976-.2L-.17 4.215v-.421L2.677-.2h.3" class="Y Bv"/><path d="M3.276-.2L-.17 4.636v-.421L2.976-.2h.3" class="Y Bw"/><g class="Bx Y"><path d="M3.577-.2L-.17 5.057v-.421L3.276-.2h.3"/><path d="M5.23-.2l.349.252v5.672H-.17v-.668L3.577-.2H5.23"/></g></g><g transform="translate(53.755 12.456)"><mask id="d" class="O"><use href="#B"/></mask><path d="M.11-.11l-.25.351V-.11h.25" class="R BM"/><path d="M.41-.11l-.551.772V.241L.11-.11h.3" class="R BN"/><path d="M.71-.11l-.851 1.193V.662L.41-.11h.3" class="R BO"/><path d="M1.01-.11L-.141 1.504v-.421L.71-.11h.3" class="R BP"/><path d="M1.31-.11L-.141 1.925v-.421L1.01-.11h.3" class="R BQ"/><path d="M1.611-.11L-.141 2.346v-.421L1.31-.11h.3" class="R BR"/><path d="M1.91-.11L-.141 2.767v-.421L1.611-.11h.3" class="R BS"/><path d="M2.211-.11L-.141 3.188v-.421L1.91-.11h.3" class="R BT"/><path d="M2.511-.11L-.141 3.609v-.421L2.211-.11h.3" class="R Ac"/><path d="M2.811-.11L-.141 4.03v-.421L2.511-.11h.3" class="R BU"/><path d="M3.11-.11L-.141 4.451V4.03L2.811-.11h.299" class="R AY"/><path d="M3.251-.11l.021.015v.179L-.141 4.872v-.421L3.11-.11h.141" class="R AZ"/><path d="M3.272.506L-.141 5.293v-.421L3.272.084v.421" class="R Aa"/><path d="M3.272.927L-.141 5.714v-.421L3.272.506v.421" class="R Ab"/><path d="M3.272 1.347L-.141 6.135v-.421L3.272.927v.421" class="R BK"/><path d="M3.272 1.769L-.141 6.556v-.421l3.412-4.787v.421" class="R BL"/><path d="M3.272 2.19L-.141 6.977v-.421l3.412-4.787v.421" class="R Br"/><path d="M3.272 2.61L-.141 7.398v-.421L3.272 2.19v.421" class="R Bs"/><path d="M3.272 3.032L-.141 7.819v-.421L3.272 2.61v.421" class="R Bt"/><path d="M3.272 3.452L-.141 8.24v-.421l3.412-4.787v.421" class="R Bu"/><path d="M3.272 3.873L-.141 8.661V8.24l3.412-4.788v.421" class="R Bv"/><path d="M3.272 4.295L.017 8.861h-.158v-.2l3.412-4.787v.421" class="R Bw"/><g class="Bx R"><path d="M3.272 4.716L.317 8.861h-.3l3.255-4.566v.421"/><path d="M.317 8.861l2.955-4.145v4.145H.317"/></g></g><g transform="translate(47.092 2.285)"><mask id="e" class="O"><use href="#C"/></mask><path d="M-.012-.206l-.192.269v-.269h.192" class="E Ad"/><path d="M.289-.206l-.492.691V.064l.192-.269h.3" class="E Ae"/><path d="M.588-.206L-.204.906V.485l.492-.691h.3" class="E Af"/><path d="M.888-.206L-.204 1.327V.906L.588-.206h.3" class="E Ag"/><path d="M1.188-.206L-.204 1.748v-.421L.888-.206h.3" class="E Ah"/><path d="M1.489-.206L-.204 2.169v-.421L1.188-.206h.3" class="E Ai"/><path d="M1.788-.206L-.204 2.59v-.421L1.489-.206h.3" class="E Aj"/><path d="M2.089-.206L-.204 3.011V2.59L1.788-.206h.3" class="E Ak"/><path d="M2.389-.206L-.204 3.432v-.421L2.089-.206h.3" class="E Al"/><path d="M2.689-.206L-.204 3.853v-.421L2.389-.206h.3" class="E Am"/><path d="M2.989-.206l-3.193 4.48v-.421L2.689-.206h.3" class="E An"/><g class="Ao E"><path d="M2.991-.206l.196.142-3.22 4.517-.172-.124v-.056l3.193-4.48h.002"/><path d="M3.188-.063l.198.143-3.22 4.517-.198-.143 3.22-4.517"/></g><path d="M3.386.08l.198.143L.364 4.74.166 4.597 3.386.08" class="E Ap"/><path d="M3.584.223l.198.143-3.22 4.517-.198-.143L3.584.223" class="E Aq"/><path d="M3.782.366l.198.143L.76 5.027.562 4.883 3.782.366" class="E Ar"/><path d="M3.98.509l.198.143L.958 5.17.76 5.027 3.98.509" class="E BV"/><path d="M4.178.652l.198.143-3.22 4.518-.198-.143L4.178.652" class="E As"/><path d="M4.376.796l.198.143-3.22 4.518-.198-.143L4.376.796" class="E At"/><path d="M4.574.939l.198.143L1.552 5.6l-.198-.143L4.574.939" class="E x"/><path d="M4.772 1.082l.198.143-3.22 4.518-.198-.143 3.22-4.518" class="E Au"/><path d="M4.97 1.225l.198.143-3.22 4.518-.198-.143 3.22-4.518" class="E Av"/><path d="M5.168 1.368l.198.144-3.22 4.517-.198-.143 3.22-4.518" class="E y"/><path d="M5.366 1.512l.198.143-3.22 4.517-.198-.143 3.22-4.517" class="E z"/><path d="M5.564 1.655l.198.143-3.22 4.517-.198-.143 3.22-4.517" class="E AA"/><path d="M5.762 1.798l.198.143-3.22 4.517-.198-.143 3.22-4.517" class="E AB"/><path d="M5.96 1.941l.198.143-3.22 4.517-.198-.143 3.22-4.517" class="E AC"/><path d="M6.158 2.084l.198.143-3.22 4.517-.198-.143 3.22-4.517" class="E AD"/><path d="M6.356 2.228l.198.143-3.22 4.517-.198-.143 3.22-4.517" class="E BW"/><g class="Aw E"><path d="M6.554 2.371l.198.143-3.22 4.517-.198-.143 3.22-4.517"/><path d="M6.752 2.514l.198.143-3.22 4.517-.198-.143 3.22-4.517"/></g><path d="M6.95 2.657l.198.143-3.22 4.518-.198-.144 3.22-4.517" class="E Ax"/><path d="M7.148 2.8l.198.143-3.22 4.518-.198-.143L7.148 2.8" class="E AE"/><path d="M7.345 2.944l.198.143-3.22 4.518-.198-.143 3.22-4.518" class="E Ay"/><path d="M7.544 3.087l.198.143-3.22 4.518-.198-.143 3.22-4.518" class="E By"/><path d="M7.742 3.23l.147.106v.109l-3.07 4.307h-.291l-.006-.004 3.22-4.518" class="E Bz"/><path d="M7.888 3.867L5.119 7.752h-.3l3.07-4.307v.421" class="E CA"/><path d="M7.888 4.287L5.419 7.752h-.3l2.769-3.886v.421" class="E CB"/><path d="M7.888 4.708L5.719 7.752h-.3l2.469-3.465v.421" class="E CC"/><path d="M7.888 5.13L6.019 7.752h-.3l2.169-3.044v.421" class="E BX"/><path d="M7.888 5.55L6.319 7.752h-.3L7.888 5.13v.421" class="E BY"/><path d="M7.888 5.971L6.619 7.752h-.3L7.888 5.55v.421" class="E BZ"/><path d="M7.888 6.392l-.969 1.36h-.3l1.269-1.781v.421" class="E Ba"/><g class="Bb E"><path d="M7.888 6.813l-.669.939h-.3l.969-1.36v.421"/><path d="M7.888 7.234l-.369.518h-.3l.669-.939v.421"/></g><path d="M7.888 7.656l-.069.097h-.3l.369-.518v.421" class="E Bc"/><path d="M7.819 7.752l.069-.097v.097h-.069" class="E Bd"/></g><g transform="translate(33.628)"><mask id="f" class="O"><use href="#D"/></mask><g class="AF D"><path d="M.152-.311l-.348.488v-.421l.048-.067h.3"/><path d="M.452-.311l-.648.909V.177l.348-.488h.3"/></g><path d="M.752-.311l-.948 1.33V.598l.648-.909h.3" class="D AG"/><path d="M1.052-.311L-.196 1.441V1.02l.948-1.33h.3" class="D AH"/><path d="M1.353-.311L-.196 1.861v-.421L1.052-.311h.3" class="D AI"/><path d="M1.653-.311L-.196 2.282v-.421L1.353-.311h.3" class="D AJ"/><path d="M1.953-.311L-.196 2.703v-.421L1.653-.311h.3" class="D AK"/><path d="M2.253-.311L-.196 3.124v-.421L1.953-.311h.3" class="D AL"/><g class="k D"><path d="M2.553-.311L-.196 3.545v-.421L2.253-.311h.3"/><path d="M2.853-.311L-.196 3.966v-.421L2.553-.311h.3"/></g><path d="M3.153-.311L.09 3.986h-.286v-.02L2.853-.311h.3" class="D l"/><path d="M3.453-.311L.391 3.986h-.3L3.153-.311h.3" class="D m"/><path d="M3.753-.311L.691 3.986h-.3L3.453-.311h.3" class="D n"/><path d="M4.053-.311L.99 3.986h-.3L3.753-.311h.3" class="D o"/><path d="M4.353-.311L1.291 3.986h-.3L4.053-.311h.3" class="D p"/><path d="M4.653-.311L1.591 3.986h-.3L4.353-.311h.3" class="D d"/><g class="e D"><path d="M4.953-.311L1.891 3.986h-.3L4.653-.311h.3"/><path d="M5.253-.311L2.191 3.986h-.3L4.953-.311h.3"/></g><path d="M5.554-.311L2.491 3.986h-.3L5.253-.311h.3" class="D q"/><path d="M5.853-.311L2.791 3.986h-.3L5.554-.311h.3" class="D r"/><path d="M6.154-.311L3.091 3.986h-.3L5.853-.311h.3" class="D f"/><path d="M6.454-.311L3.391 3.986h-.3L6.154-.311h.3" class="D g"/><path d="M6.754-.311L3.691 3.986h-.3L6.454-.311h.3" class="D h"/><path d="M7.054-.311L3.991 3.986h-.3L6.754-.311h.3" class="D i"/><g class="j D"><path d="M7.354-.311L4.291 3.986h-.3L7.054-.311h.3"/><path d="M7.654-.311L4.591 3.986h-.3L7.354-.311h.3"/></g><path d="M7.954-.311L4.891 3.986h-.3L7.654-.311h.3" class="D s"/><path d="M8.254-.311L5.191 3.986h-.3L7.954-.311h.3" class="D t"/><path d="M8.554-.311L5.492 3.986h-.3L8.254-.311h.3" class="D u"/><path d="M8.854-.311L5.792 3.986h-.3L8.554-.311h.3" class="D v"/><g class="AM D"><path d="M9.154-.311L6.092 3.986h-.3L8.854-.311h.3"/><path d="M9.454-.311L6.392 3.986h-.3L9.154-.311h.3"/></g><path d="M9.755-.311L6.692 3.986h-.3L9.454-.311h.3" class="D AN"/><path d="M10.054-.311L6.992 3.986h-.3L9.755-.311h.3" class="D AO"/><path d="M10.354-.311L7.292 3.986h-.3l3.062-4.297h.3" class="D Az"/><path d="M10.655-.311L7.592 3.986h-.3l3.062-4.297h.3" class="D BA"/><g class="BB D"><path d="M10.954-.311L7.892 3.986h-.3l3.062-4.297h.3"/><path d="M10.974-.311l.185.134-2.967 4.163h-.3l3.062-4.297h.02"/></g><path d="M11.159-.177l.198.143-2.865 4.019h-.3l2.967-4.163" class="D BC"/><path d="M11.357-.034l.12.086v.166L8.792 3.986h-.3l2.865-4.019" class="D BD"/><path d="M11.477.64L9.092 3.986h-.3L11.477.219V.64" class="D AP"/><g class="AQ D"><path d="M11.477 1.061L9.392 3.986h-.3L11.477.64v.421"/><path d="M11.477 1.482L9.693 3.986h-.3l2.085-2.925v.421"/></g><path d="M11.477 1.903L9.993 3.986h-.3l1.785-2.504v.421" class="D AR"/><path d="M11.477 2.324l-1.185 1.662h-.3l1.485-2.083v.421" class="D AS"/><g class="AT D"><path d="M11.477 2.745l-.885 1.241h-.3l1.185-1.662v.421"/><path d="M11.477 3.166l-.585.82h-.3l.885-1.241v.421"/></g><path d="M11.477 3.587l-.284.399h-.3l.585-.82v.421" class="D Be"/><path d="M11.193 3.986l.284-.399v.399h-.284" class="D BE"/></g><g transform="translate(24.314 4.171)"><mask id="g" class="O"><use href="#E"/></mask><path d="M.076-.159l-.275.385v-.385h.275" class="I Bf"/><path d="M.602-.159L-.199.964V.226l.275-.385h.526" class="I Bg"/><path d="M1.128-.159L-.199 1.702V.964L.602-.159h.526" class="I Bh"/><path d="M1.654-.159l-1.853 2.6v-.738L1.128-.159h.526" class="I BF"/><path d="M2.181-.159l-2.38 3.338v-.738l1.853-2.6h.526" class="I BG"/><path d="M2.707-.159L-.199 3.917v-.738l2.38-3.338h.526" class="I BH"/><path d="M3.233-.159L-.199 4.655v-.738L2.707-.159h.526" class="I AU"/><path d="M3.759-.159L-.199 5.393v-.738L3.233-.159h.526" class="I AV"/><g class="BI I"><path d="M4.285-.159L-.199 6.132v-.738L3.759-.159h.526"/><path d="M4.586-.159L-.199 6.553v-.421L4.285-.159h.3"/></g><path d="M4.885-.159L-.199 6.974v-.421L4.586-.159h.3" class="I BJ"/><path d="M5.186-.159L-.199 7.395v-.421L4.885-.159h.3" class="I Bi"/><path d="M5.486-.159L-.199 7.816v-.421L5.186-.159h.3" class="I Bj"/><path d="M5.786-.159L-.199 8.237v-.421L5.486-.159h.3" class="I Bk"/><path d="M6.086-.159L-.131 8.563l-.067-.049v-.278L5.786-.159h.3" class="I Bl"/><g class="AF I"><path d="M6.386-.159L.168 8.564h-.299v-.001L6.086-.159h.3"/><path d="M6.686-.159L.468 8.564h-.3L6.386-.159h.3"/></g><path d="M6.986-.159L.768 8.564h-.3L6.686-.159h.3" class="I AG"/><path d="M7.286-.159L1.068 8.564h-.3L6.986-.159h.3" class="I AH"/><path d="M7.586-.159L1.369 8.564h-.3L7.286-.159h.3" class="I AI"/><path d="M7.615-.159l.052.037v.271L1.668 8.564h-.3L7.586-.159h.029" class="I AJ"/><path d="M7.667.57L1.968 8.564h-.3L7.667.149V.57" class="I AK"/><path d="M7.667.991L2.268 8.564h-.3L7.667.57v.421" class="I AL"/><g class="k I"><path d="M7.667 1.411L2.569 8.564h-.3L7.667.991v.421"/><path d="M7.667 1.833L2.869 8.564h-.3l5.098-7.153v.421"/></g><path d="M7.667 2.254L3.169 8.564h-.3l4.798-6.732v.421" class="I l"/><path d="M7.667 2.675L3.469 8.564h-.3l4.498-6.311v.421" class="I m"/><path d="M7.667 3.096L3.769 8.564h-.3l4.198-5.889v.421" class="I n"/><path d="M7.667 3.517L4.069 8.564h-.3l3.898-5.469v.421" class="I o"/><path d="M7.667 3.937L4.369 8.564h-.3l3.598-5.048v.421" class="I p"/><path d="M7.667 4.359L4.669 8.564h-.3l3.298-4.627v.421" class="I d"/><g class="e I"><path d="M7.667 4.779L4.969 8.564h-.3l2.998-4.206v.421"/><path d="M7.667 5.2L5.269 8.564h-.3l2.697-3.785V5.2"/></g><path d="M7.667 5.622L5.569 8.564h-.3L7.667 5.2v.421" class="I q"/><path d="M7.667 6.043L5.869 8.564h-.3l2.098-2.943v.421" class="I r"/><path d="M7.667 6.463L6.169 8.564h-.3l1.797-2.522v.421" class="I f"/><path d="M7.667 6.885L6.47 8.564h-.3l1.497-2.101v.421" class="I g"/><path d="M7.667 7.305l-.897 1.259h-.3l1.197-1.68v.421" class="I h"/><path d="M7.667 7.726l-.597.838h-.3l.897-1.259v.421" class="I i"/><g class="j I"><path d="M7.667 8.148l-.297.417h-.3l.597-.838v.421"/><path d="M7.37 8.564l.297-.417v.417H7.37"/></g></g><g transform="translate(18.91 14.239)"><mask id="h" class="O"><use href="#F"/></mask><path d="M-.091-.197l-.071.101v-.101h.071" class="P BF"/><path d="M.435-.197l-.598.839v-.738l.071-.101h.526" class="P BG"/><path d="M.961-.197L-.163 1.38V.642l.598-.839h.526" class="P BH"/><path d="M1.488-.197l-1.65 2.316V1.38L.961-.197h.526" class="P AU"/><path d="M2.014-.197L-.163 2.857v-.738l1.65-2.316h.526" class="P AV"/><g class="BI P"><path d="M2.54-.197L-.163 3.595v-.738L2.014-.197h.526"/><path d="M2.84-.197L-.163 4.016v-.421L2.54-.197h.3"/></g><path d="M3.14-.197L-.163 4.436v-.421L2.84-.197h.3" class="P BJ"/><path d="M3.44-.197L-.163 4.858v-.421L3.14-.197h.3" class="P Bi"/><path d="M3.74-.197L-.163 5.279v-.421L3.44-.197h.3" class="P Bj"/><path d="M4.04-.197L-.163 5.699v-.421L3.74-.197h.3" class="P Bk"/><path d="M4.34-.197L.132 5.706h-.295v-.007L4.04-.197h.3" class="P Bl"/><g class="AF P"><path d="M4.64-.197L.433 5.706h-.3L4.34-.197h.3"/><path d="M4.94-.197L.733 5.706h-.3L4.64-.197h.3"/></g><path d="M5.14-.197l.066.048-4.173 5.856h-.3L4.94-.197h.2" class="P AG"/><path d="M5.206-.149l.198.143-4.072 5.712h-.3L5.206-.149" class="P AH"/><path d="M5.404-.006l.081.059v.249L1.633 5.706h-.3L5.404-.006" class="P AI"/><path d="M5.486.722L1.933 5.706h-.3L5.486.301v.421" class="P AJ"/><path d="M5.486 1.143L2.233 5.706h-.3L5.486.722v.421" class="P AK"/><path d="M5.486 1.564L2.533 5.706h-.3l3.253-4.563v.421" class="P AL"/><g class="k P"><path d="M5.486 1.985L2.833 5.706h-.3l2.953-4.142v.421"/><path d="M5.486 2.406l-2.353 3.3h-.3l2.653-3.721v.421"/></g><path d="M5.486 2.827L3.433 5.706h-.3l2.353-3.3v.421" class="P l"/><path d="M5.486 3.248L3.733 5.706h-.3l2.053-2.879v.421" class="P m"/><path d="M5.486 3.669L4.033 5.706h-.3l1.753-2.458v.421" class="P n"/><path d="M5.486 4.09L4.333 5.706h-.3l1.452-2.037v.421" class="P o"/><path d="M5.486 4.511l-.852 1.195h-.3L5.486 4.09v.421" class="P p"/><path d="M5.486 4.932l-.552.774h-.3l.852-1.195v.421" class="P d"/><g class="e P"><path d="M5.486 5.353l-.252.353h-.3l.552-.774v.421"/><path d="M5.234 5.706l.252-.353v.353h-.252"/></g></g><g transform="translate(12.212 17.627)"><mask id="i" class="O"><use href="#G"/></mask><path d="M-.049-.153l-.103.145v-.145h.103" class="V Bm"/><path fill="#3ca68d" d="M.477-.153L-.152.73v-.738l.103-.145h.526" class="V"/><path fill="#3da78d" d="M1.003-.153L-.152 1.468V.73l.629-.883h.526" class="V"/><path fill="#3ea88e" d="M1.529-.153L-.152 2.206v-.738L1.003-.153h.526" class="V"/><path d="M2.056-.153L-.152 2.945v-.738L1.529-.153h.526" class="V CD"/><path d="M2.582-.153L.16 3.245-.152 3.02v-.076L2.056-.153h.526" class="V Bf"/><path d="M3.073-.153l.023.017-2.59 3.633-.347-.251L2.582-.153h.491" class="V Bg"/><path d="M3.096-.136l.347.251-2.59 3.633-.347-.251 2.59-3.633" class="V Bh"/><path d="M3.443.115l.347.251-2.439 3.422H.91l-.056-.04L3.443.115" class="V BF"/><path d="M3.791.366l.347.251-2.261 3.171h-.526L3.791.366" class="V BG"/><path d="M4.138.617l.196.142v.321l-1.93 2.708h-.526L4.138.617" class="V BH"/><path d="M4.334 1.818L2.93 3.788h-.526l1.93-2.708v.738" class="V AU"/><path d="M4.334 2.556l-.878 1.232H2.93l1.404-1.97v.738" class="V AV"/><g class="BI V"><path d="M4.334 3.295l-.352.493h-.526l.878-1.232v.738"/><path d="M4.334 3.716l-.052.072h-.3l.352-.493v.421"/></g><path d="M4.282 3.788l.052-.072v.072h-.052" class="V BJ"/></g><g transform="translate(.457 6.984)"><mask id="j" class="O"><use href="#H"/></mask><path fill="#287e6a" d="M-.142-.204l-.02.028v-.028h.02" class="T"/><path fill="#287f6b" d="M.385-.204l-.546.766v-.738l.02-.028h.526" class="T"/><path fill="#29806c" d="M.911-.204L-.161 1.3V.562l.546-.766h.526" class="T"/><path fill="#29816d" d="M1.437-.204L-.161 2.039V1.3L.911-.204h.526" class="T"/><path fill="#2a826e" d="M1.963-.204l-2.124 2.98v-.738L1.437-.204h.526" class="T"/><path fill="#2a836f" d="M2.49-.204L-.161 3.515v-.738l2.124-2.98h.526" class="T"/><path fill="#2b8470" d="M3.015-.204L-.161 4.253v-.738L2.49-.204h.526" class="T"/><path fill="#2c8570" d="M3.542-.204L-.161 4.992v-.738L3.015-.204h.526" class="T"/><path fill="#2d8671" d="M4.068-.204L-.161 5.73v-.738L3.542-.204h.526" class="T"/><path fill="#2d8772" d="M4.575-.204l.013.009-4.749 6.662V5.73L4.068-.204h.507" class="T"/><path fill="#2e8873" d="M4.588-.194l.295.213v.112L.02 6.953h-.181v-.485L4.588-.194" class="T"/><path fill="#2e8974" d="M4.882.869L.546 6.953H.02L4.882.131v.738" class="T"/><path fill="#2f8a74" d="M4.882 1.607l-3.81 5.346H.546L4.882.869v.738" class="T"/><path d="M4.882 2.345L1.598 6.953h-.526l3.81-5.346v.738" class="T CE"/><path d="M4.882 3.083L2.125 6.953h-.526l3.284-4.608v.738" class="T Bn"/><path d="M4.882 3.822L2.651 6.953h-.526l2.758-3.869v.738" class="T Bo"/><path d="M4.882 4.56L3.177 6.953h-.526l2.232-3.131v.738" class="T CF"/><path d="M4.882 5.298L3.703 6.953h-.526L4.882 4.56v.738" class="T CG"/><path d="M4.882 6.037l-.653.916h-.526l1.179-1.654v.738" class="T CH"/><path d="M4.882 6.775l-.127.178h-.526l.653-.916v.738" class="T Bp"/><path d="M4.755 6.953l.127-.178v.178h-.127" class="T CI"/></g><g transform="translate(0 16.566)"><mask id="k" class="O"><use href="#I"/></mask><path d="M.232-.071L-.08.367v-.438h.312" class="Q CE"/><path d="M.758-.071L-.08 1.105V.367l.312-.438h.526" class="Q Bn"/><path d="M1.284-.071L-.08 1.844v-.738L.758-.071h.526" class="Q Bo"/><path d="M1.81-.071L-.08 2.582v-.738L1.284-.071h.526" class="Q CF"/><path d="M2.336-.071L-.08 3.32v-.738L1.81-.071h.526" class="Q CG"/><path d="M2.863-.071L-.08 4.058V3.32L2.336-.071h.526" class="Q CH"/><path d="M3.179-.071l.139.101L-.08 4.797v-.738L2.863-.071h.316" class="Q Bp"/><path d="M3.318.03l.347.251L-.08 5.535v-.738L3.318.03" class="Q CI"/><path d="M3.665.281l.347.251L-.08 6.273v-.738L3.665.281" class="Q CJ"/><path d="M4.012.532l.347.251L-.08 7.011v-.738L4.012.532" class="Q CK"/><path d="M4.359.783l.347.251L-.08 7.75v-.738L4.359.783" class="Q CL"/><path d="M4.706 1.034l.347.251L.028 8.336-.08 8.258V7.75l4.787-6.716" class="Q CM"/><path d="M5.053 1.285l.347.251L.375 8.587.028 8.336l5.026-7.051" class="Q CN"/><path d="M5.401 1.536l.318.23v.062L.722 8.838.375 8.587l5.026-7.051" class="Q CO"/><path d="M5.719 2.566L1.069 9.09.722 8.838l4.997-7.01v.738" class="Q CP"/><path d="M5.719 3.304L1.417 9.341l-.347-.251 4.65-6.523v.738" class="Q CQ"/><path d="M5.719 4.043L1.764 9.592l-.347-.251 4.302-6.036v.738" class="Q CR"/><path fill="#399c85" d="M5.719 4.781L2.111 9.843l-.347-.251 3.955-5.549v.738" class="Q"/><path d="M5.719 5.519L2.5 10.036h-.122l-.267-.193 3.608-5.062v.738" class="Q CS"/><path d="M5.719 6.258l-2.693 3.778H2.5l3.219-4.517v.738" class="Q CT"/><path d="M5.719 6.996l-2.167 3.04h-.526l2.693-3.778v.738" class="Q CU"/><path d="M5.719 7.734l-1.641 2.302h-.526l2.167-3.04v.738" class="Q CV"/><path d="M5.719 8.472l-1.115 1.563h-.526l1.641-2.302v.738" class="Q CW"/><path d="M5.719 9.211l-.588.825h-.526l1.115-1.563v.738" class="Q CX"/><path d="M5.719 9.949l-.062.087h-.526l.588-.825v.738" class="Q Bm"/></g><g transform="translate(6.782 27.71)"><mask id="l" class="O"><use href="#J"/></mask><path d="M.334-.202L-.202.55v-.738l.01-.014h.526" class="F CD"/><path d="M.86-.202L-.202 1.288V.55l.536-.752H.86" class="F Bf"/><path d="M1.386-.202L-.202 2.026v-.738L.86-.202h.526" class="F Bg"/><path d="M1.912-.202L-.202 2.764v-.738L1.386-.202h.526" class="F Bh"/><path d="M2.439-.202L.082 3.105-.202 2.9v-.135L1.912-.202h.526" class="F BF"/><path d="M2.965-.202L.429 3.356.082 3.105 2.439-.202h.526" class="F BG"/><path d="M3.491-.202L.776 3.607.429 3.356 2.965-.202h.526" class="F BH"/><path d="M4.017-.202l-2.894 4.06-.347-.251L3.491-.202h.526" class="F AU"/><path d="M4.544-.202L1.47 4.109l-.347-.251 2.894-4.06h.526" class="F AV"/><g class="BI F"><path d="M5.07-.202L1.817 4.36l-.347-.251L4.544-.202h.526"/><path d="M5.37-.202L2.016 4.504l-.198-.143L5.07-.202h.3"/></g><path d="M5.67-.202L2.214 4.646l-.198-.143L5.37-.202h.3" class="F BJ"/><path d="M5.97-.202L2.412 4.79l-.198-.143L5.67-.202h.3" class="F Bi"/><path d="M6.27-.202L2.61 4.933l-.198-.143L5.97-.202h.3" class="F Bj"/><path d="M6.57-.202L2.808 5.076l-.198-.143L6.27-.202h.3" class="F Bk"/><path d="M6.87-.202L3.005 5.219l-.198-.143L6.57-.202h.3" class="F Bl"/><g class="AF F"><path d="M7.17-.202L3.238 5.314h-.102l-.131-.095L6.87-.202h.3"/><path d="M7.47-.202L3.538 5.314h-.3L7.17-.202h.3"/></g><path d="M7.77-.202L3.838 5.314h-.3L7.47-.202h.3" class="F AG"/><path d="M8.071-.202L4.138 5.314h-.3L7.77-.202h.3" class="F AH"/><path d="M8.37-.202L4.439 5.314h-.3L8.071-.202h.3" class="F AI"/><path d="M8.671-.202L4.739 5.314h-.3L8.37-.202h.3" class="F AJ"/><path d="M8.681-.202l.19.138-3.834 5.378h-.3L8.671-.202h.011" class="F AK"/><path d="M8.872-.064l.198.143-3.731 5.235h-.3L8.872-.064" class="F AL"/><g class="k F"><path d="M9.07.079l.198.143-3.629 5.092h-.3L9.07.079"/><path d="M9.268.222l.198.143-3.527 4.949h-.3L9.268.222"/></g><path d="M9.466.365l.198.143-3.425 4.806h-.3L9.466.365" class="F l"/><path d="M9.664.508l.198.143-3.323 4.663h-.3L9.664.508" class="F m"/><path d="M9.862.652l.198.143-3.221 4.519h-.3L9.862.652" class="F n"/><path d="M10.06.795l.198.143-3.119 4.376h-.3L10.06.795" class="F o"/><path d="M10.258.938l.198.143-3.017 4.233h-.3L10.258.938" class="F p"/><path d="M10.456 1.081l.198.143-2.915 4.09h-.3l3.017-4.233" class="F d"/><g class="e F"><path d="M10.654 1.224l.198.144-2.813 3.946h-.3l2.915-4.09"/><path d="M10.852 1.368l.198.143-2.711 3.803h-.3l2.813-3.946"/></g><path d="M11.05 1.511l.198.143-2.609 3.66h-.3l2.711-3.803" class="F q"/><path d="M11.248 1.654l.198.143-2.507 3.517h-.3l2.609-3.66" class="F r"/><path d="M11.446 1.797l.198.143-2.405 3.374h-.3l2.507-3.517" class="F f"/><path d="M11.644 1.94l.198.143L9.54 5.314h-.3l2.405-3.374" class="F g"/><path d="M11.842 2.083l.04.029v.337L9.84 5.314h-.3l2.303-3.231" class="F h"/><path d="M11.882 2.87L10.14 5.314h-.3l2.042-2.865v.421" class="F i"/><g class="j F"><path d="M11.882 3.291L10.44 5.314h-.3l1.742-2.444v.421"/><path d="M11.882 3.712L10.74 5.314h-.3l1.442-2.023v.421"/></g><path d="M11.882 4.133l-.842 1.181h-.3l1.142-1.602v.421" class="F s"/><path d="M11.882 4.554l-.541.76h-.3l.842-1.181v.421" class="F t"/><path d="M11.882 4.975l-.242.339h-.3l.541-.76v.421" class="F u"/><path d="M11.64 5.314l.242-.339v.339h-.242" class="F v"/></g><g transform="translate(21.294 23.692)"><mask id="m" class="O"><use href="#K"/></mask><path d="M.003-.174l-.208.292v-.292h.208" class="B d"/><g class="e B"><path d="M.303-.174l-.508.712V.118l.208-.292h.3"/><path d="M.603-.174L-.205.96V.539l.508-.712h.3"/></g><path d="M.903-.174L-.205 1.38V.96L.603-.174h.3" class="B q"/><path d="M1.203-.174L-.205 1.802V1.38L.903-.174h.3" class="B r"/><path d="M1.503-.174L-.205 2.223v-.421L1.203-.174h.3" class="B f"/><path d="M1.804-.174L-.205 2.644v-.421L1.503-.174h.3" class="B g"/><path d="M2.104-.174L-.205 3.065v-.421L1.804-.174h.3" class="B h"/><path d="M2.403-.174L-.205 3.486v-.421L2.104-.174h.3" class="B i"/><g class="j B"><path d="M2.703-.174l-2.908 4.08v-.421L2.403-.174h.3"/><path d="M3.004-.174L-.205 4.328v-.421l2.908-4.08h.3"/></g><path d="M3.303-.174L-.205 4.749v-.421L3.004-.174h.3" class="B s"/><path d="M3.604-.174L-.205 5.169v-.421L3.303-.174h.3" class="B t"/><path d="M3.904-.174L-.205 5.591v-.421L3.604-.174h.3" class="B u"/><path d="M4.204-.174L-.205 6.012v-.421L3.904-.174h.3" class="B v"/><g class="AM B"><path d="M4.504-.174L-.205 6.432v-.421L4.204-.174h.3"/><path d="M4.804-.174L-.205 6.854v-.421L4.504-.174h.3"/></g><path d="M5.104-.174L-.205 7.274v-.421L4.804-.174h.3" class="B AN"/><path d="M5.404-.174L-.205 7.695v-.421L5.104-.174h.3" class="B AO"/><path d="M5.704-.174L-.027 7.868h-.178v-.173L5.404-.174h.3" class="B Az"/><path d="M6.004-.174L.273 7.868h-.3L5.704-.174h.3" class="B BA"/><g class="BB B"><path d="M6.304-.174L.573 7.868h-.3L6.004-.174h.3"/><path d="M6.604-.174L.873 7.868h-.3L6.304-.174h.3"/></g><path d="M6.904-.174L1.173 7.868h-.3L6.604-.174h.3" class="B BC"/><path d="M7.205-.174L1.473 7.868h-.3L6.904-.174h.3" class="B BD"/><path d="M7.504-.174L1.773 7.868h-.3L7.205-.174h.3" class="B AP"/><g class="AQ B"><path d="M7.805-.174L2.073 7.868h-.3L7.504-.174h.3"/><path d="M8.105-.174L2.373 7.868h-.3L7.805-.174h.3"/></g><path d="M8.405-.174L2.673 7.868h-.3L8.105-.174h.3" class="B AR"/><path d="M8.705-.174L2.973 7.868h-.3L8.405-.174h.3" class="B AS"/><g class="AT B"><path d="M8.766-.174l.158.114-5.65 7.927h-.3L8.705-.174h.061"/><path d="M8.924-.06l.066.048v.28L3.573 7.868h-.3L8.924-.06"/></g><path d="M8.99.69L3.873 7.868h-.3L8.99.269V.69" class="B Be"/><path d="M8.99 1.111L4.174 7.868h-.3L8.99.69v.421" class="B BE"/><path d="M8.99 1.532L4.474 7.868h-.3L8.99 1.111v.421" class="B Bq"/><path d="M8.99 1.953L4.773 7.868h-.3L8.99 1.532v.421" class="B Ad"/><path d="M8.99 2.374L5.074 7.868h-.3L8.99 1.953v.421" class="B Ae"/><path d="M8.99 2.795L5.374 7.868h-.3L8.99 2.374v.421" class="B Af"/><path d="M8.99 3.216L5.673 7.868h-.3L8.99 2.795v.421" class="B Ag"/><path d="M8.99 3.637L5.974 7.868h-.3L8.99 3.216v.421" class="B Ah"/><path d="M8.99 4.058l-2.716 3.81h-.3L8.99 3.637v.421" class="B Ai"/><path d="M8.99 4.479L6.574 7.868h-.3l2.716-3.81v.421" class="B Aj"/><path d="M8.99 4.9L6.874 7.868h-.3L8.99 4.479V4.9" class="B Ak"/><path d="M8.99 5.321L7.174 7.868h-.3L8.99 4.9v.421" class="B Al"/><path d="M8.99 5.741L7.474 7.868h-.3L8.99 5.321v.421" class="B Am"/><path d="M8.99 6.163L7.774 7.868h-.3L8.99 5.741v.421" class="B An"/><g class="Ao B"><path d="M8.99 6.584l-.915 1.284h-.3L8.99 6.163v.421"/><path d="M8.99 7.005l-.615.863h-.3l.915-1.284v.421"/></g><path d="M8.99 7.426l-.315.442h-.3l.615-.863v.421" class="B Ap"/><path d="M8.99 7.847l-.015.021h-.3l.315-.442v.421" class="B Aq"/><path d="M8.974 7.868l.015-.021v.021h-.015" class="B Ar"/></g><g transform="translate(30.433 12.886)"><mask id="n" class="O"><use href="#L"/></mask><path d="M.065-.172L-.2.2v-.372h.265" class="C f"/><path d="M.365-.172L-.2.621V.2l.265-.372h.3" class="C g"/><path d="M.665-.172L-.2 1.042V.621l.565-.793h.3" class="C h"/><path d="M.965-.172L-.2 1.463v-.421L.665-.172h.3" class="C i"/><g class="j C"><path d="M1.265-.172L-.2 1.884v-.421L.965-.172h.3"/><path d="M1.565-.172L-.2 2.305v-.421L1.265-.172h.3"/></g><path d="M1.866-.172L-.2 2.726v-.421L1.565-.172h.3" class="C s"/><path d="M2.166-.172L-.2 3.147v-.421L1.866-.172h.3" class="C t"/><path d="M2.465-.172L-.2 3.568v-.421L2.166-.172h.3" class="C u"/><path d="M2.766-.172L-.2 3.989v-.421l2.666-3.74h.3" class="C v"/><g class="AM C"><path d="M3.066-.172L-.2 4.41v-.421L2.766-.172h.3"/><path d="M3.366-.172L-.2 4.831V4.41L3.066-.172h.3"/></g><path d="M3.666-.172L-.2 5.252v-.421L3.366-.172h.3" class="C AN"/><path d="M3.966-.172L-.2 5.673v-.421L3.666-.172h.3" class="C AO"/><path d="M4.266-.172L-.2 6.094v-.421L3.966-.172h.3" class="C Az"/><path d="M4.566-.172L-.2 6.515v-.421L4.266-.172h.3" class="C BA"/><g class="BB C"><path d="M4.866-.172L-.2 6.936v-.421L4.566-.172h.3"/><path d="M5.166-.172L-.2 7.357v-.421L4.866-.172h.3"/></g><path d="M5.466-.172L-.2 7.778v-.421L5.166-.172h.3" class="C BC"/><path d="M5.766-.172L-.2 8.199v-.421l5.666-7.95h.3" class="C BD"/><path d="M6.067-.172L-.2 8.62v-.421L5.766-.172h.3" class="C AP"/><g class="AQ C"><path d="M6.366-.172L-.2 9.041V8.62L6.067-.172h.3"/><path d="M6.667-.172l-6.736 9.45h-.073L-.2 9.236v-.195L6.366-.172h.3"/></g><path d="M6.967-.172L.231 9.278h-.3l6.736-9.45h.3" class="C AR"/><path d="M7.267-.172L.531 9.278h-.3l6.736-9.45h.3" class="C AS"/><g class="AT C"><path d="M7.567-.172L.831 9.278h-.3l6.735-9.45h.3"/><path d="M7.867-.172l-6.735 9.45h-.3l6.736-9.45h.3"/></g><path d="M7.942-.172l.048.034v.214L1.431 9.278h-.3l6.735-9.45h.075" class="C Be"/><path d="M7.99.498l-6.258 8.78h-.3L7.99.077v.421" class="C BE"/><path d="M7.99.919L2.031 9.278h-.3L7.99.498v.421" class="C Bq"/><path d="M7.99 1.34L2.331 9.278h-.3L7.99.919v.421" class="C Ad"/><path d="M7.99 1.76L2.632 9.278h-.3L7.99 1.34v.421" class="C Ae"/><path d="M7.99 2.182L2.931 9.278h-.3L7.99 1.76v.421" class="C Af"/><path d="M7.99 2.602L3.231 9.278h-.3L7.99 2.182v.421" class="C Ag"/><path d="M7.99 3.023L3.532 9.278h-.3L7.99 2.602v.421" class="C Ah"/><path d="M7.99 3.444L3.832 9.278h-.3L7.99 3.023v.421" class="C Ai"/><path d="M7.99 3.865L4.132 9.278h-.3L7.99 3.444v.421" class="C Aj"/><path d="M7.99 4.286L4.432 9.278h-.3L7.99 3.865v.421" class="C Ak"/><path d="M7.99 4.707L4.732 9.278h-.3L7.99 4.286v.421" class="C Al"/><path d="M7.99 5.128l-2.958 4.15h-.3L7.99 4.707v.421" class="C Am"/><path d="M7.99 5.549L5.332 9.278h-.3l2.958-4.15v.421" class="C An"/><g class="Ao C"><path d="M7.99 5.97L5.632 9.278h-.3L7.99 5.549v.421"/><path d="M7.99 6.391L5.932 9.278h-.3L7.99 5.97v.421"/></g><path d="M7.99 6.812L6.232 9.278h-.3L7.99 6.391v.421" class="C Ap"/><path d="M7.99 7.233L6.533 9.278h-.3L7.99 6.812v.421" class="C Aq"/><path d="M7.99 7.654L6.832 9.278h-.3L7.99 7.233v.421" class="C Ar"/><path d="M7.99 8.075l-.857 1.203h-.3L7.99 7.654v.421" class="C BV"/><path d="M7.99 8.496l-.557.782h-.3l.857-1.203v.421" class="C As"/><path d="M7.99 8.917l-.257.361h-.3l.557-.782v.421" class="C At"/><path d="M7.733 9.278l.257-.361v.361h-.257" class="C x"/></g><g transform="translate(39.987 11.532)"><mask id="o" class="O"><use href="#M"/></mask><path d="M-.134-.153l-.017.023v-.023h.017" class="L BE"/><path d="M.165-.153l-.317.444V-.13l.017-.023h.3" class="L Bq"/><path d="M.465-.153l-.617.865V.291l.317-.444h.3" class="L Ad"/><path d="M.766-.153l-.917 1.286V.712l.617-.865h.3" class="L Ae"/><path d="M1.066-.153L-.151 1.554v-.421L.766-.153h.3" class="L Af"/><path d="M1.366-.153L-.151 1.975v-.421L1.066-.153h.3" class="L Ag"/><path d="M1.666-.153L-.151 2.396v-.421L1.366-.153h.3" class="L Ah"/><path d="M1.966-.153l-2.117 2.97v-.421L1.666-.153h.3" class="L Ai"/><path d="M2.266-.153L-.151 3.238v-.421l2.117-2.97h.3" class="L Aj"/><path d="M2.566-.153L-.151 3.659v-.421L2.266-.153h.3" class="L Ak"/><path d="M2.866-.153L-.151 4.08v-.421L2.566-.153h.3" class="L Al"/><path d="M3.166-.153l-3.23 4.531-.087-.063V4.08L2.866-.153h.3" class="L Am"/><path d="M3.466-.153L.134 4.521l-.198-.143 3.23-4.531h.3" class="L An"/><g class="Ao L"><path d="M3.766-.153L.332 4.664.134 4.521 3.466-.153h.3"/><path d="M3.795-.153l.179.129L.53 4.808.332 4.664 3.766-.153h.029"/></g><path d="M3.974-.024l.198.143L.728 4.951.53 4.808 3.974-.024" class="L Ap"/><path d="M4.172.119l.198.143L.926 5.094.728 4.951 4.172.119" class="L Aq"/><path d="M4.37.262l.198.143-3.444 4.832-.198-.143L4.37.262" class="L Ar"/><path d="M4.568.406l.198.143L1.322 5.38l-.198-.143L4.568.406" class="L BV"/><path d="M4.766.549l.198.143L1.52 5.524l-.198-.143L4.766.549" class="L As"/><path d="M4.964.692l.198.143-3.444 4.832-.198-.143L4.964.692" class="L At"/><path d="M5.162.835l.198.143L1.916 5.81l-.198-.143L5.162.835" class="L x"/><path d="M5.36.978l.198.143-3.444 4.832-.198-.143L5.36.978" class="L Au"/><path d="M5.558 1.122l.194.14v.008l-3.44 4.826-.198-.143 3.444-4.832" class="L Av"/><path d="M5.752 1.692L2.566 6.161h-.165l-.089-.064 3.44-4.826v.421" class="L y"/><path d="M5.752 2.112L2.866 6.161h-.3l3.186-4.469v.421" class="L z"/><path d="M5.752 2.533L3.166 6.161h-.3l2.886-4.048v.421" class="L AA"/><path d="M5.752 2.955L3.467 6.161h-.3l2.586-3.627v.421" class="L AB"/><path d="M5.752 3.375L3.767 6.161h-.3l2.285-3.206v.421" class="L AC"/><path d="M5.752 3.796L4.067 6.161h-.3l1.985-2.785v.421" class="L AD"/><path d="M5.752 4.217L4.367 6.161h-.3l1.685-2.364v.421" class="L BW"/><g class="Aw L"><path d="M5.752 4.638L4.667 6.161h-.3l1.385-1.944v.421"/><path d="M5.752 5.059l-.785 1.101h-.3l1.085-1.522v.421"/></g><path d="M5.752 5.481l-.485.68h-.3l.785-1.101v.421" class="L Ax"/><path d="M5.752 5.901l-.185.259h-.3l.485-.68v.421" class="L AE"/><path d="M5.567 6.161l.185-.259v.259h-.185" class="L Ay"/></g><g transform="translate(38.694 30.354)"><mask id="p" class="O"><use href="#N"/></mask><path d="M.019-.116l-.133.187v-.187h.133" class="U BX"/><path d="M.319-.116l-.433.608V.071l.133-.187h.3" class="U BY"/><path d="M.618-.116L-.115.913V.492l.433-.608h.3" class="U BZ"/><path d="M.919-.116l-1.033 1.45V.913L.618-.116h.3" class="U Ba"/><g class="Bb U"><path d="M1.219-.116l-1.333 1.87v-.421L.919-.116h.3"/><path d="M1.519-.116L-.115 2.176v-.421l1.333-1.87h.3"/></g><path d="M1.819-.116L-.115 2.597v-.421L1.519-.116h.3" class="U Bc"/><path d="M2.119-.116L.169 2.62h-.284v-.023L1.819-.116h.3" class="U Bd"/><path d="M2.419-.116L.469 2.62h-.3l1.95-2.736h.3" class="U BM"/><path d="M2.602.049L.769 2.62h-.3l1.95-2.736h.182v.165" class="U BN"/><path d="M2.602.47L1.069 2.62h-.3L2.602.049V.47" class="U BO"/><path d="M2.602.891L1.369 2.62h-.3L2.602.47v.421" class="U BP"/><path d="M2.602 1.312L1.669 2.62h-.3L2.602.891v.421" class="U BQ"/><path d="M2.602 1.733l-.633.887h-.3l.932-1.308v.421" class="U BR"/><path d="M2.602 2.154l-.332.467h-.3l.633-.887v.421" class="U BS"/><path d="M2.602 2.575l-.032.045h-.3l.332-.467v.421" class="U BT"/><path d="M2.569 2.62l.032-.045v.045h-.032" class="U Ac"/></g><g transform="translate(36.704 24.285)"><mask id="q" class="O"><use href="#O"/></mask><path d="M.25 0L0 .35V0h.25" class="X x"/><path d="M.55 0L0 .771V.35L.25 0h.3" class="X Au"/><path d="M.85 0L0 1.192V.771L.55 0h.3" class="X Av"/><path d="M1.15 0L0 1.613v-.421L.85 0h.3" class="X y"/><path d="M1.45 0L0 2.034v-.421L1.15 0h.3" class="X z"/><path d="M1.75 0L0 2.455v-.421L1.45 0h.3" class="X AA"/><path d="M2.05 0L.265 2.504H0v-.049L1.75 0h.3" class="X AB"/><path d="M2.35 0L.565 2.504h-.3L2.05 0h.3" class="X AC"/><path d="M2.486.23L.865 2.504h-.3L2.35 0h.136v.23" class="X AD"/><path d="M2.486.651L1.166 2.504h-.3L2.486.23v.421" class="X BW"/><g class="Aw X"><path d="M2.486 1.072L1.466 2.504h-.3L2.486.651v.421"/><path d="M2.486 1.493l-.721 1.011h-.3l1.021-1.432v.421"/></g><path d="M2.486 1.914l-.42.59h-.3l.721-1.011v.421" class="X Ax"/><path d="M2.486 2.335l-.121.169h-.3l.42-.59v.421" class="X AE"/><path d="M2.366 2.504l.121-.169v.169h-.121" class="X Ay"/></g><g transform="translate(5.95 3.354)"><mask id="r" class="O"><use href="#P"/></mask><path fill="#2b8470" d="M.047-.116l-.162.227v-.227h.162" class="c"/><path fill="#2c8570" d="M.573-.116l-.688.965V.111l.162-.227h.526" class="c"/><path fill="#2d8671" d="M1.099-.116L-.115 1.588V.849l.688-.965h.526" class="c"/><path fill="#2d8772" d="M1.626-.116l-1.74 2.442v-.738L1.099-.116h.526" class="c"/><path fill="#2e8873" d="M2.152-.116L.202 2.62h-.316v-.294l1.74-2.442h.526" class="c"/><path fill="#2e8974" d="M2.602-.008L.728 2.62H.202l1.95-2.736h.45v.107" class="c"/><path fill="#2f8a74" d="M2.602.73L1.254 2.62H.728L2.602-.008V.73" class="c"/><path d="M2.602 1.468L1.781 2.62h-.526L2.602.73v.738" class="c CE"/><path d="M2.602 2.207l-.295.414h-.526l.821-1.152v.738" class="c Bn"/><path d="M2.306 2.62l.295-.414v.414h-.295" class="c Bo"/></g><g transform="translate(5.604 13.307)"><mask id="s" class="O"><use href="#Q"/></mask><path d="M.149-.129L-.128.26v-.388h.277" class="Z Bp"/><path d="M.675-.129L-.128.998V.26l.277-.388h.526" class="Z CI"/><path d="M1.202-.129L-.128 1.736V.998L.675-.129h.526" class="Z CJ"/><path d="M1.728-.129L-.128 2.474v-.738L1.202-.129h.526" class="Z CK"/><path d="M2.254-.129L.09 2.907h-.218v-.433L1.728-.129h.526" class="Z CL"/><path d="M2.78-.129L.616 2.907H.09L2.254-.129h.526" class="Z CM"/><path d="M2.887.461L1.142 2.907H.616L2.78-.129h.106v.589" class="Z CN"/><path d="M2.887 1.199L1.669 2.907h-.526L2.887.461v.738" class="Z CO"/><path d="M2.887 1.937l-.692.97h-.526l1.218-1.709v.738" class="Z CP"/><path d="M2.887 2.675l-.165.232h-.526l.692-.97v.738" class="Z CQ"/><path d="M2.721 2.907l.165-.232v.232h-.165" class="Z CR"/></g><g transform="translate(44.044 29.41)"><mask id="t" class="O"><use href="#R"/></mask><path d="M.151-.129l-.278.391v-.391h.278" class="W Ac"/><path d="M.451-.129l-.579.812V.262l.278-.391h.3" class="W BU"/><path d="M.751-.129l-.879 1.233V.684l.579-.812h.3" class="W AY"/><path d="M1.051-.129L-.127 1.525v-.421L.751-.129h.3" class="W AZ"/><path d="M1.351-.129L-.127 1.946v-.421L1.051-.129h.3" class="W Aa"/><path d="M1.651-.129L-.127 2.367v-.421L1.351-.129h.3" class="W Ab"/><path d="M1.951-.129L-.127 2.788v-.421L1.651-.129h.3" class="W BK"/><path d="M2.251-.129L.088 2.907h-.215v-.119L1.951-.129h.3" class="W BL"/><path d="M2.551-.129L.387 2.907h-.3L2.251-.129h.3" class="W Br"/><path d="M2.852-.129L.688 2.907h-.3L2.551-.129h.3" class="W Bs"/><path d="M2.886.244L.988 2.907h-.3L2.852-.129h.035v.372" class="W Bt"/><path d="M2.886.665L1.288 2.907h-.3L2.886.244v.421" class="W Bu"/><path d="M2.886 1.086L1.588 2.907h-.3L2.886.665v.421" class="W Bv"/><path d="M2.886 1.507l-.998 1.401h-.3l1.299-1.822v.421" class="W Bw"/><g class="Bx W"><path d="M2.886 1.928l-.698.98h-.3l.998-1.401v.421"/><path d="M2.188 2.907l.698-.98v.98h-.698"/></g></g><g transform="translate(42.082 22.644)"><mask id="u" class="O"><use href="#S"/></mask><path d="M.081-.194l-.26.365v-.365h.26" class="N AE"/><path d="M.381-.194l-.561.786V.171l.26-.365h.3" class="N Ay"/><path d="M.681-.194l-.861 1.207V.592l.561-.786h.3" class="N By"/><path d="M.982-.194L-.179 1.434v-.421L.681-.194h.3" class="N Bz"/><path d="M1.281-.194L-.179 1.855v-.421L.982-.194h.3" class="N CA"/><path d="M1.581-.194l-1.761 2.47v-.421L1.281-.194h.3" class="N CB"/><path d="M1.882-.194L-.179 2.697v-.421l1.761-2.47h.3" class="N CC"/><path d="M2.181-.194L-.179 3.118v-.421L1.882-.194h.3" class="N BX"/><path d="M2.482-.194L-.179 3.539v-.421L2.181-.194h.3" class="N BY"/><path d="M2.782-.194L-.179 3.96v-.421L2.482-.194h.3" class="N BZ"/><path d="M3.082-.194L-.107 4.28h-.072v-.32L2.782-.194h.3" class="N Ba"/><g class="Bb N"><path d="M3.382-.194L.192 4.28h-.3L3.082-.194h.3"/><path d="M3.682-.194L.493 4.28h-.3L3.382-.194h.3"/></g><path d="M3.982-.194L.793 4.28h-.3L3.682-.194h.3" class="N Bc"/><path d="M4.282-.194L1.093 4.28h-.3L3.982-.194h.3" class="N Bd"/><path d="M4.582-.194L1.393 4.28h-.3L4.282-.194h.3" class="N BM"/><path d="M4.882-.194L1.693 4.28h-.3L4.582-.194h.3" class="N BN"/><path d="M5.182-.194L1.993 4.28h-.3L4.882-.194h.3" class="N BO"/><path d="M5.482-.194L2.293 4.28h-.3L5.182-.194h.3" class="N BP"/><path d="M5.613-.194l.057.041v.118L2.593 4.28h-.3L5.482-.194h.13" class="N BQ"/><path d="M5.669.386L2.893 4.28h-.3L5.669-.035v.421" class="N BR"/><path d="M5.669.807L3.193 4.28h-.3L5.669.386v.421" class="N BS"/><path d="M5.669 1.228L3.493 4.28h-.3L5.669.807v.421" class="N BT"/><path d="M5.669 1.649L3.794 4.28h-.3l2.176-3.052v.421" class="N Ac"/><path d="M5.669 2.07L4.093 4.28h-.3l1.876-2.631v.421" class="N BU"/><path d="M5.669 2.491L4.393 4.28h-.3l1.576-2.21v.421" class="N AY"/><path d="M5.669 2.912L4.694 4.28h-.3l1.276-1.79v.421" class="N AZ"/><path d="M5.669 3.333l-.676.947h-.3l.976-1.368v.421" class="N Aa"/><path d="M5.669 3.754l-.375.526h-.3l.676-.947v.421" class="N Ab"/><path d="M5.669 4.175l-.075.105h-.3l.375-.526v.421" class="N BK"/><path d="M5.594 4.28l.075-.105v.105h-.075" class="N BL"/></g><g transform="translate(47.885 13.424)"><mask id="v" class="O"><use href="#T"/></mask><g class="Aw M"><path d="M-.106-.117l-.08.112v-.112h.08"/><path d="M.195-.117l-.381.533v-.421l.08-.112h.3"/></g><path d="M.495-.117l-.68.954V.416l.381-.533h.3" class="M Ax"/><path d="M.795-.117l-.981 1.375V.838l.68-.954h.3" class="M AE"/><path d="M1.095-.117L-.186 1.679v-.421L.795-.117h.3" class="M Ay"/><path d="M1.395-.117L-.186 2.1v-.421L1.095-.117h.3" class="M By"/><path d="M1.695-.117L-.186 2.521V2.1L1.395-.117h.3" class="M Bz"/><path d="M1.995-.117L-.186 2.942v-.421L1.695-.117h.3" class="M CA"/><path d="M2.295-.117l-2.481 3.48v-.421L1.995-.117h.3" class="M CB"/><path d="M2.595-.117L-.186 3.784v-.421l2.481-3.48h.3" class="M CC"/><path d="M2.895-.117L-.186 4.205v-.421L2.595-.117h.3" class="M BX"/><path d="M3.195-.117L-.186 4.626v-.421L2.895-.117h.3" class="M BY"/><path d="M3.456-.063L-.186 5.047v-.421L3.195-.117h.261v.054" class="M BZ"/><path d="M3.456.358l-3.642 5.11v-.421L3.456-.063v.421" class="M Ba"/><g class="Bb M"><path d="M3.456.779l-3.642 5.11v-.421L3.456.358v.421"/><path d="M3.456 1.2L-.186 6.31v-.421L3.456.779V1.2"/></g><path d="M3.456 1.621l-3.642 5.11V6.31L3.456 1.2v.421" class="M Bc"/><path d="M3.456 2.042l-3.642 5.11v-.421l3.642-5.11v.421" class="M Bd"/><path d="M3.456 2.463L-.186 7.573v-.421l3.642-5.11v.421" class="M BM"/><path d="M3.456 2.884L-.039 7.788h-.147v-.215l3.642-5.109v.421" class="M BN"/><path d="M3.456 3.305L.261 7.788h-.3l3.495-4.904v.421" class="M BO"/><path d="M3.456 3.726L.561 7.788h-.3l3.195-4.482v.421" class="M BP"/><path d="M3.456 4.147L.862 7.788h-.3l2.895-4.062v.421" class="M BQ"/><path d="M3.456 4.568L1.162 7.788h-.3l2.595-3.641v.421" class="M BR"/><path d="M3.456 4.989L1.461 7.788h-.3l2.295-3.219v.421" class="M BS"/><path d="M3.456 5.41L1.762 7.788h-.3l1.995-2.799v.421" class="M BT"/><path d="M3.456 5.831L2.062 7.788h-.3L3.456 5.41v.421" class="M Ac"/><path d="M3.456 6.252L2.362 7.788h-.3l1.395-1.956v.421" class="M BU"/><path d="M3.456 6.673l-.795 1.115h-.3l1.095-1.536v.421" class="M AY"/><path d="M3.456 7.094l-.494.694h-.3l.795-1.115v.421" class="M AZ"/><path d="M3.456 7.515l-.194.273h-.3l.494-.694v.421" class="M Aa"/><path d="M3.262 7.788l.194-.273v.273h-.194" class="M Ab"/></g><g transform="translate(41.338 5.967)"><mask id="w" class="O"><use href="#U"/></mask><path d="M.077-.15l-.226.317V-.15h.226" class="J AP"/><g class="AQ J"><path d="M.377-.15l-.526.738V.167L.077-.15h.3"/><path d="M.677-.15l-.826 1.158V.588L.377-.15h.3"/></g><path d="M.977-.15L-.148 1.43v-.421L.677-.15h.3" class="J AR"/><path d="M1.277-.15L-.148 1.851V1.43L.977-.15h.3" class="J AS"/><g class="AT J"><path d="M1.577-.15L-.148 2.272v-.421L1.277-.15h.3"/><path d="M1.877-.15L-.148 2.693v-.421L1.577-.15h.3"/></g><path d="M2.178-.15L-.148 3.114v-.421L1.877-.15h.3" class="J Be"/><path d="M2.477-.15L.042 3.268l-.19-.137v-.017L2.178-.15h.3" class="J BE"/><path d="M2.778-.15L.24 3.411.042 3.268 2.477-.15h.3" class="J Bq"/><path d="M3.078-.15L.437 3.554.24 3.411 2.778-.15h.3" class="J Ad"/><path d="M3.378-.15L.636 3.697.437 3.554 3.078-.15h.3" class="J Ae"/><path d="M3.678-.15L.833 3.841.636 3.697 3.378-.15h.3" class="J Af"/><path d="M3.978-.15L1.032 3.984.833 3.841 3.678-.15h.3" class="J Ag"/><path d="M4.005-.15l.18.131L1.23 4.127l-.198-.143L3.978-.15h.026" class="J Ah"/><path d="M4.185-.019l.198.143L1.428 4.27l-.198-.143L4.185-.019" class="J Ai"/><path d="M4.383.124l.198.143-2.955 4.146-.198-.143L4.383.124" class="J Aj"/><path d="M4.581.267l.198.143-2.955 4.146-.198-.143L4.581.267" class="J Ak"/><path d="M4.779.41l.198.143L2.021 4.7l-.198-.143L4.779.41" class="J Al"/><path d="M4.977.553l.198.144L2.22 4.843 2.021 4.7 4.977.553" class="J Am"/><path d="M5.175.697l.198.143-2.955 4.146-.198-.143L5.175.697" class="J An"/><g class="Ao J"><path d="M5.373.84l.198.143-2.955 4.146-.198-.143L5.373.84"/><path d="M5.571.983l.198.143-2.945 4.132h-.029l-.179-.13L5.571.983"/></g><path d="M5.769 1.126l.198.143-2.844 3.989h-.3l2.945-4.132" class="J Ap"/><path d="M5.967 1.27l.198.143-2.741 3.846h-.3L5.967 1.27" class="J Aq"/><path d="M6.165 1.413l.198.143-2.64 3.703h-.3l2.741-3.846" class="J Ar"/><path d="M6.363 1.556l.198.143-2.537 3.56h-.3l2.64-3.703" class="J BV"/><path d="M6.561 1.699l.198.143-2.436 3.417h-.3l2.537-3.56" class="J As"/><path d="M6.759 1.842l.198.143-2.333 3.273h-.3l2.436-3.417" class="J At"/><path d="M6.957 1.986l.198.143-2.231 3.13h-.3l2.333-3.273" class="J x"/><path d="M7.155 2.129l.118.085v.171L5.224 5.259h-.3l2.231-3.13" class="J Au"/><path d="M7.273 2.805L5.524 5.259h-.3l2.049-2.875v.421" class="J Av"/><path d="M7.273 3.226L5.824 5.259h-.3l1.749-2.454v.421" class="J y"/><path d="M7.273 3.647L6.124 5.259h-.3l1.449-2.033v.421" class="J z"/><path d="M7.273 4.068l-.849 1.191h-.3l1.149-1.612v.421" class="J AA"/><path d="M7.273 4.489l-.549.769h-.3l.849-1.191v.421" class="J AB"/><path d="M7.273 4.91l-.249.349h-.3l.549-.769v.421" class="J AC"/><path d="M7.024 5.259l.249-.349v.349h-.249" class="J AD"/></g><g transform="translate(31.833 6.251)"><mask id="x" class="O"><use href="#V"/></mask><path d="M.103-.186l-.255.358v-.358h.255" class="K k"/><path d="M.404-.186l-.555.778V.172l.255-.358h.3" class="K l"/><path d="M.703-.186l-.855 1.199V.593l.555-.778h.3" class="K m"/><path d="M1.003-.186L-.152 1.435v-.421L.703-.186h.3" class="K n"/><path d="M1.304-.186L-.152 1.856v-.421L1.003-.186h.3" class="K o"/><path d="M1.604-.186L-.152 2.277v-.421L1.304-.186h.3" class="K p"/><path d="M1.904-.186L-.152 2.698v-.421L1.604-.186h.3" class="K d"/><g class="e K"><path d="M2.204-.186L-.152 3.119v-.421L1.904-.186h.3"/><path d="M2.504-.186L-.152 3.54v-.421L2.204-.186h.3"/></g><path d="M2.804-.186L-.152 3.961V3.54L2.504-.186h.3" class="K q"/><path d="M3.104-.186L-.152 4.382v-.421L2.804-.186h.3" class="K r"/><path d="M3.404-.186L-.152 4.803v-.421L3.104-.186h.3" class="K f"/><path d="M3.704-.186L-.152 5.224v-.421L3.404-.186h.3" class="K g"/><path d="M4.004-.186L-.029 5.472h-.123v-.248L3.704-.186h.3" class="K h"/><path d="M4.304-.186L.272 5.472h-.3L4.004-.186h.3" class="K i"/><g class="j K"><path d="M4.604-.186L.572 5.472h-.3L4.304-.186h.3"/><path d="M4.904-.186L.872 5.472h-.3L4.604-.186h.3"/></g><path d="M5.204-.186L1.172 5.472h-.3L4.904-.186h.3" class="K s"/><path d="M5.505-.186L1.472 5.472h-.3L5.204-.186h.3" class="K t"/><path d="M5.804-.186L1.772 5.472h-.3L5.505-.186h.3" class="K u"/><path d="M6.105-.186L2.072 5.472h-.3L5.804-.186h.3" class="K v"/><g class="AM K"><path d="M6.405-.186L2.372 5.472h-.3L6.105-.186h.3"/><path d="M6.705-.186L2.672 5.472h-.3L6.405-.186h.3"/></g><path d="M7.005-.186L2.972 5.472h-.3L6.705-.186h.3" class="K AN"/><path d="M7.048.175L3.272 5.472h-.3L7.005-.186h.043v.361" class="K AO"/><path d="M7.048.596L3.572 5.472h-.3L7.048.175v.421" class="K Az"/><path d="M7.048 1.017L3.872 5.472h-.3L7.048.596v.421" class="K BA"/><g class="BB K"><path d="M7.048 1.438L4.172 5.472h-.3l3.175-4.455v.421"/><path d="M7.048 1.859L4.473 5.472h-.3l2.875-4.034v.421"/></g><path d="M7.048 2.28L4.773 5.472h-.3l2.575-3.613v.421" class="K BC"/><path d="M7.048 2.701L5.073 5.472h-.3L7.048 2.28v.421" class="K BD"/><path d="M7.048 3.122l-1.675 2.35h-.3l1.975-2.771v.421" class="K AP"/><g class="AQ K"><path d="M7.048 3.543L5.673 5.472h-.3l1.675-2.35v.421"/><path d="M7.048 3.964L5.973 5.472h-.299l1.374-1.929v.421"/></g><path d="M7.048 4.385l-.775 1.087h-.3l1.075-1.508v.421" class="K AR"/><path d="M7.048 4.806l-.475.666h-.3l.775-1.087v.421" class="K AS"/><g class="AT K"><path d="M7.048 5.227l-.175.245h-.3l.475-.666v.421"/><path d="M6.873 5.472l.175-.245v.245h-.175"/></g></g><g transform="translate(24.532 13.34)"><mask id="y" class="O"><use href="#W"/></mask><path d="M-.038-.2L-.19.012V-.2h.152" class="G AF"/><path d="M.262-.2L-.19.433V.012L-.038-.2h.3" class="G AG"/><path d="M.562-.2L-.19.854V.433L.262-.2h.3" class="G AH"/><path d="M.863-.2L-.19 1.275V.854L.562-.2h.3" class="G AI"/><path d="M1.163-.2L-.19 1.696v-.421L.863-.2h.3" class="G AJ"/><path d="M1.462-.2L-.19 2.117v-.421L1.163-.2h.3" class="G AK"/><path d="M1.763-.2L-.19 2.538v-.421L1.462-.2h.3" class="G AL"/><g class="k G"><path d="M2.063-.2L-.19 2.959v-.421L1.763-.2h.3"/><path d="M2.363-.2L-.19 3.38v-.421L2.063-.2h.3"/></g><path d="M2.663-.2L-.19 3.801V3.38L2.363-.2h.3" class="G l"/><path d="M2.963-.2L-.19 4.222v-.421L2.663-.2h.3" class="G m"/><path d="M3.263-.2L-.19 4.643v-.421L2.963-.2h.3" class="G n"/><path d="M3.563-.2L-.19 5.064v-.421L3.263-.2h.3" class="G o"/><path d="M3.863-.2L-.19 5.485v-.421L3.563-.2h.3" class="G p"/><path d="M4.163-.2L-.19 5.906v-.421L3.863-.2h.3" class="G d"/><g class="e G"><path d="M4.463-.2L-.19 6.327v-.421L4.163-.2h.3"/><path d="M4.763-.2L-.19 6.748v-.421L4.463-.2h.3"/></g><path d="M5.064-.2L-.19 7.169v-.421L4.763-.2h.3" class="G q"/><path d="M5.363-.2L-.19 7.59v-.421L5.064-.2h.3" class="G r"/><path d="M5.663-.2L-.19 8.011V7.59L5.363-.2h.3" class="G f"/><path d="M5.964-.2L-.135 8.355-.19 8.316v-.305L5.663-.2h.3" class="G g"/><path d="M6.264-.2L.155 8.369h-.272l-.019-.014L5.964-.2h.3" class="G h"/><path d="M6.452-.2l.073.053L.455 8.369h-.3L6.264-.2h.189" class="G i"/><g class="j G"><path d="M6.526-.147l.198.143L.756 8.369h-.3L6.526-.147"/><path d="M6.724-.004l.066.047v.282L1.056 8.369h-.3L6.724-.004"/></g><path d="M6.789.746L1.356 8.369h-.3L6.789.325v.421" class="G s"/><path d="M6.789 1.167L1.656 8.369h-.3L6.789.746v.421" class="G t"/><path d="M6.789 1.588L1.956 8.369h-.3l5.134-7.202v.421" class="G u"/><path d="M6.789 2.009l-4.534 6.36h-.3l4.833-6.782v.421" class="G v"/><g class="AM G"><path d="M6.789 2.43L2.556 8.369h-.3l4.534-6.36v.421"/><path d="M6.789 2.851L2.856 8.369h-.3L6.789 2.43v.421"/></g><path d="M6.789 3.272L3.156 8.369h-.3l3.933-5.518v.421" class="G AN"/><path d="M6.789 3.693L3.456 8.369h-.3l3.633-5.097v.421" class="G AO"/><path d="M6.789 4.114L3.756 8.369h-.3l3.333-4.676v.421" class="G Az"/><path d="M6.789 4.535L4.056 8.369h-.3l3.033-4.256v.421" class="G BA"/><g class="BB G"><path d="M6.789 4.955L4.356 8.369h-.3l2.733-3.834v.421"/><path d="M6.789 5.377L4.656 8.369h-.3l2.433-3.414v.421"/></g><path d="M6.789 5.798L4.957 8.369h-.3l2.133-2.993v.421" class="G BC"/><path d="M6.789 6.219l-1.533 2.15h-.3l1.833-2.571v.421" class="G BD"/><path d="M6.789 6.64l-1.233 1.73h-.3l1.533-2.15v.421" class="G AP"/><g class="AQ G"><path d="M6.789 7.061l-.933 1.308h-.3l1.233-1.73v.421"/><path d="M6.789 7.481l-.633.888h-.3l.933-1.308v.421"/></g><path d="M6.789 7.903l-.333.467h-.3l.633-.888v.421" class="G AR"/><path d="M6.789 8.324l-.033.045h-.3l.333-.467v.421" class="G AS"/><path d="M6.757 8.369l.033-.045v.045h-.033" class="G AT"/></g><g transform="translate(14.258 22.64)"><mask id="z" class="O"><use href="#X"/></mask><path d="M.152-.198l-.201.282v-.282h.201" class="H AU"/><path d="M.678-.198L-.049.822V.084l.201-.282h.526" class="H AV"/><g class="BI H"><path d="M1.205-.198L-.049 1.56V.822l.728-1.02h.526"/><path d="M1.505-.198l-1.554 2.18V1.56L1.205-.198h.3"/></g><path d="M1.805-.198l-1.854 2.6v-.421l1.554-2.18h.3" class="H BJ"/><path d="M2.105-.198L-.049 2.823v-.421l1.854-2.6h.3" class="H Bi"/><path d="M2.405-.198L-.049 3.244v-.421L2.105-.198h.3" class="H Bj"/><path d="M2.705-.198L-.049 3.665v-.421L2.405-.198h.3" class="H Bk"/><path d="M3.005-.198L-.049 4.086v-.421L2.705-.198h.3" class="H Bl"/><g class="AF H"><path d="M3.305-.198L-.049 4.507v-.421L3.005-.198h.3"/><path d="M3.605-.198L.063 4.771h-.112v-.263L3.305-.198h.3"/></g><path d="M3.905-.198L.363 4.771h-.3L3.605-.198h.3" class="H AG"/><path d="M4.205-.198L.663 4.771h-.3L3.905-.198h.3" class="H AH"/><path d="M4.506-.198L.964 4.771h-.3L4.205-.198h.3" class="H AI"/><path d="M4.805-.198L1.263 4.771h-.3L4.506-.198h.3" class="H AJ"/><path d="M5.105-.198L1.564 4.771h-.3L4.805-.198h.3" class="H AK"/><path d="M5.406-.198L1.864 4.771h-.3L5.105-.198h.3" class="H AL"/><g class="k H"><path d="M5.706-.198L2.164 4.771h-.3L5.406-.198h.3"/><path d="M6.005-.198L2.464 4.771h-.3L5.706-.198h.3"/></g><path d="M6.306-.198L2.764 4.771h-.3L6.005-.198h.3" class="H l"/><path d="M6.606-.198L3.064 4.771h-.3L6.306-.198h.3" class="H m"/><path d="M6.906-.198L3.364 4.771h-.3L6.606-.198h.3" class="H n"/><path d="M7.206-.198L3.664 4.771h-.3L6.906-.198h.3" class="H o"/><path d="M7.506-.198L3.964 4.771h-.3L7.206-.198h.3" class="H p"/><path d="M7.806-.198L4.264 4.771h-.3L7.506-.198h.3" class="H d"/><g class="e H"><path d="M8.106-.198L4.564 4.771h-.3L7.806-.198h.3"/><path d="M8.406-.198L4.864 4.771h-.3L8.106-.198h.3"/></g><path d="M8.706-.198L5.164 4.771h-.3L8.406-.198h.3" class="H q"/><path d="M9.006-.198L5.464 4.771h-.3L8.706-.198h.3" class="H r"/><path d="M9.306-.198L5.764 4.771h-.3L9.006-.198h.3" class="H f"/><path d="M9.519-.198l.052.037v.013L6.065 4.771h-.3L9.306-.198h.213" class="H g"/><path d="M9.571.273L6.364 4.771h-.3L9.571-.148v.421" class="H h"/><path d="M9.571.694L6.665 4.771h-.3L9.571.273v.421" class="H i"/><g class="j H"><path d="M9.571 1.115L6.965 4.771h-.3L9.571.694v.421"/><path d="M9.571 1.536L7.265 4.771h-.3l2.606-3.656v.421"/></g><path d="M9.571 1.957L7.565 4.771h-.3l2.306-3.235v.421" class="H s"/><path d="M9.571 2.378L7.865 4.771h-.3l2.006-2.814v.421" class="H t"/><path d="M9.571 2.799L8.165 4.771h-.3l1.706-2.393v.421" class="H u"/><path d="M9.571 3.22L8.465 4.771h-.3l1.406-1.972v.421" class="H v"/><g class="AM H"><path d="M9.571 3.641l-.805 1.13h-.3L9.571 3.22v.421"/><path d="M9.571 4.062l-.506.709h-.3l.805-1.13v.421"/></g><path d="M9.571 4.483l-.206.288h-.3l.506-.709v.421" class="H AN"/><path d="M9.365 4.771l.206-.288v.288h-.206" class="H AO"/></g><g transform="translate(6.206 18.658)"><mask id="AA" class="O"><use href="#Y"/></mask><path d="M-.007-.199l-.189.265v-.265h.189" class="S CP"/><path d="M.519-.199L-.196.804V.066l.189-.265h.526" class="S CQ"/><path d="M1.045-.199L-.196 1.543V.804L.519-.199h.526" class="S CR"/><path fill="#399c85" d="M1.572-.199l-1.767 2.48v-.738L1.045-.199h.526" class="S"/><path d="M2.098-.199L-.196 3.019v-.738l1.767-2.48h.526" class="S CS"/><path d="M2.624-.199l-2.82 3.956v-.738L2.098-.199h.526" class="S CT"/><path d="M3.079-.199l.047.034-3.322 4.66v-.738l2.82-3.956h.454" class="S CU"/><path d="M3.126-.165l.347.251L.093 4.829l-.288-.208v-.125l3.322-4.66" class="S CV"/><path d="M3.473.086l.347.251L.44 5.081.093 4.829 3.473.086" class="S CW"/><path d="M3.821.337l.347.251L.787 5.332.44 5.081 3.821.337" class="S CX"/><path d="M4.168.589l.347.251-3.381 4.743-.347-.251L4.168.589" class="S Bm"/><path fill="#3ca68d" d="M4.515.84l.347.251-3.381 4.743-.347-.251L4.515.84" class="S"/><path fill="#3da78d" d="M4.862 1.091l.347.251-3.381 4.743-.347-.251 3.381-4.743" class="S"/><path fill="#3ea88e" d="M5.21 1.341l.347.251-3.381 4.743-.347-.251L5.21 1.341" class="S"/><path d="M5.557 1.593l.347.251-3.38 4.743-.347-.251 3.381-4.743" class="S CD"/><path d="M5.904 1.844l.248.179v.211L2.87 6.838l-.347-.251 3.38-4.743" class="S Bf"/><path d="M6.152 2.973l-2.794 3.92h-.413l-.075-.055 3.281-4.603v.738" class="S Bg"/><path d="M6.152 3.711L3.884 6.893h-.526l2.794-3.92v.738" class="S Bh"/><path d="M6.152 4.449L4.41 6.893h-.526l2.268-3.182v.738" class="S BF"/><path d="M6.152 5.188L4.936 6.893H4.41l1.741-2.444v.738" class="S BG"/><path d="M6.152 5.926l-.689.967h-.526l1.215-1.705v.738" class="S BH"/><path d="M6.152 6.664l-.163.228h-.526l.689-.967v.738" class="S AU"/><path d="M5.989 6.893l.163-.228v.228h-.163" class="S AV"/></g><g transform="translate(11.17 1.438)"><mask id="AB" class="O"><use href="#Z"/></mask><path d="M.321 0L0 .45V0h.321" class="AW Bn"/><path d="M.847 0L0 1.188V.45L.321 0h.526" class="AW Bo"/><path d="M1.373 0L.145 1.724H0v-.536L.847 0h.526" class="AW CF"/><path d="M1.712.263L.67 1.724H.145L1.373 0h.338v.263" class="AW CG"/><path d="M1.712 1.002l-.515.722H.67L1.712.263v.738" class="AW CH"/><path d="M1.197 1.724l.515-.722v.722h-.515" class="AW Bp"/></g><g transform="translate(39.626 19.449)"><mask id="AC" class="O"><use href="#a"/></mask><path d="M.175 0L0 .245V0h.175" class="a As"/><path d="M.475 0L0 .666V.245L.175 0h.3" class="a At"/><path d="M.775 0L0 1.087V.666L.475 0h.3" class="a x"/><path d="M1.075 0L0 1.508v-.421L.775 0h.3" class="a Au"/><path d="M1.375 0L.146 1.724H0v-.216L1.075 0h.3" class="a Av"/><path d="M1.675 0L.446 1.724h-.3L1.375 0h.3" class="a y"/><path d="M1.712.37L.746 1.724h-.3L1.675 0h.036v.37" class="a z"/><path d="M1.712.791l-.665.933h-.3L1.712.37v.421" class="a AA"/><path d="M1.712 1.212l-.365.512h-.3l.665-.933v.421" class="a AB"/><path d="M1.712 1.633l-.065.091h-.3l.365-.512v.421" class="a AC"/><path d="M1.647 1.724l.065-.091v.091h-.065" class="a AD"/></g><g transform="translate(33.873 29.651)"><mask id="AD" class="O"><use href="#a"/></mask><path d="M.156 0L0 .218V0h.156" class="b y"/><path d="M.456 0L0 .64V.218L.156 0h.3" class="b z"/><path d="M.756 0L0 1.061V.64L.456 0h.3" class="b AA"/><path d="M1.056 0L0 1.481v-.421L.756 0h.3" class="b AB"/><path d="M1.356 0L.127 1.724H0v-.243L1.056 0h.3" class="b AC"/><path d="M1.656 0L.427 1.724h-.3L1.356 0h.3" class="b AD"/><path d="M1.712.343L.728 1.724h-.3L1.656 0h.056v.343" class="b BW"/><g class="Aw b"><path d="M1.712.764l-.684.96h-.3L1.712.343v.421"/><path d="M1.712 1.185l-.384.539h-.3l.684-.96v.421"/></g><path d="M1.712 1.606l-.084.118h-.3l.384-.539v.421" class="b Ax"/><path d="M1.628 1.724l.084-.118v.118h-.084" class="b AE"/></g><g transform="translate(11.203 13.863)"><mask id="AE" class="O"><use href="#b"/></mask><path d="M.377 0L0 .528V0h.377" class="w CS"/><path d="M.903 0L0 1.267V.528L.377 0h.526" class="w CT"/><path d="M1.429 0L.061 1.919H0v-.652L.903 0h.526" class="w CU"/><path d="M1.906.07L.587 1.919H.061L1.429 0h.477v.07" class="w CV"/><path d="M1.906.808l-.792 1.111H.587L1.906.07v.738" class="w CW"/><path d="M1.906 1.546l-.266.373h-.526L1.906.808v.738" class="w CX"/><path d="M1.64 1.919l.266-.373v.373H1.64" class="w Bm"/></g><g transform="translate(9.311 8.996)"><mask id="AF" class="O"><use href="#Z"/></mask><path d="M.475 0L0 .667V0h.475" class="AX CJ"/><path d="M1.002 0L0 1.405V.667L.475 0h.526" class="AX CK"/><path d="M1.528 0L.299 1.724H0v-.319L1.002 0h.526" class="AX CL"/><path d="M1.712.48L.825 1.724H.299L1.528 0h.184v.48" class="AX CM"/><path d="M1.712 1.218l-.36.506H.825L1.712.48v.738" class="AX CN"/><path d="M1.351 1.724l.36-.506v.506h-.36" class="AX CO"/></g></g></svg>