<svg xmlns="http://www.w3.org/2000/svg" width="373.8" height="364.6">
  <rect width="373.8" height="364.6" fill="#140323" />
  <g transform="matrix(1.273181 0 0 1.273181 -85.836118 -189.71375)">
    <circle cx="214.363" cy="292.289" r="84.06" fill="#fff" />
    <path d="M250.923 317.089l-93.08 37.38c-32.06-28.821-37.098-77.232-11.659-112.037s73.095-44.701 110.289-22.903l-84.59 33.33a29.83 29.83 0 0 0-16.67 16.35c-6.513 15.633.573 33.613 16 40.6a29.8 29.8 0 0 0 23.34.61l46.53-18.34c6.59-2.6 14.16.9 16.87 7.79s-.45 14.62-7.03 17.22zm47.51-24.79a84 84 0 0 1-123.48 74.23l82.35-33.14h0c15.58-6.15 23.15-24.05 16.9-39.9s-24-23.79-39.58-17.68l-46.48 18.34a12.44 12.44 0 0 1-9.62-.23c-6.839-3.023-10.037-10.934-7.22-17.86a12.48 12.48 0 0 1 7-6.85l94.52-37.24a83.8 83.8 0 0 1 25.61 60.33z" fill="#140323" fill-rule="evenodd" />
  </g>
</svg>