<?xml version="1.0" encoding="UTF-8" standalone="no"?>
<svg
   version="1.1"
   id="Layer_1"
   x="0px"
   y="0px"
   viewBox="0 0 373.79998 364.60001"
   xml:space="preserve"
   width="373.79999"
   height="364.60001"
   xmlns="http://www.w3.org/2000/svg"
   xmlns:svg="http://www.w3.org/2000/svg"
   style="background-color:#140323"><defs
   id="defs13" />&#10;<style
   type="text/css"
   id="style1">&#10;	.st0{fill:#F9383D;}&#10;	.st1{fill:#FFFFFF;}&#10;	.st2{fill-rule:evenodd;clip-rule:evenodd;fill:#FFFFFF;}&#10;</style>&#10;&#10;&#10;&#10;&#10;&#10;&#10;&#10;&#10;&#10;&#10;&#10;&#10;&#10;<g
   id="g5"
   transform="matrix(1.2731807,0,0,1.2731807,-85.836118,-189.71375)"><circle
     class="cls-1"
     cx="214.36264"
     cy="292.28879"
     r="84.059998"
     id="circle16"
     style="fill:#ffffff" /><g
     id="shape"
     transform="translate(130.30264,208.2088)"
     style="fill:#140323;fill-opacity:1"><path
       class="cls-2"
       d="M 120.62,108.88 27.54,146.26 A 84,84 0 0 1 126.17,11.32 L 41.58,44.65 A 29.83,29.83 0 0 0 24.91,61 a 31.34,31.34 0 0 0 16,40.6 29.8,29.8 0 0 0 23.34,0.61 l 46.53,-18.34 c 6.59,-2.6 14.16,0.9 16.87,7.79 2.71,6.89 -0.45,14.62 -7.03,17.22 z"
       id="path16"
       style="fill:#140323;fill-opacity:1;fill-rule:evenodd" /><path
       class="cls-3"
       d="M 168.13,84.09 A 84,84 0 0 1 44.65,158.32 L 127,125.18 v 0 c 15.58,-6.15 23.15,-24.05 16.9,-39.9 -6.25,-15.85 -24,-23.79 -39.58,-17.68 L 57.84,85.94 A 12.44,12.44 0 0 1 48.22,85.71 13.83,13.83 0 0 1 41,67.85 12.48,12.48 0 0 1 48,61 l 94.52,-37.24 a 83.8,83.8 0 0 1 25.61,60.33 z"
       id="path17"
       style="fill:#140323;fill-opacity:1;fill-rule:evenodd" /></g></g></svg>
