<svg xmlns="http://www.w3.org/2000/svg" width="373.8" height="364.6" style="background-color:#ffffff"><path fill="#ee1c2e" d="M111.529 75.102h157.173v34.076C257.27 99.949 233.695 96.4 208.69 96.4v92.999c0 13.488 1.429 17.748 6.43 24.847H165.11c5.001-7.099 6.43-10.649 6.43-24.847V95.69c-25.005 0-48.581 3.55-60.011 12.779z"/><path fill="#00539f" d="M163.681 251.162h95.018 0v.71h0c-10.716 4.969-25.719 19.878-25.719 19.878-11.431 10.649-19.289 17.748-37.15 17.748h-90.017s-.714 0-.714-.71h0v-.71c10.002-5.679 25.005-20.588 25.005-20.588 6.43-7.099 18.575-16.328 33.578-16.328"/></svg>
