<?xml version="1.0" encoding="UTF-8" standalone="no"?>
<svg
   version="1.1"
   id="Layer_1"
   x="0px"
   y="0px"
   viewBox="0 0 373.79998 364.60001"
   xml:space="preserve"
   width="373.79999"
   height="364.60001"
   xmlns="http://www.w3.org/2000/svg"
   xmlns:svg="http://www.w3.org/2000/svg"
   style="background-color:#ffffff"><defs
   id="defs13" />&#10;<style
   type="text/css"
   id="style1">&#10;	.st0{fill:#F9383D;}&#10;	.st1{fill:#FFFFFF;}&#10;	.st2{fill-rule:evenodd;clip-rule:evenodd;fill:#FFFFFF;}&#10;</style>&#10;&#10;&#10;&#10;&#10;&#10;&#10;&#10;&#10;&#10;&#10;&#10;&#10;&#10;<g
   id="g2"
   transform="matrix(5.9479676,0,0,5.9479676,102.24115,69.42293)"><path
     id="XMLID21"
     fill="#ee1c2e"
     stroke="none"
     d="m 1.561453,0.954838 h 26.424579 v 5.72903 C 26.064247,5.132257 22.100557,4.535484 17.896648,4.535484 v 15.635485 c 0,2.26774 0.240223,2.983871 1.081006,4.17742 h -8.407821 c 0.840782,-1.193549 1.081005,-1.790322 1.081005,-4.17742 V 4.41613 c -4.203911,0 -8.167598,0.596773 -10.089385,2.148386 z" /><path
     id="XMLID1"
     fill="#00539f"
     stroke="none"
     d="m 10.32961,30.554836 h 15.974858 c 0,0 0,0 0,0 v 0 c 0,0 0,0 0,0 0,0 0,0.119358 0,0.119358 0,0 0,0 0,0 v 0 C 24.502792,31.50968 21.980446,34.016129 21.980446,34.016129 20.058661,35.80645 18.737431,37 15.734637,37 H 0.600559 c 0,0 -0.120112,0 -0.120112,-0.119354 v 0 c 0,0 0,0 0,-0.119358 0,0 0,0 0,0 1.681564,-0.954838 4.203911,-3.461285 4.203911,-3.461285 1.081005,-1.19355 3.122904,-2.745167 5.645252,-2.745167" /></g></svg>
