<?xml version="1.0" encoding="UTF-8" standalone="no"?>

<svg
   version="1.1"
   id="Layer_1"
   x="0px"
   y="0px"
   viewBox="0 0 373.79998 364.60001"
   xml:space="preserve"
   width="373.79999"
   height="364.60001"
   xmlns="http://www.w3.org/2000/svg"
   xmlns:svg="http://www.w3.org/2000/svg"
   style="background-color:#214393"><defs
   id="defs13"><clipPath
     clipPathUnits="userSpaceOnUse"
     id="clipPath7"><path
       d="M 0,0 H 420.945 V 595.276 H 0 Z"
       transform="translate(-331.17981,-111.4204)"
       id="path7" /></clipPath><clipPath
     clipPathUnits="userSpaceOnUse"
     id="clipPath9"><path
       d="M 0,0 H 420.945 V 595.276 H 0 Z"
       transform="translate(-347.54661,-134.5855)"
       id="path9" /></clipPath><clipPath
     clipPathUnits="userSpaceOnUse"
     id="clipPath11"><path
       d="M 0,0 H 420.945 V 595.276 H 0 Z"
       transform="translate(-358.87141,-135.43141)"
       id="path11" /></clipPath></defs>&#10;<style
   type="text/css"
   id="style1">&#10;	.st0{fill:#F9383D;}&#10;	.st1{fill:#FFFFFF;}&#10;	.st2{fill-rule:evenodd;clip-rule:evenodd;fill:#FFFFFF;}&#10;</style>&#10;&#10;&#10;&#10;&#10;&#10;&#10;&#10;&#10;&#10;&#10;&#10;&#10;&#10;<g
   id="g122"
   transform="matrix(3.1054632,0,0,3.1054632,-1235.8953,-1758.4905)"><path
     id="path6"
     d="M 0,0 H -2.367 C -4.506,0 -5.521,1.242 -5.521,3.325 V 18.769 H 0 v 4.396 h -5.521 v 10.568 l -5.746,-7.771 v -2.797 h -3.269 v -4.396 h 3.269 V 3.043 c 0,-4.113 2.477,-7.945 7.83,-7.945 H 0 Z"
     fill="#ffffff"
     style="stroke:none"
     transform="matrix(1.3333333,0,0,-1.3333333,441.57307,645.1408)"
     clip-path="url(#clipPath7)" /><path
     id="path8"
     d="m 0,0 h -5.691 v 4.112 c 0,2.089 1.014,3.327 3.154,3.327 H 0 v 4.905 h -3.605 c -5.354,0 -7.832,-3.834 -7.832,-7.947 V 0 h -3.268 v -4.396 h 3.268 v -23.91 l 5.746,7.776 V -4.396 H 0 Z"
     fill="#ffffff"
     style="stroke:none"
     transform="matrix(1.3333333,0,0,-1.3333333,463.39547,614.254)"
     clip-path="url(#clipPath9)" /><path
     id="path10"
     d="m 0,0 c -5.969,0 -10.759,-3.156 -10.759,-8.736 0,-5.017 3.098,-7.439 8.452,-7.889 l 4.561,-0.396 c 2.764,-0.225 3.833,-1.465 3.833,-3.382 0,-2.707 -2.761,-3.945 -6.254,-3.945 -2.761,0 -5.787,0.6 -8.082,2.848 l -3.183,-4.306 c 3.213,-2.764 6.922,-3.443 11.265,-3.443 6.817,0 11.89,3.095 11.89,9.071 0,5.072 -3.159,7.61 -8.51,8.059 l -4.508,0.396 c -3.042,0.283 -3.944,1.578 -3.944,3.267 0,2.145 1.749,3.667 5.186,3.667 2.602,0 5.05,-0.526 6.837,-1.928 l 3.039,4.113 C 7.252,-0.745 3.885,0 0,0"
     fill="#ffffff"
     style="nonzero;stroke:none"
     transform="matrix(1.3333333,0,0,-1.3333333,478.4952,613.12613)"
     clip-path="url(#clipPath11)" /></g></svg>
