<svg xmlns="http://www.w3.org/2000/svg" width="373.8" height="364.6">
  <rect width="373.8" height="364.6" fill="#214393" />
  <defs>
    <clipPath id="A">
      <path d="M0 0h420.945v595.276H0z" transform="translate(-331.18 -111.42)" />
    </clipPath>
    <clipPath id="B">
      <path d="M0 0h420.945v595.276H0z" transform="translate(-347.547 -134.585)" />
    </clipPath>
    <clipPath id="C">
      <path d="M0 0h420.945v595.276H0z" transform="translate(-358.871 -135.431)" />
    </clipPath>
  </defs>
  <g fill="#fff" transform="matrix(3.105463 0 0 3.105463 -1235.8953 -1758.4905)">
    <path d="M0 0h-2.367c-2.139 0-3.154 1.242-3.154 3.325v15.444H0v4.396h-5.521v10.568l-5.746-7.771v-2.797h-3.269v-4.396h3.269V3.043c0-4.113 2.477-7.945 7.83-7.945H0z" transform="matrix(1.333333 0 0 -1.333333 441.57307 645.1408)" clip-path="url(#A)" />
    <path d="M0 0h-5.691v4.112c0 2.089 1.014 3.327 3.154 3.327H0v4.905h-3.605c-5.354 0-7.832-3.834-7.832-7.947V0h-3.268v-4.396h3.268v-23.91l5.746 7.776v16.134H0z" transform="matrix(1.333333 0 0 -1.333333 463.39547 614.254)" clip-path="url(#B)" />
    <path d="M0 0c-5.969 0-10.759-3.156-10.759-8.736 0-5.017 3.098-7.439 8.452-7.889l4.561-.396c2.764-.225 3.833-1.465 3.833-3.382 0-2.707-2.761-3.945-6.254-3.945-2.761 0-5.787.6-8.082 2.848l-3.183-4.306c3.213-2.764 6.922-3.443 11.265-3.443 6.817 0 11.89 3.095 11.89 9.071 0 5.072-3.159 7.61-8.51 8.059l-4.508.396c-3.042.283-3.944 1.578-3.944 3.267 0 2.145 1.749 3.667 5.186 3.667 2.602 0 5.05-.526 6.837-1.928l3.039 4.113C7.252-.745 3.885 0 0 0" transform="matrix(1.333333 0 0 -1.333333 478.4952 613.12613)" clip-path="url(#C)" />
  </g>
</svg>