<svg xmlns="http://www.w3.org/2000/svg" width="373.8" height="364.6" style="background-color:#00937b"><path fill="#fff" d="M294.686 187.282c0-28.782-10.573-55.802-29.957-76.948-9.986-10.573-21.146-19.384-34.068-25.845l-2.937 4.699c7.049 4.112 13.51 9.398 19.384 15.272 19.971 20.559 31.132 47.578 31.719 76.36 0 4.112 0 11.16-.587 17.034-3.524-12.335-9.986-23.495-18.796-32.894-2.937-3.524-5.874-6.461-9.986-8.223-.587 8.811-2.35 17.622-4.699 26.432 3.524 2.35 6.461 5.286 9.398 8.223 7.636 7.049 12.335 17.034 12.923 27.607 0 5.286-2.35 10.573-6.461 14.097-5.874 4.699-12.923 7.049-20.559 7.049-11.16-.587-22.321-4.112-31.719-10.573 14.685-14.685 25.258-32.894 29.957-52.865 2.35-8.811 3.524-17.622 3.524-27.02 0-15.272-3.524-30.544-11.16-44.054-9.986-18.796-29.369-30.544-50.515-30.544-26.432.587-51.69 12.335-69.312 31.719-19.971 19.384-31.719 46.404-31.719 74.598 0 4.699 0 9.398.587 14.097h5.286c0-28.195 11.16-54.627 31.719-74.011 10.573-9.986 22.321-18.796 35.831-24.67-9.398 8.811-15.859 20.559-19.384 32.894-1.175 4.112-1.762 8.223-1.762 12.335 8.223-4.112 16.447-7.049 25.258-8.811 1.175-12.335 6.461-23.495 14.685-32.894 4.112-4.112 9.398-7.049 15.272-7.049 9.398.587 17.622 6.461 21.733 14.685 5.286 9.986 7.636 21.733 6.461 32.894a98.68 98.68 0 0 0-61.088 0c-17.034 4.112-32.306 12.923-44.641 25.258-12.923 12.335-20.559 28.782-21.733 46.404.587 17.622 8.223 34.068 21.146 45.816 21.146 19.971 48.753 31.719 78.122 31.132 22.908 0 44.641-7.049 63.438-19.971l-1.175-3.524c-14.685 8.223-31.132 12.335-48.166 12.335-25.845.587-50.515-7.636-71.074-22.908 5.286 1.762 11.16 2.937 17.034 2.937 11.16 0 22.321-2.35 32.306-7.049-7.636-5.286-14.685-11.16-20.559-17.622-7.636 2.937-16.447 5.286-24.67 5.286-8.223.587-15.859-2.35-21.733-7.636-3.524-3.524-5.286-8.223-5.286-13.51.587-9.986 5.286-19.971 12.923-26.432 4.699-5.286 10.573-9.398 17.034-12.335 5.286 19.971 15.859 38.768 30.544 53.452 17.034 17.622 40.53 28.195 65.2 29.369 15.859.587 31.132-5.286 42.292-15.859 12.923-16.447 19.971-37.593 19.971-58.739m-81.647-17.622c-5.286 16.447-14.685 31.132-27.02 43.467-11.748-12.923-19.384-28.195-23.495-45.229 7.049-1.762 14.097-2.35 21.146-2.35 9.986 0 19.971 1.762 29.369 4.112"/></svg>
