<?xml version="1.0" encoding="UTF-8" standalone="no"?>

<svg
   version="1.1"
   id="Layer_1"
   x="0px"
   y="0px"
   viewBox="0 0 373.79998 364.60001"
   xml:space="preserve"
   width="373.79999"
   height="364.60001"
   xmlns="http://www.w3.org/2000/svg"
   xmlns:svg="http://www.w3.org/2000/svg"
   style="background-color:#00937b"><defs
   id="defs13" />&#10;<style
   type="text/css"
   id="style1">&#10;	.st0{fill:#F9383D;}&#10;	.st1{fill:#FFFFFF;}&#10;	.st2{fill-rule:evenodd;clip-rule:evenodd;fill:#FFFFFF;}&#10;</style>&#10;&#10;&#10;&#10;&#10;&#10;&#10;&#10;&#10;&#10;&#10;&#10;&#10;&#10;<path
   fill="#ffffff"
   d="m 294.6855,187.28227 c 0,-28.78196 -10.57297,-55.80176 -29.95674,-76.94769 -9.98557,-10.572965 -21.14593,-19.383769 -34.06844,-25.845026 l -2.93693,4.699096 c 7.04864,4.111709 13.5099,9.398192 19.38377,15.27206 19.97115,20.55855 31.1315,47.57835 31.71889,76.36031 0,4.11171 0,11.16035 -0.58739,17.03422 -3.52432,-12.33513 -9.98557,-23.49548 -18.79638,-32.89367 -2.93693,-3.52432 -5.87387,-6.46126 -9.98558,-8.22342 -0.58738,8.81081 -2.34954,17.62161 -4.69909,26.43242 3.52432,2.34954 6.46125,5.28648 9.39819,8.22341 7.63603,7.04865 12.33513,17.03423 12.92251,27.60719 0,5.28648 -2.34955,10.57297 -6.46125,14.09729 -5.87387,4.69909 -12.92252,7.04864 -20.55855,7.04864 -11.16035,-0.58739 -22.3207,-4.11171 -31.71889,-10.57296 14.68467,-14.68468 25.25764,-32.89367 29.95673,-52.86483 2.34955,-8.81081 3.52432,-17.62161 3.52432,-27.0198 0,-15.27206 -3.52432,-30.54412 -11.16035,-44.05402 -9.98558,-18.796388 -29.36935,-30.544127 -50.51528,-30.544127 -26.43241,0.587387 -51.69005,12.335126 -69.31166,31.718897 -19.971156,19.38377 -31.718895,46.40357 -31.718895,74.59814 0,4.6991 0,9.3982 0.587387,14.09729 h 5.286482 c 0,-28.19457 11.160349,-54.62699 31.718896,-74.01076 10.57296,-9.98558 22.3207,-18.79638 35.8306,-24.670249 -9.39819,8.810809 -15.85945,20.558539 -19.38377,32.893669 -1.17477,4.11171 -1.76216,8.22342 -1.76216,12.33513 8.22342,-4.11171 16.44684,-7.04865 25.25764,-8.81081 1.17478,-12.33512 6.46126,-23.49548 14.68468,-32.89367 4.1117,-4.111706 9.39819,-7.048641 15.27206,-7.048641 9.39819,0.587387 17.62161,6.461256 21.73332,14.684671 5.28648,9.98558 7.63603,21.73332 6.46125,32.89367 -19.97116,-6.46125 -41.11709,-6.46125 -61.08824,0 -17.03423,4.11171 -32.30629,12.92252 -44.64141,25.25764 -12.922517,12.33513 -20.558544,28.78196 -21.733318,46.40357 0.587387,17.62161 8.223418,34.06845 21.145928,45.81619 21.14593,19.97115 48.75312,31.71889 78.12247,31.13151 22.90809,0 44.64141,-7.04865 63.43779,-19.97116 l -1.17477,-3.52432 c -14.68468,8.22342 -31.13151,12.33512 -48.16574,12.33512 -25.84502,0.58739 -50.51527,-7.63603 -71.07382,-22.90809 5.28648,1.76216 11.16035,2.93694 17.03422,2.93694 11.16036,0 22.32071,-2.34955 32.30629,-7.04865 -7.63603,-5.28648 -14.68468,-11.16035 -20.55855,-17.62161 -7.63603,2.93694 -16.44683,5.28649 -24.67025,5.28649 -8.22342,0.58738 -15.85945,-2.34955 -21.73332,-7.63603 -3.52432,-3.52432 -5.28648,-8.22342 -5.28648,-13.5099 0.58739,-9.98558 5.28648,-19.97116 12.92251,-26.43242 4.6991,-5.28648 10.57297,-9.39819 17.03422,-12.33512 5.28649,19.97115 15.85945,38.76754 30.54413,53.45221 17.03422,17.62161 40.5297,28.19458 65.19995,29.36935 15.85945,0.58739 31.13151,-5.28648 42.29186,-15.85945 12.92252,-16.44683 19.97116,-37.59276 19.97116,-58.7387 m -81.64679,-17.62161 c -5.28648,16.44684 -14.68467,31.13151 -27.0198,43.46664 -11.74774,-12.92251 -19.38377,-28.19457 -23.49548,-45.2288 7.04865,-1.76216 14.09729,-2.34954 21.14593,-2.34954 9.98558,0 19.97116,1.76216 29.36935,4.1117"
   id="path1-9" /></svg>
