<svg xmlns="http://www.w3.org/2000/svg" width="373.8" height="364.6" style="background-color:#ffffff"><g fill-rule="evenodd"><path d="M156.606 182.3c0 22.448-18.241 40.645-40.74 40.645s-40.74-18.197-40.74-40.645 18.239-40.645 40.74-40.645 40.74 18.197 40.74 40.645z" fill="#00a8e1"/><path d="M132.58 167.849h-12.522v36.337h-8.643v-36.337H99.153v-7.435h33.427z" fill="#fff"/><use href="#B" fill="#001887"/><path d="M252.251 184.156v12.949h7.614c4.72 0 5.993 0 8.051-1.489 1.092-.804 1.94-2.477 1.94-4.587.011-1.143-.259-2.273-.787-3.282-1.938-3.53-6.418-3.594-9.145-3.594zm0-17.051v10.912h2.469l4.841-.061c1.998 0 3.999-.063 5.453-.863 2.442-1.139 3.519-4.089 2.407-6.59-.427-.961-1.144-1.758-2.043-2.276-1.7-.992-2.546-1.056-8.357-1.119zm-7.898-6.69h14.963c5.692.061 7.209.127 9.274.743 4.349 1.268 7.338 5.35 7.307 9.979 0 1.922-.399 4.279-1.613 5.953-1.326 1.798-3.024 2.725-5.339 3.165 4.724.863 8.837 4.776 8.837 11.534 0 5.02-2.175 9.48-7.309 11.345-2.725.99-4.842 1.052-9.685 1.052h-16.435z" fill="#fff"/><use href="#B" x="-71.034" fill="#0051b4"/><use href="#C" fill="#003974"/><use href="#C" x="71.033" fill="#131b33"/><path d="M191.167 178.226l-4.299-.988c-3.775-.743-7.666-1.486-7.666-5.203 0-3.331 3.653-5.314 7.838-5.314 6.324 0 9.099 3.897 10.563 6.138l6.175-5.178c-2.966-4.101-7.61-8.309-16.322-8.309-9.787 0-16.449 5.311-16.449 13.583 0 7.225 5.129 9.884 7.017 10.693 1.296.557 2.592.866 5.239 1.549l5.012 1.108c3.773.931 3.888.994 4.835 1.362 1.299.559 3.127 1.542 3.127 4.336 0 1.485-.536 3.709-3.538 5.008-1.477.62-3.007.742-4.48.742-8.34 0-11.58-4.508-12.737-6.342l-6.342 5.067c3.129 5.045 7.704 6.918 10.408 7.759 2.422.679 4.921 1.012 7.428.991 8.839 0 17.681-4.021 17.681-14.025.009-9.325-7.884-11.738-13.491-12.975z" fill="#fff"/></g><defs ><path id="B" d="M298.673 182.3c0 22.448-18.24 40.645-40.739 40.645s-40.74-18.197-40.74-40.645 18.24-40.645 40.74-40.645 40.739 18.197 40.739 40.645z"/><path id="C" d="M151.383 202.225c3.326-5.888 5.223-12.685 5.223-19.925s-1.897-14.038-5.223-19.925c-3.326 5.888-5.223 12.685-5.223 19.925s1.897 14.038 5.223 19.925z"/></defs></svg>
