<?xml version="1.0" encoding="UTF-8" standalone="no"?>
<svg
   version="1.1"
   id="Layer_1"
   x="0px"
   y="0px"
   viewBox="0 0 373.79998 364.60001"
   xml:space="preserve"
   width="373.79999"
   height="364.60001"
   xmlns="http://www.w3.org/2000/svg"
   xmlns:svg="http://www.w3.org/2000/svg"
   style="background-color:#ffffff"><defs
   id="defs13" />&#10;<style
   type="text/css"
   id="style1">&#10;	.st0{fill:#F9383D;}&#10;	.st1{fill:#FFFFFF;}&#10;	.st2{fill-rule:evenodd;clip-rule:evenodd;fill:#FFFFFF;}&#10;</style>&#10;&#10;&#10;&#10;&#10;&#10;&#10;&#10;&#10;&#10;&#10;&#10;&#10;&#10;<g
   id="g1"
   transform="translate(0.1143369,-1.5270369)"><path
     fill-rule="evenodd"
     clip-rule="evenodd"
     d="m 156.49204,183.82705 c 0,22.44788 -18.24079,40.64471 -40.73968,40.64471 -22.500404,0 -40.739686,-18.19683 -40.739686,-40.64471 0,-22.44796 18.239282,-40.64473 40.739686,-40.64473 22.49889,0 40.73968,18.19677 40.73968,40.64473 z"
     fill="#00a8e1"
     id="path1-4"
     style="stroke-width:1.84749" /><path
     fill-rule="evenodd"
     clip-rule="evenodd"
     d="m 132.46602,169.37618 h -12.52227 v 36.33656 h -8.64328 V 169.37618 H 99.038693 v -7.43484 h 33.427327 z"
     fill="#ffffff"
     id="path2"
     style="stroke-width:1.84749" /><path
     fill-rule="evenodd"
     clip-rule="evenodd"
     d="m 298.55864,183.82705 c 0,22.44788 -18.24024,40.64471 -40.73894,40.64471 -22.5,0 -40.74042,-18.19683 -40.74042,-40.64471 0,-22.44796 18.24042,-40.64473 40.74042,-40.64473 22.4987,0 40.73894,18.19677 40.73894,40.64473 z"
     fill="#001887"
     id="path3"
     style="stroke-width:1.84749" /><path
     fill-rule="evenodd"
     clip-rule="evenodd"
     d="m 252.13664,185.68265 v 12.94942 h 7.61368 c 4.72034,0 5.99325,0 8.05135,-1.48853 1.09186,-0.8042 1.93987,-2.47674 1.93987,-4.58694 0.0111,-1.1434 -0.25865,-2.27278 -0.78703,-3.28225 -1.93802,-3.53035 -6.41818,-3.59446 -9.14507,-3.59446 z m 0,-17.05119 v 10.91163 h 2.46917 c 2.24913,0 3.87159,0 4.84079,-0.0612 1.99787,0 3.99869,-0.0628 5.45267,-0.86278 2.44237,-1.13917 3.51947,-4.08923 2.40728,-6.58999 -0.42678,-0.96107 -1.1436,-1.75807 -2.04333,-2.27573 -1.69968,-0.99229 -2.54583,-1.05639 -8.35673,-1.11921 z m -7.89763,-6.69012 h 14.96261 c 5.69211,0.0613 7.20889,0.12692 9.27438,0.74287 4.34899,1.26756 7.33823,5.34977 7.30682,9.97939 0,1.92194 -0.39906,4.27896 -1.61286,5.95279 -1.32649,1.79797 -3.02434,2.72467 -5.33924,3.1653 4.72403,0.86259 8.83654,4.77649 8.83654,11.5335 0,5.02035 -2.1745,9.48018 -7.30867,11.34523 -2.72504,0.98951 -4.84226,1.05232 -9.68452,1.05232 h -16.43506 z"
     fill="#ffffff"
     id="path4"
     style="stroke-width:1.84749" /><path
     fill-rule="evenodd"
     clip-rule="evenodd"
     d="m 227.52534,183.82705 c 0,22.44788 -18.24042,40.64471 -40.73894,40.64471 -22.5,0 -40.74042,-18.19683 -40.74042,-40.64471 0,-22.44796 18.24042,-40.64473 40.74042,-40.64473 22.49852,0 40.73894,18.19677 40.73894,40.64473 z"
     fill="#0051b4"
     id="path5"
     style="stroke-width:1.84749" /><path
     fill-rule="evenodd"
     clip-rule="evenodd"
     d="m 151.26901,203.75237 c 3.32566,-5.88775 5.22303,-12.68539 5.22303,-19.92532 0,-7.23995 -1.89737,-14.03759 -5.22303,-19.92534 -3.32566,5.88775 -5.22303,12.68539 -5.22303,19.92534 0,7.23993 1.89737,14.03757 5.22303,19.92532 z"
     fill="#003974"
     id="path6"
     style="stroke-width:1.84749" /><path
     fill-rule="evenodd"
     clip-rule="evenodd"
     d="m 222.30231,203.75237 c 3.32566,-5.88756 5.22303,-12.68539 5.22303,-19.92532 0,-7.23995 -1.89737,-14.03759 -5.22303,-19.92534 -3.32566,5.88775 -5.22303,12.68539 -5.22303,19.92534 0,7.23993 1.89737,14.03776 5.22303,19.92532 z"
     fill="#131b33"
     id="path7"
     style="stroke-width:1.84749" /><path
     fill-rule="evenodd"
     clip-rule="evenodd"
     d="m 191.05299,179.75314 -4.29948,-0.98803 c -3.77478,-0.74324 -7.66559,-1.48648 -7.66559,-5.20253 0,-3.33083 3.65322,-5.31429 7.83777,-5.31429 6.32414,0 9.0987,3.89654 10.56338,6.13772 l 6.17505,-5.17814 c -2.96596,-4.10141 -7.60962,-8.30863 -16.32182,-8.30863 -9.78724,0 -16.44873,5.31127 -16.44873,13.58265 0,7.2246 5.12863,9.88388 7.01676,10.69289 1.29638,0.55702 2.59166,0.86647 5.23929,1.54949 l 5.01242,1.10831 c 3.77349,0.93076 3.88822,0.99395 4.83487,1.36196 1.29934,0.5585 3.12724,1.54229 3.12724,4.33606 0,1.48501 -0.53558,3.70902 -3.5383,5.0078 -1.47689,0.62001 -3.00697,0.74176 -4.47979,0.74176 -8.34048,0 -11.57969,-4.50805 -12.73695,-6.34242 l -6.34186,5.06655 c 3.12871,5.04493 7.70401,6.9181 10.40763,7.75871 2.42224,0.67876 4.92096,1.01242 7.42801,0.9908 8.83911,0 17.681,-4.02105 17.681,-14.02519 0.009,-9.32519 -7.88415,-11.7382 -13.4909,-12.97547 z"
     fill="#ffffff"
     id="path8"
     style="stroke-width:1.84749" /></g></svg>
