<?xml version="1.0" encoding="UTF-8" standalone="no"?>
<svg
   version="1.1"
   id="Layer_1"
   x="0px"
   y="0px"
   viewBox="0 0 373.79998 364.60001"
   xml:space="preserve"
   width="373.79999"
   height="364.60001"
   xmlns="http://www.w3.org/2000/svg"
   xmlns:svg="http://www.w3.org/2000/svg"
   style="background-color:#ffffff"><defs
   id="defs13"><mask
     id="mask0_6337_13464"
     maskUnits="userSpaceOnUse"
     x="0"
     y="0"
     width="141"
     height="57"><path
       d="M 140.5,0.393066 H 0.5 V 56.3931 h 140 z"
       fill="#ffffff"
       id="path1-4" /></mask></defs>&#10;<style
   type="text/css"
   id="style1">&#10;	.st0{fill:#F9383D;}&#10;	.st1{fill:#FFFFFF;}&#10;	.st2{fill-rule:evenodd;clip-rule:evenodd;fill:#FFFFFF;}&#10;</style>&#10;&#10;&#10;&#10;&#10;&#10;&#10;&#10;&#10;&#10;&#10;&#10;&#10;&#10;<g
   mask="url(#mask0_6337_13464)"
   id="g5"
   transform="matrix(1.8276722,0,0,1.8276722,74.865623,130.40681)"><path
     d="m 54.9719,0.954907 c 14.985,-1.1946 30.167,-0.544789 44.896,2.533603 0.5641,-1.07645 1.4831,-2.06758 2.7501,-2.22511 2.002,-0.413512 4.096,1.33901 3.984,3.39346 0.099,2.04788 -1.982,3.78727 -3.984,3.36719 C 100.616,7.78119 99.415,5.65454 99.7957,3.75762 88.447,1.85414 76.8751,1.3356 65.3886,2.0248 54.3156,2.73368 43.2425,4.47963 32.734,8.12251 27.1942,10.0916 21.7463,12.5727 17.1254,16.2615 c -2.9996,2.4221 -5.7039,5.553 -6.5637,9.3993 -0.7089,2.9865 0.0656,6.1634 1.6737,8.7298 1.8313,2.9537 4.529,5.2641 7.3842,7.1873 4.6603,3.1046 9.8719,5.2706 15.1754,6.9969 12.8912,4.1023 26.4781,5.6251 39.9666,5.6973 14.8669,-0.0393 29.8784,-1.8575 43.9374,-6.8853 -5.041,2.3564 -10.423,3.912 -15.818,5.2444 C 88.3288,56.0575 73.2585,56.9501 58.3588,56.0837 45.7368,55.2501 33.0753,53.1366 21.2474,48.5223 16.0555,46.4416 10.9818,43.8489 6.74815,40.147 4.21455,37.9087 2.00257,35.1454 1.00488,31.8701 0.0597064,28.7655 0.466659,25.3195 2.0157,22.4774 3.75509,19.1758 6.57093,16.5766 9.57056,14.4171 13.581,11.575 18.0575,9.47464 22.639,7.73525 33.0097,3.8889 43.9842,1.91978 54.9785,0.961471"
     fill="#0083ca"
     id="path2" /><path
     d="m 20.9913,17.0229 c 1.0174,-0.2757 2.3564,-0.3085 3.0456,0.6301 0.3741,0.4267 0.4069,1.0305 0.4069,1.5687 0,4.9491 -0.0197,9.9047 0,14.8538 0.0394,1.956 1.7722,3.6625 3.7217,3.7085 4.7784,0.0131 9.5568,0.0066 14.3286,0 1.9691,0 3.7545,-1.746 3.761,-3.7217 0,-5.0343 0.0788,-10.0622 0.0525,-15.0965 -0.0853,-0.9649 0.6236,-1.9298 1.595,-2.0545 0.8139,-0.0853 1.7919,-0.1444 2.4286,0.4726 0.5317,0.4595 0.6761,1.1815 0.6564,1.8444 0,4.8506 -0.0066,9.7078 0,14.5584 0.0197,1.2011 -0.0197,2.4417 -0.4857,3.5706 -0.9583,2.5074 -3.4919,4.3321 -6.1896,4.3518 -5.9862,0 -11.9789,0 -17.965,0 -3.0062,-0.0394 -5.7695,-2.3695 -6.4062,-5.2904 -0.2363,-1.0239 -0.1772,-2.0872 -0.1772,-3.1309 0,-4.7718 0,-9.5436 0,-14.322 -0.046,-0.8205 0.4332,-1.6607 1.2208,-1.9495"
     fill="#0083ca"
     id="path3" /><path
     d="m 56.5797,18.959 c -0.0788,-0.8467 0.4791,-1.7065 1.293,-1.9691 0.4989,-0.1247 1.024,-0.1116 1.5425,-0.1116 6.9444,0.0197 13.8889,-0.0197 20.8333,0.0197 3.7741,0 7.4761,3.1375 7.5024,7.0167 0.1509,2.0347 -0.7943,3.9841 -2.1989,5.4085 1.3653,1.398 2.3236,3.2818 2.1989,5.2772 0.0525,3.9514 -3.702,7.1479 -7.5155,7.1676 -7.2923,0.0066 -14.5846,0 -21.877,0 -1.0239,0.0722 -1.7984,-1.0108 -1.7722,-1.9625 -0.0065,-6.951 0,-13.902 0,-20.8465 m 4.5815,1.9166 c 0,2.1989 0,4.3977 0,6.5966 h 18.8248 c 1.8247,0.0591 3.7348,-1.3653 3.7873,-3.2753 -0.0263,-1.9297 -1.9429,-3.3672 -3.7807,-3.3213 -6.275,-0.0065 -12.5499,0 -18.8248,0 m -0.0131,10.2657 c 0.0065,2.2186 0,4.4371 0,6.6557 6.0977,0 12.1954,0 18.2931,0 1.083,0.0196 2.2185,-0.2101 3.0718,-0.919 1.0371,-0.8007 1.5819,-2.3104 0.9911,-3.5378 -0.617,-1.4703 -2.271,-2.2317 -3.8069,-2.1989 z"
     fill="#0083ca"
     id="path4" /><path
     d="m 94.6363,17.0099 c 0.9648,-0.2363 2.212,-0.3085 2.9274,0.512 0.4332,0.4463 0.5448,1.0896 0.5317,1.6935 0,4.9556 -0.0132,9.9112 0,14.8603 0.0262,1.9625 1.759,3.6625 3.7086,3.7085 6.084,0.0262 12.169,0 18.254,0.0065 0.886,-0.0459 1.936,0.5054 2.021,1.4703 0,0.5776 0.132,1.2799 -0.302,1.7525 -0.413,0.5054 -1.07,0.7483 -1.706,0.7089 h -17.998 c -1.319,-0.0197 -2.6911,0.1444 -3.9579,-0.3282 -2.6649,-0.8533 -4.68,-3.4722 -4.7194,-6.288 0,-5.3823 0,-10.7646 0,-16.1468 -0.0656,-0.8271 0.4529,-1.6541 1.2275,-1.9495"
     fill="#0083ca"
     id="path5" /></g></svg>
