<svg xmlns="http://www.w3.org/2000/svg" width="373.8" height="364.6" style="background-color:#ffffff"><defs><mask id="A" maskUnits="userSpaceOnUse" x="0" y="0" width="141" height="57"><path d="M140.5.393H.5v56h140z" fill="#fff"/></mask></defs><g mask="url(#A)" transform="matrix(1.827672 0 0 1.827672 74.865623 130.40681)"><path d="M54.972.955C69.957-.24 85.139.41 99.868 3.489c.564-1.076 1.483-2.068 2.75-2.225 2.002-.414 4.096 1.339 3.984 3.393.099 2.048-1.982 3.787-3.984 3.367-2.002-.243-3.203-2.37-2.822-4.266-11.349-1.903-22.921-2.422-34.407-1.733-11.073.709-22.146 2.455-32.655 6.098-5.54 1.969-10.988 4.45-15.609 8.139-3 2.422-5.704 5.553-6.564 9.399-.709 2.986.066 6.163 1.674 8.73 1.831 2.954 4.529 5.264 7.384 7.187 4.66 3.105 9.872 5.271 15.175 6.997 12.891 4.102 26.478 5.625 39.967 5.697 14.867-.039 29.878-1.858 43.937-6.885-5.041 2.356-10.423 3.912-15.818 5.244-14.552 3.426-29.623 4.319-44.522 3.453-12.622-.834-25.284-2.947-37.111-7.561-5.192-2.081-10.266-4.673-14.499-8.375-2.534-2.238-4.746-5.002-5.743-8.277-.945-3.105-.538-6.551 1.011-9.393 1.739-3.302 4.555-5.901 7.555-8.06 4.01-2.842 8.487-4.942 13.068-6.682C33.01 3.889 43.984 1.92 54.979.961M20.991 17.023c1.017-.276 2.356-.308 3.046.63.374.427.407 1.031.407 1.569v14.854c.039 1.956 1.772 3.663 3.722 3.709h14.329c1.969 0 3.755-1.746 3.761-3.722l.053-15.096c-.085-.965.624-1.93 1.595-2.055.814-.085 1.792-.144 2.429.473.532.459.676 1.181.656 1.844v14.558c.02 1.201-.02 2.442-.486 3.571-.958 2.507-3.492 4.332-6.19 4.352H26.347c-3.006-.039-5.77-2.37-6.406-5.29-.236-1.024-.177-2.087-.177-3.131V18.966c-.046-.82.433-1.661 1.221-1.95m35.595 1.943c-.079-.847.479-1.706 1.293-1.969.499-.125 1.024-.112 1.542-.112l20.833.02c3.774 0 7.476 3.137 7.502 7.017.151 2.035-.794 3.984-2.199 5.409 1.365 1.398 2.324 3.282 2.199 5.277.052 3.951-3.702 7.148-7.516 7.168H58.358c-1.024.072-1.798-1.011-1.772-1.962V18.959m4.581 1.917v6.597h18.825c1.825.059 3.735-1.365 3.787-3.275-.026-1.93-1.943-3.367-3.781-3.321-6.275-.006-12.55 0-18.825 0m-.013 10.266v6.656h18.293c1.083.02 2.219-.21 3.072-.919 1.037-.801 1.582-2.31.991-3.538-.617-1.47-2.271-2.232-3.807-2.199zM94.636 17.01c.965-.236 2.212-.308 2.927.512.433.446.545 1.09.532 1.694v14.86c.026 1.962 1.759 3.663 3.709 3.709l18.254.007c.886-.046 1.936.505 2.021 1.47 0 .578.132 1.28-.302 1.752-.413.505-1.07.748-1.706.709h-17.998c-1.319-.02-2.691.144-3.958-.328-2.665-.853-4.68-3.472-4.719-6.288V18.959a1.97 1.97 0 0 1 1.228-1.95" fill="#0083ca"/></g></svg>
