<?xml version="1.0" encoding="UTF-8" standalone="no"?>
<svg
   version="1.1"
   id="Layer_1"
   x="0px"
   y="0px"
   viewBox="0 0 373.79998 364.60001"
   xml:space="preserve"
   width="373.79999"
   height="364.60001"
   xmlns="http://www.w3.org/2000/svg"
   xmlns:svg="http://www.w3.org/2000/svg"
   style="background-color:#96151d"><defs
   id="defs13" />&#10;<style
   type="text/css"
   id="style1">&#10;	.st0{fill:#F9383D;}&#10;	.st1{fill:#FFFFFF;}&#10;	.st2{fill-rule:evenodd;clip-rule:evenodd;fill:#FFFFFF;}&#10;</style>&#10;&#10;&#10;&#10;&#10;&#10;&#10;&#10;&#10;&#10;&#10;&#10;&#10;&#10;<path
   d="m 83.399152,75.022167 h 19.982458 c 15.27044,0 30.54087,0.218149 45.81131,-0.119982 4.84291,-0.109075 6.70809,1.603396 8.18059,5.977285 15.54313,46.00765 31.28258,91.94985 46.98932,137.89205 0.80715,2.35601 1.73428,4.66839 3.27223,8.82413 6.92624,-21.97852 13.19803,-41.97189 19.50253,-61.95434 5.93366,-18.82627 11.91095,-37.63072 17.8446,-56.43518 5.4101,-17.124703 3.41403,-23.178341 -11.8455,-33.81311 h 57.62409 L 217.76809,289.7027 c -30.879,-7.9079 -56.81693,-20.86596 -68.10615,-53.30473 C 133.90067,191.15384 117.2668,146.21513 101.03651,101.13462 97.458861,91.20883 93.292211,81.762974 83.039206,76.592841 l 0.359946,-1.570674"
   id="path2"
   fill="#ffffff"
   style="stroke-width:10.9075" /></svg>
