<svg xmlns="http://www.w3.org/2000/svg" width="373.8" height="364.6">
  <rect width="373.8" height="364.6" fill="#ffffff" />
  <path d="M169.912 267.875c9.524-62.75 34.749-124.875 70.07-177.366l7.238-10.422c3.783-5.442 11.266-6.803 16.681-2.993 5.17 3.592 6.585 10.531 3.538 15.892-14.776 28.355-27.811 57.471-37.661 87.894-10.096 30.015-17.742 60.9-22.286 92.221-4.3 24.763-40.083 19.864-37.579-5.225z" fill="#ff0094" />
  <path d="M171.163 277.752c-11.129-26.667-23.62-53.498-39.022-77.989-5.551-8.517-11.511-16.98-18.314-24.491-1.959-2.014-3.946-4.109-5.878-6.231-4.49-4.898-4.191-12.518.68-17.035 4.055-3.782 10.041-4.164 14.504-1.361 20.654 13.279 36.083 31.919 49.798 51.566 13.252 19.484 24.355 39.539 33.443 61.363 8.517 23.729-25.089 37.253-35.239 14.15z" fill="#00003b" />
</svg>