<?xml version="1.0" encoding="UTF-8" standalone="no"?>
<svg
   version="1.1"
   id="Layer_1"
   x="0px"
   y="0px"
   viewBox="0 0 373.79998 364.60001"
   xml:space="preserve"
   width="373.79999"
   height="364.60001"
   xmlns="http://www.w3.org/2000/svg"
   xmlns:svg="http://www.w3.org/2000/svg"
   style="background-color:#e10a0a"><defs
   id="defs13" />&#10;<style
   type="text/css"
   id="style1">&#10;	.st0{fill:#F9383D;}&#10;	.st1{fill:#FFFFFF;}&#10;	.st2{fill-rule:evenodd;clip-rule:evenodd;fill:#FFFFFF;}&#10;</style>&#10;&#10;&#10;&#10;&#10;&#10;&#10;&#10;&#10;&#10;&#10;&#10;&#10;&#10;<path
   d="m 234.96967,75.185909 c -1.09785,0.451292 -2.33201,0.930229 -3.14618,1.884397 -2.14412,2.486735 -3.47775,5.454248 -5.03242,8.270704 -2.77962,4.999261 -5.93685,9.965376 -8.00729,15.28331 -0.55261,1.23047 -1.10338,2.4591 -1.66152,3.68957 l -1.38152,3.57353 c -0.75707,1.77388 -1.13468,3.71538 -1.88624,5.43952 -0.73496,1.66888 -2.07412,2.99882 -2.9104,4.57376 l -3.29538,6.56314 c -0.63183,1.41836 -1.25627,2.83488 -1.88624,4.24956 -0.91365,1.7223 -1.99124,3.37827 -2.80541,5.1411 -1.62283,3.50169 -2.77041,7.29074 -4.08193,10.95454 l -2.94909,7.15075 -3.26224,7.75678 c -3.06881,6.44341 -5.32898,13.39339 -7.91334,20.10022 l -1.90283,5.24425 -4.83901,13.90916 c -3.38933,9.7609 -5.43766,20.05232 -8.70726,29.83349 -0.75708,2.25095 -1.47546,4.53323 -2.0336,6.85234 -0.48814,2.00597 -0.6926,4.48166 -2.0336,6.04001 -0.27814,0.32052 -0.83075,0.62261 -1.22863,0.29841 -0.88786,-0.72944 -1.18811,-13.54627 -1.37784,-15.89671 -0.75155,-9.23408 -0.46787,-19.22708 -0.31499,-28.47407 0.11973,-7.77336 -0.0258,-15.82302 -0.14736,-23.61664 l -0.16762,-5.86318 c 0,-3.89404 0.12526,-14.97568 -4.05247,-15.66644 -4.49638,-0.74787 -7.66467,9.72406 -8.82699,12.58289 -1.26732,3.10935 -1.6394,6.72524 -2.49411,10.07037 -0.71102,2.73725 -1.67625,5.31241 -2.69489,7.86177 -3.24749,8.07177 -8.44385,15.15805 -11.48688,23.34402 -0.6355,1.70572 -1.35022,3.54223 -1.65599,5.36584 -0.4034,2.3449 -0.24683,7.35338 1.79782,8.66306 1.51415,0.96521 3.7209,0.67417 4.9919,-0.4992 1.1881,-1.10521 1.89177,-4.18508 2.67462,-5.7416 0.70365,-1.4773 1.40732,-2.94725 2.10728,-4.4227 0.91365,-1.94703 2.15886,-3.77248 3.04119,-5.77293 1.08679,-2.46832 1.46626,-5.30688 2.51622,-7.79177 0.45313,-0.80681 0.90442,-1.61178 1.35573,-2.42412 0.63549,-1.34283 1.271,-2.68935 1.90649,-4.04141 0.0958,-0.16209 0.32052,-0.42366 0.56183,-0.42366 v 0.16762 c 0.55813,1.11443 0.70365,2.54937 0.87312,3.84616 0.26893,2.06676 0.55076,4.14457 0.65576,6.36605 0.34261,7.35338 0.48997,14.86516 0.48997,22.4488 0,6.80445 0.37393,13.61627 1.23785,20.08916 l 1.07391,7.04391 c 0.62997,5.66977 0.62997,11.52189 1.18257,17.25244 0.44577,4.29745 0.89155,8.60042 1.341,12.89789 0.28736,2.612 0.0368,7.04575 1.54915,8.87121 1.08679,1.31519 2.66357,1.17889 4.37666,1.17889 1.07574,-0.74786 1.83834,-0.70181 2.73172,-1.93229 1.5823,-2.18832 1.21942,-5.29215 1.31337,-8.28544 0.10504,-3.48144 0.19893,-7.11207 0.53051,-10.55298 0.61338,-6.46553 1.50861,-12.77815 2.86987,-18.91948 0.53051,-2.40753 1.48099,-4.67874 2.03728,-7.07154 0.24684,-1.44415 0.4992,-2.8883 0.74603,-4.33429 0.0681,-1.56572 -0.0166,-3.24565 0.25236,-4.67323 0.53787,-2.92698 1.87149,-5.43398 2.92145,-8.07176 0.33709,-0.86392 0.32604,-1.95808 0.44577,-2.96752 0.22657,-1.06284 0.45867,-2.11833 0.68339,-3.18301 1.09785,-3.91616 2.19754,-7.83047 3.28986,-11.75215 0.0571,-0.25604 0.72945,-2.00965 0.50472,-2.00965 0.60971,-1.27284 0.79208,-2.7962 1.25074,-4.15562 l 3.00987,-10.06484 7.56705,-23.94637 3.74669,-10.85138 c 3.14619,-7.01445 6.77866,-13.9902 9.86774,-21.04701 1.30784,-3.00436 2.39648,-6.16528 3.36355,-9.36857 0.59498,-1.98938 0.74602,-3.79825 1.63941,-5.64581 0.82891,-1.73335 2.4591,-2.86988 3.5938,-4.42824 1.78123,-2.46463 3.67299,-4.83716 5.05451,-7.51731 2.40753,-4.68428 3.62512,-10.595339 8.82701,-13.179704 0.55813,-0.281834 1.06285,-0.73865 1.71861,-0.843647 1.92308,-0.32604 2.69489,3.615897 3.60485,4.75795 0.35183,0.438403 0.90259,0.753401 1.38704,0.952341 0.89339,0.36656 1.88624,-0.0166 2.87357,-0.0166 0.90444,-0.71102 1.67624,-1.245212 2.11833,-2.370692 1.78678,-4.586651 0.006,-16.651941 -2.54753,-20.17389 -1.24521,-1.707562 -2.74277,-2.429638 -4.95137,-2.571476 z"
   fill="#ffffff"
   id="path2"
   style="clip-rule:evenodd;fill-rule:evenodd;stroke-width:1.84202" /></svg>
