<svg xmlns="http://www.w3.org/2000/svg" width="373.8" height="364.6">
  <rect width="373.8" height="364.6" fill="#e10a0a" />
  <path d="M234.97 75.186c-1.098.451-2.332.93-3.146 1.884-2.144 2.487-3.478 5.454-5.032 8.271-2.78 4.999-5.937 9.965-8.007 15.283l-1.662 3.69-1.382 3.574c-.757 1.774-1.135 3.715-1.886 5.44-.735 1.669-2.074 2.999-2.91 4.574l-3.295 6.563-1.886 4.25c-.914 1.722-1.991 3.378-2.805 5.141-1.623 3.502-2.77 7.291-4.082 10.955l-2.949 7.151-3.262 7.757c-3.069 6.443-5.329 13.393-7.913 20.1l-1.903 5.244-4.839 13.909c-3.389 9.761-5.438 20.052-8.707 29.833-.757 2.251-1.475 4.533-2.034 6.852-.488 2.006-.693 4.482-2.034 6.04-.278.321-.831.623-1.229.298-.888-.729-1.188-13.546-1.378-15.897-.752-9.234-.468-19.227-.315-28.474.12-7.773-.026-15.823-.147-23.617l-.168-5.863c0-3.894.125-14.976-4.052-15.666-4.496-.748-7.665 9.724-8.827 12.583-1.267 3.109-1.639 6.725-2.494 10.07-.711 2.737-1.676 5.312-2.695 7.862-3.247 8.072-8.444 15.158-11.487 23.344-.636 1.706-1.35 3.542-1.656 5.366-.403 2.345-.247 7.353 1.798 8.663 1.514.965 3.721.674 4.992-.499 1.188-1.105 1.892-4.185 2.675-5.742l2.107-4.423c.914-1.947 2.159-3.772 3.041-5.773 1.087-2.468 1.466-5.307 2.516-7.792l1.356-2.424 1.906-4.041c.096-.162.321-.424.562-.424v.168c.558 1.114.704 2.549.873 3.846.269 2.067.551 4.145.656 6.366.343 7.353.49 14.865.49 22.449 0 6.804.374 13.616 1.238 20.089l1.074 7.044c.63 5.67.63 11.522 1.183 17.252l1.341 12.898c.287 2.612.037 7.046 1.549 8.871 1.087 1.315 2.664 1.179 4.377 1.179 1.076-.748 1.838-.702 2.732-1.932 1.582-2.188 1.219-5.292 1.313-8.285.105-3.481.199-7.112.531-10.553.613-6.466 1.509-12.778 2.87-18.919.531-2.408 1.481-4.679 2.037-7.072l.746-4.334c.068-1.566-.017-3.246.252-4.673.538-2.927 1.871-5.434 2.921-8.072.337-.864.326-1.958.446-2.968l.683-3.183 3.29-11.752c.057-.256.729-2.01.505-2.01.61-1.273.792-2.796 1.251-4.156l3.01-10.065 7.567-23.946 3.747-10.851c3.146-7.014 6.779-13.99 9.868-21.047 1.308-3.004 2.396-6.165 3.364-9.369.595-1.989.746-3.798 1.639-5.646.829-1.733 2.459-2.87 3.594-4.428 1.781-2.465 3.673-4.837 5.055-7.517 2.408-4.684 3.625-10.595 8.827-13.18.558-.282 1.063-.739 1.719-.844 1.923-.326 2.695 3.616 3.605 4.758.352.438.903.753 1.387.952.893.367 1.886-.017 2.874-.017.904-.711 1.676-1.245 2.118-2.371 1.787-4.587.006-16.652-2.548-20.174-1.245-1.708-2.743-2.43-4.951-2.571z" fill="#fff" fill-rule="evenodd" />
</svg>