<svg xmlns="http://www.w3.org/2000/svg" width="373.8" height="364.6" style="background-color:#ffffff"><defs><linearGradient id="A" x1="1949.222" y1="1429.159" x2="2002.338" y2="1429.159" gradientUnits="userSpaceOnUse"><stop offset=".035" stop-color="#1ae8b6"/><stop offset=".746" stop-color="#1ae8b6" stop-opacity=".051"/></linearGradient><linearGradient id="B" x1="1949.222" y1="1429.159" x2="2002.338" y2="1429.159" gradientUnits="userSpaceOnUse"><stop offset=".035" stop-color="#1dd698"/><stop offset=".746" stop-color="#1ae8b6" stop-opacity=".051"/></linearGradient><path id="C" d="M169.24 11.8h32.636a10.24 10.24 0 0 1 10.24 10.24h0a10.24 10.24 0 0 1-10.24 10.24H169.24A10.24 10.24 0 0 1 159 22.04h0a10.24 10.24 0 0 1 10.24-10.24z"/></defs><g transform="matrix(2.559475 0 0 2.559475 52.336875 95.181872)"><g transform="translate(-115.867 -3.705)"><use href="#C" fill="url(#A)"/><use href="#C" fill="url(#B)"/></g><circle cx="19.026" cy="18.335" r="10.126"/><circle cx="34.991" cy="49.854" r="10.126"/><circle cx="69.703" cy="49.854" r="10.126"/><circle cx="52.552" cy="18.335" r="10.126"/></g></svg>
