<?xml version="1.0" encoding="UTF-8" standalone="no"?>
<svg
   version="1.1"
   id="Layer_1"
   x="0px"
   y="0px"
   viewBox="0 0 373.79998 364.60001"
   xml:space="preserve"
   width="373.79999"
   height="364.60001"
   xmlns="http://www.w3.org/2000/svg"
   xmlns:svg="http://www.w3.org/2000/svg"
   style="background-color:#ffffff"><defs
   id="defs13"><linearGradient
     id="a"
     x1="1210.3571"
     y1="2301.5923"
     x2="1243.3391"
     y2="2301.5923"
     gradientUnits="userSpaceOnUse"
     gradientTransform="scale(1.6104517,0.6209438)"><stop
       offset="0.035"
       stop-color="#1ae8b6"
       id="stop1" /><stop
       offset="0.746"
       stop-color="#1ae8b6"
       stop-opacity="0.051"
       id="stop2" /></linearGradient><linearGradient
     id="b"
     x1="1210.3571"
     y1="2301.5923"
     x2="1243.3391"
     y2="2301.5923"
     gradientUnits="userSpaceOnUse"
     gradientTransform="scale(1.6104517,0.6209438)"><stop
       offset="0.035"
       stop-color="#1dd698"
       id="stop3" /><stop
       offset="0.746"
       stop-color="#1ae8b6"
       stop-opacity="0.051"
       id="stop4" /></linearGradient></defs>&#10;<style
   type="text/css"
   id="style1">&#10;	.st0{fill:#F9383D;}&#10;	.st1{fill:#FFFFFF;}&#10;	.st2{fill-rule:evenodd;clip-rule:evenodd;fill:#FFFFFF;}&#10;</style>&#10;&#10;&#10;&#10;&#10;&#10;&#10;&#10;&#10;&#10;&#10;&#10;&#10;&#10;<g
   id="g29"
   transform="matrix(2.559475,0,0,2.559475,52.336875,95.181872)"><g
     transform="translate(43.133,8.095)"
     id="g5"><path
       class="b"
       d="m 169.24,11.8 h 32.636 a 10.239,10.239 0 0 1 10.24,10.24 v 0 a 10.239,10.239 0 0 1 -10.24,10.24 H 169.24 A 10.239,10.239 0 0 1 159,22.04 v 0 A 10.24,10.24 0 0 1 169.24,11.8 Z"
       transform="translate(-159,-11.8)"
       id="path4"
       style="fill:url(#a)" /><path
       class="c"
       d="m 169.24,11.8 h 32.636 a 10.239,10.239 0 0 1 10.24,10.24 v 0 a 10.239,10.239 0 0 1 -10.24,10.24 H 169.24 A 10.239,10.239 0 0 1 159,22.04 v 0 A 10.24,10.24 0 0 1 169.24,11.8 Z"
       transform="translate(-159,-11.8)"
       id="path5"
       style="fill:url(#b)" /></g><circle
     cx="10.126"
     cy="10.126"
     r="10.126"
     transform="translate(8.9,8.209)"
     id="circle5" /><circle
     cx="10.126"
     cy="10.126"
     r="10.126"
     transform="translate(24.865,39.728)"
     id="circle6" /><circle
     cx="10.126"
     cy="10.126"
     r="10.126"
     transform="translate(59.577,39.728)"
     id="circle7" /><circle
     cx="10.126"
     cy="10.126"
     r="10.126"
     transform="translate(42.426,8.209)"
     id="circle27" /></g></svg>
