<svg xmlns="http://www.w3.org/2000/svg" width="373.8" height="364.6">
  <rect width="373.8" height="364.6" fill="#fe0103" />
  <path fill="#fff" d="M287.705 117.031l-66.148 12.668c-1.407 1.056-2.464 1.759-3.519 2.815-8.796 7.741-17.943 15.129-27.443 22.166-8.796-4.926-17.241-9.148-26.038-13.37l-78.463 15.834c15.13 4.222 30.259 8.796 45.037 14.777 6.333 2.463 11.963 4.926 17.944 7.741-9.5 4.926-19 9.5-28.852 13.37-14.778 5.981-29.555 10.907-45.037 14.777l78.463 15.834c13.018-5.981 25.333-12.667 37.648-20.056 13.018 8.444 25.685 18.297 37.296 28.852 1.407 1.056 2.464 1.759 3.519 2.815h.352l66.148 12.315c-19.704-26.389-43.629-49.963-70.37-69.315 22.518-17.593 42.573-38.353 59.462-61.224z" fill-rule="evenodd" />
</svg>