<svg xmlns="http://www.w3.org/2000/svg" width="373.8" height="364.6">
  <rect width="373.8" height="364.6" fill="#cc2229" />
  <path d="M230.186 155.005c0-2.947-2.689-3.466-5.371-1.299l-7.973 6.152V122.51l20.705-16.204v68.714c0 3.121-.693 5.977-3.985 8.666 1.996 1.299 3.985 4.072 3.985 6.671v62.653l-20.705 16.201v-37.344l9.182-7.193c2.86-2.254 4.162-3.724 4.162-7.019v-7.973c0-2.947-2.689-3.466-5.371-1.299l-7.973 6.152v-37.348l9.182-7.19c2.86-2.254 4.162-3.727 4.162-7.019zm-13.341 4.852l-13.261 10.485v17.329l13.261-10.485v37.348l-13.261 10.484v17.329l13.261-10.484v37.347l-15.598 12.303V134.816l15.598-12.303zm-15.598-35.874l10.307-8.321v-13.344l-10.307 8.234zm0-27.382V83.254l10.307-8.318v13.348zm0-13.344v13.348l-3.034 2.424v13.95l3.034-2.425v13.431l-10.404 8.318v-40.73zm0 51.559v146.701l-10.404 8.147v-37.347l5.371-4.249v-17.329l-5.371 4.243v-37.344l5.371-4.159v-17.329l-5.371 4.159V142.96zm-28.684 146.701V244.17l10.31 8.147v37.347zm0-54.677v-46.878l4.333-4.333-4.333-3.379v-37.435l10.31 8.144v37.348l-9.704 9.617 9.704 7.712v37.344zm0-102.164V83.257l10.31 8.321v13.344l-6.67-5.375v14.731l2.686 2.167v13.344zm0-41.419v41.423l-6.242-5.113v-13.344l2.602 2.08V93.658l-6.67-5.371V74.939zm0 51.559l-36.309-28.51v37.347l36.309 28.597zm0 45.146v46.878l-20.45-16.117-9.792 9.617 30.242 23.829v37.347l-36.309-28.507v-37.347l9.879-9.617-9.879-7.712v-37.351l30.935 24.261z" fill="#ffffff" fill-rule="evenodd" />
</svg>